<?xml version="1.0" encoding="UTF-8" standalone="no"?>
<!DOCTYPE svg PUBLIC "-//W3C//DTD SVG 1.1//EN"
 "http://www.w3.org/Graphics/SVG/1.1/DTD/svg11.dtd">
<!-- Generated by graphviz version 3.0.0 (20220315.2325)
 -->
<!-- Title: advection_mod Pages: 1 -->
<svg width="715pt" height="673pt"
 viewBox="0.00 0.00 715.00 673.00" xmlns="http://www.w3.org/2000/svg" xmlns:xlink="http://www.w3.org/1999/xlink">
<g id="graph0" class="graph" transform="scale(1 1) rotate(0) translate(4 669)">
<title>advection_mod</title>
<polygon fill="white" stroke="transparent" points="-4,4 -4,-669 711,-669 711,4 -4,4"/>
<text text-anchor="middle" x="353.5" y="-37.8" font-family="Times,serif" font-size="14.00">Red boxes indicate modules with dependencies not shown</text>
<text text-anchor="middle" x="353.5" y="-22.8" font-family="Times,serif" font-size="14.00">Lower level dependencies can be shown by clicking on a red box</text>
<text text-anchor="middle" x="353.5" y="-7.8" font-family="Times,serif" font-size="14.00">Shaded boxes indicate modules with no dependencies</text>
<!-- advection_mod -->
<g id="node1" class="node">
<title>advection_mod</title>
<g id="a_node1"><a xlink:href="advection_mod.html" xlink:title="advection_mod">
<polygon fill="none" stroke="black" points="390.5,-665 289.5,-665 289.5,-629 390.5,-629 390.5,-665"/>
<text text-anchor="middle" x="340" y="-643.3" font-family="Times,serif" font-size="14.00">advection_mod</text>
</a>
</g>
</g>
<!-- earthconstants_mod -->
<g id="node2" class="node">
<title>earthconstants_mod</title>
<g id="a_node2"><a xlink:href="../modules/earthconstants_mod.svg" xlink:title="earthconstants_mod">
<polygon fill="none" stroke="red" points="126,-593 0,-593 0,-557 126,-557 126,-593"/>
<text text-anchor="middle" x="63" y="-571.3" font-family="Times,serif" font-size="14.00">earthconstants_mod</text>
</a>
</g>
</g>
<!-- advection_mod&#45;&gt;earthconstants_mod -->
<g id="edge1" class="edge">
<title>advection_mod&#45;&gt;earthconstants_mod</title>
<path fill="none" stroke="black" d="M289.19,-633.16C246.23,-622.3 184.15,-606.62 135.89,-594.42"/>
<polygon fill="black" stroke="black" points="136.68,-591.01 126.13,-591.95 134.96,-597.8 136.68,-591.01"/>
</g>
<!-- ensemblestatevector_mod -->
<g id="node3" class="node">
<title>ensemblestatevector_mod</title>
<g id="a_node3"><a xlink:href="../modules/ensemblestatevector_mod.svg" xlink:title="ensemblestatevector_mod">
<polygon fill="none" stroke="red" points="198,-521 40,-521 40,-485 198,-485 198,-521"/>
<text text-anchor="middle" x="119" y="-499.3" font-family="Times,serif" font-size="14.00">ensemblestatevector_mod</text>
</a>
</g>
</g>
<!-- advection_mod&#45;&gt;ensemblestatevector_mod -->
<g id="edge2" class="edge">
<title>advection_mod&#45;&gt;ensemblestatevector_mod</title>
<path fill="none" stroke="black" d="M289.24,-629.92C264.82,-620.98 235.77,-608.51 212,-593 184.36,-574.97 157.67,-548.13 140.02,-528.64"/>
<polygon fill="black" stroke="black" points="142.53,-526.19 133.27,-521.05 137.3,-530.85 142.53,-526.19"/>
</g>
<!-- gridstatevectorfileio_mod -->
<g id="node4" class="node">
<title>gridstatevectorfileio_mod</title>
<g id="a_node4"><a xlink:href="../modules/gridstatevectorfileio_mod.svg" xlink:title="gridstatevectorfileio_mod">
<polygon fill="none" stroke="red" points="236,-449 78,-449 78,-413 236,-413 236,-449"/>
<text text-anchor="middle" x="157" y="-427.3" font-family="Times,serif" font-size="14.00">gridstatevectorfileio_mod</text>
</a>
</g>
</g>
<!-- advection_mod&#45;&gt;gridstatevectorfileio_mod -->
<g id="edge3" class="edge">
<title>advection_mod&#45;&gt;gridstatevectorfileio_mod</title>
<path fill="none" stroke="black" d="M298.7,-628.96C281.76,-620.27 263.1,-608.28 250,-593 216.37,-553.78 234.78,-528.56 207,-485 200.48,-474.77 191.82,-464.77 183.55,-456.26"/>
<polygon fill="black" stroke="black" points="186.01,-453.76 176.45,-449.19 181.07,-458.72 186.01,-453.76"/>
</g>
<!-- gridstatevector_mod -->
<g id="node5" class="node">
<title>gridstatevector_mod</title>
<g id="a_node5"><a xlink:href="../modules/gridstatevector_mod.svg" xlink:title="gridstatevector_mod">
<polygon fill="none" stroke="red" points="274,-377 144,-377 144,-341 274,-341 274,-377"/>
<text text-anchor="middle" x="209" y="-355.3" font-family="Times,serif" font-size="14.00">gridstatevector_mod</text>
</a>
</g>
</g>
<!-- advection_mod&#45;&gt;gridstatevector_mod -->
<g id="edge4" class="edge">
<title>advection_mod&#45;&gt;gridstatevector_mod</title>
<path fill="none" stroke="black" d="M318.43,-628.95C307.78,-619.44 295.61,-606.76 288,-593 248.19,-521.02 278.21,-488.25 245,-413 240.8,-403.48 234.87,-393.85 229.02,-385.45"/>
<polygon fill="black" stroke="black" points="231.75,-383.24 223.04,-377.2 226.08,-387.35 231.75,-383.24"/>
</g>
<!-- horizontalcoord_mod -->
<g id="node6" class="node">
<title>horizontalcoord_mod</title>
<g id="a_node6"><a xlink:href="../modules/horizontalcoord_mod.svg" xlink:title="horizontalcoord_mod">
<polygon fill="none" stroke="red" points="312,-305 178,-305 178,-269 312,-269 312,-305"/>
<text text-anchor="middle" x="245" y="-283.3" font-family="Times,serif" font-size="14.00">horizontalcoord_mod</text>
</a>
</g>
</g>
<!-- advection_mod&#45;&gt;horizontalcoord_mod -->
<g id="edge5" class="edge">
<title>advection_mod&#45;&gt;horizontalcoord_mod</title>
<path fill="none" stroke="black" d="M332.31,-628.91C321.21,-602.62 302,-550.45 302,-504 302,-504 302,-504 302,-430 302,-389.55 299.35,-377.99 283,-341 278.67,-331.21 272.36,-321.43 266.12,-312.98"/>
<polygon fill="black" stroke="black" points="268.86,-310.8 259.98,-305.03 263.32,-315.08 268.86,-310.8"/>
</g>
<!-- mathphysconstants_mod -->
<g id="node7" class="node">
<title>mathphysconstants_mod</title>
<g id="a_node7"><a xlink:href="mathphysconstants_mod.html" xlink:title="mathphysconstants_mod">
<polygon fill="gray" stroke="black" points="350,-233 198,-233 198,-197 350,-197 350,-233"/>
<text text-anchor="middle" x="274" y="-211.3" font-family="Times,serif" font-size="14.00">mathphysconstants_mod</text>
</a>
</g>
</g>
<!-- advection_mod&#45;&gt;mathphysconstants_mod -->
<g id="edge6" class="edge">
<title>advection_mod&#45;&gt;mathphysconstants_mod</title>
<path fill="none" stroke="black" d="M340,-628.95C340,-602.29 340,-549.11 340,-504 340,-504 340,-504 340,-358 340,-317.55 339.24,-305.1 321,-269 315.82,-258.75 308.16,-248.92 300.53,-240.57"/>
<polygon fill="black" stroke="black" points="303.04,-238.14 293.59,-233.35 297.99,-242.99 303.04,-238.14"/>
</g>
<!-- midasmpi_mod -->
<g id="node8" class="node">
<title>midasmpi_mod</title>
<g id="a_node8"><a xlink:href="../modules/midasmpi_mod.svg" xlink:title="midasmpi_mod">
<polygon fill="none" stroke="red" points="388,-161 286,-161 286,-125 388,-125 388,-161"/>
<text text-anchor="middle" x="337" y="-139.3" font-family="Times,serif" font-size="14.00">midasmpi_mod</text>
</a>
</g>
</g>
<!-- advection_mod&#45;&gt;midasmpi_mod -->
<g id="edge7" class="edge">
<title>advection_mod&#45;&gt;midasmpi_mod</title>
<path fill="none" stroke="black" d="M347.69,-628.91C358.79,-602.62 378,-550.45 378,-504 378,-504 378,-504 378,-286 378,-244.41 361.56,-198.56 349.5,-170.51"/>
<polygon fill="black" stroke="black" points="352.55,-168.75 345.3,-161.03 346.15,-171.59 352.55,-168.75"/>
</g>
<!-- ramdisk_mod -->
<g id="node9" class="node">
<title>ramdisk_mod</title>
<g id="a_node9"><a xlink:href="../modules/ramdisk_mod.svg" xlink:title="ramdisk_mod">
<polygon fill="none" stroke="red" points="462,-89 370,-89 370,-53 462,-53 462,-89"/>
<text text-anchor="middle" x="416" y="-67.3" font-family="Times,serif" font-size="14.00">ramdisk_mod</text>
</a>
</g>
</g>
<!-- advection_mod&#45;&gt;ramdisk_mod -->
<g id="edge8" class="edge">
<title>advection_mod&#45;&gt;ramdisk_mod</title>
<path fill="none" stroke="black" d="M356.49,-628.77C378.84,-603.53 416,-554.05 416,-504 416,-504 416,-504 416,-214 416,-174 416,-127.65 416,-99.08"/>
<polygon fill="black" stroke="black" points="419.5,-99.05 416,-89.05 412.5,-99.05 419.5,-99.05"/>
</g>
<!-- utilities_mod -->
<g id="node10" class="node">
<title>utilities_mod</title>
<g id="a_node10"><a xlink:href="../modules/utilities_mod.svg" xlink:title="utilities_mod">
<polygon fill="none" stroke="red" points="533.5,-593 444.5,-593 444.5,-557 533.5,-557 533.5,-593"/>
<text text-anchor="middle" x="489" y="-571.3" font-family="Times,serif" font-size="14.00">utilities_mod</text>
</a>
</g>
</g>
<!-- advection_mod&#45;&gt;utilities_mod -->
<g id="edge9" class="edge">
<title>advection_mod&#45;&gt;utilities_mod</title>
<path fill="none" stroke="black" d="M376.45,-628.88C396.64,-619.39 421.92,-607.51 443.41,-597.42"/>
<polygon fill="black" stroke="black" points="445.11,-600.49 452.67,-593.07 442.13,-594.15 445.11,-600.49"/>
</g>
<!-- varnamelist_mod -->
<g id="node11" class="node">
<title>varnamelist_mod</title>
<g id="a_node11"><a xlink:href="../modules/varnamelist_mod.svg" xlink:title="varnamelist_mod">
<polygon fill="none" stroke="red" points="618.5,-521 505.5,-521 505.5,-485 618.5,-485 618.5,-521"/>
<text text-anchor="middle" x="562" y="-499.3" font-family="Times,serif" font-size="14.00">varnamelist_mod</text>
</a>
</g>
</g>
<!-- advection_mod&#45;&gt;varnamelist_mod -->
<g id="edge10" class="edge">
<title>advection_mod&#45;&gt;varnamelist_mod</title>
<path fill="none" stroke="black" d="M390.55,-638.83C443.32,-630.32 521.23,-614.52 542,-593 557.68,-576.75 562.1,-550.99 562.94,-531.36"/>
<polygon fill="black" stroke="black" points="566.44,-531.23 563.08,-521.18 559.44,-531.13 566.44,-531.23"/>
</g>
<!-- verticalcoord_mod -->
<g id="node12" class="node">
<title>verticalcoord_mod</title>
<g id="a_node12"><a xlink:href="../modules/verticalcoord_mod.svg" xlink:title="verticalcoord_mod">
<polygon fill="none" stroke="red" points="707,-449 587,-449 587,-413 707,-413 707,-449"/>
<text text-anchor="middle" x="647" y="-427.3" font-family="Times,serif" font-size="14.00">verticalcoord_mod</text>
</a>
</g>
</g>
<!-- advection_mod&#45;&gt;verticalcoord_mod -->
<g id="edge11" class="edge">
<title>advection_mod&#45;&gt;verticalcoord_mod</title>
<path fill="none" stroke="black" d="M390.7,-642.93C438.62,-638.06 511.01,-625.48 565,-593 601.43,-571.08 608.95,-559.01 628,-521 637.7,-501.64 642.46,-477.49 644.79,-459.23"/>
<polygon fill="black" stroke="black" points="648.28,-459.57 645.9,-449.25 641.32,-458.8 648.28,-459.57"/>
</g>
</g>
</svg>
