<?xml version="1.0" encoding="UTF-8" standalone="no"?>
<!DOCTYPE svg PUBLIC "-//W3C//DTD SVG 1.1//EN"
 "http://www.w3.org/Graphics/SVG/1.1/DTD/svg11.dtd">
<!-- Generated by graphviz version 3.0.0 (20220315.2325)
 -->
<!-- Title: analysisErrorOI_mod Pages: 1 -->
<svg width="938pt" height="673pt"
 viewBox="0.00 0.00 938.00 673.00" xmlns="http://www.w3.org/2000/svg" xmlns:xlink="http://www.w3.org/1999/xlink">
<g id="graph0" class="graph" transform="scale(1 1) rotate(0) translate(4 669)">
<title>analysisErrorOI_mod</title>
<polygon fill="white" stroke="transparent" points="-4,4 -4,-669 934,-669 934,4 -4,4"/>
<text text-anchor="middle" x="465" y="-37.8" font-family="Times,serif" font-size="14.00">Red boxes indicate modules with dependencies not shown</text>
<text text-anchor="middle" x="465" y="-22.8" font-family="Times,serif" font-size="14.00">Lower level dependencies can be shown by clicking on a red box</text>
<text text-anchor="middle" x="465" y="-7.8" font-family="Times,serif" font-size="14.00">Shaded boxes indicate modules with no dependencies</text>
<!-- analysisErrorOI_mod -->
<g id="node1" class="node">
<title>analysisErrorOI_mod</title>
<g id="a_node1"><a xlink:href="analysisErrorOI_mod.html" xlink:title="analysisErrorOI_mod">
<polygon fill="none" stroke="black" points="513.5,-665 378.5,-665 378.5,-629 513.5,-629 513.5,-665"/>
<text text-anchor="middle" x="446" y="-643.3" font-family="Times,serif" font-size="14.00">analysisErrorOI_mod</text>
</a>
</g>
</g>
<!-- columndata_mod -->
<g id="node2" class="node">
<title>columndata_mod</title>
<g id="a_node2"><a xlink:href="../modules/columndata_mod.svg" xlink:title="columndata_mod">
<polygon fill="none" stroke="red" points="112,-593 0,-593 0,-557 112,-557 112,-593"/>
<text text-anchor="middle" x="56" y="-571.3" font-family="Times,serif" font-size="14.00">columndata_mod</text>
</a>
</g>
</g>
<!-- analysisErrorOI_mod&#45;&gt;columndata_mod -->
<g id="edge1" class="edge">
<title>analysisErrorOI_mod&#45;&gt;columndata_mod</title>
<path fill="none" stroke="black" d="M378.31,-636.28C313.36,-626.6 212.63,-610.67 126,-593 124.72,-592.74 123.44,-592.47 122.14,-592.2"/>
<polygon fill="black" stroke="black" points="122.6,-588.72 112.08,-590.01 121.11,-595.56 122.6,-588.72"/>
</g>
<!-- gridstatevectorfileio_mod -->
<g id="node3" class="node">
<title>gridstatevectorfileio_mod</title>
<g id="a_node3"><a xlink:href="../modules/gridstatevectorfileio_mod.svg" xlink:title="gridstatevectorfileio_mod">
<polygon fill="none" stroke="red" points="184,-521 26,-521 26,-485 184,-485 184,-521"/>
<text text-anchor="middle" x="105" y="-499.3" font-family="Times,serif" font-size="14.00">gridstatevectorfileio_mod</text>
</a>
</g>
</g>
<!-- analysisErrorOI_mod&#45;&gt;gridstatevectorfileio_mod -->
<g id="edge2" class="edge">
<title>analysisErrorOI_mod&#45;&gt;gridstatevectorfileio_mod</title>
<path fill="none" stroke="black" d="M378.38,-641.6C326.49,-635.91 254.42,-622.87 198,-593 168.32,-577.28 141.43,-549.34 124.29,-528.95"/>
<polygon fill="black" stroke="black" points="126.83,-526.52 117.78,-521.01 121.41,-530.96 126.83,-526.52"/>
</g>
<!-- gridstatevector_mod -->
<g id="node4" class="node">
<title>gridstatevector_mod</title>
<g id="a_node4"><a xlink:href="../modules/gridstatevector_mod.svg" xlink:title="gridstatevector_mod">
<polygon fill="none" stroke="red" points="222,-449 92,-449 92,-413 222,-413 222,-449"/>
<text text-anchor="middle" x="157" y="-427.3" font-family="Times,serif" font-size="14.00">gridstatevector_mod</text>
</a>
</g>
</g>
<!-- analysisErrorOI_mod&#45;&gt;gridstatevector_mod -->
<g id="edge3" class="edge">
<title>analysisErrorOI_mod&#45;&gt;gridstatevector_mod</title>
<path fill="none" stroke="black" d="M378.15,-644.4C333,-639.93 275.03,-627.2 236,-593 197.14,-558.95 217.21,-530.64 193,-485 188.05,-475.67 181.81,-465.96 175.93,-457.44"/>
<polygon fill="black" stroke="black" points="178.63,-455.2 170,-449.07 172.92,-459.25 178.63,-455.2"/>
</g>
<!-- horizontalcoord_mod -->
<g id="node5" class="node">
<title>horizontalcoord_mod</title>
<g id="a_node5"><a xlink:href="../modules/horizontalcoord_mod.svg" xlink:title="horizontalcoord_mod">
<polygon fill="none" stroke="red" points="260,-377 126,-377 126,-341 260,-341 260,-377"/>
<text text-anchor="middle" x="193" y="-355.3" font-family="Times,serif" font-size="14.00">horizontalcoord_mod</text>
</a>
</g>
</g>
<!-- analysisErrorOI_mod&#45;&gt;horizontalcoord_mod -->
<g id="edge4" class="edge">
<title>analysisErrorOI_mod&#45;&gt;horizontalcoord_mod</title>
<path fill="none" stroke="black" d="M378.39,-641.03C342.68,-634.9 300.82,-621.61 274,-593 217.74,-533 265.16,-487.82 231,-413 226.56,-403.27 220.22,-393.5 213.98,-385.04"/>
<polygon fill="black" stroke="black" points="216.73,-382.88 207.86,-377.08 211.18,-387.14 216.73,-382.88"/>
</g>
<!-- kdtree2_mod -->
<g id="node6" class="node">
<title>kdtree2_mod</title>
<g id="a_node6"><a xlink:href="../modules/kdtree2_mod.svg" xlink:title="kdtree2_mod">
<polygon fill="none" stroke="red" points="297.5,-305 208.5,-305 208.5,-269 297.5,-269 297.5,-305"/>
<text text-anchor="middle" x="253" y="-283.3" font-family="Times,serif" font-size="14.00">kdtree2_mod</text>
</a>
</g>
</g>
<!-- analysisErrorOI_mod&#45;&gt;kdtree2_mod -->
<g id="edge5" class="edge">
<title>analysisErrorOI_mod&#45;&gt;kdtree2_mod</title>
<path fill="none" stroke="black" d="M378.36,-632.55C354.45,-624.68 329.24,-612.32 312,-593 284.72,-562.44 288,-544.97 288,-504 288,-504 288,-504 288,-430 288,-388.84 273.97,-342.88 263.67,-314.69"/>
<polygon fill="black" stroke="black" points="266.88,-313.28 260.08,-305.15 260.33,-315.74 266.88,-313.28"/>
</g>
<!-- message_mod -->
<g id="node7" class="node">
<title>message_mod</title>
<g id="a_node7"><a xlink:href="../modules/message_mod.svg" xlink:title="message_mod">
<polygon fill="none" stroke="red" points="335.5,-233 240.5,-233 240.5,-197 335.5,-197 335.5,-233"/>
<text text-anchor="middle" x="288" y="-211.3" font-family="Times,serif" font-size="14.00">message_mod</text>
</a>
</g>
</g>
<!-- analysisErrorOI_mod&#45;&gt;message_mod -->
<g id="edge6" class="edge">
<title>analysisErrorOI_mod&#45;&gt;message_mod</title>
<path fill="none" stroke="black" d="M398.07,-628.85C380.7,-620.47 362.33,-608.73 350,-593 324.72,-560.76 326,-544.97 326,-504 326,-504 326,-504 326,-358 326,-316.63 310.77,-270.72 299.59,-242.61"/>
<polygon fill="black" stroke="black" points="302.72,-241.02 295.69,-233.09 296.24,-243.67 302.72,-241.02"/>
</g>
<!-- midasmpi_mod -->
<g id="node8" class="node">
<title>midasmpi_mod</title>
<g id="a_node8"><a xlink:href="../modules/midasmpi_mod.svg" xlink:title="midasmpi_mod">
<polygon fill="none" stroke="red" points="374,-161 272,-161 272,-125 374,-125 374,-161"/>
<text text-anchor="middle" x="323" y="-139.3" font-family="Times,serif" font-size="14.00">midasmpi_mod</text>
</a>
</g>
</g>
<!-- analysisErrorOI_mod&#45;&gt;midasmpi_mod -->
<g id="edge7" class="edge">
<title>analysisErrorOI_mod&#45;&gt;midasmpi_mod</title>
<path fill="none" stroke="black" d="M421.49,-628.86C409.79,-619.5 396.51,-606.98 388,-593 366.69,-558.01 364,-544.97 364,-504 364,-504 364,-504 364,-286 364,-244.41 347.56,-198.56 335.5,-170.51"/>
<polygon fill="black" stroke="black" points="338.55,-168.75 331.3,-161.03 332.15,-171.59 338.55,-168.75"/>
</g>
<!-- obsoperators_mod -->
<g id="node9" class="node">
<title>obsoperators_mod</title>
<g id="a_node9"><a xlink:href="../modules/obsoperators_mod.svg" xlink:title="obsoperators_mod">
<polygon fill="none" stroke="red" points="460.5,-89 343.5,-89 343.5,-53 460.5,-53 460.5,-89"/>
<text text-anchor="middle" x="402" y="-67.3" font-family="Times,serif" font-size="14.00">obsoperators_mod</text>
</a>
</g>
</g>
<!-- analysisErrorOI_mod&#45;&gt;obsoperators_mod -->
<g id="edge8" class="edge">
<title>analysisErrorOI_mod&#45;&gt;obsoperators_mod</title>
<path fill="none" stroke="black" d="M436.62,-628.75C431.41,-618.59 425.16,-605.34 421,-593 408.06,-554.68 402,-544.45 402,-504 402,-504 402,-504 402,-214 402,-174 402,-127.65 402,-99.08"/>
<polygon fill="black" stroke="black" points="405.5,-99.05 402,-89.05 398.5,-99.05 405.5,-99.05"/>
</g>
<!-- obsspacedata_mod -->
<g id="node10" class="node">
<title>obsspacedata_mod</title>
<g id="a_node10"><a xlink:href="../modules/obsspacedata_mod.svg" xlink:title="obsspacedata_mod">
<polygon fill="none" stroke="red" points="549.5,-593 430.5,-593 430.5,-557 549.5,-557 549.5,-593"/>
<text text-anchor="middle" x="490" y="-571.3" font-family="Times,serif" font-size="14.00">obsspacedata_mod</text>
</a>
</g>
</g>
<!-- analysisErrorOI_mod&#45;&gt;obsspacedata_mod -->
<g id="edge9" class="edge">
<title>analysisErrorOI_mod&#45;&gt;obsspacedata_mod</title>
<path fill="none" stroke="black" d="M456.88,-628.7C461.99,-620.56 468.2,-610.69 473.84,-601.7"/>
<polygon fill="black" stroke="black" points="476.89,-603.43 479.25,-593.1 470.96,-599.71 476.89,-603.43"/>
</g>
<!-- oceanmask_mod -->
<g id="node11" class="node">
<title>oceanmask_mod</title>
<g id="a_node11"><a xlink:href="../modules/oceanmask_mod.svg" xlink:title="oceanmask_mod">
<polygon fill="none" stroke="red" points="587.5,-521 478.5,-521 478.5,-485 587.5,-485 587.5,-521"/>
<text text-anchor="middle" x="533" y="-499.3" font-family="Times,serif" font-size="14.00">oceanmask_mod</text>
</a>
</g>
</g>
<!-- analysisErrorOI_mod&#45;&gt;oceanmask_mod -->
<g id="edge10" class="edge">
<title>analysisErrorOI_mod&#45;&gt;oceanmask_mod</title>
<path fill="none" stroke="black" d="M512.56,-628.94C530.35,-621.02 547.53,-609.54 558,-593 570.17,-573.77 561.19,-548.54 550.75,-529.85"/>
<polygon fill="black" stroke="black" points="553.75,-528.04 545.6,-521.26 547.74,-531.64 553.75,-528.04"/>
</g>
<!-- physicsfunctions_mod -->
<g id="node12" class="node">
<title>physicsfunctions_mod</title>
<g id="a_node12"><a xlink:href="../modules/physicsfunctions_mod.svg" xlink:title="physicsfunctions_mod">
<polygon fill="none" stroke="red" points="625.5,-449 486.5,-449 486.5,-413 625.5,-413 625.5,-449"/>
<text text-anchor="middle" x="556" y="-427.3" font-family="Times,serif" font-size="14.00">physicsfunctions_mod</text>
</a>
</g>
</g>
<!-- analysisErrorOI_mod&#45;&gt;physicsfunctions_mod -->
<g id="edge11" class="edge">
<title>analysisErrorOI_mod&#45;&gt;physicsfunctions_mod</title>
<path fill="none" stroke="black" d="M513.63,-630.88C535.82,-622.91 558.89,-610.91 575,-593 607.7,-556.64 611.53,-531.37 596,-485 592.65,-475 586.58,-465.38 580.17,-457.14"/>
<polygon fill="black" stroke="black" points="582.82,-454.85 573.73,-449.4 577.44,-459.33 582.82,-454.85"/>
</g>
<!-- statetocolumn_mod -->
<g id="node13" class="node">
<title>statetocolumn_mod</title>
<g id="a_node13"><a xlink:href="../modules/statetocolumn_mod.svg" xlink:title="statetocolumn_mod">
<polygon fill="none" stroke="red" points="663.5,-377 538.5,-377 538.5,-341 663.5,-341 663.5,-377"/>
<text text-anchor="middle" x="601" y="-355.3" font-family="Times,serif" font-size="14.00">statetocolumn_mod</text>
</a>
</g>
</g>
<!-- analysisErrorOI_mod&#45;&gt;statetocolumn_mod -->
<g id="edge12" class="edge">
<title>analysisErrorOI_mod&#45;&gt;statetocolumn_mod</title>
<path fill="none" stroke="black" d="M513.77,-637.96C544.44,-630.92 578.73,-617.72 601,-593 655.44,-532.57 656.36,-491.2 634,-413 631.29,-403.51 626.33,-394.06 621.07,-385.83"/>
<polygon fill="black" stroke="black" points="623.86,-383.72 615.33,-377.43 618.08,-387.67 623.86,-383.72"/>
</g>
<!-- timecoord_mod -->
<g id="node14" class="node">
<title>timecoord_mod</title>
<g id="a_node14"><a xlink:href="../modules/timecoord_mod.svg" xlink:title="timecoord_mod">
<polygon fill="none" stroke="red" points="702,-305 598,-305 598,-269 702,-269 702,-305"/>
<text text-anchor="middle" x="650" y="-283.3" font-family="Times,serif" font-size="14.00">timecoord_mod</text>
</a>
</g>
</g>
<!-- analysisErrorOI_mod&#45;&gt;timecoord_mod -->
<g id="edge13" class="edge">
<title>analysisErrorOI_mod&#45;&gt;timecoord_mod</title>
<path fill="none" stroke="black" d="M513.55,-636.5C586.37,-622.01 692,-586.72 692,-504 692,-504 692,-504 692,-430 692,-388.15 675.01,-342.1 662.65,-314.11"/>
<polygon fill="black" stroke="black" points="665.83,-312.66 658.5,-305.01 659.46,-315.56 665.83,-312.66"/>
</g>
<!-- utilities_mod -->
<g id="node15" class="node">
<title>utilities_mod</title>
<g id="a_node15"><a xlink:href="../modules/utilities_mod.svg" xlink:title="utilities_mod">
<polygon fill="none" stroke="red" points="756.5,-233 667.5,-233 667.5,-197 756.5,-197 756.5,-233"/>
<text text-anchor="middle" x="712" y="-211.3" font-family="Times,serif" font-size="14.00">utilities_mod</text>
</a>
</g>
</g>
<!-- analysisErrorOI_mod&#45;&gt;utilities_mod -->
<g id="edge14" class="edge">
<title>analysisErrorOI_mod&#45;&gt;utilities_mod</title>
<path fill="none" stroke="black" d="M513.66,-641.28C597.67,-631.32 730,-600.33 730,-504 730,-504 730,-504 730,-358 730,-317.9 722.85,-271.92 717.56,-243.42"/>
<polygon fill="black" stroke="black" points="720.96,-242.56 715.64,-233.4 714.08,-243.88 720.96,-242.56"/>
</g>
<!-- varnamelist_mod -->
<g id="node16" class="node">
<title>varnamelist_mod</title>
<g id="a_node16"><a xlink:href="../modules/varnamelist_mod.svg" xlink:title="varnamelist_mod">
<polygon fill="none" stroke="red" points="841.5,-161 728.5,-161 728.5,-125 841.5,-125 841.5,-161"/>
<text text-anchor="middle" x="785" y="-139.3" font-family="Times,serif" font-size="14.00">varnamelist_mod</text>
</a>
</g>
</g>
<!-- analysisErrorOI_mod&#45;&gt;varnamelist_mod -->
<g id="edge15" class="edge">
<title>analysisErrorOI_mod&#45;&gt;varnamelist_mod</title>
<path fill="none" stroke="black" d="M513.79,-646.4C612.72,-643.03 785,-620.45 785,-504 785,-504 785,-504 785,-286 785,-246 785,-199.65 785,-171.08"/>
<polygon fill="black" stroke="black" points="788.5,-171.05 785,-161.05 781.5,-171.05 788.5,-171.05"/>
</g>
<!-- verticalcoord_mod -->
<g id="node17" class="node">
<title>verticalcoord_mod</title>
<g id="a_node17"><a xlink:href="../modules/verticalcoord_mod.svg" xlink:title="verticalcoord_mod">
<polygon fill="none" stroke="red" points="930,-89 810,-89 810,-53 930,-53 930,-89"/>
<text text-anchor="middle" x="870" y="-67.3" font-family="Times,serif" font-size="14.00">verticalcoord_mod</text>
</a>
</g>
</g>
<!-- analysisErrorOI_mod&#45;&gt;verticalcoord_mod -->
<g id="edge16" class="edge">
<title>analysisErrorOI_mod&#45;&gt;verticalcoord_mod</title>
<path fill="none" stroke="black" d="M513.74,-645.24C580.73,-642.13 684.71,-630.87 766,-593 821.15,-567.31 870,-564.84 870,-504 870,-504 870,-504 870,-214 870,-174 870,-127.65 870,-99.08"/>
<polygon fill="black" stroke="black" points="873.5,-99.05 870,-89.05 866.5,-99.05 873.5,-99.05"/>
</g>
</g>
</svg>
