<?xml version="1.0" encoding="UTF-8" standalone="no"?>
<!DOCTYPE svg PUBLIC "-//W3C//DTD SVG 1.1//EN"
 "http://www.w3.org/Graphics/SVG/1.1/DTD/svg11.dtd">
<!-- Generated by graphviz version 3.0.0 (20220315.2325)
 -->
<!-- Title: backgroundCheck_mod Pages: 1 -->
<svg width="699pt" height="673pt"
 viewBox="0.00 0.00 698.50 673.00" xmlns="http://www.w3.org/2000/svg" xmlns:xlink="http://www.w3.org/1999/xlink">
<g id="graph0" class="graph" transform="scale(1 1) rotate(0) translate(4 669)">
<title>backgroundCheck_mod</title>
<polygon fill="white" stroke="transparent" points="-4,4 -4,-669 694.5,-669 694.5,4 -4,4"/>
<text text-anchor="middle" x="345.25" y="-37.8" font-family="Times,serif" font-size="14.00">Red boxes indicate modules with dependencies not shown</text>
<text text-anchor="middle" x="345.25" y="-22.8" font-family="Times,serif" font-size="14.00">Lower level dependencies can be shown by clicking on a red box</text>
<text text-anchor="middle" x="345.25" y="-7.8" font-family="Times,serif" font-size="14.00">Shaded boxes indicate modules with no dependencies</text>
<!-- backgroundCheck_mod -->
<g id="node1" class="node">
<title>backgroundCheck_mod</title>
<g id="a_node1"><a xlink:href="backgroundCheck_mod.html" xlink:title="backgroundCheck_mod">
<polygon fill="none" stroke="black" points="360,-665 213,-665 213,-629 360,-629 360,-665"/>
<text text-anchor="middle" x="286.5" y="-643.3" font-family="Times,serif" font-size="14.00">backgroundCheck_mod</text>
</a>
</g>
</g>
<!-- bufr_mod -->
<g id="node2" class="node">
<title>bufr_mod</title>
<g id="a_node2"><a xlink:href="bufr_mod.html" xlink:title="bufr_mod">
<polygon fill="gray" stroke="black" points="71,-593 0,-593 0,-557 71,-557 71,-593"/>
<text text-anchor="middle" x="35.5" y="-571.3" font-family="Times,serif" font-size="14.00">bufr_mod</text>
</a>
</g>
</g>
<!-- backgroundCheck_mod&#45;&gt;bufr_mod -->
<g id="edge1" class="edge">
<title>backgroundCheck_mod&#45;&gt;bufr_mod</title>
<path fill="none" stroke="black" d="M216.86,-628.91C178.02,-619.06 128.86,-606.07 85.5,-593 84.05,-592.56 82.57,-592.11 81.08,-591.65"/>
<polygon fill="black" stroke="black" points="81.77,-588.19 71.18,-588.47 79.64,-594.86 81.77,-588.19"/>
</g>
<!-- codtyp_mod -->
<g id="node3" class="node">
<title>codtyp_mod</title>
<g id="a_node3"><a xlink:href="../modules/codtyp_mod.svg" xlink:title="codtyp_mod">
<polygon fill="none" stroke="red" points="125,-521 40,-521 40,-485 125,-485 125,-521"/>
<text text-anchor="middle" x="82.5" y="-499.3" font-family="Times,serif" font-size="14.00">codtyp_mod</text>
</a>
</g>
</g>
<!-- backgroundCheck_mod&#45;&gt;codtyp_mod -->
<g id="edge2" class="edge">
<title>backgroundCheck_mod&#45;&gt;codtyp_mod</title>
<path fill="none" stroke="black" d="M212.89,-629.8C187.77,-621.71 160.7,-609.92 139.5,-593 118.67,-576.38 103.13,-549.97 93.58,-530.23"/>
<polygon fill="black" stroke="black" points="96.75,-528.75 89.38,-521.15 90.4,-531.69 96.75,-528.75"/>
</g>
<!-- columndata_mod -->
<g id="node4" class="node">
<title>columndata_mod</title>
<g id="a_node4"><a xlink:href="../modules/columndata_mod.svg" xlink:title="columndata_mod">
<polygon fill="none" stroke="red" points="163.5,-449 51.5,-449 51.5,-413 163.5,-413 163.5,-449"/>
<text text-anchor="middle" x="107.5" y="-427.3" font-family="Times,serif" font-size="14.00">columndata_mod</text>
</a>
</g>
</g>
<!-- backgroundCheck_mod&#45;&gt;columndata_mod -->
<g id="edge3" class="edge">
<title>backgroundCheck_mod&#45;&gt;columndata_mod</title>
<path fill="none" stroke="black" d="M232.39,-628.91C213.05,-620.6 192.39,-608.9 177.5,-593 142.07,-555.17 154.7,-532.29 133.5,-485 129.54,-476.17 124.96,-466.64 120.76,-458.13"/>
<polygon fill="black" stroke="black" points="123.83,-456.43 116.23,-449.04 117.56,-459.55 123.83,-456.43"/>
</g>
<!-- gps_mod -->
<g id="node5" class="node">
<title>gps_mod</title>
<g id="a_node5"><a xlink:href="../modules/gps_mod.svg" xlink:title="gps_mod">
<polygon fill="none" stroke="red" points="201.5,-377 133.5,-377 133.5,-341 201.5,-341 201.5,-377"/>
<text text-anchor="middle" x="167.5" y="-355.3" font-family="Times,serif" font-size="14.00">gps_mod</text>
</a>
</g>
</g>
<!-- backgroundCheck_mod&#45;&gt;gps_mod -->
<g id="edge4" class="edge">
<title>backgroundCheck_mod&#45;&gt;gps_mod</title>
<path fill="none" stroke="black" d="M253.88,-628.83C240.02,-619.93 224.91,-607.8 215.5,-593 193.89,-559.01 177.34,-441.54 170.69,-387.54"/>
<polygon fill="black" stroke="black" points="174.13,-386.84 169.46,-377.34 167.18,-387.68 174.13,-386.84"/>
</g>
<!-- horizontalcoord_mod -->
<g id="node6" class="node">
<title>horizontalcoord_mod</title>
<g id="a_node6"><a xlink:href="../modules/horizontalcoord_mod.svg" xlink:title="horizontalcoord_mod">
<polygon fill="none" stroke="red" points="239.5,-305 105.5,-305 105.5,-269 239.5,-269 239.5,-305"/>
<text text-anchor="middle" x="172.5" y="-283.3" font-family="Times,serif" font-size="14.00">horizontalcoord_mod</text>
</a>
</g>
</g>
<!-- backgroundCheck_mod&#45;&gt;horizontalcoord_mod -->
<g id="edge5" class="edge">
<title>backgroundCheck_mod&#45;&gt;horizontalcoord_mod</title>
<path fill="none" stroke="black" d="M273.83,-628.57C267.03,-618.56 258.95,-605.52 253.5,-593 237.16,-555.43 229.5,-544.97 229.5,-504 229.5,-504 229.5,-504 229.5,-430 229.5,-389.55 226.85,-377.99 210.5,-341 206.17,-331.21 199.86,-321.43 193.62,-312.98"/>
<polygon fill="black" stroke="black" points="196.36,-310.8 187.48,-305.03 190.82,-315.08 196.36,-310.8"/>
</g>
<!-- mathphysconstants_mod -->
<g id="node7" class="node">
<title>mathphysconstants_mod</title>
<g id="a_node7"><a xlink:href="mathphysconstants_mod.html" xlink:title="mathphysconstants_mod">
<polygon fill="gray" stroke="black" points="277.5,-233 125.5,-233 125.5,-197 277.5,-197 277.5,-233"/>
<text text-anchor="middle" x="201.5" y="-211.3" font-family="Times,serif" font-size="14.00">mathphysconstants_mod</text>
</a>
</g>
</g>
<!-- backgroundCheck_mod&#45;&gt;mathphysconstants_mod -->
<g id="edge6" class="edge">
<title>backgroundCheck_mod&#45;&gt;mathphysconstants_mod</title>
<path fill="none" stroke="black" d="M282.66,-628.61C277.1,-601.94 267.5,-549.27 267.5,-504 267.5,-504 267.5,-504 267.5,-358 267.5,-317.55 266.74,-305.1 248.5,-269 243.32,-258.75 235.66,-248.92 228.03,-240.57"/>
<polygon fill="black" stroke="black" points="230.54,-238.14 221.09,-233.35 225.49,-242.99 230.54,-238.14"/>
</g>
<!-- obsfamilylist_mod -->
<g id="node8" class="node">
<title>obsfamilylist_mod</title>
<g id="a_node8"><a xlink:href="obsfamilylist_mod.html" xlink:title="obsfamilylist_mod">
<polygon fill="gray" stroke="black" points="315,-161 196,-161 196,-125 315,-125 315,-161"/>
<text text-anchor="middle" x="255.5" y="-139.3" font-family="Times,serif" font-size="14.00">obsfamilylist_mod</text>
</a>
</g>
</g>
<!-- backgroundCheck_mod&#45;&gt;obsfamilylist_mod -->
<g id="edge7" class="edge">
<title>backgroundCheck_mod&#45;&gt;obsfamilylist_mod</title>
<path fill="none" stroke="black" d="M290.34,-628.61C295.9,-601.94 305.5,-549.27 305.5,-504 305.5,-504 305.5,-504 305.5,-286 305.5,-245.55 301.12,-234.71 286.5,-197 282.94,-187.8 277.9,-178.33 272.92,-169.98"/>
<polygon fill="black" stroke="black" points="275.86,-168.08 267.61,-161.43 269.91,-171.77 275.86,-168.08"/>
</g>
<!-- obsspacedata_mod -->
<g id="node9" class="node">
<title>obsspacedata_mod</title>
<g id="a_node9"><a xlink:href="../modules/obsspacedata_mod.svg" xlink:title="obsspacedata_mod">
<polygon fill="none" stroke="red" points="403,-89 284,-89 284,-53 403,-53 403,-89"/>
<text text-anchor="middle" x="343.5" y="-67.3" font-family="Times,serif" font-size="14.00">obsspacedata_mod</text>
</a>
</g>
</g>
<!-- backgroundCheck_mod&#45;&gt;obsspacedata_mod -->
<g id="edge8" class="edge">
<title>backgroundCheck_mod&#45;&gt;obsspacedata_mod</title>
<path fill="none" stroke="black" d="M298.31,-628.96C315.01,-603.16 343.5,-552.08 343.5,-504 343.5,-504 343.5,-504 343.5,-214 343.5,-174 343.5,-127.65 343.5,-99.08"/>
<polygon fill="black" stroke="black" points="347,-99.05 343.5,-89.05 340,-99.05 347,-99.05"/>
</g>
<!-- obsspacediag_mod -->
<g id="node10" class="node">
<title>obsspacediag_mod</title>
<g id="a_node10"><a xlink:href="../modules/obsspacediag_mod.svg" xlink:title="obsspacediag_mod">
<polygon fill="none" stroke="red" points="491.5,-593 371.5,-593 371.5,-557 491.5,-557 491.5,-593"/>
<text text-anchor="middle" x="431.5" y="-571.3" font-family="Times,serif" font-size="14.00">obsspacediag_mod</text>
</a>
</g>
</g>
<!-- backgroundCheck_mod&#45;&gt;obsspacediag_mod -->
<g id="edge9" class="edge">
<title>backgroundCheck_mod&#45;&gt;obsspacediag_mod</title>
<path fill="none" stroke="black" d="M321.97,-628.88C341.62,-619.39 366.22,-607.51 387.13,-597.42"/>
<polygon fill="black" stroke="black" points="388.66,-600.57 396.14,-593.07 385.62,-594.26 388.66,-600.57"/>
</g>
<!-- obsspaceerrorstddev_mod -->
<g id="node11" class="node">
<title>obsspaceerrorstddev_mod</title>
<g id="a_node11"><a xlink:href="../modules/obsspaceerrorstddev_mod.svg" xlink:title="obsspaceerrorstddev_mod">
<polygon fill="none" stroke="red" points="530,-521 371,-521 371,-485 530,-485 530,-521"/>
<text text-anchor="middle" x="450.5" y="-499.3" font-family="Times,serif" font-size="14.00">obsspaceerrorstddev_mod</text>
</a>
</g>
</g>
<!-- backgroundCheck_mod&#45;&gt;obsspaceerrorstddev_mod -->
<g id="edge10" class="edge">
<title>backgroundCheck_mod&#45;&gt;obsspaceerrorstddev_mod</title>
<path fill="none" stroke="black" d="M360.14,-637.45C414.94,-629.39 483.13,-615.19 500.5,-593 516.41,-572.67 498.03,-546.66 479.22,-528.02"/>
<polygon fill="black" stroke="black" points="481.47,-525.33 471.79,-521.01 476.67,-530.42 481.47,-525.33"/>
</g>
<!-- utilities_mod -->
<g id="node12" class="node">
<title>utilities_mod</title>
<g id="a_node12"><a xlink:href="../modules/utilities_mod.svg" xlink:title="utilities_mod">
<polygon fill="none" stroke="red" points="602,-449 513,-449 513,-413 602,-413 602,-449"/>
<text text-anchor="middle" x="557.5" y="-427.3" font-family="Times,serif" font-size="14.00">utilities_mod</text>
</a>
</g>
</g>
<!-- backgroundCheck_mod&#45;&gt;utilities_mod -->
<g id="edge11" class="edge">
<title>backgroundCheck_mod&#45;&gt;utilities_mod</title>
<path fill="none" stroke="black" d="M360.18,-637.44C419.28,-629.11 495.94,-614.54 518.5,-593 554.98,-558.17 559.78,-495.52 559.19,-459.49"/>
<polygon fill="black" stroke="black" points="562.68,-459.11 558.86,-449.23 555.68,-459.34 562.68,-459.11"/>
</g>
<!-- verticalcoord_mod -->
<g id="node13" class="node">
<title>verticalcoord_mod</title>
<g id="a_node13"><a xlink:href="../modules/verticalcoord_mod.svg" xlink:title="verticalcoord_mod">
<polygon fill="none" stroke="red" points="690.5,-377 570.5,-377 570.5,-341 690.5,-341 690.5,-377"/>
<text text-anchor="middle" x="630.5" y="-355.3" font-family="Times,serif" font-size="14.00">verticalcoord_mod</text>
</a>
</g>
</g>
<!-- backgroundCheck_mod&#45;&gt;verticalcoord_mod -->
<g id="edge12" class="edge">
<title>backgroundCheck_mod&#45;&gt;verticalcoord_mod</title>
<path fill="none" stroke="black" d="M360.12,-638.34C426.02,-630.17 516.45,-615.31 544.5,-593 609.11,-541.62 625.18,-436.77 629.18,-387.17"/>
<polygon fill="black" stroke="black" points="632.67,-387.41 629.88,-377.19 625.69,-386.92 632.67,-387.41"/>
</g>
</g>
</svg>
