<?xml version="1.0" encoding="UTF-8" standalone="no"?>
<!DOCTYPE svg PUBLIC "-//W3C//DTD SVG 1.1//EN"
 "http://www.w3.org/Graphics/SVG/1.1/DTD/svg11.dtd">
<!-- Generated by graphviz version 3.0.0 (20220315.2325)
 -->
<!-- Title: bCovarSetupChem_mod Pages: 1 -->
<svg width="433pt" height="385pt"
 viewBox="0.00 0.00 433.00 385.00" xmlns="http://www.w3.org/2000/svg" xmlns:xlink="http://www.w3.org/1999/xlink">
<g id="graph0" class="graph" transform="scale(1 1) rotate(0) translate(4 381)">
<title>bCovarSetupChem_mod</title>
<polygon fill="white" stroke="transparent" points="-4,4 -4,-381 429,-381 429,4 -4,4"/>
<text text-anchor="middle" x="212.5" y="-361.8" font-family="Times,serif" font-size="14.00">Blue boxes indicate modules with reverse dependencies not shown</text>
<text text-anchor="middle" x="212.5" y="-346.8" font-family="Times,serif" font-size="14.00">Higher level reverse dependencies can be shown by clicking on a blue box</text>
<text text-anchor="middle" x="212.5" y="-331.8" font-family="Times,serif" font-size="14.00">Green boxes are programs</text>
<!-- bCovarSetupChem_mod -->
<g id="node1" class="node">
<title>bCovarSetupChem_mod</title>
<g id="a_node1"><a xlink:href="bCovarSetupChem_mod.html" xlink:title="bCovarSetupChem_mod">
<polygon fill="none" stroke="black" points="292.25,-36 140.25,-36 140.25,0 292.25,0 292.25,-36"/>
<text text-anchor="middle" x="216.25" y="-14.3" font-family="Times,serif" font-size="14.00">bCovarSetupChem_mod</text>
</a>
</g>
</g>
<!-- bmatrixchem_mod -->
<g id="node2" class="node">
<title>bmatrixchem_mod</title>
<g id="a_node2"><a xlink:href="../modules/bmatrixchem_mod_rev.svg" xlink:title="bmatrixchem_mod">
<polygon fill="none" stroke="blue" points="137.25,-108 15.25,-108 15.25,-72 137.25,-72 137.25,-108"/>
<text text-anchor="middle" x="76.25" y="-86.3" font-family="Times,serif" font-size="14.00">bmatrixchem_mod</text>
</a>
</g>
</g>
<!-- bmatrixchem_mod&#45;&gt;bCovarSetupChem_mod -->
<g id="edge1" class="edge">
<title>bmatrixchem_mod&#45;&gt;bCovarSetupChem_mod</title>
<path fill="none" stroke="black" d="M117.82,-68.21C138.23,-58.01 162.53,-45.86 181.87,-36.19"/>
<ellipse fill="black" stroke="black" cx="114.08" cy="-70.09" rx="4" ry="4"/>
</g>
<!-- obsoperatorschem_mod -->
<g id="node3" class="node">
<title>obsoperatorschem_mod</title>
<g id="a_node3"><a xlink:href="../modules/obsoperatorschem_mod_rev.svg" xlink:title="obsoperatorschem_mod">
<polygon fill="none" stroke="blue" points="213.75,-180 66.75,-180 66.75,-144 213.75,-144 213.75,-180"/>
<text text-anchor="middle" x="140.25" y="-158.3" font-family="Times,serif" font-size="14.00">obsoperatorschem_mod</text>
</a>
</g>
</g>
<!-- obsoperatorschem_mod&#45;&gt;bCovarSetupChem_mod -->
<g id="edge2" class="edge">
<title>obsoperatorschem_mod&#45;&gt;bCovarSetupChem_mod</title>
<path fill="none" stroke="black" d="M153.28,-136.66C168.59,-108.05 193.62,-61.28 207.05,-36.19"/>
<ellipse fill="black" stroke="black" cx="151.3" cy="-140.34" rx="4" ry="4"/>
</g>
<!-- obsspacediag_mod -->
<g id="node4" class="node">
<title>obsspacediag_mod</title>
<g id="a_node4"><a xlink:href="../modules/obsspacediag_mod_rev.svg" xlink:title="obsspacediag_mod">
<polygon fill="none" stroke="blue" points="302.25,-252 182.25,-252 182.25,-216 302.25,-216 302.25,-252"/>
<text text-anchor="middle" x="242.25" y="-230.3" font-family="Times,serif" font-size="14.00">obsspacediag_mod</text>
</a>
</g>
</g>
<!-- obsspacediag_mod&#45;&gt;bCovarSetupChem_mod -->
<g id="edge3" class="edge">
<title>obsspacediag_mod&#45;&gt;bCovarSetupChem_mod</title>
<path fill="none" stroke="black" d="M239.17,-207.67C233.82,-163.59 222.92,-73.87 218.34,-36.23"/>
<ellipse fill="black" stroke="black" cx="239.68" cy="-211.88" rx="4" ry="4"/>
</g>
<!-- obsspaceerrorstddev_mod -->
<g id="node5" class="node">
<title>obsspaceerrorstddev_mod</title>
<g id="a_node5"><a xlink:href="../modules/obsspaceerrorstddev_mod_rev.svg" xlink:title="obsspaceerrorstddev_mod">
<polygon fill="none" stroke="blue" points="409.75,-324 250.75,-324 250.75,-288 409.75,-288 409.75,-324"/>
<text text-anchor="middle" x="330.25" y="-302.3" font-family="Times,serif" font-size="14.00">obsspaceerrorstddev_mod</text>
</a>
</g>
</g>
<!-- obsspaceerrorstddev_mod&#45;&gt;bCovarSetupChem_mod -->
<g id="edge4" class="edge">
<title>obsspaceerrorstddev_mod&#45;&gt;bCovarSetupChem_mod</title>
<path fill="none" stroke="black" d="M326.5,-279.66C323.43,-261.61 318.42,-236.94 311.25,-216 287.45,-146.49 245.35,-69.51 226.22,-36.06"/>
<ellipse fill="black" stroke="black" cx="327.21" cy="-284" rx="4" ry="4"/>
</g>
</g>
</svg>
