<?xml version="1.0" encoding="UTF-8" standalone="no"?>
<!DOCTYPE svg PUBLIC "-//W3C//DTD SVG 1.1//EN"
 "http://www.w3.org/Graphics/SVG/1.1/DTD/svg11.dtd">
<!-- Generated by graphviz version 3.0.0 (20220315.2325)
 -->
<!-- Title: bCovarSetupChem_mod Pages: 1 -->
<svg width="749pt" height="673pt"
 viewBox="0.00 0.00 749.00 673.00" xmlns="http://www.w3.org/2000/svg" xmlns:xlink="http://www.w3.org/1999/xlink">
<g id="graph0" class="graph" transform="scale(1 1) rotate(0) translate(4 669)">
<title>bCovarSetupChem_mod</title>
<polygon fill="white" stroke="transparent" points="-4,4 -4,-669 745,-669 745,4 -4,4"/>
<text text-anchor="middle" x="370.5" y="-37.8" font-family="Times,serif" font-size="14.00">Red boxes indicate modules with dependencies not shown</text>
<text text-anchor="middle" x="370.5" y="-22.8" font-family="Times,serif" font-size="14.00">Lower level dependencies can be shown by clicking on a red box</text>
<text text-anchor="middle" x="370.5" y="-7.8" font-family="Times,serif" font-size="14.00">Shaded boxes indicate modules with no dependencies</text>
<!-- bCovarSetupChem_mod -->
<g id="node1" class="node">
<title>bCovarSetupChem_mod</title>
<g id="a_node1"><a xlink:href="bCovarSetupChem_mod.html" xlink:title="bCovarSetupChem_mod">
<polygon fill="none" stroke="black" points="450,-665 298,-665 298,-629 450,-629 450,-665"/>
<text text-anchor="middle" x="374" y="-643.3" font-family="Times,serif" font-size="14.00">bCovarSetupChem_mod</text>
</a>
</g>
</g>
<!-- calcheightandpressure_mod -->
<g id="node2" class="node">
<title>calcheightandpressure_mod</title>
<g id="a_node2"><a xlink:href="../modules/calcheightandpressure_mod.svg" xlink:title="calcheightandpressure_mod">
<polygon fill="none" stroke="red" points="168,-593 0,-593 0,-557 168,-557 168,-593"/>
<text text-anchor="middle" x="84" y="-571.3" font-family="Times,serif" font-size="14.00">calcheightandpressure_mod</text>
</a>
</g>
</g>
<!-- bCovarSetupChem_mod&#45;&gt;calcheightandpressure_mod -->
<g id="edge1" class="edge">
<title>bCovarSetupChem_mod&#45;&gt;calcheightandpressure_mod</title>
<path fill="none" stroke="black" d="M303.43,-628.97C261.51,-618.85 208.21,-605.98 164.63,-595.46"/>
<polygon fill="black" stroke="black" points="165.18,-591.99 154.64,-593.05 163.54,-598.8 165.18,-591.99"/>
</g>
<!-- earthconstants_mod -->
<g id="node3" class="node">
<title>earthconstants_mod</title>
<g id="a_node3"><a xlink:href="../modules/earthconstants_mod.svg" xlink:title="earthconstants_mod">
<polygon fill="none" stroke="red" points="232,-521 106,-521 106,-485 232,-485 232,-521"/>
<text text-anchor="middle" x="169" y="-499.3" font-family="Times,serif" font-size="14.00">earthconstants_mod</text>
</a>
</g>
</g>
<!-- bCovarSetupChem_mod&#45;&gt;earthconstants_mod -->
<g id="edge2" class="edge">
<title>bCovarSetupChem_mod&#45;&gt;earthconstants_mod</title>
<path fill="none" stroke="black" d="M317.2,-628.94C293.86,-620.34 267.36,-608.41 246,-593 221.86,-575.58 200.26,-549.17 186.12,-529.63"/>
<polygon fill="black" stroke="black" points="188.8,-527.35 180.17,-521.2 183.08,-531.39 188.8,-527.35"/>
</g>
<!-- globalspectraltransform_mod -->
<g id="node4" class="node">
<title>globalspectraltransform_mod</title>
<g id="a_node4"><a xlink:href="../modules/globalspectraltransform_mod.svg" xlink:title="globalspectraltransform_mod">
<polygon fill="none" stroke="red" points="270,-449 92,-449 92,-413 270,-413 270,-449"/>
<text text-anchor="middle" x="181" y="-427.3" font-family="Times,serif" font-size="14.00">globalspectraltransform_mod</text>
</a>
</g>
</g>
<!-- bCovarSetupChem_mod&#45;&gt;globalspectraltransform_mod -->
<g id="edge3" class="edge">
<title>bCovarSetupChem_mod&#45;&gt;globalspectraltransform_mod</title>
<path fill="none" stroke="black" d="M332.7,-628.96C315.76,-620.27 297.1,-608.28 284,-593 250.37,-553.78 270.73,-527.26 241,-485 233.36,-474.15 223.08,-464.02 213.18,-455.58"/>
<polygon fill="black" stroke="black" points="215.34,-452.82 205.39,-449.2 210.9,-458.24 215.34,-452.82"/>
</g>
<!-- gridstatevector_mod -->
<g id="node5" class="node">
<title>gridstatevector_mod</title>
<g id="a_node5"><a xlink:href="../modules/gridstatevector_mod.svg" xlink:title="gridstatevector_mod">
<polygon fill="none" stroke="red" points="308,-377 178,-377 178,-341 308,-341 308,-377"/>
<text text-anchor="middle" x="243" y="-355.3" font-family="Times,serif" font-size="14.00">gridstatevector_mod</text>
</a>
</g>
</g>
<!-- bCovarSetupChem_mod&#45;&gt;gridstatevector_mod -->
<g id="edge4" class="edge">
<title>bCovarSetupChem_mod&#45;&gt;gridstatevector_mod</title>
<path fill="none" stroke="black" d="M352.43,-628.95C341.78,-619.44 329.61,-606.76 322,-593 282.19,-521.02 312.21,-488.25 279,-413 274.8,-403.48 268.87,-393.85 263.02,-385.45"/>
<polygon fill="black" stroke="black" points="265.75,-383.24 257.04,-377.2 260.08,-387.35 265.75,-383.24"/>
</g>
<!-- horizontalcoord_mod -->
<g id="node6" class="node">
<title>horizontalcoord_mod</title>
<g id="a_node6"><a xlink:href="../modules/horizontalcoord_mod.svg" xlink:title="horizontalcoord_mod">
<polygon fill="none" stroke="red" points="346,-305 212,-305 212,-269 346,-269 346,-305"/>
<text text-anchor="middle" x="279" y="-283.3" font-family="Times,serif" font-size="14.00">horizontalcoord_mod</text>
</a>
</g>
</g>
<!-- bCovarSetupChem_mod&#45;&gt;horizontalcoord_mod -->
<g id="edge5" class="edge">
<title>bCovarSetupChem_mod&#45;&gt;horizontalcoord_mod</title>
<path fill="none" stroke="black" d="M366.31,-628.91C355.21,-602.62 336,-550.45 336,-504 336,-504 336,-504 336,-430 336,-389.55 333.35,-377.99 317,-341 312.67,-331.21 306.36,-321.43 300.12,-312.98"/>
<polygon fill="black" stroke="black" points="302.86,-310.8 293.98,-305.03 297.32,-315.08 302.86,-310.8"/>
</g>
<!-- mathphysconstants_mod -->
<g id="node7" class="node">
<title>mathphysconstants_mod</title>
<g id="a_node7"><a xlink:href="mathphysconstants_mod.html" xlink:title="mathphysconstants_mod">
<polygon fill="gray" stroke="black" points="384,-233 232,-233 232,-197 384,-197 384,-233"/>
<text text-anchor="middle" x="308" y="-211.3" font-family="Times,serif" font-size="14.00">mathphysconstants_mod</text>
</a>
</g>
</g>
<!-- bCovarSetupChem_mod&#45;&gt;mathphysconstants_mod -->
<g id="edge6" class="edge">
<title>bCovarSetupChem_mod&#45;&gt;mathphysconstants_mod</title>
<path fill="none" stroke="black" d="M374,-628.95C374,-602.29 374,-549.11 374,-504 374,-504 374,-504 374,-358 374,-317.55 373.24,-305.1 355,-269 349.82,-258.75 342.16,-248.92 334.53,-240.57"/>
<polygon fill="black" stroke="black" points="337.04,-238.14 327.59,-233.35 331.99,-242.99 337.04,-238.14"/>
</g>
<!-- midasmpi_mod -->
<g id="node8" class="node">
<title>midasmpi_mod</title>
<g id="a_node8"><a xlink:href="../modules/midasmpi_mod.svg" xlink:title="midasmpi_mod">
<polygon fill="none" stroke="red" points="422,-161 320,-161 320,-125 422,-125 422,-161"/>
<text text-anchor="middle" x="371" y="-139.3" font-family="Times,serif" font-size="14.00">midasmpi_mod</text>
</a>
</g>
</g>
<!-- bCovarSetupChem_mod&#45;&gt;midasmpi_mod -->
<g id="edge7" class="edge">
<title>bCovarSetupChem_mod&#45;&gt;midasmpi_mod</title>
<path fill="none" stroke="black" d="M381.69,-628.91C392.79,-602.62 412,-550.45 412,-504 412,-504 412,-504 412,-286 412,-244.41 395.56,-198.56 383.5,-170.51"/>
<polygon fill="black" stroke="black" points="386.55,-168.75 379.3,-161.03 380.15,-171.59 386.55,-168.75"/>
</g>
<!-- obssubspacedata_mod -->
<g id="node9" class="node">
<title>obssubspacedata_mod</title>
<g id="a_node9"><a xlink:href="../modules/obssubspacedata_mod.svg" xlink:title="obssubspacedata_mod">
<polygon fill="none" stroke="red" points="519,-89 381,-89 381,-53 519,-53 519,-89"/>
<text text-anchor="middle" x="450" y="-67.3" font-family="Times,serif" font-size="14.00">obssubspacedata_mod</text>
</a>
</g>
</g>
<!-- bCovarSetupChem_mod&#45;&gt;obssubspacedata_mod -->
<g id="edge8" class="edge">
<title>bCovarSetupChem_mod&#45;&gt;obssubspacedata_mod</title>
<path fill="none" stroke="black" d="M390.49,-628.77C412.84,-603.53 450,-554.05 450,-504 450,-504 450,-504 450,-214 450,-174 450,-127.65 450,-99.08"/>
<polygon fill="black" stroke="black" points="453.5,-99.05 450,-89.05 446.5,-99.05 453.5,-99.05"/>
</g>
<!-- utilities_mod -->
<g id="node10" class="node">
<title>utilities_mod</title>
<g id="a_node10"><a xlink:href="../modules/utilities_mod.svg" xlink:title="utilities_mod">
<polygon fill="none" stroke="red" points="567.5,-593 478.5,-593 478.5,-557 567.5,-557 567.5,-593"/>
<text text-anchor="middle" x="523" y="-571.3" font-family="Times,serif" font-size="14.00">utilities_mod</text>
</a>
</g>
</g>
<!-- bCovarSetupChem_mod&#45;&gt;utilities_mod -->
<g id="edge9" class="edge">
<title>bCovarSetupChem_mod&#45;&gt;utilities_mod</title>
<path fill="none" stroke="black" d="M410.45,-628.88C430.64,-619.39 455.92,-607.51 477.41,-597.42"/>
<polygon fill="black" stroke="black" points="479.11,-600.49 486.67,-593.07 476.13,-594.15 479.11,-600.49"/>
</g>
<!-- varnamelist_mod -->
<g id="node11" class="node">
<title>varnamelist_mod</title>
<g id="a_node11"><a xlink:href="../modules/varnamelist_mod.svg" xlink:title="varnamelist_mod">
<polygon fill="none" stroke="red" points="652.5,-521 539.5,-521 539.5,-485 652.5,-485 652.5,-521"/>
<text text-anchor="middle" x="596" y="-499.3" font-family="Times,serif" font-size="14.00">varnamelist_mod</text>
</a>
</g>
</g>
<!-- bCovarSetupChem_mod&#45;&gt;varnamelist_mod -->
<g id="edge10" class="edge">
<title>bCovarSetupChem_mod&#45;&gt;varnamelist_mod</title>
<path fill="none" stroke="black" d="M450.25,-634.42C499.83,-625.35 558.41,-611.23 576,-593 591.68,-576.75 596.1,-550.99 596.94,-531.36"/>
<polygon fill="black" stroke="black" points="600.44,-531.23 597.08,-521.18 593.44,-531.13 600.44,-531.23"/>
</g>
<!-- verticalcoord_mod -->
<g id="node12" class="node">
<title>verticalcoord_mod</title>
<g id="a_node12"><a xlink:href="../modules/verticalcoord_mod.svg" xlink:title="verticalcoord_mod">
<polygon fill="none" stroke="red" points="741,-449 621,-449 621,-413 741,-413 741,-449"/>
<text text-anchor="middle" x="681" y="-427.3" font-family="Times,serif" font-size="14.00">verticalcoord_mod</text>
</a>
</g>
</g>
<!-- bCovarSetupChem_mod&#45;&gt;verticalcoord_mod -->
<g id="edge11" class="edge">
<title>bCovarSetupChem_mod&#45;&gt;verticalcoord_mod</title>
<path fill="none" stroke="black" d="M450.06,-639.85C495.87,-633.4 553.87,-620.16 599,-593 635.43,-571.08 642.95,-559.01 662,-521 671.7,-501.64 676.46,-477.49 678.79,-459.23"/>
<polygon fill="black" stroke="black" points="682.28,-459.57 679.9,-449.25 675.32,-458.8 682.28,-459.57"/>
</g>
</g>
</svg>
