<?xml version="1.0" encoding="UTF-8" standalone="no"?>
<!DOCTYPE svg PUBLIC "-//W3C//DTD SVG 1.1//EN"
 "http://www.w3.org/Graphics/SVG/1.1/DTD/svg11.dtd">
<!-- Generated by graphviz version 3.0.0 (20220315.2325)
 -->
<!-- Title: bgckOcean_mod Pages: 1 -->
<svg width="778pt" height="673pt"
 viewBox="0.00 0.00 777.50 673.00" xmlns="http://www.w3.org/2000/svg" xmlns:xlink="http://www.w3.org/1999/xlink">
<g id="graph0" class="graph" transform="scale(1 1) rotate(0) translate(4 669)">
<title>bgckOcean_mod</title>
<polygon fill="white" stroke="transparent" points="-4,4 -4,-669 773.5,-669 773.5,4 -4,4"/>
<text text-anchor="middle" x="384.75" y="-37.8" font-family="Times,serif" font-size="14.00">Red boxes indicate modules with dependencies not shown</text>
<text text-anchor="middle" x="384.75" y="-22.8" font-family="Times,serif" font-size="14.00">Lower level dependencies can be shown by clicking on a red box</text>
<text text-anchor="middle" x="384.75" y="-7.8" font-family="Times,serif" font-size="14.00">Shaded boxes indicate modules with no dependencies</text>
<!-- bgckOcean_mod -->
<g id="node1" class="node">
<title>bgckOcean_mod</title>
<g id="a_node1"><a xlink:href="bgckOcean_mod.html" xlink:title="bgckOcean_mod">
<polygon fill="none" stroke="black" points="379,-665 270,-665 270,-629 379,-629 379,-665"/>
<text text-anchor="middle" x="324.5" y="-643.3" font-family="Times,serif" font-size="14.00">bgckOcean_mod</text>
</a>
</g>
</g>
<!-- bufr_mod -->
<g id="node2" class="node">
<title>bufr_mod</title>
<g id="a_node2"><a xlink:href="bufr_mod.html" xlink:title="bufr_mod">
<polygon fill="gray" stroke="black" points="71,-593 0,-593 0,-557 71,-557 71,-593"/>
<text text-anchor="middle" x="35.5" y="-571.3" font-family="Times,serif" font-size="14.00">bufr_mod</text>
</a>
</g>
</g>
<!-- bgckOcean_mod&#45;&gt;bufr_mod -->
<g id="edge1" class="edge">
<title>bgckOcean_mod&#45;&gt;bufr_mod</title>
<path fill="none" stroke="black" d="M269.97,-635.68C221.26,-626.04 148.12,-610.53 85.5,-593 84.04,-592.59 82.56,-592.16 81.06,-591.72"/>
<polygon fill="black" stroke="black" points="81.72,-588.26 71.13,-588.64 79.65,-594.95 81.72,-588.26"/>
</g>
<!-- codtyp_mod -->
<g id="node3" class="node">
<title>codtyp_mod</title>
<g id="a_node3"><a xlink:href="../modules/codtyp_mod.svg" xlink:title="codtyp_mod">
<polygon fill="none" stroke="red" points="125,-521 40,-521 40,-485 125,-485 125,-521"/>
<text text-anchor="middle" x="82.5" y="-499.3" font-family="Times,serif" font-size="14.00">codtyp_mod</text>
</a>
</g>
</g>
<!-- bgckOcean_mod&#45;&gt;codtyp_mod -->
<g id="edge2" class="edge">
<title>bgckOcean_mod&#45;&gt;codtyp_mod</title>
<path fill="none" stroke="black" d="M269.75,-640.69C230.31,-634.54 177.55,-621.34 139.5,-593 118,-576.99 102.48,-550.27 93.11,-530.27"/>
<polygon fill="black" stroke="black" points="96.28,-528.78 89.01,-521.08 89.88,-531.63 96.28,-528.78"/>
</g>
<!-- columndata_mod -->
<g id="node4" class="node">
<title>columndata_mod</title>
<g id="a_node4"><a xlink:href="../modules/columndata_mod.svg" xlink:title="columndata_mod">
<polygon fill="none" stroke="red" points="163.5,-449 51.5,-449 51.5,-413 163.5,-413 163.5,-449"/>
<text text-anchor="middle" x="107.5" y="-427.3" font-family="Times,serif" font-size="14.00">columndata_mod</text>
</a>
</g>
</g>
<!-- bgckOcean_mod&#45;&gt;columndata_mod -->
<g id="edge3" class="edge">
<title>bgckOcean_mod&#45;&gt;columndata_mod</title>
<path fill="none" stroke="black" d="M269.79,-637.54C239.3,-630.3 202.55,-617.05 177.5,-593 140.11,-557.11 154.7,-532.29 133.5,-485 129.54,-476.17 124.96,-466.64 120.76,-458.13"/>
<polygon fill="black" stroke="black" points="123.83,-456.43 116.23,-449.04 117.56,-459.55 123.83,-456.43"/>
</g>
<!-- gridstatevectorfileio_mod -->
<g id="node5" class="node">
<title>gridstatevectorfileio_mod</title>
<g id="a_node5"><a xlink:href="../modules/gridstatevectorfileio_mod.svg" xlink:title="gridstatevectorfileio_mod">
<polygon fill="none" stroke="red" points="201.5,-377 43.5,-377 43.5,-341 201.5,-341 201.5,-377"/>
<text text-anchor="middle" x="122.5" y="-355.3" font-family="Times,serif" font-size="14.00">gridstatevectorfileio_mod</text>
</a>
</g>
</g>
<!-- bgckOcean_mod&#45;&gt;gridstatevectorfileio_mod -->
<g id="edge4" class="edge">
<title>bgckOcean_mod&#45;&gt;gridstatevectorfileio_mod</title>
<path fill="none" stroke="black" d="M269.9,-630.42C250.15,-622.24 229.33,-610.23 215.5,-593 164.01,-528.86 211.6,-485.36 172.5,-413 166.88,-402.6 158.71,-392.74 150.59,-384.4"/>
<polygon fill="black" stroke="black" points="152.82,-381.69 143.23,-377.2 147.93,-386.7 152.82,-381.69"/>
</g>
<!-- gridstatevector_mod -->
<g id="node6" class="node">
<title>gridstatevector_mod</title>
<g id="a_node6"><a xlink:href="../modules/gridstatevector_mod.svg" xlink:title="gridstatevector_mod">
<polygon fill="none" stroke="red" points="239.5,-305 109.5,-305 109.5,-269 239.5,-269 239.5,-305"/>
<text text-anchor="middle" x="174.5" y="-283.3" font-family="Times,serif" font-size="14.00">gridstatevector_mod</text>
</a>
</g>
</g>
<!-- bgckOcean_mod&#45;&gt;gridstatevector_mod -->
<g id="edge5" class="edge">
<title>bgckOcean_mod&#45;&gt;gridstatevector_mod</title>
<path fill="none" stroke="black" d="M292.65,-628.8C278.77,-619.82 263.44,-607.63 253.5,-593 230.49,-559.11 229.5,-544.97 229.5,-504 229.5,-504 229.5,-504 229.5,-430 229.5,-389.55 226.38,-378.2 210.5,-341 206.42,-331.43 200.51,-321.78 194.66,-313.39"/>
<polygon fill="black" stroke="black" points="197.38,-311.17 188.66,-305.15 191.72,-315.29 197.38,-311.17"/>
</g>
<!-- horizontalcoord_mod -->
<g id="node7" class="node">
<title>horizontalcoord_mod</title>
<g id="a_node7"><a xlink:href="../modules/horizontalcoord_mod.svg" xlink:title="horizontalcoord_mod">
<polygon fill="none" stroke="red" points="277.5,-233 143.5,-233 143.5,-197 277.5,-197 277.5,-233"/>
<text text-anchor="middle" x="210.5" y="-211.3" font-family="Times,serif" font-size="14.00">horizontalcoord_mod</text>
</a>
</g>
</g>
<!-- bgckOcean_mod&#45;&gt;horizontalcoord_mod -->
<g id="edge6" class="edge">
<title>bgckOcean_mod&#45;&gt;horizontalcoord_mod</title>
<path fill="none" stroke="black" d="M311.83,-628.57C305.03,-618.56 296.95,-605.52 291.5,-593 275.16,-555.43 267.5,-544.97 267.5,-504 267.5,-504 267.5,-504 267.5,-358 267.5,-317.55 264.85,-305.99 248.5,-269 244.17,-259.21 237.86,-249.43 231.62,-240.98"/>
<polygon fill="black" stroke="black" points="234.36,-238.8 225.48,-233.03 228.82,-243.08 234.36,-238.8"/>
</g>
<!-- mathphysconstants_mod -->
<g id="node8" class="node">
<title>mathphysconstants_mod</title>
<g id="a_node8"><a xlink:href="mathphysconstants_mod.html" xlink:title="mathphysconstants_mod">
<polygon fill="gray" stroke="black" points="315.5,-161 163.5,-161 163.5,-125 315.5,-125 315.5,-161"/>
<text text-anchor="middle" x="239.5" y="-139.3" font-family="Times,serif" font-size="14.00">mathphysconstants_mod</text>
</a>
</g>
</g>
<!-- bgckOcean_mod&#45;&gt;mathphysconstants_mod -->
<g id="edge7" class="edge">
<title>bgckOcean_mod&#45;&gt;mathphysconstants_mod</title>
<path fill="none" stroke="black" d="M320.66,-628.61C315.1,-601.94 305.5,-549.27 305.5,-504 305.5,-504 305.5,-504 305.5,-286 305.5,-245.55 304.74,-233.1 286.5,-197 281.32,-186.75 273.66,-176.92 266.03,-168.57"/>
<polygon fill="black" stroke="black" points="268.54,-166.14 259.09,-161.35 263.49,-170.99 268.54,-166.14"/>
</g>
<!-- message_mod -->
<g id="node9" class="node">
<title>message_mod</title>
<g id="a_node9"><a xlink:href="../modules/message_mod.svg" xlink:title="message_mod">
<polygon fill="none" stroke="red" points="391,-89 296,-89 296,-53 391,-53 391,-89"/>
<text text-anchor="middle" x="343.5" y="-67.3" font-family="Times,serif" font-size="14.00">message_mod</text>
</a>
</g>
</g>
<!-- bgckOcean_mod&#45;&gt;message_mod -->
<g id="edge8" class="edge">
<title>bgckOcean_mod&#45;&gt;message_mod</title>
<path fill="none" stroke="black" d="M328.34,-628.61C333.9,-601.94 343.5,-549.27 343.5,-504 343.5,-504 343.5,-504 343.5,-214 343.5,-174 343.5,-127.65 343.5,-99.08"/>
<polygon fill="black" stroke="black" points="347,-99.05 343.5,-89.05 340,-99.05 347,-99.05"/>
</g>
<!-- midasmpi_mod -->
<g id="node10" class="node">
<title>midasmpi_mod</title>
<g id="a_node10"><a xlink:href="../modules/midasmpi_mod.svg" xlink:title="midasmpi_mod">
<polygon fill="none" stroke="red" points="473.5,-593 371.5,-593 371.5,-557 473.5,-557 473.5,-593"/>
<text text-anchor="middle" x="422.5" y="-571.3" font-family="Times,serif" font-size="14.00">midasmpi_mod</text>
</a>
</g>
</g>
<!-- bgckOcean_mod&#45;&gt;midasmpi_mod -->
<g id="edge9" class="edge">
<title>bgckOcean_mod&#45;&gt;midasmpi_mod</title>
<path fill="none" stroke="black" d="M348.47,-628.88C361.05,-619.89 376.63,-608.76 390.25,-599.03"/>
<polygon fill="black" stroke="black" points="392.33,-601.85 398.43,-593.19 388.26,-596.15 392.33,-601.85"/>
</g>
<!-- obsspacedata_mod -->
<g id="node11" class="node">
<title>obsspacedata_mod</title>
<g id="a_node11"><a xlink:href="../modules/obsspacedata_mod.svg" xlink:title="obsspacedata_mod">
<polygon fill="none" stroke="red" points="511,-521 392,-521 392,-485 511,-485 511,-521"/>
<text text-anchor="middle" x="451.5" y="-499.3" font-family="Times,serif" font-size="14.00">obsspacedata_mod</text>
</a>
</g>
</g>
<!-- bgckOcean_mod&#45;&gt;obsspacedata_mod -->
<g id="edge10" class="edge">
<title>bgckOcean_mod&#45;&gt;obsspacedata_mod</title>
<path fill="none" stroke="black" d="M379.01,-643.31C414.77,-638.37 459.1,-625.53 482.5,-593 496.25,-573.88 484.74,-548.12 472.02,-529.24"/>
<polygon fill="black" stroke="black" points="474.85,-527.18 466.18,-521.09 469.16,-531.26 474.85,-527.18"/>
</g>
<!-- statetocolumn_mod -->
<g id="node12" class="node">
<title>statetocolumn_mod</title>
<g id="a_node12"><a xlink:href="../modules/statetocolumn_mod.svg" xlink:title="statetocolumn_mod">
<polygon fill="none" stroke="red" points="549,-449 424,-449 424,-413 549,-413 549,-449"/>
<text text-anchor="middle" x="486.5" y="-427.3" font-family="Times,serif" font-size="14.00">statetocolumn_mod</text>
</a>
</g>
</g>
<!-- bgckOcean_mod&#45;&gt;statetocolumn_mod -->
<g id="edge11" class="edge">
<title>bgckOcean_mod&#45;&gt;statetocolumn_mod</title>
<path fill="none" stroke="black" d="M379.39,-643.22C418.31,-638.33 469.02,-625.59 500.5,-593 534.36,-557.95 532.9,-531.86 519.5,-485 516.79,-475.51 511.83,-466.06 506.57,-457.83"/>
<polygon fill="black" stroke="black" points="509.36,-455.72 500.83,-449.43 503.58,-459.67 509.36,-455.72"/>
</g>
<!-- timecoord_mod -->
<g id="node13" class="node">
<title>timecoord_mod</title>
<g id="a_node13"><a xlink:href="../modules/timecoord_mod.svg" xlink:title="timecoord_mod">
<polygon fill="none" stroke="red" points="608.5,-377 504.5,-377 504.5,-341 608.5,-341 608.5,-377"/>
<text text-anchor="middle" x="556.5" y="-355.3" font-family="Times,serif" font-size="14.00">timecoord_mod</text>
</a>
</g>
</g>
<!-- bgckOcean_mod&#45;&gt;timecoord_mod -->
<g id="edge12" class="edge">
<title>bgckOcean_mod&#45;&gt;timecoord_mod</title>
<path fill="none" stroke="black" d="M379.46,-638.15C432.1,-629.52 506.39,-614.03 526.5,-593 580.1,-536.96 570.63,-435.65 562.21,-387.22"/>
<polygon fill="black" stroke="black" points="565.61,-386.37 560.35,-377.18 558.73,-387.65 565.61,-386.37"/>
</g>
<!-- utilities_mod -->
<g id="node14" class="node">
<title>utilities_mod</title>
<g id="a_node14"><a xlink:href="../modules/utilities_mod.svg" xlink:title="utilities_mod">
<polygon fill="none" stroke="red" points="681,-305 592,-305 592,-269 681,-269 681,-305"/>
<text text-anchor="middle" x="636.5" y="-283.3" font-family="Times,serif" font-size="14.00">utilities_mod</text>
</a>
</g>
</g>
<!-- bgckOcean_mod&#45;&gt;utilities_mod -->
<g id="edge13" class="edge">
<title>bgckOcean_mod&#45;&gt;utilities_mod</title>
<path fill="none" stroke="black" d="M379.2,-644.93C468.68,-639.96 636.5,-615.74 636.5,-504 636.5,-504 636.5,-504 636.5,-430 636.5,-390 636.5,-343.65 636.5,-315.08"/>
<polygon fill="black" stroke="black" points="640,-315.05 636.5,-305.05 633,-315.05 640,-315.05"/>
</g>
<!-- verticalcoord_mod -->
<g id="node15" class="node">
<title>verticalcoord_mod</title>
<g id="a_node15"><a xlink:href="../modules/verticalcoord_mod.svg" xlink:title="verticalcoord_mod">
<polygon fill="none" stroke="red" points="769.5,-233 649.5,-233 649.5,-197 769.5,-197 769.5,-233"/>
<text text-anchor="middle" x="709.5" y="-211.3" font-family="Times,serif" font-size="14.00">verticalcoord_mod</text>
</a>
</g>
</g>
<!-- bgckOcean_mod&#45;&gt;verticalcoord_mod -->
<g id="edge14" class="edge">
<title>bgckOcean_mod&#45;&gt;verticalcoord_mod</title>
<path fill="none" stroke="black" d="M379.14,-645.36C440.15,-642.6 540.3,-631.85 616.5,-593 667.47,-567.01 709.5,-561.21 709.5,-504 709.5,-504 709.5,-504 709.5,-358 709.5,-318 709.5,-271.65 709.5,-243.08"/>
<polygon fill="black" stroke="black" points="713,-243.05 709.5,-233.05 706,-243.05 713,-243.05"/>
</g>
</g>
</svg>
