<?xml version="1.0" encoding="UTF-8" standalone="no"?>
<!DOCTYPE svg PUBLIC "-//W3C//DTD SVG 1.1//EN"
 "http://www.w3.org/Graphics/SVG/1.1/DTD/svg11.dtd">
<!-- Generated by graphviz version 3.0.0 (20220315.2325)
 -->
<!-- Title: bgckMicrowave_mod Pages: 1 -->
<svg width="445pt" height="601pt"
 viewBox="0.00 0.00 445.00 601.00" xmlns="http://www.w3.org/2000/svg" xmlns:xlink="http://www.w3.org/1999/xlink">
<g id="graph0" class="graph" transform="scale(1 1) rotate(0) translate(4 597)">
<title>bgckMicrowave_mod</title>
<polygon fill="white" stroke="transparent" points="-4,4 -4,-597 441,-597 441,4 -4,4"/>
<text text-anchor="middle" x="218.5" y="-37.8" font-family="Times,serif" font-size="14.00">Red boxes indicate modules with dependencies not shown</text>
<text text-anchor="middle" x="218.5" y="-22.8" font-family="Times,serif" font-size="14.00">Lower level dependencies can be shown by clicking on a red box</text>
<text text-anchor="middle" x="218.5" y="-7.8" font-family="Times,serif" font-size="14.00">Shaded boxes indicate modules with no dependencies</text>
<!-- bgckMicrowave_mod -->
<g id="node1" class="node">
<title>bgckMicrowave_mod</title>
<g id="a_node1"><a xlink:href="bgckMicrowave_mod.html" xlink:title="bgckMicrowave_mod">
<polygon fill="none" stroke="black" points="291,-593 154,-593 154,-557 291,-557 291,-593"/>
<text text-anchor="middle" x="222.5" y="-571.3" font-family="Times,serif" font-size="14.00">bgckMicrowave_mod</text>
</a>
</g>
</g>
<!-- codtyp_mod -->
<g id="node2" class="node">
<title>codtyp_mod</title>
<g id="a_node2"><a xlink:href="../modules/codtyp_mod.svg" xlink:title="codtyp_mod">
<polygon fill="none" stroke="red" points="85,-521 0,-521 0,-485 85,-485 85,-521"/>
<text text-anchor="middle" x="42.5" y="-499.3" font-family="Times,serif" font-size="14.00">codtyp_mod</text>
</a>
</g>
</g>
<!-- bgckMicrowave_mod&#45;&gt;codtyp_mod -->
<g id="edge1" class="edge">
<title>bgckMicrowave_mod&#45;&gt;codtyp_mod</title>
<path fill="none" stroke="black" d="M178.47,-556.88C153.16,-547.03 121.23,-534.62 94.67,-524.29"/>
<polygon fill="black" stroke="black" points="95.74,-520.95 85.15,-520.59 93.2,-527.47 95.74,-520.95"/>
</g>
<!-- mathphysconstants_mod -->
<g id="node3" class="node">
<title>mathphysconstants_mod</title>
<g id="a_node3"><a xlink:href="mathphysconstants_mod.html" xlink:title="mathphysconstants_mod">
<polygon fill="gray" stroke="black" points="156.5,-449 4.5,-449 4.5,-413 156.5,-413 156.5,-449"/>
<text text-anchor="middle" x="80.5" y="-427.3" font-family="Times,serif" font-size="14.00">mathphysconstants_mod</text>
</a>
</g>
</g>
<!-- bgckMicrowave_mod&#45;&gt;mathphysconstants_mod -->
<g id="edge2" class="edge">
<title>bgckMicrowave_mod&#45;&gt;mathphysconstants_mod</title>
<path fill="none" stroke="black" d="M205.37,-556.87C180.32,-531.82 133.55,-485.05 104.91,-456.41"/>
<polygon fill="black" stroke="black" points="107.24,-453.79 97.69,-449.19 102.29,-458.74 107.24,-453.79"/>
</g>
<!-- midasmpi_mod -->
<g id="node4" class="node">
<title>midasmpi_mod</title>
<g id="a_node4"><a xlink:href="../modules/midasmpi_mod.svg" xlink:title="midasmpi_mod">
<polygon fill="none" stroke="red" points="194.5,-377 92.5,-377 92.5,-341 194.5,-341 194.5,-377"/>
<text text-anchor="middle" x="143.5" y="-355.3" font-family="Times,serif" font-size="14.00">midasmpi_mod</text>
</a>
</g>
</g>
<!-- bgckMicrowave_mod&#45;&gt;midasmpi_mod -->
<g id="edge3" class="edge">
<title>bgckMicrowave_mod&#45;&gt;midasmpi_mod</title>
<path fill="none" stroke="black" d="M216.8,-556.97C206.86,-527.47 185.49,-465.04 165.5,-413 162.16,-404.31 158.33,-394.9 154.81,-386.46"/>
<polygon fill="black" stroke="black" points="157.97,-384.95 150.87,-377.09 151.52,-387.67 157.97,-384.95"/>
</g>
<!-- obserrors_mod -->
<g id="node5" class="node">
<title>obserrors_mod</title>
<g id="a_node5"><a xlink:href="../modules/obserrors_mod.svg" xlink:title="obserrors_mod">
<polygon fill="none" stroke="red" points="232,-305 133,-305 133,-269 232,-269 232,-305"/>
<text text-anchor="middle" x="182.5" y="-283.3" font-family="Times,serif" font-size="14.00">obserrors_mod</text>
</a>
</g>
</g>
<!-- bgckMicrowave_mod&#45;&gt;obserrors_mod -->
<g id="edge4" class="edge">
<title>bgckMicrowave_mod&#45;&gt;obserrors_mod</title>
<path fill="none" stroke="black" d="M222.82,-556.78C223.17,-517.79 221.95,-420.05 203.5,-341 201.43,-332.13 198.14,-322.79 194.76,-314.47"/>
<polygon fill="black" stroke="black" points="197.98,-313.08 190.84,-305.25 191.54,-315.82 197.98,-313.08"/>
</g>
<!-- obsspacedata_mod -->
<g id="node6" class="node">
<title>obsspacedata_mod</title>
<g id="a_node6"><a xlink:href="../modules/obsspacedata_mod.svg" xlink:title="obsspacedata_mod">
<polygon fill="none" stroke="red" points="295,-233 176,-233 176,-197 295,-197 295,-233"/>
<text text-anchor="middle" x="235.5" y="-211.3" font-family="Times,serif" font-size="14.00">obsspacedata_mod</text>
</a>
</g>
</g>
<!-- bgckMicrowave_mod&#45;&gt;obsspacedata_mod -->
<g id="edge5" class="edge">
<title>bgckMicrowave_mod&#45;&gt;obsspacedata_mod</title>
<path fill="none" stroke="black" d="M230.19,-556.91C241.29,-530.62 260.5,-478.45 260.5,-432 260.5,-432 260.5,-432 260.5,-358 260.5,-317.6 250.56,-271.71 243.22,-243.3"/>
<polygon fill="black" stroke="black" points="246.52,-242.08 240.56,-233.32 239.75,-243.88 246.52,-242.08"/>
</g>
<!-- tovsnl_mod -->
<g id="node7" class="node">
<title>tovsnl_mod</title>
<g id="a_node7"><a xlink:href="../modules/tovsnl_mod.svg" xlink:title="tovsnl_mod">
<polygon fill="none" stroke="red" points="364,-161 283,-161 283,-125 364,-125 364,-161"/>
<text text-anchor="middle" x="323.5" y="-139.3" font-family="Times,serif" font-size="14.00">tovsnl_mod</text>
</a>
</g>
</g>
<!-- bgckMicrowave_mod&#45;&gt;tovsnl_mod -->
<g id="edge6" class="edge">
<title>bgckMicrowave_mod&#45;&gt;tovsnl_mod</title>
<path fill="none" stroke="black" d="M245.67,-556.87C275.49,-532.66 323.5,-485.4 323.5,-432 323.5,-432 323.5,-432 323.5,-286 323.5,-246 323.5,-199.65 323.5,-171.08"/>
<polygon fill="black" stroke="black" points="327,-171.05 323.5,-161.05 320,-171.05 327,-171.05"/>
</g>
<!-- utilities_mod -->
<g id="node8" class="node">
<title>utilities_mod</title>
<g id="a_node8"><a xlink:href="../modules/utilities_mod.svg" xlink:title="utilities_mod">
<polygon fill="none" stroke="red" points="437,-89 348,-89 348,-53 437,-53 437,-89"/>
<text text-anchor="middle" x="392.5" y="-67.3" font-family="Times,serif" font-size="14.00">utilities_mod</text>
</a>
</g>
</g>
<!-- bgckMicrowave_mod&#45;&gt;utilities_mod -->
<g id="edge7" class="edge">
<title>bgckMicrowave_mod&#45;&gt;utilities_mod</title>
<path fill="none" stroke="black" d="M271.67,-556.98C321.88,-536.1 392.5,-495.45 392.5,-432 392.5,-432 392.5,-432 392.5,-214 392.5,-174 392.5,-127.65 392.5,-99.08"/>
<polygon fill="black" stroke="black" points="396,-99.05 392.5,-89.05 389,-99.05 396,-99.05"/>
</g>
</g>
</svg>
