<?xml version="1.0" encoding="UTF-8" standalone="no"?>
<!DOCTYPE svg PUBLIC "-//W3C//DTD SVG 1.1//EN"
 "http://www.w3.org/Graphics/SVG/1.1/DTD/svg11.dtd">
<!-- Generated by graphviz version 3.0.0 (20220315.2325)
 -->
<!-- Title: bgckCSR_mod Pages: 1 -->
<svg width="382pt" height="457pt"
 viewBox="0.00 0.00 382.00 457.00" xmlns="http://www.w3.org/2000/svg" xmlns:xlink="http://www.w3.org/1999/xlink">
<g id="graph0" class="graph" transform="scale(1 1) rotate(0) translate(4 453)">
<title>bgckCSR_mod</title>
<polygon fill="white" stroke="transparent" points="-4,4 -4,-453 378,-453 378,4 -4,4"/>
<text text-anchor="middle" x="187" y="-37.8" font-family="Times,serif" font-size="14.00">Red boxes indicate modules with dependencies not shown</text>
<text text-anchor="middle" x="187" y="-22.8" font-family="Times,serif" font-size="14.00">Lower level dependencies can be shown by clicking on a red box</text>
<text text-anchor="middle" x="187" y="-7.8" font-family="Times,serif" font-size="14.00">Shaded boxes indicate modules with no dependencies</text>
<!-- bgckCSR_mod -->
<g id="node1" class="node">
<title>bgckCSR_mod</title>
<g id="a_node1"><a xlink:href="bgckCSR_mod.html" xlink:title="bgckCSR_mod">
<polygon fill="none" stroke="black" points="242.75,-449 142.75,-449 142.75,-413 242.75,-413 242.75,-449"/>
<text text-anchor="middle" x="192.75" y="-427.3" font-family="Times,serif" font-size="14.00">bgckCSR_mod</text>
</a>
</g>
</g>
<!-- midasmpi_mod -->
<g id="node2" class="node">
<title>midasmpi_mod</title>
<g id="a_node2"><a xlink:href="../modules/midasmpi_mod.svg" xlink:title="midasmpi_mod">
<polygon fill="none" stroke="red" points="106.75,-377 4.75,-377 4.75,-341 106.75,-341 106.75,-377"/>
<text text-anchor="middle" x="55.75" y="-355.3" font-family="Times,serif" font-size="14.00">midasmpi_mod</text>
</a>
</g>
</g>
<!-- bgckCSR_mod&#45;&gt;midasmpi_mod -->
<g id="edge1" class="edge">
<title>bgckCSR_mod&#45;&gt;midasmpi_mod</title>
<path fill="none" stroke="black" d="M159.24,-412.88C140.91,-403.51 118.01,-391.81 98.42,-381.8"/>
<polygon fill="black" stroke="black" points="99.89,-378.62 89.39,-377.19 96.71,-384.86 99.89,-378.62"/>
</g>
<!-- obserrors_mod -->
<g id="node3" class="node">
<title>obserrors_mod</title>
<g id="a_node3"><a xlink:href="../modules/obserrors_mod.svg" xlink:title="obserrors_mod">
<polygon fill="none" stroke="red" points="164.25,-305 65.25,-305 65.25,-269 164.25,-269 164.25,-305"/>
<text text-anchor="middle" x="114.75" y="-283.3" font-family="Times,serif" font-size="14.00">obserrors_mod</text>
</a>
</g>
</g>
<!-- bgckCSR_mod&#45;&gt;obserrors_mod -->
<g id="edge2" class="edge">
<title>bgckCSR_mod&#45;&gt;obserrors_mod</title>
<path fill="none" stroke="black" d="M183.34,-412.87C169.87,-388.35 144.98,-343.03 129.17,-314.26"/>
<polygon fill="black" stroke="black" points="132.07,-312.27 124.19,-305.19 125.94,-315.64 132.07,-312.27"/>
</g>
<!-- obsspacedata_mod -->
<g id="node4" class="node">
<title>obsspacedata_mod</title>
<g id="a_node4"><a xlink:href="../modules/obsspacedata_mod.svg" xlink:title="obsspacedata_mod">
<polygon fill="none" stroke="red" points="227.25,-233 108.25,-233 108.25,-197 227.25,-197 227.25,-233"/>
<text text-anchor="middle" x="167.75" y="-211.3" font-family="Times,serif" font-size="14.00">obsspacedata_mod</text>
</a>
</g>
</g>
<!-- bgckCSR_mod&#45;&gt;obsspacedata_mod -->
<g id="edge3" class="edge">
<title>bgckCSR_mod&#45;&gt;obsspacedata_mod</title>
<path fill="none" stroke="black" d="M190.75,-412.85C186.42,-375.83 176.18,-288.18 170.95,-243.39"/>
<polygon fill="black" stroke="black" points="174.4,-242.76 169.76,-233.23 167.45,-243.57 174.4,-242.76"/>
</g>
<!-- tovsnl_mod -->
<g id="node5" class="node">
<title>tovsnl_mod</title>
<g id="a_node5"><a xlink:href="../modules/tovsnl_mod.svg" xlink:title="tovsnl_mod">
<polygon fill="none" stroke="red" points="296.25,-161 215.25,-161 215.25,-125 296.25,-125 296.25,-161"/>
<text text-anchor="middle" x="255.75" y="-139.3" font-family="Times,serif" font-size="14.00">tovsnl_mod</text>
</a>
</g>
</g>
<!-- bgckCSR_mod&#45;&gt;tovsnl_mod -->
<g id="edge4" class="edge">
<title>bgckCSR_mod&#45;&gt;tovsnl_mod</title>
<path fill="none" stroke="black" d="M196.5,-412.97C207.03,-365.19 236.89,-229.62 249.74,-171.27"/>
<polygon fill="black" stroke="black" points="253.2,-171.83 251.94,-161.31 246.37,-170.32 253.2,-171.83"/>
</g>
<!-- utilities_mod -->
<g id="node6" class="node">
<title>utilities_mod</title>
<g id="a_node6"><a xlink:href="../modules/utilities_mod.svg" xlink:title="utilities_mod">
<polygon fill="none" stroke="red" points="369.25,-89 280.25,-89 280.25,-53 369.25,-53 369.25,-89"/>
<text text-anchor="middle" x="324.75" y="-67.3" font-family="Times,serif" font-size="14.00">utilities_mod</text>
</a>
</g>
</g>
<!-- bgckCSR_mod&#45;&gt;utilities_mod -->
<g id="edge5" class="edge">
<title>bgckCSR_mod&#45;&gt;utilities_mod</title>
<path fill="none" stroke="black" d="M226.06,-412.87C265.16,-390.09 324.75,-345.89 324.75,-288 324.75,-288 324.75,-288 324.75,-214 324.75,-174 324.75,-127.65 324.75,-99.08"/>
<polygon fill="black" stroke="black" points="328.25,-99.05 324.75,-89.05 321.25,-99.05 328.25,-99.05"/>
</g>
</g>
</svg>
