<?xml version="1.0" encoding="UTF-8" standalone="no"?>
<!DOCTYPE svg PUBLIC "-//W3C//DTD SVG 1.1//EN"
 "http://www.w3.org/Graphics/SVG/1.1/DTD/svg11.dtd">
<!-- Generated by graphviz version 3.0.0 (20220315.2325)
 -->
<!-- Title: bgckSSMIS_mod Pages: 1 -->
<svg width="461pt" height="529pt"
 viewBox="0.00 0.00 460.50 529.00" xmlns="http://www.w3.org/2000/svg" xmlns:xlink="http://www.w3.org/1999/xlink">
<g id="graph0" class="graph" transform="scale(1 1) rotate(0) translate(4 525)">
<title>bgckSSMIS_mod</title>
<polygon fill="white" stroke="transparent" points="-4,4 -4,-525 456.5,-525 456.5,4 -4,4"/>
<text text-anchor="middle" x="226.25" y="-37.8" font-family="Times,serif" font-size="14.00">Red boxes indicate modules with dependencies not shown</text>
<text text-anchor="middle" x="226.25" y="-22.8" font-family="Times,serif" font-size="14.00">Lower level dependencies can be shown by clicking on a red box</text>
<text text-anchor="middle" x="226.25" y="-7.8" font-family="Times,serif" font-size="14.00">Shaded boxes indicate modules with no dependencies</text>
<!-- bgckSSMIS_mod -->
<g id="node1" class="node">
<title>bgckSSMIS_mod</title>
<g id="a_node1"><a xlink:href="bgckSSMIS_mod.html" xlink:title="bgckSSMIS_mod">
<polygon fill="none" stroke="black" points="314,-521 200,-521 200,-485 314,-485 314,-521"/>
<text text-anchor="middle" x="257" y="-499.3" font-family="Times,serif" font-size="14.00">bgckSSMIS_mod</text>
</a>
</g>
</g>
<!-- mathphysconstants_mod -->
<g id="node2" class="node">
<title>mathphysconstants_mod</title>
<g id="a_node2"><a xlink:href="mathphysconstants_mod.html" xlink:title="mathphysconstants_mod">
<polygon fill="gray" stroke="black" points="152,-449 0,-449 0,-413 152,-413 152,-449"/>
<text text-anchor="middle" x="76" y="-427.3" font-family="Times,serif" font-size="14.00">mathphysconstants_mod</text>
</a>
</g>
</g>
<!-- bgckSSMIS_mod&#45;&gt;mathphysconstants_mod -->
<g id="edge1" class="edge">
<title>bgckSSMIS_mod&#45;&gt;mathphysconstants_mod</title>
<path fill="none" stroke="black" d="M212.72,-484.88C187.65,-475.18 156.1,-462.98 129.63,-452.74"/>
<polygon fill="black" stroke="black" points="130.72,-449.41 120.13,-449.07 128.2,-455.94 130.72,-449.41"/>
</g>
<!-- midasmpi_mod -->
<g id="node3" class="node">
<title>midasmpi_mod</title>
<g id="a_node3"><a xlink:href="../modules/midasmpi_mod.svg" xlink:title="midasmpi_mod">
<polygon fill="none" stroke="red" points="210,-377 108,-377 108,-341 210,-341 210,-377"/>
<text text-anchor="middle" x="159" y="-355.3" font-family="Times,serif" font-size="14.00">midasmpi_mod</text>
</a>
</g>
</g>
<!-- bgckSSMIS_mod&#45;&gt;midasmpi_mod -->
<g id="edge2" class="edge">
<title>bgckSSMIS_mod&#45;&gt;midasmpi_mod</title>
<path fill="none" stroke="black" d="M245.18,-484.87C228.11,-460.14 196.43,-414.24 176.61,-385.51"/>
<polygon fill="black" stroke="black" points="179.42,-383.43 170.86,-377.19 173.66,-387.41 179.42,-383.43"/>
</g>
<!-- obserrors_mod -->
<g id="node4" class="node">
<title>obserrors_mod</title>
<g id="a_node4"><a xlink:href="../modules/obserrors_mod.svg" xlink:title="obserrors_mod">
<polygon fill="none" stroke="red" points="247.5,-305 148.5,-305 148.5,-269 247.5,-269 247.5,-305"/>
<text text-anchor="middle" x="198" y="-283.3" font-family="Times,serif" font-size="14.00">obserrors_mod</text>
</a>
</g>
</g>
<!-- bgckSSMIS_mod&#45;&gt;obserrors_mod -->
<g id="edge3" class="edge">
<title>bgckSSMIS_mod&#45;&gt;obserrors_mod</title>
<path fill="none" stroke="black" d="M253.81,-484.86C248.09,-455.19 235.19,-392.51 219,-341 216.27,-332.31 212.79,-323.03 209.45,-314.69"/>
<polygon fill="black" stroke="black" points="212.69,-313.36 205.65,-305.44 206.21,-316.02 212.69,-313.36"/>
</g>
<!-- obsspacedata_mod -->
<g id="node5" class="node">
<title>obsspacedata_mod</title>
<g id="a_node5"><a xlink:href="../modules/obsspacedata_mod.svg" xlink:title="obsspacedata_mod">
<polygon fill="none" stroke="red" points="310.5,-233 191.5,-233 191.5,-197 310.5,-197 310.5,-233"/>
<text text-anchor="middle" x="251" y="-211.3" font-family="Times,serif" font-size="14.00">obsspacedata_mod</text>
</a>
</g>
</g>
<!-- bgckSSMIS_mod&#45;&gt;obsspacedata_mod -->
<g id="edge4" class="edge">
<title>bgckSSMIS_mod&#45;&gt;obsspacedata_mod</title>
<path fill="none" stroke="black" d="M257.47,-484.74C258.41,-446.08 260.07,-349.6 256,-269 255.58,-260.66 254.83,-251.6 254.04,-243.37"/>
<polygon fill="black" stroke="black" points="257.5,-242.75 253,-233.16 250.53,-243.46 257.5,-242.75"/>
</g>
<!-- tovsnl_mod -->
<g id="node6" class="node">
<title>tovsnl_mod</title>
<g id="a_node6"><a xlink:href="../modules/tovsnl_mod.svg" xlink:title="tovsnl_mod">
<polygon fill="none" stroke="red" points="379.5,-161 298.5,-161 298.5,-125 379.5,-125 379.5,-161"/>
<text text-anchor="middle" x="339" y="-139.3" font-family="Times,serif" font-size="14.00">tovsnl_mod</text>
</a>
</g>
</g>
<!-- bgckSSMIS_mod&#45;&gt;tovsnl_mod -->
<g id="edge5" class="edge">
<title>bgckSSMIS_mod&#45;&gt;tovsnl_mod</title>
<path fill="none" stroke="black" d="M275.2,-484.6C299.36,-459.53 339,-410.67 339,-360 339,-360 339,-360 339,-286 339,-246 339,-199.65 339,-171.08"/>
<polygon fill="black" stroke="black" points="342.5,-171.05 339,-161.05 335.5,-171.05 342.5,-171.05"/>
</g>
<!-- utilities_mod -->
<g id="node7" class="node">
<title>utilities_mod</title>
<g id="a_node7"><a xlink:href="../modules/utilities_mod.svg" xlink:title="utilities_mod">
<polygon fill="none" stroke="red" points="452.5,-89 363.5,-89 363.5,-53 452.5,-53 452.5,-89"/>
<text text-anchor="middle" x="408" y="-67.3" font-family="Times,serif" font-size="14.00">utilities_mod</text>
</a>
</g>
</g>
<!-- bgckSSMIS_mod&#45;&gt;utilities_mod -->
<g id="edge6" class="edge">
<title>bgckSSMIS_mod&#45;&gt;utilities_mod</title>
<path fill="none" stroke="black" d="M297.86,-484.82C342.58,-462.97 408,-420.64 408,-360 408,-360 408,-360 408,-214 408,-174 408,-127.65 408,-99.08"/>
<polygon fill="black" stroke="black" points="411.5,-99.05 408,-89.05 404.5,-99.05 411.5,-99.05"/>
</g>
</g>
</svg>
