<?xml version="1.0" encoding="UTF-8" standalone="no"?>
<!DOCTYPE svg PUBLIC "-//W3C//DTD SVG 1.1//EN"
 "http://www.w3.org/Graphics/SVG/1.1/DTD/svg11.dtd">
<!-- Generated by graphviz version 3.0.0 (20220315.2325)
 -->
<!-- Title: biasCorrectionConv_mod Pages: 1 -->
<svg width="433pt" height="313pt"
 viewBox="0.00 0.00 433.00 313.00" xmlns="http://www.w3.org/2000/svg" xmlns:xlink="http://www.w3.org/1999/xlink">
<g id="graph0" class="graph" transform="scale(1 1) rotate(0) translate(4 309)">
<title>biasCorrectionConv_mod</title>
<polygon fill="white" stroke="transparent" points="-4,4 -4,-309 429,-309 429,4 -4,4"/>
<text text-anchor="middle" x="212.5" y="-289.8" font-family="Times,serif" font-size="14.00">Blue boxes indicate modules with reverse dependencies not shown</text>
<text text-anchor="middle" x="212.5" y="-274.8" font-family="Times,serif" font-size="14.00">Higher level reverse dependencies can be shown by clicking on a blue box</text>
<text text-anchor="middle" x="212.5" y="-259.8" font-family="Times,serif" font-size="14.00">Green boxes are programs</text>
<!-- biasCorrectionConv_mod -->
<g id="node1" class="node">
<title>biasCorrectionConv_mod</title>
<g id="a_node1"><a xlink:href="biasCorrectionConv_mod.html" xlink:title="biasCorrectionConv_mod">
<polygon fill="none" stroke="black" points="272,-36 114,-36 114,0 272,0 272,-36"/>
<text text-anchor="middle" x="193" y="-14.3" font-family="Times,serif" font-size="14.00">biasCorrectionConv_mod</text>
</a>
</g>
</g>
<!-- obsfiles_mod -->
<g id="node2" class="node">
<title>obsfiles_mod</title>
<g id="a_node2"><a xlink:href="../modules/obsfiles_mod_rev.svg" xlink:title="obsfiles_mod">
<polygon fill="none" stroke="blue" points="164.5,-108 75.5,-108 75.5,-72 164.5,-72 164.5,-108"/>
<text text-anchor="middle" x="120" y="-86.3" font-family="Times,serif" font-size="14.00">obsfiles_mod</text>
</a>
</g>
</g>
<!-- obsfiles_mod&#45;&gt;biasCorrectionConv_mod -->
<g id="edge1" class="edge">
<title>obsfiles_mod&#45;&gt;biasCorrectionConv_mod</title>
<path fill="none" stroke="black" d="M143.84,-66.13C154.04,-56.36 165.74,-45.14 175.16,-36.1"/>
<ellipse fill="black" stroke="black" cx="140.93" cy="-68.93" rx="4" ry="4"/>
</g>
<!-- ominusf_mod -->
<g id="node3" class="node">
<title>ominusf_mod</title>
<g id="a_node3"><a xlink:href="../modules/ominusf_mod_rev.svg" xlink:title="ominusf_mod">
<polygon fill="none" stroke="blue" points="239.5,-180 146.5,-180 146.5,-144 239.5,-144 239.5,-180"/>
<text text-anchor="middle" x="193" y="-158.3" font-family="Times,serif" font-size="14.00">ominusf_mod</text>
</a>
</g>
</g>
<!-- ominusf_mod&#45;&gt;biasCorrectionConv_mod -->
<g id="edge2" class="edge">
<title>ominusf_mod&#45;&gt;biasCorrectionConv_mod</title>
<path fill="none" stroke="black" d="M193,-135.56C193,-106.86 193,-60.96 193,-36.19"/>
<ellipse fill="black" stroke="black" cx="193" cy="-139.87" rx="4" ry="4"/>
</g>
<!-- midas_midas_obsselection -->
<g id="node4" class="node">
<title>midas_midas_obsselection</title>
<g id="a_node4"><a xlink:href="../programs/midas_obsselection.html" xlink:title="midas_midas_obsselection">
<polygon fill="gray" stroke="green" points="349.5,-252 186.5,-252 186.5,-216 349.5,-216 349.5,-252"/>
<text text-anchor="middle" x="268" y="-230.3" font-family="Times,serif" font-size="14.00">midas_midas_obsselection</text>
</a>
</g>
</g>
<!-- midas_midas_obsselection&#45;&gt;biasCorrectionConv_mod -->
<g id="edge3" class="edge">
<title>midas_midas_obsselection&#45;&gt;biasCorrectionConv_mod</title>
<path fill="none" stroke="black" d="M263.61,-207.41C260.2,-189.43 254.89,-164.94 248,-144 234.96,-104.36 213.86,-60.14 201.94,-36.38"/>
<ellipse fill="black" stroke="black" cx="264.41" cy="-211.74" rx="4" ry="4"/>
</g>
</g>
</svg>
