<?xml version="1.0" encoding="UTF-8" standalone="no"?>
<!DOCTYPE svg PUBLIC "-//W3C//DTD SVG 1.1//EN"
 "http://www.w3.org/Graphics/SVG/1.1/DTD/svg11.dtd">
<!-- Generated by graphviz version 3.0.0 (20220315.2325)
 -->
<!-- Title: biasCorrectionSat_mod Pages: 1 -->
<svg width="1198pt" height="673pt"
 viewBox="0.00 0.00 1198.00 673.00" xmlns="http://www.w3.org/2000/svg" xmlns:xlink="http://www.w3.org/1999/xlink">
<g id="graph0" class="graph" transform="scale(1 1) rotate(0) translate(4 669)">
<title>biasCorrectionSat_mod</title>
<polygon fill="white" stroke="transparent" points="-4,4 -4,-669 1194,-669 1194,4 -4,4"/>
<text text-anchor="middle" x="595" y="-37.8" font-family="Times,serif" font-size="14.00">Red boxes indicate modules with dependencies not shown</text>
<text text-anchor="middle" x="595" y="-22.8" font-family="Times,serif" font-size="14.00">Lower level dependencies can be shown by clicking on a red box</text>
<text text-anchor="middle" x="595" y="-7.8" font-family="Times,serif" font-size="14.00">Shaded boxes indicate modules with no dependencies</text>
<!-- biasCorrectionSat_mod -->
<g id="node1" class="node">
<title>biasCorrectionSat_mod</title>
<g id="a_node1"><a xlink:href="biasCorrectionSat_mod.html" xlink:title="biasCorrectionSat_mod">
<polygon fill="none" stroke="black" points="708,-665 562,-665 562,-629 708,-629 708,-665"/>
<text text-anchor="middle" x="635" y="-643.3" font-family="Times,serif" font-size="14.00">biasCorrectionSat_mod</text>
</a>
</g>
</g>
<!-- clibinterfaces_mod -->
<g id="node2" class="node">
<title>clibinterfaces_mod</title>
<g id="a_node2"><a xlink:href="clibinterfaces_mod.html" xlink:title="clibinterfaces_mod">
<polygon fill="gray" stroke="black" points="122,-593 0,-593 0,-557 122,-557 122,-593"/>
<text text-anchor="middle" x="61" y="-571.3" font-family="Times,serif" font-size="14.00">clibinterfaces_mod</text>
</a>
</g>
</g>
<!-- biasCorrectionSat_mod&#45;&gt;clibinterfaces_mod -->
<g id="edge1" class="edge">
<title>biasCorrectionSat_mod&#45;&gt;clibinterfaces_mod</title>
<path fill="none" stroke="black" d="M561.92,-640.93C464.36,-633.55 286.4,-617.95 136,-593 134.74,-592.79 133.47,-592.57 132.19,-592.35"/>
<polygon fill="black" stroke="black" points="132.75,-588.89 122.28,-590.5 131.47,-595.78 132.75,-588.89"/>
</g>
<!-- codeprecision_mod -->
<g id="node3" class="node">
<title>codeprecision_mod</title>
<g id="a_node3"><a xlink:href="codeprecision_mod.html" xlink:title="codeprecision_mod">
<polygon fill="gray" stroke="black" points="185.5,-521 62.5,-521 62.5,-485 185.5,-485 185.5,-521"/>
<text text-anchor="middle" x="124" y="-499.3" font-family="Times,serif" font-size="14.00">codeprecision_mod</text>
</a>
</g>
</g>
<!-- biasCorrectionSat_mod&#45;&gt;codeprecision_mod -->
<g id="edge2" class="edge">
<title>biasCorrectionSat_mod&#45;&gt;codeprecision_mod</title>
<path fill="none" stroke="black" d="M561.82,-643.46C454.6,-638.68 260.92,-625.7 200,-593 173.18,-578.6 151.72,-550.57 138.53,-529.8"/>
<polygon fill="black" stroke="black" points="141.43,-527.83 133.23,-521.12 135.46,-531.48 141.43,-527.83"/>
</g>
<!-- codtyp_mod -->
<g id="node4" class="node">
<title>codtyp_mod</title>
<g id="a_node4"><a xlink:href="../modules/codtyp_mod.svg" xlink:title="codtyp_mod">
<polygon fill="none" stroke="red" points="223.5,-449 138.5,-449 138.5,-413 223.5,-413 223.5,-449"/>
<text text-anchor="middle" x="181" y="-427.3" font-family="Times,serif" font-size="14.00">codtyp_mod</text>
</a>
</g>
</g>
<!-- biasCorrectionSat_mod&#45;&gt;codtyp_mod -->
<g id="edge3" class="edge">
<title>biasCorrectionSat_mod&#45;&gt;codtyp_mod</title>
<path fill="none" stroke="black" d="M561.97,-645.14C461.17,-642.5 286.33,-632.21 238,-593 227.23,-584.27 201.78,-502.38 188.84,-458.87"/>
<polygon fill="black" stroke="black" points="192.18,-457.81 185.99,-449.21 185.46,-459.79 192.18,-457.81"/>
</g>
<!-- columndata_mod -->
<g id="node5" class="node">
<title>columndata_mod</title>
<g id="a_node5"><a xlink:href="../modules/columndata_mod.svg" xlink:title="columndata_mod">
<polygon fill="none" stroke="red" points="262,-377 150,-377 150,-341 262,-341 262,-377"/>
<text text-anchor="middle" x="206" y="-355.3" font-family="Times,serif" font-size="14.00">columndata_mod</text>
</a>
</g>
</g>
<!-- biasCorrectionSat_mod&#45;&gt;columndata_mod -->
<g id="edge4" class="edge">
<title>biasCorrectionSat_mod&#45;&gt;columndata_mod</title>
<path fill="none" stroke="black" d="M561.76,-644.57C469.11,-641.23 316.7,-630.07 276,-593 215.12,-537.54 260.08,-490.42 232,-413 228.75,-404.04 224.43,-394.59 220.25,-386.2"/>
<polygon fill="black" stroke="black" points="223.33,-384.54 215.65,-377.25 217.11,-387.74 223.33,-384.54"/>
</g>
<!-- controlvector_mod -->
<g id="node6" class="node">
<title>controlvector_mod</title>
<g id="a_node6"><a xlink:href="../modules/controlvector_mod.svg" xlink:title="controlvector_mod">
<polygon fill="none" stroke="red" points="300,-305 180,-305 180,-269 300,-269 300,-305"/>
<text text-anchor="middle" x="240" y="-283.3" font-family="Times,serif" font-size="14.00">controlvector_mod</text>
</a>
</g>
</g>
<!-- biasCorrectionSat_mod&#45;&gt;controlvector_mod -->
<g id="edge5" class="edge">
<title>biasCorrectionSat_mod&#45;&gt;controlvector_mod</title>
<path fill="none" stroke="black" d="M561.98,-642.94C478.71,-637.94 349.49,-625.12 314,-593 283.62,-565.51 290,-544.97 290,-504 290,-504 290,-504 290,-430 290,-389.55 285.62,-378.71 271,-341 267.44,-331.8 262.4,-322.33 257.42,-313.98"/>
<polygon fill="black" stroke="black" points="260.36,-312.08 252.11,-305.43 254.41,-315.77 260.36,-312.08"/>
</g>
<!-- gridstatevectorfileio_mod -->
<g id="node7" class="node">
<title>gridstatevectorfileio_mod</title>
<g id="a_node7"><a xlink:href="../modules/gridstatevectorfileio_mod.svg" xlink:title="gridstatevectorfileio_mod">
<polygon fill="none" stroke="red" points="338,-233 180,-233 180,-197 338,-197 338,-233"/>
<text text-anchor="middle" x="259" y="-211.3" font-family="Times,serif" font-size="14.00">gridstatevectorfileio_mod</text>
</a>
</g>
</g>
<!-- biasCorrectionSat_mod&#45;&gt;gridstatevectorfileio_mod -->
<g id="edge6" class="edge">
<title>biasCorrectionSat_mod&#45;&gt;gridstatevectorfileio_mod</title>
<path fill="none" stroke="black" d="M561.93,-641.05C488.46,-634.58 381.91,-620.66 352,-593 321.92,-565.19 328,-544.97 328,-504 328,-504 328,-504 328,-358 328,-317.55 327.8,-304.81 309,-269 303.51,-258.54 295.37,-248.65 287.24,-240.32"/>
<polygon fill="black" stroke="black" points="289.47,-237.6 279.86,-233.13 284.58,-242.61 289.47,-237.6"/>
</g>
<!-- gridstatevector_mod -->
<g id="node8" class="node">
<title>gridstatevector_mod</title>
<g id="a_node8"><a xlink:href="../modules/gridstatevector_mod.svg" xlink:title="gridstatevector_mod">
<polygon fill="none" stroke="red" points="376,-161 246,-161 246,-125 376,-125 376,-161"/>
<text text-anchor="middle" x="311" y="-139.3" font-family="Times,serif" font-size="14.00">gridstatevector_mod</text>
</a>
</g>
</g>
<!-- biasCorrectionSat_mod&#45;&gt;gridstatevector_mod -->
<g id="edge7" class="edge">
<title>biasCorrectionSat_mod&#45;&gt;gridstatevector_mod</title>
<path fill="none" stroke="black" d="M561.79,-638.57C498.83,-630.72 414.4,-616.2 390,-593 360.31,-564.77 366,-544.97 366,-504 366,-504 366,-504 366,-286 366,-245.55 362.88,-234.2 347,-197 342.92,-187.43 337.01,-177.78 331.16,-169.39"/>
<polygon fill="black" stroke="black" points="333.88,-167.17 325.16,-161.15 328.22,-171.29 333.88,-167.17"/>
</g>
<!-- horizontalcoord_mod -->
<g id="node9" class="node">
<title>horizontalcoord_mod</title>
<g id="a_node9"><a xlink:href="../modules/horizontalcoord_mod.svg" xlink:title="horizontalcoord_mod">
<polygon fill="none" stroke="red" points="471,-89 337,-89 337,-53 471,-53 471,-89"/>
<text text-anchor="middle" x="404" y="-67.3" font-family="Times,serif" font-size="14.00">horizontalcoord_mod</text>
</a>
</g>
</g>
<!-- biasCorrectionSat_mod&#45;&gt;horizontalcoord_mod -->
<g id="edge8" class="edge">
<title>biasCorrectionSat_mod&#45;&gt;horizontalcoord_mod</title>
<path fill="none" stroke="black" d="M561.87,-636.09C508.49,-627.36 442.24,-612.92 423,-593 394.9,-563.91 404,-544.45 404,-504 404,-504 404,-504 404,-214 404,-174 404,-127.65 404,-99.08"/>
<polygon fill="black" stroke="black" points="407.5,-99.05 404,-89.05 400.5,-99.05 407.5,-99.05"/>
</g>
<!-- localizationfunction_mod -->
<g id="node10" class="node">
<title>localizationfunction_mod</title>
<g id="a_node10"><a xlink:href="../modules/localizationfunction_mod.svg" xlink:title="localizationfunction_mod">
<polygon fill="none" stroke="red" points="588,-593 432,-593 432,-557 588,-557 588,-593"/>
<text text-anchor="middle" x="510" y="-571.3" font-family="Times,serif" font-size="14.00">localizationfunction_mod</text>
</a>
</g>
</g>
<!-- biasCorrectionSat_mod&#45;&gt;localizationfunction_mod -->
<g id="edge9" class="edge">
<title>biasCorrectionSat_mod&#45;&gt;localizationfunction_mod</title>
<path fill="none" stroke="black" d="M604.42,-628.88C587.93,-619.64 567.38,-608.13 549.66,-598.21"/>
<polygon fill="black" stroke="black" points="551.13,-595.02 540.7,-593.19 547.71,-601.13 551.13,-595.02"/>
</g>
<!-- mathphysconstants_mod -->
<g id="node11" class="node">
<title>mathphysconstants_mod</title>
<g id="a_node11"><a xlink:href="mathphysconstants_mod.html" xlink:title="mathphysconstants_mod">
<polygon fill="gray" stroke="black" points="626,-521 474,-521 474,-485 626,-485 626,-521"/>
<text text-anchor="middle" x="550" y="-499.3" font-family="Times,serif" font-size="14.00">mathphysconstants_mod</text>
</a>
</g>
</g>
<!-- biasCorrectionSat_mod&#45;&gt;mathphysconstants_mod -->
<g id="edge10" class="edge">
<title>biasCorrectionSat_mod&#45;&gt;mathphysconstants_mod</title>
<path fill="none" stroke="black" d="M629.52,-628.8C623.19,-610.26 611.74,-580.28 597,-557 590.75,-547.14 582.68,-537.3 574.99,-528.83"/>
<polygon fill="black" stroke="black" points="577.48,-526.37 568.09,-521.47 572.37,-531.16 577.48,-526.37"/>
</g>
<!-- midasmpi_mod -->
<g id="node12" class="node">
<title>midasmpi_mod</title>
<g id="a_node12"><a xlink:href="../modules/midasmpi_mod.svg" xlink:title="midasmpi_mod">
<polygon fill="none" stroke="red" points="664,-449 562,-449 562,-413 664,-413 664,-449"/>
<text text-anchor="middle" x="613" y="-427.3" font-family="Times,serif" font-size="14.00">midasmpi_mod</text>
</a>
</g>
</g>
<!-- biasCorrectionSat_mod&#45;&gt;midasmpi_mod -->
<g id="edge11" class="edge">
<title>biasCorrectionSat_mod&#45;&gt;midasmpi_mod</title>
<path fill="none" stroke="black" d="M637.17,-628.86C640.46,-599.21 645.27,-536.54 635,-485 633.21,-476.01 629.86,-466.64 626.31,-458.32"/>
<polygon fill="black" stroke="black" points="629.46,-456.77 622.13,-449.12 623.08,-459.67 629.46,-456.77"/>
</g>
<!-- obserrors_mod -->
<g id="node13" class="node">
<title>obserrors_mod</title>
<g id="a_node13"><a xlink:href="../modules/obserrors_mod.svg" xlink:title="obserrors_mod">
<polygon fill="none" stroke="red" points="701.5,-377 602.5,-377 602.5,-341 701.5,-341 701.5,-377"/>
<text text-anchor="middle" x="652" y="-355.3" font-family="Times,serif" font-size="14.00">obserrors_mod</text>
</a>
</g>
</g>
<!-- biasCorrectionSat_mod&#45;&gt;obserrors_mod -->
<g id="edge12" class="edge">
<title>biasCorrectionSat_mod&#45;&gt;obserrors_mod</title>
<path fill="none" stroke="black" d="M642.73,-628.66C646.98,-618.47 651.98,-605.22 655,-593 674.31,-514.96 688.08,-491.97 673,-413 671.29,-404.06 668.1,-394.7 664.71,-386.37"/>
<polygon fill="black" stroke="black" points="667.91,-384.95 660.72,-377.17 661.49,-387.73 667.91,-384.95"/>
</g>
<!-- obsfiles_mod -->
<g id="node14" class="node">
<title>obsfiles_mod</title>
<g id="a_node14"><a xlink:href="../modules/obsfiles_mod.svg" xlink:title="obsfiles_mod">
<polygon fill="none" stroke="red" points="739.5,-305 650.5,-305 650.5,-269 739.5,-269 739.5,-305"/>
<text text-anchor="middle" x="695" y="-283.3" font-family="Times,serif" font-size="14.00">obsfiles_mod</text>
</a>
</g>
</g>
<!-- biasCorrectionSat_mod&#45;&gt;obsfiles_mod -->
<g id="edge13" class="edge">
<title>biasCorrectionSat_mod&#45;&gt;obsfiles_mod</title>
<path fill="none" stroke="black" d="M656.56,-628.78C684.59,-604.28 730,-556.5 730,-504 730,-504 730,-504 730,-430 730,-388.84 715.97,-342.88 705.67,-314.69"/>
<polygon fill="black" stroke="black" points="708.88,-313.28 702.08,-305.15 702.33,-315.74 708.88,-313.28"/>
</g>
<!-- obsspacedata_mod -->
<g id="node15" class="node">
<title>obsspacedata_mod</title>
<g id="a_node15"><a xlink:href="../modules/obsspacedata_mod.svg" xlink:title="obsspacedata_mod">
<polygon fill="none" stroke="red" points="777.5,-233 658.5,-233 658.5,-197 777.5,-197 777.5,-233"/>
<text text-anchor="middle" x="718" y="-211.3" font-family="Times,serif" font-size="14.00">obsspacedata_mod</text>
</a>
</g>
</g>
<!-- biasCorrectionSat_mod&#45;&gt;obsspacedata_mod -->
<g id="edge14" class="edge">
<title>biasCorrectionSat_mod&#45;&gt;obsspacedata_mod</title>
<path fill="none" stroke="black" d="M668.56,-628.93C707.96,-606.23 768,-562.1 768,-504 768,-504 768,-504 768,-358 768,-317.46 762.59,-306.83 748,-269 744.42,-259.73 739.43,-250.12 734.54,-241.67"/>
<polygon fill="black" stroke="black" points="737.5,-239.8 729.35,-233.03 731.5,-243.4 737.5,-239.8"/>
</g>
<!-- ramdisk_mod -->
<g id="node16" class="node">
<title>ramdisk_mod</title>
<g id="a_node16"><a xlink:href="../modules/ramdisk_mod.svg" xlink:title="ramdisk_mod">
<polygon fill="none" stroke="red" points="816,-161 724,-161 724,-125 816,-125 816,-161"/>
<text text-anchor="middle" x="770" y="-139.3" font-family="Times,serif" font-size="14.00">ramdisk_mod</text>
</a>
</g>
</g>
<!-- biasCorrectionSat_mod&#45;&gt;ramdisk_mod -->
<g id="edge15" class="edge">
<title>biasCorrectionSat_mod&#45;&gt;ramdisk_mod</title>
<path fill="none" stroke="black" d="M684.92,-628.87C735.39,-608.01 806,-567.48 806,-504 806,-504 806,-504 806,-286 806,-244.78 791.57,-198.83 780.98,-170.66"/>
<polygon fill="black" stroke="black" points="784.16,-169.19 777.29,-161.13 777.64,-171.72 784.16,-169.19"/>
</g>
<!-- statetocolumn_mod -->
<g id="node17" class="node">
<title>statetocolumn_mod</title>
<g id="a_node17"><a xlink:href="../modules/statetocolumn_mod.svg" xlink:title="statetocolumn_mod">
<polygon fill="none" stroke="red" points="906.5,-89 781.5,-89 781.5,-53 906.5,-53 906.5,-89"/>
<text text-anchor="middle" x="844" y="-67.3" font-family="Times,serif" font-size="14.00">statetocolumn_mod</text>
</a>
</g>
</g>
<!-- biasCorrectionSat_mod&#45;&gt;statetocolumn_mod -->
<g id="edge16" class="edge">
<title>biasCorrectionSat_mod&#45;&gt;statetocolumn_mod</title>
<path fill="none" stroke="black" d="M706.63,-628.98C767.13,-609.83 844,-572.1 844,-504 844,-504 844,-504 844,-214 844,-174 844,-127.65 844,-99.08"/>
<polygon fill="black" stroke="black" points="847.5,-99.05 844,-89.05 840.5,-99.05 847.5,-99.05"/>
</g>
<!-- timecoord_mod -->
<g id="node18" class="node">
<title>timecoord_mod</title>
<g id="a_node18"><a xlink:href="../modules/timecoord_mod.svg" xlink:title="timecoord_mod">
<polygon fill="none" stroke="red" points="976,-593 872,-593 872,-557 976,-557 976,-593"/>
<text text-anchor="middle" x="924" y="-571.3" font-family="Times,serif" font-size="14.00">timecoord_mod</text>
</a>
</g>
</g>
<!-- biasCorrectionSat_mod&#45;&gt;timecoord_mod -->
<g id="edge17" class="edge">
<title>biasCorrectionSat_mod&#45;&gt;timecoord_mod</title>
<path fill="none" stroke="black" d="M708.15,-628.98C751.72,-618.75 808.07,-605.36 858,-593 859.26,-592.69 860.53,-592.37 861.82,-592.05"/>
<polygon fill="black" stroke="black" points="862.94,-595.38 871.78,-589.55 861.23,-588.59 862.94,-595.38"/>
</g>
<!-- tovsnl_mod -->
<g id="node19" class="node">
<title>tovsnl_mod</title>
<g id="a_node19"><a xlink:href="../modules/tovsnl_mod.svg" xlink:title="tovsnl_mod">
<polygon fill="none" stroke="red" points="1028.5,-521 947.5,-521 947.5,-485 1028.5,-485 1028.5,-521"/>
<text text-anchor="middle" x="988" y="-499.3" font-family="Times,serif" font-size="14.00">tovsnl_mod</text>
</a>
</g>
</g>
<!-- biasCorrectionSat_mod&#45;&gt;tovsnl_mod -->
<g id="edge18" class="edge">
<title>biasCorrectionSat_mod&#45;&gt;tovsnl_mod</title>
<path fill="none" stroke="black" d="M708.39,-645.48C800.11,-643.1 949.41,-633 985,-593 999.72,-576.45 998.91,-550.56 995.33,-530.95"/>
<polygon fill="black" stroke="black" points="998.74,-530.13 993.21,-521.09 991.89,-531.6 998.74,-530.13"/>
</g>
<!-- utilities_mod -->
<g id="node20" class="node">
<title>utilities_mod</title>
<g id="a_node20"><a xlink:href="../modules/utilities_mod.svg" xlink:title="utilities_mod">
<polygon fill="none" stroke="red" points="1101.5,-449 1012.5,-449 1012.5,-413 1101.5,-413 1101.5,-449"/>
<text text-anchor="middle" x="1057" y="-427.3" font-family="Times,serif" font-size="14.00">utilities_mod</text>
</a>
</g>
</g>
<!-- biasCorrectionSat_mod&#45;&gt;utilities_mod -->
<g id="edge19" class="edge">
<title>biasCorrectionSat_mod&#45;&gt;utilities_mod</title>
<path fill="none" stroke="black" d="M708.13,-643.88C802.67,-639.76 960.59,-627.74 1006,-593 1047.33,-561.38 1055.87,-496.22 1057.21,-459.22"/>
<polygon fill="black" stroke="black" points="1060.71,-459.22 1057.43,-449.15 1053.72,-459.07 1060.71,-459.22"/>
</g>
<!-- verticalcoord_mod -->
<g id="node21" class="node">
<title>verticalcoord_mod</title>
<g id="a_node21"><a xlink:href="../modules/verticalcoord_mod.svg" xlink:title="verticalcoord_mod">
<polygon fill="none" stroke="red" points="1190,-377 1070,-377 1070,-341 1190,-341 1190,-377"/>
<text text-anchor="middle" x="1130" y="-355.3" font-family="Times,serif" font-size="14.00">verticalcoord_mod</text>
</a>
</g>
</g>
<!-- biasCorrectionSat_mod&#45;&gt;verticalcoord_mod -->
<g id="edge20" class="edge">
<title>biasCorrectionSat_mod&#45;&gt;verticalcoord_mod</title>
<path fill="none" stroke="black" d="M708.28,-644.25C809.04,-640.52 983.73,-628.93 1035,-593 1103.66,-544.89 1122.77,-437.96 1128.03,-387.45"/>
<polygon fill="black" stroke="black" points="1131.53,-387.57 1128.98,-377.28 1124.56,-386.91 1131.53,-387.57"/>
</g>
</g>
</svg>
