<?xml version="1.0" encoding="UTF-8" standalone="no"?>
<!DOCTYPE svg PUBLIC "-//W3C//DTD SVG 1.1//EN"
 "http://www.w3.org/Graphics/SVG/1.1/DTD/svg11.dtd">
<!-- Generated by graphviz version 3.0.0 (20220315.2325)
 -->
<!-- Title: biasCorrectionSat_mod Pages: 1 -->
<svg width="499pt" height="601pt"
 viewBox="0.00 0.00 498.50 601.00" xmlns="http://www.w3.org/2000/svg" xmlns:xlink="http://www.w3.org/1999/xlink">
<g id="graph0" class="graph" transform="scale(1 1) rotate(0) translate(4 597)">
<title>biasCorrectionSat_mod</title>
<polygon fill="white" stroke="transparent" points="-4,4 -4,-597 494.5,-597 494.5,4 -4,4"/>
<text text-anchor="middle" x="245.25" y="-577.8" font-family="Times,serif" font-size="14.00">Blue boxes indicate modules with reverse dependencies not shown</text>
<text text-anchor="middle" x="245.25" y="-562.8" font-family="Times,serif" font-size="14.00">Higher level reverse dependencies can be shown by clicking on a blue box</text>
<text text-anchor="middle" x="245.25" y="-547.8" font-family="Times,serif" font-size="14.00">Green boxes are programs</text>
<!-- biasCorrectionSat_mod -->
<g id="node1" class="node">
<title>biasCorrectionSat_mod</title>
<g id="a_node1"><a xlink:href="biasCorrectionSat_mod.html" xlink:title="biasCorrectionSat_mod">
<polygon fill="none" stroke="black" points="308,-36 162,-36 162,0 308,0 308,-36"/>
<text text-anchor="middle" x="235" y="-14.3" font-family="Times,serif" font-size="14.00">biasCorrectionSat_mod</text>
</a>
</g>
</g>
<!-- innovation_mod -->
<g id="node2" class="node">
<title>innovation_mod</title>
<g id="a_node2"><a xlink:href="../modules/innovation_mod_rev.svg" xlink:title="innovation_mod">
<polygon fill="none" stroke="blue" points="106,-108 0,-108 0,-72 106,-72 106,-108"/>
<text text-anchor="middle" x="53" y="-86.3" font-family="Times,serif" font-size="14.00">innovation_mod</text>
</a>
</g>
</g>
<!-- innovation_mod&#45;&gt;biasCorrectionSat_mod -->
<g id="edge1" class="edge">
<title>innovation_mod&#45;&gt;biasCorrectionSat_mod</title>
<path fill="none" stroke="black" d="M104.99,-69C132.05,-58.6 164.77,-46.01 190.62,-36.07"/>
<ellipse fill="black" stroke="black" cx="101.26" cy="-70.44" rx="4" ry="4"/>
</g>
<!-- minimization_mod -->
<g id="node3" class="node">
<title>minimization_mod</title>
<g id="a_node3"><a xlink:href="../modules/minimization_mod_rev.svg" xlink:title="minimization_mod">
<polygon fill="none" stroke="blue" points="169,-180 47,-180 47,-144 169,-144 169,-180"/>
<text text-anchor="middle" x="108" y="-158.3" font-family="Times,serif" font-size="14.00">minimization_mod</text>
</a>
</g>
</g>
<!-- minimization_mod&#45;&gt;biasCorrectionSat_mod -->
<g id="edge2" class="edge">
<title>minimization_mod&#45;&gt;biasCorrectionSat_mod</title>
<path fill="none" stroke="black" d="M126.9,-137.6C141.79,-119.41 163.26,-93.7 183,-72 194.1,-59.79 207.1,-46.54 217.33,-36.35"/>
<ellipse fill="black" stroke="black" cx="124.26" cy="-140.84" rx="4" ry="4"/>
</g>
<!-- midas_midas_gencoeff -->
<g id="node4" class="node">
<title>midas_midas_gencoeff</title>
<g id="a_node4"><a xlink:href="../programs/midas_gencoeff.html" xlink:title="midas_midas_gencoeff">
<polygon fill="gray" stroke="green" points="206.5,-252 63.5,-252 63.5,-216 206.5,-216 206.5,-252"/>
<text text-anchor="middle" x="135" y="-230.3" font-family="Times,serif" font-size="14.00">midas_midas_gencoeff</text>
</a>
</g>
</g>
<!-- midas_midas_gencoeff&#45;&gt;biasCorrectionSat_mod -->
<g id="edge3" class="edge">
<title>midas_midas_gencoeff&#45;&gt;biasCorrectionSat_mod</title>
<path fill="none" stroke="black" d="M156.68,-209.82C164.16,-200.97 172.13,-190.48 178,-180 192.35,-154.39 218.6,-72.09 229.76,-36.1"/>
<ellipse fill="black" stroke="black" cx="153.98" cy="-212.93" rx="4" ry="4"/>
</g>
<!-- midas_midas_obsselection -->
<g id="node5" class="node">
<title>midas_midas_obsselection</title>
<g id="a_node5"><a xlink:href="../programs/midas_obsselection.html" xlink:title="midas_midas_obsselection">
<polygon fill="gray" stroke="green" points="244.5,-324 81.5,-324 81.5,-288 244.5,-288 244.5,-324"/>
<text text-anchor="middle" x="163" y="-302.3" font-family="Times,serif" font-size="14.00">midas_midas_obsselection</text>
</a>
</g>
</g>
<!-- midas_midas_obsselection&#45;&gt;biasCorrectionSat_mod -->
<g id="edge4" class="edge">
<title>midas_midas_obsselection&#45;&gt;biasCorrectionSat_mod</title>
<path fill="none" stroke="black" d="M192.08,-282.34C200.96,-273.83 209.75,-263.42 215,-252 249.16,-177.66 241.94,-76 237.31,-36.08"/>
<ellipse fill="black" stroke="black" cx="188.92" cy="-285.22" rx="4" ry="4"/>
</g>
<!-- midas_midas_ominusf -->
<g id="node6" class="node">
<title>midas_midas_ominusf</title>
<g id="a_node6"><a xlink:href="../programs/midas_ominusf.html" xlink:title="midas_midas_ominusf">
<polygon fill="gray" stroke="green" points="313.5,-396 172.5,-396 172.5,-360 313.5,-360 313.5,-396"/>
<text text-anchor="middle" x="243" y="-374.3" font-family="Times,serif" font-size="14.00">midas_midas_ominusf</text>
</a>
</g>
</g>
<!-- midas_midas_ominusf&#45;&gt;biasCorrectionSat_mod -->
<g id="edge5" class="edge">
<title>midas_midas_ominusf&#45;&gt;biasCorrectionSat_mod</title>
<path fill="none" stroke="black" d="M251.57,-352.02C260.44,-323.92 273,-276.74 273,-235 273,-235 273,-235 273,-161 273,-114.55 253.79,-62.38 242.69,-36.09"/>
<ellipse fill="black" stroke="black" cx="250.3" cy="-355.95" rx="4" ry="4"/>
</g>
<!-- midas_midas_var1d -->
<g id="node7" class="node">
<title>midas_midas_var1d</title>
<g id="a_node7"><a xlink:href="../programs/midas_var1d.html" xlink:title="midas_midas_var1d">
<polygon fill="gray" stroke="green" points="405.5,-468 278.5,-468 278.5,-432 405.5,-432 405.5,-468"/>
<text text-anchor="middle" x="342" y="-446.3" font-family="Times,serif" font-size="14.00">midas_midas_var1d</text>
</a>
</g>
</g>
<!-- midas_midas_var1d&#45;&gt;biasCorrectionSat_mod -->
<g id="edge6" class="edge">
<title>midas_midas_var1d&#45;&gt;biasCorrectionSat_mod</title>
<path fill="none" stroke="black" d="M342,-423.78C342,-395.39 342,-347.89 342,-307 342,-307 342,-307 342,-161 342,-106.67 291.43,-59.93 259.82,-36.02"/>
<ellipse fill="black" stroke="black" cx="342" cy="-427.95" rx="4" ry="4"/>
</g>
<!-- midas_midas_var -->
<g id="node8" class="node">
<title>midas_midas_var</title>
<g id="a_node8"><a xlink:href="../programs/midas_var.html" xlink:title="midas_midas_var">
<polygon fill="gray" stroke="green" points="490.5,-540 377.5,-540 377.5,-504 490.5,-504 490.5,-540"/>
<text text-anchor="middle" x="434" y="-518.3" font-family="Times,serif" font-size="14.00">midas_midas_var</text>
</a>
</g>
</g>
<!-- midas_midas_var&#45;&gt;biasCorrectionSat_mod -->
<g id="edge7" class="edge">
<title>midas_midas_var&#45;&gt;biasCorrectionSat_mod</title>
<path fill="none" stroke="black" d="M434,-495.78C434,-467.39 434,-419.89 434,-379 434,-379 434,-379 434,-161 434,-93.94 358.2,-55.57 300.16,-36.01"/>
<ellipse fill="black" stroke="black" cx="434" cy="-499.95" rx="4" ry="4"/>
</g>
</g>
</svg>
