<?xml version="1.0" encoding="UTF-8" standalone="no"?>
<!DOCTYPE svg PUBLIC "-//W3C//DTD SVG 1.1//EN"
 "http://www.w3.org/Graphics/SVG/1.1/DTD/svg11.dtd">
<!-- Generated by graphviz version 3.0.0 (20220315.2325)
 -->
<!-- Title: biasCorrectionConv_mod Pages: 1 -->
<svg width="425pt" height="601pt"
 viewBox="0.00 0.00 425.00 601.00" xmlns="http://www.w3.org/2000/svg" xmlns:xlink="http://www.w3.org/1999/xlink">
<g id="graph0" class="graph" transform="scale(1 1) rotate(0) translate(4 597)">
<title>biasCorrectionConv_mod</title>
<polygon fill="white" stroke="transparent" points="-4,4 -4,-597 421,-597 421,4 -4,4"/>
<text text-anchor="middle" x="208.5" y="-37.8" font-family="Times,serif" font-size="14.00">Red boxes indicate modules with dependencies not shown</text>
<text text-anchor="middle" x="208.5" y="-22.8" font-family="Times,serif" font-size="14.00">Lower level dependencies can be shown by clicking on a red box</text>
<text text-anchor="middle" x="208.5" y="-7.8" font-family="Times,serif" font-size="14.00">Shaded boxes indicate modules with no dependencies</text>
<!-- biasCorrectionConv_mod -->
<g id="node1" class="node">
<title>biasCorrectionConv_mod</title>
<g id="a_node1"><a xlink:href="biasCorrectionConv_mod.html" xlink:title="biasCorrectionConv_mod">
<polygon fill="none" stroke="black" points="270.5,-593 112.5,-593 112.5,-557 270.5,-557 270.5,-593"/>
<text text-anchor="middle" x="191.5" y="-571.3" font-family="Times,serif" font-size="14.00">biasCorrectionConv_mod</text>
</a>
</g>
</g>
<!-- bufr_mod -->
<g id="node2" class="node">
<title>bufr_mod</title>
<g id="a_node2"><a xlink:href="bufr_mod.html" xlink:title="bufr_mod">
<polygon fill="gray" stroke="black" points="71,-521 0,-521 0,-485 71,-485 71,-521"/>
<text text-anchor="middle" x="35.5" y="-499.3" font-family="Times,serif" font-size="14.00">bufr_mod</text>
</a>
</g>
</g>
<!-- biasCorrectionConv_mod&#45;&gt;bufr_mod -->
<g id="edge1" class="edge">
<title>biasCorrectionConv_mod&#45;&gt;bufr_mod</title>
<path fill="none" stroke="black" d="M153.34,-556.88C131.3,-546.99 103.46,-534.49 80.37,-524.14"/>
<polygon fill="black" stroke="black" points="81.69,-520.89 71.13,-519.99 78.82,-527.27 81.69,-520.89"/>
</g>
<!-- codtyp_mod -->
<g id="node3" class="node">
<title>codtyp_mod</title>
<g id="a_node3"><a xlink:href="../modules/codtyp_mod.svg" xlink:title="codtyp_mod">
<polygon fill="none" stroke="red" points="125,-449 40,-449 40,-413 125,-413 125,-449"/>
<text text-anchor="middle" x="82.5" y="-427.3" font-family="Times,serif" font-size="14.00">codtyp_mod</text>
</a>
</g>
</g>
<!-- biasCorrectionConv_mod&#45;&gt;codtyp_mod -->
<g id="edge2" class="edge">
<title>biasCorrectionConv_mod&#45;&gt;codtyp_mod</title>
<path fill="none" stroke="black" d="M172.72,-556.71C162.38,-546.74 149.62,-533.7 139.5,-521 123.46,-500.87 107.88,-476.07 97.08,-457.77"/>
<polygon fill="black" stroke="black" points="100.09,-455.98 92.03,-449.1 94.04,-459.51 100.09,-455.98"/>
</g>
<!-- mathphysconstants_mod -->
<g id="node4" class="node">
<title>mathphysconstants_mod</title>
<g id="a_node4"><a xlink:href="mathphysconstants_mod.html" xlink:title="mathphysconstants_mod">
<polygon fill="gray" stroke="black" points="163.5,-377 11.5,-377 11.5,-341 163.5,-341 163.5,-377"/>
<text text-anchor="middle" x="87.5" y="-355.3" font-family="Times,serif" font-size="14.00">mathphysconstants_mod</text>
</a>
</g>
</g>
<!-- biasCorrectionConv_mod&#45;&gt;mathphysconstants_mod -->
<g id="edge3" class="edge">
<title>biasCorrectionConv_mod&#45;&gt;mathphysconstants_mod</title>
<path fill="none" stroke="black" d="M186.21,-556.86C174.94,-520.81 148.38,-438.37 133.5,-413 127.71,-403.12 119.97,-393.36 112.5,-384.95"/>
<polygon fill="black" stroke="black" points="114.84,-382.32 105.48,-377.35 109.69,-387.07 114.84,-382.32"/>
</g>
<!-- midasmpi_mod -->
<g id="node5" class="node">
<title>midasmpi_mod</title>
<g id="a_node5"><a xlink:href="../modules/midasmpi_mod.svg" xlink:title="midasmpi_mod">
<polygon fill="none" stroke="red" points="201.5,-305 99.5,-305 99.5,-269 201.5,-269 201.5,-305"/>
<text text-anchor="middle" x="150.5" y="-283.3" font-family="Times,serif" font-size="14.00">midasmpi_mod</text>
</a>
</g>
</g>
<!-- biasCorrectionConv_mod&#45;&gt;midasmpi_mod -->
<g id="edge4" class="edge">
<title>biasCorrectionConv_mod&#45;&gt;midasmpi_mod</title>
<path fill="none" stroke="black" d="M191.91,-556.76C192.45,-517.73 191.59,-419.89 172.5,-341 170.34,-332.09 166.9,-322.74 163.36,-314.42"/>
<polygon fill="black" stroke="black" points="166.52,-312.91 159.25,-305.2 160.13,-315.76 166.52,-312.91"/>
</g>
<!-- obsspacedata_mod -->
<g id="node6" class="node">
<title>obsspacedata_mod</title>
<g id="a_node6"><a xlink:href="../modules/obsspacedata_mod.svg" xlink:title="obsspacedata_mod">
<polygon fill="none" stroke="red" points="264,-233 145,-233 145,-197 264,-197 264,-233"/>
<text text-anchor="middle" x="204.5" y="-211.3" font-family="Times,serif" font-size="14.00">obsspacedata_mod</text>
</a>
</g>
</g>
<!-- biasCorrectionConv_mod&#45;&gt;obsspacedata_mod -->
<g id="edge5" class="edge">
<title>biasCorrectionConv_mod&#45;&gt;obsspacedata_mod</title>
<path fill="none" stroke="black" d="M199.19,-556.91C210.29,-530.62 229.5,-478.45 229.5,-432 229.5,-432 229.5,-432 229.5,-358 229.5,-317.6 219.56,-271.71 212.22,-243.3"/>
<polygon fill="black" stroke="black" points="215.52,-242.08 209.56,-233.32 208.75,-243.88 215.52,-242.08"/>
</g>
<!-- timecoord_mod -->
<g id="node7" class="node">
<title>timecoord_mod</title>
<g id="a_node7"><a xlink:href="../modules/timecoord_mod.svg" xlink:title="timecoord_mod">
<polygon fill="none" stroke="red" points="344.5,-161 240.5,-161 240.5,-125 344.5,-125 344.5,-161"/>
<text text-anchor="middle" x="292.5" y="-139.3" font-family="Times,serif" font-size="14.00">timecoord_mod</text>
</a>
</g>
</g>
<!-- biasCorrectionConv_mod&#45;&gt;timecoord_mod -->
<g id="edge6" class="edge">
<title>biasCorrectionConv_mod&#45;&gt;timecoord_mod</title>
<path fill="none" stroke="black" d="M214.67,-556.87C244.49,-532.66 292.5,-485.4 292.5,-432 292.5,-432 292.5,-432 292.5,-286 292.5,-246 292.5,-199.65 292.5,-171.08"/>
<polygon fill="black" stroke="black" points="296,-171.05 292.5,-161.05 289,-171.05 296,-171.05"/>
</g>
<!-- utilities_mod -->
<g id="node8" class="node">
<title>utilities_mod</title>
<g id="a_node8"><a xlink:href="../modules/utilities_mod.svg" xlink:title="utilities_mod">
<polygon fill="none" stroke="red" points="417,-89 328,-89 328,-53 417,-53 417,-89"/>
<text text-anchor="middle" x="372.5" y="-67.3" font-family="Times,serif" font-size="14.00">utilities_mod</text>
</a>
</g>
</g>
<!-- biasCorrectionConv_mod&#45;&gt;utilities_mod -->
<g id="edge7" class="edge">
<title>biasCorrectionConv_mod&#45;&gt;utilities_mod</title>
<path fill="none" stroke="black" d="M246.3,-556.98C299.57,-536.62 372.5,-496.9 372.5,-432 372.5,-432 372.5,-432 372.5,-214 372.5,-174 372.5,-127.65 372.5,-99.08"/>
<polygon fill="black" stroke="black" points="376,-99.05 372.5,-89.05 369,-99.05 376,-99.05"/>
</g>
</g>
</svg>
