<?xml version="1.0" encoding="UTF-8" standalone="no"?>
<!DOCTYPE svg PUBLIC "-//W3C//DTD SVG 1.1//EN"
 "http://www.w3.org/Graphics/SVG/1.1/DTD/svg11.dtd">
<!-- Generated by graphviz version 3.0.0 (20220315.2325)
 -->
<!-- Title: bMatrixHI_mod Pages: 1 -->
<svg width="818pt" height="673pt"
 viewBox="0.00 0.00 818.00 673.00" xmlns="http://www.w3.org/2000/svg" xmlns:xlink="http://www.w3.org/1999/xlink">
<g id="graph0" class="graph" transform="scale(1 1) rotate(0) translate(4 669)">
<title>bMatrixHI_mod</title>
<polygon fill="white" stroke="transparent" points="-4,4 -4,-669 814,-669 814,4 -4,4"/>
<text text-anchor="middle" x="405" y="-37.8" font-family="Times,serif" font-size="14.00">Red boxes indicate modules with dependencies not shown</text>
<text text-anchor="middle" x="405" y="-22.8" font-family="Times,serif" font-size="14.00">Lower level dependencies can be shown by clicking on a red box</text>
<text text-anchor="middle" x="405" y="-7.8" font-family="Times,serif" font-size="14.00">Shaded boxes indicate modules with no dependencies</text>
<!-- bMatrixHI_mod -->
<g id="node1" class="node">
<title>bMatrixHI_mod</title>
<g id="a_node1"><a xlink:href="bMatrixHI_mod.html" xlink:title="bMatrixHI_mod">
<polygon fill="none" stroke="black" points="447,-665 339,-665 339,-629 447,-629 447,-665"/>
<text text-anchor="middle" x="393" y="-643.3" font-family="Times,serif" font-size="14.00">bMatrixHI_mod</text>
</a>
</g>
</g>
<!-- calcheightandpressure_mod -->
<g id="node2" class="node">
<title>calcheightandpressure_mod</title>
<g id="a_node2"><a xlink:href="../modules/calcheightandpressure_mod.svg" xlink:title="calcheightandpressure_mod">
<polygon fill="none" stroke="red" points="168,-593 0,-593 0,-557 168,-557 168,-593"/>
<text text-anchor="middle" x="84" y="-571.3" font-family="Times,serif" font-size="14.00">calcheightandpressure_mod</text>
</a>
</g>
</g>
<!-- bMatrixHI_mod&#45;&gt;calcheightandpressure_mod -->
<g id="edge1" class="edge">
<title>bMatrixHI_mod&#45;&gt;calcheightandpressure_mod</title>
<path fill="none" stroke="black" d="M338.82,-633.73C291.98,-623.11 223.45,-607.59 169.26,-595.31"/>
<polygon fill="black" stroke="black" points="169.84,-591.86 159.31,-593.06 168.29,-598.68 169.84,-591.86"/>
</g>
<!-- earthconstants_mod -->
<g id="node3" class="node">
<title>earthconstants_mod</title>
<g id="a_node3"><a xlink:href="../modules/earthconstants_mod.svg" xlink:title="earthconstants_mod">
<polygon fill="none" stroke="red" points="232,-521 106,-521 106,-485 232,-485 232,-521"/>
<text text-anchor="middle" x="169" y="-499.3" font-family="Times,serif" font-size="14.00">earthconstants_mod</text>
</a>
</g>
</g>
<!-- bMatrixHI_mod&#45;&gt;earthconstants_mod -->
<g id="edge2" class="edge">
<title>bMatrixHI_mod&#45;&gt;earthconstants_mod</title>
<path fill="none" stroke="black" d="M338.88,-633.65C309.66,-625.28 273.95,-612.2 246,-593 221.21,-575.97 199.46,-549.1 185.46,-529.33"/>
<polygon fill="black" stroke="black" points="188.33,-527.32 179.77,-521.08 182.57,-531.3 188.33,-527.32"/>
</g>
<!-- globalspectraltransform_mod -->
<g id="node4" class="node">
<title>globalspectraltransform_mod</title>
<g id="a_node4"><a xlink:href="../modules/globalspectraltransform_mod.svg" xlink:title="globalspectraltransform_mod">
<polygon fill="none" stroke="red" points="270,-449 92,-449 92,-413 270,-413 270,-449"/>
<text text-anchor="middle" x="181" y="-427.3" font-family="Times,serif" font-size="14.00">globalspectraltransform_mod</text>
</a>
</g>
</g>
<!-- bMatrixHI_mod&#45;&gt;globalspectraltransform_mod -->
<g id="edge3" class="edge">
<title>bMatrixHI_mod&#45;&gt;globalspectraltransform_mod</title>
<path fill="none" stroke="black" d="M338.82,-628.97C319.48,-620.67 298.82,-608.96 284,-593 248.84,-555.15 270.73,-527.26 241,-485 233.36,-474.15 223.08,-464.02 213.18,-455.58"/>
<polygon fill="black" stroke="black" points="215.34,-452.82 205.39,-449.2 210.9,-458.24 215.34,-452.82"/>
</g>
<!-- gridstatevector_mod -->
<g id="node5" class="node">
<title>gridstatevector_mod</title>
<g id="a_node5"><a xlink:href="../modules/gridstatevector_mod.svg" xlink:title="gridstatevector_mod">
<polygon fill="none" stroke="red" points="308,-377 178,-377 178,-341 308,-341 308,-377"/>
<text text-anchor="middle" x="243" y="-355.3" font-family="Times,serif" font-size="14.00">gridstatevector_mod</text>
</a>
</g>
</g>
<!-- bMatrixHI_mod&#45;&gt;gridstatevector_mod -->
<g id="edge4" class="edge">
<title>bMatrixHI_mod&#45;&gt;gridstatevector_mod</title>
<path fill="none" stroke="black" d="M360.96,-628.92C347.04,-619.97 331.72,-607.78 322,-593 276.79,-524.29 312.21,-488.25 279,-413 274.8,-403.48 268.87,-393.85 263.02,-385.45"/>
<polygon fill="black" stroke="black" points="265.75,-383.24 257.04,-377.2 260.08,-387.35 265.75,-383.24"/>
</g>
<!-- gridvariabletransforms_mod -->
<g id="node6" class="node">
<title>gridvariabletransforms_mod</title>
<g id="a_node6"><a xlink:href="../modules/gridvariabletransforms_mod.svg" xlink:title="gridvariabletransforms_mod">
<polygon fill="none" stroke="red" points="345.5,-305 170.5,-305 170.5,-269 345.5,-269 345.5,-305"/>
<text text-anchor="middle" x="258" y="-283.3" font-family="Times,serif" font-size="14.00">gridvariabletransforms_mod</text>
</a>
</g>
</g>
<!-- bMatrixHI_mod&#45;&gt;gridvariabletransforms_mod -->
<g id="edge5" class="edge">
<title>bMatrixHI_mod&#45;&gt;gridvariabletransforms_mod</title>
<path fill="none" stroke="black" d="M380.33,-628.57C373.53,-618.56 365.45,-605.52 360,-593 343.66,-555.43 336,-544.97 336,-504 336,-504 336,-504 336,-430 336,-389.55 337.26,-376.01 317,-341 310.59,-329.92 301.05,-319.9 291.51,-311.63"/>
<polygon fill="black" stroke="black" points="293.51,-308.74 283.55,-305.11 289.07,-314.15 293.51,-308.74"/>
</g>
<!-- horizontalcoord_mod -->
<g id="node7" class="node">
<title>horizontalcoord_mod</title>
<g id="a_node7"><a xlink:href="../modules/horizontalcoord_mod.svg" xlink:title="horizontalcoord_mod">
<polygon fill="none" stroke="red" points="384,-233 250,-233 250,-197 384,-197 384,-233"/>
<text text-anchor="middle" x="317" y="-211.3" font-family="Times,serif" font-size="14.00">horizontalcoord_mod</text>
</a>
</g>
</g>
<!-- bMatrixHI_mod&#45;&gt;horizontalcoord_mod -->
<g id="edge6" class="edge">
<title>bMatrixHI_mod&#45;&gt;horizontalcoord_mod</title>
<path fill="none" stroke="black" d="M389.16,-628.61C383.6,-601.94 374,-549.27 374,-504 374,-504 374,-504 374,-358 374,-317.46 370.36,-306.1 354,-269 349.77,-259.4 343.69,-249.74 337.68,-241.35"/>
<polygon fill="black" stroke="black" points="340.31,-239.02 331.52,-233.11 334.71,-243.22 340.31,-239.02"/>
</g>
<!-- interpolation_mod -->
<g id="node8" class="node">
<title>interpolation_mod</title>
<g id="a_node8"><a xlink:href="../modules/interpolation_mod.svg" xlink:title="interpolation_mod">
<polygon fill="none" stroke="red" points="422,-161 304,-161 304,-125 422,-125 422,-161"/>
<text text-anchor="middle" x="363" y="-139.3" font-family="Times,serif" font-size="14.00">interpolation_mod</text>
</a>
</g>
</g>
<!-- bMatrixHI_mod&#45;&gt;interpolation_mod -->
<g id="edge7" class="edge">
<title>bMatrixHI_mod&#45;&gt;interpolation_mod</title>
<path fill="none" stroke="black" d="M396.84,-628.61C402.4,-601.94 412,-549.27 412,-504 412,-504 412,-504 412,-286 412,-245.55 407.35,-234.82 393,-197 389.47,-187.71 384.49,-178.09 379.6,-169.65"/>
<polygon fill="black" stroke="black" points="382.56,-167.77 374.4,-161.01 376.56,-171.38 382.56,-167.77"/>
</g>
<!-- midasmpi_mod -->
<g id="node9" class="node">
<title>midasmpi_mod</title>
<g id="a_node9"><a xlink:href="../modules/midasmpi_mod.svg" xlink:title="midasmpi_mod">
<polygon fill="none" stroke="red" points="501,-89 399,-89 399,-53 501,-53 501,-89"/>
<text text-anchor="middle" x="450" y="-67.3" font-family="Times,serif" font-size="14.00">midasmpi_mod</text>
</a>
</g>
</g>
<!-- bMatrixHI_mod&#45;&gt;midasmpi_mod -->
<g id="edge8" class="edge">
<title>bMatrixHI_mod&#45;&gt;midasmpi_mod</title>
<path fill="none" stroke="black" d="M404.81,-628.96C421.51,-603.16 450,-552.08 450,-504 450,-504 450,-504 450,-214 450,-174 450,-127.65 450,-99.08"/>
<polygon fill="black" stroke="black" points="453.5,-99.05 450,-89.05 446.5,-99.05 453.5,-99.05"/>
</g>
<!-- timecoord_mod -->
<g id="node10" class="node">
<title>timecoord_mod</title>
<g id="a_node10"><a xlink:href="../modules/timecoord_mod.svg" xlink:title="timecoord_mod">
<polygon fill="none" stroke="red" points="582,-593 478,-593 478,-557 582,-557 582,-593"/>
<text text-anchor="middle" x="530" y="-571.3" font-family="Times,serif" font-size="14.00">timecoord_mod</text>
</a>
</g>
</g>
<!-- bMatrixHI_mod&#45;&gt;timecoord_mod -->
<g id="edge9" class="edge">
<title>bMatrixHI_mod&#45;&gt;timecoord_mod</title>
<path fill="none" stroke="black" d="M426.51,-628.88C444.84,-619.51 467.74,-607.81 487.33,-597.8"/>
<polygon fill="black" stroke="black" points="489.04,-600.86 496.36,-593.19 485.86,-594.62 489.04,-600.86"/>
</g>
<!-- utilities_mod -->
<g id="node11" class="node">
<title>utilities_mod</title>
<g id="a_node11"><a xlink:href="../modules/utilities_mod.svg" xlink:title="utilities_mod">
<polygon fill="none" stroke="red" points="636.5,-521 547.5,-521 547.5,-485 636.5,-485 636.5,-521"/>
<text text-anchor="middle" x="592" y="-499.3" font-family="Times,serif" font-size="14.00">utilities_mod</text>
</a>
</g>
</g>
<!-- bMatrixHI_mod&#45;&gt;utilities_mod -->
<g id="edge10" class="edge">
<title>bMatrixHI_mod&#45;&gt;utilities_mod</title>
<path fill="none" stroke="black" d="M447.3,-638.87C499.65,-630.76 573.43,-615.63 591,-593 604.43,-575.7 603.3,-550.27 599.61,-531.02"/>
<polygon fill="black" stroke="black" points="602.98,-530.04 597.37,-521.05 596.14,-531.57 602.98,-530.04"/>
</g>
<!-- varnamelist_mod -->
<g id="node12" class="node">
<title>varnamelist_mod</title>
<g id="a_node12"><a xlink:href="../modules/varnamelist_mod.svg" xlink:title="varnamelist_mod">
<polygon fill="none" stroke="red" points="721.5,-449 608.5,-449 608.5,-413 721.5,-413 721.5,-449"/>
<text text-anchor="middle" x="665" y="-427.3" font-family="Times,serif" font-size="14.00">varnamelist_mod</text>
</a>
</g>
</g>
<!-- bMatrixHI_mod&#45;&gt;varnamelist_mod -->
<g id="edge11" class="edge">
<title>bMatrixHI_mod&#45;&gt;varnamelist_mod</title>
<path fill="none" stroke="black" d="M447.11,-645.52C495.07,-642.39 564.51,-630.91 611,-593 651.27,-560.16 661.69,-496.22 664.27,-459.57"/>
<polygon fill="black" stroke="black" points="667.79,-459.31 664.84,-449.14 660.8,-458.93 667.79,-459.31"/>
</g>
<!-- verticalcoord_mod -->
<g id="node13" class="node">
<title>verticalcoord_mod</title>
<g id="a_node13"><a xlink:href="../modules/verticalcoord_mod.svg" xlink:title="verticalcoord_mod">
<polygon fill="none" stroke="red" points="810,-377 690,-377 690,-341 810,-341 810,-377"/>
<text text-anchor="middle" x="750" y="-355.3" font-family="Times,serif" font-size="14.00">verticalcoord_mod</text>
</a>
</g>
</g>
<!-- bMatrixHI_mod&#45;&gt;verticalcoord_mod -->
<g id="edge12" class="edge">
<title>bMatrixHI_mod&#45;&gt;verticalcoord_mod</title>
<path fill="none" stroke="black" d="M447.17,-646.22C500.69,-643.9 582.64,-633.24 640,-593 710.28,-543.69 737.01,-437.36 745.98,-387.22"/>
<polygon fill="black" stroke="black" points="749.47,-387.58 747.68,-377.14 742.57,-386.42 749.47,-387.58"/>
</g>
</g>
</svg>
