<?xml version="1.0" encoding="UTF-8" standalone="no"?>
<!DOCTYPE svg PUBLIC "-//W3C//DTD SVG 1.1//EN"
 "http://www.w3.org/Graphics/SVG/1.1/DTD/svg11.dtd">
<!-- Generated by graphviz version 3.0.0 (20220315.2325)
 -->
<!-- Title: bMatrix_mod Pages: 1 -->
<svg width="699pt" height="673pt"
 viewBox="0.00 0.00 699.00 673.00" xmlns="http://www.w3.org/2000/svg" xmlns:xlink="http://www.w3.org/1999/xlink">
<g id="graph0" class="graph" transform="scale(1 1) rotate(0) translate(4 669)">
<title>bMatrix_mod</title>
<polygon fill="white" stroke="transparent" points="-4,4 -4,-669 695,-669 695,4 -4,4"/>
<text text-anchor="middle" x="345.5" y="-37.8" font-family="Times,serif" font-size="14.00">Red boxes indicate modules with dependencies not shown</text>
<text text-anchor="middle" x="345.5" y="-22.8" font-family="Times,serif" font-size="14.00">Lower level dependencies can be shown by clicking on a red box</text>
<text text-anchor="middle" x="345.5" y="-7.8" font-family="Times,serif" font-size="14.00">Shaded boxes indicate modules with no dependencies</text>
<!-- bMatrix_mod -->
<g id="node1" class="node">
<title>bMatrix_mod</title>
<g id="a_node1"><a xlink:href="bMatrix_mod.html" xlink:title="bMatrix_mod">
<polygon fill="none" stroke="black" points="370.5,-665 277.5,-665 277.5,-629 370.5,-629 370.5,-665"/>
<text text-anchor="middle" x="324" y="-643.3" font-family="Times,serif" font-size="14.00">bMatrix_mod</text>
</a>
</g>
</g>
<!-- bmatrixchem_mod -->
<g id="node2" class="node">
<title>bmatrixchem_mod</title>
<g id="a_node2"><a xlink:href="../modules/bmatrixchem_mod.svg" xlink:title="bmatrixchem_mod">
<polygon fill="none" stroke="red" points="122,-593 0,-593 0,-557 122,-557 122,-593"/>
<text text-anchor="middle" x="61" y="-571.3" font-family="Times,serif" font-size="14.00">bmatrixchem_mod</text>
</a>
</g>
</g>
<!-- bMatrix_mod&#45;&gt;bmatrixchem_mod -->
<g id="edge1" class="edge">
<title>bMatrix_mod&#45;&gt;bmatrixchem_mod</title>
<path fill="none" stroke="black" d="M277.28,-633.57C236.99,-622.84 178.18,-607.19 132.06,-594.91"/>
<polygon fill="black" stroke="black" points="132.69,-591.46 122.12,-592.27 130.89,-598.22 132.69,-591.46"/>
</g>
<!-- bmatrixdiff_mod -->
<g id="node3" class="node">
<title>bmatrixdiff_mod</title>
<g id="a_node3"><a xlink:href="../modules/bmatrixdiff_mod.svg" xlink:title="bmatrixdiff_mod">
<polygon fill="none" stroke="red" points="182,-521 72,-521 72,-485 182,-485 182,-521"/>
<text text-anchor="middle" x="127" y="-499.3" font-family="Times,serif" font-size="14.00">bmatrixdiff_mod</text>
</a>
</g>
</g>
<!-- bMatrix_mod&#45;&gt;bmatrixdiff_mod -->
<g id="edge2" class="edge">
<title>bMatrix_mod&#45;&gt;bmatrixdiff_mod</title>
<path fill="none" stroke="black" d="M277.44,-633.21C251.72,-624.62 220.19,-611.46 196,-593 173.46,-575.8 154.31,-549.52 141.95,-529.97"/>
<polygon fill="black" stroke="black" points="144.81,-527.95 136.6,-521.26 138.85,-531.61 144.81,-527.95"/>
</g>
<!-- bmatrixensemble_mod -->
<g id="node4" class="node">
<title>bmatrixensemble_mod</title>
<g id="a_node4"><a xlink:href="../modules/bmatrixensemble_mod.svg" xlink:title="bmatrixensemble_mod">
<polygon fill="none" stroke="red" points="219.5,-449 76.5,-449 76.5,-413 219.5,-413 219.5,-449"/>
<text text-anchor="middle" x="148" y="-427.3" font-family="Times,serif" font-size="14.00">bmatrixensemble_mod</text>
</a>
</g>
</g>
<!-- bMatrix_mod&#45;&gt;bmatrixensemble_mod -->
<g id="edge3" class="edge">
<title>bMatrix_mod&#45;&gt;bmatrixensemble_mod</title>
<path fill="none" stroke="black" d="M282.7,-628.96C265.76,-620.27 247.1,-608.28 234,-593 200.37,-553.78 217.13,-529.57 191,-485 185.28,-475.24 177.84,-465.39 170.77,-456.87"/>
<polygon fill="black" stroke="black" points="173.33,-454.48 164.16,-449.16 168.01,-459.03 173.33,-454.48"/>
</g>
<!-- bmatrixhi_mod -->
<g id="node5" class="node">
<title>bmatrixhi_mod</title>
<g id="a_node5"><a xlink:href="../modules/bmatrixhi_mod.svg" xlink:title="bmatrixhi_mod">
<polygon fill="none" stroke="red" points="258,-377 156,-377 156,-341 258,-341 258,-377"/>
<text text-anchor="middle" x="207" y="-355.3" font-family="Times,serif" font-size="14.00">bmatrixhi_mod</text>
</a>
</g>
</g>
<!-- bMatrix_mod&#45;&gt;bmatrixhi_mod -->
<g id="edge4" class="edge">
<title>bMatrix_mod&#45;&gt;bmatrixhi_mod</title>
<path fill="none" stroke="black" d="M302.46,-628.93C291.82,-619.42 279.65,-606.74 272,-593 231.95,-521.04 253.01,-491.47 228,-413 225.24,-404.32 221.75,-395.04 218.41,-386.7"/>
<polygon fill="black" stroke="black" points="221.65,-385.37 214.62,-377.45 215.17,-388.03 221.65,-385.37"/>
</g>
<!-- controlvector_mod -->
<g id="node6" class="node">
<title>controlvector_mod</title>
<g id="a_node6"><a xlink:href="../modules/controlvector_mod.svg" xlink:title="controlvector_mod">
<polygon fill="none" stroke="red" points="296,-305 176,-305 176,-269 296,-269 296,-305"/>
<text text-anchor="middle" x="236" y="-283.3" font-family="Times,serif" font-size="14.00">controlvector_mod</text>
</a>
</g>
</g>
<!-- bMatrix_mod&#45;&gt;controlvector_mod -->
<g id="edge5" class="edge">
<title>bMatrix_mod&#45;&gt;controlvector_mod</title>
<path fill="none" stroke="black" d="M316.31,-628.91C305.21,-602.62 286,-550.45 286,-504 286,-504 286,-504 286,-430 286,-389.55 281.62,-378.71 267,-341 263.44,-331.8 258.4,-322.33 253.42,-313.98"/>
<polygon fill="black" stroke="black" points="256.36,-312.08 248.11,-305.43 250.41,-315.77 256.36,-312.08"/>
</g>
<!-- gridstatevector_mod -->
<g id="node7" class="node">
<title>gridstatevector_mod</title>
<g id="a_node7"><a xlink:href="../modules/gridstatevector_mod.svg" xlink:title="gridstatevector_mod">
<polygon fill="none" stroke="red" points="334,-233 204,-233 204,-197 334,-197 334,-233"/>
<text text-anchor="middle" x="269" y="-211.3" font-family="Times,serif" font-size="14.00">gridstatevector_mod</text>
</a>
</g>
</g>
<!-- bMatrix_mod&#45;&gt;gridstatevector_mod -->
<g id="edge6" class="edge">
<title>bMatrix_mod&#45;&gt;gridstatevector_mod</title>
<path fill="none" stroke="black" d="M324,-628.95C324,-602.29 324,-549.11 324,-504 324,-504 324,-504 324,-358 324,-317.55 320.88,-306.2 305,-269 300.92,-259.43 295.01,-249.78 289.16,-241.39"/>
<polygon fill="black" stroke="black" points="291.88,-239.17 283.16,-233.15 286.22,-243.29 291.88,-239.17"/>
</g>
<!-- horizontalcoord_mod -->
<g id="node8" class="node">
<title>horizontalcoord_mod</title>
<g id="a_node8"><a xlink:href="../modules/horizontalcoord_mod.svg" xlink:title="horizontalcoord_mod">
<polygon fill="none" stroke="red" points="372,-161 238,-161 238,-125 372,-125 372,-161"/>
<text text-anchor="middle" x="305" y="-139.3" font-family="Times,serif" font-size="14.00">horizontalcoord_mod</text>
</a>
</g>
</g>
<!-- bMatrix_mod&#45;&gt;horizontalcoord_mod -->
<g id="edge7" class="edge">
<title>bMatrix_mod&#45;&gt;horizontalcoord_mod</title>
<path fill="none" stroke="black" d="M331.69,-628.91C342.79,-602.62 362,-550.45 362,-504 362,-504 362,-504 362,-286 362,-245.55 359.35,-233.99 343,-197 338.67,-187.21 332.36,-177.43 326.12,-168.98"/>
<polygon fill="black" stroke="black" points="328.86,-166.8 319.98,-161.03 323.32,-171.08 328.86,-166.8"/>
</g>
<!-- lambmatrixhi_mod -->
<g id="node9" class="node">
<title>lambmatrixhi_mod</title>
<g id="a_node9"><a xlink:href="../modules/lambmatrixhi_mod.svg" xlink:title="lambmatrixhi_mod">
<polygon fill="none" stroke="red" points="461.5,-89 338.5,-89 338.5,-53 461.5,-53 461.5,-89"/>
<text text-anchor="middle" x="400" y="-67.3" font-family="Times,serif" font-size="14.00">lambmatrixhi_mod</text>
</a>
</g>
</g>
<!-- bMatrix_mod&#45;&gt;lambmatrixhi_mod -->
<g id="edge8" class="edge">
<title>bMatrix_mod&#45;&gt;lambmatrixhi_mod</title>
<path fill="none" stroke="black" d="M340.49,-628.77C362.84,-603.53 400,-554.05 400,-504 400,-504 400,-504 400,-214 400,-174 400,-127.65 400,-99.08"/>
<polygon fill="black" stroke="black" points="403.5,-99.05 400,-89.05 396.5,-99.05 403.5,-99.05"/>
</g>
<!-- midasmpi_mod -->
<g id="node10" class="node">
<title>midasmpi_mod</title>
<g id="a_node10"><a xlink:href="../modules/midasmpi_mod.svg" xlink:title="midasmpi_mod">
<polygon fill="none" stroke="red" points="530,-593 428,-593 428,-557 530,-557 530,-593"/>
<text text-anchor="middle" x="479" y="-571.3" font-family="Times,serif" font-size="14.00">midasmpi_mod</text>
</a>
</g>
</g>
<!-- bMatrix_mod&#45;&gt;midasmpi_mod -->
<g id="edge9" class="edge">
<title>bMatrix_mod&#45;&gt;midasmpi_mod</title>
<path fill="none" stroke="black" d="M361.92,-628.88C383.01,-619.35 409.46,-607.41 431.87,-597.28"/>
<polygon fill="black" stroke="black" points="433.53,-600.37 441.21,-593.07 430.65,-593.99 433.53,-600.37"/>
</g>
<!-- utilities_mod -->
<g id="node11" class="node">
<title>utilities_mod</title>
<g id="a_node11"><a xlink:href="../modules/utilities_mod.svg" xlink:title="utilities_mod">
<polygon fill="none" stroke="red" points="602.5,-521 513.5,-521 513.5,-485 602.5,-485 602.5,-521"/>
<text text-anchor="middle" x="558" y="-499.3" font-family="Times,serif" font-size="14.00">utilities_mod</text>
</a>
</g>
</g>
<!-- bMatrix_mod&#45;&gt;utilities_mod -->
<g id="edge10" class="edge">
<title>bMatrix_mod&#45;&gt;utilities_mod</title>
<path fill="none" stroke="black" d="M370.82,-640.29C426.85,-632.51 515.99,-616.74 539,-593 554.68,-576.82 558.79,-551.05 559.35,-531.4"/>
<polygon fill="black" stroke="black" points="562.85,-531.21 559.35,-521.21 555.85,-531.21 562.85,-531.21"/>
</g>
<!-- verticalcoord_mod -->
<g id="node12" class="node">
<title>verticalcoord_mod</title>
<g id="a_node12"><a xlink:href="../modules/verticalcoord_mod.svg" xlink:title="verticalcoord_mod">
<polygon fill="none" stroke="red" points="691,-449 571,-449 571,-413 691,-413 691,-449"/>
<text text-anchor="middle" x="631" y="-427.3" font-family="Times,serif" font-size="14.00">verticalcoord_mod</text>
</a>
</g>
</g>
<!-- bMatrix_mod&#45;&gt;verticalcoord_mod -->
<g id="edge11" class="edge">
<title>bMatrix_mod&#45;&gt;verticalcoord_mod</title>
<path fill="none" stroke="black" d="M370.93,-645.54C422.04,-642.9 504.2,-632.22 562,-593 606.78,-562.62 622.64,-496.69 628.16,-459.31"/>
<polygon fill="black" stroke="black" points="631.66,-459.51 629.5,-449.13 624.72,-458.59 631.66,-459.51"/>
</g>
</g>
</svg>
