<?xml version="1.0" encoding="UTF-8" standalone="no"?>
<!DOCTYPE svg PUBLIC "-//W3C//DTD SVG 1.1//EN"
 "http://www.w3.org/Graphics/SVG/1.1/DTD/svg11.dtd">
<!-- Generated by graphviz version 3.0.0 (20220315.2325)
 -->
<!-- Title: bMatrixEnsemble_mod Pages: 1 -->
<svg width="474pt" height="529pt"
 viewBox="0.00 0.00 473.50 529.00" xmlns="http://www.w3.org/2000/svg" xmlns:xlink="http://www.w3.org/1999/xlink">
<g id="graph0" class="graph" transform="scale(1 1) rotate(0) translate(4 525)">
<title>bMatrixEnsemble_mod</title>
<polygon fill="white" stroke="transparent" points="-4,4 -4,-525 469.5,-525 469.5,4 -4,4"/>
<text text-anchor="middle" x="232.75" y="-505.8" font-family="Times,serif" font-size="14.00">Blue boxes indicate modules with reverse dependencies not shown</text>
<text text-anchor="middle" x="232.75" y="-490.8" font-family="Times,serif" font-size="14.00">Higher level reverse dependencies can be shown by clicking on a blue box</text>
<text text-anchor="middle" x="232.75" y="-475.8" font-family="Times,serif" font-size="14.00">Green boxes are programs</text>
<!-- bMatrixEnsemble_mod -->
<g id="node1" class="node">
<title>bMatrixEnsemble_mod</title>
<g id="a_node1"><a xlink:href="bMatrixEnsemble_mod.html" xlink:title="bMatrixEnsemble_mod">
<polygon fill="none" stroke="black" points="262.5,-36 115.5,-36 115.5,0 262.5,0 262.5,-36"/>
<text text-anchor="middle" x="189" y="-14.3" font-family="Times,serif" font-size="14.00">bMatrixEnsemble_mod</text>
</a>
</g>
</g>
<!-- bmatrix_mod -->
<g id="node2" class="node">
<title>bmatrix_mod</title>
<g id="a_node2"><a xlink:href="../modules/bmatrix_mod_rev.svg" xlink:title="bmatrix_mod">
<polygon fill="none" stroke="blue" points="92,-108 0,-108 0,-72 92,-72 92,-108"/>
<text text-anchor="middle" x="46" y="-86.3" font-family="Times,serif" font-size="14.00">bmatrix_mod</text>
</a>
</g>
</g>
<!-- bmatrix_mod&#45;&gt;bMatrixEnsemble_mod -->
<g id="edge1" class="edge">
<title>bmatrix_mod&#45;&gt;bMatrixEnsemble_mod</title>
<path fill="none" stroke="black" d="M88.19,-68.35C109.09,-58.11 134.04,-45.9 153.88,-36.19"/>
<ellipse fill="black" stroke="black" cx="84.57" cy="-70.12" rx="4" ry="4"/>
</g>
<!-- fsoi_mod -->
<g id="node3" class="node">
<title>fsoi_mod</title>
<g id="a_node3"><a xlink:href="../modules/fsoi_mod_rev.svg" xlink:title="fsoi_mod">
<polygon fill="none" stroke="blue" points="142,-180 74,-180 74,-144 142,-144 142,-180"/>
<text text-anchor="middle" x="108" y="-158.3" font-family="Times,serif" font-size="14.00">fsoi_mod</text>
</a>
</g>
</g>
<!-- fsoi_mod&#45;&gt;bMatrixEnsemble_mod -->
<g id="edge2" class="edge">
<title>fsoi_mod&#45;&gt;bMatrixEnsemble_mod</title>
<path fill="none" stroke="black" d="M120.69,-136.5C130.14,-118.5 143.51,-93.52 156,-72 163.07,-59.81 171.47,-46.34 178.03,-36.02"/>
<ellipse fill="black" stroke="black" cx="118.74" cy="-140.22" rx="4" ry="4"/>
</g>
<!-- obsspacediag_mod -->
<g id="node4" class="node">
<title>obsspacediag_mod</title>
<g id="a_node4"><a xlink:href="../modules/obsspacediag_mod_rev.svg" xlink:title="obsspacediag_mod">
<polygon fill="none" stroke="blue" points="180,-252 60,-252 60,-216 180,-216 180,-252"/>
<text text-anchor="middle" x="120" y="-230.3" font-family="Times,serif" font-size="14.00">obsspacediag_mod</text>
</a>
</g>
</g>
<!-- obsspacediag_mod&#45;&gt;bMatrixEnsemble_mod -->
<g id="edge3" class="edge">
<title>obsspacediag_mod&#45;&gt;bMatrixEnsemble_mod</title>
<path fill="none" stroke="black" d="M136.35,-208.55C141.62,-199.83 147.1,-189.74 151,-180 171.05,-129.87 182.15,-66.54 186.63,-36.43"/>
<ellipse fill="black" stroke="black" cx="134.12" cy="-212.13" rx="4" ry="4"/>
</g>
<!-- obsspaceerrorstddev_mod -->
<g id="node5" class="node">
<title>obsspaceerrorstddev_mod</title>
<g id="a_node5"><a xlink:href="../modules/obsspaceerrorstddev_mod_rev.svg" xlink:title="obsspaceerrorstddev_mod">
<polygon fill="none" stroke="blue" points="252.5,-324 93.5,-324 93.5,-288 252.5,-288 252.5,-324"/>
<text text-anchor="middle" x="173" y="-302.3" font-family="Times,serif" font-size="14.00">obsspaceerrorstddev_mod</text>
</a>
</g>
</g>
<!-- obsspaceerrorstddev_mod&#45;&gt;bMatrixEnsemble_mod -->
<g id="edge4" class="edge">
<title>obsspaceerrorstddev_mod&#45;&gt;bMatrixEnsemble_mod</title>
<path fill="none" stroke="black" d="M182.11,-279.99C184.88,-271.26 187.56,-261.31 189,-252 201.37,-172.05 194.41,-74.81 190.78,-36.09"/>
<ellipse fill="black" stroke="black" cx="180.85" cy="-283.82" rx="4" ry="4"/>
</g>
<!-- midas_midas_adjointtest -->
<g id="node6" class="node">
<title>midas_midas_adjointtest</title>
<g id="a_node6"><a xlink:href="../programs/midas_adjointtest.html" xlink:title="midas_midas_adjointtest">
<polygon fill="gray" stroke="green" points="356,-396 204,-396 204,-360 356,-360 356,-396"/>
<text text-anchor="middle" x="280" y="-374.3" font-family="Times,serif" font-size="14.00">midas_midas_adjointtest</text>
</a>
</g>
</g>
<!-- midas_midas_adjointtest&#45;&gt;bMatrixEnsemble_mod -->
<g id="edge5" class="edge">
<title>midas_midas_adjointtest&#45;&gt;bMatrixEnsemble_mod</title>
<path fill="none" stroke="black" d="M280,-351.78C280,-323.39 280,-275.89 280,-235 280,-235 280,-235 280,-161 280,-109.17 236.5,-61.13 209.65,-36.42"/>
<ellipse fill="black" stroke="black" cx="280" cy="-355.95" rx="4" ry="4"/>
</g>
<!-- midas_midas_diagbmatrix -->
<g id="node7" class="node">
<title>midas_midas_diagbmatrix</title>
<g id="a_node7"><a xlink:href="../programs/midas_diagbmatrix.html" xlink:title="midas_midas_diagbmatrix">
<polygon fill="gray" stroke="green" points="465.5,-468 302.5,-468 302.5,-432 465.5,-432 465.5,-468"/>
<text text-anchor="middle" x="384" y="-446.3" font-family="Times,serif" font-size="14.00">midas_midas_diagbmatrix</text>
</a>
</g>
</g>
<!-- midas_midas_diagbmatrix&#45;&gt;bMatrixEnsemble_mod -->
<g id="edge6" class="edge">
<title>midas_midas_diagbmatrix&#45;&gt;bMatrixEnsemble_mod</title>
<path fill="none" stroke="black" d="M384,-423.78C384,-395.39 384,-347.89 384,-307 384,-307 384,-307 384,-161 384,-94.41 308.78,-55.76 251.77,-36.03"/>
<ellipse fill="black" stroke="black" cx="384" cy="-427.95" rx="4" ry="4"/>
</g>
</g>
</svg>
