<?xml version="1.0" encoding="UTF-8" standalone="no"?>
<!DOCTYPE svg PUBLIC "-//W3C//DTD SVG 1.1//EN"
 "http://www.w3.org/Graphics/SVG/1.1/DTD/svg11.dtd">
<!-- Generated by graphviz version 3.0.0 (20220315.2325)
 -->
<!-- Title: bMatrix1DVar_mod Pages: 1 -->
<svg width="1217pt" height="673pt"
 viewBox="0.00 0.00 1217.00 673.00" xmlns="http://www.w3.org/2000/svg" xmlns:xlink="http://www.w3.org/1999/xlink">
<g id="graph0" class="graph" transform="scale(1 1) rotate(0) translate(4 669)">
<title>bMatrix1DVar_mod</title>
<polygon fill="white" stroke="transparent" points="-4,4 -4,-669 1213,-669 1213,4 -4,4"/>
<text text-anchor="middle" x="604.5" y="-37.8" font-family="Times,serif" font-size="14.00">Red boxes indicate modules with dependencies not shown</text>
<text text-anchor="middle" x="604.5" y="-22.8" font-family="Times,serif" font-size="14.00">Lower level dependencies can be shown by clicking on a red box</text>
<text text-anchor="middle" x="604.5" y="-7.8" font-family="Times,serif" font-size="14.00">Shaded boxes indicate modules with no dependencies</text>
<!-- bMatrix1DVar_mod -->
<g id="node1" class="node">
<title>bMatrix1DVar_mod</title>
<g id="a_node1"><a xlink:href="bMatrix1DVar_mod.html" xlink:title="bMatrix1DVar_mod">
<polygon fill="none" stroke="black" points="720,-665 592,-665 592,-629 720,-629 720,-665"/>
<text text-anchor="middle" x="656" y="-643.3" font-family="Times,serif" font-size="14.00">bMatrix1DVar_mod</text>
</a>
</g>
</g>
<!-- calcheightandpressure_mod -->
<g id="node2" class="node">
<title>calcheightandpressure_mod</title>
<g id="a_node2"><a xlink:href="../modules/calcheightandpressure_mod.svg" xlink:title="calcheightandpressure_mod">
<polygon fill="none" stroke="red" points="168,-593 0,-593 0,-557 168,-557 168,-593"/>
<text text-anchor="middle" x="84" y="-571.3" font-family="Times,serif" font-size="14.00">calcheightandpressure_mod</text>
</a>
</g>
</g>
<!-- bMatrix1DVar_mod&#45;&gt;calcheightandpressure_mod -->
<g id="edge1" class="edge">
<title>bMatrix1DVar_mod&#45;&gt;calcheightandpressure_mod</title>
<path fill="none" stroke="black" d="M591.83,-640.07C500.56,-631.34 328.12,-613.82 182,-593 180.73,-592.82 179.44,-592.63 178.15,-592.44"/>
<polygon fill="black" stroke="black" points="178.55,-588.97 168.14,-590.93 177.51,-595.89 178.55,-588.97"/>
</g>
<!-- columndata_mod -->
<g id="node3" class="node">
<title>columndata_mod</title>
<g id="a_node3"><a xlink:href="../modules/columndata_mod.svg" xlink:title="columndata_mod">
<polygon fill="none" stroke="red" points="229,-521 117,-521 117,-485 229,-485 229,-521"/>
<text text-anchor="middle" x="173" y="-499.3" font-family="Times,serif" font-size="14.00">columndata_mod</text>
</a>
</g>
</g>
<!-- bMatrix1DVar_mod&#45;&gt;columndata_mod -->
<g id="edge2" class="edge">
<title>bMatrix1DVar_mod&#45;&gt;columndata_mod</title>
<path fill="none" stroke="black" d="M591.74,-643.64C490.94,-638.98 301.16,-625.99 243,-593 217.5,-578.53 197.95,-550.71 186.07,-530.01"/>
<polygon fill="black" stroke="black" points="189.05,-528.15 181.16,-521.07 182.91,-531.52 189.05,-528.15"/>
</g>
<!-- columnvariabletransforms_mod -->
<g id="node4" class="node">
<title>columnvariabletransforms_mod</title>
<g id="a_node4"><a xlink:href="../modules/columnvariabletransforms_mod.svg" xlink:title="columnvariabletransforms_mod">
<polygon fill="none" stroke="red" points="266.5,-449 73.5,-449 73.5,-413 266.5,-413 266.5,-449"/>
<text text-anchor="middle" x="170" y="-427.3" font-family="Times,serif" font-size="14.00">columnvariabletransforms_mod</text>
</a>
</g>
</g>
<!-- bMatrix1DVar_mod&#45;&gt;columnvariabletransforms_mod -->
<g id="edge3" class="edge">
<title>bMatrix1DVar_mod&#45;&gt;columnvariabletransforms_mod</title>
<path fill="none" stroke="black" d="M591.91,-644.54C497.73,-641.16 328.04,-629.97 281,-593 240.38,-561.07 269.01,-526.32 238,-485 229.48,-473.65 217.94,-463.43 206.79,-455.07"/>
<polygon fill="black" stroke="black" points="208.56,-452.03 198.39,-449.05 204.48,-457.72 208.56,-452.03"/>
</g>
<!-- controlvector_mod -->
<g id="node5" class="node">
<title>controlvector_mod</title>
<g id="a_node5"><a xlink:href="../modules/controlvector_mod.svg" xlink:title="controlvector_mod">
<polygon fill="none" stroke="red" points="305,-377 185,-377 185,-341 305,-341 305,-377"/>
<text text-anchor="middle" x="245" y="-355.3" font-family="Times,serif" font-size="14.00">controlvector_mod</text>
</a>
</g>
</g>
<!-- bMatrix1DVar_mod&#45;&gt;controlvector_mod -->
<g id="edge4" class="edge">
<title>bMatrix1DVar_mod&#45;&gt;controlvector_mod</title>
<path fill="none" stroke="black" d="M591.65,-644.16C505.15,-640.33 357.75,-628.63 319,-593 258.38,-537.25 305.35,-489.56 275,-413 271.34,-403.76 266.32,-394.16 261.44,-385.71"/>
<polygon fill="black" stroke="black" points="264.4,-383.85 256.26,-377.06 258.39,-387.44 264.4,-383.85"/>
</g>
<!-- ensemblestatevector_mod -->
<g id="node6" class="node">
<title>ensemblestatevector_mod</title>
<g id="a_node6"><a xlink:href="../modules/ensemblestatevector_mod.svg" xlink:title="ensemblestatevector_mod">
<polygon fill="none" stroke="red" points="343,-305 185,-305 185,-269 343,-269 343,-305"/>
<text text-anchor="middle" x="264" y="-283.3" font-family="Times,serif" font-size="14.00">ensemblestatevector_mod</text>
</a>
</g>
</g>
<!-- bMatrix1DVar_mod&#45;&gt;ensemblestatevector_mod -->
<g id="edge5" class="edge">
<title>bMatrix1DVar_mod&#45;&gt;ensemblestatevector_mod</title>
<path fill="none" stroke="black" d="M591.69,-642.54C514.28,-637.06 390.49,-623.66 357,-593 326.79,-565.33 333,-544.97 333,-504 333,-504 333,-504 333,-430 333,-389.55 332.8,-376.81 314,-341 308.51,-330.54 300.37,-320.65 292.24,-312.32"/>
<polygon fill="black" stroke="black" points="294.47,-309.6 284.86,-305.13 289.58,-314.61 294.47,-309.6"/>
</g>
<!-- filenames_mod -->
<g id="node7" class="node">
<title>filenames_mod</title>
<g id="a_node7"><a xlink:href="../modules/filenames_mod.svg" xlink:title="filenames_mod">
<polygon fill="none" stroke="red" points="380.5,-233 279.5,-233 279.5,-197 380.5,-197 380.5,-233"/>
<text text-anchor="middle" x="330" y="-211.3" font-family="Times,serif" font-size="14.00">filenames_mod</text>
</a>
</g>
</g>
<!-- bMatrix1DVar_mod&#45;&gt;filenames_mod -->
<g id="edge6" class="edge">
<title>bMatrix1DVar_mod&#45;&gt;filenames_mod</title>
<path fill="none" stroke="black" d="M591.97,-640.66C524.11,-633.71 422.94,-619.23 395,-593 365.13,-564.96 371,-544.97 371,-504 371,-504 371,-504 371,-358 371,-316.41 354.56,-270.56 342.5,-242.51"/>
<polygon fill="black" stroke="black" points="345.55,-240.75 338.3,-233.03 339.15,-243.59 345.55,-240.75"/>
</g>
<!-- gridstatevectorfileio_mod -->
<g id="node8" class="node">
<title>gridstatevectorfileio_mod</title>
<g id="a_node8"><a xlink:href="../modules/gridstatevectorfileio_mod.svg" xlink:title="gridstatevectorfileio_mod">
<polygon fill="none" stroke="red" points="419,-161 261,-161 261,-125 419,-125 419,-161"/>
<text text-anchor="middle" x="340" y="-139.3" font-family="Times,serif" font-size="14.00">gridstatevectorfileio_mod</text>
</a>
</g>
</g>
<!-- bMatrix1DVar_mod&#45;&gt;gridstatevectorfileio_mod -->
<g id="edge7" class="edge">
<title>bMatrix1DVar_mod&#45;&gt;gridstatevectorfileio_mod</title>
<path fill="none" stroke="black" d="M591.8,-638.11C534.21,-629.76 455.42,-614.75 433,-593 403.6,-564.47 409,-544.97 409,-504 409,-504 409,-504 409,-286 409,-245.46 407.85,-232.89 389,-197 383.56,-186.64 375.56,-176.78 367.6,-168.44"/>
<polygon fill="black" stroke="black" points="369.93,-165.82 360.38,-161.24 364.99,-170.78 369.93,-165.82"/>
</g>
<!-- gridstatevector_mod -->
<g id="node9" class="node">
<title>gridstatevector_mod</title>
<g id="a_node9"><a xlink:href="../modules/gridstatevector_mod.svg" xlink:title="gridstatevector_mod">
<polygon fill="none" stroke="red" points="512,-89 382,-89 382,-53 512,-53 512,-89"/>
<text text-anchor="middle" x="447" y="-67.3" font-family="Times,serif" font-size="14.00">gridstatevector_mod</text>
</a>
</g>
</g>
<!-- bMatrix1DVar_mod&#45;&gt;gridstatevector_mod -->
<g id="edge8" class="edge">
<title>bMatrix1DVar_mod&#45;&gt;gridstatevector_mod</title>
<path fill="none" stroke="black" d="M591.83,-644.45C550.29,-639.96 498.14,-627.18 466,-593 438.3,-563.53 447,-544.45 447,-504 447,-504 447,-504 447,-214 447,-174 447,-127.65 447,-99.08"/>
<polygon fill="black" stroke="black" points="450.5,-99.05 447,-89.05 443.5,-99.05 450.5,-99.05"/>
</g>
<!-- horizontalcoord_mod -->
<g id="node10" class="node">
<title>horizontalcoord_mod</title>
<g id="a_node10"><a xlink:href="../modules/horizontalcoord_mod.svg" xlink:title="horizontalcoord_mod">
<polygon fill="none" stroke="red" points="609,-593 475,-593 475,-557 609,-557 609,-593"/>
<text text-anchor="middle" x="542" y="-571.3" font-family="Times,serif" font-size="14.00">horizontalcoord_mod</text>
</a>
</g>
</g>
<!-- bMatrix1DVar_mod&#45;&gt;horizontalcoord_mod -->
<g id="edge9" class="edge">
<title>bMatrix1DVar_mod&#45;&gt;horizontalcoord_mod</title>
<path fill="none" stroke="black" d="M628.11,-628.88C613.21,-619.72 594.67,-608.34 578.62,-598.48"/>
<polygon fill="black" stroke="black" points="580.35,-595.44 569.99,-593.19 576.69,-601.41 580.35,-595.44"/>
</g>
<!-- localizationfunction_mod -->
<g id="node11" class="node">
<title>localizationfunction_mod</title>
<g id="a_node11"><a xlink:href="../modules/localizationfunction_mod.svg" xlink:title="localizationfunction_mod">
<polygon fill="none" stroke="red" points="647,-521 491,-521 491,-485 647,-485 647,-521"/>
<text text-anchor="middle" x="569" y="-499.3" font-family="Times,serif" font-size="14.00">localizationfunction_mod</text>
</a>
</g>
</g>
<!-- bMatrix1DVar_mod&#45;&gt;localizationfunction_mod -->
<g id="edge10" class="edge">
<title>bMatrix1DVar_mod&#45;&gt;localizationfunction_mod</title>
<path fill="none" stroke="black" d="M650.61,-628.74C644.36,-610.15 632.98,-580.12 618,-557 611.53,-547.02 603.12,-537.15 595.1,-528.68"/>
<polygon fill="black" stroke="black" points="597.41,-526.04 587.91,-521.34 592.41,-530.93 597.41,-526.04"/>
</g>
<!-- mathphysconstants_mod -->
<g id="node12" class="node">
<title>mathphysconstants_mod</title>
<g id="a_node12"><a xlink:href="mathphysconstants_mod.html" xlink:title="mathphysconstants_mod">
<polygon fill="gray" stroke="black" points="685,-449 533,-449 533,-413 685,-413 685,-449"/>
<text text-anchor="middle" x="609" y="-427.3" font-family="Times,serif" font-size="14.00">mathphysconstants_mod</text>
</a>
</g>
</g>
<!-- bMatrix1DVar_mod&#45;&gt;mathphysconstants_mod -->
<g id="edge11" class="edge">
<title>bMatrix1DVar_mod&#45;&gt;mathphysconstants_mod</title>
<path fill="none" stroke="black" d="M659.85,-628.84C665.81,-598.61 674.75,-534.39 656,-485 652.03,-474.54 644.95,-464.83 637.47,-456.65"/>
<polygon fill="black" stroke="black" points="639.77,-453.99 630.27,-449.3 634.77,-458.89 639.77,-453.99"/>
</g>
<!-- midasmpi_mod -->
<g id="node13" class="node">
<title>midasmpi_mod</title>
<g id="a_node13"><a xlink:href="../modules/midasmpi_mod.svg" xlink:title="midasmpi_mod">
<polygon fill="none" stroke="red" points="723,-377 621,-377 621,-341 723,-341 723,-377"/>
<text text-anchor="middle" x="672" y="-355.3" font-family="Times,serif" font-size="14.00">midasmpi_mod</text>
</a>
</g>
</g>
<!-- bMatrix1DVar_mod&#45;&gt;midasmpi_mod -->
<g id="edge12" class="edge">
<title>bMatrix1DVar_mod&#45;&gt;midasmpi_mod</title>
<path fill="none" stroke="black" d="M665.94,-628.92C671.33,-618.82 677.58,-605.57 681,-593 702.04,-515.6 709.68,-491.66 694,-413 692.21,-404.01 688.86,-394.64 685.31,-386.32"/>
<polygon fill="black" stroke="black" points="688.46,-384.77 681.13,-377.12 682.08,-387.67 688.46,-384.77"/>
</g>
<!-- obsspacedata_mod -->
<g id="node14" class="node">
<title>obsspacedata_mod</title>
<g id="a_node14"><a xlink:href="../modules/obsspacedata_mod.svg" xlink:title="obsspacedata_mod">
<polygon fill="none" stroke="red" points="760.5,-305 641.5,-305 641.5,-269 760.5,-269 760.5,-305"/>
<text text-anchor="middle" x="701" y="-283.3" font-family="Times,serif" font-size="14.00">obsspacedata_mod</text>
</a>
</g>
</g>
<!-- bMatrix1DVar_mod&#45;&gt;obsspacedata_mod -->
<g id="edge13" class="edge">
<title>bMatrix1DVar_mod&#45;&gt;obsspacedata_mod</title>
<path fill="none" stroke="black" d="M677.56,-628.78C705.59,-604.28 751,-556.5 751,-504 751,-504 751,-504 751,-430 751,-389.55 746.62,-378.71 732,-341 728.44,-331.8 723.4,-322.33 718.42,-313.98"/>
<polygon fill="black" stroke="black" points="721.36,-312.08 713.11,-305.43 715.41,-315.77 721.36,-312.08"/>
</g>
<!-- statetocolumn_mod -->
<g id="node15" class="node">
<title>statetocolumn_mod</title>
<g id="a_node15"><a xlink:href="../modules/statetocolumn_mod.svg" xlink:title="statetocolumn_mod">
<polygon fill="none" stroke="red" points="798.5,-233 673.5,-233 673.5,-197 798.5,-197 798.5,-233"/>
<text text-anchor="middle" x="736" y="-211.3" font-family="Times,serif" font-size="14.00">statetocolumn_mod</text>
</a>
</g>
</g>
<!-- bMatrix1DVar_mod&#45;&gt;statetocolumn_mod -->
<g id="edge14" class="edge">
<title>bMatrix1DVar_mod&#45;&gt;statetocolumn_mod</title>
<path fill="none" stroke="black" d="M689.56,-628.93C728.96,-606.23 789,-562.1 789,-504 789,-504 789,-504 789,-358 789,-317.46 784.38,-306.51 769,-269 765.2,-259.72 759.83,-250.22 754.53,-241.88"/>
<polygon fill="black" stroke="black" points="757.32,-239.75 748.88,-233.34 751.48,-243.62 757.32,-239.75"/>
</g>
<!-- timecoord_mod -->
<g id="node16" class="node">
<title>timecoord_mod</title>
<g id="a_node16"><a xlink:href="../modules/timecoord_mod.svg" xlink:title="timecoord_mod">
<polygon fill="none" stroke="red" points="837,-161 733,-161 733,-125 837,-125 837,-161"/>
<text text-anchor="middle" x="785" y="-139.3" font-family="Times,serif" font-size="14.00">timecoord_mod</text>
</a>
</g>
</g>
<!-- bMatrix1DVar_mod&#45;&gt;timecoord_mod -->
<g id="edge15" class="edge">
<title>bMatrix1DVar_mod&#45;&gt;timecoord_mod</title>
<path fill="none" stroke="black" d="M705.92,-628.87C756.39,-608.01 827,-567.48 827,-504 827,-504 827,-504 827,-286 827,-244.15 810.01,-198.1 797.65,-170.11"/>
<polygon fill="black" stroke="black" points="800.83,-168.66 793.5,-161.01 794.46,-171.56 800.83,-168.66"/>
</g>
<!-- tovsnl_mod -->
<g id="node17" class="node">
<title>tovsnl_mod</title>
<g id="a_node17"><a xlink:href="../modules/tovsnl_mod.svg" xlink:title="tovsnl_mod">
<polygon fill="none" stroke="red" points="905.5,-89 824.5,-89 824.5,-53 905.5,-53 905.5,-89"/>
<text text-anchor="middle" x="865" y="-67.3" font-family="Times,serif" font-size="14.00">tovsnl_mod</text>
</a>
</g>
</g>
<!-- bMatrix1DVar_mod&#45;&gt;tovsnl_mod -->
<g id="edge16" class="edge">
<title>bMatrix1DVar_mod&#45;&gt;tovsnl_mod</title>
<path fill="none" stroke="black" d="M720.13,-631.28C781.56,-612.94 865,-574.96 865,-504 865,-504 865,-504 865,-214 865,-174 865,-127.65 865,-99.08"/>
<polygon fill="black" stroke="black" points="868.5,-99.05 865,-89.05 861.5,-99.05 868.5,-99.05"/>
</g>
<!-- utilities_mod -->
<g id="node18" class="node">
<title>utilities_mod</title>
<g id="a_node18"><a xlink:href="../modules/utilities_mod.svg" xlink:title="utilities_mod">
<polygon fill="none" stroke="red" points="982.5,-593 893.5,-593 893.5,-557 982.5,-557 982.5,-593"/>
<text text-anchor="middle" x="938" y="-571.3" font-family="Times,serif" font-size="14.00">utilities_mod</text>
</a>
</g>
</g>
<!-- bMatrix1DVar_mod&#45;&gt;utilities_mod -->
<g id="edge17" class="edge">
<title>bMatrix1DVar_mod&#45;&gt;utilities_mod</title>
<path fill="none" stroke="black" d="M720.12,-631.6C764.8,-621.37 825.69,-607.01 879,-593 880.45,-592.62 881.92,-592.23 883.4,-591.83"/>
<polygon fill="black" stroke="black" points="884.56,-595.14 893.28,-589.12 882.71,-588.39 884.56,-595.14"/>
</g>
<!-- var1d_mod -->
<g id="node19" class="node">
<title>var1d_mod</title>
<g id="a_node19"><a xlink:href="../modules/var1d_mod.svg" xlink:title="var1d_mod">
<polygon fill="none" stroke="red" points="1035.5,-521 956.5,-521 956.5,-485 1035.5,-485 1035.5,-521"/>
<text text-anchor="middle" x="996" y="-499.3" font-family="Times,serif" font-size="14.00">var1d_mod</text>
</a>
</g>
</g>
<!-- bMatrix1DVar_mod&#45;&gt;var1d_mod -->
<g id="edge18" class="edge">
<title>bMatrix1DVar_mod&#45;&gt;var1d_mod</title>
<path fill="none" stroke="black" d="M720.19,-645.08C807.21,-642.34 955.81,-631.93 991,-593 1005.87,-576.55 1005.66,-550.64 1002.6,-531.01"/>
<polygon fill="black" stroke="black" points="1006.02,-530.31 1000.74,-521.13 999.15,-531.6 1006.02,-530.31"/>
</g>
<!-- varnamelist_mod -->
<g id="node20" class="node">
<title>varnamelist_mod</title>
<g id="a_node20"><a xlink:href="../modules/varnamelist_mod.svg" xlink:title="varnamelist_mod">
<polygon fill="none" stroke="red" points="1120.5,-449 1007.5,-449 1007.5,-413 1120.5,-413 1120.5,-449"/>
<text text-anchor="middle" x="1064" y="-427.3" font-family="Times,serif" font-size="14.00">varnamelist_mod</text>
</a>
</g>
</g>
<!-- bMatrix1DVar_mod&#45;&gt;varnamelist_mod -->
<g id="edge19" class="edge">
<title>bMatrix1DVar_mod&#45;&gt;varnamelist_mod</title>
<path fill="none" stroke="black" d="M720.04,-643.74C809.86,-639.38 967.3,-627 1012,-593 1053.5,-561.44 1062.45,-496.26 1064.04,-459.24"/>
<polygon fill="black" stroke="black" points="1067.54,-459.25 1064.32,-449.16 1060.54,-459.06 1067.54,-459.25"/>
</g>
<!-- verticalcoord_mod -->
<g id="node21" class="node">
<title>verticalcoord_mod</title>
<g id="a_node21"><a xlink:href="../modules/verticalcoord_mod.svg" xlink:title="verticalcoord_mod">
<polygon fill="none" stroke="red" points="1209,-377 1089,-377 1089,-341 1209,-341 1209,-377"/>
<text text-anchor="middle" x="1149" y="-355.3" font-family="Times,serif" font-size="14.00">verticalcoord_mod</text>
</a>
</g>
</g>
<!-- bMatrix1DVar_mod&#45;&gt;verticalcoord_mod -->
<g id="edge20" class="edge">
<title>bMatrix1DVar_mod&#45;&gt;verticalcoord_mod</title>
<path fill="none" stroke="black" d="M720.25,-643.74C815.76,-639.3 989.49,-626.72 1041,-593 1112.77,-546.03 1137.66,-438.07 1145.6,-387.31"/>
<polygon fill="black" stroke="black" points="1149.11,-387.51 1147.09,-377.11 1142.18,-386.5 1149.11,-387.51"/>
</g>
</g>
</svg>
