<?xml version="1.0" encoding="UTF-8" standalone="no"?>
<!DOCTYPE svg PUBLIC "-//W3C//DTD SVG 1.1//EN"
 "http://www.w3.org/Graphics/SVG/1.1/DTD/svg11.dtd">
<!-- Generated by graphviz version 3.0.0 (20220315.2325)
 -->
<!-- Title: bMatrixHI_mod Pages: 1 -->
<svg width="433pt" height="385pt"
 viewBox="0.00 0.00 433.00 385.00" xmlns="http://www.w3.org/2000/svg" xmlns:xlink="http://www.w3.org/1999/xlink">
<g id="graph0" class="graph" transform="scale(1 1) rotate(0) translate(4 381)">
<title>bMatrixHI_mod</title>
<polygon fill="white" stroke="transparent" points="-4,4 -4,-381 429,-381 429,4 -4,4"/>
<text text-anchor="middle" x="212.5" y="-361.8" font-family="Times,serif" font-size="14.00">Blue boxes indicate modules with reverse dependencies not shown</text>
<text text-anchor="middle" x="212.5" y="-346.8" font-family="Times,serif" font-size="14.00">Higher level reverse dependencies can be shown by clicking on a blue box</text>
<text text-anchor="middle" x="212.5" y="-331.8" font-family="Times,serif" font-size="14.00">Green boxes are programs</text>
<!-- bMatrixHI_mod -->
<g id="node1" class="node">
<title>bMatrixHI_mod</title>
<g id="a_node1"><a xlink:href="bMatrixHI_mod.html" xlink:title="bMatrixHI_mod">
<polygon fill="none" stroke="black" points="234.5,-36 126.5,-36 126.5,0 234.5,0 234.5,-36"/>
<text text-anchor="middle" x="180.5" y="-14.3" font-family="Times,serif" font-size="14.00">bMatrixHI_mod</text>
</a>
</g>
</g>
<!-- bmatrix_mod -->
<g id="node2" class="node">
<title>bmatrix_mod</title>
<g id="a_node2"><a xlink:href="../modules/bmatrix_mod_rev.svg" xlink:title="bmatrix_mod">
<polygon fill="none" stroke="blue" points="121.5,-108 29.5,-108 29.5,-72 121.5,-72 121.5,-108"/>
<text text-anchor="middle" x="75.5" y="-86.3" font-family="Times,serif" font-size="14.00">bmatrix_mod</text>
</a>
</g>
</g>
<!-- bmatrix_mod&#45;&gt;bMatrixHI_mod -->
<g id="edge1" class="edge">
<title>bmatrix_mod&#45;&gt;bMatrixHI_mod</title>
<path fill="none" stroke="black" d="M107.9,-67.4C122.94,-57.37 140.59,-45.61 154.72,-36.19"/>
<ellipse fill="black" stroke="black" cx="104.51" cy="-69.66" rx="4" ry="4"/>
</g>
<!-- obsspacediag_mod -->
<g id="node3" class="node">
<title>obsspacediag_mod</title>
<g id="a_node3"><a xlink:href="../modules/obsspacediag_mod_rev.svg" xlink:title="obsspacediag_mod">
<polygon fill="none" stroke="blue" points="184.5,-180 64.5,-180 64.5,-144 184.5,-144 184.5,-180"/>
<text text-anchor="middle" x="124.5" y="-158.3" font-family="Times,serif" font-size="14.00">obsspacediag_mod</text>
</a>
</g>
</g>
<!-- obsspacediag_mod&#45;&gt;bMatrixHI_mod -->
<g id="edge2" class="edge">
<title>obsspacediag_mod&#45;&gt;bMatrixHI_mod</title>
<path fill="none" stroke="black" d="M134.24,-136.3C145.54,-107.65 163.87,-61.17 173.72,-36.19"/>
<ellipse fill="black" stroke="black" cx="132.72" cy="-140.15" rx="4" ry="4"/>
</g>
<!-- obsspaceerrorstddev_mod -->
<g id="node4" class="node">
<title>obsspaceerrorstddev_mod</title>
<g id="a_node4"><a xlink:href="../modules/obsspaceerrorstddev_mod_rev.svg" xlink:title="obsspaceerrorstddev_mod">
<polygon fill="none" stroke="blue" points="292,-252 133,-252 133,-216 292,-216 292,-252"/>
<text text-anchor="middle" x="212.5" y="-230.3" font-family="Times,serif" font-size="14.00">obsspaceerrorstddev_mod</text>
</a>
</g>
</g>
<!-- obsspaceerrorstddev_mod&#45;&gt;bMatrixHI_mod -->
<g id="edge3" class="edge">
<title>obsspaceerrorstddev_mod&#45;&gt;bMatrixHI_mod</title>
<path fill="none" stroke="black" d="M208.71,-207.67C202.12,-163.59 188.71,-73.87 183.08,-36.23"/>
<ellipse fill="black" stroke="black" cx="209.34" cy="-211.89" rx="4" ry="4"/>
</g>
<!-- midas_midas_adjointtest -->
<g id="node5" class="node">
<title>midas_midas_adjointtest</title>
<g id="a_node5"><a xlink:href="../programs/midas_adjointtest.html" xlink:title="midas_midas_adjointtest">
<polygon fill="gray" stroke="green" points="395.5,-324 243.5,-324 243.5,-288 395.5,-288 395.5,-324"/>
<text text-anchor="middle" x="319.5" y="-302.3" font-family="Times,serif" font-size="14.00">midas_midas_adjointtest</text>
</a>
</g>
</g>
<!-- midas_midas_adjointtest&#45;&gt;bMatrixHI_mod -->
<g id="edge4" class="edge">
<title>midas_midas_adjointtest&#45;&gt;bMatrixHI_mod</title>
<path fill="none" stroke="black" d="M316.37,-279.43C313.6,-261.27 308.68,-236.56 300.5,-216 272,-144.37 218.51,-69.08 193.73,-36.13"/>
<ellipse fill="black" stroke="black" cx="317" cy="-283.81" rx="4" ry="4"/>
</g>
</g>
</svg>
