<?xml version="1.0" encoding="UTF-8" standalone="no"?>
<!DOCTYPE svg PUBLIC "-//W3C//DTD SVG 1.1//EN"
 "http://www.w3.org/Graphics/SVG/1.1/DTD/svg11.dtd">
<!-- Generated by graphviz version 3.0.0 (20220315.2325)
 -->
<!-- Title: bMatrixEnsemble_mod Pages: 1 -->
<svg width="1273pt" height="673pt"
 viewBox="0.00 0.00 1272.50 673.00" xmlns="http://www.w3.org/2000/svg" xmlns:xlink="http://www.w3.org/1999/xlink">
<g id="graph0" class="graph" transform="scale(1 1) rotate(0) translate(4 669)">
<title>bMatrixEnsemble_mod</title>
<polygon fill="white" stroke="transparent" points="-4,4 -4,-669 1268.5,-669 1268.5,4 -4,4"/>
<text text-anchor="middle" x="632.25" y="-37.8" font-family="Times,serif" font-size="14.00">Red boxes indicate modules with dependencies not shown</text>
<text text-anchor="middle" x="632.25" y="-22.8" font-family="Times,serif" font-size="14.00">Lower level dependencies can be shown by clicking on a red box</text>
<text text-anchor="middle" x="632.25" y="-7.8" font-family="Times,serif" font-size="14.00">Shaded boxes indicate modules with no dependencies</text>
<!-- bMatrixEnsemble_mod -->
<g id="node1" class="node">
<title>bMatrixEnsemble_mod</title>
<g id="a_node1"><a xlink:href="bMatrixEnsemble_mod.html" xlink:title="bMatrixEnsemble_mod">
<polygon fill="none" stroke="black" points="738,-665 591,-665 591,-629 738,-629 738,-665"/>
<text text-anchor="middle" x="664.5" y="-643.3" font-family="Times,serif" font-size="14.00">bMatrixEnsemble_mod</text>
</a>
</g>
</g>
<!-- advection_mod -->
<g id="node2" class="node">
<title>advection_mod</title>
<g id="a_node2"><a xlink:href="../modules/advection_mod.svg" xlink:title="advection_mod">
<polygon fill="none" stroke="red" points="101,-593 0,-593 0,-557 101,-557 101,-593"/>
<text text-anchor="middle" x="50.5" y="-571.3" font-family="Times,serif" font-size="14.00">advection_mod</text>
</a>
</g>
</g>
<!-- bMatrixEnsemble_mod&#45;&gt;advection_mod -->
<g id="edge1" class="edge">
<title>bMatrixEnsemble_mod&#45;&gt;advection_mod</title>
<path fill="none" stroke="black" d="M590.73,-642.62C484.86,-636.93 284.02,-622.97 115.5,-593 114.03,-592.74 112.54,-592.46 111.04,-592.17"/>
<polygon fill="black" stroke="black" points="111.58,-588.7 101.07,-590.06 110.13,-595.55 111.58,-588.7"/>
</g>
<!-- calcheightandpressure_mod -->
<g id="node3" class="node">
<title>calcheightandpressure_mod</title>
<g id="a_node3"><a xlink:href="../modules/calcheightandpressure_mod.svg" xlink:title="calcheightandpressure_mod">
<polygon fill="none" stroke="red" points="176.5,-521 8.5,-521 8.5,-485 176.5,-485 176.5,-521"/>
<text text-anchor="middle" x="92.5" y="-499.3" font-family="Times,serif" font-size="14.00">calcheightandpressure_mod</text>
</a>
</g>
</g>
<!-- bMatrixEnsemble_mod&#45;&gt;calcheightandpressure_mod -->
<g id="edge2" class="edge">
<title>bMatrixEnsemble_mod&#45;&gt;calcheightandpressure_mod</title>
<path fill="none" stroke="black" d="M590.99,-643.29C476.17,-638.13 260.21,-624.49 190.5,-593 158.7,-578.63 130.14,-550 112.17,-529.07"/>
<polygon fill="black" stroke="black" points="114.69,-526.63 105.59,-521.2 109.32,-531.12 114.69,-526.63"/>
</g>
<!-- ensemblestatevector_mod -->
<g id="node4" class="node">
<title>ensemblestatevector_mod</title>
<g id="a_node4"><a xlink:href="../modules/ensemblestatevector_mod.svg" xlink:title="ensemblestatevector_mod">
<polygon fill="none" stroke="red" points="214.5,-449 56.5,-449 56.5,-413 214.5,-413 214.5,-449"/>
<text text-anchor="middle" x="135.5" y="-427.3" font-family="Times,serif" font-size="14.00">ensemblestatevector_mod</text>
</a>
</g>
</g>
<!-- bMatrixEnsemble_mod&#45;&gt;ensemblestatevector_mod -->
<g id="edge3" class="edge">
<title>bMatrixEnsemble_mod&#45;&gt;ensemblestatevector_mod</title>
<path fill="none" stroke="black" d="M590.95,-645.9C481.73,-644.32 283.62,-635.46 228.5,-593 187.57,-561.47 213.28,-528.56 185.5,-485 178.98,-474.77 170.32,-464.77 162.05,-456.26"/>
<polygon fill="black" stroke="black" points="164.51,-453.76 154.95,-449.19 159.57,-458.72 164.51,-453.76"/>
</g>
<!-- filenames_mod -->
<g id="node5" class="node">
<title>filenames_mod</title>
<g id="a_node5"><a xlink:href="../modules/filenames_mod.svg" xlink:title="filenames_mod">
<polygon fill="none" stroke="red" points="252,-377 151,-377 151,-341 252,-341 252,-377"/>
<text text-anchor="middle" x="201.5" y="-355.3" font-family="Times,serif" font-size="14.00">filenames_mod</text>
</a>
</g>
</g>
<!-- bMatrixEnsemble_mod&#45;&gt;filenames_mod -->
<g id="edge4" class="edge">
<title>bMatrixEnsemble_mod&#45;&gt;filenames_mod</title>
<path fill="none" stroke="black" d="M590.71,-645.85C488.94,-644.06 312.81,-634.81 266.5,-593 205.45,-537.88 248.9,-491.23 223.5,-413 220.67,-404.28 217.03,-394.99 213.53,-386.65"/>
<polygon fill="black" stroke="black" points="216.72,-385.2 209.55,-377.4 210.29,-387.97 216.72,-385.2"/>
</g>
<!-- globalspectraltransform_mod -->
<g id="node6" class="node">
<title>globalspectraltransform_mod</title>
<g id="a_node6"><a xlink:href="../modules/globalspectraltransform_mod.svg" xlink:title="globalspectraltransform_mod">
<polygon fill="none" stroke="red" points="290.5,-305 112.5,-305 112.5,-269 290.5,-269 290.5,-305"/>
<text text-anchor="middle" x="201.5" y="-283.3" font-family="Times,serif" font-size="14.00">globalspectraltransform_mod</text>
</a>
</g>
</g>
<!-- bMatrixEnsemble_mod&#45;&gt;globalspectraltransform_mod -->
<g id="edge5" class="edge">
<title>bMatrixEnsemble_mod&#45;&gt;globalspectraltransform_mod</title>
<path fill="none" stroke="black" d="M590.8,-644.44C498,-640.95 345.69,-629.62 304.5,-593 273.88,-565.78 280.5,-544.97 280.5,-504 280.5,-504 280.5,-504 280.5,-430 280.5,-389.46 280.99,-375.98 260.5,-341 254.03,-329.96 244.48,-319.94 234.93,-311.67"/>
<polygon fill="black" stroke="black" points="236.94,-308.79 226.99,-305.14 232.5,-314.2 236.94,-308.79"/>
</g>
<!-- gridbinning_mod -->
<g id="node7" class="node">
<title>gridbinning_mod</title>
<g id="a_node7"><a xlink:href="../modules/gridbinning_mod.svg" xlink:title="gridbinning_mod">
<polygon fill="none" stroke="red" points="328,-233 215,-233 215,-197 328,-197 328,-233"/>
<text text-anchor="middle" x="271.5" y="-211.3" font-family="Times,serif" font-size="14.00">gridbinning_mod</text>
</a>
</g>
</g>
<!-- bMatrixEnsemble_mod&#45;&gt;gridbinning_mod -->
<g id="edge6" class="edge">
<title>bMatrixEnsemble_mod&#45;&gt;gridbinning_mod</title>
<path fill="none" stroke="black" d="M590.88,-642.95C507.34,-637.96 378.06,-625.16 342.5,-593 312.12,-565.52 318.5,-544.97 318.5,-504 318.5,-504 318.5,-504 318.5,-358 318.5,-317.55 313.3,-307.02 299.5,-269 296.2,-259.9 291.6,-250.42 287.08,-242.03"/>
<polygon fill="black" stroke="black" points="290.03,-240.13 282.09,-233.11 283.92,-243.55 290.03,-240.13"/>
</g>
<!-- gridstatevectorfileio_mod -->
<g id="node8" class="node">
<title>gridstatevectorfileio_mod</title>
<g id="a_node8"><a xlink:href="../modules/gridstatevectorfileio_mod.svg" xlink:title="gridstatevectorfileio_mod">
<polygon fill="none" stroke="red" points="366.5,-161 208.5,-161 208.5,-125 366.5,-125 366.5,-161"/>
<text text-anchor="middle" x="287.5" y="-139.3" font-family="Times,serif" font-size="14.00">gridstatevectorfileio_mod</text>
</a>
</g>
</g>
<!-- bMatrixEnsemble_mod&#45;&gt;gridstatevectorfileio_mod -->
<g id="edge7" class="edge">
<title>bMatrixEnsemble_mod&#45;&gt;gridstatevectorfileio_mod</title>
<path fill="none" stroke="black" d="M590.84,-641.05C517.12,-634.6 410.48,-620.7 380.5,-593 350.41,-565.2 356.5,-544.97 356.5,-504 356.5,-504 356.5,-504 356.5,-286 356.5,-245.46 355.35,-232.89 336.5,-197 331.06,-186.64 323.06,-176.78 315.1,-168.44"/>
<polygon fill="black" stroke="black" points="317.43,-165.82 307.88,-161.24 312.49,-170.78 317.43,-165.82"/>
</g>
<!-- gridstatevector_mod -->
<g id="node9" class="node">
<title>gridstatevector_mod</title>
<g id="a_node9"><a xlink:href="../modules/gridstatevector_mod.svg" xlink:title="gridstatevector_mod">
<polygon fill="none" stroke="red" points="459.5,-89 329.5,-89 329.5,-53 459.5,-53 459.5,-89"/>
<text text-anchor="middle" x="394.5" y="-67.3" font-family="Times,serif" font-size="14.00">gridstatevector_mod</text>
</a>
</g>
</g>
<!-- bMatrixEnsemble_mod&#45;&gt;gridstatevector_mod -->
<g id="edge8" class="edge">
<title>bMatrixEnsemble_mod&#45;&gt;gridstatevector_mod</title>
<path fill="none" stroke="black" d="M590.78,-639.29C525.92,-631.85 438.09,-617.54 413.5,-593 384.87,-564.43 394.5,-544.45 394.5,-504 394.5,-504 394.5,-504 394.5,-214 394.5,-174 394.5,-127.65 394.5,-99.08"/>
<polygon fill="black" stroke="black" points="398,-99.05 394.5,-89.05 391,-99.05 398,-99.05"/>
</g>
<!-- gridvariabletransforms_mod -->
<g id="node10" class="node">
<title>gridvariabletransforms_mod</title>
<g id="a_node10"><a xlink:href="../modules/gridvariabletransforms_mod.svg" xlink:title="gridvariabletransforms_mod">
<polygon fill="none" stroke="red" points="598,-593 423,-593 423,-557 598,-557 598,-593"/>
<text text-anchor="middle" x="510.5" y="-571.3" font-family="Times,serif" font-size="14.00">gridvariabletransforms_mod</text>
</a>
</g>
</g>
<!-- bMatrixEnsemble_mod&#45;&gt;gridvariabletransforms_mod -->
<g id="edge9" class="edge">
<title>bMatrixEnsemble_mod&#45;&gt;gridvariabletransforms_mod</title>
<path fill="none" stroke="black" d="M626.83,-628.88C605.87,-619.35 579.6,-607.41 557.32,-597.28"/>
<polygon fill="black" stroke="black" points="558.6,-594.02 548.05,-593.07 555.71,-600.39 558.6,-594.02"/>
</g>
<!-- horizontalcoord_mod -->
<g id="node11" class="node">
<title>horizontalcoord_mod</title>
<g id="a_node11"><a xlink:href="../modules/horizontalcoord_mod.svg" xlink:title="horizontalcoord_mod">
<polygon fill="none" stroke="red" points="636.5,-521 502.5,-521 502.5,-485 636.5,-485 636.5,-521"/>
<text text-anchor="middle" x="569.5" y="-499.3" font-family="Times,serif" font-size="14.00">horizontalcoord_mod</text>
</a>
</g>
</g>
<!-- bMatrixEnsemble_mod&#45;&gt;horizontalcoord_mod -->
<g id="edge10" class="edge">
<title>bMatrixEnsemble_mod&#45;&gt;horizontalcoord_mod</title>
<path fill="none" stroke="black" d="M653.54,-628.83C642,-610.83 623.21,-581.77 606.5,-557 600.38,-547.93 593.56,-538.08 587.45,-529.36"/>
<polygon fill="black" stroke="black" points="590.25,-527.26 581.64,-521.09 584.52,-531.28 590.25,-527.26"/>
</g>
<!-- humiditylimits_mod -->
<g id="node12" class="node">
<title>humiditylimits_mod</title>
<g id="a_node12"><a xlink:href="../modules/humiditylimits_mod.svg" xlink:title="humiditylimits_mod">
<polygon fill="none" stroke="red" points="674,-449 545,-449 545,-413 674,-413 674,-449"/>
<text text-anchor="middle" x="609.5" y="-427.3" font-family="Times,serif" font-size="14.00">humiditylimits_mod</text>
</a>
</g>
</g>
<!-- bMatrixEnsemble_mod&#45;&gt;humiditylimits_mod -->
<g id="edge11" class="edge">
<title>bMatrixEnsemble_mod&#45;&gt;humiditylimits_mod</title>
<path fill="none" stroke="black" d="M665.1,-628.93C665.59,-598.84 664.09,-534.84 645.5,-485 641.92,-475.41 636.26,-465.86 630.48,-457.57"/>
<polygon fill="black" stroke="black" points="633.24,-455.42 624.5,-449.43 627.6,-459.56 633.24,-455.42"/>
</g>
<!-- lamanalysisgridtransforms_mod -->
<g id="node13" class="node">
<title>lamanalysisgridtransforms_mod</title>
<g id="a_node13"><a xlink:href="../modules/lamanalysisgridtransforms_mod.svg" xlink:title="lamanalysisgridtransforms_mod">
<polygon fill="none" stroke="red" points="713,-377 518,-377 518,-341 713,-341 713,-377"/>
<text text-anchor="middle" x="615.5" y="-355.3" font-family="Times,serif" font-size="14.00">lamanalysisgridtransforms_mod</text>
</a>
</g>
</g>
<!-- bMatrixEnsemble_mod&#45;&gt;lamanalysisgridtransforms_mod -->
<g id="edge12" class="edge">
<title>bMatrixEnsemble_mod&#45;&gt;lamanalysisgridtransforms_mod</title>
<path fill="none" stroke="black" d="M671.44,-628.82C686.51,-588.68 718.12,-486.59 682.5,-413 676.74,-401.1 666.86,-391.06 656.44,-383.02"/>
<polygon fill="black" stroke="black" points="658.2,-379.98 648.03,-377.02 654.13,-385.68 658.2,-379.98"/>
</g>
<!-- lamspectraltransform_mod -->
<g id="node14" class="node">
<title>lamspectraltransform_mod</title>
<g id="a_node14"><a xlink:href="../modules/lamspectraltransform_mod.svg" xlink:title="lamspectraltransform_mod">
<polygon fill="none" stroke="red" points="750,-305 585,-305 585,-269 750,-269 750,-305"/>
<text text-anchor="middle" x="667.5" y="-283.3" font-family="Times,serif" font-size="14.00">lamspectraltransform_mod</text>
</a>
</g>
</g>
<!-- bMatrixEnsemble_mod&#45;&gt;lamspectraltransform_mod -->
<g id="edge13" class="edge">
<title>bMatrixEnsemble_mod&#45;&gt;lamspectraltransform_mod</title>
<path fill="none" stroke="black" d="M680.99,-628.77C703.34,-603.53 740.5,-554.05 740.5,-504 740.5,-504 740.5,-504 740.5,-430 740.5,-389.55 740.98,-376.45 721.5,-341 715.58,-330.23 706.77,-320.25 697.98,-311.92"/>
<polygon fill="black" stroke="black" points="700.1,-309.13 690.33,-305.05 695.43,-314.34 700.1,-309.13"/>
</g>
<!-- localization_mod -->
<g id="node15" class="node">
<title>localization_mod</title>
<g id="a_node15"><a xlink:href="../modules/localization_mod.svg" xlink:title="localization_mod">
<polygon fill="none" stroke="red" points="788,-233 677,-233 677,-197 788,-197 788,-233"/>
<text text-anchor="middle" x="732.5" y="-211.3" font-family="Times,serif" font-size="14.00">localization_mod</text>
</a>
</g>
</g>
<!-- bMatrixEnsemble_mod&#45;&gt;localization_mod -->
<g id="edge14" class="edge">
<title>bMatrixEnsemble_mod&#45;&gt;localization_mod</title>
<path fill="none" stroke="black" d="M691.52,-628.96C725.23,-605.37 778.5,-559.33 778.5,-504 778.5,-504 778.5,-504 778.5,-358 778.5,-317.46 771.97,-307.24 758.5,-269 755.33,-260.01 751.04,-250.56 746.85,-242.16"/>
<polygon fill="black" stroke="black" points="749.93,-240.5 742.23,-233.22 743.71,-243.71 749.93,-240.5"/>
</g>
<!-- mathphysconstants_mod -->
<g id="node16" class="node">
<title>mathphysconstants_mod</title>
<g id="a_node16"><a xlink:href="mathphysconstants_mod.html" xlink:title="mathphysconstants_mod">
<polygon fill="gray" stroke="black" points="826.5,-161 674.5,-161 674.5,-125 826.5,-125 826.5,-161"/>
<text text-anchor="middle" x="750.5" y="-139.3" font-family="Times,serif" font-size="14.00">mathphysconstants_mod</text>
</a>
</g>
</g>
<!-- bMatrixEnsemble_mod&#45;&gt;mathphysconstants_mod -->
<g id="edge15" class="edge">
<title>bMatrixEnsemble_mod&#45;&gt;mathphysconstants_mod</title>
<path fill="none" stroke="black" d="M705.63,-628.9C750.65,-607.12 816.5,-564.85 816.5,-504 816.5,-504 816.5,-504 816.5,-286 816.5,-245.46 814.79,-233.18 796.5,-197 791.42,-186.95 784.01,-177.24 776.61,-168.95"/>
<polygon fill="black" stroke="black" points="778.99,-166.37 769.61,-161.46 773.88,-171.15 778.99,-166.37"/>
</g>
<!-- midasmpi_mod -->
<g id="node17" class="node">
<title>midasmpi_mod</title>
<g id="a_node17"><a xlink:href="../modules/midasmpi_mod.svg" xlink:title="midasmpi_mod">
<polygon fill="none" stroke="red" points="905.5,-89 803.5,-89 803.5,-53 905.5,-53 905.5,-89"/>
<text text-anchor="middle" x="854.5" y="-67.3" font-family="Times,serif" font-size="14.00">midasmpi_mod</text>
</a>
</g>
</g>
<!-- bMatrixEnsemble_mod&#45;&gt;midasmpi_mod -->
<g id="edge16" class="edge">
<title>bMatrixEnsemble_mod&#45;&gt;midasmpi_mod</title>
<path fill="none" stroke="black" d="M724.36,-628.96C780.05,-609.01 854.5,-569.99 854.5,-504 854.5,-504 854.5,-504 854.5,-214 854.5,-174 854.5,-127.65 854.5,-99.08"/>
<polygon fill="black" stroke="black" points="858,-99.05 854.5,-89.05 851,-99.05 858,-99.05"/>
</g>
<!-- spectralfilter_mod -->
<g id="node18" class="node">
<title>spectralfilter_mod</title>
<g id="a_node18"><a xlink:href="spectralfilter_mod.html" xlink:title="spectralfilter_mod">
<polygon fill="gray" stroke="black" points="998.5,-593 882.5,-593 882.5,-557 998.5,-557 998.5,-593"/>
<text text-anchor="middle" x="940.5" y="-571.3" font-family="Times,serif" font-size="14.00">spectralfilter_mod</text>
</a>
</g>
</g>
<!-- bMatrixEnsemble_mod&#45;&gt;spectralfilter_mod -->
<g id="edge17" class="edge">
<title>bMatrixEnsemble_mod&#45;&gt;spectralfilter_mod</title>
<path fill="none" stroke="black" d="M731.66,-628.97C774.45,-618.12 829.69,-604.1 872.61,-593.22"/>
<polygon fill="black" stroke="black" points="873.57,-596.59 882.4,-590.73 871.85,-589.8 873.57,-596.59"/>
</g>
<!-- timecoord_mod -->
<g id="node19" class="node">
<title>timecoord_mod</title>
<g id="a_node19"><a xlink:href="../modules/timecoord_mod.svg" xlink:title="timecoord_mod">
<polygon fill="none" stroke="red" points="1036.5,-521 932.5,-521 932.5,-485 1036.5,-485 1036.5,-521"/>
<text text-anchor="middle" x="984.5" y="-499.3" font-family="Times,serif" font-size="14.00">timecoord_mod</text>
</a>
</g>
</g>
<!-- bMatrixEnsemble_mod&#45;&gt;timecoord_mod -->
<g id="edge18" class="edge">
<title>bMatrixEnsemble_mod&#45;&gt;timecoord_mod</title>
<path fill="none" stroke="black" d="M738.2,-645.39C828.44,-642.89 973.53,-632.63 1007.5,-593 1022.57,-575.43 1013.18,-549.2 1002.21,-529.77"/>
<polygon fill="black" stroke="black" points="1005.14,-527.85 996.97,-521.1 999.15,-531.47 1005.14,-527.85"/>
</g>
<!-- utilities_mod -->
<g id="node20" class="node">
<title>utilities_mod</title>
<g id="a_node20"><a xlink:href="../modules/utilities_mod.svg" xlink:title="utilities_mod">
<polygon fill="none" stroke="red" points="1091,-449 1002,-449 1002,-413 1091,-413 1091,-449"/>
<text text-anchor="middle" x="1046.5" y="-427.3" font-family="Times,serif" font-size="14.00">utilities_mod</text>
</a>
</g>
</g>
<!-- bMatrixEnsemble_mod&#45;&gt;utilities_mod -->
<g id="edge19" class="edge">
<title>bMatrixEnsemble_mod&#45;&gt;utilities_mod</title>
<path fill="none" stroke="black" d="M738.37,-644.42C831.38,-640.9 984.05,-629.56 1025.5,-593 1062.92,-559.99 1058.63,-495.65 1052.42,-459.09"/>
<polygon fill="black" stroke="black" points="1055.84,-458.32 1050.57,-449.13 1048.96,-459.6 1055.84,-458.32"/>
</g>
<!-- varnamelist_mod -->
<g id="node21" class="node">
<title>varnamelist_mod</title>
<g id="a_node21"><a xlink:href="../modules/varnamelist_mod.svg" xlink:title="varnamelist_mod">
<polygon fill="none" stroke="red" points="1176,-377 1063,-377 1063,-341 1176,-341 1176,-377"/>
<text text-anchor="middle" x="1119.5" y="-355.3" font-family="Times,serif" font-size="14.00">varnamelist_mod</text>
</a>
</g>
</g>
<!-- bMatrixEnsemble_mod&#45;&gt;varnamelist_mod -->
<g id="edge20" class="edge">
<title>bMatrixEnsemble_mod&#45;&gt;varnamelist_mod</title>
<path fill="none" stroke="black" d="M738.28,-644.95C837.04,-642.05 1005.18,-631.43 1051.5,-593 1113.46,-541.59 1120.81,-437.15 1120.55,-387.46"/>
<polygon fill="black" stroke="black" points="1124.05,-387.11 1120.39,-377.17 1117.05,-387.22 1124.05,-387.11"/>
</g>
<!-- verticalcoord_mod -->
<g id="node22" class="node">
<title>verticalcoord_mod</title>
<g id="a_node22"><a xlink:href="../modules/verticalcoord_mod.svg" xlink:title="verticalcoord_mod">
<polygon fill="none" stroke="red" points="1264.5,-305 1144.5,-305 1144.5,-269 1264.5,-269 1264.5,-305"/>
<text text-anchor="middle" x="1204.5" y="-283.3" font-family="Times,serif" font-size="14.00">verticalcoord_mod</text>
</a>
</g>
</g>
<!-- bMatrixEnsemble_mod&#45;&gt;verticalcoord_mod -->
<g id="edge21" class="edge">
<title>bMatrixEnsemble_mod&#45;&gt;verticalcoord_mod</title>
<path fill="none" stroke="black" d="M738.07,-641.05C840.58,-633.4 1020.67,-617.04 1081.5,-593 1144.25,-568.2 1204.5,-571.48 1204.5,-504 1204.5,-504 1204.5,-504 1204.5,-430 1204.5,-390 1204.5,-343.65 1204.5,-315.08"/>
<polygon fill="black" stroke="black" points="1208,-315.05 1204.5,-305.05 1201,-315.05 1208,-315.05"/>
</g>
</g>
</svg>
