<?xml version="1.0" encoding="UTF-8" standalone="no"?>
<!DOCTYPE svg PUBLIC "-//W3C//DTD SVG 1.1//EN"
 "http://www.w3.org/Graphics/SVG/1.1/DTD/svg11.dtd">
<!-- Generated by graphviz version 3.0.0 (20220315.2325)
 -->
<!-- Title: bMatrix_mod Pages: 1 -->
<svg width="777pt" height="673pt"
 viewBox="0.00 0.00 777.00 673.00" xmlns="http://www.w3.org/2000/svg" xmlns:xlink="http://www.w3.org/1999/xlink">
<g id="graph0" class="graph" transform="scale(1 1) rotate(0) translate(4 669)">
<title>bMatrix_mod</title>
<polygon fill="white" stroke="transparent" points="-4,4 -4,-669 773,-669 773,4 -4,4"/>
<text text-anchor="middle" x="384.5" y="-649.8" font-family="Times,serif" font-size="14.00">Blue boxes indicate modules with reverse dependencies not shown</text>
<text text-anchor="middle" x="384.5" y="-634.8" font-family="Times,serif" font-size="14.00">Higher level reverse dependencies can be shown by clicking on a blue box</text>
<text text-anchor="middle" x="384.5" y="-619.8" font-family="Times,serif" font-size="14.00">Green boxes are programs</text>
<!-- bMatrix_mod -->
<g id="node1" class="node">
<title>bMatrix_mod</title>
<g id="a_node1"><a xlink:href="bMatrix_mod.html" xlink:title="bMatrix_mod">
<polygon fill="none" stroke="black" points="368,-36 275,-36 275,0 368,0 368,-36"/>
<text text-anchor="middle" x="321.5" y="-14.3" font-family="Times,serif" font-size="14.00">bMatrix_mod</text>
</a>
</g>
</g>
<!-- enspostprocess_mod -->
<g id="node2" class="node">
<title>enspostprocess_mod</title>
<g id="a_node2"><a xlink:href="../modules/enspostprocess_mod_rev.svg" xlink:title="enspostprocess_mod">
<polygon fill="none" stroke="blue" points="129,-108 0,-108 0,-72 129,-72 129,-108"/>
<text text-anchor="middle" x="64.5" y="-86.3" font-family="Times,serif" font-size="14.00">enspostprocess_mod</text>
</a>
</g>
</g>
<!-- enspostprocess_mod&#45;&gt;bMatrix_mod -->
<g id="edge1" class="edge">
<title>enspostprocess_mod&#45;&gt;bMatrix_mod</title>
<path fill="none" stroke="black" d="M134.93,-69.82C179.48,-57.68 235.83,-42.34 274.88,-31.7"/>
<ellipse fill="black" stroke="black" cx="130.9" cy="-70.91" rx="4" ry="4"/>
</g>
<!-- fsoi_mod -->
<g id="node3" class="node">
<title>fsoi_mod</title>
<g id="a_node3"><a xlink:href="../modules/fsoi_mod_rev.svg" xlink:title="fsoi_mod">
<polygon fill="none" stroke="blue" points="179.5,-180 111.5,-180 111.5,-144 179.5,-144 179.5,-180"/>
<text text-anchor="middle" x="145.5" y="-158.3" font-family="Times,serif" font-size="14.00">fsoi_mod</text>
</a>
</g>
</g>
<!-- fsoi_mod&#45;&gt;bMatrix_mod -->
<g id="edge2" class="edge">
<title>fsoi_mod&#45;&gt;bMatrix_mod</title>
<path fill="none" stroke="black" d="M153.68,-136C161.25,-116.31 174.26,-89.37 193.5,-72 216.44,-51.29 248.6,-38.02 274.95,-29.93"/>
<ellipse fill="black" stroke="black" cx="152.23" cy="-139.93" rx="4" ry="4"/>
</g>
<!-- increment_mod -->
<g id="node4" class="node">
<title>increment_mod</title>
<g id="a_node4"><a xlink:href="../modules/increment_mod_rev.svg" xlink:title="increment_mod">
<polygon fill="none" stroke="blue" points="217,-252 114,-252 114,-216 217,-216 217,-252"/>
<text text-anchor="middle" x="165.5" y="-230.3" font-family="Times,serif" font-size="14.00">increment_mod</text>
</a>
</g>
</g>
<!-- increment_mod&#45;&gt;bMatrix_mod -->
<g id="edge3" class="edge">
<title>increment_mod&#45;&gt;bMatrix_mod</title>
<path fill="none" stroke="black" d="M176.36,-208.41C180.25,-199.48 184.63,-189.31 188.5,-180 208.34,-132.3 197.87,-111.22 231.5,-72 244.6,-56.72 263.26,-44.73 280.2,-36.04"/>
<ellipse fill="black" stroke="black" cx="174.7" cy="-212.21" rx="4" ry="4"/>
</g>
<!-- minimization_mod -->
<g id="node5" class="node">
<title>minimization_mod</title>
<g id="a_node5"><a xlink:href="../modules/minimization_mod_rev.svg" xlink:title="minimization_mod">
<polygon fill="none" stroke="blue" points="255.5,-324 133.5,-324 133.5,-288 255.5,-288 255.5,-324"/>
<text text-anchor="middle" x="194.5" y="-302.3" font-family="Times,serif" font-size="14.00">minimization_mod</text>
</a>
</g>
</g>
<!-- minimization_mod&#45;&gt;bMatrix_mod -->
<g id="edge4" class="edge">
<title>minimization_mod&#45;&gt;bMatrix_mod</title>
<path fill="none" stroke="black" d="M210.55,-280.95C215.9,-272.13 221.5,-261.88 225.5,-252 256.39,-175.66 229.45,-143.96 269.5,-72 277.15,-58.26 289.32,-45.58 299.96,-36.07"/>
<ellipse fill="black" stroke="black" cx="208.28" cy="-284.59" rx="4" ry="4"/>
</g>
<!-- obsspacediag_mod -->
<g id="node6" class="node">
<title>obsspacediag_mod</title>
<g id="a_node6"><a xlink:href="../modules/obsspacediag_mod_rev.svg" xlink:title="obsspacediag_mod">
<polygon fill="none" stroke="blue" points="293.5,-396 173.5,-396 173.5,-360 293.5,-360 293.5,-396"/>
<text text-anchor="middle" x="233.5" y="-374.3" font-family="Times,serif" font-size="14.00">obsspacediag_mod</text>
</a>
</g>
</g>
<!-- obsspacediag_mod&#45;&gt;bMatrix_mod -->
<g id="edge5" class="edge">
<title>obsspacediag_mod&#45;&gt;bMatrix_mod</title>
<path fill="none" stroke="black" d="M249.96,-352.6C255.25,-343.88 260.71,-333.78 264.5,-324 279.12,-286.29 283.5,-275.45 283.5,-235 283.5,-235 283.5,-235 283.5,-161 283.5,-114.55 302.71,-62.38 313.81,-36.09"/>
<ellipse fill="black" stroke="black" cx="247.73" cy="-356.18" rx="4" ry="4"/>
</g>
<!-- midas_midas_diagbmatrix -->
<g id="node7" class="node">
<title>midas_midas_diagbmatrix</title>
<g id="a_node7"><a xlink:href="../programs/midas_diagbmatrix.html" xlink:title="midas_midas_diagbmatrix">
<polygon fill="gray" stroke="green" points="331,-468 168,-468 168,-432 331,-432 331,-468"/>
<text text-anchor="middle" x="249.5" y="-446.3" font-family="Times,serif" font-size="14.00">midas_midas_diagbmatrix</text>
</a>
</g>
</g>
<!-- midas_midas_diagbmatrix&#45;&gt;bMatrix_mod -->
<g id="edge6" class="edge">
<title>midas_midas_diagbmatrix&#45;&gt;bMatrix_mod</title>
<path fill="none" stroke="black" d="M277.84,-426.49C286.98,-417.86 296.33,-407.35 302.5,-396 321.82,-360.46 321.5,-347.45 321.5,-307 321.5,-307 321.5,-307 321.5,-161 321.5,-115.89 321.5,-62.71 321.5,-36.05"/>
<ellipse fill="black" stroke="black" cx="274.86" cy="-429.18" rx="4" ry="4"/>
</g>
<!-- midas_midas_diaghbht -->
<g id="node8" class="node">
<title>midas_midas_diaghbht</title>
<g id="a_node8"><a xlink:href="../programs/midas_diaghbht.html" xlink:title="midas_midas_diaghbht">
<polygon fill="gray" stroke="green" points="369,-540 226,-540 226,-504 369,-504 369,-540"/>
<text text-anchor="middle" x="297.5" y="-518.3" font-family="Times,serif" font-size="14.00">midas_midas_diaghbht</text>
</a>
</g>
</g>
<!-- midas_midas_diaghbht&#45;&gt;bMatrix_mod -->
<g id="edge7" class="edge">
<title>midas_midas_diaghbht&#45;&gt;bMatrix_mod</title>
<path fill="none" stroke="black" d="M319.9,-497.43C327.1,-488.75 334.5,-478.47 339.5,-468 356.97,-431.42 359.5,-419.54 359.5,-379 359.5,-379 359.5,-379 359.5,-161 359.5,-114.55 340.29,-62.38 329.19,-36.09"/>
<ellipse fill="black" stroke="black" cx="317.09" cy="-500.7" rx="4" ry="4"/>
</g>
<!-- midas_midas_extractbmatrixfor1dvar -->
<g id="node9" class="node">
<title>midas_midas_extractbmatrixfor1dvar</title>
<g id="a_node9"><a xlink:href="../programs/midas_extractbmatrixfor1dvar.html" xlink:title="midas_midas_extractbmatrixfor1dvar">
<polygon fill="gray" stroke="green" points="509,-612 286,-612 286,-576 509,-576 509,-612"/>
<text text-anchor="middle" x="397.5" y="-590.3" font-family="Times,serif" font-size="14.00">midas_midas_extractbmatrixfor1dvar</text>
</a>
</g>
</g>
<!-- midas_midas_extractbmatrixfor1dvar&#45;&gt;bMatrix_mod -->
<g id="edge8" class="edge">
<title>midas_midas_extractbmatrixfor1dvar&#45;&gt;bMatrix_mod</title>
<path fill="none" stroke="black" d="M397.5,-567.78C397.5,-539.39 397.5,-491.89 397.5,-451 397.5,-451 397.5,-451 397.5,-161 397.5,-110.95 360.34,-61.47 337.99,-36.23"/>
<ellipse fill="black" stroke="black" cx="397.5" cy="-571.95" rx="4" ry="4"/>
</g>
<!-- midas_midas_obsimpact -->
<g id="node10" class="node">
<title>midas_midas_obsimpact</title>
<g id="a_node10"><a xlink:href="../programs/midas_obsimpact.html" xlink:title="midas_midas_obsimpact">
<polygon fill="gray" stroke="green" points="577.5,-108 425.5,-108 425.5,-72 577.5,-72 577.5,-108"/>
<text text-anchor="middle" x="501.5" y="-86.3" font-family="Times,serif" font-size="14.00">midas_midas_obsimpact</text>
</a>
</g>
</g>
<!-- midas_midas_obsimpact&#45;&gt;bMatrix_mod -->
<g id="edge9" class="edge">
<title>midas_midas_obsimpact&#45;&gt;bMatrix_mod</title>
<path fill="none" stroke="black" d="M449.74,-68.87C423.05,-58.49 390.85,-45.97 365.39,-36.07"/>
<ellipse fill="black" stroke="black" cx="453.74" cy="-70.43" rx="4" ry="4"/>
</g>
<!-- midas_midas_randompert -->
<g id="node11" class="node">
<title>midas_midas_randompert</title>
<g id="a_node11"><a xlink:href="../programs/midas_randompert.html" xlink:title="midas_midas_randompert">
<polygon fill="gray" stroke="green" points="685,-180 526,-180 526,-144 685,-144 685,-180"/>
<text text-anchor="middle" x="605.5" y="-158.3" font-family="Times,serif" font-size="14.00">midas_midas_randompert</text>
</a>
</g>
</g>
<!-- midas_midas_randompert&#45;&gt;bMatrix_mod -->
<g id="edge10" class="edge">
<title>midas_midas_randompert&#45;&gt;bMatrix_mod</title>
<path fill="none" stroke="black" d="M607.09,-135.57C606.88,-115.56 603.13,-88.41 586.5,-72 556.2,-42.09 435.66,-27.95 368.07,-22.25"/>
<ellipse fill="black" stroke="black" cx="607.04" cy="-139.65" rx="4" ry="4"/>
</g>
<!-- midas_midas_var -->
<g id="node12" class="node">
<title>midas_midas_var</title>
<g id="a_node12"><a xlink:href="../programs/midas_var.html" xlink:title="midas_midas_var">
<polygon fill="gray" stroke="green" points="769,-252 656,-252 656,-216 769,-216 769,-252"/>
<text text-anchor="middle" x="712.5" y="-230.3" font-family="Times,serif" font-size="14.00">midas_midas_var</text>
</a>
</g>
</g>
<!-- midas_midas_var&#45;&gt;bMatrix_mod -->
<g id="edge11" class="edge">
<title>midas_midas_var&#45;&gt;bMatrix_mod</title>
<path fill="none" stroke="black" d="M711.41,-207.67C709.62,-188.95 705.05,-163.43 693.5,-144 668.38,-101.73 653.88,-93.18 609.5,-72 530.35,-34.23 427.1,-23.29 368.17,-20.18"/>
<ellipse fill="black" stroke="black" cx="711.74" cy="-211.77" rx="4" ry="4"/>
</g>
</g>
</svg>
