<?xml version="1.0" encoding="UTF-8" standalone="no"?>
<!DOCTYPE svg PUBLIC "-//W3C//DTD SVG 1.1//EN"
 "http://www.w3.org/Graphics/SVG/1.1/DTD/svg11.dtd">
<!-- Generated by graphviz version 3.0.0 (20220315.2325)
 -->
<!-- Title: bMatrixChem_mod Pages: 1 -->
<svg width="613pt" height="673pt"
 viewBox="0.00 0.00 612.50 673.00" xmlns="http://www.w3.org/2000/svg" xmlns:xlink="http://www.w3.org/1999/xlink">
<g id="graph0" class="graph" transform="scale(1 1) rotate(0) translate(4 669)">
<title>bMatrixChem_mod</title>
<polygon fill="white" stroke="transparent" points="-4,4 -4,-669 608.5,-669 608.5,4 -4,4"/>
<text text-anchor="middle" x="302.25" y="-37.8" font-family="Times,serif" font-size="14.00">Red boxes indicate modules with dependencies not shown</text>
<text text-anchor="middle" x="302.25" y="-22.8" font-family="Times,serif" font-size="14.00">Lower level dependencies can be shown by clicking on a red box</text>
<text text-anchor="middle" x="302.25" y="-7.8" font-family="Times,serif" font-size="14.00">Shaded boxes indicate modules with no dependencies</text>
<!-- bMatrixChem_mod -->
<g id="node1" class="node">
<title>bMatrixChem_mod</title>
<g id="a_node1"><a xlink:href="bMatrixChem_mod.html" xlink:title="bMatrixChem_mod">
<polygon fill="none" stroke="black" points="387.5,-665 261.5,-665 261.5,-629 387.5,-629 387.5,-665"/>
<text text-anchor="middle" x="324.5" y="-643.3" font-family="Times,serif" font-size="14.00">bMatrixChem_mod</text>
</a>
</g>
</g>
<!-- bcovarsetupchem_mod -->
<g id="node2" class="node">
<title>bcovarsetupchem_mod</title>
<g id="a_node2"><a xlink:href="../modules/bcovarsetupchem_mod.svg" xlink:title="bcovarsetupchem_mod">
<polygon fill="none" stroke="red" points="143,-593 0,-593 0,-557 143,-557 143,-593"/>
<text text-anchor="middle" x="71.5" y="-571.3" font-family="Times,serif" font-size="14.00">bcovarsetupchem_mod</text>
</a>
</g>
</g>
<!-- bMatrixChem_mod&#45;&gt;bcovarsetupchem_mod -->
<g id="edge1" class="edge">
<title>bMatrixChem_mod&#45;&gt;bcovarsetupchem_mod</title>
<path fill="none" stroke="black" d="M262.93,-628.97C226.81,-618.97 181.01,-606.3 143.26,-595.85"/>
<polygon fill="black" stroke="black" points="143.91,-592.4 133.34,-593.11 142.05,-599.15 143.91,-592.4"/>
</g>
<!-- globalspectraltransform_mod -->
<g id="node3" class="node">
<title>globalspectraltransform_mod</title>
<g id="a_node3"><a xlink:href="../modules/globalspectraltransform_mod.svg" xlink:title="globalspectraltransform_mod">
<polygon fill="none" stroke="red" points="220.5,-521 42.5,-521 42.5,-485 220.5,-485 220.5,-521"/>
<text text-anchor="middle" x="131.5" y="-499.3" font-family="Times,serif" font-size="14.00">globalspectraltransform_mod</text>
</a>
</g>
</g>
<!-- bMatrixChem_mod&#45;&gt;globalspectraltransform_mod -->
<g id="edge2" class="edge">
<title>bMatrixChem_mod&#45;&gt;globalspectraltransform_mod</title>
<path fill="none" stroke="black" d="M292.39,-628.95C274.81,-619.16 252.92,-606.21 234.5,-593 206.53,-572.93 177.04,-546.89 156.82,-528.16"/>
<polygon fill="black" stroke="black" points="158.98,-525.39 149.28,-521.12 154.2,-530.51 158.98,-525.39"/>
</g>
<!-- gridstatevector_mod -->
<g id="node4" class="node">
<title>gridstatevector_mod</title>
<g id="a_node4"><a xlink:href="../modules/gridstatevector_mod.svg" xlink:title="gridstatevector_mod">
<polygon fill="none" stroke="red" points="258.5,-449 128.5,-449 128.5,-413 258.5,-413 258.5,-449"/>
<text text-anchor="middle" x="193.5" y="-427.3" font-family="Times,serif" font-size="14.00">gridstatevector_mod</text>
</a>
</g>
</g>
<!-- bMatrixChem_mod&#45;&gt;gridstatevector_mod -->
<g id="edge3" class="edge">
<title>bMatrixChem_mod&#45;&gt;gridstatevector_mod</title>
<path fill="none" stroke="black" d="M304.24,-628.94C293.7,-619.25 281.22,-606.39 272.5,-593 244.3,-549.71 253.71,-530.64 229.5,-485 224.55,-475.67 218.31,-465.96 212.43,-457.44"/>
<polygon fill="black" stroke="black" points="215.13,-455.2 206.5,-449.07 209.42,-459.25 215.13,-455.2"/>
</g>
<!-- gridvariabletransforms_mod -->
<g id="node5" class="node">
<title>gridvariabletransforms_mod</title>
<g id="a_node5"><a xlink:href="../modules/gridvariabletransforms_mod.svg" xlink:title="gridvariabletransforms_mod">
<polygon fill="none" stroke="red" points="296,-377 121,-377 121,-341 296,-341 296,-377"/>
<text text-anchor="middle" x="208.5" y="-355.3" font-family="Times,serif" font-size="14.00">gridvariabletransforms_mod</text>
</a>
</g>
</g>
<!-- bMatrixChem_mod&#45;&gt;gridvariabletransforms_mod -->
<g id="edge4" class="edge">
<title>bMatrixChem_mod&#45;&gt;gridvariabletransforms_mod</title>
<path fill="none" stroke="black" d="M319.86,-628.84C317.08,-618.48 313.52,-605 310.5,-593 290.44,-513.23 309.56,-483.69 267.5,-413 260.95,-402 251.38,-392 241.84,-383.72"/>
<polygon fill="black" stroke="black" points="243.85,-380.84 233.91,-377.19 239.41,-386.25 243.85,-380.84"/>
</g>
<!-- horizontalcoord_mod -->
<g id="node6" class="node">
<title>horizontalcoord_mod</title>
<g id="a_node6"><a xlink:href="../modules/horizontalcoord_mod.svg" xlink:title="horizontalcoord_mod">
<polygon fill="none" stroke="red" points="334.5,-305 200.5,-305 200.5,-269 334.5,-269 334.5,-305"/>
<text text-anchor="middle" x="267.5" y="-283.3" font-family="Times,serif" font-size="14.00">horizontalcoord_mod</text>
</a>
</g>
</g>
<!-- bMatrixChem_mod&#45;&gt;horizontalcoord_mod -->
<g id="edge5" class="edge">
<title>bMatrixChem_mod&#45;&gt;horizontalcoord_mod</title>
<path fill="none" stroke="black" d="M324.5,-628.95C324.5,-602.29 324.5,-549.11 324.5,-504 324.5,-504 324.5,-504 324.5,-430 324.5,-389.46 320.86,-378.1 304.5,-341 300.27,-331.4 294.19,-321.74 288.18,-313.35"/>
<polygon fill="black" stroke="black" points="290.81,-311.02 282.02,-305.11 285.21,-315.22 290.81,-311.02"/>
</g>
<!-- midasmpi_mod -->
<g id="node7" class="node">
<title>midasmpi_mod</title>
<g id="a_node7"><a xlink:href="../modules/midasmpi_mod.svg" xlink:title="midasmpi_mod">
<polygon fill="none" stroke="red" points="372.5,-233 270.5,-233 270.5,-197 372.5,-197 372.5,-233"/>
<text text-anchor="middle" x="321.5" y="-211.3" font-family="Times,serif" font-size="14.00">midasmpi_mod</text>
</a>
</g>
</g>
<!-- bMatrixChem_mod&#45;&gt;midasmpi_mod -->
<g id="edge6" class="edge">
<title>bMatrixChem_mod&#45;&gt;midasmpi_mod</title>
<path fill="none" stroke="black" d="M332.19,-628.91C343.29,-602.62 362.5,-550.45 362.5,-504 362.5,-504 362.5,-504 362.5,-358 362.5,-316.41 346.06,-270.56 334,-242.51"/>
<polygon fill="black" stroke="black" points="337.05,-240.75 329.8,-233.03 330.65,-243.59 337.05,-240.75"/>
</g>
<!-- utilities_mod -->
<g id="node8" class="node">
<title>utilities_mod</title>
<g id="a_node8"><a xlink:href="../modules/utilities_mod.svg" xlink:title="utilities_mod">
<polygon fill="none" stroke="red" points="428,-161 339,-161 339,-125 428,-125 428,-161"/>
<text text-anchor="middle" x="383.5" y="-139.3" font-family="Times,serif" font-size="14.00">utilities_mod</text>
</a>
</g>
</g>
<!-- bMatrixChem_mod&#45;&gt;utilities_mod -->
<g id="edge7" class="edge">
<title>bMatrixChem_mod&#45;&gt;utilities_mod</title>
<path fill="none" stroke="black" d="M340.99,-628.77C363.34,-603.53 400.5,-554.05 400.5,-504 400.5,-504 400.5,-504 400.5,-286 400.5,-245.93 393.74,-199.95 388.75,-171.43"/>
<polygon fill="black" stroke="black" points="392.16,-170.63 386.94,-161.41 385.27,-171.87 392.16,-170.63"/>
</g>
<!-- varnamelist_mod -->
<g id="node9" class="node">
<title>varnamelist_mod</title>
<g id="a_node9"><a xlink:href="../modules/varnamelist_mod.svg" xlink:title="varnamelist_mod">
<polygon fill="none" stroke="red" points="513,-89 400,-89 400,-53 513,-53 513,-89"/>
<text text-anchor="middle" x="456.5" y="-67.3" font-family="Times,serif" font-size="14.00">varnamelist_mod</text>
</a>
</g>
</g>
<!-- bMatrixChem_mod&#45;&gt;varnamelist_mod -->
<g id="edge8" class="edge">
<title>bMatrixChem_mod&#45;&gt;varnamelist_mod</title>
<path fill="none" stroke="black" d="M357.81,-628.87C396.91,-606.09 456.5,-561.89 456.5,-504 456.5,-504 456.5,-504 456.5,-214 456.5,-174 456.5,-127.65 456.5,-99.08"/>
<polygon fill="black" stroke="black" points="460,-99.05 456.5,-89.05 453,-99.05 460,-99.05"/>
</g>
<!-- verticalcoord_mod -->
<g id="node10" class="node">
<title>verticalcoord_mod</title>
<g id="a_node10"><a xlink:href="../modules/verticalcoord_mod.svg" xlink:title="verticalcoord_mod">
<polygon fill="none" stroke="red" points="604.5,-593 484.5,-593 484.5,-557 604.5,-557 604.5,-593"/>
<text text-anchor="middle" x="544.5" y="-571.3" font-family="Times,serif" font-size="14.00">verticalcoord_mod</text>
</a>
</g>
</g>
<!-- bMatrixChem_mod&#45;&gt;verticalcoord_mod -->
<g id="edge9" class="edge">
<title>bMatrixChem_mod&#45;&gt;verticalcoord_mod</title>
<path fill="none" stroke="black" d="M378.04,-628.97C409.04,-619.1 448.26,-606.62 480.84,-596.25"/>
<polygon fill="black" stroke="black" points="482.26,-599.48 490.72,-593.11 480.13,-592.81 482.26,-599.48"/>
</g>
</g>
</svg>
