<?xml version="1.0" encoding="UTF-8" standalone="no"?>
<!DOCTYPE svg PUBLIC "-//W3C//DTD SVG 1.1//EN"
 "http://www.w3.org/Graphics/SVG/1.1/DTD/svg11.dtd">
<!-- Generated by graphviz version 3.0.0 (20220315.2325)
 -->
<!-- Title: bMatrixDiff_mod Pages: 1 -->
<svg width="560pt" height="673pt"
 viewBox="0.00 0.00 560.00 673.00" xmlns="http://www.w3.org/2000/svg" xmlns:xlink="http://www.w3.org/1999/xlink">
<g id="graph0" class="graph" transform="scale(1 1) rotate(0) translate(4 669)">
<title>bMatrixDiff_mod</title>
<polygon fill="white" stroke="transparent" points="-4,4 -4,-669 556,-669 556,4 -4,4"/>
<text text-anchor="middle" x="276" y="-37.8" font-family="Times,serif" font-size="14.00">Red boxes indicate modules with dependencies not shown</text>
<text text-anchor="middle" x="276" y="-22.8" font-family="Times,serif" font-size="14.00">Lower level dependencies can be shown by clicking on a red box</text>
<text text-anchor="middle" x="276" y="-7.8" font-family="Times,serif" font-size="14.00">Shaded boxes indicate modules with no dependencies</text>
<!-- bMatrixDiff_mod -->
<g id="node1" class="node">
<title>bMatrixDiff_mod</title>
<g id="a_node1"><a xlink:href="bMatrixDiff_mod.html" xlink:title="bMatrixDiff_mod">
<polygon fill="none" stroke="black" points="329.5,-665 214.5,-665 214.5,-629 329.5,-629 329.5,-665"/>
<text text-anchor="middle" x="272" y="-643.3" font-family="Times,serif" font-size="14.00">bMatrixDiff_mod</text>
</a>
</g>
</g>
<!-- diffusion_mod -->
<g id="node2" class="node">
<title>diffusion_mod</title>
<g id="a_node2"><a xlink:href="../modules/diffusion_mod.svg" xlink:title="diffusion_mod">
<polygon fill="none" stroke="red" points="96,-593 0,-593 0,-557 96,-557 96,-593"/>
<text text-anchor="middle" x="48" y="-571.3" font-family="Times,serif" font-size="14.00">diffusion_mod</text>
</a>
</g>
</g>
<!-- bMatrixDiff_mod&#45;&gt;diffusion_mod -->
<g id="edge1" class="edge">
<title>bMatrixDiff_mod&#45;&gt;diffusion_mod</title>
<path fill="none" stroke="black" d="M217.49,-628.97C183.78,-618.43 140.54,-604.92 106.17,-594.18"/>
<polygon fill="black" stroke="black" points="106.86,-590.73 96.27,-591.08 104.77,-597.41 106.86,-590.73"/>
</g>
<!-- gridstatevectorfileio_mod -->
<g id="node3" class="node">
<title>gridstatevectorfileio_mod</title>
<g id="a_node3"><a xlink:href="../modules/gridstatevectorfileio_mod.svg" xlink:title="gridstatevectorfileio_mod">
<polygon fill="none" stroke="red" points="168,-521 10,-521 10,-485 168,-485 168,-521"/>
<text text-anchor="middle" x="89" y="-499.3" font-family="Times,serif" font-size="14.00">gridstatevectorfileio_mod</text>
</a>
</g>
</g>
<!-- bMatrixDiff_mod&#45;&gt;gridstatevectorfileio_mod -->
<g id="edge2" class="edge">
<title>bMatrixDiff_mod&#45;&gt;gridstatevectorfileio_mod</title>
<path fill="none" stroke="black" d="M238.77,-628.85C221.26,-619.22 199.78,-606.46 182,-593 156.27,-573.53 129.98,-547.71 111.95,-528.9"/>
<polygon fill="black" stroke="black" points="114.17,-526.16 104.75,-521.31 109.09,-530.97 114.17,-526.16"/>
</g>
<!-- gridstatevector_mod -->
<g id="node4" class="node">
<title>gridstatevector_mod</title>
<g id="a_node4"><a xlink:href="../modules/gridstatevector_mod.svg" xlink:title="gridstatevector_mod">
<polygon fill="none" stroke="red" points="206,-449 76,-449 76,-413 206,-413 206,-449"/>
<text text-anchor="middle" x="141" y="-427.3" font-family="Times,serif" font-size="14.00">gridstatevector_mod</text>
</a>
</g>
</g>
<!-- bMatrixDiff_mod&#45;&gt;gridstatevector_mod -->
<g id="edge3" class="edge">
<title>bMatrixDiff_mod&#45;&gt;gridstatevector_mod</title>
<path fill="none" stroke="black" d="M251.74,-628.94C241.2,-619.25 228.72,-606.39 220,-593 191.8,-549.71 201.21,-530.64 177,-485 172.05,-475.67 165.81,-465.96 159.93,-457.44"/>
<polygon fill="black" stroke="black" points="162.63,-455.2 154,-449.07 156.92,-459.25 162.63,-455.2"/>
</g>
<!-- horizontalcoord_mod -->
<g id="node5" class="node">
<title>horizontalcoord_mod</title>
<g id="a_node5"><a xlink:href="../modules/horizontalcoord_mod.svg" xlink:title="horizontalcoord_mod">
<polygon fill="none" stroke="red" points="244,-377 110,-377 110,-341 244,-341 244,-377"/>
<text text-anchor="middle" x="177" y="-355.3" font-family="Times,serif" font-size="14.00">horizontalcoord_mod</text>
</a>
</g>
</g>
<!-- bMatrixDiff_mod&#45;&gt;horizontalcoord_mod -->
<g id="edge4" class="edge">
<title>bMatrixDiff_mod&#45;&gt;horizontalcoord_mod</title>
<path fill="none" stroke="black" d="M267.36,-628.84C264.58,-618.48 261.02,-605 258,-593 237.94,-513.23 249.16,-487.82 215,-413 210.56,-403.27 204.22,-393.5 197.98,-385.04"/>
<polygon fill="black" stroke="black" points="200.73,-382.88 191.86,-377.08 195.18,-387.14 200.73,-382.88"/>
</g>
<!-- midasmpi_mod -->
<g id="node6" class="node">
<title>midasmpi_mod</title>
<g id="a_node6"><a xlink:href="../modules/midasmpi_mod.svg" xlink:title="midasmpi_mod">
<polygon fill="none" stroke="red" points="282,-305 180,-305 180,-269 282,-269 282,-305"/>
<text text-anchor="middle" x="231" y="-283.3" font-family="Times,serif" font-size="14.00">midasmpi_mod</text>
</a>
</g>
</g>
<!-- bMatrixDiff_mod&#45;&gt;midasmpi_mod -->
<g id="edge5" class="edge">
<title>bMatrixDiff_mod&#45;&gt;midasmpi_mod</title>
<path fill="none" stroke="black" d="M272,-628.95C272,-602.29 272,-549.11 272,-504 272,-504 272,-504 272,-430 272,-388.41 255.56,-342.56 243.5,-314.51"/>
<polygon fill="black" stroke="black" points="246.55,-312.75 239.3,-305.03 240.15,-315.59 246.55,-312.75"/>
</g>
<!-- physicsfunctions_mod -->
<g id="node7" class="node">
<title>physicsfunctions_mod</title>
<g id="a_node7"><a xlink:href="../modules/physicsfunctions_mod.svg" xlink:title="physicsfunctions_mod">
<polygon fill="none" stroke="red" points="319.5,-233 180.5,-233 180.5,-197 319.5,-197 319.5,-233"/>
<text text-anchor="middle" x="250" y="-211.3" font-family="Times,serif" font-size="14.00">physicsfunctions_mod</text>
</a>
</g>
</g>
<!-- bMatrixDiff_mod&#45;&gt;physicsfunctions_mod -->
<g id="edge6" class="edge">
<title>bMatrixDiff_mod&#45;&gt;physicsfunctions_mod</title>
<path fill="none" stroke="black" d="M279.69,-628.91C290.79,-602.62 310,-550.45 310,-504 310,-504 310,-504 310,-358 310,-317.55 308.02,-305.69 291,-269 286.45,-259.19 279.79,-249.51 273.16,-241.16"/>
<polygon fill="black" stroke="black" points="275.71,-238.75 266.62,-233.3 270.33,-243.23 275.71,-238.75"/>
</g>
<!-- utilities_mod -->
<g id="node8" class="node">
<title>utilities_mod</title>
<g id="a_node8"><a xlink:href="../modules/utilities_mod.svg" xlink:title="utilities_mod">
<polygon fill="none" stroke="red" points="375.5,-161 286.5,-161 286.5,-125 375.5,-125 375.5,-161"/>
<text text-anchor="middle" x="331" y="-139.3" font-family="Times,serif" font-size="14.00">utilities_mod</text>
</a>
</g>
</g>
<!-- bMatrixDiff_mod&#45;&gt;utilities_mod -->
<g id="edge7" class="edge">
<title>bMatrixDiff_mod&#45;&gt;utilities_mod</title>
<path fill="none" stroke="black" d="M288.49,-628.77C310.84,-603.53 348,-554.05 348,-504 348,-504 348,-504 348,-286 348,-245.93 341.24,-199.95 336.25,-171.43"/>
<polygon fill="black" stroke="black" points="339.66,-170.63 334.44,-161.41 332.77,-171.87 339.66,-170.63"/>
</g>
<!-- varnamelist_mod -->
<g id="node9" class="node">
<title>varnamelist_mod</title>
<g id="a_node9"><a xlink:href="../modules/varnamelist_mod.svg" xlink:title="varnamelist_mod">
<polygon fill="none" stroke="red" points="460.5,-89 347.5,-89 347.5,-53 460.5,-53 460.5,-89"/>
<text text-anchor="middle" x="404" y="-67.3" font-family="Times,serif" font-size="14.00">varnamelist_mod</text>
</a>
</g>
</g>
<!-- bMatrixDiff_mod&#45;&gt;varnamelist_mod -->
<g id="edge8" class="edge">
<title>bMatrixDiff_mod&#45;&gt;varnamelist_mod</title>
<path fill="none" stroke="black" d="M305.31,-628.87C344.41,-606.09 404,-561.89 404,-504 404,-504 404,-504 404,-214 404,-174 404,-127.65 404,-99.08"/>
<polygon fill="black" stroke="black" points="407.5,-99.05 404,-89.05 400.5,-99.05 407.5,-99.05"/>
</g>
<!-- verticalcoord_mod -->
<g id="node10" class="node">
<title>verticalcoord_mod</title>
<g id="a_node10"><a xlink:href="../modules/verticalcoord_mod.svg" xlink:title="verticalcoord_mod">
<polygon fill="none" stroke="red" points="552,-593 432,-593 432,-557 552,-557 552,-593"/>
<text text-anchor="middle" x="492" y="-571.3" font-family="Times,serif" font-size="14.00">verticalcoord_mod</text>
</a>
</g>
</g>
<!-- bMatrixDiff_mod&#45;&gt;verticalcoord_mod -->
<g id="edge9" class="edge">
<title>bMatrixDiff_mod&#45;&gt;verticalcoord_mod</title>
<path fill="none" stroke="black" d="M325.54,-628.97C356.54,-619.1 395.76,-606.62 428.34,-596.25"/>
<polygon fill="black" stroke="black" points="429.76,-599.48 438.22,-593.11 427.63,-592.81 429.76,-599.48"/>
</g>
</g>
</svg>
