<?xml version="1.0" encoding="UTF-8" standalone="no"?>
<!DOCTYPE svg PUBLIC "-//W3C//DTD SVG 1.1//EN"
 "http://www.w3.org/Graphics/SVG/1.1/DTD/svg11.dtd">
<!-- Generated by graphviz version 3.0.0 (20220315.2325)
 -->
<!-- Title: bufr_mod Pages: 1 -->
<svg width="1295pt" height="673pt"
 viewBox="0.00 0.00 1295.00 673.00" xmlns="http://www.w3.org/2000/svg" xmlns:xlink="http://www.w3.org/1999/xlink">
<g id="graph0" class="graph" transform="scale(1 1) rotate(0) translate(4 669)">
<title>bufr_mod</title>
<polygon fill="white" stroke="transparent" points="-4,4 -4,-669 1291,-669 1291,4 -4,4"/>
<text text-anchor="middle" x="643.5" y="-649.8" font-family="Times,serif" font-size="14.00">Blue boxes indicate modules with reverse dependencies not shown</text>
<text text-anchor="middle" x="643.5" y="-634.8" font-family="Times,serif" font-size="14.00">Higher level reverse dependencies can be shown by clicking on a blue box</text>
<text text-anchor="middle" x="643.5" y="-619.8" font-family="Times,serif" font-size="14.00">Green boxes are programs</text>
<!-- bufr_mod -->
<g id="node1" class="node">
<title>bufr_mod</title>
<g id="a_node1"><a xlink:href="bufr_mod.html" xlink:title="bufr_mod">
<polygon fill="none" stroke="black" points="688.5,-36 617.5,-36 617.5,0 688.5,0 688.5,-36"/>
<text text-anchor="middle" x="653" y="-14.3" font-family="Times,serif" font-size="14.00">bufr_mod</text>
</a>
</g>
</g>
<!-- backgroundcheck_mod -->
<g id="node2" class="node">
<title>backgroundcheck_mod</title>
<g id="a_node2"><a xlink:href="../modules/backgroundcheck_mod_rev.svg" xlink:title="backgroundcheck_mod">
<polygon fill="none" stroke="blue" points="144,-108 0,-108 0,-72 144,-72 144,-108"/>
<text text-anchor="middle" x="72" y="-86.3" font-family="Times,serif" font-size="14.00">backgroundcheck_mod</text>
</a>
</g>
</g>
<!-- backgroundcheck_mod&#45;&gt;bufr_mod -->
<g id="edge1" class="edge">
<title>backgroundcheck_mod&#45;&gt;bufr_mod</title>
<path fill="none" stroke="black" d="M152.44,-72.87C154.31,-72.57 156.17,-72.28 158,-72 329.32,-45.95 535.92,-28.19 617.45,-21.72"/>
<ellipse fill="black" stroke="black" cx="148.13" cy="-73.59" rx="4" ry="4"/>
</g>
<!-- bgckocean_mod -->
<g id="node3" class="node">
<title>bgckocean_mod</title>
<g id="a_node3"><a xlink:href="../modules/bgckocean_mod_rev.svg" xlink:title="bgckocean_mod">
<polygon fill="none" stroke="blue" points="203,-180 97,-180 97,-144 203,-144 203,-180"/>
<text text-anchor="middle" x="150" y="-158.3" font-family="Times,serif" font-size="14.00">bgckocean_mod</text>
</a>
</g>
</g>
<!-- bgckocean_mod&#45;&gt;bufr_mod -->
<g id="edge2" class="edge">
<title>bgckocean_mod&#45;&gt;bufr_mod</title>
<path fill="none" stroke="black" d="M161.32,-136.63C172.4,-115.76 191.34,-86.8 217,-72 285.03,-32.76 525.89,-22.35 617.39,-19.78"/>
<ellipse fill="black" stroke="black" cx="159.42" cy="-140.35" rx="4" ry="4"/>
</g>
<!-- biascorrectionconv_mod -->
<g id="node4" class="node">
<title>biascorrectionconv_mod</title>
<g id="a_node4"><a xlink:href="../modules/biascorrectionconv_mod_rev.svg" xlink:title="biascorrectionconv_mod">
<polygon fill="none" stroke="blue" points="241,-252 89,-252 89,-216 241,-216 241,-252"/>
<text text-anchor="middle" x="165" y="-230.3" font-family="Times,serif" font-size="14.00">biascorrectionconv_mod</text>
</a>
</g>
</g>
<!-- biascorrectionconv_mod&#45;&gt;bufr_mod -->
<g id="edge3" class="edge">
<title>biascorrectionconv_mod&#45;&gt;bufr_mod</title>
<path fill="none" stroke="black" d="M188.95,-209.55C197,-200.8 205.56,-190.45 212,-180 239.1,-136.01 214.25,-103.76 255,-72 311.08,-28.29 530.51,-20.59 617.35,-19.26"/>
<ellipse fill="black" stroke="black" cx="185.97" cy="-212.71" rx="4" ry="4"/>
</g>
<!-- burpfiles_mod -->
<g id="node5" class="node">
<title>burpfiles_mod</title>
<g id="a_node5"><a xlink:href="../modules/burpfiles_mod_rev.svg" xlink:title="burpfiles_mod">
<polygon fill="none" stroke="blue" points="279,-324 183,-324 183,-288 279,-288 279,-324"/>
<text text-anchor="middle" x="231" y="-302.3" font-family="Times,serif" font-size="14.00">burpfiles_mod</text>
</a>
</g>
</g>
<!-- burpfiles_mod&#45;&gt;bufr_mod -->
<g id="edge4" class="edge">
<title>burpfiles_mod&#45;&gt;bufr_mod</title>
<path fill="none" stroke="black" d="M240.51,-280.26C243.73,-271.41 247.22,-261.32 250,-252 273.47,-173.17 232.33,-127.54 293,-72 339.95,-29.03 536.02,-20.87 617.38,-19.34"/>
<ellipse fill="black" stroke="black" cx="239.03" cy="-284.22" rx="4" ry="4"/>
</g>
<!-- burpread_mod -->
<g id="node6" class="node">
<title>burpread_mod</title>
<g id="a_node6"><a xlink:href="../modules/burpread_mod_rev.svg" xlink:title="burpread_mod">
<polygon fill="none" stroke="blue" points="316.5,-396 219.5,-396 219.5,-360 316.5,-360 316.5,-396"/>
<text text-anchor="middle" x="268" y="-374.3" font-family="Times,serif" font-size="14.00">burpread_mod</text>
</a>
</g>
</g>
<!-- burpread_mod&#45;&gt;bufr_mod -->
<g id="edge5" class="edge">
<title>burpread_mod&#45;&gt;bufr_mod</title>
<path fill="none" stroke="black" d="M279.14,-352.25C290.67,-324.35 307,-277.35 307,-235 307,-235 307,-235 307,-161 307,-120.03 300.62,-99.48 331,-72 372.6,-34.38 542.47,-23.25 617.31,-20.14"/>
<ellipse fill="black" stroke="black" cx="277.45" cy="-356.24" rx="4" ry="4"/>
</g>
<!-- ensembleobservations_mod -->
<g id="node7" class="node">
<title>ensembleobservations_mod</title>
<g id="a_node7"><a xlink:href="../modules/ensembleobservations_mod_rev.svg" xlink:title="ensembleobservations_mod">
<polygon fill="none" stroke="blue" points="355.5,-468 186.5,-468 186.5,-432 355.5,-432 355.5,-468"/>
<text text-anchor="middle" x="271" y="-446.3" font-family="Times,serif" font-size="14.00">ensembleobservations_mod</text>
</a>
</g>
</g>
<!-- ensembleobservations_mod&#45;&gt;bufr_mod -->
<g id="edge6" class="edge">
<title>ensembleobservations_mod&#45;&gt;bufr_mod</title>
<path fill="none" stroke="black" d="M299.81,-426.54C309.12,-417.92 318.66,-407.39 325,-396 344.72,-360.58 345,-347.54 345,-307 345,-307 345,-307 345,-161 345,-120.03 338.91,-99.8 369,-72 404.73,-38.98 549.4,-25.57 617.38,-21.01"/>
<ellipse fill="black" stroke="black" cx="296.75" cy="-429.26" rx="4" ry="4"/>
</g>
<!-- innovation_mod -->
<g id="node8" class="node">
<title>innovation_mod</title>
<g id="a_node8"><a xlink:href="../modules/innovation_mod_rev.svg" xlink:title="innovation_mod">
<polygon fill="none" stroke="blue" points="393,-540 287,-540 287,-504 393,-504 393,-540"/>
<text text-anchor="middle" x="340" y="-518.3" font-family="Times,serif" font-size="14.00">innovation_mod</text>
</a>
</g>
</g>
<!-- innovation_mod&#45;&gt;bufr_mod -->
<g id="edge7" class="edge">
<title>innovation_mod&#45;&gt;bufr_mod</title>
<path fill="none" stroke="black" d="M352.33,-496.26C365.04,-468.46 383,-421.62 383,-379 383,-379 383,-379 383,-161 383,-120.03 377.3,-100.22 407,-72 436.93,-43.56 556.75,-28.23 617.42,-22.15"/>
<ellipse fill="black" stroke="black" cx="350.61" cy="-499.96" rx="4" ry="4"/>
</g>
<!-- obsdbfiles_mod -->
<g id="node9" class="node">
<title>obsdbfiles_mod</title>
<g id="a_node9"><a xlink:href="../modules/obsdbfiles_mod_rev.svg" xlink:title="obsdbfiles_mod">
<polygon fill="none" stroke="blue" points="472.5,-612 369.5,-612 369.5,-576 472.5,-576 472.5,-612"/>
<text text-anchor="middle" x="421" y="-590.3" font-family="Times,serif" font-size="14.00">obsdbfiles_mod</text>
</a>
</g>
</g>
<!-- obsdbfiles_mod&#45;&gt;bufr_mod -->
<g id="edge8" class="edge">
<title>obsdbfiles_mod&#45;&gt;bufr_mod</title>
<path fill="none" stroke="black" d="M421,-567.78C421,-539.39 421,-491.89 421,-451 421,-451 421,-451 421,-161 421,-120.55 411.88,-101.08 440,-72 464.3,-46.87 563.21,-30.53 617.27,-23.3"/>
<ellipse fill="black" stroke="black" cx="421" cy="-571.95" rx="4" ry="4"/>
</g>
<!-- obserrors_mod -->
<g id="node10" class="node">
<title>obserrors_mod</title>
<g id="a_node10"><a xlink:href="../modules/obserrors_mod_rev.svg" xlink:title="obserrors_mod">
<polygon fill="none" stroke="blue" points="548.5,-108 449.5,-108 449.5,-72 548.5,-72 548.5,-108"/>
<text text-anchor="middle" x="499" y="-86.3" font-family="Times,serif" font-size="14.00">obserrors_mod</text>
</a>
</g>
</g>
<!-- obserrors_mod&#45;&gt;bufr_mod -->
<g id="edge9" class="edge">
<title>obserrors_mod&#45;&gt;bufr_mod</title>
<path fill="none" stroke="black" d="M544.07,-68.51C567.4,-57.91 595.49,-45.14 617.3,-35.23"/>
<ellipse fill="black" stroke="black" cx="540.31" cy="-70.22" rx="4" ry="4"/>
</g>
<!-- obsfiles_mod -->
<g id="node11" class="node">
<title>obsfiles_mod</title>
<g id="a_node11"><a xlink:href="../modules/obsfiles_mod_rev.svg" xlink:title="obsfiles_mod">
<polygon fill="none" stroke="blue" points="586.5,-180 497.5,-180 497.5,-144 586.5,-144 586.5,-180"/>
<text text-anchor="middle" x="542" y="-158.3" font-family="Times,serif" font-size="14.00">obsfiles_mod</text>
</a>
</g>
</g>
<!-- obsfiles_mod&#45;&gt;bufr_mod -->
<g id="edge10" class="edge">
<title>obsfiles_mod&#45;&gt;bufr_mod</title>
<path fill="none" stroke="black" d="M556.17,-137.01C567.45,-118.59 584.11,-92.86 601,-72 611.22,-59.38 623.98,-46.34 634.3,-36.36"/>
<ellipse fill="black" stroke="black" cx="554.04" cy="-140.51" rx="4" ry="4"/>
</g>
<!-- obsfilter_mod -->
<g id="node12" class="node">
<title>obsfilter_mod</title>
<g id="a_node12"><a xlink:href="../modules/obsfilter_mod_rev.svg" xlink:title="obsfilter_mod">
<polygon fill="none" stroke="blue" points="625,-252 533,-252 533,-216 625,-216 625,-252"/>
<text text-anchor="middle" x="579" y="-230.3" font-family="Times,serif" font-size="14.00">obsfilter_mod</text>
</a>
</g>
</g>
<!-- obsfilter_mod&#45;&gt;bufr_mod -->
<g id="edge11" class="edge">
<title>obsfilter_mod&#45;&gt;bufr_mod</title>
<path fill="none" stroke="black" d="M587.57,-208.22C602.74,-164.33 633.97,-74.03 647.04,-36.23"/>
<ellipse fill="black" stroke="black" cx="586.24" cy="-212.07" rx="4" ry="4"/>
</g>
<!-- obsoperatorschem_mod -->
<g id="node13" class="node">
<title>obsoperatorschem_mod</title>
<g id="a_node13"><a xlink:href="../modules/obsoperatorschem_mod_rev.svg" xlink:title="obsoperatorschem_mod">
<polygon fill="none" stroke="blue" points="662.5,-324 515.5,-324 515.5,-288 662.5,-288 662.5,-324"/>
<text text-anchor="middle" x="589" y="-302.3" font-family="Times,serif" font-size="14.00">obsoperatorschem_mod</text>
</a>
</g>
</g>
<!-- obsoperatorschem_mod&#45;&gt;bufr_mod -->
<g id="edge12" class="edge">
<title>obsoperatorschem_mod&#45;&gt;bufr_mod</title>
<path fill="none" stroke="black" d="M614.05,-281.89C621.79,-273.29 629.47,-262.95 634,-252 665.21,-176.63 659.13,-75.98 655.07,-36.21"/>
<ellipse fill="black" stroke="black" cx="611.2" cy="-284.91" rx="4" ry="4"/>
</g>
<!-- obsoperators_mod -->
<g id="node14" class="node">
<title>obsoperators_mod</title>
<g id="a_node14"><a xlink:href="../modules/obsoperators_mod_rev.svg" xlink:title="obsoperators_mod">
<polygon fill="none" stroke="blue" points="700.5,-396 583.5,-396 583.5,-360 700.5,-360 700.5,-396"/>
<text text-anchor="middle" x="642" y="-374.3" font-family="Times,serif" font-size="14.00">obsoperators_mod</text>
</a>
</g>
</g>
<!-- obsoperators_mod&#45;&gt;bufr_mod -->
<g id="edge13" class="edge">
<title>obsoperators_mod&#45;&gt;bufr_mod</title>
<path fill="none" stroke="black" d="M657.06,-352.88C662.06,-344.05 667.3,-333.81 671,-324 685.31,-286.07 691,-275.54 691,-235 691,-235 691,-235 691,-161 691,-114.55 671.79,-62.38 660.69,-36.09"/>
<ellipse fill="black" stroke="black" cx="654.96" cy="-356.47" rx="4" ry="4"/>
</g>
<!-- obsspacediag_mod -->
<g id="node15" class="node">
<title>obsspacediag_mod</title>
<g id="a_node15"><a xlink:href="../modules/obsspacediag_mod_rev.svg" xlink:title="obsspacediag_mod">
<polygon fill="none" stroke="blue" points="739,-468 619,-468 619,-432 739,-432 739,-468"/>
<text text-anchor="middle" x="679" y="-446.3" font-family="Times,serif" font-size="14.00">obsspacediag_mod</text>
</a>
</g>
</g>
<!-- obsspacediag_mod&#45;&gt;bufr_mod -->
<g id="edge14" class="edge">
<title>obsspacediag_mod&#45;&gt;bufr_mod</title>
<path fill="none" stroke="black" d="M694.61,-424.93C699.79,-416.11 705.2,-405.87 709,-396 723.59,-358.17 729,-347.54 729,-307 729,-307 729,-307 729,-161 729,-110.95 691.84,-61.47 669.49,-36.23"/>
<ellipse fill="black" stroke="black" cx="692.42" cy="-428.55" rx="4" ry="4"/>
</g>
<!-- obsspaceerrorstddev_mod -->
<g id="node16" class="node">
<title>obsspaceerrorstddev_mod</title>
<g id="a_node16"><a xlink:href="../modules/obsspaceerrorstddev_mod_rev.svg" xlink:title="obsspaceerrorstddev_mod">
<polygon fill="none" stroke="blue" points="777.5,-540 618.5,-540 618.5,-504 777.5,-504 777.5,-540"/>
<text text-anchor="middle" x="698" y="-518.3" font-family="Times,serif" font-size="14.00">obsspaceerrorstddev_mod</text>
</a>
</g>
</g>
<!-- obsspaceerrorstddev_mod&#45;&gt;bufr_mod -->
<g id="edge15" class="edge">
<title>obsspaceerrorstddev_mod&#45;&gt;bufr_mod</title>
<path fill="none" stroke="black" d="M724.75,-498.19C733.36,-489.55 742.17,-479.1 748,-468 766.8,-432.19 767,-419.45 767,-379 767,-379 767,-379 767,-161 767,-105.67 713.73,-59.63 680.02,-36.04"/>
<ellipse fill="black" stroke="black" cx="721.74" cy="-501.09" rx="4" ry="4"/>
</g>
<!-- obssubspacedata_mod -->
<g id="node17" class="node">
<title>obssubspacedata_mod</title>
<g id="a_node17"><a xlink:href="../modules/obssubspacedata_mod_rev.svg" xlink:title="obssubspacedata_mod">
<polygon fill="none" stroke="blue" points="874,-612 736,-612 736,-576 874,-576 874,-612"/>
<text text-anchor="middle" x="805" y="-590.3" font-family="Times,serif" font-size="14.00">obssubspacedata_mod</text>
</a>
</g>
</g>
<!-- obssubspacedata_mod&#45;&gt;bufr_mod -->
<g id="edge16" class="edge">
<title>obssubspacedata_mod&#45;&gt;bufr_mod</title>
<path fill="none" stroke="black" d="M805,-567.78C805,-539.39 805,-491.89 805,-451 805,-451 805,-451 805,-161 805,-97.62 733.56,-54.4 688.64,-33.49"/>
<ellipse fill="black" stroke="black" cx="805" cy="-571.95" rx="4" ry="4"/>
</g>
<!-- obsutil_mod -->
<g id="node18" class="node">
<title>obsutil_mod</title>
<g id="a_node18"><a xlink:href="../modules/obsutil_mod_rev.svg" xlink:title="obsutil_mod">
<polygon fill="none" stroke="blue" points="918.5,-108 833.5,-108 833.5,-72 918.5,-72 918.5,-108"/>
<text text-anchor="middle" x="876" y="-86.3" font-family="Times,serif" font-size="14.00">obsutil_mod</text>
</a>
</g>
</g>
<!-- obsutil_mod&#45;&gt;bufr_mod -->
<g id="edge17" class="edge">
<title>obsutil_mod&#45;&gt;bufr_mod</title>
<path fill="none" stroke="black" d="M825.42,-73.12C783.7,-60.03 725.57,-41.78 688.61,-30.18"/>
<ellipse fill="black" stroke="black" cx="829.45" cy="-74.39" rx="4" ry="4"/>
</g>
<!-- obsvariabletransforms_mod -->
<g id="node19" class="node">
<title>obsvariabletransforms_mod</title>
<g id="a_node19"><a xlink:href="../modules/obsvariabletransforms_mod_rev.svg" xlink:title="obsvariabletransforms_mod">
<polygon fill="none" stroke="blue" points="1003,-180 833,-180 833,-144 1003,-144 1003,-180"/>
<text text-anchor="middle" x="918" y="-158.3" font-family="Times,serif" font-size="14.00">obsvariabletransforms_mod</text>
</a>
</g>
</g>
<!-- obsvariabletransforms_mod&#45;&gt;bufr_mod -->
<g id="edge18" class="edge">
<title>obsvariabletransforms_mod&#45;&gt;bufr_mod</title>
<path fill="none" stroke="black" d="M929.31,-136.17C936.36,-116.58 941.59,-89.69 927,-72 897.17,-35.84 755.89,-24.06 688.69,-20.47"/>
<ellipse fill="black" stroke="black" cx="927.79" cy="-140.09" rx="4" ry="4"/>
</g>
<!-- oceanobservations_mod -->
<g id="node20" class="node">
<title>oceanobservations_mod</title>
<g id="a_node20"><a xlink:href="../modules/oceanobservations_mod_rev.svg" xlink:title="oceanobservations_mod">
<polygon fill="none" stroke="blue" points="1041.5,-252 892.5,-252 892.5,-216 1041.5,-216 1041.5,-252"/>
<text text-anchor="middle" x="967" y="-230.3" font-family="Times,serif" font-size="14.00">oceanobservations_mod</text>
</a>
</g>
</g>
<!-- oceanobservations_mod&#45;&gt;bufr_mod -->
<g id="edge19" class="edge">
<title>oceanobservations_mod&#45;&gt;bufr_mod</title>
<path fill="none" stroke="black" d="M993.17,-209.42C1000.74,-200.97 1008.02,-190.83 1012,-180 1017.52,-164.98 1017.8,-158.91 1012,-144 996.26,-103.54 984.01,-92.96 946,-72 862.25,-25.82 746.53,-18.71 688.79,-18.31"/>
<ellipse fill="black" stroke="black" cx="990.13" cy="-212.63" rx="4" ry="4"/>
</g>
<!-- sqliteread_mod -->
<g id="node21" class="node">
<title>sqliteread_mod</title>
<g id="a_node21"><a xlink:href="../modules/sqliteread_mod_rev.svg" xlink:title="sqliteread_mod">
<polygon fill="none" stroke="blue" points="1078.5,-324 977.5,-324 977.5,-288 1078.5,-288 1078.5,-324"/>
<text text-anchor="middle" x="1028" y="-302.3" font-family="Times,serif" font-size="14.00">sqliteread_mod</text>
</a>
</g>
</g>
<!-- sqliteread_mod&#45;&gt;bufr_mod -->
<g id="edge20" class="edge">
<title>sqliteread_mod&#45;&gt;bufr_mod</title>
<path fill="none" stroke="black" d="M1040.5,-280.56C1044.35,-271.79 1048.07,-261.67 1050,-252 1053.13,-236.31 1052.26,-231.84 1050,-216 1040.04,-146.31 1042.68,-110.9 984,-72 935.92,-40.12 763.8,-25.83 688.59,-21.01"/>
<ellipse fill="black" stroke="black" cx="1038.8" cy="-284.25" rx="4" ry="4"/>
</g>
<!-- thinning_mod -->
<g id="node22" class="node">
<title>thinning_mod</title>
<g id="a_node22"><a xlink:href="../modules/thinning_mod_rev.svg" xlink:title="thinning_mod">
<polygon fill="none" stroke="blue" points="1134.5,-396 1041.5,-396 1041.5,-360 1134.5,-360 1134.5,-396"/>
<text text-anchor="middle" x="1088" y="-374.3" font-family="Times,serif" font-size="14.00">thinning_mod</text>
</a>
</g>
</g>
<!-- thinning_mod&#45;&gt;bufr_mod -->
<g id="edge21" class="edge">
<title>thinning_mod&#45;&gt;bufr_mod</title>
<path fill="none" stroke="black" d="M1093.5,-351.45C1099.11,-323.13 1107,-276.02 1107,-235 1107,-235 1107,-235 1107,-161 1107,-105.06 1068.01,-97.07 1018,-72 960.55,-43.19 768.75,-26.97 688.64,-21.31"/>
<ellipse fill="black" stroke="black" cx="1092.64" cy="-355.69" rx="4" ry="4"/>
</g>
<!-- varnamelist_mod -->
<g id="node23" class="node">
<title>varnamelist_mod</title>
<g id="a_node23"><a xlink:href="../modules/varnamelist_mod_rev.svg" xlink:title="varnamelist_mod">
<polygon fill="none" stroke="blue" points="1219.5,-468 1106.5,-468 1106.5,-432 1219.5,-432 1219.5,-468"/>
<text text-anchor="middle" x="1163" y="-446.3" font-family="Times,serif" font-size="14.00">varnamelist_mod</text>
</a>
</g>
</g>
<!-- varnamelist_mod&#45;&gt;bufr_mod -->
<g id="edge22" class="edge">
<title>varnamelist_mod&#45;&gt;bufr_mod</title>
<path fill="none" stroke="black" d="M1163,-423.78C1163,-395.39 1163,-347.89 1163,-307 1163,-307 1163,-307 1163,-161 1163,-102.49 1119.06,-96.66 1066,-72 999.05,-40.89 776.03,-25.68 688.6,-20.81"/>
<ellipse fill="black" stroke="black" cx="1163" cy="-427.95" rx="4" ry="4"/>
</g>
<!-- varqc_mod -->
<g id="node24" class="node">
<title>varqc_mod</title>
<g id="a_node24"><a xlink:href="../modules/varqc_mod_rev.svg" xlink:title="varqc_mod">
<polygon fill="none" stroke="blue" points="1287,-540 1209,-540 1209,-504 1287,-504 1287,-540"/>
<text text-anchor="middle" x="1248" y="-518.3" font-family="Times,serif" font-size="14.00">varqc_mod</text>
</a>
</g>
</g>
<!-- varqc_mod&#45;&gt;bufr_mod -->
<g id="edge23" class="edge">
<title>varqc_mod&#45;&gt;bufr_mod</title>
<path fill="none" stroke="black" d="M1248,-495.78C1248,-467.39 1248,-419.89 1248,-379 1248,-379 1248,-379 1248,-161 1248,-45.38 817.52,-23.71 688.88,-19.82"/>
<ellipse fill="black" stroke="black" cx="1248" cy="-499.95" rx="4" ry="4"/>
</g>
</g>
</svg>
