<?xml version="1.0" encoding="UTF-8" standalone="no"?>
<!DOCTYPE svg PUBLIC "-//W3C//DTD SVG 1.1//EN"
 "http://www.w3.org/Graphics/SVG/1.1/DTD/svg11.dtd">
<!-- Generated by graphviz version 3.0.0 (20220315.2325)
 -->
<!-- Title: burpRead_mod Pages: 1 -->
<svg width="433pt" height="313pt"
 viewBox="0.00 0.00 433.00 313.00" xmlns="http://www.w3.org/2000/svg" xmlns:xlink="http://www.w3.org/1999/xlink">
<g id="graph0" class="graph" transform="scale(1 1) rotate(0) translate(4 309)">
<title>burpRead_mod</title>
<polygon fill="white" stroke="transparent" points="-4,4 -4,-309 429,-309 429,4 -4,4"/>
<text text-anchor="middle" x="212.5" y="-289.8" font-family="Times,serif" font-size="14.00">Blue boxes indicate modules with reverse dependencies not shown</text>
<text text-anchor="middle" x="212.5" y="-274.8" font-family="Times,serif" font-size="14.00">Higher level reverse dependencies can be shown by clicking on a blue box</text>
<text text-anchor="middle" x="212.5" y="-259.8" font-family="Times,serif" font-size="14.00">Green boxes are programs</text>
<!-- burpRead_mod -->
<g id="node1" class="node">
<title>burpRead_mod</title>
<g id="a_node1"><a xlink:href="burpRead_mod.html" xlink:title="burpRead_mod">
<polygon fill="none" stroke="black" points="252.75,-36 151.75,-36 151.75,0 252.75,0 252.75,-36"/>
<text text-anchor="middle" x="202.25" y="-14.3" font-family="Times,serif" font-size="14.00">burpRead_mod</text>
</a>
</g>
</g>
<!-- burpfiles_mod -->
<g id="node2" class="node">
<title>burpfiles_mod</title>
<g id="a_node2"><a xlink:href="../modules/burpfiles_mod_rev.svg" xlink:title="burpfiles_mod">
<polygon fill="none" stroke="blue" points="174.25,-108 78.25,-108 78.25,-72 174.25,-72 174.25,-108"/>
<text text-anchor="middle" x="126.25" y="-86.3" font-family="Times,serif" font-size="14.00">burpfiles_mod</text>
</a>
</g>
</g>
<!-- burpfiles_mod&#45;&gt;burpRead_mod -->
<g id="edge1" class="edge">
<title>burpfiles_mod&#45;&gt;burpRead_mod</title>
<path fill="none" stroke="black" d="M151.07,-66.13C161.69,-56.36 173.87,-45.14 183.68,-36.1"/>
<ellipse fill="black" stroke="black" cx="147.98" cy="-68.99" rx="4" ry="4"/>
</g>
<!-- obsfiles_mod -->
<g id="node3" class="node">
<title>obsfiles_mod</title>
<g id="a_node3"><a xlink:href="../modules/obsfiles_mod_rev.svg" xlink:title="obsfiles_mod">
<polygon fill="none" stroke="blue" points="246.75,-180 157.75,-180 157.75,-144 246.75,-144 246.75,-180"/>
<text text-anchor="middle" x="202.25" y="-158.3" font-family="Times,serif" font-size="14.00">obsfiles_mod</text>
</a>
</g>
</g>
<!-- obsfiles_mod&#45;&gt;burpRead_mod -->
<g id="edge2" class="edge">
<title>obsfiles_mod&#45;&gt;burpRead_mod</title>
<path fill="none" stroke="black" d="M202.25,-135.56C202.25,-106.86 202.25,-60.96 202.25,-36.19"/>
<ellipse fill="black" stroke="black" cx="202.25" cy="-139.87" rx="4" ry="4"/>
</g>
<!-- midas_midas_prepcma -->
<g id="node4" class="node">
<title>midas_midas_prepcma</title>
<g id="a_node4"><a xlink:href="../programs/midas_prepcma.html" xlink:title="midas_midas_prepcma">
<polygon fill="gray" stroke="green" points="346.75,-252 203.75,-252 203.75,-216 346.75,-216 346.75,-252"/>
<text text-anchor="middle" x="275.25" y="-230.3" font-family="Times,serif" font-size="14.00">midas_midas_prepcma</text>
</a>
</g>
</g>
<!-- midas_midas_prepcma&#45;&gt;burpRead_mod -->
<g id="edge3" class="edge">
<title>midas_midas_prepcma&#45;&gt;burpRead_mod</title>
<path fill="none" stroke="black" d="M270.77,-207.44C267.32,-189.47 262,-164.99 255.25,-144 242.48,-104.28 222.03,-59.73 210.63,-36.02"/>
<ellipse fill="black" stroke="black" cx="271.58" cy="-211.76" rx="4" ry="4"/>
</g>
</g>
</svg>
