<?xml version="1.0" encoding="UTF-8" standalone="no"?>
<!DOCTYPE svg PUBLIC "-//W3C//DTD SVG 1.1//EN"
 "http://www.w3.org/Graphics/SVG/1.1/DTD/svg11.dtd">
<!-- Generated by graphviz version 3.0.0 (20220315.2325)
 -->
<!-- Title: burpFiles_mod Pages: 1 -->
<svg width="489pt" height="673pt"
 viewBox="0.00 0.00 489.00 673.00" xmlns="http://www.w3.org/2000/svg" xmlns:xlink="http://www.w3.org/1999/xlink">
<g id="graph0" class="graph" transform="scale(1 1) rotate(0) translate(4 669)">
<title>burpFiles_mod</title>
<polygon fill="white" stroke="transparent" points="-4,4 -4,-669 485,-669 485,4 -4,4"/>
<text text-anchor="middle" x="240.5" y="-37.8" font-family="Times,serif" font-size="14.00">Red boxes indicate modules with dependencies not shown</text>
<text text-anchor="middle" x="240.5" y="-22.8" font-family="Times,serif" font-size="14.00">Lower level dependencies can be shown by clicking on a red box</text>
<text text-anchor="middle" x="240.5" y="-7.8" font-family="Times,serif" font-size="14.00">Shaded boxes indicate modules with no dependencies</text>
<!-- burpFiles_mod -->
<g id="node1" class="node">
<title>burpFiles_mod</title>
<g id="a_node1"><a xlink:href="burpFiles_mod.html" xlink:title="burpFiles_mod">
<polygon fill="none" stroke="black" points="282.5,-665 182.5,-665 182.5,-629 282.5,-629 282.5,-665"/>
<text text-anchor="middle" x="232.5" y="-643.3" font-family="Times,serif" font-size="14.00">burpFiles_mod</text>
</a>
</g>
</g>
<!-- bufr_mod -->
<g id="node2" class="node">
<title>bufr_mod</title>
<g id="a_node2"><a xlink:href="bufr_mod.html" xlink:title="bufr_mod">
<polygon fill="gray" stroke="black" points="71,-593 0,-593 0,-557 71,-557 71,-593"/>
<text text-anchor="middle" x="35.5" y="-571.3" font-family="Times,serif" font-size="14.00">bufr_mod</text>
</a>
</g>
</g>
<!-- burpFiles_mod&#45;&gt;bufr_mod -->
<g id="edge1" class="edge">
<title>burpFiles_mod&#45;&gt;bufr_mod</title>
<path fill="none" stroke="black" d="M184.56,-628.97C153.01,-617.75 111.96,-603.17 80.94,-592.14"/>
<polygon fill="black" stroke="black" points="81.83,-588.75 71.24,-588.7 79.49,-595.34 81.83,-588.75"/>
</g>
<!-- burpread_mod -->
<g id="node3" class="node">
<title>burpread_mod</title>
<g id="a_node3"><a xlink:href="../modules/burpread_mod.svg" xlink:title="burpread_mod">
<polygon fill="none" stroke="red" points="128,-521 31,-521 31,-485 128,-485 128,-521"/>
<text text-anchor="middle" x="79.5" y="-499.3" font-family="Times,serif" font-size="14.00">burpread_mod</text>
</a>
</g>
</g>
<!-- burpFiles_mod&#45;&gt;burpread_mod -->
<g id="edge2" class="edge">
<title>burpFiles_mod&#45;&gt;burpread_mod</title>
<path fill="none" stroke="black" d="M195.53,-628.79C178.26,-619.66 158.12,-607.36 142.5,-593 122.5,-574.61 105.13,-548.87 93.72,-529.8"/>
<polygon fill="black" stroke="black" points="96.67,-527.91 88.61,-521.03 90.62,-531.43 96.67,-527.91"/>
</g>
<!-- codeprecision_mod -->
<g id="node4" class="node">
<title>codeprecision_mod</title>
<g id="a_node4"><a xlink:href="codeprecision_mod.html" xlink:title="codeprecision_mod">
<polygon fill="gray" stroke="black" points="166,-449 43,-449 43,-413 166,-413 166,-449"/>
<text text-anchor="middle" x="104.5" y="-427.3" font-family="Times,serif" font-size="14.00">codeprecision_mod</text>
</a>
</g>
</g>
<!-- burpFiles_mod&#45;&gt;codeprecision_mod -->
<g id="edge3" class="edge">
<title>burpFiles_mod&#45;&gt;codeprecision_mod</title>
<path fill="none" stroke="black" d="M212.28,-628.91C201.75,-619.21 189.28,-606.36 180.5,-593 152.04,-549.68 159.74,-531.33 136.5,-485 131.97,-475.97 126.45,-466.42 121.28,-457.96"/>
<polygon fill="black" stroke="black" points="124.13,-455.91 115.87,-449.28 118.19,-459.62 124.13,-455.91"/>
</g>
<!-- mathphysconstants_mod -->
<g id="node5" class="node">
<title>mathphysconstants_mod</title>
<g id="a_node5"><a xlink:href="mathphysconstants_mod.html" xlink:title="mathphysconstants_mod">
<polygon fill="gray" stroke="black" points="204.5,-377 52.5,-377 52.5,-341 204.5,-341 204.5,-377"/>
<text text-anchor="middle" x="128.5" y="-355.3" font-family="Times,serif" font-size="14.00">mathphysconstants_mod</text>
</a>
</g>
</g>
<!-- burpFiles_mod&#45;&gt;mathphysconstants_mod -->
<g id="edge4" class="edge">
<title>burpFiles_mod&#45;&gt;mathphysconstants_mod</title>
<path fill="none" stroke="black" d="M227.88,-628.84C225.11,-618.47 221.55,-604.99 218.5,-593 198.2,-513.18 212.33,-486.15 174.5,-413 169.19,-402.73 161.49,-392.78 153.9,-384.34"/>
<polygon fill="black" stroke="black" points="156.44,-381.93 147.04,-377.04 151.34,-386.72 156.44,-381.93"/>
</g>
<!-- obsspacedata_mod -->
<g id="node6" class="node">
<title>obsspacedata_mod</title>
<g id="a_node6"><a xlink:href="../modules/obsspacedata_mod.svg" xlink:title="obsspacedata_mod">
<polygon fill="none" stroke="red" points="242,-305 123,-305 123,-269 242,-269 242,-305"/>
<text text-anchor="middle" x="182.5" y="-283.3" font-family="Times,serif" font-size="14.00">obsspacedata_mod</text>
</a>
</g>
</g>
<!-- burpFiles_mod&#45;&gt;obsspacedata_mod -->
<g id="edge5" class="edge">
<title>burpFiles_mod&#45;&gt;obsspacedata_mod</title>
<path fill="none" stroke="black" d="M232.5,-628.95C232.5,-602.29 232.5,-549.11 232.5,-504 232.5,-504 232.5,-504 232.5,-430 232.5,-389.55 228.12,-378.71 213.5,-341 209.94,-331.8 204.9,-322.33 199.92,-313.98"/>
<polygon fill="black" stroke="black" points="202.86,-312.08 194.61,-305.43 196.91,-315.77 202.86,-312.08"/>
</g>
<!-- obssubspacedata_mod -->
<g id="node7" class="node">
<title>obssubspacedata_mod</title>
<g id="a_node7"><a xlink:href="../modules/obssubspacedata_mod.svg" xlink:title="obssubspacedata_mod">
<polygon fill="none" stroke="red" points="280.5,-233 142.5,-233 142.5,-197 280.5,-197 280.5,-233"/>
<text text-anchor="middle" x="211.5" y="-211.3" font-family="Times,serif" font-size="14.00">obssubspacedata_mod</text>
</a>
</g>
</g>
<!-- burpFiles_mod&#45;&gt;obssubspacedata_mod -->
<g id="edge6" class="edge">
<title>burpFiles_mod&#45;&gt;obssubspacedata_mod</title>
<path fill="none" stroke="black" d="M240.19,-628.91C251.29,-602.62 270.5,-550.45 270.5,-504 270.5,-504 270.5,-504 270.5,-358 270.5,-317.46 267.32,-305.89 250.5,-269 246.09,-259.33 239.74,-249.69 233.44,-241.34"/>
<polygon fill="black" stroke="black" points="236.17,-239.15 227.23,-233.46 230.67,-243.48 236.17,-239.15"/>
</g>
<!-- obsutil_mod -->
<g id="node8" class="node">
<title>obsutil_mod</title>
<g id="a_node8"><a xlink:href="../modules/obsutil_mod.svg" xlink:title="obsutil_mod">
<polygon fill="none" stroke="red" points="335,-161 250,-161 250,-125 335,-125 335,-161"/>
<text text-anchor="middle" x="292.5" y="-139.3" font-family="Times,serif" font-size="14.00">obsutil_mod</text>
</a>
</g>
</g>
<!-- burpFiles_mod&#45;&gt;obsutil_mod -->
<g id="edge7" class="edge">
<title>burpFiles_mod&#45;&gt;obsutil_mod</title>
<path fill="none" stroke="black" d="M248.99,-628.77C271.34,-603.53 308.5,-554.05 308.5,-504 308.5,-504 308.5,-504 308.5,-286 308.5,-245.96 302.14,-199.97 297.44,-171.45"/>
<polygon fill="black" stroke="black" points="300.86,-170.69 295.74,-161.42 293.96,-171.86 300.86,-170.69"/>
</g>
<!-- obsvariabletransforms_mod -->
<g id="node9" class="node">
<title>obsvariabletransforms_mod</title>
<g id="a_node9"><a xlink:href="../modules/obsvariabletransforms_mod.svg" xlink:title="obsvariabletransforms_mod">
<polygon fill="none" stroke="red" points="448.5,-89 278.5,-89 278.5,-53 448.5,-53 448.5,-89"/>
<text text-anchor="middle" x="363.5" y="-67.3" font-family="Times,serif" font-size="14.00">obsvariabletransforms_mod</text>
</a>
</g>
</g>
<!-- burpFiles_mod&#45;&gt;obsvariabletransforms_mod -->
<g id="edge8" class="edge">
<title>burpFiles_mod&#45;&gt;obsvariabletransforms_mod</title>
<path fill="none" stroke="black" d="M265.56,-628.8C304.36,-605.96 363.5,-561.69 363.5,-504 363.5,-504 363.5,-504 363.5,-214 363.5,-174 363.5,-127.65 363.5,-99.08"/>
<polygon fill="black" stroke="black" points="367,-99.05 363.5,-89.05 360,-99.05 367,-99.05"/>
</g>
<!-- utilities_mod -->
<g id="node10" class="node">
<title>utilities_mod</title>
<g id="a_node10"><a xlink:href="../modules/utilities_mod.svg" xlink:title="utilities_mod">
<polygon fill="none" stroke="red" points="481,-593 392,-593 392,-557 481,-557 481,-593"/>
<text text-anchor="middle" x="436.5" y="-571.3" font-family="Times,serif" font-size="14.00">utilities_mod</text>
</a>
</g>
</g>
<!-- burpFiles_mod&#45;&gt;utilities_mod -->
<g id="edge9" class="edge">
<title>burpFiles_mod&#45;&gt;utilities_mod</title>
<path fill="none" stroke="black" d="M282.14,-628.97C312.37,-618.59 351,-605.34 382.06,-594.68"/>
<polygon fill="black" stroke="black" points="383.54,-597.87 391.86,-591.32 381.26,-591.25 383.54,-597.87"/>
</g>
</g>
</svg>
