<?xml version="1.0" encoding="UTF-8" standalone="no"?>
<!DOCTYPE svg PUBLIC "-//W3C//DTD SVG 1.1//EN"
 "http://www.w3.org/Graphics/SVG/1.1/DTD/svg11.dtd">
<!-- Generated by graphviz version 3.0.0 (20220315.2325)
 -->
<!-- Title: burpRead_mod Pages: 1 -->
<svg width="715pt" height="673pt"
 viewBox="0.00 0.00 715.00 673.00" xmlns="http://www.w3.org/2000/svg" xmlns:xlink="http://www.w3.org/1999/xlink">
<g id="graph0" class="graph" transform="scale(1 1) rotate(0) translate(4 669)">
<title>burpRead_mod</title>
<polygon fill="white" stroke="transparent" points="-4,4 -4,-669 711,-669 711,4 -4,4"/>
<text text-anchor="middle" x="353.5" y="-37.8" font-family="Times,serif" font-size="14.00">Red boxes indicate modules with dependencies not shown</text>
<text text-anchor="middle" x="353.5" y="-22.8" font-family="Times,serif" font-size="14.00">Lower level dependencies can be shown by clicking on a red box</text>
<text text-anchor="middle" x="353.5" y="-7.8" font-family="Times,serif" font-size="14.00">Shaded boxes indicate modules with no dependencies</text>
<!-- burpRead_mod -->
<g id="node1" class="node">
<title>burpRead_mod</title>
<g id="a_node1"><a xlink:href="burpRead_mod.html" xlink:title="burpRead_mod">
<polygon fill="none" stroke="black" points="347,-665 246,-665 246,-629 347,-629 347,-665"/>
<text text-anchor="middle" x="296.5" y="-643.3" font-family="Times,serif" font-size="14.00">burpRead_mod</text>
</a>
</g>
</g>
<!-- bufr_mod -->
<g id="node2" class="node">
<title>bufr_mod</title>
<g id="a_node2"><a xlink:href="bufr_mod.html" xlink:title="bufr_mod">
<polygon fill="gray" stroke="black" points="71,-593 0,-593 0,-557 71,-557 71,-593"/>
<text text-anchor="middle" x="35.5" y="-571.3" font-family="Times,serif" font-size="14.00">bufr_mod</text>
</a>
</g>
</g>
<!-- burpRead_mod&#45;&gt;bufr_mod -->
<g id="edge1" class="edge">
<title>burpRead_mod&#45;&gt;bufr_mod</title>
<path fill="none" stroke="black" d="M245.88,-634.51C202.94,-624.47 139.84,-609.03 85.5,-593 84.04,-592.57 82.57,-592.12 81.08,-591.67"/>
<polygon fill="black" stroke="black" points="81.76,-588.21 71.17,-588.52 79.64,-594.88 81.76,-588.21"/>
</g>
<!-- codeprecision_mod -->
<g id="node3" class="node">
<title>codeprecision_mod</title>
<g id="a_node3"><a xlink:href="codeprecision_mod.html" xlink:title="codeprecision_mod">
<polygon fill="gray" stroke="black" points="135,-521 12,-521 12,-485 135,-485 135,-521"/>
<text text-anchor="middle" x="73.5" y="-499.3" font-family="Times,serif" font-size="14.00">codeprecision_mod</text>
</a>
</g>
</g>
<!-- burpRead_mod&#45;&gt;codeprecision_mod -->
<g id="edge2" class="edge">
<title>burpRead_mod&#45;&gt;codeprecision_mod</title>
<path fill="none" stroke="black" d="M245.8,-634.7C215.96,-626.41 178.51,-613.06 149.5,-593 125.01,-576.06 103.65,-549.35 89.87,-529.6"/>
<polygon fill="black" stroke="black" points="92.59,-527.39 84.08,-521.08 86.8,-531.32 92.59,-527.39"/>
</g>
<!-- codtyp_mod -->
<g id="node4" class="node">
<title>codtyp_mod</title>
<g id="a_node4"><a xlink:href="../modules/codtyp_mod.svg" xlink:title="codtyp_mod">
<polygon fill="none" stroke="red" points="173,-449 88,-449 88,-413 173,-413 173,-449"/>
<text text-anchor="middle" x="130.5" y="-427.3" font-family="Times,serif" font-size="14.00">codtyp_mod</text>
</a>
</g>
</g>
<!-- burpRead_mod&#45;&gt;codtyp_mod -->
<g id="edge3" class="edge">
<title>burpRead_mod&#45;&gt;codtyp_mod</title>
<path fill="none" stroke="black" d="M245.91,-630.9C225.42,-622.58 202.99,-610.34 187.5,-593 169.42,-572.76 148.05,-499.14 137.34,-458.83"/>
<polygon fill="black" stroke="black" points="140.72,-457.91 134.8,-449.12 133.94,-459.68 140.72,-457.91"/>
</g>
<!-- earthconstants_mod -->
<g id="node5" class="node">
<title>earthconstants_mod</title>
<g id="a_node5"><a xlink:href="../modules/earthconstants_mod.svg" xlink:title="earthconstants_mod">
<polygon fill="none" stroke="red" points="211.5,-377 85.5,-377 85.5,-341 211.5,-341 211.5,-377"/>
<text text-anchor="middle" x="148.5" y="-355.3" font-family="Times,serif" font-size="14.00">earthconstants_mod</text>
</a>
</g>
</g>
<!-- burpRead_mod&#45;&gt;earthconstants_mod -->
<g id="edge4" class="edge">
<title>burpRead_mod&#45;&gt;earthconstants_mod</title>
<path fill="none" stroke="black" d="M264.5,-628.9C250.58,-619.94 235.26,-607.75 225.5,-593 180.05,-524.32 213.44,-488.91 181.5,-413 177.61,-403.76 172.22,-394.27 166.92,-385.92"/>
<polygon fill="black" stroke="black" points="169.72,-383.8 161.29,-377.38 163.87,-387.66 169.72,-383.8"/>
</g>
<!-- kdtree2_mod -->
<g id="node6" class="node">
<title>kdtree2_mod</title>
<g id="a_node6"><a xlink:href="../modules/kdtree2_mod.svg" xlink:title="kdtree2_mod">
<polygon fill="none" stroke="red" points="249,-305 160,-305 160,-269 249,-269 249,-305"/>
<text text-anchor="middle" x="204.5" y="-283.3" font-family="Times,serif" font-size="14.00">kdtree2_mod</text>
</a>
</g>
</g>
<!-- burpRead_mod&#45;&gt;kdtree2_mod -->
<g id="edge5" class="edge">
<title>burpRead_mod&#45;&gt;kdtree2_mod</title>
<path fill="none" stroke="black" d="M283.83,-628.57C277.03,-618.56 268.95,-605.52 263.5,-593 247.16,-555.43 239.5,-544.97 239.5,-504 239.5,-504 239.5,-504 239.5,-430 239.5,-388.84 225.47,-342.88 215.17,-314.69"/>
<polygon fill="black" stroke="black" points="218.38,-313.28 211.58,-305.15 211.83,-315.74 218.38,-313.28"/>
</g>
<!-- mathphysconstants_mod -->
<g id="node7" class="node">
<title>mathphysconstants_mod</title>
<g id="a_node7"><a xlink:href="mathphysconstants_mod.html" xlink:title="mathphysconstants_mod">
<polygon fill="gray" stroke="black" points="287.5,-233 135.5,-233 135.5,-197 287.5,-197 287.5,-233"/>
<text text-anchor="middle" x="211.5" y="-211.3" font-family="Times,serif" font-size="14.00">mathphysconstants_mod</text>
</a>
</g>
</g>
<!-- burpRead_mod&#45;&gt;mathphysconstants_mod -->
<g id="edge6" class="edge">
<title>burpRead_mod&#45;&gt;mathphysconstants_mod</title>
<path fill="none" stroke="black" d="M292.66,-628.61C287.1,-601.94 277.5,-549.27 277.5,-504 277.5,-504 277.5,-504 277.5,-358 277.5,-317.46 275.79,-305.18 257.5,-269 252.42,-258.95 245.01,-249.24 237.61,-240.95"/>
<polygon fill="black" stroke="black" points="239.99,-238.37 230.61,-233.46 234.88,-243.15 239.99,-238.37"/>
</g>
<!-- obsfilter_mod -->
<g id="node8" class="node">
<title>obsfilter_mod</title>
<g id="a_node8"><a xlink:href="../modules/obsfilter_mod.svg" xlink:title="obsfilter_mod">
<polygon fill="none" stroke="red" points="325.5,-161 233.5,-161 233.5,-125 325.5,-125 325.5,-161"/>
<text text-anchor="middle" x="279.5" y="-139.3" font-family="Times,serif" font-size="14.00">obsfilter_mod</text>
</a>
</g>
</g>
<!-- burpRead_mod&#45;&gt;obsfilter_mod -->
<g id="edge7" class="edge">
<title>burpRead_mod&#45;&gt;obsfilter_mod</title>
<path fill="none" stroke="black" d="M300.34,-628.61C305.9,-601.94 315.5,-549.27 315.5,-504 315.5,-504 315.5,-504 315.5,-286 315.5,-244.78 301.07,-198.83 290.48,-170.66"/>
<polygon fill="black" stroke="black" points="293.66,-169.19 286.79,-161.13 287.14,-171.72 293.66,-169.19"/>
</g>
<!-- obsspacedata_mod -->
<g id="node9" class="node">
<title>obsspacedata_mod</title>
<g id="a_node9"><a xlink:href="../modules/obsspacedata_mod.svg" xlink:title="obsspacedata_mod">
<polygon fill="none" stroke="red" points="413,-89 294,-89 294,-53 413,-53 413,-89"/>
<text text-anchor="middle" x="353.5" y="-67.3" font-family="Times,serif" font-size="14.00">obsspacedata_mod</text>
</a>
</g>
</g>
<!-- burpRead_mod&#45;&gt;obsspacedata_mod -->
<g id="edge8" class="edge">
<title>burpRead_mod&#45;&gt;obsspacedata_mod</title>
<path fill="none" stroke="black" d="M308.31,-628.96C325.01,-603.16 353.5,-552.08 353.5,-504 353.5,-504 353.5,-504 353.5,-214 353.5,-174 353.5,-127.65 353.5,-99.08"/>
<polygon fill="black" stroke="black" points="357,-99.05 353.5,-89.05 350,-99.05 357,-99.05"/>
</g>
<!-- obsutil_mod -->
<g id="node10" class="node">
<title>obsutil_mod</title>
<g id="a_node10"><a xlink:href="../modules/obsutil_mod.svg" xlink:title="obsutil_mod">
<polygon fill="none" stroke="red" points="467,-593 382,-593 382,-557 467,-557 467,-593"/>
<text text-anchor="middle" x="424.5" y="-571.3" font-family="Times,serif" font-size="14.00">obsutil_mod</text>
</a>
</g>
</g>
<!-- burpRead_mod&#45;&gt;obsutil_mod -->
<g id="edge9" class="edge">
<title>burpRead_mod&#45;&gt;obsutil_mod</title>
<path fill="none" stroke="black" d="M327.81,-628.88C344.7,-619.64 365.75,-608.13 383.88,-598.21"/>
<polygon fill="black" stroke="black" points="385.97,-601.06 393.07,-593.19 382.61,-594.92 385.97,-601.06"/>
</g>
<!-- obsvariabletransforms_mod -->
<g id="node11" class="node">
<title>obsvariabletransforms_mod</title>
<g id="a_node11"><a xlink:href="../modules/obsvariabletransforms_mod.svg" xlink:title="obsvariabletransforms_mod">
<polygon fill="none" stroke="red" points="565.5,-521 395.5,-521 395.5,-485 565.5,-485 565.5,-521"/>
<text text-anchor="middle" x="480.5" y="-499.3" font-family="Times,serif" font-size="14.00">obsvariabletransforms_mod</text>
</a>
</g>
</g>
<!-- burpRead_mod&#45;&gt;obsvariabletransforms_mod -->
<g id="edge10" class="edge">
<title>burpRead_mod&#45;&gt;obsvariabletransforms_mod</title>
<path fill="none" stroke="black" d="M347.22,-645.9C388.68,-642.84 445.23,-631.25 475.5,-593 489.11,-575.8 489.18,-550.36 486.54,-531.08"/>
<polygon fill="black" stroke="black" points="489.97,-530.37 484.85,-521.09 483.06,-531.54 489.97,-530.37"/>
</g>
<!-- tovsnl_mod -->
<g id="node12" class="node">
<title>tovsnl_mod</title>
<g id="a_node12"><a xlink:href="../modules/tovsnl_mod.svg" xlink:title="tovsnl_mod">
<polygon fill="none" stroke="red" points="634,-449 553,-449 553,-413 634,-413 634,-449"/>
<text text-anchor="middle" x="593.5" y="-427.3" font-family="Times,serif" font-size="14.00">tovsnl_mod</text>
</a>
</g>
</g>
<!-- burpRead_mod&#45;&gt;tovsnl_mod -->
<g id="edge11" class="edge">
<title>burpRead_mod&#45;&gt;tovsnl_mod</title>
<path fill="none" stroke="black" d="M347.1,-639.54C389.13,-632.58 449.43,-618.85 496.5,-593 537.85,-570.29 551.15,-561.99 574.5,-521 585.29,-502.07 589.97,-477.7 591.99,-459.25"/>
<polygon fill="black" stroke="black" points="595.49,-459.43 592.9,-449.16 588.51,-458.8 595.49,-459.43"/>
</g>
<!-- utilities_mod -->
<g id="node13" class="node">
<title>utilities_mod</title>
<g id="a_node13"><a xlink:href="../modules/utilities_mod.svg" xlink:title="utilities_mod">
<polygon fill="none" stroke="red" points="707,-377 618,-377 618,-341 707,-341 707,-377"/>
<text text-anchor="middle" x="662.5" y="-355.3" font-family="Times,serif" font-size="14.00">utilities_mod</text>
</a>
</g>
</g>
<!-- burpRead_mod&#45;&gt;utilities_mod -->
<g id="edge12" class="edge">
<title>burpRead_mod&#45;&gt;utilities_mod</title>
<path fill="none" stroke="black" d="M347.21,-644.53C398.66,-640.92 478.86,-629.32 537.5,-593 604.84,-551.29 611.68,-521.96 642.5,-449 650.86,-429.21 655.97,-405.41 658.94,-387.41"/>
<polygon fill="black" stroke="black" points="662.43,-387.7 660.48,-377.29 655.51,-386.65 662.43,-387.7"/>
</g>
</g>
</svg>
