<?xml version="1.0" encoding="UTF-8" standalone="no"?>
<!DOCTYPE svg PUBLIC "-//W3C//DTD SVG 1.1//EN"
 "http://www.w3.org/Graphics/SVG/1.1/DTD/svg11.dtd">
<!-- Generated by graphviz version 3.0.0 (20220315.2325)
 -->
<!-- Title: calcHeightAndPressure_mod Pages: 1 -->
<svg width="996pt" height="673pt"
 viewBox="0.00 0.00 996.00 673.00" xmlns="http://www.w3.org/2000/svg" xmlns:xlink="http://www.w3.org/1999/xlink">
<g id="graph0" class="graph" transform="scale(1 1) rotate(0) translate(4 669)">
<title>calcHeightAndPressure_mod</title>
<polygon fill="white" stroke="transparent" points="-4,4 -4,-669 992,-669 992,4 -4,4"/>
<text text-anchor="middle" x="494" y="-649.8" font-family="Times,serif" font-size="14.00">Blue boxes indicate modules with reverse dependencies not shown</text>
<text text-anchor="middle" x="494" y="-634.8" font-family="Times,serif" font-size="14.00">Higher level reverse dependencies can be shown by clicking on a blue box</text>
<text text-anchor="middle" x="494" y="-619.8" font-family="Times,serif" font-size="14.00">Green boxes are programs</text>
<!-- calcHeightAndPressure_mod -->
<g id="node1" class="node">
<title>calcHeightAndPressure_mod</title>
<g id="a_node1"><a xlink:href="calcHeightAndPressure_mod.html" xlink:title="calcHeightAndPressure_mod">
<polygon fill="none" stroke="black" points="558.5,-36 382.5,-36 382.5,0 558.5,0 558.5,-36"/>
<text text-anchor="middle" x="470.5" y="-14.3" font-family="Times,serif" font-size="14.00">calcHeightAndPressure_mod</text>
</a>
</g>
</g>
<!-- bcovarsetupchem_mod -->
<g id="node2" class="node">
<title>bcovarsetupchem_mod</title>
<g id="a_node2"><a xlink:href="../modules/bcovarsetupchem_mod_rev.svg" xlink:title="bcovarsetupchem_mod">
<polygon fill="none" stroke="blue" points="143,-108 0,-108 0,-72 143,-72 143,-108"/>
<text text-anchor="middle" x="71.5" y="-86.3" font-family="Times,serif" font-size="14.00">bcovarsetupchem_mod</text>
</a>
</g>
</g>
<!-- bcovarsetupchem_mod&#45;&gt;calcHeightAndPressure_mod -->
<g id="edge1" class="edge">
<title>bcovarsetupchem_mod&#45;&gt;calcHeightAndPressure_mod</title>
<path fill="none" stroke="black" d="M151.34,-73.14C153.41,-72.75 155.47,-72.37 157.5,-72 233.26,-58.1 319.58,-43.58 382.35,-33.26"/>
<ellipse fill="black" stroke="black" cx="147.2" cy="-73.92" rx="4" ry="4"/>
</g>
<!-- bmatrix1dvar_mod -->
<g id="node3" class="node">
<title>bmatrix1dvar_mod</title>
<g id="a_node3"><a xlink:href="../modules/bmatrix1dvar_mod_rev.svg" xlink:title="bmatrix1dvar_mod">
<polygon fill="none" stroke="blue" points="206.5,-180 84.5,-180 84.5,-144 206.5,-144 206.5,-180"/>
<text text-anchor="middle" x="145.5" y="-158.3" font-family="Times,serif" font-size="14.00">bmatrix1dvar_mod</text>
</a>
</g>
</g>
<!-- bmatrix1dvar_mod&#45;&gt;calcHeightAndPressure_mod -->
<g id="edge2" class="edge">
<title>bmatrix1dvar_mod&#45;&gt;calcHeightAndPressure_mod</title>
<path fill="none" stroke="black" d="M159.28,-137.07C172.38,-116.56 193.99,-87.88 220.5,-72 269.31,-42.76 331.96,-29.51 382.33,-23.58"/>
<ellipse fill="black" stroke="black" cx="157.12" cy="-140.55" rx="4" ry="4"/>
</g>
<!-- bmatrixensemble_mod -->
<g id="node4" class="node">
<title>bmatrixensemble_mod</title>
<g id="a_node4"><a xlink:href="../modules/bmatrixensemble_mod_rev.svg" xlink:title="bmatrixensemble_mod">
<polygon fill="none" stroke="blue" points="244,-252 101,-252 101,-216 244,-216 244,-252"/>
<text text-anchor="middle" x="172.5" y="-230.3" font-family="Times,serif" font-size="14.00">bmatrixensemble_mod</text>
</a>
</g>
</g>
<!-- bmatrixensemble_mod&#45;&gt;calcHeightAndPressure_mod -->
<g id="edge3" class="edge">
<title>bmatrixensemble_mod&#45;&gt;calcHeightAndPressure_mod</title>
<path fill="none" stroke="black" d="M193.96,-209.7C201.42,-200.83 209.42,-190.36 215.5,-180 241.63,-135.43 219.6,-106.01 258.5,-72 292.42,-42.35 340.48,-28.8 382.28,-22.8"/>
<ellipse fill="black" stroke="black" cx="191.27" cy="-212.81" rx="4" ry="4"/>
</g>
<!-- bmatrixhi_mod -->
<g id="node5" class="node">
<title>bmatrixhi_mod</title>
<g id="a_node5"><a xlink:href="../modules/bmatrixhi_mod_rev.svg" xlink:title="bmatrixhi_mod">
<polygon fill="none" stroke="blue" points="282.5,-324 180.5,-324 180.5,-288 282.5,-288 282.5,-324"/>
<text text-anchor="middle" x="231.5" y="-302.3" font-family="Times,serif" font-size="14.00">bmatrixhi_mod</text>
</a>
</g>
</g>
<!-- bmatrixhi_mod&#45;&gt;calcHeightAndPressure_mod -->
<g id="edge4" class="edge">
<title>bmatrixhi_mod&#45;&gt;calcHeightAndPressure_mod</title>
<path fill="none" stroke="black" d="M242.26,-279.92C245.79,-271.17 249.56,-261.24 252.5,-252 277.51,-173.53 239.92,-131.84 296.5,-72 318.85,-48.37 351.38,-35.17 382.28,-27.84"/>
<ellipse fill="black" stroke="black" cx="240.64" cy="-283.85" rx="4" ry="4"/>
</g>
<!-- calcstatsglb_mod -->
<g id="node6" class="node">
<title>calcstatsglb_mod</title>
<g id="a_node6"><a xlink:href="../modules/calcstatsglb_mod_rev.svg" xlink:title="calcstatsglb_mod">
<polygon fill="none" stroke="blue" points="320,-396 209,-396 209,-360 320,-360 320,-396"/>
<text text-anchor="middle" x="264.5" y="-374.3" font-family="Times,serif" font-size="14.00">calcstatsglb_mod</text>
</a>
</g>
</g>
<!-- calcstatsglb_mod&#45;&gt;calcHeightAndPressure_mod -->
<g id="edge5" class="edge">
<title>calcstatsglb_mod&#45;&gt;calcHeightAndPressure_mod</title>
<path fill="none" stroke="black" d="M278.51,-352.79C283.17,-343.95 288.05,-333.73 291.5,-324 305.02,-285.88 310.5,-275.45 310.5,-235 310.5,-235 310.5,-235 310.5,-161 310.5,-120.03 307.14,-102.49 334.5,-72 349.39,-55.4 370.12,-43.95 390.9,-36.07"/>
<ellipse fill="black" stroke="black" cx="276.59" cy="-356.33" rx="4" ry="4"/>
</g>
<!-- calcstatslam_mod -->
<g id="node7" class="node">
<title>calcstatslam_mod</title>
<g id="a_node7"><a xlink:href="../modules/calcstatslam_mod_rev.svg" xlink:title="calcstatslam_mod">
<polygon fill="none" stroke="blue" points="358,-468 243,-468 243,-432 358,-432 358,-468"/>
<text text-anchor="middle" x="300.5" y="-446.3" font-family="Times,serif" font-size="14.00">calcstatslam_mod</text>
</a>
</g>
</g>
<!-- calcstatslam_mod&#45;&gt;calcHeightAndPressure_mod -->
<g id="edge6" class="edge">
<title>calcstatslam_mod&#45;&gt;calcHeightAndPressure_mod</title>
<path fill="none" stroke="black" d="M315.01,-424.82C319.84,-415.99 324.9,-405.76 328.5,-396 342.54,-357.97 348.5,-347.54 348.5,-307 348.5,-307 348.5,-307 348.5,-161 348.5,-120.03 347.08,-104.13 372.5,-72 385.04,-56.15 403.67,-44.4 421.33,-36.06"/>
<ellipse fill="black" stroke="black" cx="313" cy="-428.39" rx="4" ry="4"/>
</g>
<!-- columnvariabletransforms_mod -->
<g id="node8" class="node">
<title>columnvariabletransforms_mod</title>
<g id="a_node8"><a xlink:href="../modules/columnvariabletransforms_mod_rev.svg" xlink:title="columnvariabletransforms_mod">
<polygon fill="none" stroke="blue" points="396,-540 203,-540 203,-504 396,-504 396,-540"/>
<text text-anchor="middle" x="299.5" y="-518.3" font-family="Times,serif" font-size="14.00">columnvariabletransforms_mod</text>
</a>
</g>
</g>
<!-- columnvariabletransforms_mod&#45;&gt;calcHeightAndPressure_mod -->
<g id="edge7" class="edge">
<title>columnvariabletransforms_mod&#45;&gt;calcHeightAndPressure_mod</title>
<path fill="none" stroke="black" d="M336.08,-499.15C347.38,-490.73 358.84,-480.18 366.5,-468 388.08,-433.68 386.5,-419.54 386.5,-379 386.5,-379 386.5,-379 386.5,-161 386.5,-120.03 388.9,-106.81 410.5,-72 419.22,-57.95 432.8,-45.51 444.83,-36.22"/>
<ellipse fill="black" stroke="black" cx="332.74" cy="-501.53" rx="4" ry="4"/>
</g>
<!-- enkf_mod -->
<g id="node9" class="node">
<title>enkf_mod</title>
<g id="a_node9"><a xlink:href="../modules/enkf_mod_rev.svg" xlink:title="enkf_mod">
<polygon fill="none" stroke="blue" points="461,-612 388,-612 388,-576 461,-576 461,-612"/>
<text text-anchor="middle" x="424.5" y="-590.3" font-family="Times,serif" font-size="14.00">enkf_mod</text>
</a>
</g>
</g>
<!-- enkf_mod&#45;&gt;calcHeightAndPressure_mod -->
<g id="edge8" class="edge">
<title>enkf_mod&#45;&gt;calcHeightAndPressure_mod</title>
<path fill="none" stroke="black" d="M424.5,-567.78C424.5,-539.39 424.5,-491.89 424.5,-451 424.5,-451 424.5,-451 424.5,-161 424.5,-120.55 429.98,-110.12 443.5,-72 447.92,-59.54 454.67,-46.29 460.31,-36.16"/>
<ellipse fill="black" stroke="black" cx="424.5" cy="-571.95" rx="4" ry="4"/>
</g>
<!-- enspostprocess_mod -->
<g id="node10" class="node">
<title>enspostprocess_mod</title>
<g id="a_node10"><a xlink:href="../modules/enspostprocess_mod_rev.svg" xlink:title="enspostprocess_mod">
<polygon fill="none" stroke="blue" points="582,-108 453,-108 453,-72 582,-72 582,-108"/>
<text text-anchor="middle" x="517.5" y="-86.3" font-family="Times,serif" font-size="14.00">enspostprocess_mod</text>
</a>
</g>
</g>
<!-- enspostprocess_mod&#45;&gt;calcHeightAndPressure_mod -->
<g id="edge9" class="edge">
<title>enspostprocess_mod&#45;&gt;calcHeightAndPressure_mod</title>
<path fill="none" stroke="black" d="M501.41,-65.03C495.02,-55.52 487.83,-44.8 481.98,-36.1"/>
<ellipse fill="black" stroke="black" cx="503.65" cy="-68.38" rx="4" ry="4"/>
</g>
<!-- fsoi_mod -->
<g id="node11" class="node">
<title>fsoi_mod</title>
<g id="a_node11"><a xlink:href="../modules/fsoi_mod_rev.svg" xlink:title="fsoi_mod">
<polygon fill="none" stroke="blue" points="620.5,-180 552.5,-180 552.5,-144 620.5,-144 620.5,-180"/>
<text text-anchor="middle" x="586.5" y="-158.3" font-family="Times,serif" font-size="14.00">fsoi_mod</text>
</a>
</g>
</g>
<!-- fsoi_mod&#45;&gt;calcHeightAndPressure_mod -->
<g id="edge10" class="edge">
<title>fsoi_mod&#45;&gt;calcHeightAndPressure_mod</title>
<path fill="none" stroke="black" d="M595.05,-135.75C599.85,-116.7 602.71,-90.74 590.5,-72 579.68,-55.4 562.36,-43.96 544.2,-36.09"/>
<ellipse fill="black" stroke="black" cx="593.91" cy="-139.86" rx="4" ry="4"/>
</g>
<!-- gridvariabletransforms_mod -->
<g id="node12" class="node">
<title>gridvariabletransforms_mod</title>
<g id="a_node12"><a xlink:href="../modules/gridvariabletransforms_mod_rev.svg" xlink:title="gridvariabletransforms_mod">
<polygon fill="none" stroke="blue" points="658,-252 483,-252 483,-216 658,-216 658,-252"/>
<text text-anchor="middle" x="570.5" y="-230.3" font-family="Times,serif" font-size="14.00">gridvariabletransforms_mod</text>
</a>
</g>
</g>
<!-- gridvariabletransforms_mod&#45;&gt;calcHeightAndPressure_mod -->
<g id="edge11" class="edge">
<title>gridvariabletransforms_mod&#45;&gt;calcHeightAndPressure_mod</title>
<path fill="none" stroke="black" d="M604.79,-210.7C614.64,-202.36 624.16,-191.97 629.5,-180 649.38,-135.42 642.37,-108.09 609.5,-72 594.37,-55.39 573.47,-43.95 552.47,-36.08"/>
<ellipse fill="black" stroke="black" cx="601.43" cy="-213.38" rx="4" ry="4"/>
</g>
<!-- humiditylimits_mod -->
<g id="node13" class="node">
<title>humiditylimits_mod</title>
<g id="a_node13"><a xlink:href="../modules/humiditylimits_mod_rev.svg" xlink:title="humiditylimits_mod">
<polygon fill="none" stroke="blue" points="696,-324 567,-324 567,-288 696,-288 696,-324"/>
<text text-anchor="middle" x="631.5" y="-302.3" font-family="Times,serif" font-size="14.00">humiditylimits_mod</text>
</a>
</g>
</g>
<!-- humiditylimits_mod&#45;&gt;calcHeightAndPressure_mod -->
<g id="edge12" class="edge">
<title>humiditylimits_mod&#45;&gt;calcHeightAndPressure_mod</title>
<path fill="none" stroke="black" d="M651.52,-281.14C657.55,-272.51 663.4,-262.33 666.5,-252 683.24,-196.27 661.63,-99.88 636.5,-72 616.45,-49.75 587.08,-36.79 558.6,-29.25"/>
<ellipse fill="black" stroke="black" cx="649.05" cy="-284.48" rx="4" ry="4"/>
</g>
<!-- interpolation_mod -->
<g id="node14" class="node">
<title>interpolation_mod</title>
<g id="a_node14"><a xlink:href="../modules/interpolation_mod_rev.svg" xlink:title="interpolation_mod">
<polygon fill="none" stroke="blue" points="734.5,-396 616.5,-396 616.5,-360 734.5,-360 734.5,-396"/>
<text text-anchor="middle" x="675.5" y="-374.3" font-family="Times,serif" font-size="14.00">interpolation_mod</text>
</a>
</g>
</g>
<!-- interpolation_mod&#45;&gt;calcHeightAndPressure_mod -->
<g id="edge13" class="edge">
<title>interpolation_mod&#45;&gt;calcHeightAndPressure_mod</title>
<path fill="none" stroke="black" d="M690.56,-352.88C695.56,-344.05 700.8,-333.81 704.5,-324 718.81,-286.07 724.5,-275.54 724.5,-235 724.5,-235 724.5,-235 724.5,-161 724.5,-82.95 631.99,-47.38 558.62,-31.46"/>
<ellipse fill="black" stroke="black" cx="688.46" cy="-356.47" rx="4" ry="4"/>
</g>
<!-- obsspaceerrorstddev_mod -->
<g id="node15" class="node">
<title>obsspaceerrorstddev_mod</title>
<g id="a_node15"><a xlink:href="../modules/obsspaceerrorstddev_mod_rev.svg" xlink:title="obsspaceerrorstddev_mod">
<polygon fill="none" stroke="blue" points="807,-468 648,-468 648,-432 807,-432 807,-468"/>
<text text-anchor="middle" x="727.5" y="-446.3" font-family="Times,serif" font-size="14.00">obsspaceerrorstddev_mod</text>
</a>
</g>
</g>
<!-- obsspaceerrorstddev_mod&#45;&gt;calcHeightAndPressure_mod -->
<g id="edge14" class="edge">
<title>obsspaceerrorstddev_mod&#45;&gt;calcHeightAndPressure_mod</title>
<path fill="none" stroke="black" d="M737.5,-424.14C747.85,-396.14 762.5,-349.06 762.5,-307 762.5,-307 762.5,-307 762.5,-161 762.5,-69.26 644.48,-36.77 558.51,-25.28"/>
<ellipse fill="black" stroke="black" cx="736" cy="-428.11" rx="4" ry="4"/>
</g>
<!-- statetocolumn_mod -->
<g id="node16" class="node">
<title>statetocolumn_mod</title>
<g id="a_node16"><a xlink:href="../modules/statetocolumn_mod_rev.svg" xlink:title="statetocolumn_mod">
<polygon fill="none" stroke="blue" points="897,-540 772,-540 772,-504 897,-504 897,-540"/>
<text text-anchor="middle" x="834.5" y="-518.3" font-family="Times,serif" font-size="14.00">statetocolumn_mod</text>
</a>
</g>
</g>
<!-- statetocolumn_mod&#45;&gt;calcHeightAndPressure_mod -->
<g id="edge15" class="edge">
<title>statetocolumn_mod&#45;&gt;calcHeightAndPressure_mod</title>
<path fill="none" stroke="black" d="M834.5,-495.78C834.5,-467.39 834.5,-419.89 834.5,-379 834.5,-379 834.5,-379 834.5,-161 834.5,-104.11 792.95,-98.3 742.5,-72 685.55,-42.31 614.03,-29.17 558.62,-23.39"/>
<ellipse fill="black" stroke="black" cx="834.5" cy="-499.95" rx="4" ry="4"/>
</g>
<!-- verticalmodes_mod -->
<g id="node17" class="node">
<title>verticalmodes_mod</title>
<g id="a_node17"><a xlink:href="../modules/verticalmodes_mod_rev.svg" xlink:title="verticalmodes_mod">
<polygon fill="none" stroke="blue" points="988,-612 863,-612 863,-576 988,-576 988,-612"/>
<text text-anchor="middle" x="925.5" y="-590.3" font-family="Times,serif" font-size="14.00">verticalmodes_mod</text>
</a>
</g>
</g>
<!-- verticalmodes_mod&#45;&gt;calcHeightAndPressure_mod -->
<g id="edge16" class="edge">
<title>verticalmodes_mod&#45;&gt;calcHeightAndPressure_mod</title>
<path fill="none" stroke="black" d="M925.5,-567.78C925.5,-539.39 925.5,-491.89 925.5,-451 925.5,-451 925.5,-451 925.5,-161 925.5,-89.51 858.03,-98.18 791.5,-72 716.21,-42.37 624.67,-29.3 558.64,-23.54"/>
<ellipse fill="black" stroke="black" cx="925.5" cy="-571.95" rx="4" ry="4"/>
</g>
</g>
</svg>
