<?xml version="1.0" encoding="UTF-8" standalone="no"?>
<!DOCTYPE svg PUBLIC "-//W3C//DTD SVG 1.1//EN"
 "http://www.w3.org/Graphics/SVG/1.1/DTD/svg11.dtd">
<!-- Generated by graphviz version 3.0.0 (20220315.2325)
 -->
<!-- Title: calcStatsGlb_mod Pages: 1 -->
<svg width="1238pt" height="673pt"
 viewBox="0.00 0.00 1237.50 673.00" xmlns="http://www.w3.org/2000/svg" xmlns:xlink="http://www.w3.org/1999/xlink">
<g id="graph0" class="graph" transform="scale(1 1) rotate(0) translate(4 669)">
<title>calcStatsGlb_mod</title>
<polygon fill="white" stroke="transparent" points="-4,4 -4,-669 1233.5,-669 1233.5,4 -4,4"/>
<text text-anchor="middle" x="614.75" y="-37.8" font-family="Times,serif" font-size="14.00">Red boxes indicate modules with dependencies not shown</text>
<text text-anchor="middle" x="614.75" y="-22.8" font-family="Times,serif" font-size="14.00">Lower level dependencies can be shown by clicking on a red box</text>
<text text-anchor="middle" x="614.75" y="-7.8" font-family="Times,serif" font-size="14.00">Shaded boxes indicate modules with no dependencies</text>
<!-- calcStatsGlb_mod -->
<g id="node1" class="node">
<title>calcStatsGlb_mod</title>
<g id="a_node1"><a xlink:href="calcStatsGlb_mod.html" xlink:title="calcStatsGlb_mod">
<polygon fill="none" stroke="black" points="719,-665 603,-665 603,-629 719,-629 719,-665"/>
<text text-anchor="middle" x="661" y="-643.3" font-family="Times,serif" font-size="14.00">calcStatsGlb_mod</text>
</a>
</g>
</g>
<!-- calcheightandpressure_mod -->
<g id="node2" class="node">
<title>calcheightandpressure_mod</title>
<g id="a_node2"><a xlink:href="../modules/calcheightandpressure_mod.svg" xlink:title="calcheightandpressure_mod">
<polygon fill="none" stroke="red" points="168,-593 0,-593 0,-557 168,-557 168,-593"/>
<text text-anchor="middle" x="84" y="-571.3" font-family="Times,serif" font-size="14.00">calcheightandpressure_mod</text>
</a>
</g>
</g>
<!-- calcStatsGlb_mod&#45;&gt;calcheightandpressure_mod -->
<g id="edge1" class="edge">
<title>calcStatsGlb_mod&#45;&gt;calcheightandpressure_mod</title>
<path fill="none" stroke="black" d="M602.97,-640.74C512.73,-632.3 333.38,-614.48 182,-593 180.73,-592.82 179.44,-592.63 178.15,-592.45"/>
<polygon fill="black" stroke="black" points="178.55,-588.97 168.14,-590.94 177.51,-595.89 178.55,-588.97"/>
</g>
<!-- codeprecision_mod -->
<g id="node3" class="node">
<title>codeprecision_mod</title>
<g id="a_node3"><a xlink:href="codeprecision_mod.html" xlink:title="codeprecision_mod">
<polygon fill="gray" stroke="black" points="231.5,-521 108.5,-521 108.5,-485 231.5,-485 231.5,-521"/>
<text text-anchor="middle" x="170" y="-499.3" font-family="Times,serif" font-size="14.00">codeprecision_mod</text>
</a>
</g>
</g>
<!-- calcStatsGlb_mod&#45;&gt;codeprecision_mod -->
<g id="edge2" class="edge">
<title>calcStatsGlb_mod&#45;&gt;codeprecision_mod</title>
<path fill="none" stroke="black" d="M602.61,-643.7C503.28,-638.94 306.3,-625.59 246,-593 219.22,-578.52 197.75,-550.51 184.55,-529.76"/>
<polygon fill="black" stroke="black" points="187.45,-527.79 179.25,-521.09 181.48,-531.45 187.45,-527.79"/>
</g>
<!-- earthconstants_mod -->
<g id="node4" class="node">
<title>earthconstants_mod</title>
<g id="a_node4"><a xlink:href="../modules/earthconstants_mod.svg" xlink:title="earthconstants_mod">
<polygon fill="none" stroke="red" points="270,-449 144,-449 144,-413 270,-413 270,-449"/>
<text text-anchor="middle" x="207" y="-427.3" font-family="Times,serif" font-size="14.00">earthconstants_mod</text>
</a>
</g>
</g>
<!-- calcStatsGlb_mod&#45;&gt;earthconstants_mod -->
<g id="edge3" class="edge">
<title>calcStatsGlb_mod&#45;&gt;earthconstants_mod</title>
<path fill="none" stroke="black" d="M602.73,-644.75C509.53,-641.64 332.49,-630.77 284,-593 243.11,-561.15 263.56,-531.17 240,-485 235.37,-475.92 229.69,-466.37 224.36,-457.91"/>
<polygon fill="black" stroke="black" points="227.13,-455.75 218.77,-449.23 221.24,-459.53 227.13,-455.75"/>
</g>
<!-- ensemblestatevector_mod -->
<g id="node5" class="node">
<title>ensemblestatevector_mod</title>
<g id="a_node5"><a xlink:href="../modules/ensemblestatevector_mod.svg" xlink:title="ensemblestatevector_mod">
<polygon fill="none" stroke="red" points="308,-377 150,-377 150,-341 308,-341 308,-377"/>
<text text-anchor="middle" x="229" y="-355.3" font-family="Times,serif" font-size="14.00">ensemblestatevector_mod</text>
</a>
</g>
</g>
<!-- calcStatsGlb_mod&#45;&gt;ensemblestatevector_mod -->
<g id="edge4" class="edge">
<title>calcStatsGlb_mod&#45;&gt;ensemblestatevector_mod</title>
<path fill="none" stroke="black" d="M602.73,-644.51C516.79,-641.08 361.88,-629.83 322,-593 261.58,-537.19 318.1,-485.36 279,-413 273.38,-402.6 265.21,-392.74 257.09,-384.4"/>
<polygon fill="black" stroke="black" points="259.32,-381.69 249.73,-377.2 254.43,-386.7 259.32,-381.69"/>
</g>
<!-- filenames_mod -->
<g id="node6" class="node">
<title>filenames_mod</title>
<g id="a_node6"><a xlink:href="../modules/filenames_mod.svg" xlink:title="filenames_mod">
<polygon fill="none" stroke="red" points="345.5,-305 244.5,-305 244.5,-269 345.5,-269 345.5,-305"/>
<text text-anchor="middle" x="295" y="-283.3" font-family="Times,serif" font-size="14.00">filenames_mod</text>
</a>
</g>
</g>
<!-- calcStatsGlb_mod&#45;&gt;filenames_mod -->
<g id="edge5" class="edge">
<title>calcStatsGlb_mod&#45;&gt;filenames_mod</title>
<path fill="none" stroke="black" d="M602.93,-643.05C525.65,-637.93 394.7,-624.74 360,-593 329.77,-565.35 336,-544.97 336,-504 336,-504 336,-504 336,-430 336,-388.41 319.56,-342.56 307.5,-314.51"/>
<polygon fill="black" stroke="black" points="310.55,-312.75 303.3,-305.03 304.15,-315.59 310.55,-312.75"/>
</g>
<!-- globalspectraltransform_mod -->
<g id="node7" class="node">
<title>globalspectraltransform_mod</title>
<g id="a_node7"><a xlink:href="../modules/globalspectraltransform_mod.svg" xlink:title="globalspectraltransform_mod">
<polygon fill="none" stroke="red" points="384,-233 206,-233 206,-197 384,-197 384,-233"/>
<text text-anchor="middle" x="295" y="-211.3" font-family="Times,serif" font-size="14.00">globalspectraltransform_mod</text>
</a>
</g>
</g>
<!-- calcStatsGlb_mod&#45;&gt;globalspectraltransform_mod -->
<g id="edge6" class="edge">
<title>calcStatsGlb_mod&#45;&gt;globalspectraltransform_mod</title>
<path fill="none" stroke="black" d="M602.88,-641.36C534.64,-634.73 427.05,-620.24 398,-593 368.11,-564.98 374,-544.97 374,-504 374,-504 374,-504 374,-358 374,-317.46 374.49,-303.98 354,-269 347.53,-257.96 337.98,-247.94 328.43,-239.67"/>
<polygon fill="black" stroke="black" points="330.44,-236.79 320.49,-233.14 326,-242.2 330.44,-236.79"/>
</g>
<!-- gridbinning_mod -->
<g id="node8" class="node">
<title>gridbinning_mod</title>
<g id="a_node8"><a xlink:href="../modules/gridbinning_mod.svg" xlink:title="gridbinning_mod">
<polygon fill="none" stroke="red" points="421.5,-161 308.5,-161 308.5,-125 421.5,-125 421.5,-161"/>
<text text-anchor="middle" x="365" y="-139.3" font-family="Times,serif" font-size="14.00">gridbinning_mod</text>
</a>
</g>
</g>
<!-- calcStatsGlb_mod&#45;&gt;gridbinning_mod -->
<g id="edge7" class="edge">
<title>calcStatsGlb_mod&#45;&gt;gridbinning_mod</title>
<path fill="none" stroke="black" d="M602.79,-639.11C544.29,-631.02 459.5,-615.75 436,-593 406.57,-564.5 412,-544.97 412,-504 412,-504 412,-504 412,-286 412,-245.55 406.8,-235.02 393,-197 389.7,-187.9 385.1,-178.42 380.58,-170.03"/>
<polygon fill="black" stroke="black" points="383.53,-168.13 375.59,-161.11 377.42,-171.55 383.53,-168.13"/>
</g>
<!-- gridstatevectorfileio_mod -->
<g id="node9" class="node">
<title>gridstatevectorfileio_mod</title>
<g id="a_node9"><a xlink:href="../modules/gridstatevectorfileio_mod.svg" xlink:title="gridstatevectorfileio_mod">
<polygon fill="none" stroke="red" points="529,-89 371,-89 371,-53 529,-53 529,-89"/>
<text text-anchor="middle" x="450" y="-67.3" font-family="Times,serif" font-size="14.00">gridstatevectorfileio_mod</text>
</a>
</g>
</g>
<!-- calcStatsGlb_mod&#45;&gt;gridstatevectorfileio_mod -->
<g id="edge8" class="edge">
<title>calcStatsGlb_mod&#45;&gt;gridstatevectorfileio_mod</title>
<path fill="none" stroke="black" d="M602.83,-644.35C561.22,-640.05 506.79,-627.54 473,-593 444.43,-563.8 450,-544.86 450,-504 450,-504 450,-504 450,-214 450,-174 450,-127.65 450,-99.08"/>
<polygon fill="black" stroke="black" points="453.5,-99.05 450,-89.05 446.5,-99.05 453.5,-99.05"/>
</g>
<!-- gridstatevector_mod -->
<g id="node10" class="node">
<title>gridstatevector_mod</title>
<g id="a_node10"><a xlink:href="../modules/gridstatevector_mod.svg" xlink:title="gridstatevector_mod">
<polygon fill="none" stroke="red" points="612,-593 482,-593 482,-557 612,-557 612,-593"/>
<text text-anchor="middle" x="547" y="-571.3" font-family="Times,serif" font-size="14.00">gridstatevector_mod</text>
</a>
</g>
</g>
<!-- calcStatsGlb_mod&#45;&gt;gridstatevector_mod -->
<g id="edge9" class="edge">
<title>calcStatsGlb_mod&#45;&gt;gridstatevector_mod</title>
<path fill="none" stroke="black" d="M633.11,-628.88C618.21,-619.72 599.67,-608.34 583.62,-598.48"/>
<polygon fill="black" stroke="black" points="585.35,-595.44 574.99,-593.19 581.69,-601.41 585.35,-595.44"/>
</g>
<!-- gridvariabletransforms_mod -->
<g id="node11" class="node">
<title>gridvariabletransforms_mod</title>
<g id="a_node11"><a xlink:href="../modules/gridvariabletransforms_mod.svg" xlink:title="gridvariabletransforms_mod">
<polygon fill="none" stroke="red" points="653.5,-521 478.5,-521 478.5,-485 653.5,-485 653.5,-521"/>
<text text-anchor="middle" x="566" y="-499.3" font-family="Times,serif" font-size="14.00">gridvariabletransforms_mod</text>
</a>
</g>
</g>
<!-- calcStatsGlb_mod&#45;&gt;gridvariabletransforms_mod -->
<g id="edge10" class="edge">
<title>calcStatsGlb_mod&#45;&gt;gridvariabletransforms_mod</title>
<path fill="none" stroke="black" d="M655.53,-628.92C649.05,-610.22 637.08,-579.86 621,-557 613.61,-546.49 603.93,-536.35 594.76,-527.8"/>
<polygon fill="black" stroke="black" points="597.01,-525.11 587.24,-521.02 592.33,-530.31 597.01,-525.11"/>
</g>
<!-- horizontalcoord_mod -->
<g id="node12" class="node">
<title>horizontalcoord_mod</title>
<g id="a_node12"><a xlink:href="../modules/horizontalcoord_mod.svg" xlink:title="horizontalcoord_mod">
<polygon fill="none" stroke="red" points="692,-449 558,-449 558,-413 692,-413 692,-449"/>
<text text-anchor="middle" x="625" y="-427.3" font-family="Times,serif" font-size="14.00">horizontalcoord_mod</text>
</a>
</g>
</g>
<!-- calcStatsGlb_mod&#45;&gt;horizontalcoord_mod -->
<g id="edge11" class="edge">
<title>calcStatsGlb_mod&#45;&gt;horizontalcoord_mod</title>
<path fill="none" stroke="black" d="M664.51,-628.57C669.84,-598.46 677.77,-535.13 662,-485 658.9,-475.15 653.25,-465.53 647.28,-457.25"/>
<polygon fill="black" stroke="black" points="649.91,-454.94 641.04,-449.15 644.37,-459.21 649.91,-454.94"/>
</g>
<!-- mathphysconstants_mod -->
<g id="node13" class="node">
<title>mathphysconstants_mod</title>
<g id="a_node13"><a xlink:href="mathphysconstants_mod.html" xlink:title="mathphysconstants_mod">
<polygon fill="gray" stroke="black" points="730,-377 578,-377 578,-341 730,-341 730,-377"/>
<text text-anchor="middle" x="654" y="-355.3" font-family="Times,serif" font-size="14.00">mathphysconstants_mod</text>
</a>
</g>
</g>
<!-- calcStatsGlb_mod&#45;&gt;mathphysconstants_mod -->
<g id="edge12" class="edge">
<title>calcStatsGlb_mod&#45;&gt;mathphysconstants_mod</title>
<path fill="none" stroke="black" d="M669.94,-628.74C689.12,-589.28 730.2,-489.94 701,-413 697.03,-402.54 689.95,-392.83 682.47,-384.65"/>
<polygon fill="black" stroke="black" points="684.77,-381.99 675.27,-377.3 679.77,-386.89 684.77,-381.99"/>
</g>
<!-- menetrierdiag_mod -->
<g id="node14" class="node">
<title>menetrierdiag_mod</title>
<g id="a_node14"><a xlink:href="../modules/menetrierdiag_mod.svg" xlink:title="menetrierdiag_mod">
<polygon fill="none" stroke="red" points="767.5,-305 642.5,-305 642.5,-269 767.5,-269 767.5,-305"/>
<text text-anchor="middle" x="705" y="-283.3" font-family="Times,serif" font-size="14.00">menetrierdiag_mod</text>
</a>
</g>
</g>
<!-- calcStatsGlb_mod&#45;&gt;menetrierdiag_mod -->
<g id="edge13" class="edge">
<title>calcStatsGlb_mod&#45;&gt;menetrierdiag_mod</title>
<path fill="none" stroke="black" d="M683.01,-628.88C711.63,-604.5 758,-556.84 758,-504 758,-504 758,-504 758,-430 758,-389.55 754.39,-378.4 739,-341 735.11,-331.55 729.52,-321.93 724,-313.52"/>
<polygon fill="black" stroke="black" points="726.88,-311.54 718.34,-305.27 721.11,-315.49 726.88,-311.54"/>
</g>
<!-- midasmpi_mod -->
<g id="node15" class="node">
<title>midasmpi_mod</title>
<g id="a_node15"><a xlink:href="../modules/midasmpi_mod.svg" xlink:title="midasmpi_mod">
<polygon fill="none" stroke="red" points="806,-233 704,-233 704,-197 806,-197 806,-233"/>
<text text-anchor="middle" x="755" y="-211.3" font-family="Times,serif" font-size="14.00">midasmpi_mod</text>
</a>
</g>
</g>
<!-- calcStatsGlb_mod&#45;&gt;midasmpi_mod -->
<g id="edge14" class="edge">
<title>calcStatsGlb_mod&#45;&gt;midasmpi_mod</title>
<path fill="none" stroke="black" d="M695.42,-628.87C735.41,-606.24 796,-562.34 796,-504 796,-504 796,-504 796,-358 796,-316.41 779.56,-270.56 767.5,-242.51"/>
<polygon fill="black" stroke="black" points="770.55,-240.75 763.3,-233.03 764.15,-243.59 770.55,-240.75"/>
</g>
<!-- spectralfilter_mod -->
<g id="node16" class="node">
<title>spectralfilter_mod</title>
<g id="a_node16"><a xlink:href="spectralfilter_mod.html" xlink:title="spectralfilter_mod">
<polygon fill="gray" stroke="black" points="844,-161 728,-161 728,-125 844,-125 844,-161"/>
<text text-anchor="middle" x="786" y="-139.3" font-family="Times,serif" font-size="14.00">spectralfilter_mod</text>
</a>
</g>
</g>
<!-- calcStatsGlb_mod&#45;&gt;spectralfilter_mod -->
<g id="edge15" class="edge">
<title>calcStatsGlb_mod&#45;&gt;spectralfilter_mod</title>
<path fill="none" stroke="black" d="M711.97,-628.85C763,-608.08 834,-567.73 834,-504 834,-504 834,-504 834,-286 834,-245.55 829.08,-234.92 815,-197 811.6,-187.86 806.85,-178.36 802.17,-169.98"/>
<polygon fill="black" stroke="black" points="805.04,-167.95 797,-161.06 798.99,-171.47 805.04,-167.95"/>
</g>
<!-- timecoord_mod -->
<g id="node17" class="node">
<title>timecoord_mod</title>
<g id="a_node17"><a xlink:href="../modules/timecoord_mod.svg" xlink:title="timecoord_mod">
<polygon fill="none" stroke="red" points="924,-89 820,-89 820,-53 924,-53 924,-89"/>
<text text-anchor="middle" x="872" y="-67.3" font-family="Times,serif" font-size="14.00">timecoord_mod</text>
</a>
</g>
</g>
<!-- calcStatsGlb_mod&#45;&gt;timecoord_mod -->
<g id="edge16" class="edge">
<title>calcStatsGlb_mod&#45;&gt;timecoord_mod</title>
<path fill="none" stroke="black" d="M719.22,-633.34C781.67,-615.93 872,-577.96 872,-504 872,-504 872,-504 872,-214 872,-174 872,-127.65 872,-99.08"/>
<polygon fill="black" stroke="black" points="875.5,-99.05 872,-89.05 868.5,-99.05 875.5,-99.05"/>
</g>
<!-- utilities_mod -->
<g id="node18" class="node">
<title>utilities_mod</title>
<g id="a_node18"><a xlink:href="../modules/utilities_mod.svg" xlink:title="utilities_mod">
<polygon fill="none" stroke="red" points="989.5,-593 900.5,-593 900.5,-557 989.5,-557 989.5,-593"/>
<text text-anchor="middle" x="945" y="-571.3" font-family="Times,serif" font-size="14.00">utilities_mod</text>
</a>
</g>
</g>
<!-- calcStatsGlb_mod&#45;&gt;utilities_mod -->
<g id="edge17" class="edge">
<title>calcStatsGlb_mod&#45;&gt;utilities_mod</title>
<path fill="none" stroke="black" d="M719.47,-633.06C765,-622.78 829.7,-607.73 886,-593 887.45,-592.62 888.92,-592.23 890.4,-591.83"/>
<polygon fill="black" stroke="black" points="891.56,-595.15 900.29,-589.13 889.72,-588.39 891.56,-595.15"/>
</g>
<!-- varnamelist_mod -->
<g id="node19" class="node">
<title>varnamelist_mod</title>
<g id="a_node19"><a xlink:href="../modules/varnamelist_mod.svg" xlink:title="varnamelist_mod">
<polygon fill="none" stroke="red" points="1050.5,-521 937.5,-521 937.5,-485 1050.5,-485 1050.5,-521"/>
<text text-anchor="middle" x="994" y="-499.3" font-family="Times,serif" font-size="14.00">varnamelist_mod</text>
</a>
</g>
</g>
<!-- calcStatsGlb_mod&#45;&gt;varnamelist_mod -->
<g id="edge18" class="edge">
<title>calcStatsGlb_mod&#45;&gt;varnamelist_mod</title>
<path fill="none" stroke="black" d="M719.35,-645.57C806.14,-643.55 962.83,-634.13 998,-593 1012.31,-576.26 1009.47,-550.6 1004.12,-531.13"/>
<polygon fill="black" stroke="black" points="1007.38,-529.84 1001.08,-521.32 1000.69,-531.91 1007.38,-529.84"/>
</g>
<!-- verticalcoord_mod -->
<g id="node20" class="node">
<title>verticalcoord_mod</title>
<g id="a_node20"><a xlink:href="../modules/verticalcoord_mod.svg" xlink:title="verticalcoord_mod">
<polygon fill="none" stroke="red" points="1139,-449 1019,-449 1019,-413 1139,-413 1139,-449"/>
<text text-anchor="middle" x="1079" y="-427.3" font-family="Times,serif" font-size="14.00">verticalcoord_mod</text>
</a>
</g>
</g>
<!-- calcStatsGlb_mod&#45;&gt;verticalcoord_mod -->
<g id="edge19" class="edge">
<title>calcStatsGlb_mod&#45;&gt;verticalcoord_mod</title>
<path fill="none" stroke="black" d="M719.27,-643.47C807.7,-638.62 970.56,-625.47 1018,-593 1061.89,-562.96 1074.24,-496.9 1077.69,-459.4"/>
<polygon fill="black" stroke="black" points="1081.19,-459.43 1078.47,-449.2 1074.21,-458.9 1081.19,-459.43"/>
</g>
<!-- verticalmodes_mod -->
<g id="node21" class="node">
<title>verticalmodes_mod</title>
<g id="a_node21"><a xlink:href="../modules/verticalmodes_mod.svg" xlink:title="verticalmodes_mod">
<polygon fill="none" stroke="red" points="1229.5,-377 1104.5,-377 1104.5,-341 1229.5,-341 1229.5,-377"/>
<text text-anchor="middle" x="1167" y="-355.3" font-family="Times,serif" font-size="14.00">verticalmodes_mod</text>
</a>
</g>
</g>
<!-- calcStatsGlb_mod&#45;&gt;verticalmodes_mod -->
<g id="edge20" class="edge">
<title>calcStatsGlb_mod&#45;&gt;verticalmodes_mod</title>
<path fill="none" stroke="black" d="M719.16,-643.71C813.33,-639.07 994.09,-626.05 1048,-593 1114.43,-552.28 1117.04,-520.5 1148,-449 1156.57,-429.22 1161.4,-405.24 1164.04,-387.16"/>
<polygon fill="black" stroke="black" points="1167.54,-387.38 1165.39,-377.01 1160.61,-386.46 1167.54,-387.38"/>
</g>
</g>
</svg>
