<?xml version="1.0" encoding="UTF-8" standalone="no"?>
<!DOCTYPE svg PUBLIC "-//W3C//DTD SVG 1.1//EN"
 "http://www.w3.org/Graphics/SVG/1.1/DTD/svg11.dtd">
<!-- Generated by graphviz version 3.0.0 (20220315.2325)
 -->
<!-- Title: calcHeightAndPressure_mod Pages: 1 -->
<svg width="740pt" height="673pt"
 viewBox="0.00 0.00 739.50 673.00" xmlns="http://www.w3.org/2000/svg" xmlns:xlink="http://www.w3.org/1999/xlink">
<g id="graph0" class="graph" transform="scale(1 1) rotate(0) translate(4 669)">
<title>calcHeightAndPressure_mod</title>
<polygon fill="white" stroke="transparent" points="-4,4 -4,-669 735.5,-669 735.5,4 -4,4"/>
<text text-anchor="middle" x="365.75" y="-37.8" font-family="Times,serif" font-size="14.00">Red boxes indicate modules with dependencies not shown</text>
<text text-anchor="middle" x="365.75" y="-22.8" font-family="Times,serif" font-size="14.00">Lower level dependencies can be shown by clicking on a red box</text>
<text text-anchor="middle" x="365.75" y="-7.8" font-family="Times,serif" font-size="14.00">Shaded boxes indicate modules with no dependencies</text>
<!-- calcHeightAndPressure_mod -->
<g id="node1" class="node">
<title>calcHeightAndPressure_mod</title>
<g id="a_node1"><a xlink:href="calcHeightAndPressure_mod.html" xlink:title="calcHeightAndPressure_mod">
<polygon fill="none" stroke="black" points="414.5,-665 238.5,-665 238.5,-629 414.5,-629 414.5,-665"/>
<text text-anchor="middle" x="326.5" y="-643.3" font-family="Times,serif" font-size="14.00">calcHeightAndPressure_mod</text>
</a>
</g>
</g>
<!-- codeprecision_mod -->
<g id="node2" class="node">
<title>codeprecision_mod</title>
<g id="a_node2"><a xlink:href="codeprecision_mod.html" xlink:title="codeprecision_mod">
<polygon fill="gray" stroke="black" points="123,-593 0,-593 0,-557 123,-557 123,-593"/>
<text text-anchor="middle" x="61.5" y="-571.3" font-family="Times,serif" font-size="14.00">codeprecision_mod</text>
</a>
</g>
</g>
<!-- calcHeightAndPressure_mod&#45;&gt;codeprecision_mod -->
<g id="edge1" class="edge">
<title>calcHeightAndPressure_mod&#45;&gt;codeprecision_mod</title>
<path fill="none" stroke="black" d="M262.01,-628.97C222.95,-618.65 173.06,-605.47 132.83,-594.84"/>
<polygon fill="black" stroke="black" points="133.64,-591.44 123.08,-592.27 131.85,-598.2 133.64,-591.44"/>
</g>
<!-- columndata_mod -->
<g id="node3" class="node">
<title>columndata_mod</title>
<g id="a_node3"><a xlink:href="../modules/columndata_mod.svg" xlink:title="columndata_mod">
<polygon fill="none" stroke="red" points="184.5,-521 72.5,-521 72.5,-485 184.5,-485 184.5,-521"/>
<text text-anchor="middle" x="128.5" y="-499.3" font-family="Times,serif" font-size="14.00">columndata_mod</text>
</a>
</g>
</g>
<!-- calcHeightAndPressure_mod&#45;&gt;columndata_mod -->
<g id="edge2" class="edge">
<title>calcHeightAndPressure_mod&#45;&gt;columndata_mod</title>
<path fill="none" stroke="black" d="M268.06,-628.95C244.98,-620.46 219.11,-608.62 198.5,-593 175.78,-575.78 156.33,-549.51 143.75,-529.96"/>
<polygon fill="black" stroke="black" points="146.57,-527.87 138.3,-521.25 140.63,-531.58 146.57,-527.87"/>
</g>
<!-- earthconstants_mod -->
<g id="node4" class="node">
<title>earthconstants_mod</title>
<g id="a_node4"><a xlink:href="../modules/earthconstants_mod.svg" xlink:title="earthconstants_mod">
<polygon fill="none" stroke="red" points="222.5,-449 96.5,-449 96.5,-413 222.5,-413 222.5,-449"/>
<text text-anchor="middle" x="159.5" y="-427.3" font-family="Times,serif" font-size="14.00">earthconstants_mod</text>
</a>
</g>
</g>
<!-- calcHeightAndPressure_mod&#45;&gt;earthconstants_mod -->
<g id="edge3" class="edge">
<title>calcHeightAndPressure_mod&#45;&gt;earthconstants_mod</title>
<path fill="none" stroke="black" d="M285.2,-628.96C268.26,-620.27 249.6,-608.28 236.5,-593 202.87,-553.78 217.11,-530.95 193.5,-485 188.75,-475.76 182.85,-466.08 177.3,-457.56"/>
<polygon fill="black" stroke="black" points="180.16,-455.55 171.7,-449.17 174.34,-459.43 180.16,-455.55"/>
</g>
<!-- gps_mod -->
<g id="node5" class="node">
<title>gps_mod</title>
<g id="a_node5"><a xlink:href="../modules/gps_mod.svg" xlink:title="gps_mod">
<polygon fill="none" stroke="red" points="260.5,-377 192.5,-377 192.5,-341 260.5,-341 260.5,-377"/>
<text text-anchor="middle" x="226.5" y="-355.3" font-family="Times,serif" font-size="14.00">gps_mod</text>
</a>
</g>
</g>
<!-- calcHeightAndPressure_mod&#45;&gt;gps_mod -->
<g id="edge4" class="edge">
<title>calcHeightAndPressure_mod&#45;&gt;gps_mod</title>
<path fill="none" stroke="black" d="M304.49,-628.81C293.85,-619.36 281.83,-606.77 274.5,-593 255.56,-557.45 237.61,-440.8 230.15,-387.28"/>
<polygon fill="black" stroke="black" points="233.58,-386.59 228.75,-377.16 226.65,-387.55 233.58,-386.59"/>
</g>
<!-- gridstatevector_mod -->
<g id="node6" class="node">
<title>gridstatevector_mod</title>
<g id="a_node6"><a xlink:href="../modules/gridstatevector_mod.svg" xlink:title="gridstatevector_mod">
<polygon fill="none" stroke="red" points="298.5,-305 168.5,-305 168.5,-269 298.5,-269 298.5,-305"/>
<text text-anchor="middle" x="233.5" y="-283.3" font-family="Times,serif" font-size="14.00">gridstatevector_mod</text>
</a>
</g>
</g>
<!-- calcHeightAndPressure_mod&#45;&gt;gridstatevector_mod -->
<g id="edge5" class="edge">
<title>calcHeightAndPressure_mod&#45;&gt;gridstatevector_mod</title>
<path fill="none" stroke="black" d="M318.81,-628.91C307.71,-602.62 288.5,-550.45 288.5,-504 288.5,-504 288.5,-504 288.5,-430 288.5,-389.55 285.38,-378.2 269.5,-341 265.42,-331.43 259.51,-321.78 253.66,-313.39"/>
<polygon fill="black" stroke="black" points="256.38,-311.17 247.66,-305.15 250.72,-315.29 256.38,-311.17"/>
</g>
<!-- horizontalcoord_mod -->
<g id="node7" class="node">
<title>horizontalcoord_mod</title>
<g id="a_node7"><a xlink:href="../modules/horizontalcoord_mod.svg" xlink:title="horizontalcoord_mod">
<polygon fill="none" stroke="red" points="336.5,-233 202.5,-233 202.5,-197 336.5,-197 336.5,-233"/>
<text text-anchor="middle" x="269.5" y="-211.3" font-family="Times,serif" font-size="14.00">horizontalcoord_mod</text>
</a>
</g>
</g>
<!-- calcHeightAndPressure_mod&#45;&gt;horizontalcoord_mod -->
<g id="edge6" class="edge">
<title>calcHeightAndPressure_mod&#45;&gt;horizontalcoord_mod</title>
<path fill="none" stroke="black" d="M326.5,-628.95C326.5,-602.29 326.5,-549.11 326.5,-504 326.5,-504 326.5,-504 326.5,-358 326.5,-317.55 323.85,-305.99 307.5,-269 303.17,-259.21 296.86,-249.43 290.62,-240.98"/>
<polygon fill="black" stroke="black" points="293.36,-238.8 284.48,-233.03 287.82,-243.08 293.36,-238.8"/>
</g>
<!-- mathphysconstants_mod -->
<g id="node8" class="node">
<title>mathphysconstants_mod</title>
<g id="a_node8"><a xlink:href="mathphysconstants_mod.html" xlink:title="mathphysconstants_mod">
<polygon fill="gray" stroke="black" points="374.5,-161 222.5,-161 222.5,-125 374.5,-125 374.5,-161"/>
<text text-anchor="middle" x="298.5" y="-139.3" font-family="Times,serif" font-size="14.00">mathphysconstants_mod</text>
</a>
</g>
</g>
<!-- calcHeightAndPressure_mod&#45;&gt;mathphysconstants_mod -->
<g id="edge7" class="edge">
<title>calcHeightAndPressure_mod&#45;&gt;mathphysconstants_mod</title>
<path fill="none" stroke="black" d="M334.19,-628.91C345.29,-602.62 364.5,-550.45 364.5,-504 364.5,-504 364.5,-504 364.5,-286 364.5,-245.55 363.74,-233.1 345.5,-197 340.32,-186.75 332.66,-176.92 325.03,-168.57"/>
<polygon fill="black" stroke="black" points="327.54,-166.14 318.09,-161.35 322.49,-170.99 327.54,-166.14"/>
</g>
<!-- message_mod -->
<g id="node9" class="node">
<title>message_mod</title>
<g id="a_node9"><a xlink:href="../modules/message_mod.svg" xlink:title="message_mod">
<polygon fill="none" stroke="red" points="450,-89 355,-89 355,-53 450,-53 450,-89"/>
<text text-anchor="middle" x="402.5" y="-67.3" font-family="Times,serif" font-size="14.00">message_mod</text>
</a>
</g>
</g>
<!-- calcHeightAndPressure_mod&#45;&gt;message_mod -->
<g id="edge8" class="edge">
<title>calcHeightAndPressure_mod&#45;&gt;message_mod</title>
<path fill="none" stroke="black" d="M342.99,-628.77C365.34,-603.53 402.5,-554.05 402.5,-504 402.5,-504 402.5,-504 402.5,-214 402.5,-174 402.5,-127.65 402.5,-99.08"/>
<polygon fill="black" stroke="black" points="406,-99.05 402.5,-89.05 399,-99.05 406,-99.05"/>
</g>
<!-- physicsfunctions_mod -->
<g id="node10" class="node">
<title>physicsfunctions_mod</title>
<g id="a_node10"><a xlink:href="../modules/physicsfunctions_mod.svg" xlink:title="physicsfunctions_mod">
<polygon fill="none" stroke="red" points="570,-593 431,-593 431,-557 570,-557 570,-593"/>
<text text-anchor="middle" x="500.5" y="-571.3" font-family="Times,serif" font-size="14.00">physicsfunctions_mod</text>
</a>
</g>
</g>
<!-- calcHeightAndPressure_mod&#45;&gt;physicsfunctions_mod -->
<g id="edge9" class="edge">
<title>calcHeightAndPressure_mod&#45;&gt;physicsfunctions_mod</title>
<path fill="none" stroke="black" d="M369.07,-628.88C393.06,-619.22 423.23,-607.09 448.6,-596.88"/>
<polygon fill="black" stroke="black" points="450.1,-600.05 458.07,-593.07 447.49,-593.55 450.1,-600.05"/>
</g>
<!-- utilities_mod -->
<g id="node11" class="node">
<title>utilities_mod</title>
<g id="a_node11"><a xlink:href="../modules/utilities_mod.svg" xlink:title="utilities_mod">
<polygon fill="none" stroke="red" points="643,-521 554,-521 554,-485 643,-485 643,-521"/>
<text text-anchor="middle" x="598.5" y="-499.3" font-family="Times,serif" font-size="14.00">utilities_mod</text>
</a>
</g>
</g>
<!-- calcHeightAndPressure_mod&#45;&gt;utilities_mod -->
<g id="edge10" class="edge">
<title>calcHeightAndPressure_mod&#45;&gt;utilities_mod</title>
<path fill="none" stroke="black" d="M414.53,-637.59C477.64,-629.74 555.42,-615.76 578.5,-593 594.58,-577.14 598.95,-551.34 599.67,-531.59"/>
<polygon fill="black" stroke="black" points="603.17,-531.36 599.74,-521.34 596.17,-531.31 603.17,-531.36"/>
</g>
<!-- verticalcoord_mod -->
<g id="node12" class="node">
<title>verticalcoord_mod</title>
<g id="a_node12"><a xlink:href="../modules/verticalcoord_mod.svg" xlink:title="verticalcoord_mod">
<polygon fill="none" stroke="red" points="731.5,-449 611.5,-449 611.5,-413 731.5,-413 731.5,-449"/>
<text text-anchor="middle" x="671.5" y="-427.3" font-family="Times,serif" font-size="14.00">verticalcoord_mod</text>
</a>
</g>
</g>
<!-- calcHeightAndPressure_mod&#45;&gt;verticalcoord_mod -->
<g id="edge11" class="edge">
<title>calcHeightAndPressure_mod&#45;&gt;verticalcoord_mod</title>
<path fill="none" stroke="black" d="M414.56,-636.32C482.96,-627.48 571.14,-612.76 601.5,-593 647.07,-563.33 663.12,-496.83 668.66,-459.24"/>
<polygon fill="black" stroke="black" points="672.17,-459.39 670.02,-449.02 665.24,-458.47 672.17,-459.39"/>
</g>
</g>
</svg>
