<?xml version="1.0" encoding="UTF-8" standalone="no"?>
<!DOCTYPE svg PUBLIC "-//W3C//DTD SVG 1.1//EN"
 "http://www.w3.org/Graphics/SVG/1.1/DTD/svg11.dtd">
<!-- Generated by graphviz version 3.0.0 (20220315.2325)
 -->
<!-- Title: calcStatsLam_mod Pages: 1 -->
<svg width="1166pt" height="673pt"
 viewBox="0.00 0.00 1166.00 673.00" xmlns="http://www.w3.org/2000/svg" xmlns:xlink="http://www.w3.org/1999/xlink">
<g id="graph0" class="graph" transform="scale(1 1) rotate(0) translate(4 669)">
<title>calcStatsLam_mod</title>
<polygon fill="white" stroke="transparent" points="-4,4 -4,-669 1162,-669 1162,4 -4,4"/>
<text text-anchor="middle" x="579" y="-37.8" font-family="Times,serif" font-size="14.00">Red boxes indicate modules with dependencies not shown</text>
<text text-anchor="middle" x="579" y="-22.8" font-family="Times,serif" font-size="14.00">Lower level dependencies can be shown by clicking on a red box</text>
<text text-anchor="middle" x="579" y="-7.8" font-family="Times,serif" font-size="14.00">Shaded boxes indicate modules with no dependencies</text>
<!-- calcStatsLam_mod -->
<g id="node1" class="node">
<title>calcStatsLam_mod</title>
<g id="a_node1"><a xlink:href="calcStatsLam_mod.html" xlink:title="calcStatsLam_mod">
<polygon fill="none" stroke="black" points="698,-665 576,-665 576,-629 698,-629 698,-665"/>
<text text-anchor="middle" x="637" y="-643.3" font-family="Times,serif" font-size="14.00">calcStatsLam_mod</text>
</a>
</g>
</g>
<!-- calcheightandpressure_mod -->
<g id="node2" class="node">
<title>calcheightandpressure_mod</title>
<g id="a_node2"><a xlink:href="../modules/calcheightandpressure_mod.svg" xlink:title="calcheightandpressure_mod">
<polygon fill="none" stroke="red" points="168,-593 0,-593 0,-557 168,-557 168,-593"/>
<text text-anchor="middle" x="84" y="-571.3" font-family="Times,serif" font-size="14.00">calcheightandpressure_mod</text>
</a>
</g>
</g>
<!-- calcStatsLam_mod&#45;&gt;calcheightandpressure_mod -->
<g id="edge1" class="edge">
<title>calcStatsLam_mod&#45;&gt;calcheightandpressure_mod</title>
<path fill="none" stroke="black" d="M575.78,-639.96C488.27,-631.09 322.49,-613.35 182,-593 180.73,-592.82 179.44,-592.63 178.15,-592.44"/>
<polygon fill="black" stroke="black" points="178.56,-588.96 168.15,-590.91 177.51,-595.88 178.56,-588.96"/>
</g>
<!-- earthconstants_mod -->
<g id="node3" class="node">
<title>earthconstants_mod</title>
<g id="a_node3"><a xlink:href="../modules/earthconstants_mod.svg" xlink:title="earthconstants_mod">
<polygon fill="none" stroke="red" points="232,-521 106,-521 106,-485 232,-485 232,-521"/>
<text text-anchor="middle" x="169" y="-499.3" font-family="Times,serif" font-size="14.00">earthconstants_mod</text>
</a>
</g>
</g>
<!-- calcStatsLam_mod&#45;&gt;earthconstants_mod -->
<g id="edge2" class="edge">
<title>calcStatsLam_mod&#45;&gt;earthconstants_mod</title>
<path fill="none" stroke="black" d="M575.93,-642.97C480.62,-637.37 301.65,-623.12 246,-593 219.08,-578.43 197.29,-550.43 183.86,-529.71"/>
<polygon fill="black" stroke="black" points="186.72,-527.68 178.45,-521.05 180.78,-531.39 186.72,-527.68"/>
</g>
<!-- ensemblestatevector_mod -->
<g id="node4" class="node">
<title>ensemblestatevector_mod</title>
<g id="a_node4"><a xlink:href="../modules/ensemblestatevector_mod.svg" xlink:title="ensemblestatevector_mod">
<polygon fill="none" stroke="red" points="270,-449 112,-449 112,-413 270,-413 270,-449"/>
<text text-anchor="middle" x="191" y="-427.3" font-family="Times,serif" font-size="14.00">ensemblestatevector_mod</text>
</a>
</g>
</g>
<!-- calcStatsLam_mod&#45;&gt;ensemblestatevector_mod -->
<g id="edge3" class="edge">
<title>calcStatsLam_mod&#45;&gt;ensemblestatevector_mod</title>
<path fill="none" stroke="black" d="M575.91,-644.02C487.09,-639.98 328.07,-627.94 284,-593 243.52,-560.9 268.78,-528.56 241,-485 234.48,-474.77 225.82,-464.77 217.55,-456.26"/>
<polygon fill="black" stroke="black" points="220.01,-453.76 210.45,-449.19 215.07,-458.72 220.01,-453.76"/>
</g>
<!-- gridbinning_mod -->
<g id="node5" class="node">
<title>gridbinning_mod</title>
<g id="a_node5"><a xlink:href="../modules/gridbinning_mod.svg" xlink:title="gridbinning_mod">
<polygon fill="none" stroke="red" points="307.5,-377 194.5,-377 194.5,-341 307.5,-341 307.5,-377"/>
<text text-anchor="middle" x="251" y="-355.3" font-family="Times,serif" font-size="14.00">gridbinning_mod</text>
</a>
</g>
</g>
<!-- calcStatsLam_mod&#45;&gt;gridbinning_mod -->
<g id="edge4" class="edge">
<title>calcStatsLam_mod&#45;&gt;gridbinning_mod</title>
<path fill="none" stroke="black" d="M575.77,-643.55C494.72,-639.02 357.86,-626.51 322,-593 261.9,-536.84 308,-489.97 279,-413 275.59,-403.94 270.96,-394.47 266.45,-386.08"/>
<polygon fill="black" stroke="black" points="269.4,-384.19 261.48,-377.15 263.28,-387.59 269.4,-384.19"/>
</g>
<!-- gridstatevectorfileio_mod -->
<g id="node6" class="node">
<title>gridstatevectorfileio_mod</title>
<g id="a_node6"><a xlink:href="../modules/gridstatevectorfileio_mod.svg" xlink:title="gridstatevectorfileio_mod">
<polygon fill="none" stroke="red" points="346,-305 188,-305 188,-269 346,-269 346,-305"/>
<text text-anchor="middle" x="267" y="-283.3" font-family="Times,serif" font-size="14.00">gridstatevectorfileio_mod</text>
</a>
</g>
</g>
<!-- calcStatsLam_mod&#45;&gt;gridstatevectorfileio_mod -->
<g id="edge5" class="edge">
<title>calcStatsLam_mod&#45;&gt;gridstatevectorfileio_mod</title>
<path fill="none" stroke="black" d="M575.81,-641.77C503.97,-635.56 390.68,-621.48 360,-593 329.97,-565.13 336,-544.97 336,-504 336,-504 336,-504 336,-430 336,-389.46 334.85,-376.89 316,-341 310.56,-330.64 302.56,-320.78 294.6,-312.44"/>
<polygon fill="black" stroke="black" points="296.93,-309.82 287.38,-305.24 291.99,-314.78 296.93,-309.82"/>
</g>
<!-- gridstatevector_mod -->
<g id="node7" class="node">
<title>gridstatevector_mod</title>
<g id="a_node7"><a xlink:href="../modules/gridstatevector_mod.svg" xlink:title="gridstatevector_mod">
<polygon fill="none" stroke="red" points="384,-233 254,-233 254,-197 384,-197 384,-233"/>
<text text-anchor="middle" x="319" y="-211.3" font-family="Times,serif" font-size="14.00">gridstatevector_mod</text>
</a>
</g>
</g>
<!-- calcStatsLam_mod&#45;&gt;gridstatevector_mod -->
<g id="edge6" class="edge">
<title>calcStatsLam_mod&#45;&gt;gridstatevector_mod</title>
<path fill="none" stroke="black" d="M575.78,-639.64C513.64,-631.97 423.12,-617.01 398,-593 368.38,-564.69 374,-544.97 374,-504 374,-504 374,-504 374,-358 374,-317.55 370.88,-306.2 355,-269 350.92,-259.43 345.01,-249.78 339.16,-241.39"/>
<polygon fill="black" stroke="black" points="341.88,-239.17 333.16,-233.15 336.22,-243.29 341.88,-239.17"/>
</g>
<!-- gridvariabletransforms_mod -->
<g id="node8" class="node">
<title>gridvariabletransforms_mod</title>
<g id="a_node8"><a xlink:href="../modules/gridvariabletransforms_mod.svg" xlink:title="gridvariabletransforms_mod">
<polygon fill="none" stroke="red" points="421.5,-161 246.5,-161 246.5,-125 421.5,-125 421.5,-161"/>
<text text-anchor="middle" x="334" y="-139.3" font-family="Times,serif" font-size="14.00">gridvariabletransforms_mod</text>
</a>
</g>
</g>
<!-- calcStatsLam_mod&#45;&gt;gridvariabletransforms_mod -->
<g id="edge7" class="edge">
<title>calcStatsLam_mod&#45;&gt;gridvariabletransforms_mod</title>
<path fill="none" stroke="black" d="M575.94,-645.45C531.43,-641.75 472.72,-629.52 436,-593 406.95,-564.11 412,-544.97 412,-504 412,-504 412,-504 412,-286 412,-245.55 413.26,-232.01 393,-197 386.59,-185.92 377.05,-175.9 367.51,-167.63"/>
<polygon fill="black" stroke="black" points="369.51,-164.74 359.55,-161.11 365.07,-170.15 369.51,-164.74"/>
</g>
<!-- horizontalcoord_mod -->
<g id="node9" class="node">
<title>horizontalcoord_mod</title>
<g id="a_node9"><a xlink:href="../modules/horizontalcoord_mod.svg" xlink:title="horizontalcoord_mod">
<polygon fill="none" stroke="red" points="517,-89 383,-89 383,-53 517,-53 517,-89"/>
<text text-anchor="middle" x="450" y="-67.3" font-family="Times,serif" font-size="14.00">horizontalcoord_mod</text>
</a>
</g>
</g>
<!-- calcStatsLam_mod&#45;&gt;horizontalcoord_mod -->
<g id="edge8" class="edge">
<title>calcStatsLam_mod&#45;&gt;horizontalcoord_mod</title>
<path fill="none" stroke="black" d="M575.99,-642.03C539.58,-636.41 495.27,-623.27 468,-593 440.99,-563.01 450,-544.36 450,-504 450,-504 450,-504 450,-214 450,-174 450,-127.65 450,-99.08"/>
<polygon fill="black" stroke="black" points="453.5,-99.05 450,-89.05 446.5,-99.05 453.5,-99.05"/>
</g>
<!-- lamanalysisgridtransforms_mod -->
<g id="node10" class="node">
<title>lamanalysisgridtransforms_mod</title>
<g id="a_node10"><a xlink:href="../modules/lamanalysisgridtransforms_mod.svg" xlink:title="lamanalysisgridtransforms_mod">
<polygon fill="none" stroke="red" points="672.5,-593 477.5,-593 477.5,-557 672.5,-557 672.5,-593"/>
<text text-anchor="middle" x="575" y="-571.3" font-family="Times,serif" font-size="14.00">lamanalysisgridtransforms_mod</text>
</a>
</g>
</g>
<!-- calcStatsLam_mod&#45;&gt;lamanalysisgridtransforms_mod -->
<g id="edge9" class="edge">
<title>calcStatsLam_mod&#45;&gt;lamanalysisgridtransforms_mod</title>
<path fill="none" stroke="black" d="M621.67,-628.7C614.24,-620.3 605.18,-610.07 597.02,-600.86"/>
<polygon fill="black" stroke="black" points="599.4,-598.27 590.15,-593.1 594.16,-602.91 599.4,-598.27"/>
</g>
<!-- lamspectraltransform_mod -->
<g id="node11" class="node">
<title>lamspectraltransform_mod</title>
<g id="a_node11"><a xlink:href="../modules/lamspectraltransform_mod.svg" xlink:title="lamspectraltransform_mod">
<polygon fill="none" stroke="red" points="709.5,-521 544.5,-521 544.5,-485 709.5,-485 709.5,-521"/>
<text text-anchor="middle" x="627" y="-499.3" font-family="Times,serif" font-size="14.00">lamspectraltransform_mod</text>
</a>
</g>
</g>
<!-- calcStatsLam_mod&#45;&gt;lamspectraltransform_mod -->
<g id="edge10" class="edge">
<title>calcStatsLam_mod&#45;&gt;lamspectraltransform_mod</title>
<path fill="none" stroke="black" d="M656.47,-628.92C665.82,-619.4 676.05,-606.72 681,-593 686.43,-577.95 687.19,-571.75 681,-557 676.36,-545.95 668.17,-536.04 659.54,-527.86"/>
<polygon fill="black" stroke="black" points="661.74,-525.14 651.93,-521.14 657.11,-530.38 661.74,-525.14"/>
</g>
<!-- localizationfunction_mod -->
<g id="node12" class="node">
<title>localizationfunction_mod</title>
<g id="a_node12"><a xlink:href="../modules/localizationfunction_mod.svg" xlink:title="localizationfunction_mod">
<polygon fill="none" stroke="red" points="748,-449 592,-449 592,-413 748,-413 748,-449"/>
<text text-anchor="middle" x="670" y="-427.3" font-family="Times,serif" font-size="14.00">localizationfunction_mod</text>
</a>
</g>
</g>
<!-- calcStatsLam_mod&#45;&gt;localizationfunction_mod -->
<g id="edge11" class="edge">
<title>calcStatsLam_mod&#45;&gt;localizationfunction_mod</title>
<path fill="none" stroke="black" d="M663.05,-628.84C675.28,-619.56 689.09,-607.12 698,-593 715.73,-564.92 713.51,-553.91 718,-521 720.16,-505.15 723.76,-499.93 718,-485 713.9,-474.36 706.56,-464.53 698.83,-456.3"/>
<polygon fill="black" stroke="black" points="701.27,-453.78 691.71,-449.21 696.33,-458.75 701.27,-453.78"/>
</g>
<!-- mathphysconstants_mod -->
<g id="node13" class="node">
<title>mathphysconstants_mod</title>
<g id="a_node13"><a xlink:href="mathphysconstants_mod.html" xlink:title="mathphysconstants_mod">
<polygon fill="gray" stroke="black" points="786,-377 634,-377 634,-341 786,-341 786,-377"/>
<text text-anchor="middle" x="710" y="-355.3" font-family="Times,serif" font-size="14.00">mathphysconstants_mod</text>
</a>
</g>
</g>
<!-- calcStatsLam_mod&#45;&gt;mathphysconstants_mod -->
<g id="edge12" class="edge">
<title>calcStatsLam_mod&#45;&gt;mathphysconstants_mod</title>
<path fill="none" stroke="black" d="M676.43,-628.81C692.09,-620.16 708.97,-608.23 720,-593 767.92,-526.86 785.98,-489.36 757,-413 753.03,-402.54 745.95,-392.83 738.47,-384.65"/>
<polygon fill="black" stroke="black" points="740.77,-381.99 731.27,-377.3 735.77,-386.89 740.77,-381.99"/>
</g>
<!-- menetrierdiag_mod -->
<g id="node14" class="node">
<title>menetrierdiag_mod</title>
<g id="a_node14"><a xlink:href="../modules/menetrierdiag_mod.svg" xlink:title="menetrierdiag_mod">
<polygon fill="none" stroke="red" points="823.5,-305 698.5,-305 698.5,-269 823.5,-269 823.5,-305"/>
<text text-anchor="middle" x="761" y="-283.3" font-family="Times,serif" font-size="14.00">menetrierdiag_mod</text>
</a>
</g>
</g>
<!-- calcStatsLam_mod&#45;&gt;menetrierdiag_mod -->
<g id="edge13" class="edge">
<title>calcStatsLam_mod&#45;&gt;menetrierdiag_mod</title>
<path fill="none" stroke="black" d="M690.11,-628.82C742.24,-608.22 814,-568.22 814,-504 814,-504 814,-504 814,-430 814,-389.55 810.39,-378.4 795,-341 791.11,-331.55 785.52,-321.93 780,-313.52"/>
<polygon fill="black" stroke="black" points="782.88,-311.54 774.34,-305.27 777.11,-315.49 782.88,-311.54"/>
</g>
<!-- midasmpi_mod -->
<g id="node15" class="node">
<title>midasmpi_mod</title>
<g id="a_node15"><a xlink:href="../modules/midasmpi_mod.svg" xlink:title="midasmpi_mod">
<polygon fill="none" stroke="red" points="862,-233 760,-233 760,-197 862,-197 862,-233"/>
<text text-anchor="middle" x="811" y="-211.3" font-family="Times,serif" font-size="14.00">midasmpi_mod</text>
</a>
</g>
</g>
<!-- calcStatsLam_mod&#45;&gt;midasmpi_mod -->
<g id="edge14" class="edge">
<title>calcStatsLam_mod&#45;&gt;midasmpi_mod</title>
<path fill="none" stroke="black" d="M698.04,-633.22C761.6,-615.92 852,-578.26 852,-504 852,-504 852,-504 852,-358 852,-316.41 835.56,-270.56 823.5,-242.51"/>
<polygon fill="black" stroke="black" points="826.55,-240.75 819.3,-233.03 820.15,-243.59 826.55,-240.75"/>
</g>
<!-- timecoord_mod -->
<g id="node16" class="node">
<title>timecoord_mod</title>
<g id="a_node16"><a xlink:href="../modules/timecoord_mod.svg" xlink:title="timecoord_mod">
<polygon fill="none" stroke="red" points="900,-161 796,-161 796,-125 900,-125 900,-161"/>
<text text-anchor="middle" x="848" y="-139.3" font-family="Times,serif" font-size="14.00">timecoord_mod</text>
</a>
</g>
</g>
<!-- calcStatsLam_mod&#45;&gt;timecoord_mod -->
<g id="edge15" class="edge">
<title>calcStatsLam_mod&#45;&gt;timecoord_mod</title>
<path fill="none" stroke="black" d="M698.24,-638.6C773.12,-625.75 890,-591.64 890,-504 890,-504 890,-504 890,-286 890,-244.15 873.01,-198.1 860.65,-170.11"/>
<polygon fill="black" stroke="black" points="863.83,-168.66 856.5,-161.01 857.46,-171.56 863.83,-168.66"/>
</g>
<!-- utilities_mod -->
<g id="node17" class="node">
<title>utilities_mod</title>
<g id="a_node17"><a xlink:href="../modules/utilities_mod.svg" xlink:title="utilities_mod">
<polygon fill="none" stroke="red" points="972.5,-89 883.5,-89 883.5,-53 972.5,-53 972.5,-89"/>
<text text-anchor="middle" x="928" y="-67.3" font-family="Times,serif" font-size="14.00">utilities_mod</text>
</a>
</g>
</g>
<!-- calcStatsLam_mod&#45;&gt;utilities_mod -->
<g id="edge16" class="edge">
<title>calcStatsLam_mod&#45;&gt;utilities_mod</title>
<path fill="none" stroke="black" d="M698,-642.71C783.33,-634.44 928,-605.47 928,-504 928,-504 928,-504 928,-214 928,-174 928,-127.65 928,-99.08"/>
<polygon fill="black" stroke="black" points="931.5,-99.05 928,-89.05 924.5,-99.05 931.5,-99.05"/>
</g>
<!-- varnamelist_mod -->
<g id="node18" class="node">
<title>varnamelist_mod</title>
<g id="a_node18"><a xlink:href="../modules/varnamelist_mod.svg" xlink:title="varnamelist_mod">
<polygon fill="none" stroke="red" points="1069.5,-593 956.5,-593 956.5,-557 1069.5,-557 1069.5,-593"/>
<text text-anchor="middle" x="1013" y="-571.3" font-family="Times,serif" font-size="14.00">varnamelist_mod</text>
</a>
</g>
</g>
<!-- calcStatsLam_mod&#45;&gt;varnamelist_mod -->
<g id="edge17" class="edge">
<title>calcStatsLam_mod&#45;&gt;varnamelist_mod</title>
<path fill="none" stroke="black" d="M698.26,-636.52C760,-626.69 857.91,-610.35 942,-593 943.47,-592.7 944.96,-592.38 946.47,-592.06"/>
<polygon fill="black" stroke="black" points="947.47,-595.43 956.49,-589.87 945.97,-588.59 947.47,-595.43"/>
</g>
<!-- verticalcoord_mod -->
<g id="node19" class="node">
<title>verticalcoord_mod</title>
<g id="a_node19"><a xlink:href="../modules/verticalcoord_mod.svg" xlink:title="verticalcoord_mod">
<polygon fill="none" stroke="red" points="1158,-521 1038,-521 1038,-485 1158,-485 1158,-521"/>
<text text-anchor="middle" x="1098" y="-499.3" font-family="Times,serif" font-size="14.00">verticalcoord_mod</text>
</a>
</g>
</g>
<!-- calcStatsLam_mod&#45;&gt;verticalcoord_mod -->
<g id="edge18" class="edge">
<title>calcStatsLam_mod&#45;&gt;verticalcoord_mod</title>
<path fill="none" stroke="black" d="M698.23,-642.57C812.99,-635.59 1051.39,-618.21 1079,-593 1095.81,-577.65 1099.72,-551.38 1099.92,-531.35"/>
<polygon fill="black" stroke="black" points="1103.42,-531.18 1099.72,-521.25 1096.42,-531.32 1103.42,-531.18"/>
</g>
</g>
</svg>
