<?xml version="1.0" encoding="UTF-8" standalone="no"?>
<!DOCTYPE svg PUBLIC "-//W3C//DTD SVG 1.1//EN"
 "http://www.w3.org/Graphics/SVG/1.1/DTD/svg11.dtd">
<!-- Generated by graphviz version 3.0.0 (20220315.2325)
 -->
<!-- Title: clibInterfaces_mod Pages: 1 -->
<svg width="543pt" height="673pt"
 viewBox="0.00 0.00 542.50 673.00" xmlns="http://www.w3.org/2000/svg" xmlns:xlink="http://www.w3.org/1999/xlink">
<g id="graph0" class="graph" transform="scale(1 1) rotate(0) translate(4 669)">
<title>clibInterfaces_mod</title>
<polygon fill="white" stroke="transparent" points="-4,4 -4,-669 538.5,-669 538.5,4 -4,4"/>
<text text-anchor="middle" x="267.25" y="-649.8" font-family="Times,serif" font-size="14.00">Blue boxes indicate modules with reverse dependencies not shown</text>
<text text-anchor="middle" x="267.25" y="-634.8" font-family="Times,serif" font-size="14.00">Higher level reverse dependencies can be shown by clicking on a blue box</text>
<text text-anchor="middle" x="267.25" y="-619.8" font-family="Times,serif" font-size="14.00">Green boxes are programs</text>
<!-- clibInterfaces_mod -->
<g id="node1" class="node">
<title>clibInterfaces_mod</title>
<g id="a_node1"><a xlink:href="clibInterfaces_mod.html" xlink:title="clibInterfaces_mod">
<polygon fill="none" stroke="black" points="351,-36 229,-36 229,0 351,0 351,-36"/>
<text text-anchor="middle" x="290" y="-14.3" font-family="Times,serif" font-size="14.00">clibInterfaces_mod</text>
</a>
</g>
</g>
<!-- biascorrectionsat_mod -->
<g id="node2" class="node">
<title>biascorrectionsat_mod</title>
<g id="a_node2"><a xlink:href="../modules/biascorrectionsat_mod_rev.svg" xlink:title="biascorrectionsat_mod">
<polygon fill="none" stroke="blue" points="140,-108 0,-108 0,-72 140,-72 140,-108"/>
<text text-anchor="middle" x="70" y="-86.3" font-family="Times,serif" font-size="14.00">biascorrectionsat_mod</text>
</a>
</g>
</g>
<!-- biascorrectionsat_mod&#45;&gt;clibInterfaces_mod -->
<g id="edge1" class="edge">
<title>biascorrectionsat_mod&#45;&gt;clibInterfaces_mod</title>
<path fill="none" stroke="black" d="M131.31,-69.49C164.26,-59.01 204.51,-46.2 236.22,-36.11"/>
<ellipse fill="black" stroke="black" cx="127.35" cy="-70.75" rx="4" ry="4"/>
</g>
<!-- enspostprocess_mod -->
<g id="node3" class="node">
<title>enspostprocess_mod</title>
<g id="a_node3"><a xlink:href="../modules/enspostprocess_mod_rev.svg" xlink:title="enspostprocess_mod">
<polygon fill="none" stroke="blue" points="204.5,-180 75.5,-180 75.5,-144 204.5,-144 204.5,-180"/>
<text text-anchor="middle" x="140" y="-158.3" font-family="Times,serif" font-size="14.00">enspostprocess_mod</text>
</a>
</g>
</g>
<!-- enspostprocess_mod&#45;&gt;clibInterfaces_mod -->
<g id="edge2" class="edge">
<title>enspostprocess_mod&#45;&gt;clibInterfaces_mod</title>
<path fill="none" stroke="black" d="M158.9,-137.15C174.2,-118.51 196.78,-92.42 219,-72 233.16,-58.99 250.42,-46.05 264.38,-36.21"/>
<ellipse fill="black" stroke="black" cx="156.13" cy="-140.56" rx="4" ry="4"/>
</g>
<!-- filenames_mod -->
<g id="node4" class="node">
<title>filenames_mod</title>
<g id="a_node4"><a xlink:href="../modules/filenames_mod_rev.svg" xlink:title="filenames_mod">
<polygon fill="none" stroke="blue" points="242.5,-252 141.5,-252 141.5,-216 242.5,-216 242.5,-252"/>
<text text-anchor="middle" x="192" y="-230.3" font-family="Times,serif" font-size="14.00">filenames_mod</text>
</a>
</g>
</g>
<!-- filenames_mod&#45;&gt;clibInterfaces_mod -->
<g id="edge3" class="edge">
<title>filenames_mod&#45;&gt;clibInterfaces_mod</title>
<path fill="none" stroke="black" d="M201.91,-208.12C219.29,-164.55 253.74,-78.4 257,-72 263.29,-59.63 271.54,-46.38 278.22,-36.22"/>
<ellipse fill="black" stroke="black" cx="200.36" cy="-212.02" rx="4" ry="4"/>
</g>
<!-- obsdbfiles_mod -->
<g id="node5" class="node">
<title>obsdbfiles_mod</title>
<g id="a_node5"><a xlink:href="../modules/obsdbfiles_mod_rev.svg" xlink:title="obsdbfiles_mod">
<polygon fill="none" stroke="blue" points="280.5,-324 177.5,-324 177.5,-288 280.5,-288 280.5,-324"/>
<text text-anchor="middle" x="229" y="-302.3" font-family="Times,serif" font-size="14.00">obsdbfiles_mod</text>
</a>
</g>
</g>
<!-- obsdbfiles_mod&#45;&gt;clibInterfaces_mod -->
<g id="edge4" class="edge">
<title>obsdbfiles_mod&#45;&gt;clibInterfaces_mod</title>
<path fill="none" stroke="black" d="M240.6,-280.34C244.37,-271.55 248.28,-261.48 251,-252 273.64,-173.16 284.71,-75.29 288.47,-36.25"/>
<ellipse fill="black" stroke="black" cx="238.98" cy="-284.03" rx="4" ry="4"/>
</g>
<!-- obsfiles_mod -->
<g id="node6" class="node">
<title>obsfiles_mod</title>
<g id="a_node6"><a xlink:href="../modules/obsfiles_mod_rev.svg" xlink:title="obsfiles_mod">
<polygon fill="none" stroke="blue" points="318.5,-396 229.5,-396 229.5,-360 318.5,-360 318.5,-396"/>
<text text-anchor="middle" x="274" y="-374.3" font-family="Times,serif" font-size="14.00">obsfiles_mod</text>
</a>
</g>
</g>
<!-- obsfiles_mod&#45;&gt;clibInterfaces_mod -->
<g id="edge5" class="edge">
<title>obsfiles_mod&#45;&gt;clibInterfaces_mod</title>
<path fill="none" stroke="black" d="M284,-352.14C294.35,-324.14 309,-277.06 309,-235 309,-235 309,-235 309,-161 309,-115.73 299.4,-63.06 293.84,-36.39"/>
<ellipse fill="black" stroke="black" cx="282.5" cy="-356.11" rx="4" ry="4"/>
</g>
<!-- ramdisk_mod -->
<g id="node7" class="node">
<title>ramdisk_mod</title>
<g id="a_node7"><a xlink:href="../modules/ramdisk_mod_rev.svg" xlink:title="ramdisk_mod">
<polygon fill="none" stroke="blue" points="375,-468 283,-468 283,-432 375,-432 375,-468"/>
<text text-anchor="middle" x="329" y="-446.3" font-family="Times,serif" font-size="14.00">ramdisk_mod</text>
</a>
</g>
</g>
<!-- ramdisk_mod&#45;&gt;clibInterfaces_mod -->
<g id="edge6" class="edge">
<title>ramdisk_mod&#45;&gt;clibInterfaces_mod</title>
<path fill="none" stroke="black" d="M334.21,-423.44C339.53,-395.1 347,-347.99 347,-307 347,-307 347,-307 347,-161 347,-112.92 318.51,-61.84 301.81,-36.04"/>
<ellipse fill="black" stroke="black" cx="333.4" cy="-427.67" rx="4" ry="4"/>
</g>
<!-- sqliteutilities_mod -->
<g id="node8" class="node">
<title>sqliteutilities_mod</title>
<g id="a_node8"><a xlink:href="../modules/sqliteutilities_mod_rev.svg" xlink:title="sqliteutilities_mod">
<polygon fill="none" stroke="blue" points="462,-540 344,-540 344,-504 462,-504 462,-540"/>
<text text-anchor="middle" x="403" y="-518.3" font-family="Times,serif" font-size="14.00">sqliteutilities_mod</text>
</a>
</g>
</g>
<!-- sqliteutilities_mod&#45;&gt;clibInterfaces_mod -->
<g id="edge7" class="edge">
<title>sqliteutilities_mod&#45;&gt;clibInterfaces_mod</title>
<path fill="none" stroke="black" d="M403,-495.78C403,-467.39 403,-419.89 403,-379 403,-379 403,-379 403,-161 403,-105.86 350.2,-59.75 316.78,-36.09"/>
<ellipse fill="black" stroke="black" cx="403" cy="-499.95" rx="4" ry="4"/>
</g>
<!-- utilities_mod -->
<g id="node9" class="node">
<title>utilities_mod</title>
<g id="a_node9"><a xlink:href="../modules/utilities_mod_rev.svg" xlink:title="utilities_mod">
<polygon fill="none" stroke="blue" points="534.5,-612 445.5,-612 445.5,-576 534.5,-576 534.5,-612"/>
<text text-anchor="middle" x="490" y="-590.3" font-family="Times,serif" font-size="14.00">utilities_mod</text>
</a>
</g>
</g>
<!-- utilities_mod&#45;&gt;clibInterfaces_mod -->
<g id="edge8" class="edge">
<title>utilities_mod&#45;&gt;clibInterfaces_mod</title>
<path fill="none" stroke="black" d="M490,-567.78C490,-539.39 490,-491.89 490,-451 490,-451 490,-451 490,-161 490,-92.01 409.91,-53.47 351.09,-34.47"/>
<ellipse fill="black" stroke="black" cx="490" cy="-571.95" rx="4" ry="4"/>
</g>
</g>
</svg>
