<?xml version="1.0" encoding="UTF-8" standalone="no"?>
<!DOCTYPE svg PUBLIC "-//W3C//DTD SVG 1.1//EN"
 "http://www.w3.org/Graphics/SVG/1.1/DTD/svg11.dtd">
<!-- Generated by graphviz version 3.0.0 (20220315.2325)
 -->
<!-- Title: codePrecision_mod Pages: 1 -->
<svg width="2200pt" height="673pt"
 viewBox="0.00 0.00 2199.50 673.00" xmlns="http://www.w3.org/2000/svg" xmlns:xlink="http://www.w3.org/1999/xlink">
<g id="graph0" class="graph" transform="scale(1 1) rotate(0) translate(4 669)">
<title>codePrecision_mod</title>
<polygon fill="white" stroke="transparent" points="-4,4 -4,-669 2195.5,-669 2195.5,4 -4,4"/>
<text text-anchor="middle" x="1095.75" y="-649.8" font-family="Times,serif" font-size="14.00">Blue boxes indicate modules with reverse dependencies not shown</text>
<text text-anchor="middle" x="1095.75" y="-634.8" font-family="Times,serif" font-size="14.00">Higher level reverse dependencies can be shown by clicking on a blue box</text>
<text text-anchor="middle" x="1095.75" y="-619.8" font-family="Times,serif" font-size="14.00">Green boxes are programs</text>
<!-- codePrecision_mod -->
<g id="node1" class="node">
<title>codePrecision_mod</title>
<g id="a_node1"><a xlink:href="codePrecision_mod.html" xlink:title="codePrecision_mod">
<polygon fill="none" stroke="black" points="1144,-36 1020,-36 1020,0 1144,0 1144,-36"/>
<text text-anchor="middle" x="1082" y="-14.3" font-family="Times,serif" font-size="14.00">codePrecision_mod</text>
</a>
</g>
</g>
<!-- biascorrectionsat_mod -->
<g id="node2" class="node">
<title>biascorrectionsat_mod</title>
<g id="a_node2"><a xlink:href="../modules/biascorrectionsat_mod_rev.svg" xlink:title="biascorrectionsat_mod">
<polygon fill="none" stroke="blue" points="140,-108 0,-108 0,-72 140,-72 140,-108"/>
<text text-anchor="middle" x="70" y="-86.3" font-family="Times,serif" font-size="14.00">biascorrectionsat_mod</text>
</a>
</g>
</g>
<!-- biascorrectionsat_mod&#45;&gt;codePrecision_mod -->
<g id="edge1" class="edge">
<title>biascorrectionsat_mod&#45;&gt;codePrecision_mod</title>
<path fill="none" stroke="black" d="M147.93,-72.83C149.97,-72.54 152,-72.26 154,-72 478.09,-30.17 870.12,-21.35 1019.81,-19.5"/>
<ellipse fill="black" stroke="black" cx="143.96" cy="-73.45" rx="4" ry="4"/>
</g>
<!-- burpfiles_mod -->
<g id="node3" class="node">
<title>burpfiles_mod</title>
<g id="a_node3"><a xlink:href="../modules/burpfiles_mod_rev.svg" xlink:title="burpfiles_mod">
<polygon fill="none" stroke="blue" points="197,-180 101,-180 101,-144 197,-144 197,-180"/>
<text text-anchor="middle" x="149" y="-158.3" font-family="Times,serif" font-size="14.00">burpfiles_mod</text>
</a>
</g>
</g>
<!-- burpfiles_mod&#45;&gt;codePrecision_mod -->
<g id="edge2" class="edge">
<title>burpfiles_mod&#45;&gt;codePrecision_mod</title>
<path fill="none" stroke="black" d="M158.8,-136.3C168.6,-115.21 185.85,-86.12 211,-72 281.01,-32.69 832.39,-22.14 1019.86,-19.68"/>
<ellipse fill="black" stroke="black" cx="157.15" cy="-140.01" rx="4" ry="4"/>
</g>
<!-- burpread_mod -->
<g id="node4" class="node">
<title>burpread_mod</title>
<g id="a_node4"><a xlink:href="../modules/burpread_mod_rev.svg" xlink:title="burpread_mod">
<polygon fill="none" stroke="blue" points="234.5,-252 137.5,-252 137.5,-216 234.5,-216 234.5,-252"/>
<text text-anchor="middle" x="186" y="-230.3" font-family="Times,serif" font-size="14.00">burpread_mod</text>
</a>
</g>
</g>
<!-- burpread_mod&#45;&gt;codePrecision_mod -->
<g id="edge3" class="edge">
<title>burpread_mod&#45;&gt;codePrecision_mod</title>
<path fill="none" stroke="black" d="M195.45,-208.35C212.67,-163.51 247.54,-73.06 249,-72 310.77,-26.9 837.21,-20.14 1019.88,-19.16"/>
<ellipse fill="black" stroke="black" cx="193.98" cy="-212.18" rx="4" ry="4"/>
</g>
<!-- calcheightandpressure_mod -->
<g id="node5" class="node">
<title>calcheightandpressure_mod</title>
<g id="a_node5"><a xlink:href="../modules/calcheightandpressure_mod_rev.svg" xlink:title="calcheightandpressure_mod">
<polygon fill="none" stroke="blue" points="273,-324 105,-324 105,-288 273,-288 273,-324"/>
<text text-anchor="middle" x="189" y="-302.3" font-family="Times,serif" font-size="14.00">calcheightandpressure_mod</text>
</a>
</g>
</g>
<!-- calcheightandpressure_mod&#45;&gt;codePrecision_mod -->
<g id="edge4" class="edge">
<title>calcheightandpressure_mod&#45;&gt;codePrecision_mod</title>
<path fill="none" stroke="black" d="M217.69,-282.47C226.99,-273.85 236.55,-263.33 243,-252 283.72,-180.42 223.95,-124.98 287,-72 342.63,-25.25 842.54,-19.54 1019.92,-18.99"/>
<ellipse fill="black" stroke="black" cx="214.64" cy="-285.19" rx="4" ry="4"/>
</g>
<!-- calcstatsglb_mod -->
<g id="node6" class="node">
<title>calcstatsglb_mod</title>
<g id="a_node6"><a xlink:href="../modules/calcstatsglb_mod_rev.svg" xlink:title="calcstatsglb_mod">
<polygon fill="none" stroke="blue" points="310.5,-396 199.5,-396 199.5,-360 310.5,-360 310.5,-396"/>
<text text-anchor="middle" x="255" y="-374.3" font-family="Times,serif" font-size="14.00">calcstatsglb_mod</text>
</a>
</g>
</g>
<!-- calcstatsglb_mod&#45;&gt;codePrecision_mod -->
<g id="edge5" class="edge">
<title>calcstatsglb_mod&#45;&gt;codePrecision_mod</title>
<path fill="none" stroke="black" d="M269.01,-352.79C273.67,-343.95 278.55,-333.73 282,-324 295.52,-285.88 301,-275.45 301,-235 301,-235 301,-235 301,-161 301,-120.03 293.37,-98.04 325,-72 378.12,-28.28 848.51,-20.62 1019.89,-19.28"/>
<ellipse fill="black" stroke="black" cx="267.09" cy="-356.33" rx="4" ry="4"/>
</g>
<!-- enkf_mod -->
<g id="node7" class="node">
<title>enkf_mod</title>
<g id="a_node7"><a xlink:href="../modules/enkf_mod_rev.svg" xlink:title="enkf_mod">
<polygon fill="none" stroke="blue" points="348.5,-468 275.5,-468 275.5,-432 348.5,-432 348.5,-468"/>
<text text-anchor="middle" x="312" y="-446.3" font-family="Times,serif" font-size="14.00">enkf_mod</text>
</a>
</g>
</g>
<!-- enkf_mod&#45;&gt;codePrecision_mod -->
<g id="edge6" class="edge">
<title>enkf_mod&#45;&gt;codePrecision_mod</title>
<path fill="none" stroke="black" d="M319.72,-423.96C327.7,-395.8 339,-348.57 339,-307 339,-307 339,-307 339,-161 339,-120.03 331.42,-98.09 363,-72 413.06,-30.65 854.34,-21.51 1019.75,-19.53"/>
<ellipse fill="black" stroke="black" cx="318.58" cy="-427.87" rx="4" ry="4"/>
</g>
<!-- ensembleobservations_mod -->
<g id="node8" class="node">
<title>ensembleobservations_mod</title>
<g id="a_node8"><a xlink:href="../modules/ensembleobservations_mod_rev.svg" xlink:title="ensembleobservations_mod">
<polygon fill="none" stroke="blue" points="387.5,-540 218.5,-540 218.5,-504 387.5,-504 387.5,-540"/>
<text text-anchor="middle" x="303" y="-518.3" font-family="Times,serif" font-size="14.00">ensembleobservations_mod</text>
</a>
</g>
</g>
<!-- ensembleobservations_mod&#45;&gt;codePrecision_mod -->
<g id="edge7" class="edge">
<title>ensembleobservations_mod&#45;&gt;codePrecision_mod</title>
<path fill="none" stroke="black" d="M331.81,-498.54C341.12,-489.92 350.66,-479.39 357,-468 376.72,-432.58 377,-419.54 377,-379 377,-379 377,-379 377,-161 377,-120.03 369.47,-98.16 401,-72 448.03,-32.98 860.82,-22.44 1019.88,-19.81"/>
<ellipse fill="black" stroke="black" cx="328.75" cy="-501.26" rx="4" ry="4"/>
</g>
<!-- ensemblestatevector_mod -->
<g id="node9" class="node">
<title>ensemblestatevector_mod</title>
<g id="a_node9"><a xlink:href="../modules/ensemblestatevector_mod_rev.svg" xlink:title="ensemblestatevector_mod">
<polygon fill="none" stroke="blue" points="494,-612 336,-612 336,-576 494,-576 494,-612"/>
<text text-anchor="middle" x="415" y="-590.3" font-family="Times,serif" font-size="14.00">ensemblestatevector_mod</text>
</a>
</g>
</g>
<!-- ensemblestatevector_mod&#45;&gt;codePrecision_mod -->
<g id="edge8" class="edge">
<title>ensemblestatevector_mod&#45;&gt;codePrecision_mod</title>
<path fill="none" stroke="black" d="M415,-567.78C415,-539.39 415,-491.89 415,-451 415,-451 415,-451 415,-161 415,-114.5 430.4,-96.38 470,-72 516.06,-43.64 873.47,-26.95 1019.82,-21.24"/>
<ellipse fill="black" stroke="black" cx="415" cy="-571.95" rx="4" ry="4"/>
</g>
<!-- fsoi_mod -->
<g id="node10" class="node">
<title>fsoi_mod</title>
<g id="a_node10"><a xlink:href="../modules/fsoi_mod_rev.svg" xlink:title="fsoi_mod">
<polygon fill="none" stroke="blue" points="547,-108 479,-108 479,-72 547,-72 547,-108"/>
<text text-anchor="middle" x="513" y="-86.3" font-family="Times,serif" font-size="14.00">fsoi_mod</text>
</a>
</g>
</g>
<!-- fsoi_mod&#45;&gt;codePrecision_mod -->
<g id="edge9" class="edge">
<title>fsoi_mod&#45;&gt;codePrecision_mod</title>
<path fill="none" stroke="black" d="M554.93,-73.51C556.97,-72.96 559,-72.45 561,-72 724,-35.4 921.43,-24.03 1019.88,-20.54"/>
<ellipse fill="black" stroke="black" cx="550.89" cy="-74.69" rx="4" ry="4"/>
</g>
<!-- globalspectraltransform_mod -->
<g id="node11" class="node">
<title>globalspectraltransform_mod</title>
<g id="a_node11"><a xlink:href="../modules/globalspectraltransform_mod_rev.svg" xlink:title="globalspectraltransform_mod">
<polygon fill="none" stroke="blue" points="621,-180 443,-180 443,-144 621,-144 621,-180"/>
<text text-anchor="middle" x="532" y="-158.3" font-family="Times,serif" font-size="14.00">globalspectraltransform_mod</text>
</a>
</g>
</g>
<!-- globalspectraltransform_mod&#45;&gt;codePrecision_mod -->
<g id="edge10" class="edge">
<title>globalspectraltransform_mod&#45;&gt;codePrecision_mod</title>
<path fill="none" stroke="black" d="M551.47,-137.63C570.45,-116.62 601.29,-86.86 635,-72 702.48,-42.24 913.45,-27.55 1019.64,-21.89"/>
<ellipse fill="black" stroke="black" cx="548.63" cy="-140.84" rx="4" ry="4"/>
</g>
<!-- gridstatevectorfileio_mod -->
<g id="node12" class="node">
<title>gridstatevectorfileio_mod</title>
<g id="a_node12"><a xlink:href="../modules/gridstatevectorfileio_mod_rev.svg" xlink:title="gridstatevectorfileio_mod">
<polygon fill="none" stroke="blue" points="659,-252 501,-252 501,-216 659,-216 659,-252"/>
<text text-anchor="middle" x="580" y="-230.3" font-family="Times,serif" font-size="14.00">gridstatevectorfileio_mod</text>
</a>
</g>
</g>
<!-- gridstatevectorfileio_mod&#45;&gt;codePrecision_mod -->
<g id="edge11" class="edge">
<title>gridstatevectorfileio_mod&#45;&gt;codePrecision_mod</title>
<path fill="none" stroke="black" d="M605.3,-210.02C613.95,-201.24 623.15,-190.75 630,-180 657.78,-136.44 632.2,-103.69 673,-72 725.8,-30.99 919.22,-21.61 1020,-19.53"/>
<ellipse fill="black" stroke="black" cx="602.29" cy="-213" rx="4" ry="4"/>
</g>
<!-- gridstatevector_mod -->
<g id="node13" class="node">
<title>gridstatevector_mod</title>
<g id="a_node13"><a xlink:href="../modules/gridstatevector_mod_rev.svg" xlink:title="gridstatevector_mod">
<polygon fill="none" stroke="blue" points="697,-324 567,-324 567,-288 697,-288 697,-324"/>
<text text-anchor="middle" x="632" y="-302.3" font-family="Times,serif" font-size="14.00">gridstatevector_mod</text>
</a>
</g>
</g>
<!-- gridstatevector_mod&#45;&gt;codePrecision_mod -->
<g id="edge12" class="edge">
<title>gridstatevector_mod&#45;&gt;codePrecision_mod</title>
<path fill="none" stroke="black" d="M650.92,-281.13C657.11,-272.37 663.54,-262.12 668,-252 701.21,-176.75 650.21,-127.41 711,-72 755.06,-31.84 926.14,-22.02 1019.82,-19.68"/>
<ellipse fill="black" stroke="black" cx="648.4" cy="-284.57" rx="4" ry="4"/>
</g>
<!-- gridvariabletransforms_mod -->
<g id="node14" class="node">
<title>gridvariabletransforms_mod</title>
<g id="a_node14"><a xlink:href="../modules/gridvariabletransforms_mod_rev.svg" xlink:title="gridvariabletransforms_mod">
<polygon fill="none" stroke="blue" points="734.5,-396 559.5,-396 559.5,-360 734.5,-360 734.5,-396"/>
<text text-anchor="middle" x="647" y="-374.3" font-family="Times,serif" font-size="14.00">gridvariabletransforms_mod</text>
</a>
</g>
</g>
<!-- gridvariabletransforms_mod&#45;&gt;codePrecision_mod -->
<g id="edge13" class="edge">
<title>gridvariabletransforms_mod&#45;&gt;codePrecision_mod</title>
<path fill="none" stroke="black" d="M678.79,-354.84C688.9,-346.3 699.2,-335.74 706,-324 726.26,-288.99 725,-275.45 725,-235 725,-235 725,-235 725,-161 725,-120.03 718.54,-99.4 749,-72 787.9,-37.01 934.83,-25.04 1019.96,-21.01"/>
<ellipse fill="black" stroke="black" cx="675.66" cy="-357.38" rx="4" ry="4"/>
</g>
<!-- increment_mod -->
<g id="node15" class="node">
<title>increment_mod</title>
<g id="a_node15"><a xlink:href="../modules/increment_mod_rev.svg" xlink:title="increment_mod">
<polygon fill="none" stroke="blue" points="772.5,-468 669.5,-468 669.5,-432 772.5,-432 772.5,-468"/>
<text text-anchor="middle" x="721" y="-446.3" font-family="Times,serif" font-size="14.00">increment_mod</text>
</a>
</g>
</g>
<!-- increment_mod&#45;&gt;codePrecision_mod -->
<g id="edge14" class="edge">
<title>increment_mod&#45;&gt;codePrecision_mod</title>
<path fill="none" stroke="black" d="M732.84,-424.69C745.26,-396.92 763,-349.77 763,-307 763,-307 763,-307 763,-161 763,-120.03 756.82,-99.7 787,-72 820.21,-41.52 943.58,-28.02 1019.87,-22.48"/>
<ellipse fill="black" stroke="black" cx="731.16" cy="-428.36" rx="4" ry="4"/>
</g>
<!-- minimization_mod -->
<g id="node16" class="node">
<title>minimization_mod</title>
<g id="a_node16"><a xlink:href="../modules/minimization_mod_rev.svg" xlink:title="minimization_mod">
<polygon fill="none" stroke="blue" points="811,-540 689,-540 689,-504 811,-504 811,-540"/>
<text text-anchor="middle" x="750" y="-518.3" font-family="Times,serif" font-size="14.00">minimization_mod</text>
</a>
</g>
</g>
<!-- minimization_mod&#45;&gt;codePrecision_mod -->
<g id="edge15" class="edge">
<title>minimization_mod&#45;&gt;codePrecision_mod</title>
<path fill="none" stroke="black" d="M766.4,-496.58C771.68,-487.85 777.16,-477.76 781,-468 795.85,-430.28 801,-419.54 801,-379 801,-379 801,-379 801,-161 801,-120.03 795.17,-100.09 825,-72 852.61,-46 953.02,-31.4 1019.85,-24.37"/>
<ellipse fill="black" stroke="black" cx="764.17" cy="-500.15" rx="4" ry="4"/>
</g>
<!-- obsdbfiles_mod -->
<g id="node17" class="node">
<title>obsdbfiles_mod</title>
<g id="a_node17"><a xlink:href="../modules/obsdbfiles_mod_rev.svg" xlink:title="obsdbfiles_mod">
<polygon fill="none" stroke="blue" points="890.5,-612 787.5,-612 787.5,-576 890.5,-576 890.5,-612"/>
<text text-anchor="middle" x="839" y="-590.3" font-family="Times,serif" font-size="14.00">obsdbfiles_mod</text>
</a>
</g>
</g>
<!-- obsdbfiles_mod&#45;&gt;codePrecision_mod -->
<g id="edge16" class="edge">
<title>obsdbfiles_mod&#45;&gt;codePrecision_mod</title>
<path fill="none" stroke="black" d="M839,-567.78C839,-539.39 839,-491.89 839,-451 839,-451 839,-451 839,-161 839,-120.55 829.72,-100.91 858,-72 880.25,-49.25 961.5,-34.3 1019.74,-26.24"/>
<ellipse fill="black" stroke="black" cx="839" cy="-571.95" rx="4" ry="4"/>
</g>
<!-- obsfilter_mod -->
<g id="node18" class="node">
<title>obsfilter_mod</title>
<g id="a_node18"><a xlink:href="../modules/obsfilter_mod_rev.svg" xlink:title="obsfilter_mod">
<polygon fill="none" stroke="blue" points="959,-108 867,-108 867,-72 959,-72 959,-108"/>
<text text-anchor="middle" x="913" y="-86.3" font-family="Times,serif" font-size="14.00">obsfilter_mod</text>
</a>
</g>
</g>
<!-- obsfilter_mod&#45;&gt;codePrecision_mod -->
<g id="edge17" class="edge">
<title>obsfilter_mod&#45;&gt;codePrecision_mod</title>
<path fill="none" stroke="black" d="M961.92,-68.74C986.92,-58.38 1016.99,-45.93 1040.79,-36.07"/>
<ellipse fill="black" stroke="black" cx="958.04" cy="-70.35" rx="4" ry="4"/>
</g>
<!-- obsoperators_mod -->
<g id="node19" class="node">
<title>obsoperators_mod</title>
<g id="a_node19"><a xlink:href="../modules/obsoperators_mod_rev.svg" xlink:title="obsoperators_mod">
<polygon fill="none" stroke="blue" points="996.5,-180 879.5,-180 879.5,-144 996.5,-144 996.5,-180"/>
<text text-anchor="middle" x="938" y="-158.3" font-family="Times,serif" font-size="14.00">obsoperators_mod</text>
</a>
</g>
</g>
<!-- obsoperators_mod&#45;&gt;codePrecision_mod -->
<g id="edge18" class="edge">
<title>obsoperators_mod&#45;&gt;codePrecision_mod</title>
<path fill="none" stroke="black" d="M954.89,-137.35C968.85,-118.61 989.77,-92.29 1011,-72 1024.79,-58.82 1041.88,-45.98 1055.84,-36.23"/>
<ellipse fill="black" stroke="black" cx="952.45" cy="-140.67" rx="4" ry="4"/>
</g>
<!-- obsdatacolumn_mod -->
<g id="node20" class="node">
<title>obsdatacolumn_mod</title>
<g id="a_node20"><a xlink:href="../modules/obsdatacolumn_mod_rev.svg" xlink:title="obsdatacolumn_mod">
<polygon fill="none" stroke="blue" points="1034.5,-252 903.5,-252 903.5,-216 1034.5,-216 1034.5,-252"/>
<text text-anchor="middle" x="969" y="-230.3" font-family="Times,serif" font-size="14.00">obsdatacolumn_mod</text>
</a>
</g>
</g>
<!-- obsdatacolumn_mod&#45;&gt;codePrecision_mod -->
<g id="edge19" class="edge">
<title>obsdatacolumn_mod&#45;&gt;codePrecision_mod</title>
<path fill="none" stroke="black" d="M986.78,-209.13C992.97,-200.24 999.7,-189.9 1005,-180 1029.47,-134.31 1025.44,-118.17 1049,-72 1055.31,-59.64 1063.56,-46.39 1070.23,-36.23"/>
<ellipse fill="black" stroke="black" cx="984.27" cy="-212.65" rx="4" ry="4"/>
</g>
<!-- obsspacedata_mod -->
<g id="node21" class="node">
<title>obsspacedata_mod</title>
<g id="a_node21"><a xlink:href="../modules/obsspacedata_mod_rev.svg" xlink:title="obsspacedata_mod">
<polygon fill="none" stroke="blue" points="1072.5,-324 953.5,-324 953.5,-288 1072.5,-288 1072.5,-324"/>
<text text-anchor="middle" x="1013" y="-302.3" font-family="Times,serif" font-size="14.00">obsspacedata_mod</text>
</a>
</g>
</g>
<!-- obsspacedata_mod&#45;&gt;codePrecision_mod -->
<g id="edge20" class="edge">
<title>obsspacedata_mod&#45;&gt;codePrecision_mod</title>
<path fill="none" stroke="black" d="M1029.15,-280.63C1034.29,-271.91 1039.52,-261.81 1043,-252 1070.46,-174.49 1078.83,-75.47 1081.17,-36.18"/>
<ellipse fill="black" stroke="black" cx="1026.99" cy="-284.18" rx="4" ry="4"/>
</g>
<!-- obsspacediag_mod -->
<g id="node22" class="node">
<title>obsspacediag_mod</title>
<g id="a_node22"><a xlink:href="../modules/obsspacediag_mod_rev.svg" xlink:title="obsspacediag_mod">
<polygon fill="none" stroke="blue" points="1111,-396 991,-396 991,-360 1111,-360 1111,-396"/>
<text text-anchor="middle" x="1051" y="-374.3" font-family="Times,serif" font-size="14.00">obsspacediag_mod</text>
</a>
</g>
</g>
<!-- obsspacediag_mod&#45;&gt;codePrecision_mod -->
<g id="edge21" class="edge">
<title>obsspacediag_mod&#45;&gt;codePrecision_mod</title>
<path fill="none" stroke="black" d="M1066.61,-352.93C1071.79,-344.11 1077.2,-333.87 1081,-324 1095.59,-286.17 1101,-275.54 1101,-235 1101,-235 1101,-235 1101,-161 1101,-115.73 1091.4,-63.06 1085.84,-36.39"/>
<ellipse fill="black" stroke="black" cx="1064.42" cy="-356.55" rx="4" ry="4"/>
</g>
<!-- obssubspacedata_mod -->
<g id="node23" class="node">
<title>obssubspacedata_mod</title>
<g id="a_node23"><a xlink:href="../modules/obssubspacedata_mod_rev.svg" xlink:title="obssubspacedata_mod">
<polygon fill="none" stroke="blue" points="1149,-468 1011,-468 1011,-432 1149,-432 1149,-468"/>
<text text-anchor="middle" x="1080" y="-446.3" font-family="Times,serif" font-size="14.00">obssubspacedata_mod</text>
</a>
</g>
</g>
<!-- obssubspacedata_mod&#45;&gt;codePrecision_mod -->
<g id="edge22" class="edge">
<title>obssubspacedata_mod&#45;&gt;codePrecision_mod</title>
<path fill="none" stroke="black" d="M1101.37,-425.31C1108.23,-416.62 1115.27,-406.36 1120,-396 1136.8,-359.21 1139,-347.45 1139,-307 1139,-307 1139,-307 1139,-161 1139,-112.92 1110.51,-61.84 1093.81,-36.04"/>
<ellipse fill="black" stroke="black" cx="1098.73" cy="-428.53" rx="4" ry="4"/>
</g>
<!-- obsutil_mod -->
<g id="node24" class="node">
<title>obsutil_mod</title>
<g id="a_node24"><a xlink:href="../modules/obsutil_mod_rev.svg" xlink:title="obsutil_mod">
<polygon fill="none" stroke="blue" points="1186.5,-540 1101.5,-540 1101.5,-504 1186.5,-504 1186.5,-540"/>
<text text-anchor="middle" x="1144" y="-518.3" font-family="Times,serif" font-size="14.00">obsutil_mod</text>
</a>
</g>
</g>
<!-- obsutil_mod&#45;&gt;codePrecision_mod -->
<g id="edge23" class="edge">
<title>obsutil_mod&#45;&gt;codePrecision_mod</title>
<path fill="none" stroke="black" d="M1153.43,-496.09C1163.18,-468.05 1177,-420.93 1177,-379 1177,-379 1177,-379 1177,-161 1177,-108.5 1131.59,-60.72 1103.56,-36.22"/>
<ellipse fill="black" stroke="black" cx="1152.02" cy="-500.04" rx="4" ry="4"/>
</g>
<!-- obsvariabletransforms_mod -->
<g id="node25" class="node">
<title>obsvariabletransforms_mod</title>
<g id="a_node25"><a xlink:href="../modules/obsvariabletransforms_mod_rev.svg" xlink:title="obsvariabletransforms_mod">
<polygon fill="none" stroke="blue" points="1300,-612 1130,-612 1130,-576 1300,-576 1300,-612"/>
<text text-anchor="middle" x="1215" y="-590.3" font-family="Times,serif" font-size="14.00">obsvariabletransforms_mod</text>
</a>
</g>
</g>
<!-- obsvariabletransforms_mod&#45;&gt;codePrecision_mod -->
<g id="edge24" class="edge">
<title>obsvariabletransforms_mod&#45;&gt;codePrecision_mod</title>
<path fill="none" stroke="black" d="M1215,-567.78C1215,-539.39 1215,-491.89 1215,-451 1215,-451 1215,-451 1215,-161 1215,-102.9 1154.96,-58.77 1115.56,-36.07"/>
<ellipse fill="black" stroke="black" cx="1215" cy="-571.95" rx="4" ry="4"/>
</g>
<!-- oceanobservations_mod -->
<g id="node26" class="node">
<title>oceanobservations_mod</title>
<g id="a_node26"><a xlink:href="../modules/oceanobservations_mod_rev.svg" xlink:title="oceanobservations_mod">
<polygon fill="none" stroke="blue" points="1391.5,-108 1242.5,-108 1242.5,-72 1391.5,-72 1391.5,-108"/>
<text text-anchor="middle" x="1317" y="-86.3" font-family="Times,serif" font-size="14.00">oceanobservations_mod</text>
</a>
</g>
</g>
<!-- oceanobservations_mod&#45;&gt;codePrecision_mod -->
<g id="edge25" class="edge">
<title>oceanobservations_mod&#45;&gt;codePrecision_mod</title>
<path fill="none" stroke="black" d="M1251.95,-69.62C1216.68,-59.12 1173.47,-46.25 1139.44,-36.11"/>
<ellipse fill="black" stroke="black" cx="1255.98" cy="-70.82" rx="4" ry="4"/>
</g>
<!-- ominusf_mod -->
<g id="node27" class="node">
<title>ominusf_mod</title>
<g id="a_node27"><a xlink:href="../modules/ominusf_mod_rev.svg" xlink:title="ominusf_mod">
<polygon fill="none" stroke="blue" points="1428.5,-180 1335.5,-180 1335.5,-144 1428.5,-144 1428.5,-180"/>
<text text-anchor="middle" x="1382" y="-158.3" font-family="Times,serif" font-size="14.00">ominusf_mod</text>
</a>
</g>
</g>
<!-- ominusf_mod&#45;&gt;codePrecision_mod -->
<g id="edge26" class="edge">
<title>ominusf_mod&#45;&gt;codePrecision_mod</title>
<path fill="none" stroke="black" d="M1396.77,-136.73C1406.6,-117.12 1415.18,-89.92 1400,-72 1367.89,-34.1 1227.43,-23.28 1144.31,-20.2"/>
<ellipse fill="black" stroke="black" cx="1394.87" cy="-140.31" rx="4" ry="4"/>
</g>
<!-- radialvelocity_mod -->
<g id="node28" class="node">
<title>radialvelocity_mod</title>
<g id="a_node28"><a xlink:href="../modules/radialvelocity_mod_rev.svg" xlink:title="radialvelocity_mod">
<polygon fill="none" stroke="blue" points="1467,-252 1345,-252 1345,-216 1467,-216 1467,-252"/>
<text text-anchor="middle" x="1406" y="-230.3" font-family="Times,serif" font-size="14.00">radialvelocity_mod</text>
</a>
</g>
</g>
<!-- radialvelocity_mod&#45;&gt;codePrecision_mod -->
<g id="edge27" class="edge">
<title>radialvelocity_mod&#45;&gt;codePrecision_mod</title>
<path fill="none" stroke="black" d="M1423.66,-208.99C1429.04,-200.3 1434.26,-190.13 1437,-180 1449.73,-133.03 1454.91,-104.84 1419,-72 1379.83,-36.17 1230.29,-24.53 1144.15,-20.77"/>
<ellipse fill="black" stroke="black" cx="1421.33" cy="-212.56" rx="4" ry="4"/>
</g>
<!-- sqlitefiles_mod -->
<g id="node29" class="node">
<title>sqlitefiles_mod</title>
<g id="a_node29"><a xlink:href="../modules/sqlitefiles_mod_rev.svg" xlink:title="sqlitefiles_mod">
<polygon fill="none" stroke="blue" points="1505,-324 1405,-324 1405,-288 1505,-288 1505,-324"/>
<text text-anchor="middle" x="1455" y="-302.3" font-family="Times,serif" font-size="14.00">sqlitefiles_mod</text>
</a>
</g>
</g>
<!-- sqlitefiles_mod&#45;&gt;codePrecision_mod -->
<g id="edge28" class="edge">
<title>sqlitefiles_mod&#45;&gt;codePrecision_mod</title>
<path fill="none" stroke="black" d="M1467.05,-280.24C1470.68,-271.53 1474.18,-261.53 1476,-252 1487.73,-190.53 1450.68,-76.41 1446,-72 1403.56,-32.07 1236.64,-22.13 1144.29,-19.72"/>
<ellipse fill="black" stroke="black" cx="1465.32" cy="-284.17" rx="4" ry="4"/>
</g>
<!-- sqliteread_mod -->
<g id="node30" class="node">
<title>sqliteread_mod</title>
<g id="a_node30"><a xlink:href="../modules/sqliteread_mod_rev.svg" xlink:title="sqliteread_mod">
<polygon fill="none" stroke="blue" points="1542.5,-396 1441.5,-396 1441.5,-360 1542.5,-360 1542.5,-396"/>
<text text-anchor="middle" x="1492" y="-374.3" font-family="Times,serif" font-size="14.00">sqliteread_mod</text>
</a>
</g>
</g>
<!-- sqliteread_mod&#45;&gt;codePrecision_mod -->
<g id="edge29" class="edge">
<title>sqliteread_mod&#45;&gt;codePrecision_mod</title>
<path fill="none" stroke="black" d="M1503.56,-352.66C1515.69,-324.86 1533,-277.69 1533,-235 1533,-235 1533,-235 1533,-161 1533,-111.75 1509.37,-97.1 1467,-72 1413.74,-40.45 1239.02,-26.9 1144.33,-21.75"/>
<ellipse fill="black" stroke="black" cx="1501.93" cy="-356.32" rx="4" ry="4"/>
</g>
<!-- sstbias_mod -->
<g id="node31" class="node">
<title>sstbias_mod</title>
<g id="a_node31"><a xlink:href="../modules/sstbias_mod_rev.svg" xlink:title="sstbias_mod">
<polygon fill="none" stroke="blue" points="1581,-468 1497,-468 1497,-432 1581,-432 1581,-468"/>
<text text-anchor="middle" x="1539" y="-446.3" font-family="Times,serif" font-size="14.00">sstbias_mod</text>
</a>
</g>
</g>
<!-- sstbias_mod&#45;&gt;codePrecision_mod -->
<g id="edge30" class="edge">
<title>sstbias_mod&#45;&gt;codePrecision_mod</title>
<path fill="none" stroke="black" d="M1548.14,-424.06C1557.6,-396 1571,-348.86 1571,-307 1571,-307 1571,-307 1571,-161 1571,-112.02 1548.21,-96.85 1506,-72 1446.15,-36.76 1247.01,-24.72 1144.36,-20.79"/>
<ellipse fill="black" stroke="black" cx="1546.78" cy="-428.01" rx="4" ry="4"/>
</g>
<!-- statetocolumn_mod -->
<g id="node32" class="node">
<title>statetocolumn_mod</title>
<g id="a_node32"><a xlink:href="../modules/statetocolumn_mod_rev.svg" xlink:title="statetocolumn_mod">
<polygon fill="none" stroke="blue" points="1618.5,-540 1493.5,-540 1493.5,-504 1618.5,-504 1618.5,-540"/>
<text text-anchor="middle" x="1556" y="-518.3" font-family="Times,serif" font-size="14.00">statetocolumn_mod</text>
</a>
</g>
</g>
<!-- statetocolumn_mod&#45;&gt;codePrecision_mod -->
<g id="edge31" class="edge">
<title>statetocolumn_mod&#45;&gt;codePrecision_mod</title>
<path fill="none" stroke="black" d="M1573.96,-497.05C1579.81,-488.29 1585.86,-478.05 1590,-468 1605.39,-430.6 1609,-419.45 1609,-379 1609,-379 1609,-379 1609,-161 1609,-112.28 1587.02,-96.66 1545,-72 1478.53,-33 1254.6,-22.69 1144.37,-19.97"/>
<ellipse fill="black" stroke="black" cx="1571.62" cy="-500.44" rx="4" ry="4"/>
</g>
<!-- tovsnl_mod -->
<g id="node33" class="node">
<title>tovsnl_mod</title>
<g id="a_node33"><a xlink:href="../modules/tovsnl_mod_rev.svg" xlink:title="tovsnl_mod">
<polygon fill="none" stroke="blue" points="1687.5,-612 1606.5,-612 1606.5,-576 1687.5,-576 1687.5,-612"/>
<text text-anchor="middle" x="1647" y="-590.3" font-family="Times,serif" font-size="14.00">tovsnl_mod</text>
</a>
</g>
</g>
<!-- tovsnl_mod&#45;&gt;codePrecision_mod -->
<g id="edge32" class="edge">
<title>tovsnl_mod&#45;&gt;codePrecision_mod</title>
<path fill="none" stroke="black" d="M1647,-567.78C1647,-539.39 1647,-491.89 1647,-451 1647,-451 1647,-451 1647,-161 1647,-112.28 1625.13,-96.48 1583,-72 1509.93,-29.54 1261.68,-20.98 1144.38,-19.34"/>
<ellipse fill="black" stroke="black" cx="1647" cy="-571.95" rx="4" ry="4"/>
</g>
<!-- var1d_mod -->
<g id="node34" class="node">
<title>var1d_mod</title>
<g id="a_node34"><a xlink:href="../modules/var1d_mod_rev.svg" xlink:title="var1d_mod">
<polygon fill="none" stroke="blue" points="1754.5,-108 1675.5,-108 1675.5,-72 1754.5,-72 1754.5,-108"/>
<text text-anchor="middle" x="1715" y="-86.3" font-family="Times,serif" font-size="14.00">var1d_mod</text>
</a>
</g>
</g>
<!-- var1d_mod&#45;&gt;codePrecision_mod -->
<g id="edge33" class="edge">
<title>var1d_mod&#45;&gt;codePrecision_mod</title>
<path fill="none" stroke="black" d="M1667.28,-73.38C1665.16,-72.88 1663.07,-72.41 1661,-72 1475.44,-34.74 1251.1,-23.63 1144.32,-20.35"/>
<ellipse fill="black" stroke="black" cx="1671.57" cy="-74.49" rx="4" ry="4"/>
</g>
<!-- midas_midas_adjointtest -->
<g id="node35" class="node">
<title>midas_midas_adjointtest</title>
<g id="a_node35"><a xlink:href="../programs/midas_adjointtest.html" xlink:title="midas_midas_adjointtest">
<polygon fill="gray" stroke="green" points="1827,-180 1675,-180 1675,-144 1827,-144 1827,-180"/>
<text text-anchor="middle" x="1751" y="-158.3" font-family="Times,serif" font-size="14.00">midas_midas_adjointtest</text>
</a>
</g>
</g>
<!-- midas_midas_adjointtest&#45;&gt;codePrecision_mod -->
<g id="edge34" class="edge">
<title>midas_midas_adjointtest&#45;&gt;codePrecision_mod</title>
<path fill="none" stroke="black" d="M1763.77,-136.37C1772.11,-116.48 1778.8,-89.07 1763,-72 1721.45,-27.09 1304.32,-20.14 1144.16,-19.14"/>
<ellipse fill="black" stroke="black" cx="1762.05" cy="-140.2" rx="4" ry="4"/>
</g>
<!-- midas_midas_diaghbht -->
<g id="node36" class="node">
<title>midas_midas_diaghbht</title>
<g id="a_node36"><a xlink:href="../programs/midas_diaghbht.html" xlink:title="midas_midas_diaghbht">
<polygon fill="gray" stroke="green" points="1864.5,-252 1721.5,-252 1721.5,-216 1864.5,-216 1864.5,-252"/>
<text text-anchor="middle" x="1793" y="-230.3" font-family="Times,serif" font-size="14.00">midas_midas_diaghbht</text>
</a>
</g>
</g>
<!-- midas_midas_diaghbht&#45;&gt;codePrecision_mod -->
<g id="edge35" class="edge">
<title>midas_midas_diaghbht&#45;&gt;codePrecision_mod</title>
<path fill="none" stroke="black" d="M1817.45,-209.91C1824.88,-201.31 1832.11,-190.96 1836,-180 1853.94,-129.42 1829.06,-97.8 1782,-72 1726.83,-41.76 1305.2,-25.82 1144.21,-20.79"/>
<ellipse fill="black" stroke="black" cx="1814.73" cy="-212.88" rx="4" ry="4"/>
</g>
<!-- midas_midas_gencoeff -->
<g id="node37" class="node">
<title>midas_midas_gencoeff</title>
<g id="a_node37"><a xlink:href="../programs/midas_gencoeff.html" xlink:title="midas_midas_gencoeff">
<polygon fill="gray" stroke="green" points="1902.5,-324 1759.5,-324 1759.5,-288 1902.5,-288 1902.5,-324"/>
<text text-anchor="middle" x="1831" y="-302.3" font-family="Times,serif" font-size="14.00">midas_midas_gencoeff</text>
</a>
</g>
</g>
<!-- midas_midas_gencoeff&#45;&gt;codePrecision_mod -->
<g id="edge36" class="edge">
<title>midas_midas_gencoeff&#45;&gt;codePrecision_mod</title>
<path fill="none" stroke="black" d="M1855.1,-281.57C1862.29,-273.01 1869.25,-262.78 1873,-252 1900.46,-173.12 1887.9,-119.21 1819,-72 1763.97,-34.3 1311.83,-22.87 1144.21,-19.91"/>
<ellipse fill="black" stroke="black" cx="1852.26" cy="-284.76" rx="4" ry="4"/>
</g>
<!-- midas_midas_obsimpact -->
<g id="node38" class="node">
<title>midas_midas_obsimpact</title>
<g id="a_node38"><a xlink:href="../programs/midas_obsimpact.html" xlink:title="midas_midas_obsimpact">
<polygon fill="gray" stroke="green" points="1941,-396 1789,-396 1789,-360 1941,-360 1941,-396"/>
<text text-anchor="middle" x="1865" y="-374.3" font-family="Times,serif" font-size="14.00">midas_midas_obsimpact</text>
</a>
</g>
</g>
<!-- midas_midas_obsimpact&#45;&gt;codePrecision_mod -->
<g id="edge37" class="edge">
<title>midas_midas_obsimpact&#45;&gt;codePrecision_mod</title>
<path fill="none" stroke="black" d="M1889.74,-353.58C1897.58,-344.96 1905.61,-334.68 1911,-324 1929.29,-287.82 1931,-275.54 1931,-235 1931,-235 1931,-235 1931,-161 1931,-108.4 1900.13,-95.35 1853,-72 1790.18,-40.88 1316.05,-25.25 1144.07,-20.56"/>
<ellipse fill="black" stroke="black" cx="1886.85" cy="-356.64" rx="4" ry="4"/>
</g>
<!-- midas_midas_obsselection -->
<g id="node39" class="node">
<title>midas_midas_obsselection</title>
<g id="a_node39"><a xlink:href="../programs/midas_obsselection.html" xlink:title="midas_midas_obsselection">
<polygon fill="gray" stroke="green" points="2014.5,-468 1851.5,-468 1851.5,-432 2014.5,-432 2014.5,-468"/>
<text text-anchor="middle" x="1933" y="-446.3" font-family="Times,serif" font-size="14.00">midas_midas_obsselection</text>
</a>
</g>
</g>
<!-- midas_midas_obsselection&#45;&gt;codePrecision_mod -->
<g id="edge38" class="edge">
<title>midas_midas_obsselection&#45;&gt;codePrecision_mod</title>
<path fill="none" stroke="black" d="M1943.29,-424.16C1953.93,-396.19 1969,-349.13 1969,-307 1969,-307 1969,-307 1969,-161 1969,-110.12 1942.18,-95.39 1897,-72 1830.78,-37.71 1323.01,-23.99 1144.12,-20.18"/>
<ellipse fill="black" stroke="black" cx="1941.74" cy="-428.14" rx="4" ry="4"/>
</g>
<!-- midas_midas_var1d -->
<g id="node40" class="node">
<title>midas_midas_var1d</title>
<g id="a_node40"><a xlink:href="../programs/midas_var1d.html" xlink:title="midas_midas_var1d">
<polygon fill="gray" stroke="green" points="2106.5,-540 1979.5,-540 1979.5,-504 2106.5,-504 2106.5,-540"/>
<text text-anchor="middle" x="2043" y="-518.3" font-family="Times,serif" font-size="14.00">midas_midas_var1d</text>
</a>
</g>
</g>
<!-- midas_midas_var1d&#45;&gt;codePrecision_mod -->
<g id="edge39" class="edge">
<title>midas_midas_var1d&#45;&gt;codePrecision_mod</title>
<path fill="none" stroke="black" d="M2043,-495.78C2043,-467.39 2043,-419.89 2043,-379 2043,-379 2043,-379 2043,-161 2043,-100.16 1995.39,-94.84 1939,-72 1865.94,-42.41 1328.65,-25.54 1144.06,-20.57"/>
<ellipse fill="black" stroke="black" cx="2043" cy="-499.95" rx="4" ry="4"/>
</g>
<!-- midas_midas_var -->
<g id="node41" class="node">
<title>midas_midas_var</title>
<g id="a_node41"><a xlink:href="../programs/midas_var.html" xlink:title="midas_midas_var">
<polygon fill="gray" stroke="green" points="2191.5,-612 2078.5,-612 2078.5,-576 2191.5,-576 2191.5,-612"/>
<text text-anchor="middle" x="2135" y="-590.3" font-family="Times,serif" font-size="14.00">midas_midas_var</text>
</a>
</g>
</g>
<!-- midas_midas_var&#45;&gt;codePrecision_mod -->
<g id="edge40" class="edge">
<title>midas_midas_var&#45;&gt;codePrecision_mod</title>
<path fill="none" stroke="black" d="M2135,-567.78C2135,-539.39 2135,-491.89 2135,-451 2135,-451 2135,-451 2135,-161 2135,-86.52 2063.96,-94.65 1993,-72 1834.44,-21.38 1322.42,-18.15 1144,-18.62"/>
<ellipse fill="black" stroke="black" cx="2135" cy="-571.95" rx="4" ry="4"/>
</g>
</g>
</svg>
