<?xml version="1.0" encoding="UTF-8" standalone="no"?>
<!DOCTYPE svg PUBLIC "-//W3C//DTD SVG 1.1//EN"
 "http://www.w3.org/Graphics/SVG/1.1/DTD/svg11.dtd">
<!-- Generated by graphviz version 3.0.0 (20220315.2325)
 -->
<!-- Title: codtyp_mod Pages: 1 -->
<svg width="1563pt" height="673pt"
 viewBox="0.00 0.00 1563.00 673.00" xmlns="http://www.w3.org/2000/svg" xmlns:xlink="http://www.w3.org/1999/xlink">
<g id="graph0" class="graph" transform="scale(1 1) rotate(0) translate(4 669)">
<title>codtyp_mod</title>
<polygon fill="white" stroke="transparent" points="-4,4 -4,-669 1559,-669 1559,4 -4,4"/>
<text text-anchor="middle" x="777.5" y="-649.8" font-family="Times,serif" font-size="14.00">Blue boxes indicate modules with reverse dependencies not shown</text>
<text text-anchor="middle" x="777.5" y="-634.8" font-family="Times,serif" font-size="14.00">Higher level reverse dependencies can be shown by clicking on a blue box</text>
<text text-anchor="middle" x="777.5" y="-619.8" font-family="Times,serif" font-size="14.00">Green boxes are programs</text>
<!-- codtyp_mod -->
<g id="node1" class="node">
<title>codtyp_mod</title>
<g id="a_node1"><a xlink:href="codtyp_mod.html" xlink:title="codtyp_mod">
<polygon fill="none" stroke="black" points="847.5,-36 762.5,-36 762.5,0 847.5,0 847.5,-36"/>
<text text-anchor="middle" x="805" y="-14.3" font-family="Times,serif" font-size="14.00">codtyp_mod</text>
</a>
</g>
</g>
<!-- backgroundcheck_mod -->
<g id="node2" class="node">
<title>backgroundcheck_mod</title>
<g id="a_node2"><a xlink:href="../modules/backgroundcheck_mod_rev.svg" xlink:title="backgroundcheck_mod">
<polygon fill="none" stroke="blue" points="144,-108 0,-108 0,-72 144,-72 144,-108"/>
<text text-anchor="middle" x="72" y="-86.3" font-family="Times,serif" font-size="14.00">backgroundcheck_mod</text>
</a>
</g>
</g>
<!-- backgroundcheck_mod&#45;&gt;codtyp_mod -->
<g id="edge1" class="edge">
<title>backgroundcheck_mod&#45;&gt;codtyp_mod</title>
<path fill="none" stroke="black" d="M152.43,-72.81C154.31,-72.53 156.16,-72.26 158,-72 384.6,-40.43 658.66,-25.6 762.42,-20.81"/>
<ellipse fill="black" stroke="black" cx="148.11" cy="-73.49" rx="4" ry="4"/>
</g>
<!-- bgckmicrowave_mod -->
<g id="node3" class="node">
<title>bgckmicrowave_mod</title>
<g id="a_node3"><a xlink:href="../modules/bgckmicrowave_mod_rev.svg" xlink:title="bgckmicrowave_mod">
<polygon fill="none" stroke="blue" points="211,-180 75,-180 75,-144 211,-144 211,-180"/>
<text text-anchor="middle" x="143" y="-158.3" font-family="Times,serif" font-size="14.00">bgckmicrowave_mod</text>
</a>
</g>
</g>
<!-- bgckmicrowave_mod&#45;&gt;codtyp_mod -->
<g id="edge2" class="edge">
<title>bgckmicrowave_mod&#45;&gt;codtyp_mod</title>
<path fill="none" stroke="black" d="M157.72,-136.91C172.04,-115.83 195.89,-86.38 225,-72 319.51,-25.32 644.81,-19.52 762.27,-18.98"/>
<ellipse fill="black" stroke="black" cx="155.43" cy="-140.37" rx="4" ry="4"/>
</g>
<!-- bgckocean_mod -->
<g id="node4" class="node">
<title>bgckocean_mod</title>
<g id="a_node4"><a xlink:href="../modules/bgckocean_mod_rev.svg" xlink:title="bgckocean_mod">
<polygon fill="none" stroke="blue" points="249,-252 143,-252 143,-216 249,-216 249,-252"/>
<text text-anchor="middle" x="196" y="-230.3" font-family="Times,serif" font-size="14.00">bgckocean_mod</text>
</a>
</g>
</g>
<!-- bgckocean_mod&#45;&gt;codtyp_mod -->
<g id="edge3" class="edge">
<title>bgckocean_mod&#45;&gt;codtyp_mod</title>
<path fill="none" stroke="black" d="M207.41,-208.44C211.47,-199.53 216.03,-189.35 220,-180 240.22,-132.46 221.7,-103.05 263,-72 302.63,-42.21 641.17,-25.66 762.2,-20.65"/>
<ellipse fill="black" stroke="black" cx="205.65" cy="-212.27" rx="4" ry="4"/>
</g>
<!-- biascorrectionconv_mod -->
<g id="node5" class="node">
<title>biascorrectionconv_mod</title>
<g id="a_node5"><a xlink:href="../modules/biascorrectionconv_mod_rev.svg" xlink:title="biascorrectionconv_mod">
<polygon fill="none" stroke="blue" points="287,-324 135,-324 135,-288 287,-288 287,-324"/>
<text text-anchor="middle" x="211" y="-302.3" font-family="Times,serif" font-size="14.00">biascorrectionconv_mod</text>
</a>
</g>
</g>
<!-- biascorrectionconv_mod&#45;&gt;codtyp_mod -->
<g id="edge4" class="edge">
<title>biascorrectionconv_mod&#45;&gt;codtyp_mod</title>
<path fill="none" stroke="black" d="M236.21,-281.62C244.21,-273 252.42,-262.71 258,-252 295.98,-179.04 239.19,-126.27 301,-72 335.38,-41.81 646.61,-25.69 762.11,-20.71"/>
<ellipse fill="black" stroke="black" cx="233.23" cy="-284.7" rx="4" ry="4"/>
</g>
<!-- biascorrectionsat_mod -->
<g id="node6" class="node">
<title>biascorrectionsat_mod</title>
<g id="a_node6"><a xlink:href="../modules/biascorrectionsat_mod_rev.svg" xlink:title="biascorrectionsat_mod">
<polygon fill="none" stroke="blue" points="325,-396 185,-396 185,-360 325,-360 325,-396"/>
<text text-anchor="middle" x="255" y="-374.3" font-family="Times,serif" font-size="14.00">biascorrectionsat_mod</text>
</a>
</g>
</g>
<!-- biascorrectionsat_mod&#45;&gt;codtyp_mod -->
<g id="edge5" class="edge">
<title>biascorrectionsat_mod&#45;&gt;codtyp_mod</title>
<path fill="none" stroke="black" d="M276.92,-353.39C283.95,-344.7 291.16,-334.43 296,-324 313.02,-287.31 315,-275.45 315,-235 315,-235 315,-235 315,-161 315,-120.03 307.94,-98.71 339,-72 370.79,-44.66 653.16,-27 762.25,-21.15"/>
<ellipse fill="black" stroke="black" cx="274.19" cy="-356.63" rx="4" ry="4"/>
</g>
<!-- burpread_mod -->
<g id="node7" class="node">
<title>burpread_mod</title>
<g id="a_node7"><a xlink:href="../modules/burpread_mod_rev.svg" xlink:title="burpread_mod">
<polygon fill="none" stroke="blue" points="362.5,-468 265.5,-468 265.5,-432 362.5,-432 362.5,-468"/>
<text text-anchor="middle" x="314" y="-446.3" font-family="Times,serif" font-size="14.00">burpread_mod</text>
</a>
</g>
</g>
<!-- burpread_mod&#45;&gt;codtyp_mod -->
<g id="edge6" class="edge">
<title>burpread_mod&#45;&gt;codtyp_mod</title>
<path fill="none" stroke="black" d="M325.14,-424.25C336.67,-396.35 353,-349.35 353,-307 353,-307 353,-307 353,-161 353,-120.03 346.07,-98.87 377,-72 433.87,-22.59 665.83,-18.11 762.45,-18.46"/>
<ellipse fill="black" stroke="black" cx="323.45" cy="-428.24" rx="4" ry="4"/>
</g>
<!-- costfunction_mod -->
<g id="node8" class="node">
<title>costfunction_mod</title>
<g id="a_node8"><a xlink:href="../modules/costfunction_mod_rev.svg" xlink:title="costfunction_mod">
<polygon fill="none" stroke="blue" points="400.5,-540 285.5,-540 285.5,-504 400.5,-504 400.5,-540"/>
<text text-anchor="middle" x="343" y="-518.3" font-family="Times,serif" font-size="14.00">costfunction_mod</text>
</a>
</g>
</g>
<!-- costfunction_mod&#45;&gt;codtyp_mod -->
<g id="edge7" class="edge">
<title>costfunction_mod&#45;&gt;codtyp_mod</title>
<path fill="none" stroke="black" d="M357.51,-496.82C362.34,-487.99 367.4,-477.76 371,-468 385.04,-429.97 391,-419.54 391,-379 391,-379 391,-379 391,-161 391,-120.03 384.23,-99.05 415,-72 465.87,-27.28 671.84,-20.04 762.18,-19.05"/>
<ellipse fill="black" stroke="black" cx="355.5" cy="-500.39" rx="4" ry="4"/>
</g>
<!-- enkf_mod -->
<g id="node9" class="node">
<title>enkf_mod</title>
<g id="a_node9"><a xlink:href="../modules/enkf_mod_rev.svg" xlink:title="enkf_mod">
<polygon fill="none" stroke="blue" points="465.5,-612 392.5,-612 392.5,-576 465.5,-576 465.5,-612"/>
<text text-anchor="middle" x="429" y="-590.3" font-family="Times,serif" font-size="14.00">enkf_mod</text>
</a>
</g>
</g>
<!-- enkf_mod&#45;&gt;codtyp_mod -->
<g id="edge8" class="edge">
<title>enkf_mod&#45;&gt;codtyp_mod</title>
<path fill="none" stroke="black" d="M429,-567.78C429,-539.39 429,-491.89 429,-451 429,-451 429,-451 429,-161 429,-120.64 417.72,-99.78 447,-72 491.61,-29.67 677.32,-21.09 762.26,-19.39"/>
<ellipse fill="black" stroke="black" cx="429" cy="-571.95" rx="4" ry="4"/>
</g>
<!-- ensembleobservations_mod -->
<g id="node10" class="node">
<title>ensembleobservations_mod</title>
<g id="a_node10"><a xlink:href="../modules/ensembleobservations_mod_rev.svg" xlink:title="ensembleobservations_mod">
<polygon fill="none" stroke="blue" points="625.5,-108 456.5,-108 456.5,-72 625.5,-72 625.5,-108"/>
<text text-anchor="middle" x="541" y="-86.3" font-family="Times,serif" font-size="14.00">ensembleobservations_mod</text>
</a>
</g>
</g>
<!-- ensembleobservations_mod&#45;&gt;codtyp_mod -->
<g id="edge9" class="edge">
<title>ensembleobservations_mod&#45;&gt;codtyp_mod</title>
<path fill="none" stroke="black" d="M613.11,-69.88C660.96,-57.19 722.15,-40.97 762.4,-30.3"/>
<ellipse fill="black" stroke="black" cx="609.11" cy="-70.94" rx="4" ry="4"/>
</g>
<!-- obsdbfiles_mod -->
<g id="node11" class="node">
<title>obsdbfiles_mod</title>
<g id="a_node11"><a xlink:href="../modules/obsdbfiles_mod_rev.svg" xlink:title="obsdbfiles_mod">
<polygon fill="none" stroke="blue" points="662.5,-180 559.5,-180 559.5,-144 662.5,-144 662.5,-180"/>
<text text-anchor="middle" x="611" y="-158.3" font-family="Times,serif" font-size="14.00">obsdbfiles_mod</text>
</a>
</g>
</g>
<!-- obsdbfiles_mod&#45;&gt;codtyp_mod -->
<g id="edge10" class="edge">
<title>obsdbfiles_mod&#45;&gt;codtyp_mod</title>
<path fill="none" stroke="black" d="M624.12,-136.58C635.76,-116.88 654.41,-89.63 677,-72 702.22,-52.32 735.78,-38.78 762.21,-30.32"/>
<ellipse fill="black" stroke="black" cx="622" cy="-140.26" rx="4" ry="4"/>
</g>
<!-- obsdiagfiles_mod -->
<g id="node12" class="node">
<title>obsdiagfiles_mod</title>
<g id="a_node12"><a xlink:href="../modules/obsdiagfiles_mod_rev.svg" xlink:title="obsdiagfiles_mod">
<polygon fill="none" stroke="blue" points="700.5,-252 587.5,-252 587.5,-216 700.5,-216 700.5,-252"/>
<text text-anchor="middle" x="644" y="-230.3" font-family="Times,serif" font-size="14.00">obsdiagfiles_mod</text>
</a>
</g>
</g>
<!-- obsdiagfiles_mod&#45;&gt;codtyp_mod -->
<g id="edge11" class="edge">
<title>obsdiagfiles_mod&#45;&gt;codtyp_mod</title>
<path fill="none" stroke="black" d="M656.86,-208.82C661.49,-199.85 666.64,-189.54 671,-180 692.56,-132.87 681.11,-111.21 715,-72 728.16,-56.77 746.83,-44.79 763.76,-36.09"/>
<ellipse fill="black" stroke="black" cx="654.97" cy="-212.45" rx="4" ry="4"/>
</g>
<!-- obserrors_mod -->
<g id="node13" class="node">
<title>obserrors_mod</title>
<g id="a_node13"><a xlink:href="../modules/obserrors_mod_rev.svg" xlink:title="obserrors_mod">
<polygon fill="none" stroke="blue" points="738.5,-324 639.5,-324 639.5,-288 738.5,-288 738.5,-324"/>
<text text-anchor="middle" x="689" y="-302.3" font-family="Times,serif" font-size="14.00">obserrors_mod</text>
</a>
</g>
</g>
<!-- obserrors_mod&#45;&gt;codtyp_mod -->
<g id="edge12" class="edge">
<title>obserrors_mod&#45;&gt;codtyp_mod</title>
<path fill="none" stroke="black" d="M699.04,-280.28C702.44,-271.44 706.1,-261.35 709,-252 733.36,-173.33 712.95,-143.96 753,-72 760.65,-58.26 772.82,-45.58 783.46,-36.07"/>
<ellipse fill="black" stroke="black" cx="697.48" cy="-284.27" rx="4" ry="4"/>
</g>
<!-- obsfilter_mod -->
<g id="node14" class="node">
<title>obsfilter_mod</title>
<g id="a_node14"><a xlink:href="../modules/obsfilter_mod_rev.svg" xlink:title="obsfilter_mod">
<polygon fill="none" stroke="blue" points="777,-396 685,-396 685,-360 777,-360 777,-396"/>
<text text-anchor="middle" x="731" y="-374.3" font-family="Times,serif" font-size="14.00">obsfilter_mod</text>
</a>
</g>
</g>
<!-- obsfilter_mod&#45;&gt;codtyp_mod -->
<g id="edge13" class="edge">
<title>obsfilter_mod&#45;&gt;codtyp_mod</title>
<path fill="none" stroke="black" d="M741.29,-352.16C751.93,-324.19 767,-277.13 767,-235 767,-235 767,-235 767,-161 767,-114.55 786.21,-62.38 797.31,-36.09"/>
<ellipse fill="black" stroke="black" cx="739.74" cy="-356.14" rx="4" ry="4"/>
</g>
<!-- obsoperatorschem_mod -->
<g id="node15" class="node">
<title>obsoperatorschem_mod</title>
<g id="a_node15"><a xlink:href="../modules/obsoperatorschem_mod_rev.svg" xlink:title="obsoperatorschem_mod">
<polygon fill="none" stroke="blue" points="814.5,-468 667.5,-468 667.5,-432 814.5,-432 814.5,-468"/>
<text text-anchor="middle" x="741" y="-446.3" font-family="Times,serif" font-size="14.00">obsoperatorschem_mod</text>
</a>
</g>
</g>
<!-- obsoperatorschem_mod&#45;&gt;codtyp_mod -->
<g id="edge14" class="edge">
<title>obsoperatorschem_mod&#45;&gt;codtyp_mod</title>
<path fill="none" stroke="black" d="M764.88,-425.95C772.68,-417.24 780.68,-406.81 786,-396 803.85,-359.71 805,-347.45 805,-307 805,-307 805,-307 805,-161 805,-115.89 805,-62.71 805,-36.05"/>
<ellipse fill="black" stroke="black" cx="762.01" cy="-429.04" rx="4" ry="4"/>
</g>
<!-- obsspacediag_mod -->
<g id="node16" class="node">
<title>obsspacediag_mod</title>
<g id="a_node16"><a xlink:href="../modules/obsspacediag_mod_rev.svg" xlink:title="obsspacediag_mod">
<polygon fill="none" stroke="blue" points="853,-540 733,-540 733,-504 853,-504 853,-540"/>
<text text-anchor="middle" x="793" y="-518.3" font-family="Times,serif" font-size="14.00">obsspacediag_mod</text>
</a>
</g>
</g>
<!-- obsspacediag_mod&#45;&gt;codtyp_mod -->
<g id="edge15" class="edge">
<title>obsspacediag_mod&#45;&gt;codtyp_mod</title>
<path fill="none" stroke="black" d="M808.61,-496.93C813.79,-488.11 819.2,-477.87 823,-468 837.59,-430.17 843,-419.54 843,-379 843,-379 843,-379 843,-161 843,-114.55 823.79,-62.38 812.69,-36.09"/>
<ellipse fill="black" stroke="black" cx="806.42" cy="-500.55" rx="4" ry="4"/>
</g>
<!-- obsspaceerrorstddev_mod -->
<g id="node17" class="node">
<title>obsspaceerrorstddev_mod</title>
<g id="a_node17"><a xlink:href="../modules/obsspaceerrorstddev_mod_rev.svg" xlink:title="obsspaceerrorstddev_mod">
<polygon fill="none" stroke="blue" points="960.5,-612 801.5,-612 801.5,-576 960.5,-576 960.5,-612"/>
<text text-anchor="middle" x="881" y="-590.3" font-family="Times,serif" font-size="14.00">obsspaceerrorstddev_mod</text>
</a>
</g>
</g>
<!-- obsspaceerrorstddev_mod&#45;&gt;codtyp_mod -->
<g id="edge16" class="edge">
<title>obsspaceerrorstddev_mod&#45;&gt;codtyp_mod</title>
<path fill="none" stroke="black" d="M881,-567.78C881,-539.39 881,-491.89 881,-451 881,-451 881,-451 881,-161 881,-110.95 843.84,-61.47 821.49,-36.23"/>
<ellipse fill="black" stroke="black" cx="881" cy="-571.95" rx="4" ry="4"/>
</g>
<!-- obsutil_mod -->
<g id="node18" class="node">
<title>obsutil_mod</title>
<g id="a_node18"><a xlink:href="../modules/obsutil_mod_rev.svg" xlink:title="obsutil_mod">
<polygon fill="none" stroke="blue" points="994.5,-108 909.5,-108 909.5,-72 994.5,-72 994.5,-108"/>
<text text-anchor="middle" x="952" y="-86.3" font-family="Times,serif" font-size="14.00">obsutil_mod</text>
</a>
</g>
</g>
<!-- obsutil_mod&#45;&gt;codtyp_mod -->
<g id="edge17" class="edge">
<title>obsutil_mod&#45;&gt;codtyp_mod</title>
<path fill="none" stroke="black" d="M908.6,-68.33C887.03,-58.06 861.28,-45.8 840.84,-36.07"/>
<ellipse fill="black" stroke="black" cx="912.43" cy="-70.16" rx="4" ry="4"/>
</g>
<!-- obsvariabletransforms_mod -->
<g id="node19" class="node">
<title>obsvariabletransforms_mod</title>
<g id="a_node19"><a xlink:href="../modules/obsvariabletransforms_mod_rev.svg" xlink:title="obsvariabletransforms_mod">
<polygon fill="none" stroke="blue" points="1079,-180 909,-180 909,-144 1079,-144 1079,-180"/>
<text text-anchor="middle" x="994" y="-158.3" font-family="Times,serif" font-size="14.00">obsvariabletransforms_mod</text>
</a>
</g>
</g>
<!-- obsvariabletransforms_mod&#45;&gt;codtyp_mod -->
<g id="edge18" class="edge">
<title>obsvariabletransforms_mod&#45;&gt;codtyp_mod</title>
<path fill="none" stroke="black" d="M1005.1,-136.1C1011.88,-116.69 1016.88,-90.08 1003,-72 984.2,-47.51 899.94,-31.87 847.58,-24.34"/>
<ellipse fill="black" stroke="black" cx="1003.65" cy="-139.93" rx="4" ry="4"/>
</g>
<!-- oceanbackground_mod -->
<g id="node20" class="node">
<title>oceanbackground_mod</title>
<g id="a_node20"><a xlink:href="../modules/oceanbackground_mod_rev.svg" xlink:title="oceanbackground_mod">
<polygon fill="none" stroke="blue" points="1117,-252 973,-252 973,-216 1117,-216 1117,-252"/>
<text text-anchor="middle" x="1045" y="-230.3" font-family="Times,serif" font-size="14.00">oceanbackground_mod</text>
</a>
</g>
</g>
<!-- oceanbackground_mod&#45;&gt;codtyp_mod -->
<g id="edge19" class="edge">
<title>oceanbackground_mod&#45;&gt;codtyp_mod</title>
<path fill="none" stroke="black" d="M1069.45,-209.91C1076.88,-201.31 1084.11,-190.96 1088,-180 1093.35,-164.92 1093.8,-158.91 1088,-144 1072.26,-103.54 1059.36,-94.1 1022,-72 967.26,-39.62 893.6,-26.97 847.72,-22.07"/>
<ellipse fill="black" stroke="black" cx="1066.73" cy="-212.88" rx="4" ry="4"/>
</g>
<!-- oceanobservations_mod -->
<g id="node21" class="node">
<title>oceanobservations_mod</title>
<g id="a_node21"><a xlink:href="../modules/oceanobservations_mod_rev.svg" xlink:title="oceanobservations_mod">
<polygon fill="none" stroke="blue" points="1155.5,-324 1006.5,-324 1006.5,-288 1155.5,-288 1155.5,-324"/>
<text text-anchor="middle" x="1081" y="-302.3" font-family="Times,serif" font-size="14.00">oceanobservations_mod</text>
</a>
</g>
</g>
<!-- oceanobservations_mod&#45;&gt;codtyp_mod -->
<g id="edge20" class="edge">
<title>oceanobservations_mod&#45;&gt;codtyp_mod</title>
<path fill="none" stroke="black" d="M1107.17,-281.42C1114.74,-272.97 1122.02,-262.83 1126,-252 1155.38,-172.02 1129.91,-120.71 1060,-72 1026.15,-48.41 910.97,-31.52 847.62,-23.76"/>
<ellipse fill="black" stroke="black" cx="1104.13" cy="-284.63" rx="4" ry="4"/>
</g>
<!-- slantprofilelatlon_mod -->
<g id="node22" class="node">
<title>slantprofilelatlon_mod</title>
<g id="a_node22"><a xlink:href="../modules/slantprofilelatlon_mod_rev.svg" xlink:title="slantprofilelatlon_mod">
<polygon fill="none" stroke="blue" points="1193,-396 1053,-396 1053,-360 1193,-360 1193,-396"/>
<text text-anchor="middle" x="1123" y="-374.3" font-family="Times,serif" font-size="14.00">slantprofilelatlon_mod</text>
</a>
</g>
</g>
<!-- slantprofilelatlon_mod&#45;&gt;codtyp_mod -->
<g id="edge21" class="edge">
<title>slantprofilelatlon_mod&#45;&gt;codtyp_mod</title>
<path fill="none" stroke="black" d="M1144.92,-353.39C1151.95,-344.7 1159.16,-334.43 1164,-324 1181.02,-287.31 1183,-275.45 1183,-235 1183,-235 1183,-235 1183,-161 1183,-105.37 1144.19,-97.98 1095,-72 1014.9,-29.69 906.93,-20.55 847.92,-18.94"/>
<ellipse fill="black" stroke="black" cx="1142.19" cy="-356.63" rx="4" ry="4"/>
</g>
<!-- sqliteread_mod -->
<g id="node23" class="node">
<title>sqliteread_mod</title>
<g id="a_node23"><a xlink:href="../modules/sqliteread_mod_rev.svg" xlink:title="sqliteread_mod">
<polygon fill="none" stroke="blue" points="1230.5,-468 1129.5,-468 1129.5,-432 1230.5,-432 1230.5,-468"/>
<text text-anchor="middle" x="1180" y="-446.3" font-family="Times,serif" font-size="14.00">sqliteread_mod</text>
</a>
</g>
</g>
<!-- sqliteread_mod&#45;&gt;codtyp_mod -->
<g id="edge22" class="edge">
<title>sqliteread_mod&#45;&gt;codtyp_mod</title>
<path fill="none" stroke="black" d="M1191.56,-424.66C1203.69,-396.86 1221,-349.69 1221,-307 1221,-307 1221,-307 1221,-161 1221,-108.11 1188.41,-97.38 1142,-72 1091.98,-44.65 926.64,-28.46 847.69,-22.12"/>
<ellipse fill="black" stroke="black" cx="1189.93" cy="-428.32" rx="4" ry="4"/>
</g>
<!-- sstbias_mod -->
<g id="node24" class="node">
<title>sstbias_mod</title>
<g id="a_node24"><a xlink:href="../modules/sstbias_mod_rev.svg" xlink:title="sstbias_mod">
<polygon fill="none" stroke="blue" points="1269,-540 1185,-540 1185,-504 1269,-504 1269,-540"/>
<text text-anchor="middle" x="1227" y="-518.3" font-family="Times,serif" font-size="14.00">sstbias_mod</text>
</a>
</g>
</g>
<!-- sstbias_mod&#45;&gt;codtyp_mod -->
<g id="edge23" class="edge">
<title>sstbias_mod&#45;&gt;codtyp_mod</title>
<path fill="none" stroke="black" d="M1236.14,-496.06C1245.6,-468 1259,-420.86 1259,-379 1259,-379 1259,-379 1259,-161 1259,-109.84 1230.62,-97.02 1186,-72 1128.7,-39.87 934.43,-25.82 847.57,-21.04"/>
<ellipse fill="black" stroke="black" cx="1234.78" cy="-500.01" rx="4" ry="4"/>
</g>
<!-- statetocolumn_mod -->
<g id="node25" class="node">
<title>statetocolumn_mod</title>
<g id="a_node25"><a xlink:href="../modules/statetocolumn_mod_rev.svg" xlink:title="statetocolumn_mod">
<polygon fill="none" stroke="blue" points="1359.5,-612 1234.5,-612 1234.5,-576 1359.5,-576 1359.5,-612"/>
<text text-anchor="middle" x="1297" y="-590.3" font-family="Times,serif" font-size="14.00">statetocolumn_mod</text>
</a>
</g>
</g>
<!-- statetocolumn_mod&#45;&gt;codtyp_mod -->
<g id="edge24" class="edge">
<title>statetocolumn_mod&#45;&gt;codtyp_mod</title>
<path fill="none" stroke="black" d="M1297,-567.78C1297,-539.39 1297,-491.89 1297,-451 1297,-451 1297,-451 1297,-161 1297,-110.68 1270.81,-96.77 1227,-72 1162.72,-35.65 941.31,-23.75 847.52,-20.28"/>
<ellipse fill="black" stroke="black" cx="1297" cy="-571.95" rx="4" ry="4"/>
</g>
<!-- thinning_mod -->
<g id="node26" class="node">
<title>thinning_mod</title>
<g id="a_node26"><a xlink:href="../modules/thinning_mod_rev.svg" xlink:title="thinning_mod">
<polygon fill="none" stroke="blue" points="1418.5,-108 1325.5,-108 1325.5,-72 1418.5,-72 1418.5,-108"/>
<text text-anchor="middle" x="1372" y="-86.3" font-family="Times,serif" font-size="14.00">thinning_mod</text>
</a>
</g>
</g>
<!-- thinning_mod&#45;&gt;codtyp_mod -->
<g id="edge25" class="edge">
<title>thinning_mod&#45;&gt;codtyp_mod</title>
<path fill="none" stroke="black" d="M1317.17,-73.26C1315.09,-72.81 1313.03,-72.39 1311,-72 1141.15,-39.67 935.2,-25.79 847.67,-21.05"/>
<ellipse fill="black" stroke="black" cx="1321.33" cy="-74.22" rx="4" ry="4"/>
</g>
<!-- tovsnl_mod -->
<g id="node27" class="node">
<title>tovsnl_mod</title>
<g id="a_node27"><a xlink:href="../modules/tovsnl_mod_rev.svg" xlink:title="tovsnl_mod">
<polygon fill="none" stroke="blue" points="1487.5,-180 1406.5,-180 1406.5,-144 1487.5,-144 1487.5,-180"/>
<text text-anchor="middle" x="1447" y="-158.3" font-family="Times,serif" font-size="14.00">tovsnl_mod</text>
</a>
</g>
</g>
<!-- tovsnl_mod&#45;&gt;codtyp_mod -->
<g id="edge26" class="edge">
<title>tovsnl_mod&#45;&gt;codtyp_mod</title>
<path fill="none" stroke="black" d="M1448.76,-135.74C1448.67,-115.35 1444.86,-87.58 1427,-72 1383.46,-34.02 980.85,-22.54 847.6,-19.76"/>
<ellipse fill="black" stroke="black" cx="1448.68" cy="-139.97" rx="4" ry="4"/>
</g>
<!-- varqc_mod -->
<g id="node28" class="node">
<title>varqc_mod</title>
<g id="a_node28"><a xlink:href="../modules/varqc_mod_rev.svg" xlink:title="varqc_mod">
<polygon fill="none" stroke="blue" points="1555,-252 1477,-252 1477,-216 1555,-216 1555,-252"/>
<text text-anchor="middle" x="1516" y="-230.3" font-family="Times,serif" font-size="14.00">varqc_mod</text>
</a>
</g>
</g>
<!-- varqc_mod&#45;&gt;codtyp_mod -->
<g id="edge27" class="edge">
<title>varqc_mod&#45;&gt;codtyp_mod</title>
<path fill="none" stroke="black" d="M1514.59,-207.52C1510.93,-169.81 1497.83,-100.52 1451,-72 1399.64,-40.72 983.68,-24.73 847.78,-20.3"/>
<ellipse fill="black" stroke="black" cx="1514.96" cy="-211.96" rx="4" ry="4"/>
</g>
</g>
</svg>
