<?xml version="1.0" encoding="UTF-8" standalone="no"?>
<!DOCTYPE svg PUBLIC "-//W3C//DTD SVG 1.1//EN"
 "http://www.w3.org/Graphics/SVG/1.1/DTD/svg11.dtd">
<!-- Generated by graphviz version 3.0.0 (20220315.2325)
 -->
<!-- Title: codtyp_mod Pages: 1 -->
<svg width="382pt" height="241pt"
 viewBox="0.00 0.00 382.00 241.00" xmlns="http://www.w3.org/2000/svg" xmlns:xlink="http://www.w3.org/1999/xlink">
<g id="graph0" class="graph" transform="scale(1 1) rotate(0) translate(4 237)">
<title>codtyp_mod</title>
<polygon fill="white" stroke="transparent" points="-4,4 -4,-237 378,-237 378,4 -4,4"/>
<text text-anchor="middle" x="187" y="-37.8" font-family="Times,serif" font-size="14.00">Red boxes indicate modules with dependencies not shown</text>
<text text-anchor="middle" x="187" y="-22.8" font-family="Times,serif" font-size="14.00">Lower level dependencies can be shown by clicking on a red box</text>
<text text-anchor="middle" x="187" y="-7.8" font-family="Times,serif" font-size="14.00">Shaded boxes indicate modules with no dependencies</text>
<!-- codtyp_mod -->
<g id="node1" class="node">
<title>codtyp_mod</title>
<g id="a_node1"><a xlink:href="codtyp_mod.html" xlink:title="codtyp_mod">
<polygon fill="none" stroke="black" points="232.25,-233 147.25,-233 147.25,-197 232.25,-197 232.25,-233"/>
<text text-anchor="middle" x="189.75" y="-211.3" font-family="Times,serif" font-size="14.00">codtyp_mod</text>
</a>
</g>
</g>
<!-- midasmpi_mod -->
<g id="node2" class="node">
<title>midasmpi_mod</title>
<g id="a_node2"><a xlink:href="../modules/midasmpi_mod.svg" xlink:title="midasmpi_mod">
<polygon fill="none" stroke="red" points="201.75,-161 99.75,-161 99.75,-125 201.75,-125 201.75,-161"/>
<text text-anchor="middle" x="150.75" y="-139.3" font-family="Times,serif" font-size="14.00">midasmpi_mod</text>
</a>
</g>
</g>
<!-- codtyp_mod&#45;&gt;midasmpi_mod -->
<g id="edge1" class="edge">
<title>codtyp_mod&#45;&gt;midasmpi_mod</title>
<path fill="none" stroke="black" d="M180.11,-196.7C175.62,-188.64 170.19,-178.89 165.23,-169.98"/>
<polygon fill="black" stroke="black" points="168.2,-168.14 160.28,-161.1 162.09,-171.54 168.2,-168.14"/>
</g>
<!-- utilities_mod -->
<g id="node3" class="node">
<title>utilities_mod</title>
<g id="a_node3"><a xlink:href="../modules/utilities_mod.svg" xlink:title="utilities_mod">
<polygon fill="none" stroke="red" points="274.25,-89 185.25,-89 185.25,-53 274.25,-53 274.25,-89"/>
<text text-anchor="middle" x="229.75" y="-67.3" font-family="Times,serif" font-size="14.00">utilities_mod</text>
</a>
</g>
</g>
<!-- codtyp_mod&#45;&gt;utilities_mod -->
<g id="edge2" class="edge">
<title>codtyp_mod&#45;&gt;utilities_mod</title>
<path fill="none" stroke="black" d="M197.5,-196.59C201.83,-186.38 207.08,-173.13 210.75,-161 216.92,-140.62 221.86,-117.02 225.15,-99.25"/>
<polygon fill="black" stroke="black" points="228.62,-99.74 226.94,-89.28 221.73,-98.5 228.62,-99.74"/>
</g>
</g>
</svg>
