<?xml version="1.0" encoding="UTF-8" standalone="no"?>
<!DOCTYPE svg PUBLIC "-//W3C//DTD SVG 1.1//EN"
 "http://www.w3.org/Graphics/SVG/1.1/DTD/svg11.dtd">
<!-- Generated by graphviz version 3.0.0 (20220315.2325)
 -->
<!-- Title: columnVariableTransforms_mod Pages: 1 -->
<svg width="433pt" height="241pt"
 viewBox="0.00 0.00 433.00 241.00" xmlns="http://www.w3.org/2000/svg" xmlns:xlink="http://www.w3.org/1999/xlink">
<g id="graph0" class="graph" transform="scale(1 1) rotate(0) translate(4 237)">
<title>columnVariableTransforms_mod</title>
<polygon fill="white" stroke="transparent" points="-4,4 -4,-237 429,-237 429,4 -4,4"/>
<text text-anchor="middle" x="212.5" y="-217.8" font-family="Times,serif" font-size="14.00">Blue boxes indicate modules with reverse dependencies not shown</text>
<text text-anchor="middle" x="212.5" y="-202.8" font-family="Times,serif" font-size="14.00">Higher level reverse dependencies can be shown by clicking on a blue box</text>
<text text-anchor="middle" x="212.5" y="-187.8" font-family="Times,serif" font-size="14.00">Green boxes are programs</text>
<!-- columnVariableTransforms_mod -->
<g id="node1" class="node">
<title>columnVariableTransforms_mod</title>
<g id="a_node1"><a xlink:href="columnVariableTransforms_mod.html" xlink:title="columnVariableTransforms_mod">
<polygon fill="none" stroke="black" points="311.5,-36 112.5,-36 112.5,0 311.5,0 311.5,-36"/>
<text text-anchor="middle" x="212" y="-14.3" font-family="Times,serif" font-size="14.00">columnVariableTransforms_mod</text>
</a>
</g>
</g>
<!-- bmatrix1dvar_mod -->
<g id="node2" class="node">
<title>bmatrix1dvar_mod</title>
<g id="a_node2"><a xlink:href="../modules/bmatrix1dvar_mod_rev.svg" xlink:title="bmatrix1dvar_mod">
<polygon fill="none" stroke="blue" points="229,-108 107,-108 107,-72 229,-72 229,-108"/>
<text text-anchor="middle" x="168" y="-86.3" font-family="Times,serif" font-size="14.00">bmatrix1dvar_mod</text>
</a>
</g>
</g>
<!-- bmatrix1dvar_mod&#45;&gt;columnVariableTransforms_mod -->
<g id="edge1" class="edge">
<title>bmatrix1dvar_mod&#45;&gt;columnVariableTransforms_mod</title>
<path fill="none" stroke="black" d="M183.24,-64.76C189.17,-55.32 195.83,-44.72 201.25,-36.1"/>
<ellipse fill="black" stroke="black" cx="181.01" cy="-68.31" rx="4" ry="4"/>
</g>
<!-- minimization_mod -->
<g id="node3" class="node">
<title>minimization_mod</title>
<g id="a_node3"><a xlink:href="../modules/minimization_mod_rev.svg" xlink:title="minimization_mod">
<polygon fill="none" stroke="blue" points="318,-180 196,-180 196,-144 318,-144 318,-180"/>
<text text-anchor="middle" x="257" y="-158.3" font-family="Times,serif" font-size="14.00">minimization_mod</text>
</a>
</g>
</g>
<!-- minimization_mod&#45;&gt;columnVariableTransforms_mod -->
<g id="edge2" class="edge">
<title>minimization_mod&#45;&gt;columnVariableTransforms_mod</title>
<path fill="none" stroke="black" d="M253.29,-135.65C250.24,-117.59 245.24,-92.91 238,-72 233.71,-59.6 227.21,-46.35 221.78,-36.2"/>
<ellipse fill="black" stroke="black" cx="254" cy="-139.98" rx="4" ry="4"/>
</g>
</g>
</svg>
