<?xml version="1.0" encoding="UTF-8" standalone="no"?>
<!DOCTYPE svg PUBLIC "-//W3C//DTD SVG 1.1//EN"
 "http://www.w3.org/Graphics/SVG/1.1/DTD/svg11.dtd">
<!-- Generated by graphviz version 3.0.0 (20220315.2325)
 -->
<!-- Title: columnData_mod Pages: 1 -->
<svg width="2035pt" height="673pt"
 viewBox="0.00 0.00 2035.00 673.00" xmlns="http://www.w3.org/2000/svg" xmlns:xlink="http://www.w3.org/1999/xlink">
<g id="graph0" class="graph" transform="scale(1 1) rotate(0) translate(4 669)">
<title>columnData_mod</title>
<polygon fill="white" stroke="transparent" points="-4,4 -4,-669 2031,-669 2031,4 -4,4"/>
<text text-anchor="middle" x="1013.5" y="-649.8" font-family="Times,serif" font-size="14.00">Blue boxes indicate modules with reverse dependencies not shown</text>
<text text-anchor="middle" x="1013.5" y="-634.8" font-family="Times,serif" font-size="14.00">Higher level reverse dependencies can be shown by clicking on a blue box</text>
<text text-anchor="middle" x="1013.5" y="-619.8" font-family="Times,serif" font-size="14.00">Green boxes are programs</text>
<!-- columnData_mod -->
<g id="node1" class="node">
<title>columnData_mod</title>
<g id="a_node1"><a xlink:href="columnData_mod.html" xlink:title="columnData_mod">
<polygon fill="none" stroke="black" points="1038,-36 923,-36 923,0 1038,0 1038,-36"/>
<text text-anchor="middle" x="980.5" y="-14.3" font-family="Times,serif" font-size="14.00">columnData_mod</text>
</a>
</g>
</g>
<!-- analysiserroroi_mod -->
<g id="node2" class="node">
<title>analysiserroroi_mod</title>
<g id="a_node2"><a xlink:href="../modules/analysiserroroi_mod_rev.svg" xlink:title="analysiserroroi_mod">
<polygon fill="none" stroke="blue" points="129,-108 0,-108 0,-72 129,-72 129,-108"/>
<text text-anchor="middle" x="64.5" y="-86.3" font-family="Times,serif" font-size="14.00">analysiserroroi_mod</text>
</a>
</g>
</g>
<!-- analysiserroroi_mod&#45;&gt;columnData_mod -->
<g id="edge1" class="edge">
<title>analysiserroroi_mod&#45;&gt;columnData_mod</title>
<path fill="none" stroke="black" d="M137.23,-72.93C139.34,-72.6 141.43,-72.29 143.5,-72 434.48,-31.71 786.67,-22.01 922.87,-19.7"/>
<ellipse fill="black" stroke="black" cx="132.98" cy="-73.64" rx="4" ry="4"/>
</g>
<!-- backgroundcheck_mod -->
<g id="node3" class="node">
<title>backgroundcheck_mod</title>
<g id="a_node3"><a xlink:href="../modules/backgroundcheck_mod_rev.svg" xlink:title="backgroundcheck_mod">
<polygon fill="none" stroke="blue" points="198.5,-180 54.5,-180 54.5,-144 198.5,-144 198.5,-180"/>
<text text-anchor="middle" x="126.5" y="-158.3" font-family="Times,serif" font-size="14.00">backgroundcheck_mod</text>
</a>
</g>
</g>
<!-- backgroundcheck_mod&#45;&gt;columnData_mod -->
<g id="edge2" class="edge">
<title>backgroundcheck_mod&#45;&gt;columnData_mod</title>
<path fill="none" stroke="black" d="M141.87,-137.11C157.01,-115.88 182.22,-86.1 212.5,-72 276.34,-42.28 755.56,-25.57 922.98,-20.6"/>
<ellipse fill="black" stroke="black" cx="139.41" cy="-140.66" rx="4" ry="4"/>
</g>
<!-- bgckocean_mod -->
<g id="node4" class="node">
<title>bgckocean_mod</title>
<g id="a_node4"><a xlink:href="../modules/bgckocean_mod_rev.svg" xlink:title="bgckocean_mod">
<polygon fill="none" stroke="blue" points="236.5,-252 130.5,-252 130.5,-216 236.5,-216 236.5,-252"/>
<text text-anchor="middle" x="183.5" y="-230.3" font-family="Times,serif" font-size="14.00">bgckocean_mod</text>
</a>
</g>
</g>
<!-- bgckocean_mod&#45;&gt;columnData_mod -->
<g id="edge3" class="edge">
<title>bgckocean_mod&#45;&gt;columnData_mod</title>
<path fill="none" stroke="black" d="M194.91,-208.44C198.97,-199.53 203.53,-189.35 207.5,-180 227.72,-132.46 208.82,-102.53 250.5,-72 304.25,-32.63 759.98,-22.19 922.89,-19.71"/>
<ellipse fill="black" stroke="black" cx="193.15" cy="-212.27" rx="4" ry="4"/>
</g>
<!-- biascorrectionsat_mod -->
<g id="node5" class="node">
<title>biascorrectionsat_mod</title>
<g id="a_node5"><a xlink:href="../modules/biascorrectionsat_mod_rev.svg" xlink:title="biascorrectionsat_mod">
<polygon fill="none" stroke="blue" points="274.5,-324 134.5,-324 134.5,-288 274.5,-288 274.5,-324"/>
<text text-anchor="middle" x="204.5" y="-302.3" font-family="Times,serif" font-size="14.00">biascorrectionsat_mod</text>
</a>
</g>
</g>
<!-- biascorrectionsat_mod&#45;&gt;columnData_mod -->
<g id="edge4" class="edge">
<title>biascorrectionsat_mod&#45;&gt;columnData_mod</title>
<path fill="none" stroke="black" d="M226.28,-281.32C233.3,-272.63 240.54,-262.37 245.5,-252 281.01,-177.81 225.93,-125.39 288.5,-72 336.28,-31.23 765.26,-21.72 922.8,-19.59"/>
<ellipse fill="black" stroke="black" cx="223.56" cy="-284.57" rx="4" ry="4"/>
</g>
<!-- bmatrix1dvar_mod -->
<g id="node6" class="node">
<title>bmatrix1dvar_mod</title>
<g id="a_node6"><a xlink:href="../modules/bmatrix1dvar_mod_rev.svg" xlink:title="bmatrix1dvar_mod">
<polygon fill="none" stroke="blue" points="312.5,-396 190.5,-396 190.5,-360 312.5,-360 312.5,-396"/>
<text text-anchor="middle" x="251.5" y="-374.3" font-family="Times,serif" font-size="14.00">bmatrix1dvar_mod</text>
</a>
</g>
</g>
<!-- bmatrix1dvar_mod&#45;&gt;columnData_mod -->
<g id="edge5" class="edge">
<title>bmatrix1dvar_mod&#45;&gt;columnData_mod</title>
<path fill="none" stroke="black" d="M268.52,-352.66C273.98,-343.95 279.61,-333.84 283.5,-324 298.38,-286.39 302.5,-275.45 302.5,-235 302.5,-235 302.5,-235 302.5,-161 302.5,-120.03 295.01,-98.21 326.5,-72 371.81,-34.29 771.45,-22.91 922.77,-19.94"/>
<ellipse fill="black" stroke="black" cx="266.19" cy="-356.26" rx="4" ry="4"/>
</g>
<!-- calcheightandpressure_mod -->
<g id="node7" class="node">
<title>calcheightandpressure_mod</title>
<g id="a_node7"><a xlink:href="../modules/calcheightandpressure_mod_rev.svg" xlink:title="calcheightandpressure_mod">
<polygon fill="none" stroke="blue" points="350.5,-468 182.5,-468 182.5,-432 350.5,-432 350.5,-468"/>
<text text-anchor="middle" x="266.5" y="-446.3" font-family="Times,serif" font-size="14.00">calcheightandpressure_mod</text>
</a>
</g>
</g>
<!-- calcheightandpressure_mod&#45;&gt;columnData_mod -->
<g id="edge6" class="edge">
<title>calcheightandpressure_mod&#45;&gt;columnData_mod</title>
<path fill="none" stroke="black" d="M296.15,-426.45C305.56,-417.88 315.16,-407.41 321.5,-396 341.14,-360.64 340.5,-347.45 340.5,-307 340.5,-307 340.5,-307 340.5,-161 340.5,-120.03 333.08,-98.29 364.5,-72 406.8,-36.62 778.13,-23.89 922.98,-20.24"/>
<ellipse fill="black" stroke="black" cx="293.04" cy="-429.17" rx="4" ry="4"/>
</g>
<!-- columnvariabletransforms_mod -->
<g id="node8" class="node">
<title>columnvariabletransforms_mod</title>
<g id="a_node8"><a xlink:href="../modules/columnvariabletransforms_mod_rev.svg" xlink:title="columnvariabletransforms_mod">
<polygon fill="none" stroke="blue" points="388,-540 195,-540 195,-504 388,-504 388,-540"/>
<text text-anchor="middle" x="291.5" y="-518.3" font-family="Times,serif" font-size="14.00">columnvariabletransforms_mod</text>
</a>
</g>
</g>
<!-- columnvariabletransforms_mod&#45;&gt;columnData_mod -->
<g id="edge7" class="edge">
<title>columnvariabletransforms_mod&#45;&gt;columnData_mod</title>
<path fill="none" stroke="black" d="M328.7,-499.29C340.17,-490.89 351.8,-480.3 359.5,-468 380.97,-433.72 378.5,-419.45 378.5,-379 378.5,-379 378.5,-379 378.5,-161 378.5,-120.03 371.15,-98.37 402.5,-72 441.75,-38.98 784.25,-24.96 922.75,-20.6"/>
<ellipse fill="black" stroke="black" cx="325.28" cy="-501.69" rx="4" ry="4"/>
</g>
<!-- ensembleobservations_mod -->
<g id="node9" class="node">
<title>ensembleobservations_mod</title>
<g id="a_node9"><a xlink:href="../modules/ensembleobservations_mod_rev.svg" xlink:title="ensembleobservations_mod">
<polygon fill="none" stroke="blue" points="501,-612 332,-612 332,-576 501,-576 501,-612"/>
<text text-anchor="middle" x="416.5" y="-590.3" font-family="Times,serif" font-size="14.00">ensembleobservations_mod</text>
</a>
</g>
</g>
<!-- ensembleobservations_mod&#45;&gt;columnData_mod -->
<g id="edge8" class="edge">
<title>ensembleobservations_mod&#45;&gt;columnData_mod</title>
<path fill="none" stroke="black" d="M416.5,-567.78C416.5,-539.39 416.5,-491.89 416.5,-451 416.5,-451 416.5,-451 416.5,-161 416.5,-120.55 405.33,-98.93 435.5,-72 471.32,-40.03 789.94,-25.51 922.76,-20.81"/>
<ellipse fill="black" stroke="black" cx="416.5" cy="-571.95" rx="4" ry="4"/>
</g>
<!-- fsoi_mod -->
<g id="node10" class="node">
<title>fsoi_mod</title>
<g id="a_node10"><a xlink:href="../modules/fsoi_mod_rev.svg" xlink:title="fsoi_mod">
<polygon fill="none" stroke="blue" points="512.5,-108 444.5,-108 444.5,-72 512.5,-72 512.5,-108"/>
<text text-anchor="middle" x="478.5" y="-86.3" font-family="Times,serif" font-size="14.00">fsoi_mod</text>
</a>
</g>
</g>
<!-- fsoi_mod&#45;&gt;columnData_mod -->
<g id="edge9" class="edge">
<title>fsoi_mod&#45;&gt;columnData_mod</title>
<path fill="none" stroke="black" d="M520.44,-73.54C522.47,-72.98 524.5,-72.46 526.5,-72 666.6,-39.45 835.89,-26.42 922.82,-21.59"/>
<ellipse fill="black" stroke="black" cx="516.4" cy="-74.74" rx="4" ry="4"/>
</g>
<!-- innovation_mod -->
<g id="node11" class="node">
<title>innovation_mod</title>
<g id="a_node11"><a xlink:href="../modules/innovation_mod_rev.svg" xlink:title="innovation_mod">
<polygon fill="none" stroke="blue" points="550.5,-180 444.5,-180 444.5,-144 550.5,-144 550.5,-180"/>
<text text-anchor="middle" x="497.5" y="-158.3" font-family="Times,serif" font-size="14.00">innovation_mod</text>
</a>
</g>
</g>
<!-- innovation_mod&#45;&gt;columnData_mod -->
<g id="edge10" class="edge">
<title>innovation_mod&#45;&gt;columnData_mod</title>
<path fill="none" stroke="black" d="M508.84,-136.66C519.93,-115.82 538.88,-86.88 564.5,-72 624.15,-37.36 823.44,-24.96 922.95,-20.86"/>
<ellipse fill="black" stroke="black" cx="506.94" cy="-140.38" rx="4" ry="4"/>
</g>
<!-- interpolation_mod -->
<g id="node12" class="node">
<title>interpolation_mod</title>
<g id="a_node12"><a xlink:href="../modules/interpolation_mod_rev.svg" xlink:title="interpolation_mod">
<polygon fill="none" stroke="blue" points="588.5,-252 470.5,-252 470.5,-216 588.5,-216 588.5,-252"/>
<text text-anchor="middle" x="529.5" y="-230.3" font-family="Times,serif" font-size="14.00">interpolation_mod</text>
</a>
</g>
</g>
<!-- interpolation_mod&#45;&gt;columnData_mod -->
<g id="edge11" class="edge">
<title>interpolation_mod&#45;&gt;columnData_mod</title>
<path fill="none" stroke="black" d="M544.25,-208.56C549.35,-199.71 554.93,-189.53 559.5,-180 581.83,-133.41 561.86,-103.9 602.5,-72 651.1,-33.84 829.51,-23.15 922.79,-20.16"/>
<ellipse fill="black" stroke="black" cx="542.13" cy="-212.2" rx="4" ry="4"/>
</g>
<!-- minimization_mod -->
<g id="node13" class="node">
<title>minimization_mod</title>
<g id="a_node13"><a xlink:href="../modules/minimization_mod_rev.svg" xlink:title="minimization_mod">
<polygon fill="none" stroke="blue" points="626.5,-324 504.5,-324 504.5,-288 626.5,-288 626.5,-324"/>
<text text-anchor="middle" x="565.5" y="-302.3" font-family="Times,serif" font-size="14.00">minimization_mod</text>
</a>
</g>
</g>
<!-- minimization_mod&#45;&gt;columnData_mod -->
<g id="edge12" class="edge">
<title>minimization_mod&#45;&gt;columnData_mod</title>
<path fill="none" stroke="black" d="M582.39,-280.61C587.83,-271.89 593.49,-261.79 597.5,-252 628.68,-175.89 580.06,-127.79 640.5,-72 680.61,-34.97 836.72,-23.8 922.77,-20.44"/>
<ellipse fill="black" stroke="black" cx="580.07" cy="-284.21" rx="4" ry="4"/>
</g>
<!-- multiirbgck_mod -->
<g id="node14" class="node">
<title>multiirbgck_mod</title>
<g id="a_node14"><a xlink:href="../modules/multiirbgck_mod_rev.svg" xlink:title="multiirbgck_mod">
<polygon fill="none" stroke="blue" points="664.5,-396 552.5,-396 552.5,-360 664.5,-360 664.5,-396"/>
<text text-anchor="middle" x="608.5" y="-374.3" font-family="Times,serif" font-size="14.00">multiirbgck_mod</text>
</a>
</g>
</g>
<!-- multiirbgck_mod&#45;&gt;columnData_mod -->
<g id="edge13" class="edge">
<title>multiirbgck_mod&#45;&gt;columnData_mod</title>
<path fill="none" stroke="black" d="M622.51,-352.79C627.17,-343.95 632.05,-333.73 635.5,-324 649.02,-285.88 654.5,-275.45 654.5,-235 654.5,-235 654.5,-235 654.5,-161 654.5,-120.03 648.26,-99.64 678.5,-72 713.42,-40.08 845.44,-26.93 922.89,-21.88"/>
<ellipse fill="black" stroke="black" cx="620.59" cy="-356.33" rx="4" ry="4"/>
</g>
<!-- obserrors_mod -->
<g id="node15" class="node">
<title>obserrors_mod</title>
<g id="a_node15"><a xlink:href="../modules/obserrors_mod_rev.svg" xlink:title="obserrors_mod">
<polygon fill="none" stroke="blue" points="702,-468 603,-468 603,-432 702,-432 702,-468"/>
<text text-anchor="middle" x="652.5" y="-446.3" font-family="Times,serif" font-size="14.00">obserrors_mod</text>
</a>
</g>
</g>
<!-- obserrors_mod&#45;&gt;columnData_mod -->
<g id="edge14" class="edge">
<title>obserrors_mod&#45;&gt;columnData_mod</title>
<path fill="none" stroke="black" d="M663.93,-424.28C675.75,-396.4 692.5,-349.43 692.5,-307 692.5,-307 692.5,-307 692.5,-161 692.5,-120.03 686.6,-100.01 716.5,-72 745.76,-44.59 854.29,-30.12 922.76,-23.55"/>
<ellipse fill="black" stroke="black" cx="662.19" cy="-428.28" rx="4" ry="4"/>
</g>
<!-- obsfilter_mod -->
<g id="node16" class="node">
<title>obsfilter_mod</title>
<g id="a_node16"><a xlink:href="../modules/obsfilter_mod_rev.svg" xlink:title="obsfilter_mod">
<polygon fill="none" stroke="blue" points="740.5,-540 648.5,-540 648.5,-504 740.5,-504 740.5,-540"/>
<text text-anchor="middle" x="694.5" y="-518.3" font-family="Times,serif" font-size="14.00">obsfilter_mod</text>
</a>
</g>
</g>
<!-- obsfilter_mod&#45;&gt;columnData_mod -->
<g id="edge15" class="edge">
<title>obsfilter_mod&#45;&gt;columnData_mod</title>
<path fill="none" stroke="black" d="M704.79,-496.16C715.43,-468.19 730.5,-421.13 730.5,-379 730.5,-379 730.5,-379 730.5,-161 730.5,-120.03 725.06,-100.49 754.5,-72 778.21,-49.06 864.06,-33.78 922.85,-25.75"/>
<ellipse fill="black" stroke="black" cx="703.24" cy="-500.14" rx="4" ry="4"/>
</g>
<!-- obsoperatorschem_mod -->
<g id="node17" class="node">
<title>obsoperatorschem_mod</title>
<g id="a_node17"><a xlink:href="../modules/obsoperatorschem_mod_rev.svg" xlink:title="obsoperatorschem_mod">
<polygon fill="none" stroke="blue" points="842,-612 695,-612 695,-576 842,-576 842,-612"/>
<text text-anchor="middle" x="768.5" y="-590.3" font-family="Times,serif" font-size="14.00">obsoperatorschem_mod</text>
</a>
</g>
</g>
<!-- obsoperatorschem_mod&#45;&gt;columnData_mod -->
<g id="edge16" class="edge">
<title>obsoperatorschem_mod&#45;&gt;columnData_mod</title>
<path fill="none" stroke="black" d="M768.5,-567.78C768.5,-539.39 768.5,-491.89 768.5,-451 768.5,-451 768.5,-451 768.5,-161 768.5,-120.55 759.74,-101.41 787.5,-72 822.08,-35.36 879.41,-23.22 922.62,-19.59"/>
<ellipse fill="black" stroke="black" cx="768.5" cy="-571.95" rx="4" ry="4"/>
</g>
<!-- obsoperators_mod -->
<g id="node18" class="node">
<title>obsoperators_mod</title>
<g id="a_node18"><a xlink:href="../modules/obsoperators_mod_rev.svg" xlink:title="obsoperators_mod">
<polygon fill="none" stroke="blue" points="914,-108 797,-108 797,-72 914,-72 914,-108"/>
<text text-anchor="middle" x="855.5" y="-86.3" font-family="Times,serif" font-size="14.00">obsoperators_mod</text>
</a>
</g>
</g>
<!-- obsoperators_mod&#45;&gt;columnData_mod -->
<g id="edge17" class="edge">
<title>obsoperators_mod&#45;&gt;columnData_mod</title>
<path fill="none" stroke="black" d="M893.1,-67.94C911.22,-57.8 932.68,-45.78 949.8,-36.19"/>
<ellipse fill="black" stroke="black" cx="889.57" cy="-69.92" rx="4" ry="4"/>
</g>
<!-- obsspacediag_mod -->
<g id="node19" class="node">
<title>obsspacediag_mod</title>
<g id="a_node19"><a xlink:href="../modules/obsspacediag_mod_rev.svg" xlink:title="obsspacediag_mod">
<polygon fill="none" stroke="blue" points="952.5,-180 832.5,-180 832.5,-144 952.5,-144 952.5,-180"/>
<text text-anchor="middle" x="892.5" y="-158.3" font-family="Times,serif" font-size="14.00">obsspacediag_mod</text>
</a>
</g>
</g>
<!-- obsspacediag_mod&#45;&gt;columnData_mod -->
<g id="edge18" class="edge">
<title>obsspacediag_mod&#45;&gt;columnData_mod</title>
<path fill="none" stroke="black" d="M907.36,-137.03C925.07,-108.45 954.23,-61.39 969.85,-36.19"/>
<ellipse fill="black" stroke="black" cx="905.22" cy="-140.47" rx="4" ry="4"/>
</g>
<!-- obsspaceerrorstddev_mod -->
<g id="node20" class="node">
<title>obsspaceerrorstddev_mod</title>
<g id="a_node20"><a xlink:href="../modules/obsspaceerrorstddev_mod_rev.svg" xlink:title="obsspaceerrorstddev_mod">
<polygon fill="none" stroke="blue" points="991,-252 832,-252 832,-216 991,-216 991,-252"/>
<text text-anchor="middle" x="911.5" y="-230.3" font-family="Times,serif" font-size="14.00">obsspaceerrorstddev_mod</text>
</a>
</g>
</g>
<!-- obsspaceerrorstddev_mod&#45;&gt;columnData_mod -->
<g id="edge19" class="edge">
<title>obsspaceerrorstddev_mod&#45;&gt;columnData_mod</title>
<path fill="none" stroke="black" d="M939.05,-210.27C947.64,-201.7 956.24,-191.27 961.5,-180 984.01,-131.8 983.64,-67.02 981.9,-36.41"/>
<ellipse fill="black" stroke="black" cx="936.04" cy="-213.14" rx="4" ry="4"/>
</g>
<!-- ominusf_mod -->
<g id="node21" class="node">
<title>ominusf_mod</title>
<g id="a_node21"><a xlink:href="../modules/ominusf_mod_rev.svg" xlink:title="ominusf_mod">
<polygon fill="none" stroke="blue" points="1028,-324 935,-324 935,-288 1028,-288 1028,-324"/>
<text text-anchor="middle" x="981.5" y="-302.3" font-family="Times,serif" font-size="14.00">ominusf_mod</text>
</a>
</g>
</g>
<!-- ominusf_mod&#45;&gt;columnData_mod -->
<g id="edge20" class="edge">
<title>ominusf_mod&#45;&gt;columnData_mod</title>
<path fill="none" stroke="black" d="M991.83,-280.09C994.95,-271.36 997.95,-261.4 999.5,-252 1005.02,-218.59 1011.8,-178.59 995.5,-72 993.65,-59.9 989.9,-46.65 986.61,-36.43"/>
<ellipse fill="black" stroke="black" cx="990.38" cy="-283.96" rx="4" ry="4"/>
</g>
<!-- sstbias_mod -->
<g id="node22" class="node">
<title>sstbias_mod</title>
<g id="a_node22"><a xlink:href="../modules/sstbias_mod_rev.svg" xlink:title="sstbias_mod">
<polygon fill="none" stroke="blue" points="1066.5,-396 982.5,-396 982.5,-360 1066.5,-360 1066.5,-396"/>
<text text-anchor="middle" x="1024.5" y="-374.3" font-family="Times,serif" font-size="14.00">sstbias_mod</text>
</a>
</g>
</g>
<!-- sstbias_mod&#45;&gt;columnData_mod -->
<g id="edge21" class="edge">
<title>sstbias_mod&#45;&gt;columnData_mod</title>
<path fill="none" stroke="black" d="M1033.64,-352.06C1043.1,-324 1056.5,-276.86 1056.5,-235 1056.5,-235 1056.5,-235 1056.5,-161 1056.5,-110.95 1019.34,-61.47 996.99,-36.23"/>
<ellipse fill="black" stroke="black" cx="1032.28" cy="-356.01" rx="4" ry="4"/>
</g>
<!-- statetocolumn_mod -->
<g id="node23" class="node">
<title>statetocolumn_mod</title>
<g id="a_node23"><a xlink:href="../modules/statetocolumn_mod_rev.svg" xlink:title="statetocolumn_mod">
<polygon fill="none" stroke="blue" points="1104,-468 979,-468 979,-432 1104,-432 1104,-468"/>
<text text-anchor="middle" x="1041.5" y="-446.3" font-family="Times,serif" font-size="14.00">statetocolumn_mod</text>
</a>
</g>
</g>
<!-- statetocolumn_mod&#45;&gt;columnData_mod -->
<g id="edge22" class="edge">
<title>statetocolumn_mod&#45;&gt;columnData_mod</title>
<path fill="none" stroke="black" d="M1059.46,-425.05C1065.31,-416.29 1071.36,-406.05 1075.5,-396 1090.89,-358.6 1094.5,-347.45 1094.5,-307 1094.5,-307 1094.5,-307 1094.5,-161 1094.5,-105.67 1041.23,-59.63 1007.52,-36.04"/>
<ellipse fill="black" stroke="black" cx="1057.12" cy="-428.44" rx="4" ry="4"/>
</g>
<!-- tovslin_mod -->
<g id="node24" class="node">
<title>tovslin_mod</title>
<g id="a_node24"><a xlink:href="../modules/tovslin_mod_rev.svg" xlink:title="tovslin_mod">
<polygon fill="none" stroke="blue" points="1142,-540 1057,-540 1057,-504 1142,-504 1142,-540"/>
<text text-anchor="middle" x="1099.5" y="-518.3" font-family="Times,serif" font-size="14.00">tovslin_mod</text>
</a>
</g>
</g>
<!-- tovslin_mod&#45;&gt;columnData_mod -->
<g id="edge23" class="edge">
<title>tovslin_mod&#45;&gt;columnData_mod</title>
<path fill="none" stroke="black" d="M1108.93,-496.09C1118.68,-468.05 1132.5,-420.93 1132.5,-379 1132.5,-379 1132.5,-379 1132.5,-161 1132.5,-100.15 1066.65,-57.88 1021.63,-36.1"/>
<ellipse fill="black" stroke="black" cx="1107.52" cy="-500.04" rx="4" ry="4"/>
</g>
<!-- tovsnl_mod -->
<g id="node25" class="node">
<title>tovsnl_mod</title>
<g id="a_node25"><a xlink:href="../modules/tovsnl_mod_rev.svg" xlink:title="tovsnl_mod">
<polygon fill="none" stroke="blue" points="1211,-612 1130,-612 1130,-576 1211,-576 1211,-612"/>
<text text-anchor="middle" x="1170.5" y="-590.3" font-family="Times,serif" font-size="14.00">tovsnl_mod</text>
</a>
</g>
</g>
<!-- tovsnl_mod&#45;&gt;columnData_mod -->
<g id="edge24" class="edge">
<title>tovsnl_mod&#45;&gt;columnData_mod</title>
<path fill="none" stroke="black" d="M1170.5,-567.78C1170.5,-539.39 1170.5,-491.89 1170.5,-451 1170.5,-451 1170.5,-451 1170.5,-161 1170.5,-94.08 1093.94,-54.9 1038.02,-35.21"/>
<ellipse fill="black" stroke="black" cx="1170.5" cy="-571.95" rx="4" ry="4"/>
</g>
<!-- var1d_mod -->
<g id="node26" class="node">
<title>var1d_mod</title>
<g id="a_node26"><a xlink:href="../modules/var1d_mod_rev.svg" xlink:title="var1d_mod">
<polygon fill="none" stroke="blue" points="1278,-108 1199,-108 1199,-72 1278,-72 1278,-108"/>
<text text-anchor="middle" x="1238.5" y="-86.3" font-family="Times,serif" font-size="14.00">var1d_mod</text>
</a>
</g>
</g>
<!-- var1d_mod&#45;&gt;columnData_mod -->
<g id="edge25" class="edge">
<title>var1d_mod&#45;&gt;columnData_mod</title>
<path fill="none" stroke="black" d="M1190.67,-73.8C1188.59,-73.18 1186.53,-72.58 1184.5,-72 1135.44,-57.91 1079.27,-43.44 1038.31,-33.19"/>
<ellipse fill="black" stroke="black" cx="1194.93" cy="-75.08" rx="4" ry="4"/>
</g>
<!-- varqc_mod -->
<g id="node27" class="node">
<title>varqc_mod</title>
<g id="a_node27"><a xlink:href="../modules/varqc_mod_rev.svg" xlink:title="varqc_mod">
<polygon fill="none" stroke="blue" points="1316.5,-180 1238.5,-180 1238.5,-144 1316.5,-144 1316.5,-180"/>
<text text-anchor="middle" x="1277.5" y="-158.3" font-family="Times,serif" font-size="14.00">varqc_mod</text>
</a>
</g>
</g>
<!-- varqc_mod&#45;&gt;columnData_mod -->
<g id="edge26" class="edge">
<title>varqc_mod&#45;&gt;columnData_mod</title>
<path fill="none" stroke="black" d="M1288.91,-136.1C1296,-116.46 1301.27,-89.54 1286.5,-72 1255.38,-35.03 1117.82,-23.85 1038.13,-20.47"/>
<ellipse fill="black" stroke="black" cx="1287.37" cy="-140.03" rx="4" ry="4"/>
</g>
<!-- midas_midas_analysiserroroi -->
<g id="node28" class="node">
<title>midas_midas_analysiserroroi</title>
<g id="a_node28"><a xlink:href="../programs/midas_analysiserroroi.html" xlink:title="midas_midas_analysiserroroi">
<polygon fill="gray" stroke="green" points="1375,-252 1198,-252 1198,-216 1375,-216 1375,-252"/>
<text text-anchor="middle" x="1286.5" y="-230.3" font-family="Times,serif" font-size="14.00">midas_midas_analysiserroroi</text>
</a>
</g>
</g>
<!-- midas_midas_analysiserroroi&#45;&gt;columnData_mod -->
<g id="edge27" class="edge">
<title>midas_midas_analysiserroroi&#45;&gt;columnData_mod</title>
<path fill="none" stroke="black" d="M1308.57,-209.72C1315.37,-201.07 1321.98,-190.73 1325.5,-180 1340.73,-133.62 1341.85,-104.58 1305.5,-72 1267.03,-37.52 1120.86,-25.31 1038.26,-21.11"/>
<ellipse fill="black" stroke="black" cx="1305.94" cy="-212.91" rx="4" ry="4"/>
</g>
<!-- midas_midas_diaghbht -->
<g id="node29" class="node">
<title>midas_midas_diaghbht</title>
<g id="a_node29"><a xlink:href="../programs/midas_diaghbht.html" xlink:title="midas_midas_diaghbht">
<polygon fill="gray" stroke="green" points="1412,-324 1269,-324 1269,-288 1412,-288 1412,-324"/>
<text text-anchor="middle" x="1340.5" y="-302.3" font-family="Times,serif" font-size="14.00">midas_midas_diaghbht</text>
</a>
</g>
</g>
<!-- midas_midas_diaghbht&#45;&gt;columnData_mod -->
<g id="edge28" class="edge">
<title>midas_midas_diaghbht&#45;&gt;columnData_mod</title>
<path fill="none" stroke="black" d="M1364.95,-281.91C1372.38,-273.31 1379.61,-262.96 1383.5,-252 1405.67,-189.47 1355.48,-90.24 1333.5,-72 1289.63,-35.58 1126.46,-24.14 1038.15,-20.58"/>
<ellipse fill="black" stroke="black" cx="1362.23" cy="-284.88" rx="4" ry="4"/>
</g>
<!-- midas_midas_ensembleh -->
<g id="node30" class="node">
<title>midas_midas_ensembleh</title>
<g id="a_node30"><a xlink:href="../programs/midas_ensembleh.html" xlink:title="midas_midas_ensembleh">
<polygon fill="gray" stroke="green" points="1450,-396 1295,-396 1295,-360 1450,-360 1450,-396"/>
<text text-anchor="middle" x="1372.5" y="-374.3" font-family="Times,serif" font-size="14.00">midas_midas_ensembleh</text>
</a>
</g>
</g>
<!-- midas_midas_ensembleh&#45;&gt;columnData_mod -->
<g id="edge29" class="edge">
<title>midas_midas_ensembleh&#45;&gt;columnData_mod</title>
<path fill="none" stroke="black" d="M1398.1,-353.99C1406.36,-345.33 1414.83,-334.92 1420.5,-324 1439.17,-288.01 1440.5,-275.54 1440.5,-235 1440.5,-235 1440.5,-235 1440.5,-161 1440.5,-107.81 1407.46,-96.96 1360.5,-72 1305.87,-42.96 1130.46,-28.16 1038.3,-22.22"/>
<ellipse fill="black" stroke="black" cx="1395.27" cy="-356.85" rx="4" ry="4"/>
</g>
<!-- midas_midas_gencoeff -->
<g id="node31" class="node">
<title>midas_midas_gencoeff</title>
<g id="a_node31"><a xlink:href="../programs/midas_gencoeff.html" xlink:title="midas_midas_gencoeff">
<polygon fill="gray" stroke="green" points="1488,-468 1345,-468 1345,-432 1488,-432 1488,-468"/>
<text text-anchor="middle" x="1416.5" y="-446.3" font-family="Times,serif" font-size="14.00">midas_midas_gencoeff</text>
</a>
</g>
</g>
<!-- midas_midas_gencoeff&#45;&gt;columnData_mod -->
<g id="edge30" class="edge">
<title>midas_midas_gencoeff&#45;&gt;columnData_mod</title>
<path fill="none" stroke="black" d="M1438.9,-425.43C1446.1,-416.75 1453.5,-406.47 1458.5,-396 1475.97,-359.42 1478.5,-347.54 1478.5,-307 1478.5,-307 1478.5,-307 1478.5,-161 1478.5,-109.56 1449.63,-96.7 1404.5,-72 1342.68,-38.17 1139.07,-25.36 1038.19,-21.01"/>
<ellipse fill="black" stroke="black" cx="1436.09" cy="-428.7" rx="4" ry="4"/>
</g>
<!-- midas_midas_letkf -->
<g id="node32" class="node">
<title>midas_midas_letkf</title>
<g id="a_node32"><a xlink:href="../programs/midas_letkf.html" xlink:title="midas_midas_letkf">
<polygon fill="gray" stroke="green" points="1526.5,-540 1404.5,-540 1404.5,-504 1526.5,-504 1526.5,-540"/>
<text text-anchor="middle" x="1465.5" y="-518.3" font-family="Times,serif" font-size="14.00">midas_midas_letkf</text>
</a>
</g>
</g>
<!-- midas_midas_letkf&#45;&gt;columnData_mod -->
<g id="edge31" class="edge">
<title>midas_midas_letkf&#45;&gt;columnData_mod</title>
<path fill="none" stroke="black" d="M1481.9,-496.58C1487.18,-487.85 1492.66,-477.76 1496.5,-468 1511.35,-430.28 1516.5,-419.54 1516.5,-379 1516.5,-379 1516.5,-379 1516.5,-161 1516.5,-110.4 1489.77,-96.5 1445.5,-72 1376.81,-33.99 1146.85,-23.16 1038.24,-20.14"/>
<ellipse fill="black" stroke="black" cx="1479.67" cy="-500.15" rx="4" ry="4"/>
</g>
<!-- midas_midas_obsimpact -->
<g id="node33" class="node">
<title>midas_midas_obsimpact</title>
<g id="a_node33"><a xlink:href="../programs/midas_obsimpact.html" xlink:title="midas_midas_obsimpact">
<polygon fill="gray" stroke="green" points="1630.5,-612 1478.5,-612 1478.5,-576 1630.5,-576 1630.5,-612"/>
<text text-anchor="middle" x="1554.5" y="-590.3" font-family="Times,serif" font-size="14.00">midas_midas_obsimpact</text>
</a>
</g>
</g>
<!-- midas_midas_obsimpact&#45;&gt;columnData_mod -->
<g id="edge32" class="edge">
<title>midas_midas_obsimpact&#45;&gt;columnData_mod</title>
<path fill="none" stroke="black" d="M1554.5,-567.78C1554.5,-539.39 1554.5,-491.89 1554.5,-451 1554.5,-451 1554.5,-451 1554.5,-161 1554.5,-111.22 1529.91,-96.36 1486.5,-72 1411.01,-29.64 1154.51,-21.08 1038.42,-19.39"/>
<ellipse fill="black" stroke="black" cx="1554.5" cy="-571.95" rx="4" ry="4"/>
</g>
<!-- midas_midas_obsselection -->
<g id="node34" class="node">
<title>midas_midas_obsselection</title>
<g id="a_node34"><a xlink:href="../programs/midas_obsselection.html" xlink:title="midas_midas_obsselection">
<polygon fill="gray" stroke="green" points="1746,-108 1583,-108 1583,-72 1746,-72 1746,-108"/>
<text text-anchor="middle" x="1664.5" y="-86.3" font-family="Times,serif" font-size="14.00">midas_midas_obsselection</text>
</a>
</g>
</g>
<!-- midas_midas_obsselection&#45;&gt;columnData_mod -->
<g id="edge33" class="edge">
<title>midas_midas_obsselection&#45;&gt;columnData_mod</title>
<path fill="none" stroke="black" d="M1574.73,-72.86C1572.63,-72.56 1570.56,-72.27 1568.5,-72 1374.96,-46.19 1143.86,-29.44 1038.27,-22.56"/>
<ellipse fill="black" stroke="black" cx="1578.92" cy="-73.47" rx="4" ry="4"/>
</g>
<!-- midas_midas_ominusf -->
<g id="node35" class="node">
<title>midas_midas_ominusf</title>
<g id="a_node35"><a xlink:href="../programs/midas_ominusf.html" xlink:title="midas_midas_ominusf">
<polygon fill="gray" stroke="green" points="1784,-180 1643,-180 1643,-144 1784,-144 1784,-180"/>
<text text-anchor="middle" x="1713.5" y="-158.3" font-family="Times,serif" font-size="14.00">midas_midas_ominusf</text>
</a>
</g>
</g>
<!-- midas_midas_ominusf&#45;&gt;columnData_mod -->
<g id="edge34" class="edge">
<title>midas_midas_ominusf&#45;&gt;columnData_mod</title>
<path fill="none" stroke="black" d="M1737.49,-137.72C1754.69,-118.25 1772,-90.74 1754.5,-72 1705.89,-19.95 1209.3,-17.73 1038.13,-18.53"/>
<ellipse fill="black" stroke="black" cx="1734.66" cy="-140.79" rx="4" ry="4"/>
</g>
<!-- midas_midas_sstbias -->
<g id="node36" class="node">
<title>midas_midas_sstbias</title>
<g id="a_node36"><a xlink:href="../programs/midas_sstbias.html" xlink:title="midas_midas_sstbias">
<polygon fill="gray" stroke="green" points="1850.5,-252 1718.5,-252 1718.5,-216 1850.5,-216 1850.5,-252"/>
<text text-anchor="middle" x="1784.5" y="-230.3" font-family="Times,serif" font-size="14.00">midas_midas_sstbias</text>
</a>
</g>
</g>
<!-- midas_midas_sstbias&#45;&gt;columnData_mod -->
<g id="edge35" class="edge">
<title>midas_midas_sstbias&#45;&gt;columnData_mod</title>
<path fill="none" stroke="black" d="M1792.1,-208.06C1801.52,-171.47 1811.9,-104.08 1772.5,-72 1715.93,-25.94 1211.08,-19.82 1038.24,-19.07"/>
<ellipse fill="black" stroke="black" cx="1791.05" cy="-211.95" rx="4" ry="4"/>
</g>
<!-- midas_midas_var1d -->
<g id="node37" class="node">
<title>midas_midas_var1d</title>
<g id="a_node37"><a xlink:href="../programs/midas_var1d.html" xlink:title="midas_midas_var1d">
<polygon fill="gray" stroke="green" points="1942,-324 1815,-324 1815,-288 1942,-288 1942,-324"/>
<text text-anchor="middle" x="1878.5" y="-302.3" font-family="Times,serif" font-size="14.00">midas_midas_var1d</text>
</a>
</g>
</g>
<!-- midas_midas_var1d&#45;&gt;columnData_mod -->
<g id="edge36" class="edge">
<title>midas_midas_var1d&#45;&gt;columnData_mod</title>
<path fill="none" stroke="black" d="M1878.62,-279.69C1877.3,-229.98 1866.43,-120.23 1798.5,-72 1736.89,-28.26 1214.54,-20.62 1038.3,-19.28"/>
<ellipse fill="black" stroke="black" cx="1878.69" cy="-283.97" rx="4" ry="4"/>
</g>
<!-- midas_midas_var -->
<g id="node38" class="node">
<title>midas_midas_var</title>
<g id="a_node38"><a xlink:href="../programs/midas_var.html" xlink:title="midas_midas_var">
<polygon fill="gray" stroke="green" points="2027,-396 1914,-396 1914,-360 2027,-360 2027,-396"/>
<text text-anchor="middle" x="1970.5" y="-374.3" font-family="Times,serif" font-size="14.00">midas_midas_var</text>
</a>
</g>
</g>
<!-- midas_midas_var&#45;&gt;columnData_mod -->
<g id="edge37" class="edge">
<title>midas_midas_var&#45;&gt;columnData_mod</title>
<path fill="none" stroke="black" d="M1970.5,-351.78C1970.5,-323.39 1970.5,-275.89 1970.5,-235 1970.5,-235 1970.5,-235 1970.5,-161 1970.5,-86.89 1900.01,-94.8 1829.5,-72 1681.86,-24.27 1204.6,-19.19 1038.3,-18.9"/>
<ellipse fill="black" stroke="black" cx="1970.5" cy="-355.95" rx="4" ry="4"/>
</g>
</g>
</svg>
