<?xml version="1.0" encoding="UTF-8" standalone="no"?>
<!DOCTYPE svg PUBLIC "-//W3C//DTD SVG 1.1//EN"
 "http://www.w3.org/Graphics/SVG/1.1/DTD/svg11.dtd">
<!-- Generated by graphviz version 3.0.0 (20220315.2325)
 -->
<!-- Title: columnData_mod Pages: 1 -->
<svg width="447pt" height="457pt"
 viewBox="0.00 0.00 447.00 457.00" xmlns="http://www.w3.org/2000/svg" xmlns:xlink="http://www.w3.org/1999/xlink">
<g id="graph0" class="graph" transform="scale(1 1) rotate(0) translate(4 453)">
<title>columnData_mod</title>
<polygon fill="white" stroke="transparent" points="-4,4 -4,-453 443,-453 443,4 -4,4"/>
<text text-anchor="middle" x="219.5" y="-37.8" font-family="Times,serif" font-size="14.00">Red boxes indicate modules with dependencies not shown</text>
<text text-anchor="middle" x="219.5" y="-22.8" font-family="Times,serif" font-size="14.00">Lower level dependencies can be shown by clicking on a red box</text>
<text text-anchor="middle" x="219.5" y="-7.8" font-family="Times,serif" font-size="14.00">Shaded boxes indicate modules with no dependencies</text>
<!-- columnData_mod -->
<g id="node1" class="node">
<title>columnData_mod</title>
<g id="a_node1"><a xlink:href="columnData_mod.html" xlink:title="columnData_mod">
<polygon fill="none" stroke="black" points="295.5,-449 180.5,-449 180.5,-413 295.5,-413 295.5,-449"/>
<text text-anchor="middle" x="238" y="-427.3" font-family="Times,serif" font-size="14.00">columnData_mod</text>
</a>
</g>
</g>
<!-- mathphysconstants_mod -->
<g id="node2" class="node">
<title>mathphysconstants_mod</title>
<g id="a_node2"><a xlink:href="mathphysconstants_mod.html" xlink:title="mathphysconstants_mod">
<polygon fill="gray" stroke="black" points="152,-377 0,-377 0,-341 152,-341 152,-377"/>
<text text-anchor="middle" x="76" y="-355.3" font-family="Times,serif" font-size="14.00">mathphysconstants_mod</text>
</a>
</g>
</g>
<!-- columnData_mod&#45;&gt;mathphysconstants_mod -->
<g id="edge1" class="edge">
<title>columnData_mod&#45;&gt;mathphysconstants_mod</title>
<path fill="none" stroke="black" d="M198.37,-412.88C176.22,-403.31 148.44,-391.3 124.94,-381.15"/>
<polygon fill="black" stroke="black" points="126.07,-377.82 115.5,-377.07 123.29,-384.25 126.07,-377.82"/>
</g>
<!-- midasmpi_mod -->
<g id="node3" class="node">
<title>midasmpi_mod</title>
<g id="a_node3"><a xlink:href="../modules/midasmpi_mod.svg" xlink:title="midasmpi_mod">
<polygon fill="none" stroke="red" points="210,-305 108,-305 108,-269 210,-269 210,-305"/>
<text text-anchor="middle" x="159" y="-283.3" font-family="Times,serif" font-size="14.00">midasmpi_mod</text>
</a>
</g>
</g>
<!-- columnData_mod&#45;&gt;midasmpi_mod -->
<g id="edge2" class="edge">
<title>columnData_mod&#45;&gt;midasmpi_mod</title>
<path fill="none" stroke="black" d="M228.47,-412.87C214.83,-388.35 189.62,-343.03 173.61,-314.26"/>
<polygon fill="black" stroke="black" points="176.48,-312.23 168.56,-305.19 170.37,-315.63 176.48,-312.23"/>
</g>
<!-- utilities_mod -->
<g id="node4" class="node">
<title>utilities_mod</title>
<g id="a_node4"><a xlink:href="../modules/utilities_mod.svg" xlink:title="utilities_mod">
<polygon fill="none" stroke="red" points="265.5,-233 176.5,-233 176.5,-197 265.5,-197 265.5,-233"/>
<text text-anchor="middle" x="221" y="-211.3" font-family="Times,serif" font-size="14.00">utilities_mod</text>
</a>
</g>
</g>
<!-- columnData_mod&#45;&gt;utilities_mod -->
<g id="edge3" class="edge">
<title>columnData_mod&#45;&gt;utilities_mod</title>
<path fill="none" stroke="black" d="M236.64,-412.85C233.7,-375.83 226.73,-288.18 223.18,-243.39"/>
<polygon fill="black" stroke="black" points="226.65,-242.92 222.37,-233.23 219.67,-243.48 226.65,-242.92"/>
</g>
<!-- varnamelist_mod -->
<g id="node5" class="node">
<title>varnamelist_mod</title>
<g id="a_node5"><a xlink:href="../modules/varnamelist_mod.svg" xlink:title="varnamelist_mod">
<polygon fill="none" stroke="red" points="350.5,-161 237.5,-161 237.5,-125 350.5,-125 350.5,-161"/>
<text text-anchor="middle" x="294" y="-139.3" font-family="Times,serif" font-size="14.00">varnamelist_mod</text>
</a>
</g>
</g>
<!-- columnData_mod&#45;&gt;varnamelist_mod -->
<g id="edge4" class="edge">
<title>columnData_mod&#45;&gt;varnamelist_mod</title>
<path fill="none" stroke="black" d="M241.34,-412.97C250.69,-365.19 277.23,-229.62 288.66,-171.27"/>
<polygon fill="black" stroke="black" points="292.12,-171.79 290.61,-161.31 285.25,-170.45 292.12,-171.79"/>
</g>
<!-- verticalcoord_mod -->
<g id="node6" class="node">
<title>verticalcoord_mod</title>
<g id="a_node6"><a xlink:href="../modules/verticalcoord_mod.svg" xlink:title="verticalcoord_mod">
<polygon fill="none" stroke="red" points="439,-89 319,-89 319,-53 439,-53 439,-89"/>
<text text-anchor="middle" x="379" y="-67.3" font-family="Times,serif" font-size="14.00">verticalcoord_mod</text>
</a>
</g>
</g>
<!-- columnData_mod&#45;&gt;verticalcoord_mod -->
<g id="edge5" class="edge">
<title>columnData_mod&#45;&gt;verticalcoord_mod</title>
<path fill="none" stroke="black" d="M274.68,-412.88C316.46,-390.55 379,-347.23 379,-288 379,-288 379,-288 379,-214 379,-174 379,-127.65 379,-99.08"/>
<polygon fill="black" stroke="black" points="382.5,-99.05 379,-89.05 375.5,-99.05 382.5,-99.05"/>
</g>
</g>
</svg>
