<?xml version="1.0" encoding="UTF-8" standalone="no"?>
<!DOCTYPE svg PUBLIC "-//W3C//DTD SVG 1.1//EN"
 "http://www.w3.org/Graphics/SVG/1.1/DTD/svg11.dtd">
<!-- Generated by graphviz version 3.0.0 (20220315.2325)
 -->
<!-- Title: columnVariableTransforms_mod Pages: 1 -->
<svg width="382pt" height="313pt"
 viewBox="0.00 0.00 382.00 313.00" xmlns="http://www.w3.org/2000/svg" xmlns:xlink="http://www.w3.org/1999/xlink">
<g id="graph0" class="graph" transform="scale(1 1) rotate(0) translate(4 309)">
<title>columnVariableTransforms_mod</title>
<polygon fill="white" stroke="transparent" points="-4,4 -4,-309 378,-309 378,4 -4,4"/>
<text text-anchor="middle" x="187" y="-37.8" font-family="Times,serif" font-size="14.00">Red boxes indicate modules with dependencies not shown</text>
<text text-anchor="middle" x="187" y="-22.8" font-family="Times,serif" font-size="14.00">Lower level dependencies can be shown by clicking on a red box</text>
<text text-anchor="middle" x="187" y="-7.8" font-family="Times,serif" font-size="14.00">Shaded boxes indicate modules with no dependencies</text>
<!-- columnVariableTransforms_mod -->
<g id="node1" class="node">
<title>columnVariableTransforms_mod</title>
<g id="a_node1"><a xlink:href="columnVariableTransforms_mod.html" xlink:title="columnVariableTransforms_mod">
<polygon fill="none" stroke="black" points="320.25,-305 121.25,-305 121.25,-269 320.25,-269 320.25,-305"/>
<text text-anchor="middle" x="220.75" y="-283.3" font-family="Times,serif" font-size="14.00">columnVariableTransforms_mod</text>
</a>
</g>
</g>
<!-- calcheightandpressure_mod -->
<g id="node2" class="node">
<title>calcheightandpressure_mod</title>
<g id="a_node2"><a xlink:href="../modules/calcheightandpressure_mod.svg" xlink:title="calcheightandpressure_mod">
<polygon fill="none" stroke="red" points="192.75,-233 24.75,-233 24.75,-197 192.75,-197 192.75,-233"/>
<text text-anchor="middle" x="108.75" y="-211.3" font-family="Times,serif" font-size="14.00">calcheightandpressure_mod</text>
</a>
</g>
</g>
<!-- columnVariableTransforms_mod&#45;&gt;calcheightandpressure_mod -->
<g id="edge1" class="edge">
<title>columnVariableTransforms_mod&#45;&gt;calcheightandpressure_mod</title>
<path fill="none" stroke="black" d="M193.35,-268.88C178.84,-259.81 160.83,-248.55 145.16,-238.76"/>
<polygon fill="black" stroke="black" points="146.59,-235.52 136.25,-233.19 142.88,-241.46 146.59,-235.52"/>
</g>
<!-- columndata_mod -->
<g id="node3" class="node">
<title>columndata_mod</title>
<g id="a_node3"><a xlink:href="../modules/columndata_mod.svg" xlink:title="columndata_mod">
<polygon fill="none" stroke="red" points="276.75,-161 164.75,-161 164.75,-125 276.75,-125 276.75,-161"/>
<text text-anchor="middle" x="220.75" y="-139.3" font-family="Times,serif" font-size="14.00">columndata_mod</text>
</a>
</g>
</g>
<!-- columnVariableTransforms_mod&#45;&gt;columndata_mod -->
<g id="edge2" class="edge">
<title>columnVariableTransforms_mod&#45;&gt;columndata_mod</title>
<path fill="none" stroke="black" d="M220.75,-268.87C220.75,-244.67 220.75,-200.21 220.75,-171.39"/>
<polygon fill="black" stroke="black" points="224.25,-171.19 220.75,-161.19 217.25,-171.19 224.25,-171.19"/>
</g>
<!-- utilities_mod -->
<g id="node4" class="node">
<title>utilities_mod</title>
<g id="a_node4"><a xlink:href="../modules/utilities_mod.svg" xlink:title="utilities_mod">
<polygon fill="none" stroke="red" points="349.25,-89 260.25,-89 260.25,-53 349.25,-53 349.25,-89"/>
<text text-anchor="middle" x="304.75" y="-67.3" font-family="Times,serif" font-size="14.00">utilities_mod</text>
</a>
</g>
</g>
<!-- columnVariableTransforms_mod&#45;&gt;utilities_mod -->
<g id="edge3" class="edge">
<title>columnVariableTransforms_mod&#45;&gt;utilities_mod</title>
<path fill="none" stroke="black" d="M231.56,-268.88C245.93,-245.4 271.19,-201.51 285.75,-161 293,-140.83 297.9,-117.06 300.9,-99.15"/>
<polygon fill="black" stroke="black" points="304.39,-99.53 302.5,-89.11 297.47,-98.44 304.39,-99.53"/>
</g>
</g>
</svg>
