<?xml version="1.0" encoding="UTF-8" standalone="no"?>
<!DOCTYPE svg PUBLIC "-//W3C//DTD SVG 1.1//EN"
 "http://www.w3.org/Graphics/SVG/1.1/DTD/svg11.dtd">
<!-- Generated by graphviz version 3.0.0 (20220315.2325)
 -->
<!-- Title: controlVector_mod Pages: 1 -->
<svg width="382pt" height="169pt"
 viewBox="0.00 0.00 382.00 169.00" xmlns="http://www.w3.org/2000/svg" xmlns:xlink="http://www.w3.org/1999/xlink">
<g id="graph0" class="graph" transform="scale(1 1) rotate(0) translate(4 165)">
<title>controlVector_mod</title>
<polygon fill="white" stroke="transparent" points="-4,4 -4,-165 378,-165 378,4 -4,4"/>
<text text-anchor="middle" x="187" y="-37.8" font-family="Times,serif" font-size="14.00">Red boxes indicate modules with dependencies not shown</text>
<text text-anchor="middle" x="187" y="-22.8" font-family="Times,serif" font-size="14.00">Lower level dependencies can be shown by clicking on a red box</text>
<text text-anchor="middle" x="187" y="-7.8" font-family="Times,serif" font-size="14.00">Shaded boxes indicate modules with no dependencies</text>
<!-- controlVector_mod -->
<g id="node1" class="node">
<title>controlVector_mod</title>
<g id="a_node1"><a xlink:href="controlVector_mod.html" xlink:title="controlVector_mod">
<polygon fill="none" stroke="black" points="248,-161 126,-161 126,-125 248,-125 248,-161"/>
<text text-anchor="middle" x="187" y="-139.3" font-family="Times,serif" font-size="14.00">controlVector_mod</text>
</a>
</g>
</g>
<!-- utilities_mod -->
<g id="node2" class="node">
<title>utilities_mod</title>
<g id="a_node2"><a xlink:href="../modules/utilities_mod.svg" xlink:title="utilities_mod">
<polygon fill="none" stroke="red" points="231.5,-89 142.5,-89 142.5,-53 231.5,-53 231.5,-89"/>
<text text-anchor="middle" x="187" y="-67.3" font-family="Times,serif" font-size="14.00">utilities_mod</text>
</a>
</g>
</g>
<!-- controlVector_mod&#45;&gt;utilities_mod -->
<g id="edge1" class="edge">
<title>controlVector_mod&#45;&gt;utilities_mod</title>
<path fill="none" stroke="black" d="M187,-124.7C187,-116.98 187,-107.71 187,-99.11"/>
<polygon fill="black" stroke="black" points="190.5,-99.1 187,-89.1 183.5,-99.1 190.5,-99.1"/>
</g>
</g>
</svg>
