<?xml version="1.0" encoding="UTF-8" standalone="no"?>
<!DOCTYPE svg PUBLIC "-//W3C//DTD SVG 1.1//EN"
 "http://www.w3.org/Graphics/SVG/1.1/DTD/svg11.dtd">
<!-- Generated by graphviz version 3.0.0 (20220315.2325)
 -->
<!-- Title: controlVector_mod Pages: 1 -->
<svg width="930pt" height="673pt"
 viewBox="0.00 0.00 929.50 673.00" xmlns="http://www.w3.org/2000/svg" xmlns:xlink="http://www.w3.org/1999/xlink">
<g id="graph0" class="graph" transform="scale(1 1) rotate(0) translate(4 669)">
<title>controlVector_mod</title>
<polygon fill="white" stroke="transparent" points="-4,4 -4,-669 925.5,-669 925.5,4 -4,4"/>
<text text-anchor="middle" x="460.75" y="-649.8" font-family="Times,serif" font-size="14.00">Blue boxes indicate modules with reverse dependencies not shown</text>
<text text-anchor="middle" x="460.75" y="-634.8" font-family="Times,serif" font-size="14.00">Higher level reverse dependencies can be shown by clicking on a blue box</text>
<text text-anchor="middle" x="460.75" y="-619.8" font-family="Times,serif" font-size="14.00">Green boxes are programs</text>
<!-- controlVector_mod -->
<g id="node1" class="node">
<title>controlVector_mod</title>
<g id="a_node1"><a xlink:href="controlVector_mod.html" xlink:title="controlVector_mod">
<polygon fill="none" stroke="black" points="444,-36 322,-36 322,0 444,0 444,-36"/>
<text text-anchor="middle" x="383" y="-14.3" font-family="Times,serif" font-size="14.00">controlVector_mod</text>
</a>
</g>
</g>
<!-- biascorrectionsat_mod -->
<g id="node2" class="node">
<title>biascorrectionsat_mod</title>
<g id="a_node2"><a xlink:href="../modules/biascorrectionsat_mod_rev.svg" xlink:title="biascorrectionsat_mod">
<polygon fill="none" stroke="blue" points="140,-108 0,-108 0,-72 140,-72 140,-108"/>
<text text-anchor="middle" x="70" y="-86.3" font-family="Times,serif" font-size="14.00">biascorrectionsat_mod</text>
</a>
</g>
</g>
<!-- biascorrectionsat_mod&#45;&gt;controlVector_mod -->
<g id="edge1" class="edge">
<title>biascorrectionsat_mod&#45;&gt;controlVector_mod</title>
<path fill="none" stroke="black" d="M148.05,-71.54C201.84,-59.52 272.29,-43.76 321.97,-32.65"/>
<ellipse fill="black" stroke="black" cx="144.15" cy="-72.42" rx="4" ry="4"/>
</g>
<!-- bmatrix1dvar_mod -->
<g id="node3" class="node">
<title>bmatrix1dvar_mod</title>
<g id="a_node3"><a xlink:href="../modules/bmatrix1dvar_mod_rev.svg" xlink:title="bmatrix1dvar_mod">
<polygon fill="none" stroke="blue" points="203,-180 81,-180 81,-144 203,-144 203,-180"/>
<text text-anchor="middle" x="142" y="-158.3" font-family="Times,serif" font-size="14.00">bmatrix1dvar_mod</text>
</a>
</g>
</g>
<!-- bmatrix1dvar_mod&#45;&gt;controlVector_mod -->
<g id="edge2" class="edge">
<title>bmatrix1dvar_mod&#45;&gt;controlVector_mod</title>
<path fill="none" stroke="black" d="M156.66,-137C170.06,-116.95 191.61,-88.99 217,-72 248.43,-50.97 288.74,-37.84 321.77,-29.91"/>
<ellipse fill="black" stroke="black" cx="154.45" cy="-140.38" rx="4" ry="4"/>
</g>
<!-- bmatrix_mod -->
<g id="node4" class="node">
<title>bmatrix_mod</title>
<g id="a_node4"><a xlink:href="../modules/bmatrix_mod_rev.svg" xlink:title="bmatrix_mod">
<polygon fill="none" stroke="blue" points="241,-252 149,-252 149,-216 241,-216 241,-252"/>
<text text-anchor="middle" x="195" y="-230.3" font-family="Times,serif" font-size="14.00">bmatrix_mod</text>
</a>
</g>
</g>
<!-- bmatrix_mod&#45;&gt;controlVector_mod -->
<g id="edge3" class="edge">
<title>bmatrix_mod&#45;&gt;controlVector_mod</title>
<path fill="none" stroke="black" d="M203,-208.29C216.95,-165.74 245.17,-82.18 255,-72 272.95,-53.39 298.4,-41.07 321.88,-33.03"/>
<ellipse fill="black" stroke="black" cx="201.73" cy="-212.18" rx="4" ry="4"/>
</g>
<!-- enspostprocess_mod -->
<g id="node5" class="node">
<title>enspostprocess_mod</title>
<g id="a_node5"><a xlink:href="../modules/enspostprocess_mod_rev.svg" xlink:title="enspostprocess_mod">
<polygon fill="none" stroke="blue" points="278.5,-324 149.5,-324 149.5,-288 278.5,-288 278.5,-324"/>
<text text-anchor="middle" x="214" y="-302.3" font-family="Times,serif" font-size="14.00">enspostprocess_mod</text>
</a>
</g>
</g>
<!-- enspostprocess_mod&#45;&gt;controlVector_mod -->
<g id="edge4" class="edge">
<title>enspostprocess_mod&#45;&gt;controlVector_mod</title>
<path fill="none" stroke="black" d="M232.92,-281.13C239.11,-272.37 245.54,-262.12 250,-252 283.21,-176.75 244.11,-138.14 293,-72 304.53,-56.4 322.15,-44.58 338.75,-36.11"/>
<ellipse fill="black" stroke="black" cx="230.4" cy="-284.57" rx="4" ry="4"/>
</g>
<!-- fsoi_mod -->
<g id="node6" class="node">
<title>fsoi_mod</title>
<g id="a_node6"><a xlink:href="../modules/fsoi_mod_rev.svg" xlink:title="fsoi_mod">
<polygon fill="none" stroke="blue" points="317,-396 249,-396 249,-360 317,-360 317,-396"/>
<text text-anchor="middle" x="283" y="-374.3" font-family="Times,serif" font-size="14.00">fsoi_mod</text>
</a>
</g>
</g>
<!-- fsoi_mod&#45;&gt;controlVector_mod -->
<g id="edge5" class="edge">
<title>fsoi_mod&#45;&gt;controlVector_mod</title>
<path fill="none" stroke="black" d="M289.86,-351.9C296.95,-323.69 307,-276.42 307,-235 307,-235 307,-235 307,-161 307,-120.03 310.66,-107.56 331,-72 338.81,-58.35 350.99,-45.67 361.59,-36.14"/>
<ellipse fill="black" stroke="black" cx="288.85" cy="-355.8" rx="4" ry="4"/>
</g>
<!-- minimization_mod -->
<g id="node7" class="node">
<title>minimization_mod</title>
<g id="a_node7"><a xlink:href="../modules/minimization_mod_rev.svg" xlink:title="minimization_mod">
<polygon fill="none" stroke="blue" points="355,-468 233,-468 233,-432 355,-432 355,-468"/>
<text text-anchor="middle" x="294" y="-446.3" font-family="Times,serif" font-size="14.00">minimization_mod</text>
</a>
</g>
</g>
<!-- minimization_mod&#45;&gt;controlVector_mod -->
<g id="edge6" class="edge">
<title>minimization_mod&#45;&gt;controlVector_mod</title>
<path fill="none" stroke="black" d="M311.02,-424.66C316.48,-415.95 322.11,-405.84 326,-396 340.88,-358.39 345,-347.45 345,-307 345,-307 345,-307 345,-161 345,-114.55 364.21,-62.38 375.31,-36.09"/>
<ellipse fill="black" stroke="black" cx="308.69" cy="-428.26" rx="4" ry="4"/>
</g>
<!-- obsspacediag_mod -->
<g id="node8" class="node">
<title>obsspacediag_mod</title>
<g id="a_node8"><a xlink:href="../modules/obsspacediag_mod_rev.svg" xlink:title="obsspacediag_mod">
<polygon fill="none" stroke="blue" points="393,-540 273,-540 273,-504 393,-504 393,-540"/>
<text text-anchor="middle" x="333" y="-518.3" font-family="Times,serif" font-size="14.00">obsspacediag_mod</text>
</a>
</g>
</g>
<!-- obsspacediag_mod&#45;&gt;controlVector_mod -->
<g id="edge7" class="edge">
<title>obsspacediag_mod&#45;&gt;controlVector_mod</title>
<path fill="none" stroke="black" d="M349.46,-496.6C354.75,-487.88 360.21,-477.78 364,-468 378.62,-430.29 383,-419.45 383,-379 383,-379 383,-379 383,-161 383,-115.89 383,-62.71 383,-36.05"/>
<ellipse fill="black" stroke="black" cx="347.23" cy="-500.18" rx="4" ry="4"/>
</g>
<!-- midas_midas_diagbmatrix -->
<g id="node9" class="node">
<title>midas_midas_diagbmatrix</title>
<g id="a_node9"><a xlink:href="../programs/midas_diagbmatrix.html" xlink:title="midas_midas_diagbmatrix">
<polygon fill="gray" stroke="green" points="502.5,-612 339.5,-612 339.5,-576 502.5,-576 502.5,-612"/>
<text text-anchor="middle" x="421" y="-590.3" font-family="Times,serif" font-size="14.00">midas_midas_diagbmatrix</text>
</a>
</g>
</g>
<!-- midas_midas_diagbmatrix&#45;&gt;controlVector_mod -->
<g id="edge8" class="edge">
<title>midas_midas_diagbmatrix&#45;&gt;controlVector_mod</title>
<path fill="none" stroke="black" d="M421,-567.78C421,-539.39 421,-491.89 421,-451 421,-451 421,-451 421,-161 421,-114.55 401.79,-62.38 390.69,-36.09"/>
<ellipse fill="black" stroke="black" cx="421" cy="-571.95" rx="4" ry="4"/>
</g>
<!-- midas_midas_diaghbht -->
<g id="node10" class="node">
<title>midas_midas_diaghbht</title>
<g id="a_node10"><a xlink:href="../programs/midas_diaghbht.html" xlink:title="midas_midas_diaghbht">
<polygon fill="gray" stroke="green" points="592.5,-108 449.5,-108 449.5,-72 592.5,-72 592.5,-108"/>
<text text-anchor="middle" x="521" y="-86.3" font-family="Times,serif" font-size="14.00">midas_midas_diaghbht</text>
</a>
</g>
</g>
<!-- midas_midas_diaghbht&#45;&gt;controlVector_mod -->
<g id="edge9" class="edge">
<title>midas_midas_diaghbht&#45;&gt;controlVector_mod</title>
<path fill="none" stroke="black" d="M480.02,-68.21C459.9,-58.01 435.96,-45.86 416.89,-36.19"/>
<ellipse fill="black" stroke="black" cx="483.67" cy="-70.07" rx="4" ry="4"/>
</g>
<!-- midas_midas_extractbmatrixfor1dvar -->
<g id="node11" class="node">
<title>midas_midas_extractbmatrixfor1dvar</title>
<g id="a_node11"><a xlink:href="../programs/midas_extractbmatrixfor1dvar.html" xlink:title="midas_midas_extractbmatrixfor1dvar">
<polygon fill="gray" stroke="green" points="672.5,-180 449.5,-180 449.5,-144 672.5,-144 672.5,-180"/>
<text text-anchor="middle" x="561" y="-158.3" font-family="Times,serif" font-size="14.00">midas_midas_extractbmatrixfor1dvar</text>
</a>
</g>
</g>
<!-- midas_midas_extractbmatrixfor1dvar&#45;&gt;controlVector_mod -->
<g id="edge10" class="edge">
<title>midas_midas_extractbmatrixfor1dvar&#45;&gt;controlVector_mod</title>
<path fill="none" stroke="black" d="M584.25,-137.81C600.46,-118.79 616.61,-91.86 601,-72 581.77,-47.54 501.65,-32.97 444.12,-25.47"/>
<ellipse fill="black" stroke="black" cx="581.46" cy="-140.94" rx="4" ry="4"/>
</g>
<!-- midas_midas_randompert -->
<g id="node12" class="node">
<title>midas_midas_randompert</title>
<g id="a_node12"><a xlink:href="../programs/midas_randompert.html" xlink:title="midas_midas_randompert">
<polygon fill="gray" stroke="green" points="745.5,-252 586.5,-252 586.5,-216 745.5,-216 745.5,-252"/>
<text text-anchor="middle" x="666" y="-230.3" font-family="Times,serif" font-size="14.00">midas_midas_randompert</text>
</a>
</g>
</g>
<!-- midas_midas_randompert&#45;&gt;controlVector_mod -->
<g id="edge11" class="edge">
<title>midas_midas_randompert&#45;&gt;controlVector_mod</title>
<path fill="none" stroke="black" d="M676.97,-207.93C683.33,-189.73 688.71,-164.76 681,-144 666.3,-104.41 655.21,-93.73 619,-72 565.35,-39.81 494.2,-27.14 444.1,-22.17"/>
<ellipse fill="black" stroke="black" cx="675.43" cy="-212.03" rx="4" ry="4"/>
</g>
<!-- midas_midas_var1d -->
<g id="node13" class="node">
<title>midas_midas_var1d</title>
<g id="a_node13"><a xlink:href="../programs/midas_var1d.html" xlink:title="midas_midas_var1d">
<polygon fill="gray" stroke="green" points="836.5,-324 709.5,-324 709.5,-288 836.5,-288 836.5,-324"/>
<text text-anchor="middle" x="773" y="-302.3" font-family="Times,serif" font-size="14.00">midas_midas_var1d</text>
</a>
</g>
</g>
<!-- midas_midas_var1d&#45;&gt;controlVector_mod -->
<g id="edge12" class="edge">
<title>midas_midas_var1d&#45;&gt;controlVector_mod</title>
<path fill="none" stroke="black" d="M770.19,-279.3C767.57,-261.08 762.7,-236.35 754,-216 723.57,-144.82 720.65,-114.59 656,-72 621.88,-49.52 513.55,-33.6 444.05,-25.39"/>
<ellipse fill="black" stroke="black" cx="770.78" cy="-283.71" rx="4" ry="4"/>
</g>
<!-- midas_midas_var -->
<g id="node14" class="node">
<title>midas_midas_var</title>
<g id="a_node14"><a xlink:href="../programs/midas_var.html" xlink:title="midas_midas_var">
<polygon fill="gray" stroke="green" points="921.5,-396 808.5,-396 808.5,-360 921.5,-360 921.5,-396"/>
<text text-anchor="middle" x="865" y="-374.3" font-family="Times,serif" font-size="14.00">midas_midas_var</text>
</a>
</g>
</g>
<!-- midas_midas_var&#45;&gt;controlVector_mod -->
<g id="edge13" class="edge">
<title>midas_midas_var&#45;&gt;controlVector_mod</title>
<path fill="none" stroke="black" d="M865,-351.78C865,-323.39 865,-275.89 865,-235 865,-235 865,-235 865,-161 865,-74.2 573.75,-36.54 444.05,-24.07"/>
<ellipse fill="black" stroke="black" cx="865" cy="-355.95" rx="4" ry="4"/>
</g>
</g>
</svg>
