<?xml version="1.0" encoding="UTF-8" standalone="no"?>
<!DOCTYPE svg PUBLIC "-//W3C//DTD SVG 1.1//EN"
 "http://www.w3.org/Graphics/SVG/1.1/DTD/svg11.dtd">
<!-- Generated by graphviz version 3.0.0 (20220315.2325)
 -->
<!-- Title: costFunction_mod Pages: 1 -->
<svg width="394pt" height="529pt"
 viewBox="0.00 0.00 394.00 529.00" xmlns="http://www.w3.org/2000/svg" xmlns:xlink="http://www.w3.org/1999/xlink">
<g id="graph0" class="graph" transform="scale(1 1) rotate(0) translate(4 525)">
<title>costFunction_mod</title>
<polygon fill="white" stroke="transparent" points="-4,4 -4,-525 390,-525 390,4 -4,4"/>
<text text-anchor="middle" x="193" y="-37.8" font-family="Times,serif" font-size="14.00">Red boxes indicate modules with dependencies not shown</text>
<text text-anchor="middle" x="193" y="-22.8" font-family="Times,serif" font-size="14.00">Lower level dependencies can be shown by clicking on a red box</text>
<text text-anchor="middle" x="193" y="-7.8" font-family="Times,serif" font-size="14.00">Shaded boxes indicate modules with no dependencies</text>
<!-- costFunction_mod -->
<g id="node1" class="node">
<title>costFunction_mod</title>
<g id="a_node1"><a xlink:href="costFunction_mod.html" xlink:title="costFunction_mod">
<polygon fill="none" stroke="black" points="249.5,-521 131.5,-521 131.5,-485 249.5,-485 249.5,-521"/>
<text text-anchor="middle" x="190.5" y="-499.3" font-family="Times,serif" font-size="14.00">costFunction_mod</text>
</a>
</g>
</g>
<!-- codtyp_mod -->
<g id="node2" class="node">
<title>codtyp_mod</title>
<g id="a_node2"><a xlink:href="../modules/codtyp_mod.svg" xlink:title="codtyp_mod">
<polygon fill="none" stroke="red" points="85,-449 0,-449 0,-413 85,-413 85,-449"/>
<text text-anchor="middle" x="42.5" y="-427.3" font-family="Times,serif" font-size="14.00">codtyp_mod</text>
</a>
</g>
</g>
<!-- costFunction_mod&#45;&gt;codtyp_mod -->
<g id="edge1" class="edge">
<title>costFunction_mod&#45;&gt;codtyp_mod</title>
<path fill="none" stroke="black" d="M154.3,-484.88C134.24,-475.39 109.13,-463.51 87.79,-453.42"/>
<polygon fill="black" stroke="black" points="89.12,-450.18 78.59,-449.07 86.13,-456.51 89.12,-450.18"/>
</g>
<!-- midasmpi_mod -->
<g id="node3" class="node">
<title>midasmpi_mod</title>
<g id="a_node3"><a xlink:href="../modules/midasmpi_mod.svg" xlink:title="midasmpi_mod">
<polygon fill="none" stroke="red" points="143.5,-377 41.5,-377 41.5,-341 143.5,-341 143.5,-377"/>
<text text-anchor="middle" x="92.5" y="-355.3" font-family="Times,serif" font-size="14.00">midasmpi_mod</text>
</a>
</g>
</g>
<!-- costFunction_mod&#45;&gt;midasmpi_mod -->
<g id="edge2" class="edge">
<title>costFunction_mod&#45;&gt;midasmpi_mod</title>
<path fill="none" stroke="black" d="M178.68,-484.87C161.61,-460.14 129.93,-414.24 110.11,-385.51"/>
<polygon fill="black" stroke="black" points="112.92,-383.43 104.36,-377.19 107.16,-387.41 112.92,-383.43"/>
</g>
<!-- obserrors_mod -->
<g id="node4" class="node">
<title>obserrors_mod</title>
<g id="a_node4"><a xlink:href="../modules/obserrors_mod.svg" xlink:title="obserrors_mod">
<polygon fill="none" stroke="red" points="181,-305 82,-305 82,-269 181,-269 181,-305"/>
<text text-anchor="middle" x="131.5" y="-283.3" font-family="Times,serif" font-size="14.00">obserrors_mod</text>
</a>
</g>
</g>
<!-- costFunction_mod&#45;&gt;obserrors_mod -->
<g id="edge3" class="edge">
<title>costFunction_mod&#45;&gt;obserrors_mod</title>
<path fill="none" stroke="black" d="M187.31,-484.86C181.59,-455.19 168.69,-392.51 152.5,-341 149.77,-332.31 146.29,-323.03 142.95,-314.69"/>
<polygon fill="black" stroke="black" points="146.19,-313.36 139.15,-305.44 139.71,-316.02 146.19,-313.36"/>
</g>
<!-- obsspacedata_mod -->
<g id="node5" class="node">
<title>obsspacedata_mod</title>
<g id="a_node5"><a xlink:href="../modules/obsspacedata_mod.svg" xlink:title="obsspacedata_mod">
<polygon fill="none" stroke="red" points="244,-233 125,-233 125,-197 244,-197 244,-233"/>
<text text-anchor="middle" x="184.5" y="-211.3" font-family="Times,serif" font-size="14.00">obsspacedata_mod</text>
</a>
</g>
</g>
<!-- costFunction_mod&#45;&gt;obsspacedata_mod -->
<g id="edge4" class="edge">
<title>costFunction_mod&#45;&gt;obsspacedata_mod</title>
<path fill="none" stroke="black" d="M190.97,-484.74C191.91,-446.08 193.57,-349.6 189.5,-269 189.08,-260.66 188.33,-251.6 187.54,-243.37"/>
<polygon fill="black" stroke="black" points="191,-242.75 186.5,-233.16 184.03,-243.46 191,-242.75"/>
</g>
<!-- tovsnl_mod -->
<g id="node6" class="node">
<title>tovsnl_mod</title>
<g id="a_node6"><a xlink:href="../modules/tovsnl_mod.svg" xlink:title="tovsnl_mod">
<polygon fill="none" stroke="red" points="313,-161 232,-161 232,-125 313,-125 313,-161"/>
<text text-anchor="middle" x="272.5" y="-139.3" font-family="Times,serif" font-size="14.00">tovsnl_mod</text>
</a>
</g>
</g>
<!-- costFunction_mod&#45;&gt;tovsnl_mod -->
<g id="edge5" class="edge">
<title>costFunction_mod&#45;&gt;tovsnl_mod</title>
<path fill="none" stroke="black" d="M208.7,-484.6C232.86,-459.53 272.5,-410.67 272.5,-360 272.5,-360 272.5,-360 272.5,-286 272.5,-246 272.5,-199.65 272.5,-171.08"/>
<polygon fill="black" stroke="black" points="276,-171.05 272.5,-161.05 269,-171.05 276,-171.05"/>
</g>
<!-- utilities_mod -->
<g id="node7" class="node">
<title>utilities_mod</title>
<g id="a_node7"><a xlink:href="../modules/utilities_mod.svg" xlink:title="utilities_mod">
<polygon fill="none" stroke="red" points="386,-89 297,-89 297,-53 386,-53 386,-89"/>
<text text-anchor="middle" x="341.5" y="-67.3" font-family="Times,serif" font-size="14.00">utilities_mod</text>
</a>
</g>
</g>
<!-- costFunction_mod&#45;&gt;utilities_mod -->
<g id="edge6" class="edge">
<title>costFunction_mod&#45;&gt;utilities_mod</title>
<path fill="none" stroke="black" d="M231.36,-484.82C276.08,-462.97 341.5,-420.64 341.5,-360 341.5,-360 341.5,-360 341.5,-214 341.5,-174 341.5,-127.65 341.5,-99.08"/>
<polygon fill="black" stroke="black" points="345,-99.05 341.5,-89.05 338,-99.05 345,-99.05"/>
</g>
</g>
</svg>
