<?xml version="1.0" encoding="UTF-8" standalone="no"?>
<!DOCTYPE svg PUBLIC "-//W3C//DTD SVG 1.1//EN"
 "http://www.w3.org/Graphics/SVG/1.1/DTD/svg11.dtd">
<!-- Generated by graphviz version 3.0.0 (20220315.2325)
 -->
<!-- Title: costFunction_mod Pages: 1 -->
<svg width="433pt" height="313pt"
 viewBox="0.00 0.00 433.00 313.00" xmlns="http://www.w3.org/2000/svg" xmlns:xlink="http://www.w3.org/1999/xlink">
<g id="graph0" class="graph" transform="scale(1 1) rotate(0) translate(4 309)">
<title>costFunction_mod</title>
<polygon fill="white" stroke="transparent" points="-4,4 -4,-309 429,-309 429,4 -4,4"/>
<text text-anchor="middle" x="212.5" y="-289.8" font-family="Times,serif" font-size="14.00">Blue boxes indicate modules with reverse dependencies not shown</text>
<text text-anchor="middle" x="212.5" y="-274.8" font-family="Times,serif" font-size="14.00">Higher level reverse dependencies can be shown by clicking on a blue box</text>
<text text-anchor="middle" x="212.5" y="-259.8" font-family="Times,serif" font-size="14.00">Green boxes are programs</text>
<!-- costFunction_mod -->
<g id="node1" class="node">
<title>costFunction_mod</title>
<g id="a_node1"><a xlink:href="costFunction_mod.html" xlink:title="costFunction_mod">
<polygon fill="none" stroke="black" points="248.5,-36 130.5,-36 130.5,0 248.5,0 248.5,-36"/>
<text text-anchor="middle" x="189.5" y="-14.3" font-family="Times,serif" font-size="14.00">costFunction_mod</text>
</a>
</g>
</g>
<!-- fsoi_mod -->
<g id="node2" class="node">
<title>fsoi_mod</title>
<g id="a_node2"><a xlink:href="../modules/fsoi_mod_rev.svg" xlink:title="fsoi_mod">
<polygon fill="none" stroke="blue" points="161.5,-108 93.5,-108 93.5,-72 161.5,-72 161.5,-108"/>
<text text-anchor="middle" x="127.5" y="-86.3" font-family="Times,serif" font-size="14.00">fsoi_mod</text>
</a>
</g>
</g>
<!-- fsoi_mod&#45;&gt;costFunction_mod -->
<g id="edge1" class="edge">
<title>fsoi_mod&#45;&gt;costFunction_mod</title>
<path fill="none" stroke="black" d="M148.24,-65.59C156.78,-55.94 166.49,-44.97 174.35,-36.1"/>
<ellipse fill="black" stroke="black" cx="145.48" cy="-68.7" rx="4" ry="4"/>
</g>
<!-- innovation_mod -->
<g id="node3" class="node">
<title>innovation_mod</title>
<g id="a_node3"><a xlink:href="../modules/innovation_mod_rev.svg" xlink:title="innovation_mod">
<polygon fill="none" stroke="blue" points="242.5,-180 136.5,-180 136.5,-144 242.5,-144 242.5,-180"/>
<text text-anchor="middle" x="189.5" y="-158.3" font-family="Times,serif" font-size="14.00">innovation_mod</text>
</a>
</g>
</g>
<!-- innovation_mod&#45;&gt;costFunction_mod -->
<g id="edge2" class="edge">
<title>innovation_mod&#45;&gt;costFunction_mod</title>
<path fill="none" stroke="black" d="M189.5,-135.56C189.5,-106.86 189.5,-60.96 189.5,-36.19"/>
<ellipse fill="black" stroke="black" cx="189.5" cy="-139.87" rx="4" ry="4"/>
</g>
<!-- minimization_mod -->
<g id="node4" class="node">
<title>minimization_mod</title>
<g id="a_node4"><a xlink:href="../modules/minimization_mod_rev.svg" xlink:title="minimization_mod">
<polygon fill="none" stroke="blue" points="331.5,-252 209.5,-252 209.5,-216 331.5,-216 331.5,-252"/>
<text text-anchor="middle" x="270.5" y="-230.3" font-family="Times,serif" font-size="14.00">minimization_mod</text>
</a>
</g>
</g>
<!-- minimization_mod&#45;&gt;costFunction_mod -->
<g id="edge3" class="edge">
<title>minimization_mod&#45;&gt;costFunction_mod</title>
<path fill="none" stroke="black" d="M266.82,-207.64C263.79,-189.57 258.78,-164.9 251.5,-144 237.47,-103.74 213.43,-59.76 199.77,-36.2"/>
<ellipse fill="black" stroke="black" cx="267.52" cy="-211.98" rx="4" ry="4"/>
</g>
</g>
</svg>
