<?xml version="1.0" encoding="UTF-8" standalone="no"?>
<!DOCTYPE svg PUBLIC "-//W3C//DTD SVG 1.1//EN"
 "http://www.w3.org/Graphics/SVG/1.1/DTD/svg11.dtd">
<!-- Generated by graphviz version 3.0.0 (20220315.2325)
 -->
<!-- Title: diffusion_mod Pages: 1 -->
<svg width="600pt" height="673pt"
 viewBox="0.00 0.00 600.00 673.00" xmlns="http://www.w3.org/2000/svg" xmlns:xlink="http://www.w3.org/1999/xlink">
<g id="graph0" class="graph" transform="scale(1 1) rotate(0) translate(4 669)">
<title>diffusion_mod</title>
<polygon fill="white" stroke="transparent" points="-4,4 -4,-669 596,-669 596,4 -4,4"/>
<text text-anchor="middle" x="296" y="-37.8" font-family="Times,serif" font-size="14.00">Red boxes indicate modules with dependencies not shown</text>
<text text-anchor="middle" x="296" y="-22.8" font-family="Times,serif" font-size="14.00">Lower level dependencies can be shown by clicking on a red box</text>
<text text-anchor="middle" x="296" y="-7.8" font-family="Times,serif" font-size="14.00">Shaded boxes indicate modules with no dependencies</text>
<!-- diffusion_mod -->
<g id="node1" class="node">
<title>diffusion_mod</title>
<g id="a_node1"><a xlink:href="diffusion_mod.html" xlink:title="diffusion_mod">
<polygon fill="none" stroke="black" points="350,-665 254,-665 254,-629 350,-629 350,-665"/>
<text text-anchor="middle" x="302" y="-643.3" font-family="Times,serif" font-size="14.00">diffusion_mod</text>
</a>
</g>
</g>
<!-- earthconstants_mod -->
<g id="node2" class="node">
<title>earthconstants_mod</title>
<g id="a_node2"><a xlink:href="../modules/earthconstants_mod.svg" xlink:title="earthconstants_mod">
<polygon fill="none" stroke="red" points="126,-593 0,-593 0,-557 126,-557 126,-593"/>
<text text-anchor="middle" x="63" y="-571.3" font-family="Times,serif" font-size="14.00">earthconstants_mod</text>
</a>
</g>
</g>
<!-- diffusion_mod&#45;&gt;earthconstants_mod -->
<g id="edge1" class="edge">
<title>diffusion_mod&#45;&gt;earthconstants_mod</title>
<path fill="none" stroke="black" d="M253.92,-631.92C218.61,-621.58 170.16,-607.39 130.9,-595.89"/>
<polygon fill="black" stroke="black" points="131.71,-592.48 121.13,-593.03 129.74,-599.2 131.71,-592.48"/>
</g>
<!-- gridstatevectorfileio_mod -->
<g id="node3" class="node">
<title>gridstatevectorfileio_mod</title>
<g id="a_node3"><a xlink:href="../modules/gridstatevectorfileio_mod.svg" xlink:title="gridstatevectorfileio_mod">
<polygon fill="none" stroke="red" points="198,-521 40,-521 40,-485 198,-485 198,-521"/>
<text text-anchor="middle" x="119" y="-499.3" font-family="Times,serif" font-size="14.00">gridstatevectorfileio_mod</text>
</a>
</g>
</g>
<!-- diffusion_mod&#45;&gt;gridstatevectorfileio_mod -->
<g id="edge2" class="edge">
<title>diffusion_mod&#45;&gt;gridstatevectorfileio_mod</title>
<path fill="none" stroke="black" d="M268.77,-628.85C251.26,-619.22 229.78,-606.46 212,-593 186.27,-573.53 159.98,-547.71 141.95,-528.9"/>
<polygon fill="black" stroke="black" points="144.17,-526.16 134.75,-521.31 139.09,-530.97 144.17,-526.16"/>
</g>
<!-- gridstatevector_mod -->
<g id="node4" class="node">
<title>gridstatevector_mod</title>
<g id="a_node4"><a xlink:href="../modules/gridstatevector_mod.svg" xlink:title="gridstatevector_mod">
<polygon fill="none" stroke="red" points="236,-449 106,-449 106,-413 236,-413 236,-449"/>
<text text-anchor="middle" x="171" y="-427.3" font-family="Times,serif" font-size="14.00">gridstatevector_mod</text>
</a>
</g>
</g>
<!-- diffusion_mod&#45;&gt;gridstatevector_mod -->
<g id="edge3" class="edge">
<title>diffusion_mod&#45;&gt;gridstatevector_mod</title>
<path fill="none" stroke="black" d="M281.74,-628.94C271.2,-619.25 258.72,-606.39 250,-593 221.8,-549.71 231.21,-530.64 207,-485 202.05,-475.67 195.81,-465.96 189.93,-457.44"/>
<polygon fill="black" stroke="black" points="192.63,-455.2 184,-449.07 186.92,-459.25 192.63,-455.2"/>
</g>
<!-- horizontalcoord_mod -->
<g id="node5" class="node">
<title>horizontalcoord_mod</title>
<g id="a_node5"><a xlink:href="../modules/horizontalcoord_mod.svg" xlink:title="horizontalcoord_mod">
<polygon fill="none" stroke="red" points="274,-377 140,-377 140,-341 274,-341 274,-377"/>
<text text-anchor="middle" x="207" y="-355.3" font-family="Times,serif" font-size="14.00">horizontalcoord_mod</text>
</a>
</g>
</g>
<!-- diffusion_mod&#45;&gt;horizontalcoord_mod -->
<g id="edge4" class="edge">
<title>diffusion_mod&#45;&gt;horizontalcoord_mod</title>
<path fill="none" stroke="black" d="M297.36,-628.84C294.58,-618.48 291.02,-605 288,-593 267.94,-513.23 279.16,-487.82 245,-413 240.56,-403.27 234.22,-393.5 227.98,-385.04"/>
<polygon fill="black" stroke="black" points="230.73,-382.88 221.86,-377.08 225.18,-387.14 230.73,-382.88"/>
</g>
<!-- midasmpi_mod -->
<g id="node6" class="node">
<title>midasmpi_mod</title>
<g id="a_node6"><a xlink:href="../modules/midasmpi_mod.svg" xlink:title="midasmpi_mod">
<polygon fill="none" stroke="red" points="312,-305 210,-305 210,-269 312,-269 312,-305"/>
<text text-anchor="middle" x="261" y="-283.3" font-family="Times,serif" font-size="14.00">midasmpi_mod</text>
</a>
</g>
</g>
<!-- diffusion_mod&#45;&gt;midasmpi_mod -->
<g id="edge5" class="edge">
<title>diffusion_mod&#45;&gt;midasmpi_mod</title>
<path fill="none" stroke="black" d="M302,-628.95C302,-602.29 302,-549.11 302,-504 302,-504 302,-504 302,-430 302,-388.41 285.56,-342.56 273.5,-314.51"/>
<polygon fill="black" stroke="black" points="276.55,-312.75 269.3,-305.03 270.15,-315.59 276.55,-312.75"/>
</g>
<!-- oceanmask_mod -->
<g id="node7" class="node">
<title>oceanmask_mod</title>
<g id="a_node7"><a xlink:href="../modules/oceanmask_mod.svg" xlink:title="oceanmask_mod">
<polygon fill="none" stroke="red" points="349.5,-233 240.5,-233 240.5,-197 349.5,-197 349.5,-233"/>
<text text-anchor="middle" x="295" y="-211.3" font-family="Times,serif" font-size="14.00">oceanmask_mod</text>
</a>
</g>
</g>
<!-- diffusion_mod&#45;&gt;oceanmask_mod -->
<g id="edge6" class="edge">
<title>diffusion_mod&#45;&gt;oceanmask_mod</title>
<path fill="none" stroke="black" d="M309.69,-628.91C320.79,-602.62 340,-550.45 340,-504 340,-504 340,-504 340,-358 340,-317.55 334.23,-307.22 321,-269 317.88,-259.99 313.6,-250.54 309.41,-242.14"/>
<polygon fill="black" stroke="black" points="312.49,-240.48 304.78,-233.2 306.27,-243.69 312.49,-240.48"/>
</g>
<!-- randomnumber_mod -->
<g id="node8" class="node">
<title>randomnumber_mod</title>
<g id="a_node8"><a xlink:href="randomnumber_mod.html" xlink:title="randomnumber_mod">
<polygon fill="gray" stroke="black" points="416,-161 284,-161 284,-125 416,-125 416,-161"/>
<text text-anchor="middle" x="350" y="-139.3" font-family="Times,serif" font-size="14.00">randomnumber_mod</text>
</a>
</g>
</g>
<!-- diffusion_mod&#45;&gt;randomnumber_mod -->
<g id="edge7" class="edge">
<title>diffusion_mod&#45;&gt;randomnumber_mod</title>
<path fill="none" stroke="black" d="M318.49,-628.77C340.84,-603.53 378,-554.05 378,-504 378,-504 378,-504 378,-286 378,-245.27 366.77,-199.19 358.54,-170.86"/>
<polygon fill="black" stroke="black" points="361.89,-169.85 355.67,-161.27 355.18,-171.86 361.89,-169.85"/>
</g>
<!-- utilities_mod -->
<g id="node9" class="node">
<title>utilities_mod</title>
<g id="a_node9"><a xlink:href="../modules/utilities_mod.svg" xlink:title="utilities_mod">
<polygon fill="none" stroke="red" points="488.5,-89 399.5,-89 399.5,-53 488.5,-53 488.5,-89"/>
<text text-anchor="middle" x="444" y="-67.3" font-family="Times,serif" font-size="14.00">utilities_mod</text>
</a>
</g>
</g>
<!-- diffusion_mod&#45;&gt;utilities_mod -->
<g id="edge8" class="edge">
<title>diffusion_mod&#45;&gt;utilities_mod</title>
<path fill="none" stroke="black" d="M338.94,-628.95C381.01,-606.69 444,-563.44 444,-504 444,-504 444,-504 444,-214 444,-174 444,-127.65 444,-99.08"/>
<polygon fill="black" stroke="black" points="447.5,-99.05 444,-89.05 440.5,-99.05 447.5,-99.05"/>
</g>
<!-- verticalcoord_mod -->
<g id="node10" class="node">
<title>verticalcoord_mod</title>
<g id="a_node10"><a xlink:href="../modules/verticalcoord_mod.svg" xlink:title="verticalcoord_mod">
<polygon fill="none" stroke="red" points="592,-593 472,-593 472,-557 592,-557 592,-593"/>
<text text-anchor="middle" x="532" y="-571.3" font-family="Times,serif" font-size="14.00">verticalcoord_mod</text>
</a>
</g>
</g>
<!-- diffusion_mod&#45;&gt;verticalcoord_mod -->
<g id="edge9" class="edge">
<title>diffusion_mod&#45;&gt;verticalcoord_mod</title>
<path fill="none" stroke="black" d="M350.22,-631.33C383.83,-621.09 429.1,-607.32 466.05,-596.07"/>
<polygon fill="black" stroke="black" points="467.19,-599.38 475.74,-593.12 465.16,-592.69 467.19,-599.38"/>
</g>
</g>
</svg>
