<?xml version="1.0" encoding="UTF-8" standalone="no"?>
<!DOCTYPE svg PUBLIC "-//W3C//DTD SVG 1.1//EN"
 "http://www.w3.org/Graphics/SVG/1.1/DTD/svg11.dtd">
<!-- Generated by graphviz version 3.0.0 (20220315.2325)
 -->
<!-- Title: earthConstants_mod Pages: 1 -->
<svg width="1937pt" height="673pt"
 viewBox="0.00 0.00 1937.00 673.00" xmlns="http://www.w3.org/2000/svg" xmlns:xlink="http://www.w3.org/1999/xlink">
<g id="graph0" class="graph" transform="scale(1 1) rotate(0) translate(4 669)">
<title>earthConstants_mod</title>
<polygon fill="white" stroke="transparent" points="-4,4 -4,-669 1933,-669 1933,4 -4,4"/>
<text text-anchor="middle" x="964.5" y="-649.8" font-family="Times,serif" font-size="14.00">Blue boxes indicate modules with reverse dependencies not shown</text>
<text text-anchor="middle" x="964.5" y="-634.8" font-family="Times,serif" font-size="14.00">Higher level reverse dependencies can be shown by clicking on a blue box</text>
<text text-anchor="middle" x="964.5" y="-619.8" font-family="Times,serif" font-size="14.00">Green boxes are programs</text>
<!-- earthConstants_mod -->
<g id="node1" class="node">
<title>earthConstants_mod</title>
<g id="a_node1"><a xlink:href="earthConstants_mod.html" xlink:title="earthConstants_mod">
<polygon fill="none" stroke="black" points="1071,-36 942,-36 942,0 1071,0 1071,-36"/>
<text text-anchor="middle" x="1006.5" y="-14.3" font-family="Times,serif" font-size="14.00">earthConstants_mod</text>
</a>
</g>
</g>
<!-- advection_mod -->
<g id="node2" class="node">
<title>advection_mod</title>
<g id="a_node2"><a xlink:href="../modules/advection_mod_rev.svg" xlink:title="advection_mod">
<polygon fill="none" stroke="blue" points="101,-108 0,-108 0,-72 101,-72 101,-108"/>
<text text-anchor="middle" x="50.5" y="-86.3" font-family="Times,serif" font-size="14.00">advection_mod</text>
</a>
</g>
</g>
<!-- advection_mod&#45;&gt;earthConstants_mod -->
<g id="edge1" class="edge">
<title>advection_mod&#45;&gt;earthConstants_mod</title>
<path fill="none" stroke="black" d="M109.23,-73.09C111.34,-72.69 113.43,-72.33 115.5,-72 421.96,-23.29 794.16,-18.36 941.74,-18.52"/>
<ellipse fill="black" stroke="black" cx="104.96" cy="-73.96" rx="4" ry="4"/>
</g>
<!-- bcovarsetupchem_mod -->
<g id="node3" class="node">
<title>bcovarsetupchem_mod</title>
<g id="a_node3"><a xlink:href="../modules/bcovarsetupchem_mod_rev.svg" xlink:title="bcovarsetupchem_mod">
<polygon fill="none" stroke="blue" points="170,-180 27,-180 27,-144 170,-144 170,-180"/>
<text text-anchor="middle" x="98.5" y="-158.3" font-family="Times,serif" font-size="14.00">bcovarsetupchem_mod</text>
</a>
</g>
</g>
<!-- bcovarsetupchem_mod&#45;&gt;earthConstants_mod -->
<g id="edge2" class="edge">
<title>bcovarsetupchem_mod&#45;&gt;earthConstants_mod</title>
<path fill="none" stroke="black" d="M113.86,-137.08C128.99,-115.83 154.19,-86.03 184.5,-72 252.47,-40.54 759.7,-25.08 941.72,-20.5"/>
<ellipse fill="black" stroke="black" cx="111.4" cy="-140.63" rx="4" ry="4"/>
</g>
<!-- bmatrixhi_mod -->
<g id="node4" class="node">
<title>bmatrixhi_mod</title>
<g id="a_node4"><a xlink:href="../modules/bmatrixhi_mod_rev.svg" xlink:title="bmatrixhi_mod">
<polygon fill="none" stroke="blue" points="208.5,-252 106.5,-252 106.5,-216 208.5,-216 208.5,-252"/>
<text text-anchor="middle" x="157.5" y="-230.3" font-family="Times,serif" font-size="14.00">bmatrixhi_mod</text>
</a>
</g>
</g>
<!-- bmatrixhi_mod&#45;&gt;earthConstants_mod -->
<g id="edge3" class="edge">
<title>bmatrixhi_mod&#45;&gt;earthConstants_mod</title>
<path fill="none" stroke="black" d="M167.26,-208.35C185.04,-163.51 221.03,-73.06 222.5,-72 280.11,-30.24 764.5,-21.34 941.81,-19.48"/>
<ellipse fill="black" stroke="black" cx="165.74" cy="-212.19" rx="4" ry="4"/>
</g>
<!-- burpread_mod -->
<g id="node5" class="node">
<title>burpread_mod</title>
<g id="a_node5"><a xlink:href="../modules/burpread_mod_rev.svg" xlink:title="burpread_mod">
<polygon fill="none" stroke="blue" points="246,-324 149,-324 149,-288 246,-288 246,-324"/>
<text text-anchor="middle" x="197.5" y="-302.3" font-family="Times,serif" font-size="14.00">burpread_mod</text>
</a>
</g>
</g>
<!-- burpread_mod&#45;&gt;earthConstants_mod -->
<g id="edge4" class="edge">
<title>burpread_mod&#45;&gt;earthConstants_mod</title>
<path fill="none" stroke="black" d="M207.72,-279.88C211.08,-271.14 214.67,-261.21 217.5,-252 241.62,-173.37 197.78,-125.21 260.5,-72 311.86,-28.42 770.07,-20.67 941.85,-19.29"/>
<ellipse fill="black" stroke="black" cx="206.19" cy="-283.8" rx="4" ry="4"/>
</g>
<!-- calcheightandpressure_mod -->
<g id="node6" class="node">
<title>calcheightandpressure_mod</title>
<g id="a_node6"><a xlink:href="../modules/calcheightandpressure_mod_rev.svg" xlink:title="calcheightandpressure_mod">
<polygon fill="none" stroke="blue" points="284.5,-396 116.5,-396 116.5,-360 284.5,-360 284.5,-396"/>
<text text-anchor="middle" x="200.5" y="-374.3" font-family="Times,serif" font-size="14.00">calcheightandpressure_mod</text>
</a>
</g>
</g>
<!-- calcheightandpressure_mod&#45;&gt;earthConstants_mod -->
<g id="edge5" class="edge">
<title>calcheightandpressure_mod&#45;&gt;earthConstants_mod</title>
<path fill="none" stroke="black" d="M229.31,-354.54C238.62,-345.92 248.16,-335.39 254.5,-324 274.22,-288.58 274.5,-275.54 274.5,-235 274.5,-235 274.5,-235 274.5,-161 274.5,-120.03 266.93,-98.11 298.5,-72 347.44,-31.52 776.57,-21.87 941.92,-19.64"/>
<ellipse fill="black" stroke="black" cx="226.25" cy="-357.26" rx="4" ry="4"/>
</g>
<!-- calcstatsglb_mod -->
<g id="node7" class="node">
<title>calcstatsglb_mod</title>
<g id="a_node7"><a xlink:href="../modules/calcstatsglb_mod_rev.svg" xlink:title="calcstatsglb_mod">
<polygon fill="none" stroke="blue" points="322,-468 211,-468 211,-432 322,-432 322,-468"/>
<text text-anchor="middle" x="266.5" y="-446.3" font-family="Times,serif" font-size="14.00">calcstatsglb_mod</text>
</a>
</g>
</g>
<!-- calcstatsglb_mod&#45;&gt;earthConstants_mod -->
<g id="edge6" class="edge">
<title>calcstatsglb_mod&#45;&gt;earthConstants_mod</title>
<path fill="none" stroke="black" d="M280.51,-424.79C285.17,-415.95 290.05,-405.73 293.5,-396 307.02,-357.88 312.5,-347.45 312.5,-307 312.5,-307 312.5,-307 312.5,-161 312.5,-120.03 304.99,-98.18 336.5,-72 382.42,-33.86 783,-22.83 941.93,-19.94"/>
<ellipse fill="black" stroke="black" cx="278.59" cy="-428.33" rx="4" ry="4"/>
</g>
<!-- calcstatslam_mod -->
<g id="node8" class="node">
<title>calcstatslam_mod</title>
<g id="a_node8"><a xlink:href="../modules/calcstatslam_mod_rev.svg" xlink:title="calcstatslam_mod">
<polygon fill="none" stroke="blue" points="360,-540 245,-540 245,-504 360,-504 360,-540"/>
<text text-anchor="middle" x="302.5" y="-518.3" font-family="Times,serif" font-size="14.00">calcstatslam_mod</text>
</a>
</g>
</g>
<!-- calcstatslam_mod&#45;&gt;earthConstants_mod -->
<g id="edge7" class="edge">
<title>calcstatslam_mod&#45;&gt;earthConstants_mod</title>
<path fill="none" stroke="black" d="M317.01,-496.82C321.84,-487.99 326.9,-477.76 330.5,-468 344.54,-429.97 350.5,-419.54 350.5,-379 350.5,-379 350.5,-379 350.5,-161 350.5,-120.03 343.05,-98.25 374.5,-72 417.4,-36.19 789.66,-23.85 941.97,-20.27"/>
<ellipse fill="black" stroke="black" cx="315" cy="-500.39" rx="4" ry="4"/>
</g>
<!-- diffusion_mod -->
<g id="node9" class="node">
<title>diffusion_mod</title>
<g id="a_node9"><a xlink:href="../modules/diffusion_mod_rev.svg" xlink:title="diffusion_mod">
<polygon fill="none" stroke="blue" points="436.5,-612 340.5,-612 340.5,-576 436.5,-576 436.5,-612"/>
<text text-anchor="middle" x="388.5" y="-590.3" font-family="Times,serif" font-size="14.00">diffusion_mod</text>
</a>
</g>
</g>
<!-- diffusion_mod&#45;&gt;earthConstants_mod -->
<g id="edge8" class="edge">
<title>diffusion_mod&#45;&gt;earthConstants_mod</title>
<path fill="none" stroke="black" d="M388.5,-567.78C388.5,-539.39 388.5,-491.89 388.5,-451 388.5,-451 388.5,-451 388.5,-161 388.5,-120.64 376.42,-98.9 406.5,-72 445.77,-36.88 794.94,-24.21 941.84,-20.41"/>
<ellipse fill="black" stroke="black" cx="388.5" cy="-571.95" rx="4" ry="4"/>
</g>
<!-- ensembleobservations_mod -->
<g id="node10" class="node">
<title>ensembleobservations_mod</title>
<g id="a_node10"><a xlink:href="../modules/ensembleobservations_mod_rev.svg" xlink:title="ensembleobservations_mod">
<polygon fill="none" stroke="blue" points="585,-108 416,-108 416,-72 585,-72 585,-108"/>
<text text-anchor="middle" x="500.5" y="-86.3" font-family="Times,serif" font-size="14.00">ensembleobservations_mod</text>
</a>
</g>
</g>
<!-- ensembleobservations_mod&#45;&gt;earthConstants_mod -->
<g id="edge9" class="edge">
<title>ensembleobservations_mod&#45;&gt;earthConstants_mod</title>
<path fill="none" stroke="black" d="M593.15,-72.82C594.95,-72.54 596.73,-72.27 598.5,-72 719.44,-53.66 861.15,-36.14 941.72,-26.55"/>
<ellipse fill="black" stroke="black" cx="589.14" cy="-73.45" rx="4" ry="4"/>
</g>
<!-- globalspectraltransform_mod -->
<g id="node11" class="node">
<title>globalspectraltransform_mod</title>
<g id="a_node11"><a xlink:href="../modules/globalspectraltransform_mod_rev.svg" xlink:title="globalspectraltransform_mod">
<polygon fill="none" stroke="blue" points="622.5,-180 444.5,-180 444.5,-144 622.5,-144 622.5,-180"/>
<text text-anchor="middle" x="533.5" y="-158.3" font-family="Times,serif" font-size="14.00">globalspectraltransform_mod</text>
</a>
</g>
</g>
<!-- globalspectraltransform_mod&#45;&gt;earthConstants_mod -->
<g id="edge10" class="edge">
<title>globalspectraltransform_mod&#45;&gt;earthConstants_mod</title>
<path fill="none" stroke="black" d="M559.34,-138.36C589.1,-112.34 634.2,-73.05 636.5,-72 689.57,-47.82 850.53,-31.47 941.71,-23.87"/>
<ellipse fill="black" stroke="black" cx="556.26" cy="-141.06" rx="4" ry="4"/>
</g>
<!-- gps_mod -->
<g id="node12" class="node">
<title>gps_mod</title>
<g id="a_node12"><a xlink:href="../modules/gps_mod_rev.svg" xlink:title="gps_mod">
<polygon fill="none" stroke="blue" points="660.5,-252 592.5,-252 592.5,-216 660.5,-216 660.5,-252"/>
<text text-anchor="middle" x="626.5" y="-230.3" font-family="Times,serif" font-size="14.00">gps_mod</text>
</a>
</g>
</g>
<!-- gps_mod&#45;&gt;earthConstants_mod -->
<g id="edge11" class="edge">
<title>gps_mod&#45;&gt;earthConstants_mod</title>
<path fill="none" stroke="black" d="M630.7,-207.65C637.96,-166.98 654.07,-89.9 674.5,-72 713.29,-38 856.78,-25.68 941.9,-21.32"/>
<ellipse fill="black" stroke="black" cx="629.97" cy="-211.8" rx="4" ry="4"/>
</g>
<!-- gridstatevector_mod -->
<g id="node13" class="node">
<title>gridstatevector_mod</title>
<g id="a_node13"><a xlink:href="../modules/gridstatevector_mod_rev.svg" xlink:title="gridstatevector_mod">
<polygon fill="none" stroke="blue" points="698.5,-324 568.5,-324 568.5,-288 698.5,-288 698.5,-324"/>
<text text-anchor="middle" x="633.5" y="-302.3" font-family="Times,serif" font-size="14.00">gridstatevector_mod</text>
</a>
</g>
</g>
<!-- gridstatevector_mod&#45;&gt;earthConstants_mod -->
<g id="edge12" class="edge">
<title>gridstatevector_mod&#45;&gt;earthConstants_mod</title>
<path fill="none" stroke="black" d="M652.42,-281.13C658.61,-272.37 665.04,-262.12 669.5,-252 702.71,-176.75 652.73,-128.51 712.5,-72 744.77,-41.49 865.43,-28.08 941.78,-22.55"/>
<ellipse fill="black" stroke="black" cx="649.9" cy="-284.57" rx="4" ry="4"/>
</g>
<!-- gridvariabletransforms_mod -->
<g id="node14" class="node">
<title>gridvariabletransforms_mod</title>
<g id="a_node14"><a xlink:href="../modules/gridvariabletransforms_mod_rev.svg" xlink:title="gridvariabletransforms_mod">
<polygon fill="none" stroke="blue" points="736,-396 561,-396 561,-360 736,-360 736,-396"/>
<text text-anchor="middle" x="648.5" y="-374.3" font-family="Times,serif" font-size="14.00">gridvariabletransforms_mod</text>
</a>
</g>
</g>
<!-- gridvariabletransforms_mod&#45;&gt;earthConstants_mod -->
<g id="edge13" class="edge">
<title>gridvariabletransforms_mod&#45;&gt;earthConstants_mod</title>
<path fill="none" stroke="black" d="M680.29,-354.84C690.4,-346.3 700.7,-335.74 707.5,-324 727.76,-288.99 726.5,-275.45 726.5,-235 726.5,-235 726.5,-235 726.5,-161 726.5,-120.03 720.69,-100.1 750.5,-72 777.63,-46.44 875.33,-31.86 941.87,-24.69"/>
<ellipse fill="black" stroke="black" cx="677.16" cy="-357.38" rx="4" ry="4"/>
</g>
<!-- horizontalcoord_mod -->
<g id="node15" class="node">
<title>horizontalcoord_mod</title>
<g id="a_node15"><a xlink:href="../modules/horizontalcoord_mod_rev.svg" xlink:title="horizontalcoord_mod">
<polygon fill="none" stroke="blue" points="774.5,-468 640.5,-468 640.5,-432 774.5,-432 774.5,-468"/>
<text text-anchor="middle" x="707.5" y="-446.3" font-family="Times,serif" font-size="14.00">horizontalcoord_mod</text>
</a>
</g>
</g>
<!-- horizontalcoord_mod&#45;&gt;earthConstants_mod -->
<g id="edge14" class="edge">
<title>horizontalcoord_mod&#45;&gt;earthConstants_mod</title>
<path fill="none" stroke="black" d="M726.85,-425.49C733.28,-416.69 739.95,-406.31 744.5,-396 760.86,-358.9 764.5,-347.54 764.5,-307 764.5,-307 764.5,-307 764.5,-161 764.5,-120.03 759.17,-100.61 788.5,-72 810.14,-50.89 885.71,-35.89 941.84,-27.36"/>
<ellipse fill="black" stroke="black" cx="724.43" cy="-428.7" rx="4" ry="4"/>
</g>
<!-- kdtree2_mod -->
<g id="node16" class="node">
<title>kdtree2_mod</title>
<g id="a_node16"><a xlink:href="../modules/kdtree2_mod_rev.svg" xlink:title="kdtree2_mod">
<polygon fill="none" stroke="blue" points="812,-540 723,-540 723,-504 812,-504 812,-540"/>
<text text-anchor="middle" x="767.5" y="-518.3" font-family="Times,serif" font-size="14.00">kdtree2_mod</text>
</a>
</g>
</g>
<!-- kdtree2_mod&#45;&gt;earthConstants_mod -->
<g id="edge15" class="edge">
<title>kdtree2_mod&#45;&gt;earthConstants_mod</title>
<path fill="none" stroke="black" d="M777.5,-496.14C787.85,-468.14 802.5,-421.06 802.5,-379 802.5,-379 802.5,-379 802.5,-161 802.5,-120.03 797.87,-101.3 826.5,-72 856.56,-41.25 903.47,-28.12 941.87,-22.61"/>
<ellipse fill="black" stroke="black" cx="776" cy="-500.11" rx="4" ry="4"/>
</g>
<!-- lamanalysisgridtransforms_mod -->
<g id="node17" class="node">
<title>lamanalysisgridtransforms_mod</title>
<g id="a_node17"><a xlink:href="../modules/lamanalysisgridtransforms_mod_rev.svg" xlink:title="lamanalysisgridtransforms_mod">
<polygon fill="none" stroke="blue" points="938,-612 743,-612 743,-576 938,-576 938,-612"/>
<text text-anchor="middle" x="840.5" y="-590.3" font-family="Times,serif" font-size="14.00">lamanalysisgridtransforms_mod</text>
</a>
</g>
</g>
<!-- lamanalysisgridtransforms_mod&#45;&gt;earthConstants_mod -->
<g id="edge16" class="edge">
<title>lamanalysisgridtransforms_mod&#45;&gt;earthConstants_mod</title>
<path fill="none" stroke="black" d="M840.5,-567.78C840.5,-539.39 840.5,-491.89 840.5,-451 840.5,-451 840.5,-451 840.5,-161 840.5,-120.55 832.9,-102.47 859.5,-72 880.28,-48.19 912.59,-35.07 941.63,-27.85"/>
<ellipse fill="black" stroke="black" cx="840.5" cy="-571.95" rx="4" ry="4"/>
</g>
<!-- lamspectraltransform_mod -->
<g id="node18" class="node">
<title>lamspectraltransform_mod</title>
<g id="a_node18"><a xlink:href="../modules/lamspectraltransform_mod_rev.svg" xlink:title="lamspectraltransform_mod">
<polygon fill="none" stroke="blue" points="1034,-108 869,-108 869,-72 1034,-72 1034,-108"/>
<text text-anchor="middle" x="951.5" y="-86.3" font-family="Times,serif" font-size="14.00">lamspectraltransform_mod</text>
</a>
</g>
</g>
<!-- lamspectraltransform_mod&#45;&gt;earthConstants_mod -->
<g id="edge17" class="edge">
<title>lamspectraltransform_mod&#45;&gt;earthConstants_mod</title>
<path fill="none" stroke="black" d="M970.11,-65.31C977.64,-55.73 986.16,-44.89 993.06,-36.1"/>
<ellipse fill="black" stroke="black" cx="967.57" cy="-68.55" rx="4" ry="4"/>
</g>
<!-- localizationfunction_mod -->
<g id="node19" class="node">
<title>localizationfunction_mod</title>
<g id="a_node19"><a xlink:href="../modules/localizationfunction_mod_rev.svg" xlink:title="localizationfunction_mod">
<polygon fill="none" stroke="blue" points="1072.5,-180 916.5,-180 916.5,-144 1072.5,-144 1072.5,-180"/>
<text text-anchor="middle" x="994.5" y="-158.3" font-family="Times,serif" font-size="14.00">localizationfunction_mod</text>
</a>
</g>
</g>
<!-- localizationfunction_mod&#45;&gt;earthConstants_mod -->
<g id="edge18" class="edge">
<title>localizationfunction_mod&#45;&gt;earthConstants_mod</title>
<path fill="none" stroke="black" d="M1022.38,-137.7C1030.45,-129.27 1038.23,-119.08 1042.5,-108 1048.26,-93.07 1047.2,-87.29 1042.5,-72 1038.45,-58.82 1029.87,-45.97 1022.11,-36.23"/>
<ellipse fill="black" stroke="black" cx="1019.06" cy="-140.98" rx="4" ry="4"/>
</g>
<!-- localizationspectral_mod -->
<g id="node20" class="node">
<title>localizationspectral_mod</title>
<g id="a_node20"><a xlink:href="../modules/localizationspectral_mod_rev.svg" xlink:title="localizationspectral_mod">
<polygon fill="none" stroke="blue" points="1110,-252 957,-252 957,-216 1110,-216 1110,-252"/>
<text text-anchor="middle" x="1033.5" y="-230.3" font-family="Times,serif" font-size="14.00">localizationspectral_mod</text>
</a>
</g>
</g>
<!-- localizationspectral_mod&#45;&gt;earthConstants_mod -->
<g id="edge19" class="edge">
<title>localizationspectral_mod&#45;&gt;earthConstants_mod</title>
<path fill="none" stroke="black" d="M1061.38,-209.7C1069.45,-201.27 1077.23,-191.08 1081.5,-180 1087.26,-165.07 1083.96,-159.81 1081.5,-144 1076.33,-110.81 1075.84,-100.77 1058.5,-72 1050.31,-58.42 1037.99,-45.66 1027.39,-36.06"/>
<ellipse fill="black" stroke="black" cx="1058.06" cy="-212.98" rx="4" ry="4"/>
</g>
<!-- menetrierdiag_mod -->
<g id="node21" class="node">
<title>menetrierdiag_mod</title>
<g id="a_node21"><a xlink:href="../modules/menetrierdiag_mod_rev.svg" xlink:title="menetrierdiag_mod">
<polygon fill="none" stroke="blue" points="1148,-324 1023,-324 1023,-288 1148,-288 1148,-324"/>
<text text-anchor="middle" x="1085.5" y="-302.3" font-family="Times,serif" font-size="14.00">menetrierdiag_mod</text>
</a>
</g>
</g>
<!-- menetrierdiag_mod&#45;&gt;earthConstants_mod -->
<g id="edge20" class="edge">
<title>menetrierdiag_mod&#45;&gt;earthConstants_mod</title>
<path fill="none" stroke="black" d="M1104.39,-280.98C1110.08,-272.34 1115.58,-262.2 1118.5,-252 1135.18,-193.64 1097.09,-94.61 1081.5,-72 1071.18,-57.04 1055.18,-44.89 1040.61,-36.02"/>
<ellipse fill="black" stroke="black" cx="1102.1" cy="-284.28" rx="4" ry="4"/>
</g>
<!-- obserrors_mod -->
<g id="node22" class="node">
<title>obserrors_mod</title>
<g id="a_node22"><a xlink:href="../modules/obserrors_mod_rev.svg" xlink:title="obserrors_mod">
<polygon fill="none" stroke="blue" points="1186,-396 1087,-396 1087,-360 1186,-360 1186,-396"/>
<text text-anchor="middle" x="1136.5" y="-374.3" font-family="Times,serif" font-size="14.00">obserrors_mod</text>
</a>
</g>
</g>
<!-- obserrors_mod&#45;&gt;earthConstants_mod -->
<g id="edge21" class="edge">
<title>obserrors_mod&#45;&gt;earthConstants_mod</title>
<path fill="none" stroke="black" d="M1147.93,-352.28C1159.75,-324.4 1176.5,-277.43 1176.5,-235 1176.5,-235 1176.5,-235 1176.5,-161 1176.5,-97.55 1105.88,-56.9 1055.67,-36.02"/>
<ellipse fill="black" stroke="black" cx="1146.19" cy="-356.28" rx="4" ry="4"/>
</g>
<!-- obsfilter_mod -->
<g id="node23" class="node">
<title>obsfilter_mod</title>
<g id="a_node23"><a xlink:href="../modules/obsfilter_mod_rev.svg" xlink:title="obsfilter_mod">
<polygon fill="none" stroke="blue" points="1224.5,-468 1132.5,-468 1132.5,-432 1224.5,-432 1224.5,-468"/>
<text text-anchor="middle" x="1178.5" y="-446.3" font-family="Times,serif" font-size="14.00">obsfilter_mod</text>
</a>
</g>
</g>
<!-- obsfilter_mod&#45;&gt;earthConstants_mod -->
<g id="edge22" class="edge">
<title>obsfilter_mod&#45;&gt;earthConstants_mod</title>
<path fill="none" stroke="black" d="M1188.79,-424.16C1199.43,-396.19 1214.5,-349.13 1214.5,-307 1214.5,-307 1214.5,-307 1214.5,-161 1214.5,-90.6 1132.23,-52.59 1071.17,-34.07"/>
<ellipse fill="black" stroke="black" cx="1187.24" cy="-428.14" rx="4" ry="4"/>
</g>
<!-- obsoperatorschem_mod -->
<g id="node24" class="node">
<title>obsoperatorschem_mod</title>
<g id="a_node24"><a xlink:href="../modules/obsoperatorschem_mod_rev.svg" xlink:title="obsoperatorschem_mod">
<polygon fill="none" stroke="blue" points="1262,-540 1115,-540 1115,-504 1262,-504 1262,-540"/>
<text text-anchor="middle" x="1188.5" y="-518.3" font-family="Times,serif" font-size="14.00">obsoperatorschem_mod</text>
</a>
</g>
</g>
<!-- obsoperatorschem_mod&#45;&gt;earthConstants_mod -->
<g id="edge23" class="edge">
<title>obsoperatorschem_mod&#45;&gt;earthConstants_mod</title>
<path fill="none" stroke="black" d="M1212.38,-497.95C1220.18,-489.24 1228.18,-478.81 1233.5,-468 1251.35,-431.71 1252.5,-419.45 1252.5,-379 1252.5,-379 1252.5,-379 1252.5,-161 1252.5,-77.17 1144.02,-42.06 1071.13,-27.93"/>
<ellipse fill="black" stroke="black" cx="1209.51" cy="-501.04" rx="4" ry="4"/>
</g>
<!-- obsoperators_mod -->
<g id="node25" class="node">
<title>obsoperators_mod</title>
<g id="a_node25"><a xlink:href="../modules/obsoperators_mod_rev.svg" xlink:title="obsoperators_mod">
<polygon fill="none" stroke="blue" points="1349,-612 1232,-612 1232,-576 1349,-576 1349,-612"/>
<text text-anchor="middle" x="1290.5" y="-590.3" font-family="Times,serif" font-size="14.00">obsoperators_mod</text>
</a>
</g>
</g>
<!-- obsoperators_mod&#45;&gt;earthConstants_mod -->
<g id="edge24" class="edge">
<title>obsoperators_mod&#45;&gt;earthConstants_mod</title>
<path fill="none" stroke="black" d="M1290.5,-567.78C1290.5,-539.39 1290.5,-491.89 1290.5,-451 1290.5,-451 1290.5,-451 1290.5,-161 1290.5,-63.57 1155.12,-32.98 1071.3,-23.39"/>
<ellipse fill="black" stroke="black" cx="1290.5" cy="-571.95" rx="4" ry="4"/>
</g>
<!-- obsspaceerrorstddev_mod -->
<g id="node26" class="node">
<title>obsspaceerrorstddev_mod</title>
<g id="a_node26"><a xlink:href="../modules/obsspaceerrorstddev_mod_rev.svg" xlink:title="obsspaceerrorstddev_mod">
<polygon fill="none" stroke="blue" points="1477,-108 1318,-108 1318,-72 1477,-72 1477,-108"/>
<text text-anchor="middle" x="1397.5" y="-86.3" font-family="Times,serif" font-size="14.00">obsspaceerrorstddev_mod</text>
</a>
</g>
</g>
<!-- obsspaceerrorstddev_mod&#45;&gt;earthConstants_mod -->
<g id="edge25" class="edge">
<title>obsspaceerrorstddev_mod&#45;&gt;earthConstants_mod</title>
<path fill="none" stroke="black" d="M1309.87,-72.97C1308.06,-72.64 1306.27,-72.32 1304.5,-72 1224.08,-57.5 1131.41,-41.06 1071.04,-30.39"/>
<ellipse fill="black" stroke="black" cx="1313.92" cy="-73.7" rx="4" ry="4"/>
</g>
<!-- obsvariabletransforms_mod -->
<g id="node27" class="node">
<title>obsvariabletransforms_mod</title>
<g id="a_node27"><a xlink:href="../modules/obsvariabletransforms_mod_rev.svg" xlink:title="obsvariabletransforms_mod">
<polygon fill="none" stroke="blue" points="1514.5,-180 1344.5,-180 1344.5,-144 1514.5,-144 1514.5,-180"/>
<text text-anchor="middle" x="1429.5" y="-158.3" font-family="Times,serif" font-size="14.00">obsvariabletransforms_mod</text>
</a>
</g>
</g>
<!-- obsvariabletransforms_mod&#45;&gt;earthConstants_mod -->
<g id="edge26" class="edge">
<title>obsvariabletransforms_mod&#45;&gt;earthConstants_mod</title>
<path fill="none" stroke="black" d="M1460.09,-138.47C1482.08,-119.6 1504.88,-92.53 1486.5,-72 1459.27,-41.59 1195.68,-26.78 1071.11,-21.43"/>
<ellipse fill="black" stroke="black" cx="1456.73" cy="-141.26" rx="4" ry="4"/>
</g>
<!-- physicsfunctions_mod -->
<g id="node28" class="node">
<title>physicsfunctions_mod</title>
<g id="a_node28"><a xlink:href="../modules/physicsfunctions_mod_rev.svg" xlink:title="physicsfunctions_mod">
<polygon fill="none" stroke="blue" points="1552,-252 1413,-252 1413,-216 1552,-216 1552,-252"/>
<text text-anchor="middle" x="1482.5" y="-230.3" font-family="Times,serif" font-size="14.00">physicsfunctions_mod</text>
</a>
</g>
</g>
<!-- physicsfunctions_mod&#45;&gt;earthConstants_mod -->
<g id="edge27" class="edge">
<title>physicsfunctions_mod&#45;&gt;earthConstants_mod</title>
<path fill="none" stroke="black" d="M1506.03,-209.48C1513.05,-200.92 1519.84,-190.7 1523.5,-180 1539.28,-133.81 1540.74,-103.56 1503.5,-72 1471.15,-44.58 1198.36,-28.13 1071.23,-21.89"/>
<ellipse fill="black" stroke="black" cx="1503.29" cy="-212.65" rx="4" ry="4"/>
</g>
<!-- radialvelocity_mod -->
<g id="node29" class="node">
<title>radialvelocity_mod</title>
<g id="a_node29"><a xlink:href="../modules/radialvelocity_mod_rev.svg" xlink:title="radialvelocity_mod">
<polygon fill="none" stroke="blue" points="1590.5,-324 1468.5,-324 1468.5,-288 1590.5,-288 1590.5,-324"/>
<text text-anchor="middle" x="1529.5" y="-302.3" font-family="Times,serif" font-size="14.00">radialvelocity_mod</text>
</a>
</g>
</g>
<!-- radialvelocity_mod&#45;&gt;earthConstants_mod -->
<g id="edge28" class="edge">
<title>radialvelocity_mod&#45;&gt;earthConstants_mod</title>
<path fill="none" stroke="black" d="M1547.55,-281.33C1553.17,-272.59 1558.63,-262.29 1561.5,-252 1577.66,-193.97 1551.93,-91.17 1530.5,-72 1496.87,-41.92 1203.61,-26.72 1071.06,-21.33"/>
<ellipse fill="black" stroke="black" cx="1545.3" cy="-284.66" rx="4" ry="4"/>
</g>
<!-- slantprofilelatlon_mod -->
<g id="node30" class="node">
<title>slantprofilelatlon_mod</title>
<g id="a_node30"><a xlink:href="../modules/slantprofilelatlon_mod_rev.svg" xlink:title="slantprofilelatlon_mod">
<polygon fill="none" stroke="blue" points="1628.5,-396 1488.5,-396 1488.5,-360 1628.5,-360 1628.5,-396"/>
<text text-anchor="middle" x="1558.5" y="-374.3" font-family="Times,serif" font-size="14.00">slantprofilelatlon_mod</text>
</a>
</g>
</g>
<!-- slantprofilelatlon_mod&#45;&gt;earthConstants_mod -->
<g id="edge29" class="edge">
<title>slantprofilelatlon_mod&#45;&gt;earthConstants_mod</title>
<path fill="none" stroke="black" d="M1580.42,-353.39C1587.45,-344.7 1594.66,-334.43 1599.5,-324 1616.52,-287.31 1618.5,-275.45 1618.5,-235 1618.5,-235 1618.5,-235 1618.5,-161 1618.5,-112.02 1596.05,-96.27 1553.5,-72 1472.69,-25.92 1197.61,-19.29 1071.11,-18.74"/>
<ellipse fill="black" stroke="black" cx="1577.69" cy="-356.63" rx="4" ry="4"/>
</g>
<!-- statetocolumn_mod -->
<g id="node31" class="node">
<title>statetocolumn_mod</title>
<g id="a_node31"><a xlink:href="../modules/statetocolumn_mod_rev.svg" xlink:title="statetocolumn_mod">
<polygon fill="none" stroke="blue" points="1666,-468 1541,-468 1541,-432 1666,-432 1666,-468"/>
<text text-anchor="middle" x="1603.5" y="-446.3" font-family="Times,serif" font-size="14.00">statetocolumn_mod</text>
</a>
</g>
</g>
<!-- statetocolumn_mod&#45;&gt;earthConstants_mod -->
<g id="edge30" class="edge">
<title>statetocolumn_mod&#45;&gt;earthConstants_mod</title>
<path fill="none" stroke="black" d="M1621.46,-425.05C1627.31,-416.29 1633.36,-406.05 1637.5,-396 1652.89,-358.6 1656.5,-347.45 1656.5,-307 1656.5,-307 1656.5,-307 1656.5,-161 1656.5,-112.02 1634.12,-96.13 1591.5,-72 1504.03,-22.48 1204.4,-17.8 1071.21,-18.26"/>
<ellipse fill="black" stroke="black" cx="1619.12" cy="-428.44" rx="4" ry="4"/>
</g>
<!-- thinning_mod -->
<g id="node32" class="node">
<title>thinning_mod</title>
<g id="a_node32"><a xlink:href="../modules/thinning_mod_rev.svg" xlink:title="thinning_mod">
<polygon fill="none" stroke="blue" points="1704,-540 1611,-540 1611,-504 1704,-504 1704,-540"/>
<text text-anchor="middle" x="1657.5" y="-518.3" font-family="Times,serif" font-size="14.00">thinning_mod</text>
</a>
</g>
</g>
<!-- thinning_mod&#45;&gt;earthConstants_mod -->
<g id="edge31" class="edge">
<title>thinning_mod&#45;&gt;earthConstants_mod</title>
<path fill="none" stroke="black" d="M1668.07,-496.19C1679.01,-468.24 1694.5,-421.2 1694.5,-379 1694.5,-379 1694.5,-379 1694.5,-161 1694.5,-112.02 1672.19,-96.02 1629.5,-72 1581.66,-45.09 1220.56,-27.62 1071.03,-21.47"/>
<ellipse fill="black" stroke="black" cx="1666.48" cy="-500.17" rx="4" ry="4"/>
</g>
<!-- tovsnl_mod -->
<g id="node33" class="node">
<title>tovsnl_mod</title>
<g id="a_node33"><a xlink:href="../modules/tovsnl_mod_rev.svg" xlink:title="tovsnl_mod">
<polygon fill="none" stroke="blue" points="1773,-612 1692,-612 1692,-576 1773,-576 1773,-612"/>
<text text-anchor="middle" x="1732.5" y="-590.3" font-family="Times,serif" font-size="14.00">tovsnl_mod</text>
</a>
</g>
</g>
<!-- tovsnl_mod&#45;&gt;earthConstants_mod -->
<g id="edge32" class="edge">
<title>tovsnl_mod&#45;&gt;earthConstants_mod</title>
<path fill="none" stroke="black" d="M1732.5,-567.78C1732.5,-539.39 1732.5,-491.89 1732.5,-451 1732.5,-451 1732.5,-451 1732.5,-161 1732.5,-112.02 1710.25,-95.91 1667.5,-72 1616.29,-43.35 1227.42,-26.72 1071.18,-21.13"/>
<ellipse fill="black" stroke="black" cx="1732.5" cy="-571.95" rx="4" ry="4"/>
</g>
<!-- varqc_mod -->
<g id="node34" class="node">
<title>varqc_mod</title>
<g id="a_node34"><a xlink:href="../modules/varqc_mod_rev.svg" xlink:title="varqc_mod">
<polygon fill="none" stroke="blue" points="1838.5,-108 1760.5,-108 1760.5,-72 1838.5,-72 1838.5,-108"/>
<text text-anchor="middle" x="1799.5" y="-86.3" font-family="Times,serif" font-size="14.00">varqc_mod</text>
</a>
</g>
</g>
<!-- varqc_mod&#45;&gt;earthConstants_mod -->
<g id="edge33" class="edge">
<title>varqc_mod&#45;&gt;earthConstants_mod</title>
<path fill="none" stroke="black" d="M1752.55,-73.3C1750.51,-72.82 1748.49,-72.39 1746.5,-72 1500.22,-24.39 1200.39,-18.55 1071.02,-18.47"/>
<ellipse fill="black" stroke="black" cx="1756.54" cy="-74.32" rx="4" ry="4"/>
</g>
<!-- verticalmodes_mod -->
<g id="node35" class="node">
<title>verticalmodes_mod</title>
<g id="a_node35"><a xlink:href="../modules/verticalmodes_mod_rev.svg" xlink:title="verticalmodes_mod">
<polygon fill="none" stroke="blue" points="1929,-180 1804,-180 1804,-144 1929,-144 1929,-180"/>
<text text-anchor="middle" x="1866.5" y="-158.3" font-family="Times,serif" font-size="14.00">verticalmodes_mod</text>
</a>
</g>
</g>
<!-- verticalmodes_mod&#45;&gt;earthConstants_mod -->
<g id="edge34" class="edge">
<title>verticalmodes_mod&#45;&gt;earthConstants_mod</title>
<path fill="none" stroke="black" d="M1868.66,-135.67C1868.87,-115.23 1865.4,-87.44 1847.5,-72 1789.2,-21.72 1258.16,-18.29 1071.23,-18.66"/>
<ellipse fill="black" stroke="black" cx="1868.51" cy="-139.92" rx="4" ry="4"/>
</g>
</g>
</svg>
