<?xml version="1.0" encoding="UTF-8" standalone="no"?>
<!DOCTYPE svg PUBLIC "-//W3C//DTD SVG 1.1//EN"
 "http://www.w3.org/Graphics/SVG/1.1/DTD/svg11.dtd">
<!-- Generated by graphviz version 3.0.0 (20220315.2325)
 -->
<!-- Title: enkf_mod Pages: 1 -->
<svg width="1063pt" height="673pt"
 viewBox="0.00 0.00 1063.00 673.00" xmlns="http://www.w3.org/2000/svg" xmlns:xlink="http://www.w3.org/1999/xlink">
<g id="graph0" class="graph" transform="scale(1 1) rotate(0) translate(4 669)">
<title>enkf_mod</title>
<polygon fill="white" stroke="transparent" points="-4,4 -4,-669 1059,-669 1059,4 -4,4"/>
<text text-anchor="middle" x="527.5" y="-37.8" font-family="Times,serif" font-size="14.00">Red boxes indicate modules with dependencies not shown</text>
<text text-anchor="middle" x="527.5" y="-22.8" font-family="Times,serif" font-size="14.00">Lower level dependencies can be shown by clicking on a red box</text>
<text text-anchor="middle" x="527.5" y="-7.8" font-family="Times,serif" font-size="14.00">Shaded boxes indicate modules with no dependencies</text>
<!-- enkf_mod -->
<g id="node1" class="node">
<title>enkf_mod</title>
<g id="a_node1"><a xlink:href="enkf_mod.html" xlink:title="enkf_mod">
<polygon fill="none" stroke="black" points="592.5,-665 519.5,-665 519.5,-629 592.5,-629 592.5,-665"/>
<text text-anchor="middle" x="556" y="-643.3" font-family="Times,serif" font-size="14.00">enkf_mod</text>
</a>
</g>
</g>
<!-- calcheightandpressure_mod -->
<g id="node2" class="node">
<title>calcheightandpressure_mod</title>
<g id="a_node2"><a xlink:href="../modules/calcheightandpressure_mod.svg" xlink:title="calcheightandpressure_mod">
<polygon fill="none" stroke="red" points="168,-593 0,-593 0,-557 168,-557 168,-593"/>
<text text-anchor="middle" x="84" y="-571.3" font-family="Times,serif" font-size="14.00">calcheightandpressure_mod</text>
</a>
</g>
</g>
<!-- enkf_mod&#45;&gt;calcheightandpressure_mod -->
<g id="edge1" class="edge">
<title>enkf_mod&#45;&gt;calcheightandpressure_mod</title>
<path fill="none" stroke="black" d="M519.31,-641.19C452.25,-632.3 305.41,-612.44 182,-593 180.73,-592.8 179.45,-592.6 178.16,-592.39"/>
<polygon fill="black" stroke="black" points="178.6,-588.92 168.17,-590.77 177.48,-595.83 178.6,-588.92"/>
</g>
<!-- codeprecision_mod -->
<g id="node3" class="node">
<title>codeprecision_mod</title>
<g id="a_node3"><a xlink:href="codeprecision_mod.html" xlink:title="codeprecision_mod">
<polygon fill="gray" stroke="black" points="231.5,-521 108.5,-521 108.5,-485 231.5,-485 231.5,-521"/>
<text text-anchor="middle" x="170" y="-499.3" font-family="Times,serif" font-size="14.00">codeprecision_mod</text>
</a>
</g>
</g>
<!-- enkf_mod&#45;&gt;codeprecision_mod -->
<g id="edge2" class="edge">
<title>enkf_mod&#45;&gt;codeprecision_mod</title>
<path fill="none" stroke="black" d="M519.47,-642.89C447.93,-636.28 292.29,-619.3 246,-593 219.68,-578.05 198.26,-550.36 184.95,-529.83"/>
<polygon fill="black" stroke="black" points="187.85,-527.87 179.58,-521.24 181.92,-531.58 187.85,-527.87"/>
</g>
<!-- codtyp_mod -->
<g id="node4" class="node">
<title>codtyp_mod</title>
<g id="a_node4"><a xlink:href="../modules/codtyp_mod.svg" xlink:title="codtyp_mod">
<polygon fill="none" stroke="red" points="269.5,-449 184.5,-449 184.5,-413 269.5,-413 269.5,-449"/>
<text text-anchor="middle" x="227" y="-427.3" font-family="Times,serif" font-size="14.00">codtyp_mod</text>
</a>
</g>
</g>
<!-- enkf_mod&#45;&gt;codtyp_mod -->
<g id="edge3" class="edge">
<title>enkf_mod&#45;&gt;codtyp_mod</title>
<path fill="none" stroke="black" d="M519.29,-643.31C453.43,-637.78 318.84,-623.04 284,-593 273.5,-583.95 247.92,-502.21 234.9,-458.81"/>
<polygon fill="black" stroke="black" points="238.24,-457.75 232.02,-449.16 231.53,-459.75 238.24,-457.75"/>
</g>
<!-- ensembleobservations_mod -->
<g id="node5" class="node">
<title>ensembleobservations_mod</title>
<g id="a_node5"><a xlink:href="../modules/ensembleobservations_mod.svg" xlink:title="ensembleobservations_mod">
<polygon fill="none" stroke="red" points="308.5,-377 139.5,-377 139.5,-341 308.5,-341 308.5,-377"/>
<text text-anchor="middle" x="224" y="-355.3" font-family="Times,serif" font-size="14.00">ensembleobservations_mod</text>
</a>
</g>
</g>
<!-- enkf_mod&#45;&gt;ensembleobservations_mod -->
<g id="edge4" class="edge">
<title>enkf_mod&#45;&gt;ensembleobservations_mod</title>
<path fill="none" stroke="black" d="M519.28,-642.37C460.63,-635.83 349.62,-620.16 322,-593 263.27,-535.26 318.72,-484.58 278,-413 271.92,-402.31 263.07,-392.36 254.29,-384.03"/>
<polygon fill="black" stroke="black" points="256.43,-381.24 246.66,-377.15 251.74,-386.44 256.43,-381.24"/>
</g>
<!-- ensemblestatevector_mod -->
<g id="node6" class="node">
<title>ensemblestatevector_mod</title>
<g id="a_node6"><a xlink:href="../modules/ensemblestatevector_mod.svg" xlink:title="ensemblestatevector_mod">
<polygon fill="none" stroke="red" points="346,-305 188,-305 188,-269 346,-269 346,-305"/>
<text text-anchor="middle" x="267" y="-283.3" font-family="Times,serif" font-size="14.00">ensemblestatevector_mod</text>
</a>
</g>
</g>
<!-- enkf_mod&#45;&gt;ensemblestatevector_mod -->
<g id="edge5" class="edge">
<title>enkf_mod&#45;&gt;ensemblestatevector_mod</title>
<path fill="none" stroke="black" d="M519.23,-646.44C475.32,-644.91 402.48,-635.51 360,-593 331.04,-564.02 336,-544.97 336,-504 336,-504 336,-504 336,-430 336,-389.55 335.8,-376.81 317,-341 311.51,-330.54 303.37,-320.65 295.24,-312.32"/>
<polygon fill="black" stroke="black" points="297.47,-309.6 287.86,-305.13 292.58,-314.61 297.47,-309.6"/>
</g>
<!-- gridstatevector_mod -->
<g id="node7" class="node">
<title>gridstatevector_mod</title>
<g id="a_node7"><a xlink:href="../modules/gridstatevector_mod.svg" xlink:title="gridstatevector_mod">
<polygon fill="none" stroke="red" points="384,-233 254,-233 254,-197 384,-197 384,-233"/>
<text text-anchor="middle" x="319" y="-211.3" font-family="Times,serif" font-size="14.00">gridstatevector_mod</text>
</a>
</g>
</g>
<!-- enkf_mod&#45;&gt;gridstatevector_mod -->
<g id="edge6" class="edge">
<title>enkf_mod&#45;&gt;gridstatevector_mod</title>
<path fill="none" stroke="black" d="M519.4,-643.45C483.52,-638.98 429.73,-626.7 398,-593 369.92,-563.17 374,-544.97 374,-504 374,-504 374,-504 374,-358 374,-317.55 370.88,-306.2 355,-269 350.92,-259.43 345.01,-249.78 339.16,-241.39"/>
<polygon fill="black" stroke="black" points="341.88,-239.17 333.16,-233.15 336.22,-243.29 341.88,-239.17"/>
</g>
<!-- gridvariabletransforms_mod -->
<g id="node8" class="node">
<title>gridvariabletransforms_mod</title>
<g id="a_node8"><a xlink:href="../modules/gridvariabletransforms_mod.svg" xlink:title="gridvariabletransforms_mod">
<polygon fill="none" stroke="red" points="421.5,-161 246.5,-161 246.5,-125 421.5,-125 421.5,-161"/>
<text text-anchor="middle" x="334" y="-139.3" font-family="Times,serif" font-size="14.00">gridvariabletransforms_mod</text>
</a>
</g>
</g>
<!-- enkf_mod&#45;&gt;gridvariabletransforms_mod -->
<g id="edge7" class="edge">
<title>enkf_mod&#45;&gt;gridvariabletransforms_mod</title>
<path fill="none" stroke="black" d="M519.45,-638.73C492.66,-631.55 457.36,-617.89 436,-593 409.32,-561.91 412,-544.97 412,-504 412,-504 412,-504 412,-286 412,-245.55 413.26,-232.01 393,-197 386.59,-185.92 377.05,-175.9 367.51,-167.63"/>
<polygon fill="black" stroke="black" points="369.51,-164.74 359.55,-161.11 365.07,-170.15 369.51,-164.74"/>
</g>
<!-- horizontalcoord_mod -->
<g id="node9" class="node">
<title>horizontalcoord_mod</title>
<g id="a_node9"><a xlink:href="../modules/horizontalcoord_mod.svg" xlink:title="horizontalcoord_mod">
<polygon fill="none" stroke="red" points="517,-89 383,-89 383,-53 517,-53 517,-89"/>
<text text-anchor="middle" x="450" y="-67.3" font-family="Times,serif" font-size="14.00">horizontalcoord_mod</text>
</a>
</g>
</g>
<!-- enkf_mod&#45;&gt;horizontalcoord_mod -->
<g id="edge8" class="edge">
<title>enkf_mod&#45;&gt;horizontalcoord_mod</title>
<path fill="none" stroke="black" d="M519.26,-631.89C501.5,-623.25 481.38,-610.45 469,-593 445.6,-560.01 450,-544.45 450,-504 450,-504 450,-504 450,-214 450,-174 450,-127.65 450,-99.08"/>
<polygon fill="black" stroke="black" points="453.5,-99.05 450,-89.05 446.5,-99.05 453.5,-99.05"/>
</g>
<!-- localizationfunction_mod -->
<g id="node10" class="node">
<title>localizationfunction_mod</title>
<g id="a_node10"><a xlink:href="../modules/localizationfunction_mod.svg" xlink:title="localizationfunction_mod">
<polygon fill="none" stroke="red" points="634,-593 478,-593 478,-557 634,-557 634,-593"/>
<text text-anchor="middle" x="556" y="-571.3" font-family="Times,serif" font-size="14.00">localizationfunction_mod</text>
</a>
</g>
</g>
<!-- enkf_mod&#45;&gt;localizationfunction_mod -->
<g id="edge9" class="edge">
<title>enkf_mod&#45;&gt;localizationfunction_mod</title>
<path fill="none" stroke="black" d="M556,-628.7C556,-620.98 556,-611.71 556,-603.11"/>
<polygon fill="black" stroke="black" points="559.5,-603.1 556,-593.1 552.5,-603.1 559.5,-603.1"/>
</g>
<!-- mathphysconstants_mod -->
<g id="node11" class="node">
<title>mathphysconstants_mod</title>
<g id="a_node11"><a xlink:href="mathphysconstants_mod.html" xlink:title="mathphysconstants_mod">
<polygon fill="gray" stroke="black" points="672,-521 520,-521 520,-485 672,-485 672,-521"/>
<text text-anchor="middle" x="596" y="-499.3" font-family="Times,serif" font-size="14.00">mathphysconstants_mod</text>
</a>
</g>
</g>
<!-- enkf_mod&#45;&gt;mathphysconstants_mod -->
<g id="edge10" class="edge">
<title>enkf_mod&#45;&gt;mathphysconstants_mod</title>
<path fill="none" stroke="black" d="M592.52,-633.71C611.18,-625.36 632.17,-612.27 643,-593 650.84,-579.05 648.68,-571.96 643,-557 639.03,-546.54 631.95,-536.83 624.47,-528.65"/>
<polygon fill="black" stroke="black" points="626.77,-525.99 617.27,-521.3 621.77,-530.89 626.77,-525.99"/>
</g>
<!-- midasmpi_mod -->
<g id="node12" class="node">
<title>midasmpi_mod</title>
<g id="a_node12"><a xlink:href="../modules/midasmpi_mod.svg" xlink:title="midasmpi_mod">
<polygon fill="none" stroke="red" points="710,-449 608,-449 608,-413 710,-413 710,-449"/>
<text text-anchor="middle" x="659" y="-427.3" font-family="Times,serif" font-size="14.00">midasmpi_mod</text>
</a>
</g>
</g>
<!-- enkf_mod&#45;&gt;midasmpi_mod -->
<g id="edge11" class="edge">
<title>enkf_mod&#45;&gt;midasmpi_mod</title>
<path fill="none" stroke="black" d="M592.55,-635.61C615,-627.46 642.68,-613.91 660,-593 691.19,-555.34 690.56,-532.96 681,-485 679.21,-476.01 675.86,-466.64 672.31,-458.32"/>
<polygon fill="black" stroke="black" points="675.46,-456.77 668.13,-449.12 669.08,-459.67 675.46,-456.77"/>
</g>
<!-- obsspacedata_mod -->
<g id="node13" class="node">
<title>obsspacedata_mod</title>
<g id="a_node13"><a xlink:href="../modules/obsspacedata_mod.svg" xlink:title="obsspacedata_mod">
<polygon fill="none" stroke="red" points="747.5,-377 628.5,-377 628.5,-341 747.5,-341 747.5,-377"/>
<text text-anchor="middle" x="688" y="-355.3" font-family="Times,serif" font-size="14.00">obsspacedata_mod</text>
</a>
</g>
</g>
<!-- enkf_mod&#45;&gt;obsspacedata_mod -->
<g id="edge12" class="edge">
<title>enkf_mod&#45;&gt;obsspacedata_mod</title>
<path fill="none" stroke="black" d="M592.79,-640.28C621.99,-633.8 661.66,-620.35 685,-593 737.85,-531.07 740.29,-491.58 719,-413 716.42,-403.48 711.66,-393.92 706.62,-385.59"/>
<polygon fill="black" stroke="black" points="709.51,-383.6 701.15,-377.09 703.62,-387.39 709.51,-383.6"/>
</g>
<!-- timecoord_mod -->
<g id="node14" class="node">
<title>timecoord_mod</title>
<g id="a_node14"><a xlink:href="../modules/timecoord_mod.svg" xlink:title="timecoord_mod">
<polygon fill="none" stroke="red" points="786,-305 682,-305 682,-269 786,-269 786,-305"/>
<text text-anchor="middle" x="734" y="-283.3" font-family="Times,serif" font-size="14.00">timecoord_mod</text>
</a>
</g>
</g>
<!-- enkf_mod&#45;&gt;timecoord_mod -->
<g id="edge13" class="edge">
<title>enkf_mod&#45;&gt;timecoord_mod</title>
<path fill="none" stroke="black" d="M592.82,-639.67C655.45,-626.56 776,-590.15 776,-504 776,-504 776,-504 776,-430 776,-388.15 759.01,-342.1 746.65,-314.11"/>
<polygon fill="black" stroke="black" points="749.83,-312.66 742.5,-305.01 743.46,-315.56 749.83,-312.66"/>
</g>
<!-- tovsnl_mod -->
<g id="node15" class="node">
<title>tovsnl_mod</title>
<g id="a_node15"><a xlink:href="../modules/tovsnl_mod.svg" xlink:title="tovsnl_mod">
<polygon fill="none" stroke="red" points="823.5,-233 742.5,-233 742.5,-197 823.5,-197 823.5,-233"/>
<text text-anchor="middle" x="783" y="-211.3" font-family="Times,serif" font-size="14.00">tovsnl_mod</text>
</a>
</g>
</g>
<!-- enkf_mod&#45;&gt;tovsnl_mod -->
<g id="edge14" class="edge">
<title>enkf_mod&#45;&gt;tovsnl_mod</title>
<path fill="none" stroke="black" d="M592.69,-642.67C663.92,-633.98 814,-603.83 814,-504 814,-504 814,-504 814,-358 814,-317.1 801.57,-271.06 792.45,-242.79"/>
<polygon fill="black" stroke="black" points="795.75,-241.61 789.27,-233.22 789.11,-243.82 795.75,-241.61"/>
</g>
<!-- utilities_mod -->
<g id="node16" class="node">
<title>utilities_mod</title>
<g id="a_node16"><a xlink:href="../modules/utilities_mod.svg" xlink:title="utilities_mod">
<polygon fill="none" stroke="red" points="878.5,-161 789.5,-161 789.5,-125 878.5,-125 878.5,-161"/>
<text text-anchor="middle" x="834" y="-139.3" font-family="Times,serif" font-size="14.00">utilities_mod</text>
</a>
</g>
</g>
<!-- enkf_mod&#45;&gt;utilities_mod -->
<g id="edge15" class="edge">
<title>enkf_mod&#45;&gt;utilities_mod</title>
<path fill="none" stroke="black" d="M592.59,-644.94C671.79,-640.49 852,-617.85 852,-504 852,-504 852,-504 852,-286 852,-245.9 844.85,-199.92 839.56,-171.42"/>
<polygon fill="black" stroke="black" points="842.96,-170.56 837.64,-161.4 836.08,-171.88 842.96,-170.56"/>
</g>
<!-- varnamelist_mod -->
<g id="node17" class="node">
<title>varnamelist_mod</title>
<g id="a_node17"><a xlink:href="../modules/varnamelist_mod.svg" xlink:title="varnamelist_mod">
<polygon fill="none" stroke="red" points="963.5,-89 850.5,-89 850.5,-53 963.5,-53 963.5,-89"/>
<text text-anchor="middle" x="907" y="-67.3" font-family="Times,serif" font-size="14.00">varnamelist_mod</text>
</a>
</g>
</g>
<!-- enkf_mod&#45;&gt;varnamelist_mod -->
<g id="edge16" class="edge">
<title>enkf_mod&#45;&gt;varnamelist_mod</title>
<path fill="none" stroke="black" d="M592.65,-646.53C648.21,-645.75 755.39,-637.9 832,-593 876.63,-566.84 907,-555.73 907,-504 907,-504 907,-504 907,-214 907,-174 907,-127.65 907,-99.08"/>
<polygon fill="black" stroke="black" points="910.5,-99.05 907,-89.05 903.5,-99.05 910.5,-99.05"/>
</g>
<!-- verticalcoord_mod -->
<g id="node18" class="node">
<title>verticalcoord_mod</title>
<g id="a_node18"><a xlink:href="../modules/verticalcoord_mod.svg" xlink:title="verticalcoord_mod">
<polygon fill="none" stroke="red" points="1055,-593 935,-593 935,-557 1055,-557 1055,-593"/>
<text text-anchor="middle" x="995" y="-571.3" font-family="Times,serif" font-size="14.00">verticalcoord_mod</text>
</a>
</g>
</g>
<!-- enkf_mod&#45;&gt;verticalcoord_mod -->
<g id="edge17" class="edge">
<title>enkf_mod&#45;&gt;verticalcoord_mod</title>
<path fill="none" stroke="black" d="M592.69,-641.68C658.66,-633.69 801.57,-615.35 921,-593 922.28,-592.76 923.56,-592.52 924.86,-592.26"/>
<polygon fill="black" stroke="black" points="925.8,-595.64 934.91,-590.24 924.42,-588.78 925.8,-595.64"/>
</g>
</g>
</svg>
