<?xml version="1.0" encoding="UTF-8" standalone="no"?>
<!DOCTYPE svg PUBLIC "-//W3C//DTD SVG 1.1//EN"
 "http://www.w3.org/Graphics/SVG/1.1/DTD/svg11.dtd">
<!-- Generated by graphviz version 3.0.0 (20220315.2325)
 -->
<!-- Title: enkf_mod Pages: 1 -->
<svg width="433pt" height="313pt"
 viewBox="0.00 0.00 433.00 313.00" xmlns="http://www.w3.org/2000/svg" xmlns:xlink="http://www.w3.org/1999/xlink">
<g id="graph0" class="graph" transform="scale(1 1) rotate(0) translate(4 309)">
<title>enkf_mod</title>
<polygon fill="white" stroke="transparent" points="-4,4 -4,-309 429,-309 429,4 -4,4"/>
<text text-anchor="middle" x="212.5" y="-289.8" font-family="Times,serif" font-size="14.00">Blue boxes indicate modules with reverse dependencies not shown</text>
<text text-anchor="middle" x="212.5" y="-274.8" font-family="Times,serif" font-size="14.00">Higher level reverse dependencies can be shown by clicking on a blue box</text>
<text text-anchor="middle" x="212.5" y="-259.8" font-family="Times,serif" font-size="14.00">Green boxes are programs</text>
<!-- enkf_mod -->
<g id="node1" class="node">
<title>enkf_mod</title>
<g id="a_node1"><a xlink:href="enkf_mod.html" xlink:title="enkf_mod">
<polygon fill="none" stroke="black" points="260.5,-36 187.5,-36 187.5,0 260.5,0 260.5,-36"/>
<text text-anchor="middle" x="224" y="-14.3" font-family="Times,serif" font-size="14.00">enkf_mod</text>
</a>
</g>
</g>
<!-- midas_midas_ensembleh -->
<g id="node2" class="node">
<title>midas_midas_ensembleh</title>
<g id="a_node2"><a xlink:href="../programs/midas_ensembleh.html" xlink:title="midas_midas_ensembleh">
<polygon fill="gray" stroke="green" points="195.5,-108 40.5,-108 40.5,-72 195.5,-72 195.5,-108"/>
<text text-anchor="middle" x="118" y="-86.3" font-family="Times,serif" font-size="14.00">midas_midas_ensembleh</text>
</a>
</g>
</g>
<!-- midas_midas_ensembleh&#45;&gt;enkf_mod -->
<g id="edge1" class="edge">
<title>midas_midas_ensembleh&#45;&gt;enkf_mod</title>
<path fill="none" stroke="black" d="M150.7,-67.4C165.9,-57.37 183.71,-45.61 197.97,-36.19"/>
<ellipse fill="black" stroke="black" cx="147.27" cy="-69.67" rx="4" ry="4"/>
</g>
<!-- midas_midas_letkf -->
<g id="node3" class="node">
<title>midas_midas_letkf</title>
<g id="a_node3"><a xlink:href="../programs/midas_letkf.html" xlink:title="midas_midas_letkf">
<polygon fill="gray" stroke="green" points="285,-180 163,-180 163,-144 285,-144 285,-180"/>
<text text-anchor="middle" x="224" y="-158.3" font-family="Times,serif" font-size="14.00">midas_midas_letkf</text>
</a>
</g>
</g>
<!-- midas_midas_letkf&#45;&gt;enkf_mod -->
<g id="edge2" class="edge">
<title>midas_midas_letkf&#45;&gt;enkf_mod</title>
<path fill="none" stroke="black" d="M224,-135.56C224,-106.86 224,-60.96 224,-36.19"/>
<ellipse fill="black" stroke="black" cx="224" cy="-139.87" rx="4" ry="4"/>
</g>
<!-- midas_midas_prepcma -->
<g id="node4" class="node">
<title>midas_midas_prepcma</title>
<g id="a_node4"><a xlink:href="../programs/midas_prepcma.html" xlink:title="midas_midas_prepcma">
<polygon fill="gray" stroke="green" points="384.5,-252 241.5,-252 241.5,-216 384.5,-216 384.5,-252"/>
<text text-anchor="middle" x="313" y="-230.3" font-family="Times,serif" font-size="14.00">midas_midas_prepcma</text>
</a>
</g>
</g>
<!-- midas_midas_prepcma&#45;&gt;enkf_mod -->
<g id="edge3" class="edge">
<title>midas_midas_prepcma&#45;&gt;enkf_mod</title>
<path fill="none" stroke="black" d="M309.64,-207.52C306.76,-189.4 301.8,-164.71 294,-144 278.65,-103.27 251.58,-59.81 235.98,-36.39"/>
<ellipse fill="black" stroke="black" cx="310.3" cy="-211.88" rx="4" ry="4"/>
</g>
</g>
</svg>
