<?xml version="1.0" encoding="UTF-8" standalone="no"?>
<!DOCTYPE svg PUBLIC "-//W3C//DTD SVG 1.1//EN"
 "http://www.w3.org/Graphics/SVG/1.1/DTD/svg11.dtd">
<!-- Generated by graphviz version 3.0.0 (20220315.2325)
 -->
<!-- Title: ensembleStateVector_mod Pages: 1 -->
<svg width="1321pt" height="673pt"
 viewBox="0.00 0.00 1320.50 673.00" xmlns="http://www.w3.org/2000/svg" xmlns:xlink="http://www.w3.org/1999/xlink">
<g id="graph0" class="graph" transform="scale(1 1) rotate(0) translate(4 669)">
<title>ensembleStateVector_mod</title>
<polygon fill="white" stroke="transparent" points="-4,4 -4,-669 1316.5,-669 1316.5,4 -4,4"/>
<text text-anchor="middle" x="656.25" y="-649.8" font-family="Times,serif" font-size="14.00">Blue boxes indicate modules with reverse dependencies not shown</text>
<text text-anchor="middle" x="656.25" y="-634.8" font-family="Times,serif" font-size="14.00">Higher level reverse dependencies can be shown by clicking on a blue box</text>
<text text-anchor="middle" x="656.25" y="-619.8" font-family="Times,serif" font-size="14.00">Green boxes are programs</text>
<!-- ensembleStateVector_mod -->
<g id="node1" class="node">
<title>ensembleStateVector_mod</title>
<g id="a_node1"><a xlink:href="ensembleStateVector_mod.html" xlink:title="ensembleStateVector_mod">
<polygon fill="none" stroke="black" points="716,-36 553,-36 553,0 716,0 716,-36"/>
<text text-anchor="middle" x="634.5" y="-14.3" font-family="Times,serif" font-size="14.00">ensembleStateVector_mod</text>
</a>
</g>
</g>
<!-- advection_mod -->
<g id="node2" class="node">
<title>advection_mod</title>
<g id="a_node2"><a xlink:href="../modules/advection_mod_rev.svg" xlink:title="advection_mod">
<polygon fill="none" stroke="blue" points="101,-108 0,-108 0,-72 101,-72 101,-108"/>
<text text-anchor="middle" x="50.5" y="-86.3" font-family="Times,serif" font-size="14.00">advection_mod</text>
</a>
</g>
</g>
<!-- advection_mod&#45;&gt;ensembleStateVector_mod -->
<g id="edge1" class="edge">
<title>advection_mod&#45;&gt;ensembleStateVector_mod</title>
<path fill="none" stroke="black" d="M109.25,-73.2C111.35,-72.78 113.44,-72.37 115.5,-72 268.58,-44.34 449.86,-29.94 552.6,-23.45"/>
<ellipse fill="black" stroke="black" cx="104.98" cy="-74.12" rx="4" ry="4"/>
</g>
<!-- bmatrix1dvar_mod -->
<g id="node3" class="node">
<title>bmatrix1dvar_mod</title>
<g id="a_node3"><a xlink:href="../modules/bmatrix1dvar_mod_rev.svg" xlink:title="bmatrix1dvar_mod">
<polygon fill="none" stroke="blue" points="165.5,-180 43.5,-180 43.5,-144 165.5,-144 165.5,-180"/>
<text text-anchor="middle" x="104.5" y="-158.3" font-family="Times,serif" font-size="14.00">bmatrix1dvar_mod</text>
</a>
</g>
</g>
<!-- bmatrix1dvar_mod&#45;&gt;ensembleStateVector_mod -->
<g id="edge2" class="edge">
<title>bmatrix1dvar_mod&#45;&gt;ensembleStateVector_mod</title>
<path fill="none" stroke="black" d="M117.71,-136.83C130.56,-115.89 152.12,-86.72 179.5,-72 242.19,-38.3 439.67,-25.81 552.79,-21.35"/>
<ellipse fill="black" stroke="black" cx="115.58" cy="-140.42" rx="4" ry="4"/>
</g>
<!-- bmatrixensemble_mod -->
<g id="node4" class="node">
<title>bmatrixensemble_mod</title>
<g id="a_node4"><a xlink:href="../modules/bmatrixensemble_mod_rev.svg" xlink:title="bmatrixensemble_mod">
<polygon fill="none" stroke="blue" points="203,-252 60,-252 60,-216 203,-216 203,-252"/>
<text text-anchor="middle" x="131.5" y="-230.3" font-family="Times,serif" font-size="14.00">bmatrixensemble_mod</text>
</a>
</g>
</g>
<!-- bmatrixensemble_mod&#45;&gt;ensembleStateVector_mod -->
<g id="edge3" class="edge">
<title>bmatrixensemble_mod&#45;&gt;ensembleStateVector_mod</title>
<path fill="none" stroke="black" d="M152.96,-209.7C160.42,-200.83 168.42,-190.36 174.5,-180 200.63,-135.43 176.66,-103.64 217.5,-72 268.27,-32.67 446.33,-22.37 552.66,-19.77"/>
<ellipse fill="black" stroke="black" cx="150.27" cy="-212.81" rx="4" ry="4"/>
</g>
<!-- calcstatsglb_mod -->
<g id="node5" class="node">
<title>calcstatsglb_mod</title>
<g id="a_node5"><a xlink:href="../modules/calcstatsglb_mod_rev.svg" xlink:title="calcstatsglb_mod">
<polygon fill="none" stroke="blue" points="241,-324 130,-324 130,-288 241,-288 241,-324"/>
<text text-anchor="middle" x="185.5" y="-302.3" font-family="Times,serif" font-size="14.00">calcstatsglb_mod</text>
</a>
</g>
</g>
<!-- calcstatsglb_mod&#45;&gt;ensembleStateVector_mod -->
<g id="edge4" class="edge">
<title>calcstatsglb_mod&#45;&gt;ensembleStateVector_mod</title>
<path fill="none" stroke="black" d="M198.94,-280.41C203.37,-271.63 208.04,-261.54 211.5,-252 239.58,-174.58 194.41,-127.23 255.5,-72 297.95,-33.63 454.86,-22.9 552.98,-19.99"/>
<ellipse fill="black" stroke="black" cx="196.98" cy="-284.2" rx="4" ry="4"/>
</g>
<!-- calcstatslam_mod -->
<g id="node6" class="node">
<title>calcstatslam_mod</title>
<g id="a_node6"><a xlink:href="../modules/calcstatslam_mod_rev.svg" xlink:title="calcstatslam_mod">
<polygon fill="none" stroke="blue" points="279,-396 164,-396 164,-360 279,-360 279,-396"/>
<text text-anchor="middle" x="221.5" y="-374.3" font-family="Times,serif" font-size="14.00">calcstatslam_mod</text>
</a>
</g>
</g>
<!-- calcstatslam_mod&#45;&gt;ensembleStateVector_mod -->
<g id="edge5" class="edge">
<title>calcstatslam_mod&#45;&gt;ensembleStateVector_mod</title>
<path fill="none" stroke="black" d="M236.01,-352.82C240.84,-343.99 245.9,-333.76 249.5,-324 263.54,-285.97 269.5,-275.54 269.5,-235 269.5,-235 269.5,-235 269.5,-161 269.5,-120.03 262.99,-99.34 293.5,-72 330.7,-38.66 464.11,-26.27 552.62,-21.68"/>
<ellipse fill="black" stroke="black" cx="234" cy="-356.39" rx="4" ry="4"/>
</g>
<!-- enkf_mod -->
<g id="node7" class="node">
<title>enkf_mod</title>
<g id="a_node7"><a xlink:href="../modules/enkf_mod_rev.svg" xlink:title="enkf_mod">
<polygon fill="none" stroke="blue" points="317,-468 244,-468 244,-432 317,-432 317,-468"/>
<text text-anchor="middle" x="280.5" y="-446.3" font-family="Times,serif" font-size="14.00">enkf_mod</text>
</a>
</g>
</g>
<!-- enkf_mod&#45;&gt;ensembleStateVector_mod -->
<g id="edge6" class="edge">
<title>enkf_mod&#45;&gt;ensembleStateVector_mod</title>
<path fill="none" stroke="black" d="M288.22,-423.96C296.2,-395.8 307.5,-348.57 307.5,-307 307.5,-307 307.5,-307 307.5,-161 307.5,-120.03 301.25,-99.63 331.5,-72 363.14,-43.09 474.21,-29.6 552.67,-23.56"/>
<ellipse fill="black" stroke="black" cx="287.08" cy="-427.87" rx="4" ry="4"/>
</g>
<!-- enspostprocess_mod -->
<g id="node8" class="node">
<title>enspostprocess_mod</title>
<g id="a_node8"><a xlink:href="../modules/enspostprocess_mod_rev.svg" xlink:title="enspostprocess_mod">
<polygon fill="none" stroke="blue" points="355,-540 226,-540 226,-504 355,-504 355,-540"/>
<text text-anchor="middle" x="290.5" y="-518.3" font-family="Times,serif" font-size="14.00">enspostprocess_mod</text>
</a>
</g>
</g>
<!-- enspostprocess_mod&#45;&gt;ensembleStateVector_mod -->
<g id="edge7" class="edge">
<title>enspostprocess_mod&#45;&gt;ensembleStateVector_mod</title>
<path fill="none" stroke="black" d="M308.95,-497.09C314.97,-488.33 321.21,-478.09 325.5,-468 341.38,-430.7 345.5,-419.54 345.5,-379 345.5,-379 345.5,-379 345.5,-161 345.5,-120.03 339.59,-100 369.5,-72 395.66,-47.51 484.95,-33.38 552.72,-25.96"/>
<ellipse fill="black" stroke="black" cx="306.52" cy="-500.51" rx="4" ry="4"/>
</g>
<!-- gridbinning_mod -->
<g id="node9" class="node">
<title>gridbinning_mod</title>
<g id="a_node9"><a xlink:href="../modules/gridbinning_mod_rev.svg" xlink:title="gridbinning_mod">
<polygon fill="none" stroke="blue" points="440,-612 327,-612 327,-576 440,-576 440,-612"/>
<text text-anchor="middle" x="383.5" y="-590.3" font-family="Times,serif" font-size="14.00">gridbinning_mod</text>
</a>
</g>
</g>
<!-- gridbinning_mod&#45;&gt;ensembleStateVector_mod -->
<g id="edge8" class="edge">
<title>gridbinning_mod&#45;&gt;ensembleStateVector_mod</title>
<path fill="none" stroke="black" d="M383.5,-567.78C383.5,-539.39 383.5,-491.89 383.5,-451 383.5,-451 383.5,-451 383.5,-161 383.5,-120.55 374.1,-100.8 402.5,-72 423.46,-50.74 494.67,-36.6 552.73,-28.31"/>
<ellipse fill="black" stroke="black" cx="383.5" cy="-571.95" rx="4" ry="4"/>
</g>
<!-- gridvariabletransforms_mod -->
<g id="node10" class="node">
<title>gridvariabletransforms_mod</title>
<g id="a_node10"><a xlink:href="../modules/gridvariabletransforms_mod_rev.svg" xlink:title="gridvariabletransforms_mod">
<polygon fill="none" stroke="blue" points="587,-108 412,-108 412,-72 587,-72 587,-108"/>
<text text-anchor="middle" x="499.5" y="-86.3" font-family="Times,serif" font-size="14.00">gridvariabletransforms_mod</text>
</a>
</g>
</g>
<!-- gridvariabletransforms_mod&#45;&gt;ensembleStateVector_mod -->
<g id="edge9" class="edge">
<title>gridvariabletransforms_mod&#45;&gt;ensembleStateVector_mod</title>
<path fill="none" stroke="black" d="M539.85,-68.08C559.48,-57.9 582.78,-45.82 601.35,-36.19"/>
<ellipse fill="black" stroke="black" cx="536.08" cy="-70.03" rx="4" ry="4"/>
</g>
<!-- humiditylimits_mod -->
<g id="node11" class="node">
<title>humiditylimits_mod</title>
<g id="a_node11"><a xlink:href="../modules/humiditylimits_mod_rev.svg" xlink:title="humiditylimits_mod">
<polygon fill="none" stroke="blue" points="625,-180 496,-180 496,-144 625,-144 625,-180"/>
<text text-anchor="middle" x="560.5" y="-158.3" font-family="Times,serif" font-size="14.00">humiditylimits_mod</text>
</a>
</g>
</g>
<!-- humiditylimits_mod&#45;&gt;ensembleStateVector_mod -->
<g id="edge10" class="edge">
<title>humiditylimits_mod&#45;&gt;ensembleStateVector_mod</title>
<path fill="none" stroke="black" d="M577.6,-137C583.61,-128.1 590.18,-117.78 595.5,-108 608.64,-83.85 620.86,-54.37 628,-36.14"/>
<ellipse fill="black" stroke="black" cx="575.2" cy="-140.5" rx="4" ry="4"/>
</g>
<!-- localization_mod -->
<g id="node12" class="node">
<title>localization_mod</title>
<g id="a_node12"><a xlink:href="../modules/localization_mod_rev.svg" xlink:title="localization_mod">
<polygon fill="none" stroke="blue" points="663,-252 552,-252 552,-216 663,-216 663,-252"/>
<text text-anchor="middle" x="607.5" y="-230.3" font-family="Times,serif" font-size="14.00">localization_mod</text>
</a>
</g>
</g>
<!-- localization_mod&#45;&gt;ensembleStateVector_mod -->
<g id="edge11" class="edge">
<title>localization_mod&#45;&gt;ensembleStateVector_mod</title>
<path fill="none" stroke="black" d="M622.43,-208.38C626.9,-199.72 631.21,-189.72 633.5,-180 645.54,-128.85 640.43,-66 636.87,-36.22"/>
<ellipse fill="black" stroke="black" cx="620.42" cy="-212.09" rx="4" ry="4"/>
</g>
<!-- localizationspectral_mod -->
<g id="node13" class="node">
<title>localizationspectral_mod</title>
<g id="a_node13"><a xlink:href="../modules/localizationspectral_mod_rev.svg" xlink:title="localizationspectral_mod">
<polygon fill="none" stroke="blue" points="701,-324 548,-324 548,-288 701,-288 701,-324"/>
<text text-anchor="middle" x="624.5" y="-302.3" font-family="Times,serif" font-size="14.00">localizationspectral_mod</text>
</a>
</g>
</g>
<!-- localizationspectral_mod&#45;&gt;ensembleStateVector_mod -->
<g id="edge12" class="edge">
<title>localizationspectral_mod&#45;&gt;ensembleStateVector_mod</title>
<path fill="none" stroke="black" d="M651.81,-281.61C659.71,-273.17 667.33,-262.99 671.5,-252 700.64,-175.22 661.44,-75.79 643.07,-36.28"/>
<ellipse fill="black" stroke="black" cx="648.58" cy="-284.86" rx="4" ry="4"/>
</g>
<!-- menetrierdiag_mod -->
<g id="node14" class="node">
<title>menetrierdiag_mod</title>
<g id="a_node14"><a xlink:href="../modules/menetrierdiag_mod_rev.svg" xlink:title="menetrierdiag_mod">
<polygon fill="none" stroke="blue" points="739,-396 614,-396 614,-360 739,-360 739,-396"/>
<text text-anchor="middle" x="676.5" y="-374.3" font-family="Times,serif" font-size="14.00">menetrierdiag_mod</text>
</a>
</g>
</g>
<!-- menetrierdiag_mod&#45;&gt;ensembleStateVector_mod -->
<g id="edge13" class="edge">
<title>menetrierdiag_mod&#45;&gt;ensembleStateVector_mod</title>
<path fill="none" stroke="black" d="M693.85,-352.96C699.52,-344.19 705.41,-333.97 709.5,-324 724.88,-286.49 729.5,-275.54 729.5,-235 729.5,-235 729.5,-235 729.5,-161 729.5,-108.5 684.09,-60.72 656.06,-36.22"/>
<ellipse fill="black" stroke="black" cx="691.6" cy="-356.33" rx="4" ry="4"/>
</g>
<!-- ominusf_mod -->
<g id="node15" class="node">
<title>ominusf_mod</title>
<g id="a_node15"><a xlink:href="../modules/ominusf_mod_rev.svg" xlink:title="ominusf_mod">
<polygon fill="none" stroke="blue" points="777,-468 684,-468 684,-432 777,-432 777,-468"/>
<text text-anchor="middle" x="730.5" y="-446.3" font-family="Times,serif" font-size="14.00">ominusf_mod</text>
</a>
</g>
</g>
<!-- ominusf_mod&#45;&gt;ensembleStateVector_mod -->
<g id="edge14" class="edge">
<title>ominusf_mod&#45;&gt;ensembleStateVector_mod</title>
<path fill="none" stroke="black" d="M741.07,-424.19C752.01,-396.24 767.5,-349.2 767.5,-307 767.5,-307 767.5,-307 767.5,-161 767.5,-102.9 707.46,-58.77 668.06,-36.07"/>
<ellipse fill="black" stroke="black" cx="739.48" cy="-428.17" rx="4" ry="4"/>
</g>
<!-- verticalmodes_mod -->
<g id="node16" class="node">
<title>verticalmodes_mod</title>
<g id="a_node16"><a xlink:href="../modules/verticalmodes_mod_rev.svg" xlink:title="verticalmodes_mod">
<polygon fill="none" stroke="blue" points="815,-540 690,-540 690,-504 815,-504 815,-540"/>
<text text-anchor="middle" x="752.5" y="-518.3" font-family="Times,serif" font-size="14.00">verticalmodes_mod</text>
</a>
</g>
</g>
<!-- verticalmodes_mod&#45;&gt;ensembleStateVector_mod -->
<g id="edge15" class="edge">
<title>verticalmodes_mod&#45;&gt;ensembleStateVector_mod</title>
<path fill="none" stroke="black" d="M769.85,-496.96C775.52,-488.19 781.41,-477.97 785.5,-468 800.88,-430.49 805.5,-419.54 805.5,-379 805.5,-379 805.5,-379 805.5,-161 805.5,-97.52 734.89,-56.99 684.42,-36.13"/>
<ellipse fill="black" stroke="black" cx="767.6" cy="-500.33" rx="4" ry="4"/>
</g>
<!-- midas_midas_adjointtest -->
<g id="node17" class="node">
<title>midas_midas_adjointtest</title>
<g id="a_node17"><a xlink:href="../programs/midas_adjointtest.html" xlink:title="midas_midas_adjointtest">
<polygon fill="gray" stroke="green" points="919.5,-612 767.5,-612 767.5,-576 919.5,-576 919.5,-612"/>
<text text-anchor="middle" x="843.5" y="-590.3" font-family="Times,serif" font-size="14.00">midas_midas_adjointtest</text>
</a>
</g>
</g>
<!-- midas_midas_adjointtest&#45;&gt;ensembleStateVector_mod -->
<g id="edge16" class="edge">
<title>midas_midas_adjointtest&#45;&gt;ensembleStateVector_mod</title>
<path fill="none" stroke="black" d="M843.5,-567.78C843.5,-539.39 843.5,-491.89 843.5,-451 843.5,-451 843.5,-451 843.5,-161 843.5,-92.9 766.63,-55.17 706.13,-36.02"/>
<ellipse fill="black" stroke="black" cx="843.5" cy="-571.95" rx="4" ry="4"/>
</g>
<!-- midas_midas_diagbmatrix -->
<g id="node18" class="node">
<title>midas_midas_diagbmatrix</title>
<g id="a_node18"><a xlink:href="../programs/midas_diagbmatrix.html" xlink:title="midas_midas_diagbmatrix">
<polygon fill="gray" stroke="green" points="1035,-108 872,-108 872,-72 1035,-72 1035,-108"/>
<text text-anchor="middle" x="953.5" y="-86.3" font-family="Times,serif" font-size="14.00">midas_midas_diagbmatrix</text>
</a>
</g>
</g>
<!-- midas_midas_diagbmatrix&#45;&gt;ensembleStateVector_mod -->
<g id="edge17" class="edge">
<title>midas_midas_diagbmatrix&#45;&gt;ensembleStateVector_mod</title>
<path fill="none" stroke="black" d="M867.89,-70.21C819.43,-59.58 759.29,-46.38 712.2,-36.05"/>
<ellipse fill="black" stroke="black" cx="871.96" cy="-71.11" rx="4" ry="4"/>
</g>
<!-- midas_midas_ensembleh -->
<g id="node19" class="node">
<title>midas_midas_ensembleh</title>
<g id="a_node19"><a xlink:href="../programs/midas_ensembleh.html" xlink:title="midas_midas_ensembleh">
<polygon fill="gray" stroke="green" points="1107,-180 952,-180 952,-144 1107,-144 1107,-180"/>
<text text-anchor="middle" x="1029.5" y="-158.3" font-family="Times,serif" font-size="14.00">midas_midas_ensembleh</text>
</a>
</g>
</g>
<!-- midas_midas_ensembleh&#45;&gt;ensembleStateVector_mod -->
<g id="edge18" class="edge">
<title>midas_midas_ensembleh&#45;&gt;ensembleStateVector_mod</title>
<path fill="none" stroke="black" d="M1042.98,-136.25C1051.68,-116.53 1058.81,-89.43 1043.5,-72 1022.26,-47.83 829.21,-31.47 716.09,-23.87"/>
<ellipse fill="black" stroke="black" cx="1041.18" cy="-140.06" rx="4" ry="4"/>
</g>
<!-- midas_midas_enspostprocess -->
<g id="node20" class="node">
<title>midas_midas_enspostprocess</title>
<g id="a_node20"><a xlink:href="../programs/midas_enspostprocess.html" xlink:title="midas_midas_enspostprocess">
<polygon fill="gray" stroke="green" points="1224,-252 1047,-252 1047,-216 1224,-216 1224,-252"/>
<text text-anchor="middle" x="1135.5" y="-230.3" font-family="Times,serif" font-size="14.00">midas_midas_enspostprocess</text>
</a>
</g>
</g>
<!-- midas_midas_enspostprocess&#45;&gt;ensembleStateVector_mod -->
<g id="edge19" class="edge">
<title>midas_midas_enspostprocess&#45;&gt;ensembleStateVector_mod</title>
<path fill="none" stroke="black" d="M1132.87,-207.92C1127.39,-170.21 1110.88,-100.33 1062.5,-72 1005.48,-38.61 823.64,-26.07 716.2,-21.5"/>
<ellipse fill="black" stroke="black" cx="1133.41" cy="-211.92" rx="4" ry="4"/>
</g>
<!-- midas_midas_letkf -->
<g id="node21" class="node">
<title>midas_midas_letkf</title>
<g id="a_node21"><a xlink:href="../programs/midas_letkf.html" xlink:title="midas_midas_letkf">
<polygon fill="gray" stroke="green" points="1312.5,-324 1190.5,-324 1190.5,-288 1312.5,-288 1312.5,-324"/>
<text text-anchor="middle" x="1251.5" y="-302.3" font-family="Times,serif" font-size="14.00">midas_midas_letkf</text>
</a>
</g>
</g>
<!-- midas_midas_letkf&#45;&gt;ensembleStateVector_mod -->
<g id="edge20" class="edge">
<title>midas_midas_letkf&#45;&gt;ensembleStateVector_mod</title>
<path fill="none" stroke="black" d="M1249.85,-279.99C1247.77,-261.43 1243.08,-235.98 1232.5,-216 1191,-137.67 1173.9,-111.41 1094.5,-72 1029.96,-39.97 830.28,-26.81 716.34,-21.8"/>
<ellipse fill="black" stroke="black" cx="1250.24" cy="-284.01" rx="4" ry="4"/>
</g>
</g>
</svg>
