<?xml version="1.0" encoding="UTF-8" standalone="no"?>
<!DOCTYPE svg PUBLIC "-//W3C//DTD SVG 1.1//EN"
 "http://www.w3.org/Graphics/SVG/1.1/DTD/svg11.dtd">
<!-- Generated by graphviz version 3.0.0 (20220315.2325)
 -->
<!-- Title: ensembleObservations_mod Pages: 1 -->
<svg width="478pt" height="601pt"
 viewBox="0.00 0.00 478.00 601.00" xmlns="http://www.w3.org/2000/svg" xmlns:xlink="http://www.w3.org/1999/xlink">
<g id="graph0" class="graph" transform="scale(1 1) rotate(0) translate(4 597)">
<title>ensembleObservations_mod</title>
<polygon fill="white" stroke="transparent" points="-4,4 -4,-597 474,-597 474,4 -4,4"/>
<text text-anchor="middle" x="235" y="-577.8" font-family="Times,serif" font-size="14.00">Blue boxes indicate modules with reverse dependencies not shown</text>
<text text-anchor="middle" x="235" y="-562.8" font-family="Times,serif" font-size="14.00">Higher level reverse dependencies can be shown by clicking on a blue box</text>
<text text-anchor="middle" x="235" y="-547.8" font-family="Times,serif" font-size="14.00">Green boxes are programs</text>
<!-- ensembleObservations_mod -->
<g id="node1" class="node">
<title>ensembleObservations_mod</title>
<g id="a_node1"><a xlink:href="ensembleObservations_mod.html" xlink:title="ensembleObservations_mod">
<polygon fill="none" stroke="black" points="286.5,-36 114.5,-36 114.5,0 286.5,0 286.5,-36"/>
<text text-anchor="middle" x="200.5" y="-14.3" font-family="Times,serif" font-size="14.00">ensembleObservations_mod</text>
</a>
</g>
</g>
<!-- enkf_mod -->
<g id="node2" class="node">
<title>enkf_mod</title>
<g id="a_node2"><a xlink:href="../modules/enkf_mod_rev.svg" xlink:title="enkf_mod">
<polygon fill="none" stroke="blue" points="73,-108 0,-108 0,-72 73,-72 73,-108"/>
<text text-anchor="middle" x="36.5" y="-86.3" font-family="Times,serif" font-size="14.00">enkf_mod</text>
</a>
</g>
</g>
<!-- enkf_mod&#45;&gt;ensembleObservations_mod -->
<g id="edge1" class="edge">
<title>enkf_mod&#45;&gt;ensembleObservations_mod</title>
<path fill="none" stroke="black" d="M80.83,-70.08C105.72,-59.45 136.54,-46.3 160.66,-36"/>
<ellipse fill="black" stroke="black" cx="76.98" cy="-71.72" rx="4" ry="4"/>
</g>
<!-- obsdiagfiles_mod -->
<g id="node3" class="node">
<title>obsdiagfiles_mod</title>
<g id="a_node3"><a xlink:href="../modules/obsdiagfiles_mod_rev.svg" xlink:title="obsdiagfiles_mod">
<polygon fill="none" stroke="blue" points="134,-180 21,-180 21,-144 134,-144 134,-180"/>
<text text-anchor="middle" x="77.5" y="-158.3" font-family="Times,serif" font-size="14.00">obsdiagfiles_mod</text>
</a>
</g>
</g>
<!-- obsdiagfiles_mod&#45;&gt;ensembleObservations_mod -->
<g id="edge2" class="edge">
<title>obsdiagfiles_mod&#45;&gt;ensembleObservations_mod</title>
<path fill="none" stroke="black" d="M95.2,-137.48C109.2,-119.22 129.48,-93.48 148.5,-72 159.44,-59.65 172.44,-46.4 182.7,-36.23"/>
<ellipse fill="black" stroke="black" cx="92.77" cy="-140.67" rx="4" ry="4"/>
</g>
<!-- obsfiles_mod -->
<g id="node4" class="node">
<title>obsfiles_mod</title>
<g id="a_node4"><a xlink:href="../modules/obsfiles_mod_rev.svg" xlink:title="obsfiles_mod">
<polygon fill="none" stroke="blue" points="172,-252 83,-252 83,-216 172,-216 172,-252"/>
<text text-anchor="middle" x="127.5" y="-230.3" font-family="Times,serif" font-size="14.00">obsfiles_mod</text>
</a>
</g>
</g>
<!-- obsfiles_mod&#45;&gt;ensembleObservations_mod -->
<g id="edge3" class="edge">
<title>obsfiles_mod&#45;&gt;ensembleObservations_mod</title>
<path fill="none" stroke="black" d="M135.95,-208.22C150.92,-164.33 181.73,-74.03 194.62,-36.23"/>
<ellipse fill="black" stroke="black" cx="134.64" cy="-212.06" rx="4" ry="4"/>
</g>
<!-- ominusf_mod -->
<g id="node5" class="node">
<title>ominusf_mod</title>
<g id="a_node5"><a xlink:href="../modules/ominusf_mod_rev.svg" xlink:title="ominusf_mod">
<polygon fill="none" stroke="blue" points="210,-324 117,-324 117,-288 210,-288 210,-324"/>
<text text-anchor="middle" x="163.5" y="-302.3" font-family="Times,serif" font-size="14.00">ominusf_mod</text>
</a>
</g>
</g>
<!-- ominusf_mod&#45;&gt;ensembleObservations_mod -->
<g id="edge4" class="edge">
<title>ominusf_mod&#45;&gt;ensembleObservations_mod</title>
<path fill="none" stroke="black" d="M172.8,-279.96C175.71,-271.23 178.64,-261.28 180.5,-252 196.47,-172.39 199.7,-74.96 200.34,-36.14"/>
<ellipse fill="black" stroke="black" cx="171.48" cy="-283.81" rx="4" ry="4"/>
</g>
<!-- midas_midas_ensembleh -->
<g id="node6" class="node">
<title>midas_midas_ensembleh</title>
<g id="a_node6"><a xlink:href="../programs/midas_ensembleh.html" xlink:title="midas_midas_ensembleh">
<polygon fill="gray" stroke="green" points="282,-396 127,-396 127,-360 282,-360 282,-396"/>
<text text-anchor="middle" x="204.5" y="-374.3" font-family="Times,serif" font-size="14.00">midas_midas_ensembleh</text>
</a>
</g>
</g>
<!-- midas_midas_ensembleh&#45;&gt;ensembleObservations_mod -->
<g id="edge5" class="edge">
<title>midas_midas_ensembleh&#45;&gt;ensembleObservations_mod</title>
<path fill="none" stroke="black" d="M214.22,-352.11C224.26,-324.09 238.5,-276.99 238.5,-235 238.5,-235 238.5,-235 238.5,-161 238.5,-114.55 219.29,-62.38 208.19,-36.09"/>
<ellipse fill="black" stroke="black" cx="212.76" cy="-356.07" rx="4" ry="4"/>
</g>
<!-- midas_midas_letkf -->
<g id="node7" class="node">
<title>midas_midas_letkf</title>
<g id="a_node7"><a xlink:href="../programs/midas_letkf.html" xlink:title="midas_midas_letkf">
<polygon fill="gray" stroke="green" points="371.5,-468 249.5,-468 249.5,-432 371.5,-432 371.5,-468"/>
<text text-anchor="middle" x="310.5" y="-446.3" font-family="Times,serif" font-size="14.00">midas_midas_letkf</text>
</a>
</g>
</g>
<!-- midas_midas_letkf&#45;&gt;ensembleObservations_mod -->
<g id="edge6" class="edge">
<title>midas_midas_letkf&#45;&gt;ensembleObservations_mod</title>
<path fill="none" stroke="black" d="M310.5,-423.78C310.5,-395.39 310.5,-347.89 310.5,-307 310.5,-307 310.5,-307 310.5,-161 310.5,-106.27 258.8,-59.84 226.29,-36.06"/>
<ellipse fill="black" stroke="black" cx="310.5" cy="-427.95" rx="4" ry="4"/>
</g>
<!-- midas_midas_ominusf -->
<g id="node8" class="node">
<title>midas_midas_ominusf</title>
<g id="a_node8"><a xlink:href="../programs/midas_ominusf.html" xlink:title="midas_midas_ominusf">
<polygon fill="gray" stroke="green" points="470,-540 329,-540 329,-504 470,-504 470,-540"/>
<text text-anchor="middle" x="399.5" y="-518.3" font-family="Times,serif" font-size="14.00">midas_midas_ominusf</text>
</a>
</g>
</g>
<!-- midas_midas_ominusf&#45;&gt;ensembleObservations_mod -->
<g id="edge7" class="edge">
<title>midas_midas_ominusf&#45;&gt;ensembleObservations_mod</title>
<path fill="none" stroke="black" d="M399.5,-495.78C399.5,-467.39 399.5,-419.89 399.5,-379 399.5,-379 399.5,-379 399.5,-161 399.5,-93.94 323.7,-55.57 265.66,-36.01"/>
<ellipse fill="black" stroke="black" cx="399.5" cy="-499.95" rx="4" ry="4"/>
</g>
</g>
</svg>
