<?xml version="1.0" encoding="UTF-8" standalone="no"?>
<!DOCTYPE svg PUBLIC "-//W3C//DTD SVG 1.1//EN"
 "http://www.w3.org/Graphics/SVG/1.1/DTD/svg11.dtd">
<!-- Generated by graphviz version 3.0.0 (20220315.2325)
 -->
<!-- Title: ensembleObservations_mod Pages: 1 -->
<svg width="834pt" height="673pt"
 viewBox="0.00 0.00 834.00 673.00" xmlns="http://www.w3.org/2000/svg" xmlns:xlink="http://www.w3.org/1999/xlink">
<g id="graph0" class="graph" transform="scale(1 1) rotate(0) translate(4 669)">
<title>ensembleObservations_mod</title>
<polygon fill="white" stroke="transparent" points="-4,4 -4,-669 830,-669 830,4 -4,4"/>
<text text-anchor="middle" x="413" y="-37.8" font-family="Times,serif" font-size="14.00">Red boxes indicate modules with dependencies not shown</text>
<text text-anchor="middle" x="413" y="-22.8" font-family="Times,serif" font-size="14.00">Lower level dependencies can be shown by clicking on a red box</text>
<text text-anchor="middle" x="413" y="-7.8" font-family="Times,serif" font-size="14.00">Shaded boxes indicate modules with no dependencies</text>
<!-- ensembleObservations_mod -->
<g id="node1" class="node">
<title>ensembleObservations_mod</title>
<g id="a_node1"><a xlink:href="ensembleObservations_mod.html" xlink:title="ensembleObservations_mod">
<polygon fill="none" stroke="black" points="439.5,-665 267.5,-665 267.5,-629 439.5,-629 439.5,-665"/>
<text text-anchor="middle" x="353.5" y="-643.3" font-family="Times,serif" font-size="14.00">ensembleObservations_mod</text>
</a>
</g>
</g>
<!-- bufr_mod -->
<g id="node2" class="node">
<title>bufr_mod</title>
<g id="a_node2"><a xlink:href="bufr_mod.html" xlink:title="bufr_mod">
<polygon fill="gray" stroke="black" points="71,-593 0,-593 0,-557 71,-557 71,-593"/>
<text text-anchor="middle" x="35.5" y="-571.3" font-family="Times,serif" font-size="14.00">bufr_mod</text>
</a>
</g>
</g>
<!-- ensembleObservations_mod&#45;&gt;bufr_mod -->
<g id="edge1" class="edge">
<title>ensembleObservations_mod&#45;&gt;bufr_mod</title>
<path fill="none" stroke="black" d="M267.44,-631.97C214.55,-622.62 145.63,-609.09 85.5,-593 84.03,-592.61 82.55,-592.19 81.05,-591.77"/>
<polygon fill="black" stroke="black" points="81.69,-588.3 71.1,-588.75 79.66,-595 81.69,-588.3"/>
</g>
<!-- codeprecision_mod -->
<g id="node3" class="node">
<title>codeprecision_mod</title>
<g id="a_node3"><a xlink:href="codeprecision_mod.html" xlink:title="codeprecision_mod">
<polygon fill="gray" stroke="black" points="135,-521 12,-521 12,-485 135,-485 135,-521"/>
<text text-anchor="middle" x="73.5" y="-499.3" font-family="Times,serif" font-size="14.00">codeprecision_mod</text>
</a>
</g>
</g>
<!-- ensembleObservations_mod&#45;&gt;codeprecision_mod -->
<g id="edge2" class="edge">
<title>ensembleObservations_mod&#45;&gt;codeprecision_mod</title>
<path fill="none" stroke="black" d="M267.47,-635.59C229.19,-628.06 184.86,-615.13 149.5,-593 123.99,-577.04 102.56,-549.76 89.03,-529.6"/>
<polygon fill="black" stroke="black" points="91.94,-527.66 83.55,-521.18 86.07,-531.47 91.94,-527.66"/>
</g>
<!-- codtyp_mod -->
<g id="node4" class="node">
<title>codtyp_mod</title>
<g id="a_node4"><a xlink:href="../modules/codtyp_mod.svg" xlink:title="codtyp_mod">
<polygon fill="none" stroke="red" points="173,-449 88,-449 88,-413 173,-413 173,-449"/>
<text text-anchor="middle" x="130.5" y="-427.3" font-family="Times,serif" font-size="14.00">codtyp_mod</text>
</a>
</g>
</g>
<!-- ensembleObservations_mod&#45;&gt;codtyp_mod -->
<g id="edge3" class="edge">
<title>ensembleObservations_mod&#45;&gt;codtyp_mod</title>
<path fill="none" stroke="black" d="M267.47,-634.28C239,-626.62 209.11,-613.95 187.5,-593 167.96,-574.06 147.14,-499.53 136.92,-458.85"/>
<polygon fill="black" stroke="black" points="140.3,-457.93 134.5,-449.06 133.5,-459.6 140.3,-457.93"/>
</g>
<!-- columndata_mod -->
<g id="node5" class="node">
<title>columndata_mod</title>
<g id="a_node5"><a xlink:href="../modules/columndata_mod.svg" xlink:title="columndata_mod">
<polygon fill="none" stroke="red" points="211.5,-377 99.5,-377 99.5,-341 211.5,-341 211.5,-377"/>
<text text-anchor="middle" x="155.5" y="-355.3" font-family="Times,serif" font-size="14.00">columndata_mod</text>
</a>
</g>
</g>
<!-- ensembleObservations_mod&#45;&gt;columndata_mod -->
<g id="edge4" class="edge">
<title>ensembleObservations_mod&#45;&gt;columndata_mod</title>
<path fill="none" stroke="black" d="M279.95,-628.9C259.82,-620.99 239.67,-609.52 225.5,-593 171.88,-530.49 209.58,-490.42 181.5,-413 178.25,-404.04 173.93,-394.59 169.75,-386.2"/>
<polygon fill="black" stroke="black" points="172.83,-384.54 165.15,-377.25 166.61,-387.74 172.83,-384.54"/>
</g>
<!-- earthconstants_mod -->
<g id="node6" class="node">
<title>earthconstants_mod</title>
<g id="a_node6"><a xlink:href="../modules/earthconstants_mod.svg" xlink:title="earthconstants_mod">
<polygon fill="none" stroke="red" points="249.5,-305 123.5,-305 123.5,-269 249.5,-269 249.5,-305"/>
<text text-anchor="middle" x="186.5" y="-283.3" font-family="Times,serif" font-size="14.00">earthconstants_mod</text>
</a>
</g>
</g>
<!-- ensembleObservations_mod&#45;&gt;earthconstants_mod -->
<g id="edge5" class="edge">
<title>ensembleObservations_mod&#45;&gt;earthconstants_mod</title>
<path fill="none" stroke="black" d="M309.94,-628.96C293.24,-620.45 275.37,-608.58 263.5,-593 238.67,-560.41 239.5,-544.97 239.5,-504 239.5,-504 239.5,-504 239.5,-430 239.5,-389.55 235.89,-378.4 220.5,-341 216.61,-331.55 211.02,-321.93 205.5,-313.52"/>
<polygon fill="black" stroke="black" points="208.38,-311.54 199.84,-305.27 202.61,-315.49 208.38,-311.54"/>
</g>
<!-- kdtree2_mod -->
<g id="node7" class="node">
<title>kdtree2_mod</title>
<g id="a_node7"><a xlink:href="../modules/kdtree2_mod.svg" xlink:title="kdtree2_mod">
<polygon fill="none" stroke="red" points="287,-233 198,-233 198,-197 287,-197 287,-233"/>
<text text-anchor="middle" x="242.5" y="-211.3" font-family="Times,serif" font-size="14.00">kdtree2_mod</text>
</a>
</g>
</g>
<!-- ensembleObservations_mod&#45;&gt;kdtree2_mod -->
<g id="edge6" class="edge">
<title>ensembleObservations_mod&#45;&gt;kdtree2_mod</title>
<path fill="none" stroke="black" d="M332.09,-628.86C321.49,-619.33 309.31,-606.65 301.5,-593 281.16,-557.44 277.5,-544.97 277.5,-504 277.5,-504 277.5,-504 277.5,-358 277.5,-316.84 263.47,-270.88 253.17,-242.69"/>
<polygon fill="black" stroke="black" points="256.38,-241.28 249.58,-233.15 249.83,-243.74 256.38,-241.28"/>
</g>
<!-- mathphysconstants_mod -->
<g id="node8" class="node">
<title>mathphysconstants_mod</title>
<g id="a_node8"><a xlink:href="mathphysconstants_mod.html" xlink:title="mathphysconstants_mod">
<polygon fill="gray" stroke="black" points="325.5,-161 173.5,-161 173.5,-125 325.5,-125 325.5,-161"/>
<text text-anchor="middle" x="249.5" y="-139.3" font-family="Times,serif" font-size="14.00">mathphysconstants_mod</text>
</a>
</g>
</g>
<!-- ensembleObservations_mod&#45;&gt;mathphysconstants_mod -->
<g id="edge7" class="edge">
<title>ensembleObservations_mod&#45;&gt;mathphysconstants_mod</title>
<path fill="none" stroke="black" d="M345.81,-628.91C334.71,-602.62 315.5,-550.45 315.5,-504 315.5,-504 315.5,-504 315.5,-286 315.5,-245.46 313.79,-233.18 295.5,-197 290.42,-186.95 283.01,-177.24 275.61,-168.95"/>
<polygon fill="black" stroke="black" points="277.99,-166.37 268.61,-161.46 272.88,-171.15 277.99,-166.37"/>
</g>
<!-- midasmpi_mod -->
<g id="node9" class="node">
<title>midasmpi_mod</title>
<g id="a_node9"><a xlink:href="../modules/midasmpi_mod.svg" xlink:title="midasmpi_mod">
<polygon fill="none" stroke="red" points="404.5,-89 302.5,-89 302.5,-53 404.5,-53 404.5,-89"/>
<text text-anchor="middle" x="353.5" y="-67.3" font-family="Times,serif" font-size="14.00">midasmpi_mod</text>
</a>
</g>
</g>
<!-- ensembleObservations_mod&#45;&gt;midasmpi_mod -->
<g id="edge8" class="edge">
<title>ensembleObservations_mod&#45;&gt;midasmpi_mod</title>
<path fill="none" stroke="black" d="M353.5,-628.95C353.5,-602.29 353.5,-549.11 353.5,-504 353.5,-504 353.5,-504 353.5,-214 353.5,-174 353.5,-127.65 353.5,-99.08"/>
<polygon fill="black" stroke="black" points="357,-99.05 353.5,-89.05 350,-99.05 357,-99.05"/>
</g>
<!-- obsfamilylist_mod -->
<g id="node10" class="node">
<title>obsfamilylist_mod</title>
<g id="a_node10"><a xlink:href="obsfamilylist_mod.html" xlink:title="obsfamilylist_mod">
<polygon fill="gray" stroke="black" points="501,-593 382,-593 382,-557 501,-557 501,-593"/>
<text text-anchor="middle" x="441.5" y="-571.3" font-family="Times,serif" font-size="14.00">obsfamilylist_mod</text>
</a>
</g>
</g>
<!-- ensembleObservations_mod&#45;&gt;obsfamilylist_mod -->
<g id="edge9" class="edge">
<title>ensembleObservations_mod&#45;&gt;obsfamilylist_mod</title>
<path fill="none" stroke="black" d="M375.25,-628.7C386.34,-619.88 399.97,-609.03 411.99,-599.47"/>
<polygon fill="black" stroke="black" points="414.35,-602.07 420,-593.1 409.99,-596.59 414.35,-602.07"/>
</g>
<!-- obsspacedata_mod -->
<g id="node11" class="node">
<title>obsspacedata_mod</title>
<g id="a_node11"><a xlink:href="../modules/obsspacedata_mod.svg" xlink:title="obsspacedata_mod">
<polygon fill="none" stroke="red" points="539,-521 420,-521 420,-485 539,-485 539,-521"/>
<text text-anchor="middle" x="479.5" y="-499.3" font-family="Times,serif" font-size="14.00">obsspacedata_mod</text>
</a>
</g>
</g>
<!-- ensembleObservations_mod&#45;&gt;obsspacedata_mod -->
<g id="edge10" class="edge">
<title>ensembleObservations_mod&#45;&gt;obsspacedata_mod</title>
<path fill="none" stroke="black" d="M439.76,-636.39C466.49,-628.9 493.18,-615.79 509.5,-593 523.11,-574 512.08,-548.39 499.73,-529.51"/>
<polygon fill="black" stroke="black" points="502.46,-527.3 493.86,-521.11 496.72,-531.31 502.46,-527.3"/>
</g>
<!-- oceanmask_mod -->
<g id="node12" class="node">
<title>oceanmask_mod</title>
<g id="a_node12"><a xlink:href="../modules/oceanmask_mod.svg" xlink:title="oceanmask_mod">
<polygon fill="none" stroke="red" points="577,-449 468,-449 468,-413 577,-413 577,-449"/>
<text text-anchor="middle" x="522.5" y="-427.3" font-family="Times,serif" font-size="14.00">oceanmask_mod</text>
</a>
</g>
</g>
<!-- ensembleObservations_mod&#45;&gt;oceanmask_mod -->
<g id="edge11" class="edge">
<title>ensembleObservations_mod&#45;&gt;oceanmask_mod</title>
<path fill="none" stroke="black" d="M439.53,-637.21C470.91,-629.91 504.35,-616.73 527.5,-593 561.59,-558.06 558.17,-532.64 547.5,-485 545.49,-476.01 541.77,-466.75 537.8,-458.53"/>
<polygon fill="black" stroke="black" points="540.82,-456.73 533.13,-449.44 534.59,-459.94 540.82,-456.73"/>
</g>
<!-- randomnumber_mod -->
<g id="node13" class="node">
<title>randomnumber_mod</title>
<g id="a_node13"><a xlink:href="randomnumber_mod.html" xlink:title="randomnumber_mod">
<polygon fill="gray" stroke="black" points="615.5,-377 483.5,-377 483.5,-341 615.5,-341 615.5,-377"/>
<text text-anchor="middle" x="549.5" y="-355.3" font-family="Times,serif" font-size="14.00">randomnumber_mod</text>
</a>
</g>
</g>
<!-- ensembleObservations_mod&#45;&gt;randomnumber_mod -->
<g id="edge12" class="edge">
<title>ensembleObservations_mod&#45;&gt;randomnumber_mod</title>
<path fill="none" stroke="black" d="M439.67,-632.31C486.2,-623.19 537.36,-609.81 553.5,-593 609.78,-534.4 609.38,-490.67 585.5,-413 582.49,-403.22 576.99,-393.62 571.18,-385.33"/>
<polygon fill="black" stroke="black" points="573.91,-383.13 565.11,-377.23 568.31,-387.33 573.91,-383.13"/>
</g>
<!-- tovsnl_mod -->
<g id="node14" class="node">
<title>tovsnl_mod</title>
<g id="a_node14"><a xlink:href="../modules/tovsnl_mod.svg" xlink:title="tovsnl_mod">
<polygon fill="none" stroke="red" points="668,-305 587,-305 587,-269 668,-269 668,-305"/>
<text text-anchor="middle" x="627.5" y="-283.3" font-family="Times,serif" font-size="14.00">tovsnl_mod</text>
</a>
</g>
</g>
<!-- ensembleObservations_mod&#45;&gt;tovsnl_mod -->
<g id="edge13" class="edge">
<title>ensembleObservations_mod&#45;&gt;tovsnl_mod</title>
<path fill="none" stroke="black" d="M439.72,-639.68C525.21,-628.16 643.5,-595.66 643.5,-504 643.5,-504 643.5,-504 643.5,-430 643.5,-389.96 637.14,-343.97 632.44,-315.45"/>
<polygon fill="black" stroke="black" points="635.86,-314.69 630.74,-305.42 628.96,-315.86 635.86,-314.69"/>
</g>
<!-- utilities_mod -->
<g id="node15" class="node">
<title>utilities_mod</title>
<g id="a_node15"><a xlink:href="../modules/utilities_mod.svg" xlink:title="utilities_mod">
<polygon fill="none" stroke="red" points="741,-233 652,-233 652,-197 741,-197 741,-233"/>
<text text-anchor="middle" x="696.5" y="-211.3" font-family="Times,serif" font-size="14.00">utilities_mod</text>
</a>
</g>
</g>
<!-- ensembleObservations_mod&#45;&gt;utilities_mod -->
<g id="edge14" class="edge">
<title>ensembleObservations_mod&#45;&gt;utilities_mod</title>
<path fill="none" stroke="black" d="M439.72,-643.9C495.56,-639.12 567.94,-626.21 623.5,-593 667.41,-566.75 696.5,-555.16 696.5,-504 696.5,-504 696.5,-504 696.5,-358 696.5,-318 696.5,-271.65 696.5,-243.08"/>
<polygon fill="black" stroke="black" points="700,-243.05 696.5,-233.05 693,-243.05 700,-243.05"/>
</g>
<!-- varnamelist_mod -->
<g id="node16" class="node">
<title>varnamelist_mod</title>
<g id="a_node16"><a xlink:href="../modules/varnamelist_mod.svg" xlink:title="varnamelist_mod">
<polygon fill="none" stroke="red" points="826,-161 713,-161 713,-125 826,-125 826,-161"/>
<text text-anchor="middle" x="769.5" y="-139.3" font-family="Times,serif" font-size="14.00">varnamelist_mod</text>
</a>
</g>
</g>
<!-- ensembleObservations_mod&#45;&gt;varnamelist_mod -->
<g id="edge15" class="edge">
<title>ensembleObservations_mod&#45;&gt;varnamelist_mod</title>
<path fill="none" stroke="black" d="M439.62,-643.52C504.16,-638.82 593.25,-626.19 664.5,-593 719.95,-567.17 769.5,-565.18 769.5,-504 769.5,-504 769.5,-504 769.5,-286 769.5,-246 769.5,-199.65 769.5,-171.08"/>
<polygon fill="black" stroke="black" points="773,-171.05 769.5,-161.05 766,-171.05 773,-171.05"/>
</g>
</g>
</svg>
