<?xml version="1.0" encoding="UTF-8" standalone="no"?>
<!DOCTYPE svg PUBLIC "-//W3C//DTD SVG 1.1//EN"
 "http://www.w3.org/Graphics/SVG/1.1/DTD/svg11.dtd">
<!-- Generated by graphviz version 3.0.0 (20220315.2325)
 -->
<!-- Title: ensembleStateVector_mod Pages: 1 -->
<svg width="850pt" height="673pt"
 viewBox="0.00 0.00 849.50 673.00" xmlns="http://www.w3.org/2000/svg" xmlns:xlink="http://www.w3.org/1999/xlink">
<g id="graph0" class="graph" transform="scale(1 1) rotate(0) translate(4 669)">
<title>ensembleStateVector_mod</title>
<polygon fill="white" stroke="transparent" points="-4,4 -4,-669 845.5,-669 845.5,4 -4,4"/>
<text text-anchor="middle" x="420.75" y="-37.8" font-family="Times,serif" font-size="14.00">Red boxes indicate modules with dependencies not shown</text>
<text text-anchor="middle" x="420.75" y="-22.8" font-family="Times,serif" font-size="14.00">Lower level dependencies can be shown by clicking on a red box</text>
<text text-anchor="middle" x="420.75" y="-7.8" font-family="Times,serif" font-size="14.00">Shaded boxes indicate modules with no dependencies</text>
<!-- ensembleStateVector_mod -->
<g id="node1" class="node">
<title>ensembleStateVector_mod</title>
<g id="a_node1"><a xlink:href="ensembleStateVector_mod.html" xlink:title="ensembleStateVector_mod">
<polygon fill="none" stroke="black" points="462,-665 299,-665 299,-629 462,-629 462,-665"/>
<text text-anchor="middle" x="380.5" y="-643.3" font-family="Times,serif" font-size="14.00">ensembleStateVector_mod</text>
</a>
</g>
</g>
<!-- codeprecision_mod -->
<g id="node2" class="node">
<title>codeprecision_mod</title>
<g id="a_node2"><a xlink:href="codeprecision_mod.html" xlink:title="codeprecision_mod">
<polygon fill="gray" stroke="black" points="123,-593 0,-593 0,-557 123,-557 123,-593"/>
<text text-anchor="middle" x="61.5" y="-571.3" font-family="Times,serif" font-size="14.00">codeprecision_mod</text>
</a>
</g>
</g>
<!-- ensembleStateVector_mod&#45;&gt;codeprecision_mod -->
<g id="edge1" class="edge">
<title>ensembleStateVector_mod&#45;&gt;codeprecision_mod</title>
<path fill="none" stroke="black" d="M301.96,-628.98C254.36,-618.64 192.42,-605.13 137.5,-593 136.06,-592.68 134.6,-592.36 133.13,-592.03"/>
<polygon fill="black" stroke="black" points="133.82,-588.6 123.3,-589.85 132.3,-595.43 133.82,-588.6"/>
</g>
<!-- filenames_mod -->
<g id="node3" class="node">
<title>filenames_mod</title>
<g id="a_node3"><a xlink:href="../modules/filenames_mod.svg" xlink:title="filenames_mod">
<polygon fill="none" stroke="red" points="181,-521 80,-521 80,-485 181,-485 181,-521"/>
<text text-anchor="middle" x="130.5" y="-499.3" font-family="Times,serif" font-size="14.00">filenames_mod</text>
</a>
</g>
</g>
<!-- ensembleStateVector_mod&#45;&gt;filenames_mod -->
<g id="edge2" class="edge">
<title>ensembleStateVector_mod&#45;&gt;filenames_mod</title>
<path fill="none" stroke="black" d="M298.95,-634.68C264.73,-627.01 225.91,-614.23 195.5,-593 172.48,-576.93 154.49,-550.03 143.33,-530.01"/>
<polygon fill="black" stroke="black" points="146.36,-528.24 138.55,-521.08 140.18,-531.55 146.36,-528.24"/>
</g>
<!-- gridstatevectorfileio_mod -->
<g id="node4" class="node">
<title>gridstatevectorfileio_mod</title>
<g id="a_node4"><a xlink:href="../modules/gridstatevectorfileio_mod.svg" xlink:title="gridstatevectorfileio_mod">
<polygon fill="none" stroke="red" points="219.5,-449 61.5,-449 61.5,-413 219.5,-413 219.5,-449"/>
<text text-anchor="middle" x="140.5" y="-427.3" font-family="Times,serif" font-size="14.00">gridstatevectorfileio_mod</text>
</a>
</g>
</g>
<!-- ensembleStateVector_mod&#45;&gt;gridstatevectorfileio_mod -->
<g id="edge3" class="edge">
<title>ensembleStateVector_mod&#45;&gt;gridstatevectorfileio_mod</title>
<path fill="none" stroke="black" d="M298.98,-629.9C275.55,-621.99 251.51,-610.28 233.5,-593 196.11,-557.11 217.32,-528.73 189.5,-485 183.11,-474.96 174.73,-465.08 166.7,-456.62"/>
<polygon fill="black" stroke="black" points="169,-453.97 159.5,-449.28 164.01,-458.87 169,-453.97"/>
</g>
<!-- gridstatevector_mod -->
<g id="node5" class="node">
<title>gridstatevector_mod</title>
<g id="a_node5"><a xlink:href="../modules/gridstatevector_mod.svg" xlink:title="gridstatevector_mod">
<polygon fill="none" stroke="red" points="257.5,-377 127.5,-377 127.5,-341 257.5,-341 257.5,-377"/>
<text text-anchor="middle" x="192.5" y="-355.3" font-family="Times,serif" font-size="14.00">gridstatevector_mod</text>
</a>
</g>
</g>
<!-- ensembleStateVector_mod&#45;&gt;gridstatevector_mod -->
<g id="edge4" class="edge">
<title>ensembleStateVector_mod&#45;&gt;gridstatevector_mod</title>
<path fill="none" stroke="black" d="M322.51,-628.98C303.8,-620.85 284.54,-609.25 271.5,-593 220.01,-528.86 261.71,-488.25 228.5,-413 224.3,-403.48 218.37,-393.85 212.52,-385.45"/>
<polygon fill="black" stroke="black" points="215.25,-383.24 206.54,-377.2 209.58,-387.35 215.25,-383.24"/>
</g>
<!-- horizontalcoord_mod -->
<g id="node6" class="node">
<title>horizontalcoord_mod</title>
<g id="a_node6"><a xlink:href="../modules/horizontalcoord_mod.svg" xlink:title="horizontalcoord_mod">
<polygon fill="none" stroke="red" points="295.5,-305 161.5,-305 161.5,-269 295.5,-269 295.5,-305"/>
<text text-anchor="middle" x="228.5" y="-283.3" font-family="Times,serif" font-size="14.00">horizontalcoord_mod</text>
</a>
</g>
</g>
<!-- ensembleStateVector_mod&#45;&gt;horizontalcoord_mod -->
<g id="edge5" class="edge">
<title>ensembleStateVector_mod&#45;&gt;horizontalcoord_mod</title>
<path fill="none" stroke="black" d="M348.65,-628.8C334.77,-619.82 319.44,-607.63 309.5,-593 286.49,-559.11 285.5,-544.97 285.5,-504 285.5,-504 285.5,-504 285.5,-430 285.5,-389.55 282.85,-377.99 266.5,-341 262.17,-331.21 255.86,-321.43 249.62,-312.98"/>
<polygon fill="black" stroke="black" points="252.36,-310.8 243.48,-305.03 246.82,-315.08 252.36,-310.8"/>
</g>
<!-- interpolation_mod -->
<g id="node7" class="node">
<title>interpolation_mod</title>
<g id="a_node7"><a xlink:href="../modules/interpolation_mod.svg" xlink:title="interpolation_mod">
<polygon fill="none" stroke="red" points="333.5,-233 215.5,-233 215.5,-197 333.5,-197 333.5,-233"/>
<text text-anchor="middle" x="274.5" y="-211.3" font-family="Times,serif" font-size="14.00">interpolation_mod</text>
</a>
</g>
</g>
<!-- ensembleStateVector_mod&#45;&gt;interpolation_mod -->
<g id="edge6" class="edge">
<title>ensembleStateVector_mod&#45;&gt;interpolation_mod</title>
<path fill="none" stroke="black" d="M367.83,-628.57C361.03,-618.56 352.95,-605.52 347.5,-593 331.16,-555.43 323.5,-544.97 323.5,-504 323.5,-504 323.5,-504 323.5,-358 323.5,-317.55 318.85,-306.82 304.5,-269 300.97,-259.71 295.99,-250.09 291.1,-241.65"/>
<polygon fill="black" stroke="black" points="294.06,-239.77 285.9,-233.01 288.06,-243.38 294.06,-239.77"/>
</g>
<!-- lamanalysisgridtransforms_mod -->
<g id="node8" class="node">
<title>lamanalysisgridtransforms_mod</title>
<g id="a_node8"><a xlink:href="../modules/lamanalysisgridtransforms_mod.svg" xlink:title="lamanalysisgridtransforms_mod">
<polygon fill="none" stroke="red" points="372,-161 177,-161 177,-125 372,-125 372,-161"/>
<text text-anchor="middle" x="274.5" y="-139.3" font-family="Times,serif" font-size="14.00">lamanalysisgridtransforms_mod</text>
</a>
</g>
</g>
<!-- ensembleStateVector_mod&#45;&gt;lamanalysisgridtransforms_mod -->
<g id="edge7" class="edge">
<title>ensembleStateVector_mod&#45;&gt;lamanalysisgridtransforms_mod</title>
<path fill="none" stroke="black" d="M376.66,-628.61C371.1,-601.94 361.5,-549.27 361.5,-504 361.5,-504 361.5,-504 361.5,-286 361.5,-245.55 363.97,-231.28 342.5,-197 335.16,-185.27 324.25,-175.11 313.31,-166.9"/>
<polygon fill="black" stroke="black" points="315.18,-163.94 305,-161.01 311.14,-169.65 315.18,-163.94"/>
</g>
<!-- midasmpi_mod -->
<g id="node9" class="node">
<title>midasmpi_mod</title>
<g id="a_node9"><a xlink:href="../modules/midasmpi_mod.svg" xlink:title="midasmpi_mod">
<polygon fill="none" stroke="red" points="450.5,-89 348.5,-89 348.5,-53 450.5,-53 450.5,-89"/>
<text text-anchor="middle" x="399.5" y="-67.3" font-family="Times,serif" font-size="14.00">midasmpi_mod</text>
</a>
</g>
</g>
<!-- ensembleStateVector_mod&#45;&gt;midasmpi_mod -->
<g id="edge8" class="edge">
<title>ensembleStateVector_mod&#45;&gt;midasmpi_mod</title>
<path fill="none" stroke="black" d="M384.34,-628.61C389.9,-601.94 399.5,-549.27 399.5,-504 399.5,-504 399.5,-504 399.5,-214 399.5,-174 399.5,-127.65 399.5,-99.08"/>
<polygon fill="black" stroke="black" points="403,-99.05 399.5,-89.05 396,-99.05 403,-99.05"/>
</g>
<!-- oceanmask_mod -->
<g id="node10" class="node">
<title>oceanmask_mod</title>
<g id="a_node10"><a xlink:href="../modules/oceanmask_mod.svg" xlink:title="oceanmask_mod">
<polygon fill="none" stroke="red" points="537,-593 428,-593 428,-557 537,-557 537,-593"/>
<text text-anchor="middle" x="482.5" y="-571.3" font-family="Times,serif" font-size="14.00">oceanmask_mod</text>
</a>
</g>
</g>
<!-- ensembleStateVector_mod&#45;&gt;oceanmask_mod -->
<g id="edge9" class="edge">
<title>ensembleStateVector_mod&#45;&gt;oceanmask_mod</title>
<path fill="none" stroke="black" d="M405.45,-628.88C418.54,-619.89 434.76,-608.76 448.94,-599.03"/>
<polygon fill="black" stroke="black" points="451.19,-601.73 457.45,-593.19 447.23,-595.96 451.19,-601.73"/>
</g>
<!-- ramdisk_mod -->
<g id="node11" class="node">
<title>ramdisk_mod</title>
<g id="a_node11"><a xlink:href="../modules/ramdisk_mod.svg" xlink:title="ramdisk_mod">
<polygon fill="none" stroke="red" points="575.5,-521 483.5,-521 483.5,-485 575.5,-485 575.5,-521"/>
<text text-anchor="middle" x="529.5" y="-499.3" font-family="Times,serif" font-size="14.00">ramdisk_mod</text>
</a>
</g>
</g>
<!-- ensembleStateVector_mod&#45;&gt;ramdisk_mod -->
<g id="edge10" class="edge">
<title>ensembleStateVector_mod&#45;&gt;ramdisk_mod</title>
<path fill="none" stroke="black" d="M462.12,-639.86C493.4,-633.04 526.18,-619.5 545.5,-593 558.71,-574.88 552.2,-549.26 543.86,-530.17"/>
<polygon fill="black" stroke="black" points="547.01,-528.64 539.56,-521.11 540.68,-531.64 547.01,-528.64"/>
</g>
<!-- timecoord_mod -->
<g id="node12" class="node">
<title>timecoord_mod</title>
<g id="a_node12"><a xlink:href="../modules/timecoord_mod.svg" xlink:title="timecoord_mod">
<polygon fill="none" stroke="red" points="613.5,-449 509.5,-449 509.5,-413 613.5,-413 613.5,-449"/>
<text text-anchor="middle" x="561.5" y="-427.3" font-family="Times,serif" font-size="14.00">timecoord_mod</text>
</a>
</g>
</g>
<!-- ensembleStateVector_mod&#45;&gt;timecoord_mod -->
<g id="edge11" class="edge">
<title>ensembleStateVector_mod&#45;&gt;timecoord_mod</title>
<path fill="none" stroke="black" d="M462.32,-639.76C497.6,-633.06 536.81,-619.64 563.5,-593 598.11,-558.46 594.44,-532.88 584.5,-485 582.62,-475.96 579.13,-466.58 575.41,-458.26"/>
<polygon fill="black" stroke="black" points="578.5,-456.6 571.04,-449.07 572.18,-459.61 578.5,-456.6"/>
</g>
<!-- utilities_mod -->
<g id="node13" class="node">
<title>utilities_mod</title>
<g id="a_node13"><a xlink:href="../modules/utilities_mod.svg" xlink:title="utilities_mod">
<polygon fill="none" stroke="red" points="668,-377 579,-377 579,-341 668,-341 668,-377"/>
<text text-anchor="middle" x="623.5" y="-355.3" font-family="Times,serif" font-size="14.00">utilities_mod</text>
</a>
</g>
</g>
<!-- ensembleStateVector_mod&#45;&gt;utilities_mod -->
<g id="edge12" class="edge">
<title>ensembleStateVector_mod&#45;&gt;utilities_mod</title>
<path fill="none" stroke="black" d="M462.1,-634.23C512.77,-625.28 571.55,-611.37 589.5,-593 643.82,-537.41 636.21,-435.88 628.7,-387.31"/>
<polygon fill="black" stroke="black" points="632.11,-386.52 627.02,-377.24 625.21,-387.67 632.11,-386.52"/>
</g>
<!-- varnamelist_mod -->
<g id="node14" class="node">
<title>varnamelist_mod</title>
<g id="a_node14"><a xlink:href="../modules/varnamelist_mod.svg" xlink:title="varnamelist_mod">
<polygon fill="none" stroke="red" points="753,-305 640,-305 640,-269 753,-269 753,-305"/>
<text text-anchor="middle" x="696.5" y="-283.3" font-family="Times,serif" font-size="14.00">varnamelist_mod</text>
</a>
</g>
</g>
<!-- ensembleStateVector_mod&#45;&gt;varnamelist_mod -->
<g id="edge13" class="edge">
<title>ensembleStateVector_mod&#45;&gt;varnamelist_mod</title>
<path fill="none" stroke="black" d="M462.29,-643.41C555.92,-635.57 696.5,-606.7 696.5,-504 696.5,-504 696.5,-504 696.5,-430 696.5,-390 696.5,-343.65 696.5,-315.08"/>
<polygon fill="black" stroke="black" points="700,-315.05 696.5,-305.05 693,-315.05 700,-315.05"/>
</g>
<!-- verticalcoord_mod -->
<g id="node15" class="node">
<title>verticalcoord_mod</title>
<g id="a_node15"><a xlink:href="../modules/verticalcoord_mod.svg" xlink:title="verticalcoord_mod">
<polygon fill="none" stroke="red" points="841.5,-233 721.5,-233 721.5,-197 841.5,-197 841.5,-233"/>
<text text-anchor="middle" x="781.5" y="-211.3" font-family="Times,serif" font-size="14.00">verticalcoord_mod</text>
</a>
</g>
</g>
<!-- ensembleStateVector_mod&#45;&gt;verticalcoord_mod -->
<g id="edge14" class="edge">
<title>ensembleStateVector_mod&#45;&gt;verticalcoord_mod</title>
<path fill="none" stroke="black" d="M462.15,-643.31C524.38,-638.54 610.79,-625.89 679.5,-593 733.77,-567.02 781.5,-564.16 781.5,-504 781.5,-504 781.5,-504 781.5,-358 781.5,-318 781.5,-271.65 781.5,-243.08"/>
<polygon fill="black" stroke="black" points="785,-243.05 781.5,-233.05 778,-243.05 785,-243.05"/>
</g>
</g>
</svg>
