<?xml version="1.0" encoding="UTF-8" standalone="no"?>
<!DOCTYPE svg PUBLIC "-//W3C//DTD SVG 1.1//EN"
 "http://www.w3.org/Graphics/SVG/1.1/DTD/svg11.dtd">
<!-- Generated by graphviz version 3.0.0 (20220315.2325)
 -->
<!-- Title: ensPostProcess_mod Pages: 1 -->
<svg width="433pt" height="241pt"
 viewBox="0.00 0.00 433.00 241.00" xmlns="http://www.w3.org/2000/svg" xmlns:xlink="http://www.w3.org/1999/xlink">
<g id="graph0" class="graph" transform="scale(1 1) rotate(0) translate(4 237)">
<title>ensPostProcess_mod</title>
<polygon fill="white" stroke="transparent" points="-4,4 -4,-237 429,-237 429,4 -4,4"/>
<text text-anchor="middle" x="212.5" y="-217.8" font-family="Times,serif" font-size="14.00">Blue boxes indicate modules with reverse dependencies not shown</text>
<text text-anchor="middle" x="212.5" y="-202.8" font-family="Times,serif" font-size="14.00">Higher level reverse dependencies can be shown by clicking on a blue box</text>
<text text-anchor="middle" x="212.5" y="-187.8" font-family="Times,serif" font-size="14.00">Green boxes are programs</text>
<!-- ensPostProcess_mod -->
<g id="node1" class="node">
<title>ensPostProcess_mod</title>
<g id="a_node1"><a xlink:href="ensPostProcess_mod.html" xlink:title="ensPostProcess_mod">
<polygon fill="none" stroke="black" points="291.75,-36 160.75,-36 160.75,0 291.75,0 291.75,-36"/>
<text text-anchor="middle" x="226.25" y="-14.3" font-family="Times,serif" font-size="14.00">ensPostProcess_mod</text>
</a>
</g>
</g>
<!-- midas_midas_enspostprocess -->
<g id="node2" class="node">
<title>midas_midas_enspostprocess</title>
<g id="a_node2"><a xlink:href="../programs/midas_enspostprocess.html" xlink:title="midas_midas_enspostprocess">
<polygon fill="gray" stroke="green" points="256.75,-108 79.75,-108 79.75,-72 256.75,-72 256.75,-108"/>
<text text-anchor="middle" x="168.25" y="-86.3" font-family="Times,serif" font-size="14.00">midas_midas_enspostprocess</text>
</a>
</g>
</g>
<!-- midas_midas_enspostprocess&#45;&gt;ensPostProcess_mod -->
<g id="edge1" class="edge">
<title>midas_midas_enspostprocess&#45;&gt;ensPostProcess_mod</title>
<path fill="none" stroke="black" d="M187.88,-65.31C195.81,-55.73 204.8,-44.89 212.08,-36.1"/>
<ellipse fill="black" stroke="black" cx="185.14" cy="-68.62" rx="4" ry="4"/>
</g>
<!-- midas_midas_letkf -->
<g id="node3" class="node">
<title>midas_midas_letkf</title>
<g id="a_node3"><a xlink:href="../programs/midas_letkf.html" xlink:title="midas_midas_letkf">
<polygon fill="gray" stroke="green" points="345.25,-180 223.25,-180 223.25,-144 345.25,-144 345.25,-180"/>
<text text-anchor="middle" x="284.25" y="-158.3" font-family="Times,serif" font-size="14.00">midas_midas_letkf</text>
</a>
</g>
</g>
<!-- midas_midas_letkf&#45;&gt;ensPostProcess_mod -->
<g id="edge2" class="edge">
<title>midas_midas_letkf&#45;&gt;ensPostProcess_mod</title>
<path fill="none" stroke="black" d="M281.72,-135.53C279.21,-117.23 274.38,-92.31 265.25,-72 259.44,-59.08 250.11,-46.24 242.03,-36.44"/>
<ellipse fill="black" stroke="black" cx="282.27" cy="-139.97" rx="4" ry="4"/>
</g>
</g>
</svg>
