<?xml version="1.0" encoding="UTF-8" standalone="no"?>
<!DOCTYPE svg PUBLIC "-//W3C//DTD SVG 1.1//EN"
 "http://www.w3.org/Graphics/SVG/1.1/DTD/svg11.dtd">
<!-- Generated by graphviz version 3.0.0 (20220315.2325)
 -->
<!-- Title: ensPostProcess_mod Pages: 1 -->
<svg width="1145pt" height="673pt"
 viewBox="0.00 0.00 1145.00 673.00" xmlns="http://www.w3.org/2000/svg" xmlns:xlink="http://www.w3.org/1999/xlink">
<g id="graph0" class="graph" transform="scale(1 1) rotate(0) translate(4 669)">
<title>ensPostProcess_mod</title>
<polygon fill="white" stroke="transparent" points="-4,4 -4,-669 1141,-669 1141,4 -4,4"/>
<text text-anchor="middle" x="568.5" y="-37.8" font-family="Times,serif" font-size="14.00">Red boxes indicate modules with dependencies not shown</text>
<text text-anchor="middle" x="568.5" y="-22.8" font-family="Times,serif" font-size="14.00">Lower level dependencies can be shown by clicking on a red box</text>
<text text-anchor="middle" x="568.5" y="-7.8" font-family="Times,serif" font-size="14.00">Shaded boxes indicate modules with no dependencies</text>
<!-- ensPostProcess_mod -->
<g id="node1" class="node">
<title>ensPostProcess_mod</title>
<g id="a_node1"><a xlink:href="ensPostProcess_mod.html" xlink:title="ensPostProcess_mod">
<polygon fill="none" stroke="black" points="683.5,-665 552.5,-665 552.5,-629 683.5,-629 683.5,-665"/>
<text text-anchor="middle" x="618" y="-643.3" font-family="Times,serif" font-size="14.00">ensPostProcess_mod</text>
</a>
</g>
</g>
<!-- bmatrix_mod -->
<g id="node2" class="node">
<title>bmatrix_mod</title>
<g id="a_node2"><a xlink:href="../modules/bmatrix_mod.svg" xlink:title="bmatrix_mod">
<polygon fill="none" stroke="red" points="93,-593 1,-593 1,-557 93,-557 93,-593"/>
<text text-anchor="middle" x="47" y="-571.3" font-family="Times,serif" font-size="14.00">bmatrix_mod</text>
</a>
</g>
</g>
<!-- ensPostProcess_mod&#45;&gt;bmatrix_mod -->
<g id="edge1" class="edge">
<title>ensPostProcess_mod&#45;&gt;bmatrix_mod</title>
<path fill="none" stroke="black" d="M552.13,-642.81C454.29,-637.26 265.1,-623.36 107,-593 105.74,-592.76 104.48,-592.5 103.2,-592.24"/>
<polygon fill="black" stroke="black" points="103.85,-588.8 93.32,-589.98 102.29,-595.62 103.85,-588.8"/>
</g>
<!-- calcheightandpressure_mod -->
<g id="node3" class="node">
<title>calcheightandpressure_mod</title>
<g id="a_node3"><a xlink:href="../modules/calcheightandpressure_mod.svg" xlink:title="calcheightandpressure_mod">
<polygon fill="none" stroke="red" points="168,-521 0,-521 0,-485 168,-485 168,-521"/>
<text text-anchor="middle" x="84" y="-499.3" font-family="Times,serif" font-size="14.00">calcheightandpressure_mod</text>
</a>
</g>
</g>
<!-- ensPostProcess_mod&#45;&gt;calcheightandpressure_mod -->
<g id="edge2" class="edge">
<title>ensPostProcess_mod&#45;&gt;calcheightandpressure_mod</title>
<path fill="none" stroke="black" d="M552.49,-642.9C447.43,-637.11 246.48,-622.51 182,-593 150.27,-578.48 121.7,-549.87 103.71,-529"/>
<polygon fill="black" stroke="black" points="106.23,-526.56 97.12,-521.15 100.87,-531.06 106.23,-526.56"/>
</g>
<!-- clibinterfaces_mod -->
<g id="node4" class="node">
<title>clibinterfaces_mod</title>
<g id="a_node4"><a xlink:href="clibinterfaces_mod.html" xlink:title="clibinterfaces_mod">
<polygon fill="gray" stroke="black" points="206,-449 84,-449 84,-413 206,-413 206,-449"/>
<text text-anchor="middle" x="145" y="-427.3" font-family="Times,serif" font-size="14.00">clibinterfaces_mod</text>
</a>
</g>
</g>
<!-- ensPostProcess_mod&#45;&gt;clibinterfaces_mod -->
<g id="edge3" class="edge">
<title>ensPostProcess_mod&#45;&gt;clibinterfaces_mod</title>
<path fill="none" stroke="black" d="M552.45,-645.12C453.06,-642.5 270.44,-632.32 220,-593 179.25,-561.24 199.98,-531.27 177,-485 172.51,-475.95 167,-466.4 161.83,-457.94"/>
<polygon fill="black" stroke="black" points="164.67,-455.89 156.41,-449.26 158.73,-459.6 164.67,-455.89"/>
</g>
<!-- controlvector_mod -->
<g id="node5" class="node">
<title>controlvector_mod</title>
<g id="a_node5"><a xlink:href="../modules/controlvector_mod.svg" xlink:title="controlvector_mod">
<polygon fill="none" stroke="red" points="244,-377 124,-377 124,-341 244,-341 244,-377"/>
<text text-anchor="middle" x="184" y="-355.3" font-family="Times,serif" font-size="14.00">controlvector_mod</text>
</a>
</g>
</g>
<!-- ensPostProcess_mod&#45;&gt;controlvector_mod -->
<g id="edge4" class="edge">
<title>ensPostProcess_mod&#45;&gt;controlvector_mod</title>
<path fill="none" stroke="black" d="M552.36,-644.9C460.43,-641.97 299.88,-631.34 258,-593 197.33,-537.46 245.65,-489.33 215,-413 211.27,-403.7 206.09,-394.09 201.04,-385.64"/>
<polygon fill="black" stroke="black" points="203.93,-383.66 195.69,-377 197.98,-387.35 203.93,-383.66"/>
</g>
<!-- ensemblestatevector_mod -->
<g id="node6" class="node">
<title>ensemblestatevector_mod</title>
<g id="a_node6"><a xlink:href="../modules/ensemblestatevector_mod.svg" xlink:title="ensemblestatevector_mod">
<polygon fill="none" stroke="red" points="282,-305 124,-305 124,-269 282,-269 282,-305"/>
<text text-anchor="middle" x="203" y="-283.3" font-family="Times,serif" font-size="14.00">ensemblestatevector_mod</text>
</a>
</g>
</g>
<!-- ensPostProcess_mod&#45;&gt;ensemblestatevector_mod -->
<g id="edge5" class="edge">
<title>ensPostProcess_mod&#45;&gt;ensemblestatevector_mod</title>
<path fill="none" stroke="black" d="M552.38,-643.41C469.35,-638.77 332.71,-626.21 296,-593 265.62,-565.52 272,-544.97 272,-504 272,-504 272,-504 272,-430 272,-389.55 271.8,-376.81 253,-341 247.51,-330.54 239.37,-320.65 231.24,-312.32"/>
<polygon fill="black" stroke="black" points="233.47,-309.6 223.86,-305.13 228.58,-314.61 233.47,-309.6"/>
</g>
<!-- filenames_mod -->
<g id="node7" class="node">
<title>filenames_mod</title>
<g id="a_node7"><a xlink:href="../modules/filenames_mod.svg" xlink:title="filenames_mod">
<polygon fill="none" stroke="red" points="319.5,-233 218.5,-233 218.5,-197 319.5,-197 319.5,-233"/>
<text text-anchor="middle" x="269" y="-211.3" font-family="Times,serif" font-size="14.00">filenames_mod</text>
</a>
</g>
</g>
<!-- ensPostProcess_mod&#45;&gt;filenames_mod -->
<g id="edge6" class="edge">
<title>ensPostProcess_mod&#45;&gt;filenames_mod</title>
<path fill="none" stroke="black" d="M552.35,-641.74C478.59,-635.61 365.08,-621.72 334,-593 303.91,-565.2 310,-544.97 310,-504 310,-504 310,-504 310,-358 310,-316.41 293.56,-270.56 281.5,-242.51"/>
<polygon fill="black" stroke="black" points="284.55,-240.75 277.3,-233.03 278.15,-243.59 284.55,-240.75"/>
</g>
<!-- gridstatevectorfileio_mod -->
<g id="node8" class="node">
<title>gridstatevectorfileio_mod</title>
<g id="a_node8"><a xlink:href="../modules/gridstatevectorfileio_mod.svg" xlink:title="gridstatevectorfileio_mod">
<polygon fill="none" stroke="red" points="358,-161 200,-161 200,-125 358,-125 358,-161"/>
<text text-anchor="middle" x="279" y="-139.3" font-family="Times,serif" font-size="14.00">gridstatevectorfileio_mod</text>
</a>
</g>
</g>
<!-- ensPostProcess_mod&#45;&gt;gridstatevectorfileio_mod -->
<g id="edge7" class="edge">
<title>ensPostProcess_mod&#45;&gt;gridstatevectorfileio_mod</title>
<path fill="none" stroke="black" d="M552.34,-639.56C488.5,-631.99 397.54,-617.26 372,-593 342.3,-564.78 348,-544.97 348,-504 348,-504 348,-504 348,-286 348,-245.46 346.85,-232.89 328,-197 322.56,-186.64 314.56,-176.78 306.6,-168.44"/>
<polygon fill="black" stroke="black" points="308.93,-165.82 299.38,-161.24 303.99,-170.78 308.93,-165.82"/>
</g>
<!-- gridstatevector_mod -->
<g id="node9" class="node">
<title>gridstatevector_mod</title>
<g id="a_node9"><a xlink:href="../modules/gridstatevector_mod.svg" xlink:title="gridstatevector_mod">
<polygon fill="none" stroke="red" points="451,-89 321,-89 321,-53 451,-53 451,-89"/>
<text text-anchor="middle" x="386" y="-67.3" font-family="Times,serif" font-size="14.00">gridstatevector_mod</text>
</a>
</g>
</g>
<!-- ensPostProcess_mod&#45;&gt;gridstatevector_mod -->
<g id="edge8" class="edge">
<title>ensPostProcess_mod&#45;&gt;gridstatevector_mod</title>
<path fill="none" stroke="black" d="M552.41,-637.38C497.62,-628.84 425.3,-613.99 405,-593 376.88,-563.92 386,-544.45 386,-504 386,-504 386,-504 386,-214 386,-174 386,-127.65 386,-99.08"/>
<polygon fill="black" stroke="black" points="389.5,-99.05 386,-89.05 382.5,-99.05 389.5,-99.05"/>
</g>
<!-- gridvariabletransforms_mod -->
<g id="node10" class="node">
<title>gridvariabletransforms_mod</title>
<g id="a_node10"><a xlink:href="../modules/gridvariabletransforms_mod.svg" xlink:title="gridvariabletransforms_mod">
<polygon fill="none" stroke="red" points="589.5,-593 414.5,-593 414.5,-557 589.5,-557 589.5,-593"/>
<text text-anchor="middle" x="502" y="-571.3" font-family="Times,serif" font-size="14.00">gridvariabletransforms_mod</text>
</a>
</g>
</g>
<!-- ensPostProcess_mod&#45;&gt;gridvariabletransforms_mod -->
<g id="edge9" class="edge">
<title>ensPostProcess_mod&#45;&gt;gridvariabletransforms_mod</title>
<path fill="none" stroke="black" d="M589.62,-628.88C574.46,-619.72 555.59,-608.34 539.26,-598.48"/>
<polygon fill="black" stroke="black" points="540.86,-595.36 530.49,-593.19 537.24,-601.35 540.86,-595.36"/>
</g>
<!-- horizontalcoord_mod -->
<g id="node11" class="node">
<title>horizontalcoord_mod</title>
<g id="a_node11"><a xlink:href="../modules/horizontalcoord_mod.svg" xlink:title="horizontalcoord_mod">
<polygon fill="none" stroke="red" points="628,-521 494,-521 494,-485 628,-485 628,-521"/>
<text text-anchor="middle" x="561" y="-499.3" font-family="Times,serif" font-size="14.00">horizontalcoord_mod</text>
</a>
</g>
</g>
<!-- ensPostProcess_mod&#45;&gt;horizontalcoord_mod -->
<g id="edge10" class="edge">
<title>ensPostProcess_mod&#45;&gt;horizontalcoord_mod</title>
<path fill="none" stroke="black" d="M616.17,-628.99C613.74,-610.61 608.48,-580.76 598,-557 593.77,-547.4 587.69,-537.74 581.68,-529.35"/>
<polygon fill="black" stroke="black" points="584.31,-527.02 575.52,-521.11 578.71,-531.22 584.31,-527.02"/>
</g>
<!-- humiditylimits_mod -->
<g id="node12" class="node">
<title>humiditylimits_mod</title>
<g id="a_node12"><a xlink:href="../modules/humiditylimits_mod.svg" xlink:title="humiditylimits_mod">
<polygon fill="none" stroke="red" points="665.5,-449 536.5,-449 536.5,-413 665.5,-413 665.5,-449"/>
<text text-anchor="middle" x="601" y="-427.3" font-family="Times,serif" font-size="14.00">humiditylimits_mod</text>
</a>
</g>
</g>
<!-- ensPostProcess_mod&#45;&gt;humiditylimits_mod -->
<g id="edge11" class="edge">
<title>ensPostProcess_mod&#45;&gt;humiditylimits_mod</title>
<path fill="none" stroke="black" d="M624.6,-628.66C635.02,-598.7 652.55,-535.58 637,-485 633.99,-475.22 628.49,-465.62 622.68,-457.33"/>
<polygon fill="black" stroke="black" points="625.41,-455.13 616.61,-449.23 619.81,-459.33 625.41,-455.13"/>
</g>
<!-- interpolation_mod -->
<g id="node13" class="node">
<title>interpolation_mod</title>
<g id="a_node13"><a xlink:href="../modules/interpolation_mod.svg" xlink:title="interpolation_mod">
<polygon fill="none" stroke="red" points="704,-377 586,-377 586,-341 704,-341 704,-377"/>
<text text-anchor="middle" x="645" y="-355.3" font-family="Times,serif" font-size="14.00">interpolation_mod</text>
</a>
</g>
</g>
<!-- ensPostProcess_mod&#45;&gt;interpolation_mod -->
<g id="edge12" class="edge">
<title>ensPostProcess_mod&#45;&gt;interpolation_mod</title>
<path fill="none" stroke="black" d="M632.08,-628.92C639.49,-619.02 648.05,-605.98 653,-593 676.04,-532.57 669.32,-513.51 674,-449 675.16,-433.04 677.96,-428.5 674,-413 671.62,-403.7 667.24,-394.27 662.58,-386"/>
<polygon fill="black" stroke="black" points="665.46,-383.99 657.31,-377.22 659.46,-387.59 665.46,-383.99"/>
</g>
<!-- mathphysconstants_mod -->
<g id="node14" class="node">
<title>mathphysconstants_mod</title>
<g id="a_node14"><a xlink:href="mathphysconstants_mod.html" xlink:title="mathphysconstants_mod">
<polygon fill="gray" stroke="black" points="742,-305 590,-305 590,-269 742,-269 742,-305"/>
<text text-anchor="middle" x="666" y="-283.3" font-family="Times,serif" font-size="14.00">mathphysconstants_mod</text>
</a>
</g>
</g>
<!-- ensPostProcess_mod&#45;&gt;mathphysconstants_mod -->
<g id="edge13" class="edge">
<title>ensPostProcess_mod&#45;&gt;mathphysconstants_mod</title>
<path fill="none" stroke="black" d="M645.02,-628.96C678.73,-605.37 732,-559.33 732,-504 732,-504 732,-504 732,-430 732,-389.55 731.24,-377.1 713,-341 707.82,-330.75 700.16,-320.92 692.53,-312.57"/>
<polygon fill="black" stroke="black" points="695.04,-310.14 685.59,-305.35 689.99,-314.99 695.04,-310.14"/>
</g>
<!-- midasmpi_mod -->
<g id="node15" class="node">
<title>midasmpi_mod</title>
<g id="a_node15"><a xlink:href="../modules/midasmpi_mod.svg" xlink:title="midasmpi_mod">
<polygon fill="none" stroke="red" points="780,-233 678,-233 678,-197 780,-197 780,-233"/>
<text text-anchor="middle" x="729" y="-211.3" font-family="Times,serif" font-size="14.00">midasmpi_mod</text>
</a>
</g>
</g>
<!-- ensPostProcess_mod&#45;&gt;midasmpi_mod -->
<g id="edge14" class="edge">
<title>ensPostProcess_mod&#45;&gt;midasmpi_mod</title>
<path fill="none" stroke="black" d="M659.13,-628.9C704.15,-607.12 770,-564.85 770,-504 770,-504 770,-504 770,-358 770,-316.41 753.56,-270.56 741.5,-242.51"/>
<polygon fill="black" stroke="black" points="744.55,-240.75 737.3,-233.03 738.15,-243.59 744.55,-240.75"/>
</g>
<!-- randomnumber_mod -->
<g id="node16" class="node">
<title>randomnumber_mod</title>
<g id="a_node16"><a xlink:href="randomnumber_mod.html" xlink:title="randomnumber_mod">
<polygon fill="gray" stroke="black" points="818,-161 686,-161 686,-125 818,-125 818,-161"/>
<text text-anchor="middle" x="752" y="-139.3" font-family="Times,serif" font-size="14.00">randomnumber_mod</text>
</a>
</g>
</g>
<!-- ensPostProcess_mod&#45;&gt;randomnumber_mod -->
<g id="edge15" class="edge">
<title>ensPostProcess_mod&#45;&gt;randomnumber_mod</title>
<path fill="none" stroke="black" d="M677.86,-628.96C733.55,-609.01 808,-569.99 808,-504 808,-504 808,-504 808,-286 808,-245.55 805.12,-234.1 789,-197 784.82,-187.38 778.75,-177.71 772.74,-169.32"/>
<polygon fill="black" stroke="black" points="775.37,-166.99 766.57,-161.09 769.77,-171.19 775.37,-166.99"/>
</g>
<!-- timecoord_mod -->
<g id="node17" class="node">
<title>timecoord_mod</title>
<g id="a_node17"><a xlink:href="../modules/timecoord_mod.svg" xlink:title="timecoord_mod">
<polygon fill="none" stroke="red" points="898,-89 794,-89 794,-53 898,-53 898,-89"/>
<text text-anchor="middle" x="846" y="-67.3" font-family="Times,serif" font-size="14.00">timecoord_mod</text>
</a>
</g>
</g>
<!-- ensPostProcess_mod&#45;&gt;timecoord_mod -->
<g id="edge16" class="edge">
<title>ensPostProcess_mod&#45;&gt;timecoord_mod</title>
<path fill="none" stroke="black" d="M683.64,-634.17C751,-617.8 846,-581.06 846,-504 846,-504 846,-504 846,-214 846,-174 846,-127.65 846,-99.08"/>
<polygon fill="black" stroke="black" points="849.5,-99.05 846,-89.05 842.5,-99.05 849.5,-99.05"/>
</g>
<!-- utilities_mod -->
<g id="node18" class="node">
<title>utilities_mod</title>
<g id="a_node18"><a xlink:href="../modules/utilities_mod.svg" xlink:title="utilities_mod">
<polygon fill="none" stroke="red" points="963.5,-593 874.5,-593 874.5,-557 963.5,-557 963.5,-593"/>
<text text-anchor="middle" x="919" y="-571.3" font-family="Times,serif" font-size="14.00">utilities_mod</text>
</a>
</g>
</g>
<!-- ensPostProcess_mod&#45;&gt;utilities_mod -->
<g id="edge17" class="edge">
<title>ensPostProcess_mod&#45;&gt;utilities_mod</title>
<path fill="none" stroke="black" d="M683.75,-632.8C732.57,-622.71 800.69,-608.02 860,-593 861.45,-592.63 862.92,-592.25 864.41,-591.87"/>
<polygon fill="black" stroke="black" points="865.55,-595.18 874.31,-589.21 863.74,-588.42 865.55,-595.18"/>
</g>
<!-- varnamelist_mod -->
<g id="node19" class="node">
<title>varnamelist_mod</title>
<g id="a_node19"><a xlink:href="../modules/varnamelist_mod.svg" xlink:title="varnamelist_mod">
<polygon fill="none" stroke="red" points="1048.5,-521 935.5,-521 935.5,-485 1048.5,-485 1048.5,-521"/>
<text text-anchor="middle" x="992" y="-499.3" font-family="Times,serif" font-size="14.00">varnamelist_mod</text>
</a>
</g>
</g>
<!-- ensPostProcess_mod&#45;&gt;varnamelist_mod -->
<g id="edge18" class="edge">
<title>ensPostProcess_mod&#45;&gt;varnamelist_mod</title>
<path fill="none" stroke="black" d="M683.76,-644.78C774.43,-641.7 931.27,-630.88 972,-593 988.71,-577.46 992.95,-551.21 993.46,-531.24"/>
<polygon fill="black" stroke="black" points="996.95,-531.16 993.42,-521.18 989.95,-531.19 996.95,-531.16"/>
</g>
<!-- verticalcoord_mod -->
<g id="node20" class="node">
<title>verticalcoord_mod</title>
<g id="a_node20"><a xlink:href="../modules/verticalcoord_mod.svg" xlink:title="verticalcoord_mod">
<polygon fill="none" stroke="red" points="1137,-449 1017,-449 1017,-413 1137,-413 1137,-449"/>
<text text-anchor="middle" x="1077" y="-427.3" font-family="Times,serif" font-size="14.00">verticalcoord_mod</text>
</a>
</g>
</g>
<!-- ensPostProcess_mod&#45;&gt;verticalcoord_mod -->
<g id="edge19" class="edge">
<title>ensPostProcess_mod&#45;&gt;verticalcoord_mod</title>
<path fill="none" stroke="black" d="M683.57,-642.42C777.19,-636.37 943.62,-621.86 996,-593 1032.73,-572.76 1038.31,-558.54 1057,-521 1066.68,-501.56 1071.72,-477.42 1074.33,-459.19"/>
<polygon fill="black" stroke="black" points="1077.81,-459.57 1075.59,-449.21 1070.86,-458.69 1077.81,-459.57"/>
</g>
</g>
</svg>
