<?xml version="1.0" encoding="UTF-8" standalone="no"?>
<!DOCTYPE svg PUBLIC "-//W3C//DTD SVG 1.1//EN"
 "http://www.w3.org/Graphics/SVG/1.1/DTD/svg11.dtd">
<!-- Generated by graphviz version 3.0.0 (20220315.2325)
 -->
<!-- Title: fileNames_mod Pages: 1 -->
<svg width="382pt" height="385pt"
 viewBox="0.00 0.00 382.00 385.00" xmlns="http://www.w3.org/2000/svg" xmlns:xlink="http://www.w3.org/1999/xlink">
<g id="graph0" class="graph" transform="scale(1 1) rotate(0) translate(4 381)">
<title>fileNames_mod</title>
<polygon fill="white" stroke="transparent" points="-4,4 -4,-381 378,-381 378,4 -4,4"/>
<text text-anchor="middle" x="187" y="-37.8" font-family="Times,serif" font-size="14.00">Red boxes indicate modules with dependencies not shown</text>
<text text-anchor="middle" x="187" y="-22.8" font-family="Times,serif" font-size="14.00">Lower level dependencies can be shown by clicking on a red box</text>
<text text-anchor="middle" x="187" y="-7.8" font-family="Times,serif" font-size="14.00">Shaded boxes indicate modules with no dependencies</text>
<!-- fileNames_mod -->
<g id="node1" class="node">
<title>fileNames_mod</title>
<g id="a_node1"><a xlink:href="fileNames_mod.html" xlink:title="fileNames_mod">
<polygon fill="none" stroke="black" points="251.75,-377 147.75,-377 147.75,-341 251.75,-341 251.75,-377"/>
<text text-anchor="middle" x="199.75" y="-355.3" font-family="Times,serif" font-size="14.00">fileNames_mod</text>
</a>
</g>
</g>
<!-- clibinterfaces_mod -->
<g id="node2" class="node">
<title>clibinterfaces_mod</title>
<g id="a_node2"><a xlink:href="clibinterfaces_mod.html" xlink:title="clibinterfaces_mod">
<polygon fill="gray" stroke="black" points="143.75,-305 21.75,-305 21.75,-269 143.75,-269 143.75,-305"/>
<text text-anchor="middle" x="82.75" y="-283.3" font-family="Times,serif" font-size="14.00">clibinterfaces_mod</text>
</a>
</g>
</g>
<!-- fileNames_mod&#45;&gt;clibinterfaces_mod -->
<g id="edge1" class="edge">
<title>fileNames_mod&#45;&gt;clibinterfaces_mod</title>
<path fill="none" stroke="black" d="M171.13,-340.88C155.83,-331.72 136.81,-320.34 120.33,-310.48"/>
<polygon fill="black" stroke="black" points="121.86,-307.32 111.48,-305.19 118.27,-313.33 121.86,-307.32"/>
</g>
<!-- ramdisk_mod -->
<g id="node3" class="node">
<title>ramdisk_mod</title>
<g id="a_node3"><a xlink:href="../modules/ramdisk_mod.svg" xlink:title="ramdisk_mod">
<polygon fill="none" stroke="red" points="199.75,-233 107.75,-233 107.75,-197 199.75,-197 199.75,-233"/>
<text text-anchor="middle" x="153.75" y="-211.3" font-family="Times,serif" font-size="14.00">ramdisk_mod</text>
</a>
</g>
</g>
<!-- fileNames_mod&#45;&gt;ramdisk_mod -->
<g id="edge2" class="edge">
<title>fileNames_mod&#45;&gt;ramdisk_mod</title>
<path fill="none" stroke="black" d="M194.2,-340.87C186.33,-316.56 171.83,-271.82 162.5,-243.01"/>
<polygon fill="black" stroke="black" points="165.73,-241.62 159.32,-233.19 159.07,-243.78 165.73,-241.62"/>
</g>
<!-- timecoord_mod -->
<g id="node4" class="node">
<title>timecoord_mod</title>
<g id="a_node4"><a xlink:href="../modules/timecoord_mod.svg" xlink:title="timecoord_mod">
<polygon fill="none" stroke="red" points="279.75,-161 175.75,-161 175.75,-125 279.75,-125 279.75,-161"/>
<text text-anchor="middle" x="227.75" y="-139.3" font-family="Times,serif" font-size="14.00">timecoord_mod</text>
</a>
</g>
</g>
<!-- fileNames_mod&#45;&gt;timecoord_mod -->
<g id="edge3" class="edge">
<title>fileNames_mod&#45;&gt;timecoord_mod</title>
<path fill="none" stroke="black" d="M201.99,-340.85C206.84,-303.83 218.31,-216.18 224.17,-171.39"/>
<polygon fill="black" stroke="black" points="227.67,-171.6 225.5,-161.23 220.73,-170.69 227.67,-171.6"/>
</g>
<!-- utilities_mod -->
<g id="node5" class="node">
<title>utilities_mod</title>
<g id="a_node5"><a xlink:href="../modules/utilities_mod.svg" xlink:title="utilities_mod">
<polygon fill="none" stroke="red" points="352.25,-89 263.25,-89 263.25,-53 352.25,-53 352.25,-89"/>
<text text-anchor="middle" x="307.75" y="-67.3" font-family="Times,serif" font-size="14.00">utilities_mod</text>
</a>
</g>
</g>
<!-- fileNames_mod&#45;&gt;utilities_mod -->
<g id="edge4" class="edge">
<title>fileNames_mod&#45;&gt;utilities_mod</title>
<path fill="none" stroke="black" d="M207.54,-340.82C212.24,-330.45 218.34,-316.97 223.75,-305 252.68,-241.02 266.85,-227.72 288.75,-161 295.43,-140.64 300.37,-116.87 303.53,-99.03"/>
<polygon fill="black" stroke="black" points="307.01,-99.46 305.23,-89.02 300.11,-98.29 307.01,-99.46"/>
</g>
</g>
</svg>
