<?xml version="1.0" encoding="UTF-8" standalone="no"?>
<!DOCTYPE svg PUBLIC "-//W3C//DTD SVG 1.1//EN"
 "http://www.w3.org/Graphics/SVG/1.1/DTD/svg11.dtd">
<!-- Generated by graphviz version 3.0.0 (20220315.2325)
 -->
<!-- Title: fileNames_mod Pages: 1 -->
<svg width="809pt" height="673pt"
 viewBox="0.00 0.00 808.50 673.00" xmlns="http://www.w3.org/2000/svg" xmlns:xlink="http://www.w3.org/1999/xlink">
<g id="graph0" class="graph" transform="scale(1 1) rotate(0) translate(4 669)">
<title>fileNames_mod</title>
<polygon fill="white" stroke="transparent" points="-4,4 -4,-669 804.5,-669 804.5,4 -4,4"/>
<text text-anchor="middle" x="400.25" y="-649.8" font-family="Times,serif" font-size="14.00">Blue boxes indicate modules with reverse dependencies not shown</text>
<text text-anchor="middle" x="400.25" y="-634.8" font-family="Times,serif" font-size="14.00">Higher level reverse dependencies can be shown by clicking on a blue box</text>
<text text-anchor="middle" x="400.25" y="-619.8" font-family="Times,serif" font-size="14.00">Green boxes are programs</text>
<!-- fileNames_mod -->
<g id="node1" class="node">
<title>fileNames_mod</title>
<g id="a_node1"><a xlink:href="fileNames_mod.html" xlink:title="fileNames_mod">
<polygon fill="none" stroke="black" points="385,-36 281,-36 281,0 385,0 385,-36"/>
<text text-anchor="middle" x="333" y="-14.3" font-family="Times,serif" font-size="14.00">fileNames_mod</text>
</a>
</g>
</g>
<!-- bmatrix1dvar_mod -->
<g id="node2" class="node">
<title>bmatrix1dvar_mod</title>
<g id="a_node2"><a xlink:href="../modules/bmatrix1dvar_mod_rev.svg" xlink:title="bmatrix1dvar_mod">
<polygon fill="none" stroke="blue" points="122,-108 0,-108 0,-72 122,-72 122,-108"/>
<text text-anchor="middle" x="61" y="-86.3" font-family="Times,serif" font-size="14.00">bmatrix1dvar_mod</text>
</a>
</g>
</g>
<!-- bmatrix1dvar_mod&#45;&gt;fileNames_mod -->
<g id="edge1" class="edge">
<title>bmatrix1dvar_mod&#45;&gt;fileNames_mod</title>
<path fill="none" stroke="black" d="M130.03,-71.23C176.94,-59.16 238.01,-43.45 280.86,-32.42"/>
<ellipse fill="black" stroke="black" cx="125.92" cy="-72.29" rx="4" ry="4"/>
</g>
<!-- bmatrixensemble_mod -->
<g id="node3" class="node">
<title>bmatrixensemble_mod</title>
<g id="a_node3"><a xlink:href="../modules/bmatrixensemble_mod_rev.svg" xlink:title="bmatrixensemble_mod">
<polygon fill="none" stroke="blue" points="190.5,-180 47.5,-180 47.5,-144 190.5,-144 190.5,-180"/>
<text text-anchor="middle" x="119" y="-158.3" font-family="Times,serif" font-size="14.00">bmatrixensemble_mod</text>
</a>
</g>
</g>
<!-- bmatrixensemble_mod&#45;&gt;fileNames_mod -->
<g id="edge2" class="edge">
<title>bmatrixensemble_mod&#45;&gt;fileNames_mod</title>
<path fill="none" stroke="black" d="M137.02,-137.55C153.1,-117.92 178.19,-90.25 205,-72 228.07,-56.3 256.51,-43.95 280.72,-35.13"/>
<ellipse fill="black" stroke="black" cx="134.43" cy="-140.76" rx="4" ry="4"/>
</g>
<!-- calcstatsglb_mod -->
<g id="node4" class="node">
<title>calcstatsglb_mod</title>
<g id="a_node4"><a xlink:href="../modules/calcstatsglb_mod_rev.svg" xlink:title="calcstatsglb_mod">
<polygon fill="none" stroke="blue" points="228.5,-252 117.5,-252 117.5,-216 228.5,-216 228.5,-252"/>
<text text-anchor="middle" x="173" y="-230.3" font-family="Times,serif" font-size="14.00">calcstatsglb_mod</text>
</a>
</g>
</g>
<!-- calcstatsglb_mod&#45;&gt;fileNames_mod -->
<g id="edge3" class="edge">
<title>calcstatsglb_mod&#45;&gt;fileNames_mod</title>
<path fill="none" stroke="black" d="M185.32,-208.78C189.77,-199.8 194.74,-189.5 199,-180 220.2,-132.71 209.11,-111.21 243,-72 256.16,-56.77 274.83,-44.79 291.76,-36.09"/>
<ellipse fill="black" stroke="black" cx="183.52" cy="-212.38" rx="4" ry="4"/>
</g>
<!-- ensemblestatevector_mod -->
<g id="node5" class="node">
<title>ensemblestatevector_mod</title>
<g id="a_node5"><a xlink:href="../modules/ensemblestatevector_mod_rev.svg" xlink:title="ensemblestatevector_mod">
<polygon fill="none" stroke="blue" points="267,-324 109,-324 109,-288 267,-288 267,-324"/>
<text text-anchor="middle" x="188" y="-302.3" font-family="Times,serif" font-size="14.00">ensemblestatevector_mod</text>
</a>
</g>
</g>
<!-- ensemblestatevector_mod&#45;&gt;fileNames_mod -->
<g id="edge4" class="edge">
<title>ensemblestatevector_mod&#45;&gt;fileNames_mod</title>
<path fill="none" stroke="black" d="M214.03,-282.01C222.45,-273.36 231.12,-262.94 237,-252 275.97,-179.45 240.95,-143.96 281,-72 288.65,-58.26 300.82,-45.58 311.46,-36.07"/>
<ellipse fill="black" stroke="black" cx="211.12" cy="-284.89" rx="4" ry="4"/>
</g>
<!-- enspostprocess_mod -->
<g id="node6" class="node">
<title>enspostprocess_mod</title>
<g id="a_node6"><a xlink:href="../modules/enspostprocess_mod_rev.svg" xlink:title="enspostprocess_mod">
<polygon fill="none" stroke="blue" points="304.5,-396 175.5,-396 175.5,-360 304.5,-360 304.5,-396"/>
<text text-anchor="middle" x="240" y="-374.3" font-family="Times,serif" font-size="14.00">enspostprocess_mod</text>
</a>
</g>
</g>
<!-- enspostprocess_mod&#45;&gt;fileNames_mod -->
<g id="edge5" class="edge">
<title>enspostprocess_mod&#45;&gt;fileNames_mod</title>
<path fill="none" stroke="black" d="M259.05,-353.19C265.26,-344.44 271.66,-334.17 276,-324 291.88,-286.8 295,-275.45 295,-235 295,-235 295,-235 295,-161 295,-114.55 314.21,-62.38 325.31,-36.09"/>
<ellipse fill="black" stroke="black" cx="256.53" cy="-356.63" rx="4" ry="4"/>
</g>
<!-- ominusf_mod -->
<g id="node7" class="node">
<title>ominusf_mod</title>
<g id="a_node7"><a xlink:href="../modules/ominusf_mod_rev.svg" xlink:title="ominusf_mod">
<polygon fill="none" stroke="blue" points="342.5,-468 249.5,-468 249.5,-432 342.5,-432 342.5,-468"/>
<text text-anchor="middle" x="296" y="-446.3" font-family="Times,serif" font-size="14.00">ominusf_mod</text>
</a>
</g>
</g>
<!-- ominusf_mod&#45;&gt;fileNames_mod -->
<g id="edge6" class="edge">
<title>ominusf_mod&#45;&gt;fileNames_mod</title>
<path fill="none" stroke="black" d="M306.57,-424.19C317.51,-396.24 333,-349.2 333,-307 333,-307 333,-307 333,-161 333,-115.89 333,-62.71 333,-36.05"/>
<ellipse fill="black" stroke="black" cx="304.98" cy="-428.17" rx="4" ry="4"/>
</g>
<!-- midas_midas_calcstats -->
<g id="node8" class="node">
<title>midas_midas_calcstats</title>
<g id="a_node8"><a xlink:href="../programs/midas_calcstats.html" xlink:title="midas_midas_calcstats">
<polygon fill="gray" stroke="green" points="381,-540 239,-540 239,-504 381,-504 381,-540"/>
<text text-anchor="middle" x="310" y="-518.3" font-family="Times,serif" font-size="14.00">midas_midas_calcstats</text>
</a>
</g>
</g>
<!-- midas_midas_calcstats&#45;&gt;fileNames_mod -->
<g id="edge7" class="edge">
<title>midas_midas_calcstats&#45;&gt;fileNames_mod</title>
<path fill="none" stroke="black" d="M331.86,-497.36C338.88,-488.67 346.11,-478.4 351,-468 368.26,-431.31 371,-419.54 371,-379 371,-379 371,-379 371,-161 371,-114.55 351.79,-62.38 340.69,-36.09"/>
<ellipse fill="black" stroke="black" cx="329.13" cy="-500.6" rx="4" ry="4"/>
</g>
<!-- midas_midas_ensembleh -->
<g id="node9" class="node">
<title>midas_midas_ensembleh</title>
<g id="a_node9"><a xlink:href="../programs/midas_ensembleh.html" xlink:title="midas_midas_ensembleh">
<polygon fill="gray" stroke="green" points="486.5,-612 331.5,-612 331.5,-576 486.5,-576 486.5,-612"/>
<text text-anchor="middle" x="409" y="-590.3" font-family="Times,serif" font-size="14.00">midas_midas_ensembleh</text>
</a>
</g>
</g>
<!-- midas_midas_ensembleh&#45;&gt;fileNames_mod -->
<g id="edge8" class="edge">
<title>midas_midas_ensembleh&#45;&gt;fileNames_mod</title>
<path fill="none" stroke="black" d="M409,-567.78C409,-539.39 409,-491.89 409,-451 409,-451 409,-451 409,-161 409,-110.95 371.84,-61.47 349.49,-36.23"/>
<ellipse fill="black" stroke="black" cx="409" cy="-571.95" rx="4" ry="4"/>
</g>
<!-- midas_midas_enspostprocess -->
<g id="node10" class="node">
<title>midas_midas_enspostprocess</title>
<g id="a_node10"><a xlink:href="../programs/midas_enspostprocess.html" xlink:title="midas_midas_enspostprocess">
<polygon fill="gray" stroke="green" points="613.5,-108 436.5,-108 436.5,-72 613.5,-72 613.5,-108"/>
<text text-anchor="middle" x="525" y="-86.3" font-family="Times,serif" font-size="14.00">midas_midas_enspostprocess</text>
</a>
</g>
</g>
<!-- midas_midas_enspostprocess&#45;&gt;fileNames_mod -->
<g id="edge9" class="edge">
<title>midas_midas_enspostprocess&#45;&gt;fileNames_mod</title>
<path fill="none" stroke="black" d="M470.15,-69C441.61,-58.6 407.09,-46.01 379.82,-36.07"/>
<ellipse fill="black" stroke="black" cx="474.27" cy="-70.51" rx="4" ry="4"/>
</g>
<!-- midas_midas_letkf -->
<g id="node11" class="node">
<title>midas_midas_letkf</title>
<g id="a_node11"><a xlink:href="../programs/midas_letkf.html" xlink:title="midas_midas_letkf">
<polygon fill="gray" stroke="green" points="702,-180 580,-180 580,-144 702,-144 702,-180"/>
<text text-anchor="middle" x="641" y="-158.3" font-family="Times,serif" font-size="14.00">midas_midas_letkf</text>
</a>
</g>
</g>
<!-- midas_midas_letkf&#45;&gt;fileNames_mod -->
<g id="edge10" class="edge">
<title>midas_midas_letkf&#45;&gt;fileNames_mod</title>
<path fill="none" stroke="black" d="M642.67,-135.85C642.54,-115.77 638.86,-88.38 622,-72 589.02,-39.97 459.21,-26.77 385.27,-21.76"/>
<ellipse fill="black" stroke="black" cx="642.6" cy="-139.95" rx="4" ry="4"/>
</g>
<!-- midas_midas_ominusf -->
<g id="node12" class="node">
<title>midas_midas_ominusf</title>
<g id="a_node12"><a xlink:href="../programs/midas_ominusf.html" xlink:title="midas_midas_ominusf">
<polygon fill="gray" stroke="green" points="800.5,-252 659.5,-252 659.5,-216 800.5,-216 800.5,-252"/>
<text text-anchor="middle" x="730" y="-230.3" font-family="Times,serif" font-size="14.00">midas_midas_ominusf</text>
</a>
</g>
</g>
<!-- midas_midas_ominusf&#45;&gt;fileNames_mod -->
<g id="edge11" class="edge">
<title>midas_midas_ominusf&#45;&gt;fileNames_mod</title>
<path fill="none" stroke="black" d="M728.18,-207.72C726.02,-189.22 721.3,-163.97 711,-144 691.1,-105.42 683.13,-92.76 645,-72 601.09,-48.09 461.92,-31.39 385.13,-23.73"/>
<ellipse fill="black" stroke="black" cx="728.59" cy="-211.72" rx="4" ry="4"/>
</g>
</g>
</svg>
