<?xml version="1.0" encoding="UTF-8" standalone="no"?>
<!DOCTYPE svg PUBLIC "-//W3C//DTD SVG 1.1//EN"
 "http://www.w3.org/Graphics/SVG/1.1/DTD/svg11.dtd">
<!-- Generated by graphviz version 3.0.0 (20220315.2325)
 -->
<!-- Title: fsoi_mod Pages: 1 -->
<svg width="1246pt" height="673pt"
 viewBox="0.00 0.00 1245.50 673.00" xmlns="http://www.w3.org/2000/svg" xmlns:xlink="http://www.w3.org/1999/xlink">
<g id="graph0" class="graph" transform="scale(1 1) rotate(0) translate(4 669)">
<title>fsoi_mod</title>
<polygon fill="white" stroke="transparent" points="-4,4 -4,-669 1241.5,-669 1241.5,4 -4,4"/>
<text text-anchor="middle" x="618.75" y="-37.8" font-family="Times,serif" font-size="14.00">Red boxes indicate modules with dependencies not shown</text>
<text text-anchor="middle" x="618.75" y="-22.8" font-family="Times,serif" font-size="14.00">Lower level dependencies can be shown by clicking on a red box</text>
<text text-anchor="middle" x="618.75" y="-7.8" font-family="Times,serif" font-size="14.00">Shaded boxes indicate modules with no dependencies</text>
<!-- fsoi_mod -->
<g id="node1" class="node">
<title>fsoi_mod</title>
<g id="a_node1"><a xlink:href="fsoi_mod.html" xlink:title="fsoi_mod">
<polygon fill="none" stroke="black" points="675.5,-665 607.5,-665 607.5,-629 675.5,-629 675.5,-665"/>
<text text-anchor="middle" x="641.5" y="-643.3" font-family="Times,serif" font-size="14.00">fsoi_mod</text>
</a>
</g>
</g>
<!-- bmatrixensemble_mod -->
<g id="node2" class="node">
<title>bmatrixensemble_mod</title>
<g id="a_node2"><a xlink:href="../modules/bmatrixensemble_mod.svg" xlink:title="bmatrixensemble_mod">
<polygon fill="none" stroke="red" points="143,-593 0,-593 0,-557 143,-557 143,-593"/>
<text text-anchor="middle" x="71.5" y="-571.3" font-family="Times,serif" font-size="14.00">bmatrixensemble_mod</text>
</a>
</g>
</g>
<!-- fsoi_mod&#45;&gt;bmatrixensemble_mod -->
<g id="edge1" class="edge">
<title>fsoi_mod&#45;&gt;bmatrixensemble_mod</title>
<path fill="none" stroke="black" d="M607.33,-643.28C528.03,-636.74 325.44,-618.75 157.5,-593 156.04,-592.78 154.57,-592.55 153.09,-592.31"/>
<polygon fill="black" stroke="black" points="153.66,-588.85 143.21,-590.66 152.5,-595.76 153.66,-588.85"/>
</g>
<!-- bmatrix_mod -->
<g id="node3" class="node">
<title>bmatrix_mod</title>
<g id="a_node3"><a xlink:href="../modules/bmatrix_mod.svg" xlink:title="bmatrix_mod">
<polygon fill="none" stroke="red" points="199.5,-521 107.5,-521 107.5,-485 199.5,-485 199.5,-521"/>
<text text-anchor="middle" x="153.5" y="-499.3" font-family="Times,serif" font-size="14.00">bmatrix_mod</text>
</a>
</g>
</g>
<!-- fsoi_mod&#45;&gt;bmatrix_mod -->
<g id="edge2" class="edge">
<title>fsoi_mod&#45;&gt;bmatrix_mod</title>
<path fill="none" stroke="black" d="M607.4,-645.36C518.04,-643.15 279.47,-633.48 213.5,-593 189.92,-578.53 173.51,-550.9 163.88,-530.25"/>
<polygon fill="black" stroke="black" points="167.06,-528.78 159.82,-521.04 160.65,-531.61 167.06,-528.78"/>
</g>
<!-- calcheightandpressure_mod -->
<g id="node4" class="node">
<title>calcheightandpressure_mod</title>
<g id="a_node4"><a xlink:href="../modules/calcheightandpressure_mod.svg" xlink:title="calcheightandpressure_mod">
<polygon fill="none" stroke="red" points="237.5,-449 69.5,-449 69.5,-413 237.5,-413 237.5,-449"/>
<text text-anchor="middle" x="153.5" y="-427.3" font-family="Times,serif" font-size="14.00">calcheightandpressure_mod</text>
</a>
</g>
</g>
<!-- fsoi_mod&#45;&gt;calcheightandpressure_mod -->
<g id="edge3" class="edge">
<title>fsoi_mod&#45;&gt;calcheightandpressure_mod</title>
<path fill="none" stroke="black" d="M607.49,-645.66C523.04,-644.15 306.61,-636.08 251.5,-593 210.8,-561.18 237.3,-527.89 208.5,-485 201.4,-474.42 191.88,-464.32 182.75,-455.82"/>
<polygon fill="black" stroke="black" points="185.03,-453.16 175.25,-449.09 180.35,-458.37 185.03,-453.16"/>
</g>
<!-- codeprecision_mod -->
<g id="node5" class="node">
<title>codeprecision_mod</title>
<g id="a_node5"><a xlink:href="codeprecision_mod.html" xlink:title="codeprecision_mod">
<polygon fill="gray" stroke="black" points="275,-377 152,-377 152,-341 275,-341 275,-377"/>
<text text-anchor="middle" x="213.5" y="-355.3" font-family="Times,serif" font-size="14.00">codeprecision_mod</text>
</a>
</g>
</g>
<!-- fsoi_mod&#45;&gt;codeprecision_mod -->
<g id="edge4" class="edge">
<title>fsoi_mod&#45;&gt;codeprecision_mod</title>
<path fill="none" stroke="black" d="M607.26,-645.56C528.06,-643.81 335.47,-635.22 289.5,-593 228.92,-537.36 278.2,-488.9 246.5,-413 242.63,-403.75 237.25,-394.26 231.95,-385.91"/>
<polygon fill="black" stroke="black" points="234.75,-383.79 226.31,-377.37 228.9,-387.65 234.75,-383.79"/>
</g>
<!-- columndata_mod -->
<g id="node6" class="node">
<title>columndata_mod</title>
<g id="a_node6"><a xlink:href="../modules/columndata_mod.svg" xlink:title="columndata_mod">
<polygon fill="none" stroke="red" points="313.5,-305 201.5,-305 201.5,-269 313.5,-269 313.5,-305"/>
<text text-anchor="middle" x="257.5" y="-283.3" font-family="Times,serif" font-size="14.00">columndata_mod</text>
</a>
</g>
</g>
<!-- fsoi_mod&#45;&gt;columndata_mod -->
<g id="edge5" class="edge">
<title>fsoi_mod&#45;&gt;columndata_mod</title>
<path fill="none" stroke="black" d="M607.24,-644.76C534.53,-641.44 368.12,-629.89 327.5,-593 297.17,-565.46 303.5,-544.97 303.5,-504 303.5,-504 303.5,-504 303.5,-430 303.5,-389.46 296.97,-379.24 283.5,-341 280.33,-332.01 276.04,-322.56 271.85,-314.16"/>
<polygon fill="black" stroke="black" points="274.93,-312.5 267.23,-305.22 268.71,-315.71 274.93,-312.5"/>
</g>
<!-- controlvector_mod -->
<g id="node7" class="node">
<title>controlvector_mod</title>
<g id="a_node7"><a xlink:href="../modules/controlvector_mod.svg" xlink:title="controlvector_mod">
<polygon fill="none" stroke="red" points="351.5,-233 231.5,-233 231.5,-197 351.5,-197 351.5,-233"/>
<text text-anchor="middle" x="291.5" y="-211.3" font-family="Times,serif" font-size="14.00">controlvector_mod</text>
</a>
</g>
</g>
<!-- fsoi_mod&#45;&gt;controlvector_mod -->
<g id="edge6" class="edge">
<title>fsoi_mod&#45;&gt;controlvector_mod</title>
<path fill="none" stroke="black" d="M607.39,-643.88C541.52,-639.11 400.27,-625.29 365.5,-593 335.48,-565.12 341.5,-544.97 341.5,-504 341.5,-504 341.5,-504 341.5,-358 341.5,-317.55 337.12,-306.71 322.5,-269 318.94,-259.8 313.9,-250.33 308.92,-241.98"/>
<polygon fill="black" stroke="black" points="311.86,-240.08 303.61,-233.43 305.91,-243.77 311.86,-240.08"/>
</g>
<!-- costfunction_mod -->
<g id="node8" class="node">
<title>costfunction_mod</title>
<g id="a_node8"><a xlink:href="../modules/costfunction_mod.svg" xlink:title="costfunction_mod">
<polygon fill="none" stroke="red" points="389,-161 274,-161 274,-125 389,-125 389,-161"/>
<text text-anchor="middle" x="331.5" y="-139.3" font-family="Times,serif" font-size="14.00">costfunction_mod</text>
</a>
</g>
</g>
<!-- fsoi_mod&#45;&gt;costfunction_mod -->
<g id="edge7" class="edge">
<title>fsoi_mod&#45;&gt;costfunction_mod</title>
<path fill="none" stroke="black" d="M607.07,-642.69C548.35,-636.36 432.41,-620.65 403.5,-593 373.9,-564.68 379.5,-544.97 379.5,-504 379.5,-504 379.5,-504 379.5,-286 379.5,-245.55 374.58,-234.92 360.5,-197 357.1,-187.86 352.35,-178.36 347.67,-169.98"/>
<polygon fill="black" stroke="black" points="350.54,-167.95 342.5,-161.06 344.49,-171.47 350.54,-167.95"/>
</g>
<!-- gridstatevectorfileio_mod -->
<g id="node9" class="node">
<title>gridstatevectorfileio_mod</title>
<g id="a_node9"><a xlink:href="../modules/gridstatevectorfileio_mod.svg" xlink:title="gridstatevectorfileio_mod">
<polygon fill="none" stroke="red" points="496.5,-89 338.5,-89 338.5,-53 496.5,-53 496.5,-89"/>
<text text-anchor="middle" x="417.5" y="-67.3" font-family="Times,serif" font-size="14.00">gridstatevectorfileio_mod</text>
</a>
</g>
</g>
<!-- fsoi_mod&#45;&gt;gridstatevectorfileio_mod -->
<g id="edge8" class="edge">
<title>fsoi_mod&#45;&gt;gridstatevectorfileio_mod</title>
<path fill="none" stroke="black" d="M607.1,-641.51C555.05,-634.02 459.83,-617.35 436.5,-593 408.52,-563.8 417.5,-544.45 417.5,-504 417.5,-504 417.5,-504 417.5,-214 417.5,-174 417.5,-127.65 417.5,-99.08"/>
<polygon fill="black" stroke="black" points="421,-99.05 417.5,-89.05 414,-99.05 421,-99.05"/>
</g>
<!-- gridstatevector_mod -->
<g id="node10" class="node">
<title>gridstatevector_mod</title>
<g id="a_node10"><a xlink:href="../modules/gridstatevector_mod.svg" xlink:title="gridstatevector_mod">
<polygon fill="none" stroke="red" points="575.5,-593 445.5,-593 445.5,-557 575.5,-557 575.5,-593"/>
<text text-anchor="middle" x="510.5" y="-571.3" font-family="Times,serif" font-size="14.00">gridstatevector_mod</text>
</a>
</g>
</g>
<!-- fsoi_mod&#45;&gt;gridstatevector_mod -->
<g id="edge9" class="edge">
<title>fsoi_mod&#45;&gt;gridstatevector_mod</title>
<path fill="none" stroke="black" d="M609.45,-628.88C592.01,-619.55 570.23,-607.92 551.56,-597.94"/>
<polygon fill="black" stroke="black" points="553.14,-594.82 542.67,-593.19 549.84,-600.99 553.14,-594.82"/>
</g>
<!-- horizontalcoord_mod -->
<g id="node11" class="node">
<title>horizontalcoord_mod</title>
<g id="a_node11"><a xlink:href="../modules/horizontalcoord_mod.svg" xlink:title="horizontalcoord_mod">
<polygon fill="none" stroke="red" points="613.5,-521 479.5,-521 479.5,-485 613.5,-485 613.5,-521"/>
<text text-anchor="middle" x="546.5" y="-499.3" font-family="Times,serif" font-size="14.00">horizontalcoord_mod</text>
</a>
</g>
</g>
<!-- fsoi_mod&#45;&gt;horizontalcoord_mod -->
<g id="edge10" class="edge">
<title>fsoi_mod&#45;&gt;horizontalcoord_mod</title>
<path fill="none" stroke="black" d="M630.84,-628.76C619.58,-610.71 601.18,-581.6 584.5,-557 578.3,-547.86 571.32,-538 565.04,-529.29"/>
<polygon fill="black" stroke="black" points="567.75,-527.07 559.05,-521.03 562.09,-531.18 567.75,-527.07"/>
</g>
<!-- mathphysconstants_mod -->
<g id="node12" class="node">
<title>mathphysconstants_mod</title>
<g id="a_node12"><a xlink:href="mathphysconstants_mod.html" xlink:title="mathphysconstants_mod">
<polygon fill="gray" stroke="black" points="651.5,-449 499.5,-449 499.5,-413 651.5,-413 651.5,-449"/>
<text text-anchor="middle" x="575.5" y="-427.3" font-family="Times,serif" font-size="14.00">mathphysconstants_mod</text>
</a>
</g>
</g>
<!-- fsoi_mod&#45;&gt;mathphysconstants_mod -->
<g id="edge11" class="edge">
<title>fsoi_mod&#45;&gt;mathphysconstants_mod</title>
<path fill="none" stroke="black" d="M642.75,-628.66C644.25,-598.16 644.26,-533.54 622.5,-485 617.8,-474.52 610.27,-464.63 602.61,-456.3"/>
<polygon fill="black" stroke="black" points="605.09,-453.83 595.61,-449.11 600.08,-458.71 605.09,-453.83"/>
</g>
<!-- midasmpi_mod -->
<g id="node13" class="node">
<title>midasmpi_mod</title>
<g id="a_node13"><a xlink:href="../modules/midasmpi_mod.svg" xlink:title="midasmpi_mod">
<polygon fill="none" stroke="red" points="689.5,-377 587.5,-377 587.5,-341 689.5,-341 689.5,-377"/>
<text text-anchor="middle" x="638.5" y="-355.3" font-family="Times,serif" font-size="14.00">midasmpi_mod</text>
</a>
</g>
</g>
<!-- fsoi_mod&#45;&gt;midasmpi_mod -->
<g id="edge12" class="edge">
<title>fsoi_mod&#45;&gt;midasmpi_mod</title>
<path fill="none" stroke="black" d="M647.61,-628.57C650.9,-618.35 654.65,-605.1 656.5,-593 668.6,-513.9 676.14,-491.48 660.5,-413 658.71,-404.01 655.36,-394.64 651.81,-386.32"/>
<polygon fill="black" stroke="black" points="654.96,-384.77 647.63,-377.12 648.58,-387.67 654.96,-384.77"/>
</g>
<!-- obsoperators_mod -->
<g id="node14" class="node">
<title>obsoperators_mod</title>
<g id="a_node14"><a xlink:href="../modules/obsoperators_mod.svg" xlink:title="obsoperators_mod">
<polygon fill="none" stroke="red" points="727,-305 610,-305 610,-269 727,-269 727,-305"/>
<text text-anchor="middle" x="668.5" y="-283.3" font-family="Times,serif" font-size="14.00">obsoperators_mod</text>
</a>
</g>
</g>
<!-- fsoi_mod&#45;&gt;obsoperators_mod -->
<g id="edge13" class="edge">
<title>fsoi_mod&#45;&gt;obsoperators_mod</title>
<path fill="none" stroke="black" d="M657.99,-628.77C680.34,-603.53 717.5,-554.05 717.5,-504 717.5,-504 717.5,-504 717.5,-430 717.5,-389.55 712.85,-378.82 698.5,-341 694.97,-331.71 689.99,-322.09 685.1,-313.65"/>
<polygon fill="black" stroke="black" points="688.06,-311.77 679.9,-305.01 682.06,-315.38 688.06,-311.77"/>
</g>
<!-- obsspacedata_mod -->
<g id="node15" class="node">
<title>obsspacedata_mod</title>
<g id="a_node15"><a xlink:href="../modules/obsspacedata_mod.svg" xlink:title="obsspacedata_mod">
<polygon fill="none" stroke="red" points="765,-233 646,-233 646,-197 765,-197 765,-233"/>
<text text-anchor="middle" x="705.5" y="-211.3" font-family="Times,serif" font-size="14.00">obsspacedata_mod</text>
</a>
</g>
</g>
<!-- fsoi_mod&#45;&gt;obsspacedata_mod -->
<g id="edge14" class="edge">
<title>fsoi_mod&#45;&gt;obsspacedata_mod</title>
<path fill="none" stroke="black" d="M668.52,-628.96C702.23,-605.37 755.5,-559.33 755.5,-504 755.5,-504 755.5,-504 755.5,-358 755.5,-317.46 750.09,-306.83 735.5,-269 731.92,-259.73 726.93,-250.12 722.04,-241.67"/>
<polygon fill="black" stroke="black" points="725,-239.8 716.85,-233.03 719,-243.4 725,-239.8"/>
</g>
<!-- quasinewton_mod -->
<g id="node16" class="node">
<title>quasinewton_mod</title>
<g id="a_node16"><a xlink:href="../modules/quasinewton_mod.svg" xlink:title="quasinewton_mod">
<polygon fill="none" stroke="red" points="803,-161 686,-161 686,-125 803,-125 803,-161"/>
<text text-anchor="middle" x="744.5" y="-139.3" font-family="Times,serif" font-size="14.00">quasinewton_mod</text>
</a>
</g>
</g>
<!-- fsoi_mod&#45;&gt;quasinewton_mod -->
<g id="edge15" class="edge">
<title>fsoi_mod&#45;&gt;quasinewton_mod</title>
<path fill="none" stroke="black" d="M675.61,-632.21C720.43,-611.58 793.5,-568.1 793.5,-504 793.5,-504 793.5,-504 793.5,-286 793.5,-245.46 787.81,-234.93 773.5,-197 770.06,-187.87 765.29,-178.38 760.61,-170"/>
<polygon fill="black" stroke="black" points="763.49,-167.98 755.44,-161.08 757.43,-171.49 763.49,-167.98"/>
</g>
<!-- rmatrix_mod -->
<g id="node17" class="node">
<title>rmatrix_mod</title>
<g id="a_node17"><a xlink:href="../modules/rmatrix_mod.svg" xlink:title="rmatrix_mod">
<polygon fill="none" stroke="red" points="876.5,-89 786.5,-89 786.5,-53 876.5,-53 876.5,-89"/>
<text text-anchor="middle" x="831.5" y="-67.3" font-family="Times,serif" font-size="14.00">rmatrix_mod</text>
</a>
</g>
</g>
<!-- fsoi_mod&#45;&gt;rmatrix_mod -->
<g id="edge16" class="edge">
<title>fsoi_mod&#45;&gt;rmatrix_mod</title>
<path fill="none" stroke="black" d="M675.91,-637.27C730.66,-621.07 831.5,-580.8 831.5,-504 831.5,-504 831.5,-504 831.5,-214 831.5,-174 831.5,-127.65 831.5,-99.08"/>
<polygon fill="black" stroke="black" points="835,-99.05 831.5,-89.05 828,-99.05 835,-99.05"/>
</g>
<!-- statetocolumn_mod -->
<g id="node18" class="node">
<title>statetocolumn_mod</title>
<g id="a_node18"><a xlink:href="../modules/statetocolumn_mod.svg" xlink:title="statetocolumn_mod">
<polygon fill="none" stroke="red" points="985,-593 860,-593 860,-557 985,-557 985,-593"/>
<text text-anchor="middle" x="922.5" y="-571.3" font-family="Times,serif" font-size="14.00">statetocolumn_mod</text>
</a>
</g>
</g>
<!-- fsoi_mod&#45;&gt;statetocolumn_mod -->
<g id="edge17" class="edge">
<title>fsoi_mod&#45;&gt;statetocolumn_mod</title>
<path fill="none" stroke="black" d="M675.68,-637.49C718.72,-626.76 793.85,-608.05 849.94,-594.08"/>
<polygon fill="black" stroke="black" points="850.97,-597.43 859.83,-591.61 849.28,-590.63 850.97,-597.43"/>
</g>
<!-- timecoord_mod -->
<g id="node19" class="node">
<title>timecoord_mod</title>
<g id="a_node19"><a xlink:href="../modules/timecoord_mod.svg" xlink:title="timecoord_mod">
<polygon fill="none" stroke="red" points="1023.5,-521 919.5,-521 919.5,-485 1023.5,-485 1023.5,-521"/>
<text text-anchor="middle" x="971.5" y="-499.3" font-family="Times,serif" font-size="14.00">timecoord_mod</text>
</a>
</g>
</g>
<!-- fsoi_mod&#45;&gt;timecoord_mod -->
<g id="edge18" class="edge">
<title>fsoi_mod&#45;&gt;timecoord_mod</title>
<path fill="none" stroke="black" d="M675.55,-646.24C755.71,-646 952.63,-640.48 993.5,-593 1008.56,-575.5 999.49,-549.27 988.81,-529.81"/>
<polygon fill="black" stroke="black" points="991.79,-527.97 983.7,-521.14 985.76,-531.53 991.79,-527.97"/>
</g>
<!-- tovsnl_mod -->
<g id="node20" class="node">
<title>tovsnl_mod</title>
<g id="a_node20"><a xlink:href="../modules/tovsnl_mod.svg" xlink:title="tovsnl_mod">
<polygon fill="none" stroke="red" points="1076,-449 995,-449 995,-413 1076,-413 1076,-449"/>
<text text-anchor="middle" x="1035.5" y="-427.3" font-family="Times,serif" font-size="14.00">tovsnl_mod</text>
</a>
</g>
</g>
<!-- fsoi_mod&#45;&gt;tovsnl_mod -->
<g id="edge19" class="edge">
<title>fsoi_mod&#45;&gt;tovsnl_mod</title>
<path fill="none" stroke="black" d="M675.51,-645.69C757.24,-644.24 961.63,-636.27 1011.5,-593 1049.29,-560.21 1046.29,-495.78 1040.85,-459.15"/>
<polygon fill="black" stroke="black" points="1044.28,-458.47 1039.2,-449.17 1037.37,-459.61 1044.28,-458.47"/>
</g>
<!-- utilities_mod -->
<g id="node21" class="node">
<title>utilities_mod</title>
<g id="a_node21"><a xlink:href="../modules/utilities_mod.svg" xlink:title="utilities_mod">
<polygon fill="none" stroke="red" points="1149,-377 1060,-377 1060,-341 1149,-341 1149,-377"/>
<text text-anchor="middle" x="1104.5" y="-355.3" font-family="Times,serif" font-size="14.00">utilities_mod</text>
</a>
</g>
</g>
<!-- fsoi_mod&#45;&gt;utilities_mod -->
<g id="edge20" class="edge">
<title>fsoi_mod&#45;&gt;utilities_mod</title>
<path fill="none" stroke="black" d="M675.57,-645.95C761.25,-645.13 982.79,-638.54 1037.5,-593 1099.3,-541.55 1106.18,-437.13 1105.69,-387.45"/>
<polygon fill="black" stroke="black" points="1109.18,-387.09 1105.47,-377.16 1102.18,-387.24 1109.18,-387.09"/>
</g>
<!-- verticalcoord_mod -->
<g id="node22" class="node">
<title>verticalcoord_mod</title>
<g id="a_node22"><a xlink:href="../modules/verticalcoord_mod.svg" xlink:title="verticalcoord_mod">
<polygon fill="none" stroke="red" points="1237.5,-305 1117.5,-305 1117.5,-269 1237.5,-269 1237.5,-305"/>
<text text-anchor="middle" x="1177.5" y="-283.3" font-family="Times,serif" font-size="14.00">verticalcoord_mod</text>
</a>
</g>
</g>
<!-- fsoi_mod&#45;&gt;verticalcoord_mod -->
<g id="edge21" class="edge">
<title>fsoi_mod&#45;&gt;verticalcoord_mod</title>
<path fill="none" stroke="black" d="M675.82,-644.16C764.06,-639.05 996.86,-623.04 1067.5,-593 1125.37,-568.39 1177.5,-566.89 1177.5,-504 1177.5,-504 1177.5,-504 1177.5,-430 1177.5,-390 1177.5,-343.65 1177.5,-315.08"/>
<polygon fill="black" stroke="black" points="1181,-315.05 1177.5,-305.05 1174,-315.05 1181,-315.05"/>
</g>
</g>
</svg>
