<?xml version="1.0" encoding="UTF-8" standalone="no"?>
<!DOCTYPE svg PUBLIC "-//W3C//DTD SVG 1.1//EN"
 "http://www.w3.org/Graphics/SVG/1.1/DTD/svg11.dtd">
<!-- Generated by graphviz version 3.0.0 (20220315.2325)
 -->
<!-- Title: getGridPosition_mod Pages: 1 -->
<svg width="382pt" height="385pt"
 viewBox="0.00 0.00 382.00 385.00" xmlns="http://www.w3.org/2000/svg" xmlns:xlink="http://www.w3.org/1999/xlink">
<g id="graph0" class="graph" transform="scale(1 1) rotate(0) translate(4 381)">
<title>getGridPosition_mod</title>
<polygon fill="white" stroke="transparent" points="-4,4 -4,-381 378,-381 378,4 -4,4"/>
<text text-anchor="middle" x="187" y="-37.8" font-family="Times,serif" font-size="14.00">Red boxes indicate modules with dependencies not shown</text>
<text text-anchor="middle" x="187" y="-22.8" font-family="Times,serif" font-size="14.00">Lower level dependencies can be shown by clicking on a red box</text>
<text text-anchor="middle" x="187" y="-7.8" font-family="Times,serif" font-size="14.00">Shaded boxes indicate modules with no dependencies</text>
<!-- getGridPosition_mod -->
<g id="node1" class="node">
<title>getGridPosition_mod</title>
<g id="a_node1"><a xlink:href="getGridPosition_mod.html" xlink:title="getGridPosition_mod">
<polygon fill="none" stroke="black" points="254.5,-377 120.5,-377 120.5,-341 254.5,-341 254.5,-377"/>
<text text-anchor="middle" x="187.5" y="-355.3" font-family="Times,serif" font-size="14.00">getGridPosition_mod</text>
</a>
</g>
</g>
<!-- kdtree2_mod -->
<g id="node2" class="node">
<title>kdtree2_mod</title>
<g id="a_node2"><a xlink:href="../modules/kdtree2_mod.svg" xlink:title="kdtree2_mod">
<polygon fill="none" stroke="red" points="107,-305 18,-305 18,-269 107,-269 107,-305"/>
<text text-anchor="middle" x="62.5" y="-283.3" font-family="Times,serif" font-size="14.00">kdtree2_mod</text>
</a>
</g>
</g>
<!-- getGridPosition_mod&#45;&gt;kdtree2_mod -->
<g id="edge1" class="edge">
<title>getGridPosition_mod&#45;&gt;kdtree2_mod</title>
<path fill="none" stroke="black" d="M156.92,-340.88C140.43,-331.64 119.88,-320.13 102.16,-310.21"/>
<polygon fill="black" stroke="black" points="103.63,-307.02 93.2,-305.19 100.21,-313.13 103.63,-307.02"/>
</g>
<!-- mathphysconstants_mod -->
<g id="node3" class="node">
<title>mathphysconstants_mod</title>
<g id="a_node3"><a xlink:href="mathphysconstants_mod.html" xlink:title="mathphysconstants_mod">
<polygon fill="gray" stroke="black" points="185.5,-233 33.5,-233 33.5,-197 185.5,-197 185.5,-233"/>
<text text-anchor="middle" x="109.5" y="-211.3" font-family="Times,serif" font-size="14.00">mathphysconstants_mod</text>
</a>
</g>
</g>
<!-- getGridPosition_mod&#45;&gt;mathphysconstants_mod -->
<g id="edge2" class="edge">
<title>getGridPosition_mod&#45;&gt;mathphysconstants_mod</title>
<path fill="none" stroke="black" d="M178.09,-340.87C164.62,-316.35 139.73,-271.03 123.92,-242.26"/>
<polygon fill="black" stroke="black" points="126.82,-240.27 118.94,-233.19 120.69,-243.64 126.82,-240.27"/>
</g>
<!-- physicsfunctions_mod -->
<g id="node4" class="node">
<title>physicsfunctions_mod</title>
<g id="a_node4"><a xlink:href="../modules/physicsfunctions_mod.svg" xlink:title="physicsfunctions_mod">
<polygon fill="none" stroke="red" points="283,-161 144,-161 144,-125 283,-125 283,-161"/>
<text text-anchor="middle" x="213.5" y="-139.3" font-family="Times,serif" font-size="14.00">physicsfunctions_mod</text>
</a>
</g>
</g>
<!-- getGridPosition_mod&#45;&gt;physicsfunctions_mod -->
<g id="edge3" class="edge">
<title>getGridPosition_mod&#45;&gt;physicsfunctions_mod</title>
<path fill="none" stroke="black" d="M189.58,-340.85C194.08,-303.83 204.73,-216.18 210.17,-171.39"/>
<polygon fill="black" stroke="black" points="213.67,-171.58 211.41,-161.23 206.73,-170.74 213.67,-171.58"/>
</g>
<!-- utilities_mod -->
<g id="node5" class="node">
<title>utilities_mod</title>
<g id="a_node5"><a xlink:href="../modules/utilities_mod.svg" xlink:title="utilities_mod">
<polygon fill="none" stroke="red" points="356,-89 267,-89 267,-53 356,-53 356,-89"/>
<text text-anchor="middle" x="311.5" y="-67.3" font-family="Times,serif" font-size="14.00">utilities_mod</text>
</a>
</g>
</g>
<!-- getGridPosition_mod&#45;&gt;utilities_mod -->
<g id="edge4" class="edge">
<title>getGridPosition_mod&#45;&gt;utilities_mod</title>
<path fill="none" stroke="black" d="M198.79,-340.85C220.2,-307.55 266.85,-231.26 292.5,-161 299.85,-140.87 304.74,-117.09 307.72,-99.18"/>
<polygon fill="black" stroke="black" points="311.21,-99.55 309.3,-89.12 304.29,-98.46 311.21,-99.55"/>
</g>
</g>
</svg>
