<?xml version="1.0" encoding="UTF-8" standalone="no"?>
<!DOCTYPE svg PUBLIC "-//W3C//DTD SVG 1.1//EN"
 "http://www.w3.org/Graphics/SVG/1.1/DTD/svg11.dtd">
<!-- Generated by graphviz version 3.0.0 (20220315.2325)
 -->
<!-- Title: getGridPosition_mod Pages: 1 -->
<svg width="433pt" height="313pt"
 viewBox="0.00 0.00 433.00 313.00" xmlns="http://www.w3.org/2000/svg" xmlns:xlink="http://www.w3.org/1999/xlink">
<g id="graph0" class="graph" transform="scale(1 1) rotate(0) translate(4 309)">
<title>getGridPosition_mod</title>
<polygon fill="white" stroke="transparent" points="-4,4 -4,-309 429,-309 429,4 -4,4"/>
<text text-anchor="middle" x="212.5" y="-289.8" font-family="Times,serif" font-size="14.00">Blue boxes indicate modules with reverse dependencies not shown</text>
<text text-anchor="middle" x="212.5" y="-274.8" font-family="Times,serif" font-size="14.00">Higher level reverse dependencies can be shown by clicking on a blue box</text>
<text text-anchor="middle" x="212.5" y="-259.8" font-family="Times,serif" font-size="14.00">Green boxes are programs</text>
<!-- getGridPosition_mod -->
<g id="node1" class="node">
<title>getGridPosition_mod</title>
<g id="a_node1"><a xlink:href="getGridPosition_mod.html" xlink:title="getGridPosition_mod">
<polygon fill="none" stroke="black" points="301,-36 167,-36 167,0 301,0 301,-36"/>
<text text-anchor="middle" x="234" y="-14.3" font-family="Times,serif" font-size="14.00">getGridPosition_mod</text>
</a>
</g>
</g>
<!-- gridvariabletransforms_mod -->
<g id="node2" class="node">
<title>gridvariabletransforms_mod</title>
<g id="a_node2"><a xlink:href="../modules/gridvariabletransforms_mod_rev.svg" xlink:title="gridvariabletransforms_mod">
<polygon fill="none" stroke="blue" points="205.5,-108 30.5,-108 30.5,-72 205.5,-72 205.5,-108"/>
<text text-anchor="middle" x="118" y="-86.3" font-family="Times,serif" font-size="14.00">gridvariabletransforms_mod</text>
</a>
</g>
</g>
<!-- gridvariabletransforms_mod&#45;&gt;getGridPosition_mod -->
<g id="edge1" class="edge">
<title>gridvariabletransforms_mod&#45;&gt;getGridPosition_mod</title>
<path fill="none" stroke="black" d="M153.34,-67.67C170.06,-57.58 189.77,-45.69 205.51,-36.19"/>
<ellipse fill="black" stroke="black" cx="149.8" cy="-69.81" rx="4" ry="4"/>
</g>
<!-- slantprofilelatlon_mod -->
<g id="node3" class="node">
<title>slantprofilelatlon_mod</title>
<g id="a_node3"><a xlink:href="../modules/slantprofilelatlon_mod_rev.svg" xlink:title="slantprofilelatlon_mod">
<polygon fill="none" stroke="blue" points="304,-180 164,-180 164,-144 304,-144 304,-180"/>
<text text-anchor="middle" x="234" y="-158.3" font-family="Times,serif" font-size="14.00">slantprofilelatlon_mod</text>
</a>
</g>
</g>
<!-- slantprofilelatlon_mod&#45;&gt;getGridPosition_mod -->
<g id="edge2" class="edge">
<title>slantprofilelatlon_mod&#45;&gt;getGridPosition_mod</title>
<path fill="none" stroke="black" d="M234,-135.56C234,-106.86 234,-60.96 234,-36.19"/>
<ellipse fill="black" stroke="black" cx="234" cy="-139.87" rx="4" ry="4"/>
</g>
<!-- statetocolumn_mod -->
<g id="node4" class="node">
<title>statetocolumn_mod</title>
<g id="a_node4"><a xlink:href="../modules/statetocolumn_mod_rev.svg" xlink:title="statetocolumn_mod">
<polygon fill="none" stroke="blue" points="394.5,-252 269.5,-252 269.5,-216 394.5,-216 394.5,-252"/>
<text text-anchor="middle" x="332" y="-230.3" font-family="Times,serif" font-size="14.00">statetocolumn_mod</text>
</a>
</g>
</g>
<!-- statetocolumn_mod&#45;&gt;getGridPosition_mod -->
<g id="edge3" class="edge">
<title>statetocolumn_mod&#45;&gt;getGridPosition_mod</title>
<path fill="none" stroke="black" d="M328.98,-207.39C326.25,-189.21 321.35,-164.5 313,-144 296.05,-102.4 265.35,-59.26 247.63,-36.13"/>
<ellipse fill="black" stroke="black" cx="329.59" cy="-211.78" rx="4" ry="4"/>
</g>
</g>
</svg>
