<?xml version="1.0" encoding="UTF-8" standalone="no"?>
<!DOCTYPE svg PUBLIC "-//W3C//DTD SVG 1.1//EN"
 "http://www.w3.org/Graphics/SVG/1.1/DTD/svg11.dtd">
<!-- Generated by graphviz version 3.0.0 (20220315.2325)
 -->
<!-- Title: globalSpectralTransform_mod Pages: 1 -->
<svg width="418pt" height="457pt"
 viewBox="0.00 0.00 418.00 457.00" xmlns="http://www.w3.org/2000/svg" xmlns:xlink="http://www.w3.org/1999/xlink">
<g id="graph0" class="graph" transform="scale(1 1) rotate(0) translate(4 453)">
<title>globalSpectralTransform_mod</title>
<polygon fill="white" stroke="transparent" points="-4,4 -4,-453 414,-453 414,4 -4,4"/>
<text text-anchor="middle" x="205" y="-37.8" font-family="Times,serif" font-size="14.00">Red boxes indicate modules with dependencies not shown</text>
<text text-anchor="middle" x="205" y="-22.8" font-family="Times,serif" font-size="14.00">Lower level dependencies can be shown by clicking on a red box</text>
<text text-anchor="middle" x="205" y="-7.8" font-family="Times,serif" font-size="14.00">Shaded boxes indicate modules with no dependencies</text>
<!-- globalSpectralTransform_mod -->
<g id="node1" class="node">
<title>globalSpectralTransform_mod</title>
<g id="a_node1"><a xlink:href="globalSpectralTransform_mod.html" xlink:title="globalSpectralTransform_mod">
<polygon fill="none" stroke="black" points="307.5,-449 123.5,-449 123.5,-413 307.5,-413 307.5,-449"/>
<text text-anchor="middle" x="215.5" y="-427.3" font-family="Times,serif" font-size="14.00">globalSpectralTransform_mod</text>
</a>
</g>
</g>
<!-- codeprecision_mod -->
<g id="node2" class="node">
<title>codeprecision_mod</title>
<g id="a_node2"><a xlink:href="codeprecision_mod.html" xlink:title="codeprecision_mod">
<polygon fill="gray" stroke="black" points="123,-377 0,-377 0,-341 123,-341 123,-377"/>
<text text-anchor="middle" x="61.5" y="-355.3" font-family="Times,serif" font-size="14.00">codeprecision_mod</text>
</a>
</g>
</g>
<!-- globalSpectralTransform_mod&#45;&gt;codeprecision_mod -->
<g id="edge1" class="edge">
<title>globalSpectralTransform_mod&#45;&gt;codeprecision_mod</title>
<path fill="none" stroke="black" d="M177.83,-412.88C156.87,-403.35 130.6,-391.41 108.32,-381.28"/>
<polygon fill="black" stroke="black" points="109.6,-378.02 99.05,-377.07 106.71,-384.39 109.6,-378.02"/>
</g>
<!-- earthconstants_mod -->
<g id="node3" class="node">
<title>earthconstants_mod</title>
<g id="a_node3"><a xlink:href="../modules/earthconstants_mod.svg" xlink:title="earthconstants_mod">
<polygon fill="none" stroke="red" points="187.5,-305 61.5,-305 61.5,-269 187.5,-269 187.5,-305"/>
<text text-anchor="middle" x="124.5" y="-283.3" font-family="Times,serif" font-size="14.00">earthconstants_mod</text>
</a>
</g>
</g>
<!-- globalSpectralTransform_mod&#45;&gt;earthconstants_mod -->
<g id="edge2" class="edge">
<title>globalSpectralTransform_mod&#45;&gt;earthconstants_mod</title>
<path fill="none" stroke="black" d="M204.52,-412.87C188.74,-388.24 159.51,-342.64 141.09,-313.88"/>
<polygon fill="black" stroke="black" points="143.86,-311.72 135.52,-305.19 137.96,-315.5 143.86,-311.72"/>
</g>
<!-- mathphysconstants_mod -->
<g id="node4" class="node">
<title>mathphysconstants_mod</title>
<g id="a_node4"><a xlink:href="mathphysconstants_mod.html" xlink:title="mathphysconstants_mod">
<polygon fill="gray" stroke="black" points="258.5,-233 106.5,-233 106.5,-197 258.5,-197 258.5,-233"/>
<text text-anchor="middle" x="182.5" y="-211.3" font-family="Times,serif" font-size="14.00">mathphysconstants_mod</text>
</a>
</g>
</g>
<!-- globalSpectralTransform_mod&#45;&gt;mathphysconstants_mod -->
<g id="edge3" class="edge">
<title>globalSpectralTransform_mod&#45;&gt;mathphysconstants_mod</title>
<path fill="none" stroke="black" d="M214.28,-412.96C212,-383.44 206.38,-320.98 196.5,-269 194.88,-260.45 192.63,-251.25 190.41,-242.96"/>
<polygon fill="black" stroke="black" points="193.7,-241.75 187.66,-233.05 186.96,-243.62 193.7,-241.75"/>
</g>
<!-- midasmpi_mod -->
<g id="node5" class="node">
<title>midasmpi_mod</title>
<g id="a_node5"><a xlink:href="../modules/midasmpi_mod.svg" xlink:title="midasmpi_mod">
<polygon fill="none" stroke="red" points="337.5,-161 235.5,-161 235.5,-125 337.5,-125 337.5,-161"/>
<text text-anchor="middle" x="286.5" y="-139.3" font-family="Times,serif" font-size="14.00">midasmpi_mod</text>
</a>
</g>
</g>
<!-- globalSpectralTransform_mod&#45;&gt;midasmpi_mod -->
<g id="edge4" class="edge">
<title>globalSpectralTransform_mod&#45;&gt;midasmpi_mod</title>
<path fill="none" stroke="black" d="M220.3,-412.94C229.81,-378.87 251.53,-299.92 267.5,-233 272.42,-212.38 277.4,-188.93 281.03,-171.28"/>
<polygon fill="black" stroke="black" points="284.53,-171.61 283.1,-161.12 277.67,-170.22 284.53,-171.61"/>
</g>
<!-- utilities_mod -->
<g id="node6" class="node">
<title>utilities_mod</title>
<g id="a_node6"><a xlink:href="../modules/utilities_mod.svg" xlink:title="utilities_mod">
<polygon fill="none" stroke="red" points="410,-89 321,-89 321,-53 410,-53 410,-89"/>
<text text-anchor="middle" x="365.5" y="-67.3" font-family="Times,serif" font-size="14.00">utilities_mod</text>
</a>
</g>
</g>
<!-- globalSpectralTransform_mod&#45;&gt;utilities_mod -->
<g id="edge5" class="edge">
<title>globalSpectralTransform_mod&#45;&gt;utilities_mod</title>
<path fill="none" stroke="black" d="M255.7,-412.94C300.13,-391.08 365.5,-348.6 365.5,-288 365.5,-288 365.5,-288 365.5,-214 365.5,-174 365.5,-127.65 365.5,-99.08"/>
<polygon fill="black" stroke="black" points="369,-99.05 365.5,-89.05 362,-99.05 369,-99.05"/>
</g>
</g>
</svg>
