<?xml version="1.0" encoding="UTF-8" standalone="no"?>
<!DOCTYPE svg PUBLIC "-//W3C//DTD SVG 1.1//EN"
 "http://www.w3.org/Graphics/SVG/1.1/DTD/svg11.dtd">
<!-- Generated by graphviz version 3.0.0 (20220315.2325)
 -->
<!-- Title: globalSpectralTransform_mod Pages: 1 -->
<svg width="572pt" height="601pt"
 viewBox="0.00 0.00 572.00 601.00" xmlns="http://www.w3.org/2000/svg" xmlns:xlink="http://www.w3.org/1999/xlink">
<g id="graph0" class="graph" transform="scale(1 1) rotate(0) translate(4 597)">
<title>globalSpectralTransform_mod</title>
<polygon fill="white" stroke="transparent" points="-4,4 -4,-597 568,-597 568,4 -4,4"/>
<text text-anchor="middle" x="282" y="-577.8" font-family="Times,serif" font-size="14.00">Blue boxes indicate modules with reverse dependencies not shown</text>
<text text-anchor="middle" x="282" y="-562.8" font-family="Times,serif" font-size="14.00">Higher level reverse dependencies can be shown by clicking on a blue box</text>
<text text-anchor="middle" x="282" y="-547.8" font-family="Times,serif" font-size="14.00">Green boxes are programs</text>
<!-- globalSpectralTransform_mod -->
<g id="node1" class="node">
<title>globalSpectralTransform_mod</title>
<g id="a_node1"><a xlink:href="globalSpectralTransform_mod.html" xlink:title="globalSpectralTransform_mod">
<polygon fill="none" stroke="black" points="364.5,-36 180.5,-36 180.5,0 364.5,0 364.5,-36"/>
<text text-anchor="middle" x="272.5" y="-14.3" font-family="Times,serif" font-size="14.00">globalSpectralTransform_mod</text>
</a>
</g>
</g>
<!-- bcovarsetupchem_mod -->
<g id="node2" class="node">
<title>bcovarsetupchem_mod</title>
<g id="a_node2"><a xlink:href="../modules/bcovarsetupchem_mod_rev.svg" xlink:title="bcovarsetupchem_mod">
<polygon fill="none" stroke="blue" points="143,-108 0,-108 0,-72 143,-72 143,-108"/>
<text text-anchor="middle" x="71.5" y="-86.3" font-family="Times,serif" font-size="14.00">bcovarsetupchem_mod</text>
</a>
</g>
</g>
<!-- bcovarsetupchem_mod&#45;&gt;globalSpectralTransform_mod -->
<g id="edge1" class="edge">
<title>bcovarsetupchem_mod&#45;&gt;globalSpectralTransform_mod</title>
<path fill="none" stroke="black" d="M128.28,-69.23C158.24,-58.79 194.63,-46.12 223.37,-36.11"/>
<ellipse fill="black" stroke="black" cx="124.19" cy="-70.65" rx="4" ry="4"/>
</g>
<!-- bmatrixchem_mod -->
<g id="node3" class="node">
<title>bmatrixchem_mod</title>
<g id="a_node3"><a xlink:href="../modules/bmatrixchem_mod_rev.svg" xlink:title="bmatrixchem_mod">
<polygon fill="none" stroke="blue" points="206.5,-180 84.5,-180 84.5,-144 206.5,-144 206.5,-180"/>
<text text-anchor="middle" x="145.5" y="-158.3" font-family="Times,serif" font-size="14.00">bmatrixchem_mod</text>
</a>
</g>
</g>
<!-- bmatrixchem_mod&#45;&gt;globalSpectralTransform_mod -->
<g id="edge2" class="edge">
<title>bmatrixchem_mod&#45;&gt;globalSpectralTransform_mod</title>
<path fill="none" stroke="black" d="M164.4,-137.6C179.29,-119.41 200.76,-93.7 220.5,-72 231.6,-59.79 244.6,-46.54 254.83,-36.35"/>
<ellipse fill="black" stroke="black" cx="161.76" cy="-140.84" rx="4" ry="4"/>
</g>
<!-- bmatrixensemble_mod -->
<g id="node4" class="node">
<title>bmatrixensemble_mod</title>
<g id="a_node4"><a xlink:href="../modules/bmatrixensemble_mod_rev.svg" xlink:title="bmatrixensemble_mod">
<polygon fill="none" stroke="blue" points="244,-252 101,-252 101,-216 244,-216 244,-252"/>
<text text-anchor="middle" x="172.5" y="-230.3" font-family="Times,serif" font-size="14.00">bmatrixensemble_mod</text>
</a>
</g>
</g>
<!-- bmatrixensemble_mod&#45;&gt;globalSpectralTransform_mod -->
<g id="edge3" class="edge">
<title>bmatrixensemble_mod&#45;&gt;globalSpectralTransform_mod</title>
<path fill="none" stroke="black" d="M194.18,-209.82C201.66,-200.97 209.63,-190.48 215.5,-180 229.85,-154.39 256.1,-72.09 267.26,-36.1"/>
<ellipse fill="black" stroke="black" cx="191.48" cy="-212.93" rx="4" ry="4"/>
</g>
<!-- bmatrixhi_mod -->
<g id="node5" class="node">
<title>bmatrixhi_mod</title>
<g id="a_node5"><a xlink:href="../modules/bmatrixhi_mod_rev.svg" xlink:title="bmatrixhi_mod">
<polygon fill="none" stroke="blue" points="282.5,-324 180.5,-324 180.5,-288 282.5,-288 282.5,-324"/>
<text text-anchor="middle" x="231.5" y="-302.3" font-family="Times,serif" font-size="14.00">bmatrixhi_mod</text>
</a>
</g>
</g>
<!-- bmatrixhi_mod&#45;&gt;globalSpectralTransform_mod -->
<g id="edge4" class="edge">
<title>bmatrixhi_mod&#45;&gt;globalSpectralTransform_mod</title>
<path fill="none" stroke="black" d="M243.08,-280.14C246.68,-271.42 250.28,-261.44 252.5,-252 271.13,-172.96 272.86,-75.21 272.72,-36.22"/>
<ellipse fill="black" stroke="black" cx="241.4" cy="-284.07" rx="4" ry="4"/>
</g>
<!-- calcstatsglb_mod -->
<g id="node6" class="node">
<title>calcstatsglb_mod</title>
<g id="a_node6"><a xlink:href="../modules/calcstatsglb_mod_rev.svg" xlink:title="calcstatsglb_mod">
<polygon fill="none" stroke="blue" points="343,-396 232,-396 232,-360 343,-360 343,-396"/>
<text text-anchor="middle" x="287.5" y="-374.3" font-family="Times,serif" font-size="14.00">calcstatsglb_mod</text>
</a>
</g>
</g>
<!-- calcstatsglb_mod&#45;&gt;globalSpectralTransform_mod -->
<g id="edge5" class="edge">
<title>calcstatsglb_mod&#45;&gt;globalSpectralTransform_mod</title>
<path fill="none" stroke="black" d="M294.07,-351.88C300.87,-323.66 310.5,-276.37 310.5,-235 310.5,-235 310.5,-235 310.5,-161 310.5,-114.55 291.29,-62.38 280.19,-36.09"/>
<ellipse fill="black" stroke="black" cx="293.11" cy="-355.77" rx="4" ry="4"/>
</g>
<!-- gridvariabletransforms_mod -->
<g id="node7" class="node">
<title>gridvariabletransforms_mod</title>
<g id="a_node7"><a xlink:href="../modules/gridvariabletransforms_mod_rev.svg" xlink:title="gridvariabletransforms_mod">
<polygon fill="none" stroke="blue" points="459,-468 284,-468 284,-432 459,-432 459,-468"/>
<text text-anchor="middle" x="371.5" y="-446.3" font-family="Times,serif" font-size="14.00">gridvariabletransforms_mod</text>
</a>
</g>
</g>
<!-- gridvariabletransforms_mod&#45;&gt;globalSpectralTransform_mod -->
<g id="edge6" class="edge">
<title>gridvariabletransforms_mod&#45;&gt;globalSpectralTransform_mod</title>
<path fill="none" stroke="black" d="M371.5,-423.78C371.5,-395.39 371.5,-347.89 371.5,-307 371.5,-307 371.5,-307 371.5,-161 371.5,-107.81 324.17,-60.29 294.96,-36.03"/>
<ellipse fill="black" stroke="black" cx="371.5" cy="-427.95" rx="4" ry="4"/>
</g>
<!-- localizationspectral_mod -->
<g id="node8" class="node">
<title>localizationspectral_mod</title>
<g id="a_node8"><a xlink:href="../modules/localizationspectral_mod_rev.svg" xlink:title="localizationspectral_mod">
<polygon fill="none" stroke="blue" points="564,-540 411,-540 411,-504 564,-504 564,-540"/>
<text text-anchor="middle" x="487.5" y="-518.3" font-family="Times,serif" font-size="14.00">localizationspectral_mod</text>
</a>
</g>
</g>
<!-- localizationspectral_mod&#45;&gt;globalSpectralTransform_mod -->
<g id="edge7" class="edge">
<title>localizationspectral_mod&#45;&gt;globalSpectralTransform_mod</title>
<path fill="none" stroke="black" d="M487.5,-495.78C487.5,-467.39 487.5,-419.89 487.5,-379 487.5,-379 487.5,-379 487.5,-161 487.5,-92.34 410.2,-54.96 348.3,-36.04"/>
<ellipse fill="black" stroke="black" cx="487.5" cy="-499.95" rx="4" ry="4"/>
</g>
</g>
</svg>
