<?xml version="1.0" encoding="UTF-8" standalone="no"?>
<!DOCTYPE svg PUBLIC "-//W3C//DTD SVG 1.1//EN"
 "http://www.w3.org/Graphics/SVG/1.1/DTD/svg11.dtd">
<!-- Generated by graphviz version 3.0.0 (20220315.2325)
 -->
<!-- Title: gps_mod Pages: 1 -->
<svg width="554pt" height="601pt"
 viewBox="0.00 0.00 553.50 601.00" xmlns="http://www.w3.org/2000/svg" xmlns:xlink="http://www.w3.org/1999/xlink">
<g id="graph0" class="graph" transform="scale(1 1) rotate(0) translate(4 597)">
<title>gps_mod</title>
<polygon fill="white" stroke="transparent" points="-4,4 -4,-597 549.5,-597 549.5,4 -4,4"/>
<text text-anchor="middle" x="272.75" y="-577.8" font-family="Times,serif" font-size="14.00">Blue boxes indicate modules with reverse dependencies not shown</text>
<text text-anchor="middle" x="272.75" y="-562.8" font-family="Times,serif" font-size="14.00">Higher level reverse dependencies can be shown by clicking on a blue box</text>
<text text-anchor="middle" x="272.75" y="-547.8" font-family="Times,serif" font-size="14.00">Green boxes are programs</text>
<!-- gps_mod -->
<g id="node1" class="node">
<title>gps_mod</title>
<g id="a_node1"><a xlink:href="gps_mod.html" xlink:title="gps_mod">
<polygon fill="none" stroke="black" points="319,-36 251,-36 251,0 319,0 319,-36"/>
<text text-anchor="middle" x="285" y="-14.3" font-family="Times,serif" font-size="14.00">gps_mod</text>
</a>
</g>
</g>
<!-- backgroundcheck_mod -->
<g id="node2" class="node">
<title>backgroundcheck_mod</title>
<g id="a_node2"><a xlink:href="../modules/backgroundcheck_mod_rev.svg" xlink:title="backgroundcheck_mod">
<polygon fill="none" stroke="blue" points="144,-108 0,-108 0,-72 144,-72 144,-108"/>
<text text-anchor="middle" x="72" y="-86.3" font-family="Times,serif" font-size="14.00">backgroundcheck_mod</text>
</a>
</g>
</g>
<!-- backgroundcheck_mod&#45;&gt;gps_mod -->
<g id="edge1" class="edge">
<title>backgroundcheck_mod&#45;&gt;gps_mod</title>
<path fill="none" stroke="black" d="M131.88,-69.32C170.36,-56.68 218.95,-40.71 250.95,-30.19"/>
<ellipse fill="black" stroke="black" cx="127.63" cy="-70.72" rx="4" ry="4"/>
</g>
<!-- calcheightandpressure_mod -->
<g id="node3" class="node">
<title>calcheightandpressure_mod</title>
<g id="a_node3"><a xlink:href="../modules/calcheightandpressure_mod_rev.svg" xlink:title="calcheightandpressure_mod">
<polygon fill="none" stroke="blue" points="219,-180 51,-180 51,-144 219,-144 219,-180"/>
<text text-anchor="middle" x="135" y="-158.3" font-family="Times,serif" font-size="14.00">calcheightandpressure_mod</text>
</a>
</g>
</g>
<!-- calcheightandpressure_mod&#45;&gt;gps_mod -->
<g id="edge2" class="edge">
<title>calcheightandpressure_mod&#45;&gt;gps_mod</title>
<path fill="none" stroke="black" d="M159.18,-138.11C189.25,-109.65 239.89,-61.71 266.84,-36.19"/>
<ellipse fill="black" stroke="black" cx="156" cy="-141.12" rx="4" ry="4"/>
</g>
<!-- innovation_mod -->
<g id="node4" class="node">
<title>innovation_mod</title>
<g id="a_node4"><a xlink:href="../modules/innovation_mod_rev.svg" xlink:title="innovation_mod">
<polygon fill="none" stroke="blue" points="257,-252 151,-252 151,-216 257,-216 257,-252"/>
<text text-anchor="middle" x="204" y="-230.3" font-family="Times,serif" font-size="14.00">innovation_mod</text>
</a>
</g>
</g>
<!-- innovation_mod&#45;&gt;gps_mod -->
<g id="edge3" class="edge">
<title>innovation_mod&#45;&gt;gps_mod</title>
<path fill="none" stroke="black" d="M215.61,-208.53C219.69,-199.62 224.21,-189.42 228,-180 248.82,-128.29 269.8,-65.7 279.48,-36.1"/>
<ellipse fill="black" stroke="black" cx="213.84" cy="-212.34" rx="4" ry="4"/>
</g>
<!-- obserrors_mod -->
<g id="node5" class="node">
<title>obserrors_mod</title>
<g id="a_node5"><a xlink:href="../modules/obserrors_mod_rev.svg" xlink:title="obserrors_mod">
<polygon fill="none" stroke="blue" points="294.5,-324 195.5,-324 195.5,-288 294.5,-288 294.5,-324"/>
<text text-anchor="middle" x="245" y="-302.3" font-family="Times,serif" font-size="14.00">obserrors_mod</text>
</a>
</g>
</g>
<!-- obserrors_mod&#45;&gt;gps_mod -->
<g id="edge4" class="edge">
<title>obserrors_mod&#45;&gt;gps_mod</title>
<path fill="none" stroke="black" d="M256.6,-280.15C260.2,-271.43 263.8,-261.45 266,-252 284.45,-172.95 285.67,-75.21 285.32,-36.22"/>
<ellipse fill="black" stroke="black" cx="254.92" cy="-284.08" rx="4" ry="4"/>
</g>
<!-- obsfilter_mod -->
<g id="node6" class="node">
<title>obsfilter_mod</title>
<g id="a_node6"><a xlink:href="../modules/obsfilter_mod_rev.svg" xlink:title="obsfilter_mod">
<polygon fill="none" stroke="blue" points="351,-396 259,-396 259,-360 351,-360 351,-396"/>
<text text-anchor="middle" x="305" y="-374.3" font-family="Times,serif" font-size="14.00">obsfilter_mod</text>
</a>
</g>
</g>
<!-- obsfilter_mod&#45;&gt;gps_mod -->
<g id="edge5" class="edge">
<title>obsfilter_mod&#45;&gt;gps_mod</title>
<path fill="none" stroke="black" d="M310.21,-351.44C315.53,-323.1 323,-275.99 323,-235 323,-235 323,-235 323,-161 323,-114.55 303.79,-62.38 292.69,-36.09"/>
<ellipse fill="black" stroke="black" cx="309.4" cy="-355.67" rx="4" ry="4"/>
</g>
<!-- obsoperators_mod -->
<g id="node7" class="node">
<title>obsoperators_mod</title>
<g id="a_node7"><a xlink:href="../modules/obsoperators_mod_rev.svg" xlink:title="obsoperators_mod">
<polygon fill="none" stroke="blue" points="437.5,-468 320.5,-468 320.5,-432 437.5,-432 437.5,-468"/>
<text text-anchor="middle" x="379" y="-446.3" font-family="Times,serif" font-size="14.00">obsoperators_mod</text>
</a>
</g>
</g>
<!-- obsoperators_mod&#45;&gt;gps_mod -->
<g id="edge6" class="edge">
<title>obsoperators_mod&#45;&gt;gps_mod</title>
<path fill="none" stroke="black" d="M379,-423.78C379,-395.39 379,-347.89 379,-307 379,-307 379,-307 379,-161 379,-108.67 334.06,-60.82 306.33,-36.27"/>
<ellipse fill="black" stroke="black" cx="379" cy="-427.95" rx="4" ry="4"/>
</g>
<!-- obsspaceerrorstddev_mod -->
<g id="node8" class="node">
<title>obsspaceerrorstddev_mod</title>
<g id="a_node8"><a xlink:href="../modules/obsspaceerrorstddev_mod_rev.svg" xlink:title="obsspaceerrorstddev_mod">
<polygon fill="none" stroke="blue" points="545.5,-540 386.5,-540 386.5,-504 545.5,-504 545.5,-540"/>
<text text-anchor="middle" x="466" y="-518.3" font-family="Times,serif" font-size="14.00">obsspaceerrorstddev_mod</text>
</a>
</g>
</g>
<!-- obsspaceerrorstddev_mod&#45;&gt;gps_mod -->
<g id="edge7" class="edge">
<title>obsspaceerrorstddev_mod&#45;&gt;gps_mod</title>
<path fill="none" stroke="black" d="M466,-495.78C466,-467.39 466,-419.89 466,-379 466,-379 466,-379 466,-161 466,-87.11 371.48,-45.86 319.04,-28.66"/>
<ellipse fill="black" stroke="black" cx="466" cy="-499.95" rx="4" ry="4"/>
</g>
</g>
</svg>
