<?xml version="1.0" encoding="UTF-8" standalone="no"?>
<!DOCTYPE svg PUBLIC "-//W3C//DTD SVG 1.1//EN"
 "http://www.w3.org/Graphics/SVG/1.1/DTD/svg11.dtd">
<!-- Generated by graphviz version 3.0.0 (20220315.2325)
 -->
<!-- Title: gridVariableTransforms_mod Pages: 1 -->
<svg width="1167pt" height="673pt"
 viewBox="0.00 0.00 1167.00 673.00" xmlns="http://www.w3.org/2000/svg" xmlns:xlink="http://www.w3.org/1999/xlink">
<g id="graph0" class="graph" transform="scale(1 1) rotate(0) translate(4 669)">
<title>gridVariableTransforms_mod</title>
<polygon fill="white" stroke="transparent" points="-4,4 -4,-669 1163,-669 1163,4 -4,4"/>
<text text-anchor="middle" x="579.5" y="-37.8" font-family="Times,serif" font-size="14.00">Red boxes indicate modules with dependencies not shown</text>
<text text-anchor="middle" x="579.5" y="-22.8" font-family="Times,serif" font-size="14.00">Lower level dependencies can be shown by clicking on a red box</text>
<text text-anchor="middle" x="579.5" y="-7.8" font-family="Times,serif" font-size="14.00">Shaded boxes indicate modules with no dependencies</text>
<!-- gridVariableTransforms_mod -->
<g id="node1" class="node">
<title>gridVariableTransforms_mod</title>
<g id="a_node1"><a xlink:href="gridVariableTransforms_mod.html" xlink:title="gridVariableTransforms_mod">
<polygon fill="none" stroke="black" points="730.5,-665 549.5,-665 549.5,-629 730.5,-629 730.5,-665"/>
<text text-anchor="middle" x="640" y="-643.3" font-family="Times,serif" font-size="14.00">gridVariableTransforms_mod</text>
</a>
</g>
</g>
<!-- calcheightandpressure_mod -->
<g id="node2" class="node">
<title>calcheightandpressure_mod</title>
<g id="a_node2"><a xlink:href="../modules/calcheightandpressure_mod.svg" xlink:title="calcheightandpressure_mod">
<polygon fill="none" stroke="red" points="168,-593 0,-593 0,-557 168,-557 168,-593"/>
<text text-anchor="middle" x="84" y="-571.3" font-family="Times,serif" font-size="14.00">calcheightandpressure_mod</text>
</a>
</g>
</g>
<!-- gridVariableTransforms_mod&#45;&gt;calcheightandpressure_mod -->
<g id="edge1" class="edge">
<title>gridVariableTransforms_mod&#45;&gt;calcheightandpressure_mod</title>
<path fill="none" stroke="black" d="M549.43,-637.05C456.89,-627.54 309.15,-611.37 182,-593 180.73,-592.82 179.44,-592.63 178.15,-592.44"/>
<polygon fill="black" stroke="black" points="178.56,-588.96 168.15,-590.91 177.51,-595.88 178.56,-588.96"/>
</g>
<!-- codeprecision_mod -->
<g id="node3" class="node">
<title>codeprecision_mod</title>
<g id="a_node3"><a xlink:href="codeprecision_mod.html" xlink:title="codeprecision_mod">
<polygon fill="gray" stroke="black" points="231.5,-521 108.5,-521 108.5,-485 231.5,-485 231.5,-521"/>
<text text-anchor="middle" x="170" y="-499.3" font-family="Times,serif" font-size="14.00">codeprecision_mod</text>
</a>
</g>
</g>
<!-- gridVariableTransforms_mod&#45;&gt;codeprecision_mod -->
<g id="edge2" class="edge">
<title>gridVariableTransforms_mod&#45;&gt;codeprecision_mod</title>
<path fill="none" stroke="black" d="M549.49,-641.29C449.77,-634.81 296.76,-620.66 246,-593 219.27,-578.44 197.79,-550.43 184.58,-529.71"/>
<polygon fill="black" stroke="black" points="187.48,-527.75 179.27,-521.06 181.52,-531.41 187.48,-527.75"/>
</g>
<!-- earthconstants_mod -->
<g id="node4" class="node">
<title>earthconstants_mod</title>
<g id="a_node4"><a xlink:href="../modules/earthconstants_mod.svg" xlink:title="earthconstants_mod">
<polygon fill="none" stroke="red" points="270,-449 144,-449 144,-413 270,-413 270,-449"/>
<text text-anchor="middle" x="207" y="-427.3" font-family="Times,serif" font-size="14.00">earthconstants_mod</text>
</a>
</g>
</g>
<!-- gridVariableTransforms_mod&#45;&gt;earthconstants_mod -->
<g id="edge3" class="edge">
<title>gridVariableTransforms_mod&#45;&gt;earthconstants_mod</title>
<path fill="none" stroke="black" d="M549.47,-642.58C457.83,-637.38 324.11,-624.51 284,-593 243.24,-560.98 263.56,-531.17 240,-485 235.37,-475.92 229.69,-466.37 224.36,-457.91"/>
<polygon fill="black" stroke="black" points="227.13,-455.75 218.77,-449.23 221.24,-459.53 227.13,-455.75"/>
</g>
<!-- ensemblestatevector_mod -->
<g id="node5" class="node">
<title>ensemblestatevector_mod</title>
<g id="a_node5"><a xlink:href="../modules/ensemblestatevector_mod.svg" xlink:title="ensemblestatevector_mod">
<polygon fill="none" stroke="red" points="308,-377 150,-377 150,-341 308,-341 308,-377"/>
<text text-anchor="middle" x="229" y="-355.3" font-family="Times,serif" font-size="14.00">ensemblestatevector_mod</text>
</a>
</g>
</g>
<!-- gridVariableTransforms_mod&#45;&gt;ensemblestatevector_mod -->
<g id="edge4" class="edge">
<title>gridVariableTransforms_mod&#45;&gt;ensemblestatevector_mod</title>
<path fill="none" stroke="black" d="M549.31,-641.85C467.17,-636.2 354.23,-623.07 322,-593 261.86,-536.89 318.1,-485.36 279,-413 273.38,-402.6 265.21,-392.74 257.09,-384.4"/>
<polygon fill="black" stroke="black" points="259.32,-381.69 249.73,-377.2 254.43,-386.7 259.32,-381.69"/>
</g>
<!-- getgridposition_mod -->
<g id="node6" class="node">
<title>getgridposition_mod</title>
<g id="a_node6"><a xlink:href="../modules/getgridposition_mod.svg" xlink:title="getgridposition_mod">
<polygon fill="none" stroke="red" points="345.5,-305 214.5,-305 214.5,-269 345.5,-269 345.5,-305"/>
<text text-anchor="middle" x="280" y="-283.3" font-family="Times,serif" font-size="14.00">getgridposition_mod</text>
</a>
</g>
</g>
<!-- gridVariableTransforms_mod&#45;&gt;getgridposition_mod -->
<g id="edge5" class="edge">
<title>gridVariableTransforms_mod&#45;&gt;getgridposition_mod</title>
<path fill="none" stroke="black" d="M549.38,-639.2C478.37,-632.03 387.17,-618.18 360,-593 329.95,-565.16 336,-544.97 336,-504 336,-504 336,-504 336,-430 336,-389.55 333.12,-378.1 317,-341 312.82,-331.38 306.75,-321.71 300.74,-313.32"/>
<polygon fill="black" stroke="black" points="303.37,-310.99 294.57,-305.09 297.77,-315.19 303.37,-310.99"/>
</g>
<!-- globalspectraltransform_mod -->
<g id="node7" class="node">
<title>globalspectraltransform_mod</title>
<g id="a_node7"><a xlink:href="../modules/globalspectraltransform_mod.svg" xlink:title="globalspectraltransform_mod">
<polygon fill="none" stroke="red" points="384,-233 206,-233 206,-197 384,-197 384,-233"/>
<text text-anchor="middle" x="295" y="-211.3" font-family="Times,serif" font-size="14.00">globalspectraltransform_mod</text>
</a>
</g>
</g>
<!-- gridVariableTransforms_mod&#45;&gt;globalspectraltransform_mod -->
<g id="edge6" class="edge">
<title>gridVariableTransforms_mod&#45;&gt;globalspectraltransform_mod</title>
<path fill="none" stroke="black" d="M549.39,-636.01C490.12,-627.68 419.79,-613.77 398,-593 368.35,-564.73 374,-544.97 374,-504 374,-504 374,-504 374,-358 374,-317.46 374.49,-303.98 354,-269 347.53,-257.96 337.98,-247.94 328.43,-239.67"/>
<polygon fill="black" stroke="black" points="330.44,-236.79 320.49,-233.14 326,-242.2 330.44,-236.79"/>
</g>
<!-- gridstatevectorfileio_mod -->
<g id="node8" class="node">
<title>gridstatevectorfileio_mod</title>
<g id="a_node8"><a xlink:href="../modules/gridstatevectorfileio_mod.svg" xlink:title="gridstatevectorfileio_mod">
<polygon fill="none" stroke="red" points="422,-161 264,-161 264,-125 422,-125 422,-161"/>
<text text-anchor="middle" x="343" y="-139.3" font-family="Times,serif" font-size="14.00">gridstatevectorfileio_mod</text>
</a>
</g>
</g>
<!-- gridVariableTransforms_mod&#45;&gt;gridstatevectorfileio_mod -->
<g id="edge7" class="edge">
<title>gridVariableTransforms_mod&#45;&gt;gridstatevectorfileio_mod</title>
<path fill="none" stroke="black" d="M549.38,-631.65C502.84,-622.53 452.51,-609.35 436,-593 406.9,-564.16 412,-544.97 412,-504 412,-504 412,-504 412,-286 412,-245.55 411.8,-232.81 393,-197 387.51,-186.54 379.37,-176.65 371.24,-168.32"/>
<polygon fill="black" stroke="black" points="373.47,-165.6 363.86,-161.13 368.58,-170.61 373.47,-165.6"/>
</g>
<!-- gridstatevector_mod -->
<g id="node9" class="node">
<title>gridstatevector_mod</title>
<g id="a_node9"><a xlink:href="../modules/gridstatevector_mod.svg" xlink:title="gridstatevector_mod">
<polygon fill="none" stroke="red" points="515,-89 385,-89 385,-53 515,-53 515,-89"/>
<text text-anchor="middle" x="450" y="-67.3" font-family="Times,serif" font-size="14.00">gridstatevector_mod</text>
</a>
</g>
</g>
<!-- gridVariableTransforms_mod&#45;&gt;gridstatevector_mod -->
<g id="edge8" class="edge">
<title>gridVariableTransforms_mod&#45;&gt;gridstatevector_mod</title>
<path fill="none" stroke="black" d="M549.36,-636.28C520.03,-628.79 489.75,-615.72 469,-593 441.72,-563.14 450,-544.45 450,-504 450,-504 450,-504 450,-214 450,-174 450,-127.65 450,-99.08"/>
<polygon fill="black" stroke="black" points="453.5,-99.05 450,-89.05 446.5,-99.05 453.5,-99.05"/>
</g>
<!-- horizontalcoord_mod -->
<g id="node10" class="node">
<title>horizontalcoord_mod</title>
<g id="a_node10"><a xlink:href="../modules/horizontalcoord_mod.svg" xlink:title="horizontalcoord_mod">
<polygon fill="none" stroke="red" points="612,-593 478,-593 478,-557 612,-557 612,-593"/>
<text text-anchor="middle" x="545" y="-571.3" font-family="Times,serif" font-size="14.00">horizontalcoord_mod</text>
</a>
</g>
</g>
<!-- gridVariableTransforms_mod&#45;&gt;horizontalcoord_mod -->
<g id="edge9" class="edge">
<title>gridVariableTransforms_mod&#45;&gt;horizontalcoord_mod</title>
<path fill="none" stroke="black" d="M616.52,-628.7C604.44,-619.8 589.55,-608.82 576.48,-599.2"/>
<polygon fill="black" stroke="black" points="578.34,-596.22 568.21,-593.1 574.19,-601.85 578.34,-596.22"/>
</g>
<!-- humiditylimits_mod -->
<g id="node11" class="node">
<title>humiditylimits_mod</title>
<g id="a_node11"><a xlink:href="../modules/humiditylimits_mod.svg" xlink:title="humiditylimits_mod">
<polygon fill="none" stroke="red" points="649.5,-521 520.5,-521 520.5,-485 649.5,-485 649.5,-521"/>
<text text-anchor="middle" x="585" y="-499.3" font-family="Times,serif" font-size="14.00">humiditylimits_mod</text>
</a>
</g>
</g>
<!-- gridVariableTransforms_mod&#45;&gt;humiditylimits_mod -->
<g id="edge10" class="edge">
<title>gridVariableTransforms_mod&#45;&gt;humiditylimits_mod</title>
<path fill="none" stroke="black" d="M638.3,-628.67C636.05,-610.29 631.11,-580.69 621,-557 616.92,-547.43 611.01,-537.78 605.16,-529.39"/>
<polygon fill="black" stroke="black" points="607.88,-527.17 599.16,-521.15 602.22,-531.29 607.88,-527.17"/>
</g>
<!-- interpolation_mod -->
<g id="node12" class="node">
<title>interpolation_mod</title>
<g id="a_node12"><a xlink:href="../modules/interpolation_mod.svg" xlink:title="interpolation_mod">
<polygon fill="none" stroke="red" points="688,-449 570,-449 570,-413 688,-413 688,-449"/>
<text text-anchor="middle" x="629" y="-427.3" font-family="Times,serif" font-size="14.00">interpolation_mod</text>
</a>
</g>
</g>
<!-- gridVariableTransforms_mod&#45;&gt;interpolation_mod -->
<g id="edge11" class="edge">
<title>gridVariableTransforms_mod&#45;&gt;interpolation_mod</title>
<path fill="none" stroke="black" d="M645.91,-628.8C655.25,-599.04 671.1,-536.23 658,-485 655.62,-475.7 651.24,-466.27 646.58,-458"/>
<polygon fill="black" stroke="black" points="649.46,-455.99 641.31,-449.22 643.46,-459.59 649.46,-455.99"/>
</g>
<!-- lamanalysisgridtransforms_mod -->
<g id="node13" class="node">
<title>lamanalysisgridtransforms_mod</title>
<g id="a_node13"><a xlink:href="../modules/lamanalysisgridtransforms_mod.svg" xlink:title="lamanalysisgridtransforms_mod">
<polygon fill="none" stroke="red" points="726.5,-377 531.5,-377 531.5,-341 726.5,-341 726.5,-377"/>
<text text-anchor="middle" x="629" y="-355.3" font-family="Times,serif" font-size="14.00">lamanalysisgridtransforms_mod</text>
</a>
</g>
</g>
<!-- gridVariableTransforms_mod&#45;&gt;lamanalysisgridtransforms_mod -->
<g id="edge12" class="edge">
<title>gridVariableTransforms_mod&#45;&gt;lamanalysisgridtransforms_mod</title>
<path fill="none" stroke="black" d="M653.15,-628.76C660.11,-618.82 668.18,-605.78 673,-593 701.51,-517.49 732.42,-485.52 697,-413 691.19,-401.11 681.29,-391.12 670.82,-383.12"/>
<polygon fill="black" stroke="black" points="672.54,-380.06 662.36,-377.14 668.5,-385.78 672.54,-380.06"/>
</g>
<!-- lamspectraltransform_mod -->
<g id="node14" class="node">
<title>lamspectraltransform_mod</title>
<g id="a_node14"><a xlink:href="../modules/lamspectraltransform_mod.svg" xlink:title="lamspectraltransform_mod">
<polygon fill="none" stroke="red" points="763.5,-305 598.5,-305 598.5,-269 763.5,-269 763.5,-305"/>
<text text-anchor="middle" x="681" y="-283.3" font-family="Times,serif" font-size="14.00">lamspectraltransform_mod</text>
</a>
</g>
</g>
<!-- gridVariableTransforms_mod&#45;&gt;lamspectraltransform_mod -->
<g id="edge13" class="edge">
<title>gridVariableTransforms_mod&#45;&gt;lamspectraltransform_mod</title>
<path fill="none" stroke="black" d="M667.02,-628.96C700.73,-605.37 754,-559.33 754,-504 754,-504 754,-504 754,-430 754,-389.55 754.48,-376.45 735,-341 729.08,-330.23 720.27,-320.25 711.48,-311.92"/>
<polygon fill="black" stroke="black" points="713.6,-309.13 703.83,-305.05 708.93,-314.34 713.6,-309.13"/>
</g>
<!-- mathphysconstants_mod -->
<g id="node15" class="node">
<title>mathphysconstants_mod</title>
<g id="a_node15"><a xlink:href="mathphysconstants_mod.html" xlink:title="mathphysconstants_mod">
<polygon fill="gray" stroke="black" points="802,-233 650,-233 650,-197 802,-197 802,-233"/>
<text text-anchor="middle" x="726" y="-211.3" font-family="Times,serif" font-size="14.00">mathphysconstants_mod</text>
</a>
</g>
</g>
<!-- gridVariableTransforms_mod&#45;&gt;mathphysconstants_mod -->
<g id="edge14" class="edge">
<title>gridVariableTransforms_mod&#45;&gt;mathphysconstants_mod</title>
<path fill="none" stroke="black" d="M681.13,-628.9C726.15,-607.12 792,-564.85 792,-504 792,-504 792,-504 792,-358 792,-317.46 790.29,-305.18 772,-269 766.92,-258.95 759.51,-249.24 752.11,-240.95"/>
<polygon fill="black" stroke="black" points="754.49,-238.37 745.11,-233.46 749.38,-243.15 754.49,-238.37"/>
</g>
<!-- midasmpi_mod -->
<g id="node16" class="node">
<title>midasmpi_mod</title>
<g id="a_node16"><a xlink:href="../modules/midasmpi_mod.svg" xlink:title="midasmpi_mod">
<polygon fill="none" stroke="red" points="840,-161 738,-161 738,-125 840,-125 840,-161"/>
<text text-anchor="middle" x="789" y="-139.3" font-family="Times,serif" font-size="14.00">midasmpi_mod</text>
</a>
</g>
</g>
<!-- gridVariableTransforms_mod&#45;&gt;midasmpi_mod -->
<g id="edge15" class="edge">
<title>gridVariableTransforms_mod&#45;&gt;midasmpi_mod</title>
<path fill="none" stroke="black" d="M699.86,-628.96C755.55,-609.01 830,-569.99 830,-504 830,-504 830,-504 830,-286 830,-244.41 813.56,-198.56 801.5,-170.51"/>
<polygon fill="black" stroke="black" points="804.55,-168.75 797.3,-161.03 798.15,-171.59 804.55,-168.75"/>
</g>
<!-- timecoord_mod -->
<g id="node17" class="node">
<title>timecoord_mod</title>
<g id="a_node17"><a xlink:href="../modules/timecoord_mod.svg" xlink:title="timecoord_mod">
<polygon fill="none" stroke="red" points="920,-89 816,-89 816,-53 920,-53 920,-89"/>
<text text-anchor="middle" x="868" y="-67.3" font-family="Times,serif" font-size="14.00">timecoord_mod</text>
</a>
</g>
</g>
<!-- gridVariableTransforms_mod&#45;&gt;timecoord_mod -->
<g id="edge16" class="edge">
<title>gridVariableTransforms_mod&#45;&gt;timecoord_mod</title>
<path fill="none" stroke="black" d="M725.55,-628.92C790.24,-610.43 868,-573.72 868,-504 868,-504 868,-504 868,-214 868,-174 868,-127.65 868,-99.08"/>
<polygon fill="black" stroke="black" points="871.5,-99.05 868,-89.05 864.5,-99.05 871.5,-99.05"/>
</g>
<!-- utilities_mod -->
<g id="node18" class="node">
<title>utilities_mod</title>
<g id="a_node18"><a xlink:href="../modules/utilities_mod.svg" xlink:title="utilities_mod">
<polygon fill="none" stroke="red" points="985.5,-593 896.5,-593 896.5,-557 985.5,-557 985.5,-593"/>
<text text-anchor="middle" x="941" y="-571.3" font-family="Times,serif" font-size="14.00">utilities_mod</text>
</a>
</g>
</g>
<!-- gridVariableTransforms_mod&#45;&gt;utilities_mod -->
<g id="edge17" class="edge">
<title>gridVariableTransforms_mod&#45;&gt;utilities_mod</title>
<path fill="none" stroke="black" d="M724.03,-629C770.73,-619.2 829.78,-606.23 882,-593 883.45,-592.63 884.92,-592.25 886.41,-591.87"/>
<polygon fill="black" stroke="black" points="887.55,-595.18 896.31,-589.21 885.74,-588.42 887.55,-595.18"/>
</g>
<!-- varnamelist_mod -->
<g id="node19" class="node">
<title>varnamelist_mod</title>
<g id="a_node19"><a xlink:href="../modules/varnamelist_mod.svg" xlink:title="varnamelist_mod">
<polygon fill="none" stroke="red" points="1070.5,-521 957.5,-521 957.5,-485 1070.5,-485 1070.5,-521"/>
<text text-anchor="middle" x="1014" y="-499.3" font-family="Times,serif" font-size="14.00">varnamelist_mod</text>
</a>
</g>
</g>
<!-- gridVariableTransforms_mod&#45;&gt;varnamelist_mod -->
<g id="edge18" class="edge">
<title>gridVariableTransforms_mod&#45;&gt;varnamelist_mod</title>
<path fill="none" stroke="black" d="M730.68,-643.79C822.72,-639.62 956.8,-627.6 994,-593 1010.71,-577.46 1014.95,-551.21 1015.46,-531.24"/>
<polygon fill="black" stroke="black" points="1018.95,-531.16 1015.42,-521.18 1011.95,-531.19 1018.95,-531.16"/>
</g>
<!-- verticalcoord_mod -->
<g id="node20" class="node">
<title>verticalcoord_mod</title>
<g id="a_node20"><a xlink:href="../modules/verticalcoord_mod.svg" xlink:title="verticalcoord_mod">
<polygon fill="none" stroke="red" points="1159,-449 1039,-449 1039,-413 1159,-413 1159,-449"/>
<text text-anchor="middle" x="1099" y="-427.3" font-family="Times,serif" font-size="14.00">verticalcoord_mod</text>
</a>
</g>
</g>
<!-- gridVariableTransforms_mod&#45;&gt;verticalcoord_mod -->
<g id="edge19" class="edge">
<title>gridVariableTransforms_mod&#45;&gt;verticalcoord_mod</title>
<path fill="none" stroke="black" d="M730.75,-640.7C826.5,-633.82 970.04,-619.42 1018,-593 1054.73,-572.76 1060.31,-558.54 1079,-521 1088.68,-501.56 1093.72,-477.42 1096.33,-459.19"/>
<polygon fill="black" stroke="black" points="1099.81,-459.57 1097.59,-449.21 1092.86,-458.69 1099.81,-459.57"/>
</g>
</g>
</svg>
