<?xml version="1.0" encoding="UTF-8" standalone="no"?>
<!DOCTYPE svg PUBLIC "-//W3C//DTD SVG 1.1//EN"
 "http://www.w3.org/Graphics/SVG/1.1/DTD/svg11.dtd">
<!-- Generated by graphviz version 3.0.0 (20220315.2325)
 -->
<!-- Title: gridStateVector_mod Pages: 1 -->
<svg width="774pt" height="673pt"
 viewBox="0.00 0.00 773.50 673.00" xmlns="http://www.w3.org/2000/svg" xmlns:xlink="http://www.w3.org/1999/xlink">
<g id="graph0" class="graph" transform="scale(1 1) rotate(0) translate(4 669)">
<title>gridStateVector_mod</title>
<polygon fill="white" stroke="transparent" points="-4,4 -4,-669 769.5,-669 769.5,4 -4,4"/>
<text text-anchor="middle" x="382.75" y="-37.8" font-family="Times,serif" font-size="14.00">Red boxes indicate modules with dependencies not shown</text>
<text text-anchor="middle" x="382.75" y="-22.8" font-family="Times,serif" font-size="14.00">Lower level dependencies can be shown by clicking on a red box</text>
<text text-anchor="middle" x="382.75" y="-7.8" font-family="Times,serif" font-size="14.00">Shaded boxes indicate modules with no dependencies</text>
<!-- gridStateVector_mod -->
<g id="node1" class="node">
<title>gridStateVector_mod</title>
<g id="a_node1"><a xlink:href="gridStateVector_mod.html" xlink:title="gridStateVector_mod">
<polygon fill="none" stroke="black" points="415.5,-665 281.5,-665 281.5,-629 415.5,-629 415.5,-665"/>
<text text-anchor="middle" x="348.5" y="-643.3" font-family="Times,serif" font-size="14.00">gridStateVector_mod</text>
</a>
</g>
</g>
<!-- codeprecision_mod -->
<g id="node2" class="node">
<title>codeprecision_mod</title>
<g id="a_node2"><a xlink:href="codeprecision_mod.html" xlink:title="codeprecision_mod">
<polygon fill="gray" stroke="black" points="123,-593 0,-593 0,-557 123,-557 123,-593"/>
<text text-anchor="middle" x="61.5" y="-571.3" font-family="Times,serif" font-size="14.00">codeprecision_mod</text>
</a>
</g>
</g>
<!-- gridStateVector_mod&#45;&gt;codeprecision_mod -->
<g id="edge1" class="edge">
<title>gridStateVector_mod&#45;&gt;codeprecision_mod</title>
<path fill="none" stroke="black" d="M281.21,-629.59C236.76,-618.75 178.56,-604.55 133.23,-593.49"/>
<polygon fill="black" stroke="black" points="134.01,-590.08 123.47,-591.11 132.35,-596.88 134.01,-590.08"/>
</g>
<!-- earthconstants_mod -->
<g id="node3" class="node">
<title>earthconstants_mod</title>
<g id="a_node3"><a xlink:href="../modules/earthconstants_mod.svg" xlink:title="earthconstants_mod">
<polygon fill="none" stroke="red" points="187.5,-521 61.5,-521 61.5,-485 187.5,-485 187.5,-521"/>
<text text-anchor="middle" x="124.5" y="-499.3" font-family="Times,serif" font-size="14.00">earthconstants_mod</text>
</a>
</g>
</g>
<!-- gridStateVector_mod&#45;&gt;earthconstants_mod -->
<g id="edge2" class="edge">
<title>gridStateVector_mod&#45;&gt;earthconstants_mod</title>
<path fill="none" stroke="black" d="M281.39,-629.74C255.03,-621.39 225.43,-609.43 201.5,-593 176.71,-575.97 154.96,-549.1 140.96,-529.33"/>
<polygon fill="black" stroke="black" points="143.83,-527.32 135.27,-521.08 138.07,-531.3 143.83,-527.32"/>
</g>
<!-- horizontalcoord_mod -->
<g id="node4" class="node">
<title>horizontalcoord_mod</title>
<g id="a_node4"><a xlink:href="../modules/horizontalcoord_mod.svg" xlink:title="horizontalcoord_mod">
<polygon fill="none" stroke="red" points="225.5,-449 91.5,-449 91.5,-413 225.5,-413 225.5,-449"/>
<text text-anchor="middle" x="158.5" y="-427.3" font-family="Times,serif" font-size="14.00">horizontalcoord_mod</text>
</a>
</g>
</g>
<!-- gridStateVector_mod&#45;&gt;horizontalcoord_mod -->
<g id="edge3" class="edge">
<title>gridStateVector_mod&#45;&gt;horizontalcoord_mod</title>
<path fill="none" stroke="black" d="M294.32,-628.97C274.98,-620.67 254.32,-608.96 239.5,-593 204.34,-555.15 221.29,-530.33 196.5,-485 191.37,-475.61 184.84,-465.93 178.66,-457.46"/>
<polygon fill="black" stroke="black" points="181.45,-455.34 172.65,-449.44 175.85,-459.54 181.45,-455.34"/>
</g>
<!-- mathphysconstants_mod -->
<g id="node5" class="node">
<title>mathphysconstants_mod</title>
<g id="a_node5"><a xlink:href="mathphysconstants_mod.html" xlink:title="mathphysconstants_mod">
<polygon fill="gray" stroke="black" points="263.5,-377 111.5,-377 111.5,-341 263.5,-341 263.5,-377"/>
<text text-anchor="middle" x="187.5" y="-355.3" font-family="Times,serif" font-size="14.00">mathphysconstants_mod</text>
</a>
</g>
</g>
<!-- gridStateVector_mod&#45;&gt;mathphysconstants_mod -->
<g id="edge4" class="edge">
<title>gridStateVector_mod&#45;&gt;mathphysconstants_mod</title>
<path fill="none" stroke="black" d="M316.46,-628.92C302.54,-619.97 287.22,-607.78 277.5,-593 232.29,-524.29 272.48,-485.96 234.5,-413 229.2,-402.81 221.5,-393 213.88,-384.65"/>
<polygon fill="black" stroke="black" points="216.4,-382.23 206.96,-377.42 211.34,-387.07 216.4,-382.23"/>
</g>
<!-- message_mod -->
<g id="node6" class="node">
<title>message_mod</title>
<g id="a_node6"><a xlink:href="../modules/message_mod.svg" xlink:title="message_mod">
<polygon fill="none" stroke="red" points="301,-305 206,-305 206,-269 301,-269 301,-305"/>
<text text-anchor="middle" x="253.5" y="-283.3" font-family="Times,serif" font-size="14.00">message_mod</text>
</a>
</g>
</g>
<!-- gridStateVector_mod&#45;&gt;message_mod -->
<g id="edge5" class="edge">
<title>gridStateVector_mod&#45;&gt;message_mod</title>
<path fill="none" stroke="black" d="M335.83,-628.57C329.03,-618.56 320.95,-605.52 315.5,-593 299.16,-555.43 291.5,-544.97 291.5,-504 291.5,-504 291.5,-504 291.5,-430 291.5,-388.63 276.27,-342.72 265.09,-314.61"/>
<polygon fill="black" stroke="black" points="268.22,-313.02 261.19,-305.09 261.74,-315.67 268.22,-313.02"/>
</g>
<!-- midasmpi_mod -->
<g id="node7" class="node">
<title>midasmpi_mod</title>
<g id="a_node7"><a xlink:href="../modules/midasmpi_mod.svg" xlink:title="midasmpi_mod">
<polygon fill="none" stroke="red" points="339.5,-233 237.5,-233 237.5,-197 339.5,-197 339.5,-233"/>
<text text-anchor="middle" x="288.5" y="-211.3" font-family="Times,serif" font-size="14.00">midasmpi_mod</text>
</a>
</g>
</g>
<!-- gridStateVector_mod&#45;&gt;midasmpi_mod -->
<g id="edge6" class="edge">
<title>gridStateVector_mod&#45;&gt;midasmpi_mod</title>
<path fill="none" stroke="black" d="M344.66,-628.61C339.1,-601.94 329.5,-549.27 329.5,-504 329.5,-504 329.5,-504 329.5,-358 329.5,-316.41 313.06,-270.56 301,-242.51"/>
<polygon fill="black" stroke="black" points="304.05,-240.75 296.8,-233.03 297.65,-243.59 304.05,-240.75"/>
</g>
<!-- oceanmask_mod -->
<g id="node8" class="node">
<title>oceanmask_mod</title>
<g id="a_node8"><a xlink:href="../modules/oceanmask_mod.svg" xlink:title="oceanmask_mod">
<polygon fill="none" stroke="red" points="377,-161 268,-161 268,-125 377,-125 377,-161"/>
<text text-anchor="middle" x="322.5" y="-139.3" font-family="Times,serif" font-size="14.00">oceanmask_mod</text>
</a>
</g>
</g>
<!-- gridStateVector_mod&#45;&gt;oceanmask_mod -->
<g id="edge7" class="edge">
<title>gridStateVector_mod&#45;&gt;oceanmask_mod</title>
<path fill="none" stroke="black" d="M352.34,-628.61C357.9,-601.94 367.5,-549.27 367.5,-504 367.5,-504 367.5,-504 367.5,-286 367.5,-245.55 361.73,-235.22 348.5,-197 345.38,-187.99 341.1,-178.54 336.91,-170.14"/>
<polygon fill="black" stroke="black" points="339.99,-168.48 332.28,-161.2 333.77,-171.69 339.99,-168.48"/>
</g>
<!-- physicsfunctions_mod -->
<g id="node9" class="node">
<title>physicsfunctions_mod</title>
<g id="a_node9"><a xlink:href="../modules/physicsfunctions_mod.svg" xlink:title="physicsfunctions_mod">
<polygon fill="none" stroke="red" points="475,-89 336,-89 336,-53 475,-53 475,-89"/>
<text text-anchor="middle" x="405.5" y="-67.3" font-family="Times,serif" font-size="14.00">physicsfunctions_mod</text>
</a>
</g>
</g>
<!-- gridStateVector_mod&#45;&gt;physicsfunctions_mod -->
<g id="edge8" class="edge">
<title>gridStateVector_mod&#45;&gt;physicsfunctions_mod</title>
<path fill="none" stroke="black" d="M360.31,-628.96C377.01,-603.16 405.5,-552.08 405.5,-504 405.5,-504 405.5,-504 405.5,-214 405.5,-174 405.5,-127.65 405.5,-99.08"/>
<polygon fill="black" stroke="black" points="409,-99.05 405.5,-89.05 402,-99.05 409,-99.05"/>
</g>
<!-- timecoord_mod -->
<g id="node10" class="node">
<title>timecoord_mod</title>
<g id="a_node10"><a xlink:href="../modules/timecoord_mod.svg" xlink:title="timecoord_mod">
<polygon fill="none" stroke="red" points="537.5,-593 433.5,-593 433.5,-557 537.5,-557 537.5,-593"/>
<text text-anchor="middle" x="485.5" y="-571.3" font-family="Times,serif" font-size="14.00">timecoord_mod</text>
</a>
</g>
</g>
<!-- gridStateVector_mod&#45;&gt;timecoord_mod -->
<g id="edge9" class="edge">
<title>gridStateVector_mod&#45;&gt;timecoord_mod</title>
<path fill="none" stroke="black" d="M382.01,-628.88C400.34,-619.51 423.24,-607.81 442.83,-597.8"/>
<polygon fill="black" stroke="black" points="444.54,-600.86 451.86,-593.19 441.36,-594.62 444.54,-600.86"/>
</g>
<!-- utilities_mod -->
<g id="node11" class="node">
<title>utilities_mod</title>
<g id="a_node11"><a xlink:href="../modules/utilities_mod.svg" xlink:title="utilities_mod">
<polygon fill="none" stroke="red" points="592,-521 503,-521 503,-485 592,-485 592,-521"/>
<text text-anchor="middle" x="547.5" y="-499.3" font-family="Times,serif" font-size="14.00">utilities_mod</text>
</a>
</g>
</g>
<!-- gridStateVector_mod&#45;&gt;utilities_mod -->
<g id="edge10" class="edge">
<title>gridStateVector_mod&#45;&gt;utilities_mod</title>
<path fill="none" stroke="black" d="M415.6,-636.81C466.48,-628.31 530.32,-613.83 546.5,-593 559.93,-575.7 558.8,-550.27 555.11,-531.02"/>
<polygon fill="black" stroke="black" points="558.48,-530.04 552.87,-521.05 551.64,-531.57 558.48,-530.04"/>
</g>
<!-- varnamelist_mod -->
<g id="node12" class="node">
<title>varnamelist_mod</title>
<g id="a_node12"><a xlink:href="../modules/varnamelist_mod.svg" xlink:title="varnamelist_mod">
<polygon fill="none" stroke="red" points="677,-449 564,-449 564,-413 677,-413 677,-449"/>
<text text-anchor="middle" x="620.5" y="-427.3" font-family="Times,serif" font-size="14.00">varnamelist_mod</text>
</a>
</g>
</g>
<!-- gridStateVector_mod&#45;&gt;varnamelist_mod -->
<g id="edge11" class="edge">
<title>gridStateVector_mod&#45;&gt;varnamelist_mod</title>
<path fill="none" stroke="black" d="M415.68,-644.49C462.57,-640.17 524.09,-627.58 566.5,-593 606.77,-560.16 617.19,-496.22 619.77,-459.57"/>
<polygon fill="black" stroke="black" points="623.29,-459.31 620.34,-449.14 616.3,-458.93 623.29,-459.31"/>
</g>
<!-- verticalcoord_mod -->
<g id="node13" class="node">
<title>verticalcoord_mod</title>
<g id="a_node13"><a xlink:href="../modules/verticalcoord_mod.svg" xlink:title="verticalcoord_mod">
<polygon fill="none" stroke="red" points="765.5,-377 645.5,-377 645.5,-341 765.5,-341 765.5,-377"/>
<text text-anchor="middle" x="705.5" y="-355.3" font-family="Times,serif" font-size="14.00">verticalcoord_mod</text>
</a>
</g>
</g>
<!-- gridStateVector_mod&#45;&gt;verticalcoord_mod -->
<g id="edge12" class="edge">
<title>gridStateVector_mod&#45;&gt;verticalcoord_mod</title>
<path fill="none" stroke="black" d="M415.68,-645.44C468.79,-641.94 542.54,-629.96 595.5,-593 665.9,-543.87 692.57,-437.45 701.51,-387.25"/>
<polygon fill="black" stroke="black" points="705,-387.6 703.2,-377.16 698.09,-386.44 705,-387.6"/>
</g>
</g>
</svg>
