<?xml version="1.0" encoding="UTF-8" standalone="no"?>
<!DOCTYPE svg PUBLIC "-//W3C//DTD SVG 1.1//EN"
 "http://www.w3.org/Graphics/SVG/1.1/DTD/svg11.dtd">
<!-- Generated by graphviz version 3.0.0 (20220315.2325)
 -->
<!-- Title: gridBinning_mod Pages: 1 -->
<svg width="525pt" height="601pt"
 viewBox="0.00 0.00 524.50 601.00" xmlns="http://www.w3.org/2000/svg" xmlns:xlink="http://www.w3.org/1999/xlink">
<g id="graph0" class="graph" transform="scale(1 1) rotate(0) translate(4 597)">
<title>gridBinning_mod</title>
<polygon fill="white" stroke="transparent" points="-4,4 -4,-597 520.5,-597 520.5,4 -4,4"/>
<text text-anchor="middle" x="258.25" y="-37.8" font-family="Times,serif" font-size="14.00">Red boxes indicate modules with dependencies not shown</text>
<text text-anchor="middle" x="258.25" y="-22.8" font-family="Times,serif" font-size="14.00">Lower level dependencies can be shown by clicking on a red box</text>
<text text-anchor="middle" x="258.25" y="-7.8" font-family="Times,serif" font-size="14.00">Shaded boxes indicate modules with no dependencies</text>
<!-- gridBinning_mod -->
<g id="node1" class="node">
<title>gridBinning_mod</title>
<g id="a_node1"><a xlink:href="gridBinning_mod.html" xlink:title="gridBinning_mod">
<polygon fill="none" stroke="black" points="353.5,-593 238.5,-593 238.5,-557 353.5,-557 353.5,-593"/>
<text text-anchor="middle" x="296" y="-571.3" font-family="Times,serif" font-size="14.00">gridBinning_mod</text>
</a>
</g>
</g>
<!-- ensemblestatevector_mod -->
<g id="node2" class="node">
<title>ensemblestatevector_mod</title>
<g id="a_node2"><a xlink:href="../modules/ensemblestatevector_mod.svg" xlink:title="ensemblestatevector_mod">
<polygon fill="none" stroke="red" points="158,-521 0,-521 0,-485 158,-485 158,-521"/>
<text text-anchor="middle" x="79" y="-499.3" font-family="Times,serif" font-size="14.00">ensemblestatevector_mod</text>
</a>
</g>
</g>
<!-- gridBinning_mod&#45;&gt;ensemblestatevector_mod -->
<g id="edge1" class="edge">
<title>gridBinning_mod&#45;&gt;ensemblestatevector_mod</title>
<path fill="none" stroke="black" d="M243.19,-556.97C212.61,-547.1 173.93,-534.62 141.79,-524.25"/>
<polygon fill="black" stroke="black" points="142.64,-520.85 132.04,-521.11 140.49,-527.51 142.64,-520.85"/>
</g>
<!-- gridstatevectorfileio_mod -->
<g id="node3" class="node">
<title>gridstatevectorfileio_mod</title>
<g id="a_node3"><a xlink:href="../modules/gridstatevectorfileio_mod.svg" xlink:title="gridstatevectorfileio_mod">
<polygon fill="none" stroke="red" points="230,-449 72,-449 72,-413 230,-413 230,-449"/>
<text text-anchor="middle" x="151" y="-427.3" font-family="Times,serif" font-size="14.00">gridstatevectorfileio_mod</text>
</a>
</g>
</g>
<!-- gridBinning_mod&#45;&gt;gridstatevectorfileio_mod -->
<g id="edge2" class="edge">
<title>gridBinning_mod&#45;&gt;gridstatevectorfileio_mod</title>
<path fill="none" stroke="black" d="M278.51,-556.87C252.93,-531.82 205.17,-485.05 175.92,-456.41"/>
<polygon fill="black" stroke="black" points="178.15,-453.69 168.55,-449.19 173.25,-458.69 178.15,-453.69"/>
</g>
<!-- gridstatevector_mod -->
<g id="node4" class="node">
<title>gridstatevector_mod</title>
<g id="a_node4"><a xlink:href="../modules/gridstatevector_mod.svg" xlink:title="gridstatevector_mod">
<polygon fill="none" stroke="red" points="268,-377 138,-377 138,-341 268,-341 268,-377"/>
<text text-anchor="middle" x="203" y="-355.3" font-family="Times,serif" font-size="14.00">gridstatevector_mod</text>
</a>
</g>
</g>
<!-- gridBinning_mod&#45;&gt;gridstatevector_mod -->
<g id="edge3" class="edge">
<title>gridBinning_mod&#45;&gt;gridstatevector_mod</title>
<path fill="none" stroke="black" d="M291.53,-556.96C283.31,-526.93 264.3,-463 239,-413 234.3,-403.72 228.23,-394.15 222.42,-385.73"/>
<polygon fill="black" stroke="black" points="225.18,-383.57 216.53,-377.45 219.47,-387.62 225.18,-383.57"/>
</g>
<!-- horizontalcoord_mod -->
<g id="node5" class="node">
<title>horizontalcoord_mod</title>
<g id="a_node5"><a xlink:href="../modules/horizontalcoord_mod.svg" xlink:title="horizontalcoord_mod">
<polygon fill="none" stroke="red" points="306,-305 172,-305 172,-269 306,-269 306,-305"/>
<text text-anchor="middle" x="239" y="-283.3" font-family="Times,serif" font-size="14.00">horizontalcoord_mod</text>
</a>
</g>
</g>
<!-- gridBinning_mod&#45;&gt;horizontalcoord_mod -->
<g id="edge4" class="edge">
<title>gridBinning_mod&#45;&gt;horizontalcoord_mod</title>
<path fill="none" stroke="black" d="M297.64,-556.96C300.79,-517.54 305.1,-417.58 277,-341 273.41,-331.22 267.49,-321.62 261.38,-313.34"/>
<polygon fill="black" stroke="black" points="263.95,-310.95 255.03,-305.23 258.44,-315.26 263.95,-310.95"/>
</g>
<!-- midasmpi_mod -->
<g id="node6" class="node">
<title>midasmpi_mod</title>
<g id="a_node6"><a xlink:href="../modules/midasmpi_mod.svg" xlink:title="midasmpi_mod">
<polygon fill="none" stroke="red" points="364,-233 262,-233 262,-197 364,-197 364,-233"/>
<text text-anchor="middle" x="313" y="-211.3" font-family="Times,serif" font-size="14.00">midasmpi_mod</text>
</a>
</g>
</g>
<!-- gridBinning_mod&#45;&gt;midasmpi_mod -->
<g id="edge5" class="edge">
<title>gridBinning_mod&#45;&gt;midasmpi_mod</title>
<path fill="none" stroke="black" d="M303.69,-556.91C314.79,-530.62 334,-478.45 334,-432 334,-432 334,-432 334,-358 334,-317.78 325.65,-271.84 319.49,-243.37"/>
<polygon fill="black" stroke="black" points="322.85,-242.36 317.25,-233.37 316.01,-243.89 322.85,-242.36"/>
</g>
<!-- timecoord_mod -->
<g id="node7" class="node">
<title>timecoord_mod</title>
<g id="a_node7"><a xlink:href="../modules/timecoord_mod.svg" xlink:title="timecoord_mod">
<polygon fill="none" stroke="red" points="444,-161 340,-161 340,-125 444,-125 444,-161"/>
<text text-anchor="middle" x="392" y="-139.3" font-family="Times,serif" font-size="14.00">timecoord_mod</text>
</a>
</g>
</g>
<!-- gridBinning_mod&#45;&gt;timecoord_mod -->
<g id="edge6" class="edge">
<title>gridBinning_mod&#45;&gt;timecoord_mod</title>
<path fill="none" stroke="black" d="M317.78,-556.83C346.11,-532.39 392,-484.67 392,-432 392,-432 392,-432 392,-286 392,-246 392,-199.65 392,-171.08"/>
<polygon fill="black" stroke="black" points="395.5,-171.05 392,-161.05 388.5,-171.05 395.5,-171.05"/>
</g>
<!-- utilities_mod -->
<g id="node8" class="node">
<title>utilities_mod</title>
<g id="a_node8"><a xlink:href="../modules/utilities_mod.svg" xlink:title="utilities_mod">
<polygon fill="none" stroke="red" points="516.5,-89 427.5,-89 427.5,-53 516.5,-53 516.5,-89"/>
<text text-anchor="middle" x="472" y="-67.3" font-family="Times,serif" font-size="14.00">utilities_mod</text>
</a>
</g>
</g>
<!-- gridBinning_mod&#45;&gt;utilities_mod -->
<g id="edge7" class="edge">
<title>gridBinning_mod&#45;&gt;utilities_mod</title>
<path fill="none" stroke="black" d="M348.33,-556.92C400.21,-536.31 472,-496.19 472,-432 472,-432 472,-432 472,-214 472,-174 472,-127.65 472,-99.08"/>
<polygon fill="black" stroke="black" points="475.5,-99.05 472,-89.05 468.5,-99.05 475.5,-99.05"/>
</g>
</g>
</svg>
