<?xml version="1.0" encoding="UTF-8" standalone="no"?>
<!DOCTYPE svg PUBLIC "-//W3C//DTD SVG 1.1//EN"
 "http://www.w3.org/Graphics/SVG/1.1/DTD/svg11.dtd">
<!-- Generated by graphviz version 3.0.0 (20220315.2325)
 -->
<!-- Title: gridVariableTransforms_mod Pages: 1 -->
<svg width="1066pt" height="673pt"
 viewBox="0.00 0.00 1065.50 673.00" xmlns="http://www.w3.org/2000/svg" xmlns:xlink="http://www.w3.org/1999/xlink">
<g id="graph0" class="graph" transform="scale(1 1) rotate(0) translate(4 669)">
<title>gridVariableTransforms_mod</title>
<polygon fill="white" stroke="transparent" points="-4,4 -4,-669 1061.5,-669 1061.5,4 -4,4"/>
<text text-anchor="middle" x="528.75" y="-649.8" font-family="Times,serif" font-size="14.00">Blue boxes indicate modules with reverse dependencies not shown</text>
<text text-anchor="middle" x="528.75" y="-634.8" font-family="Times,serif" font-size="14.00">Higher level reverse dependencies can be shown by clicking on a blue box</text>
<text text-anchor="middle" x="528.75" y="-619.8" font-family="Times,serif" font-size="14.00">Green boxes are programs</text>
<!-- gridVariableTransforms_mod -->
<g id="node1" class="node">
<title>gridVariableTransforms_mod</title>
<g id="a_node1"><a xlink:href="gridVariableTransforms_mod.html" xlink:title="gridVariableTransforms_mod">
<polygon fill="none" stroke="black" points="634.5,-36 453.5,-36 453.5,0 634.5,0 634.5,-36"/>
<text text-anchor="middle" x="544" y="-14.3" font-family="Times,serif" font-size="14.00">gridVariableTransforms_mod</text>
</a>
</g>
</g>
<!-- bmatrixchem_mod -->
<g id="node2" class="node">
<title>bmatrixchem_mod</title>
<g id="a_node2"><a xlink:href="../modules/bmatrixchem_mod_rev.svg" xlink:title="bmatrixchem_mod">
<polygon fill="none" stroke="blue" points="122,-108 0,-108 0,-72 122,-72 122,-108"/>
<text text-anchor="middle" x="61" y="-86.3" font-family="Times,serif" font-size="14.00">bmatrixchem_mod</text>
</a>
</g>
</g>
<!-- bmatrixchem_mod&#45;&gt;gridVariableTransforms_mod -->
<g id="edge1" class="edge">
<title>bmatrixchem_mod&#45;&gt;gridVariableTransforms_mod</title>
<path fill="none" stroke="black" d="M130.49,-73.01C132.35,-72.66 134.18,-72.32 136,-72 244.48,-52.7 370.36,-37.42 453.28,-28.32"/>
<ellipse fill="black" stroke="black" cx="126.23" cy="-73.85" rx="4" ry="4"/>
</g>
<!-- bmatrixensemble_mod -->
<g id="node3" class="node">
<title>bmatrixensemble_mod</title>
<g id="a_node3"><a xlink:href="../modules/bmatrixensemble_mod_rev.svg" xlink:title="bmatrixensemble_mod">
<polygon fill="none" stroke="blue" points="190.5,-180 47.5,-180 47.5,-144 190.5,-144 190.5,-180"/>
<text text-anchor="middle" x="119" y="-158.3" font-family="Times,serif" font-size="14.00">bmatrixensemble_mod</text>
</a>
</g>
</g>
<!-- bmatrixensemble_mod&#45;&gt;gridVariableTransforms_mod -->
<g id="edge2" class="edge">
<title>bmatrixensemble_mod&#45;&gt;gridVariableTransforms_mod</title>
<path fill="none" stroke="black" d="M135.2,-136.98C150.6,-116.22 175.7,-87.21 205,-72 247.1,-50.15 368,-34.97 453.38,-26.62"/>
<ellipse fill="black" stroke="black" cx="132.71" cy="-140.44" rx="4" ry="4"/>
</g>
<!-- bmatrixhi_mod -->
<g id="node4" class="node">
<title>bmatrixhi_mod</title>
<g id="a_node4"><a xlink:href="../modules/bmatrixhi_mod_rev.svg" xlink:title="bmatrixhi_mod">
<polygon fill="none" stroke="blue" points="229,-252 127,-252 127,-216 229,-216 229,-252"/>
<text text-anchor="middle" x="178" y="-230.3" font-family="Times,serif" font-size="14.00">bmatrixhi_mod</text>
</a>
</g>
</g>
<!-- bmatrixhi_mod&#45;&gt;gridVariableTransforms_mod -->
<g id="edge3" class="edge">
<title>bmatrixhi_mod&#45;&gt;gridVariableTransforms_mod</title>
<path fill="none" stroke="black" d="M187.77,-208.37C205.57,-163.55 241.59,-73.14 243,-72 274.7,-46.33 376.89,-32.38 453.47,-25.33"/>
<ellipse fill="black" stroke="black" cx="186.25" cy="-212.2" rx="4" ry="4"/>
</g>
<!-- calcstatsglb_mod -->
<g id="node5" class="node">
<title>calcstatsglb_mod</title>
<g id="a_node5"><a xlink:href="../modules/calcstatsglb_mod_rev.svg" xlink:title="calcstatsglb_mod">
<polygon fill="none" stroke="blue" points="266.5,-324 155.5,-324 155.5,-288 266.5,-288 266.5,-324"/>
<text text-anchor="middle" x="211" y="-302.3" font-family="Times,serif" font-size="14.00">calcstatsglb_mod</text>
</a>
</g>
</g>
<!-- calcstatsglb_mod&#45;&gt;gridVariableTransforms_mod -->
<g id="edge4" class="edge">
<title>calcstatsglb_mod&#45;&gt;gridVariableTransforms_mod</title>
<path fill="none" stroke="black" d="M224.88,-280.74C229.53,-271.9 234.43,-261.69 238,-252 266.42,-174.82 221.81,-129.11 281,-72 305.43,-48.43 387.29,-34.52 453.27,-26.91"/>
<ellipse fill="black" stroke="black" cx="222.97" cy="-284.28" rx="4" ry="4"/>
</g>
<!-- calcstatslam_mod -->
<g id="node6" class="node">
<title>calcstatslam_mod</title>
<g id="a_node6"><a xlink:href="../modules/calcstatslam_mod_rev.svg" xlink:title="calcstatslam_mod">
<polygon fill="none" stroke="blue" points="304.5,-396 189.5,-396 189.5,-360 304.5,-360 304.5,-396"/>
<text text-anchor="middle" x="247" y="-374.3" font-family="Times,serif" font-size="14.00">calcstatslam_mod</text>
</a>
</g>
</g>
<!-- calcstatslam_mod&#45;&gt;gridVariableTransforms_mod -->
<g id="edge5" class="edge">
<title>calcstatslam_mod&#45;&gt;gridVariableTransforms_mod</title>
<path fill="none" stroke="black" d="M261.51,-352.82C266.34,-343.99 271.4,-333.76 275,-324 289.04,-285.97 295,-275.54 295,-235 295,-235 295,-235 295,-161 295,-120.03 289.57,-100.5 319,-72 338.42,-53.19 399.74,-39.5 453.46,-30.75"/>
<ellipse fill="black" stroke="black" cx="259.5" cy="-356.39" rx="4" ry="4"/>
</g>
<!-- enkf_mod -->
<g id="node7" class="node">
<title>enkf_mod</title>
<g id="a_node7"><a xlink:href="../modules/enkf_mod_rev.svg" xlink:title="enkf_mod">
<polygon fill="none" stroke="blue" points="342.5,-468 269.5,-468 269.5,-432 342.5,-432 342.5,-468"/>
<text text-anchor="middle" x="306" y="-446.3" font-family="Times,serif" font-size="14.00">enkf_mod</text>
</a>
</g>
</g>
<!-- enkf_mod&#45;&gt;gridVariableTransforms_mod -->
<g id="edge6" class="edge">
<title>enkf_mod&#45;&gt;gridVariableTransforms_mod</title>
<path fill="none" stroke="black" d="M313.72,-423.96C321.7,-395.8 333,-348.57 333,-307 333,-307 333,-307 333,-161 333,-120.03 328.22,-101.15 357,-72 382.37,-46.31 419.2,-32.83 453.48,-25.85"/>
<ellipse fill="black" stroke="black" cx="312.58" cy="-427.87" rx="4" ry="4"/>
</g>
<!-- enspostprocess_mod -->
<g id="node8" class="node">
<title>enspostprocess_mod</title>
<g id="a_node8"><a xlink:href="../modules/enspostprocess_mod_rev.svg" xlink:title="enspostprocess_mod">
<polygon fill="none" stroke="blue" points="380.5,-540 251.5,-540 251.5,-504 380.5,-504 380.5,-540"/>
<text text-anchor="middle" x="316" y="-518.3" font-family="Times,serif" font-size="14.00">enspostprocess_mod</text>
</a>
</g>
</g>
<!-- enspostprocess_mod&#45;&gt;gridVariableTransforms_mod -->
<g id="edge7" class="edge">
<title>enspostprocess_mod&#45;&gt;gridVariableTransforms_mod</title>
<path fill="none" stroke="black" d="M334.45,-497.09C340.47,-488.33 346.71,-478.09 351,-468 366.88,-430.7 371,-419.54 371,-379 371,-379 371,-379 371,-161 371,-120.03 367.19,-102.08 395,-72 410.56,-55.17 431.83,-43.68 453.41,-35.83"/>
<ellipse fill="black" stroke="black" cx="332.02" cy="-500.51" rx="4" ry="4"/>
</g>
<!-- increment_mod -->
<g id="node9" class="node">
<title>increment_mod</title>
<g id="a_node9"><a xlink:href="../modules/increment_mod_rev.svg" xlink:title="increment_mod">
<polygon fill="none" stroke="blue" points="460.5,-612 357.5,-612 357.5,-576 460.5,-576 460.5,-612"/>
<text text-anchor="middle" x="409" y="-590.3" font-family="Times,serif" font-size="14.00">increment_mod</text>
</a>
</g>
</g>
<!-- increment_mod&#45;&gt;gridVariableTransforms_mod -->
<g id="edge8" class="edge">
<title>increment_mod&#45;&gt;gridVariableTransforms_mod</title>
<path fill="none" stroke="black" d="M409,-567.78C409,-539.39 409,-491.89 409,-451 409,-451 409,-451 409,-161 409,-120.55 402.68,-103.54 428,-72 441.17,-55.6 460.53,-44.07 479.69,-36.06"/>
<ellipse fill="black" stroke="black" cx="409" cy="-571.95" rx="4" ry="4"/>
</g>
<!-- lambmatrixhi_mod -->
<g id="node10" class="node">
<title>lambmatrixhi_mod</title>
<g id="a_node10"><a xlink:href="../modules/lambmatrixhi_mod_rev.svg" xlink:title="lambmatrixhi_mod">
<polygon fill="none" stroke="blue" points="560.5,-108 437.5,-108 437.5,-72 560.5,-72 560.5,-108"/>
<text text-anchor="middle" x="499" y="-86.3" font-family="Times,serif" font-size="14.00">lambmatrixhi_mod</text>
</a>
</g>
</g>
<!-- lambmatrixhi_mod&#45;&gt;gridVariableTransforms_mod -->
<g id="edge9" class="edge">
<title>lambmatrixhi_mod&#45;&gt;gridVariableTransforms_mod</title>
<path fill="none" stroke="black" d="M514.59,-64.76C520.65,-55.32 527.47,-44.72 533,-36.1"/>
<ellipse fill="black" stroke="black" cx="512.29" cy="-68.33" rx="4" ry="4"/>
</g>
<!-- statetocolumn_mod -->
<g id="node11" class="node">
<title>statetocolumn_mod</title>
<g id="a_node11"><a xlink:href="../modules/statetocolumn_mod_rev.svg" xlink:title="statetocolumn_mod">
<polygon fill="none" stroke="blue" points="598.5,-180 473.5,-180 473.5,-144 598.5,-144 598.5,-180"/>
<text text-anchor="middle" x="536" y="-158.3" font-family="Times,serif" font-size="14.00">statetocolumn_mod</text>
</a>
</g>
</g>
<!-- statetocolumn_mod&#45;&gt;gridVariableTransforms_mod -->
<g id="edge10" class="edge">
<title>statetocolumn_mod&#45;&gt;gridVariableTransforms_mod</title>
<path fill="none" stroke="black" d="M554.89,-136.98C560.58,-128.34 566.08,-118.2 569,-108 573.4,-92.62 572.5,-87.61 569,-72 566.2,-59.49 560.1,-46.46 554.63,-36.44"/>
<ellipse fill="black" stroke="black" cx="552.6" cy="-140.28" rx="4" ry="4"/>
</g>
<!-- midas_midas_adjointtest -->
<g id="node12" class="node">
<title>midas_midas_adjointtest</title>
<g id="a_node12"><a xlink:href="../programs/midas_adjointtest.html" xlink:title="midas_midas_adjointtest">
<polygon fill="gray" stroke="green" points="637,-252 485,-252 485,-216 637,-216 637,-252"/>
<text text-anchor="middle" x="561" y="-230.3" font-family="Times,serif" font-size="14.00">midas_midas_adjointtest</text>
</a>
</g>
</g>
<!-- midas_midas_adjointtest&#45;&gt;gridVariableTransforms_mod -->
<g id="edge11" class="edge">
<title>midas_midas_adjointtest&#45;&gt;gridVariableTransforms_mod</title>
<path fill="none" stroke="black" d="M587.74,-209.51C595.47,-201.07 602.92,-190.91 607,-180 612.6,-165.01 609.36,-159.82 607,-144 602.06,-110.91 600.38,-101.72 585,-72 578.26,-58.98 568.23,-45.94 559.77,-36.05"/>
<ellipse fill="black" stroke="black" cx="584.61" cy="-212.74" rx="4" ry="4"/>
</g>
<!-- midas_midas_diagbmatrix -->
<g id="node13" class="node">
<title>midas_midas_diagbmatrix</title>
<g id="a_node13"><a xlink:href="../programs/midas_diagbmatrix.html" xlink:title="midas_midas_diagbmatrix">
<polygon fill="gray" stroke="green" points="674.5,-324 511.5,-324 511.5,-288 674.5,-288 674.5,-324"/>
<text text-anchor="middle" x="593" y="-302.3" font-family="Times,serif" font-size="14.00">midas_midas_diagbmatrix</text>
</a>
</g>
</g>
<!-- midas_midas_diagbmatrix&#45;&gt;gridVariableTransforms_mod -->
<g id="edge12" class="edge">
<title>midas_midas_diagbmatrix&#45;&gt;gridVariableTransforms_mod</title>
<path fill="none" stroke="black" d="M623.66,-282.26C632.59,-273.85 641.23,-263.53 646,-252 652.12,-237.22 648.11,-231.86 646,-216 637.26,-150.27 642.67,-127.9 607,-72 597.93,-57.78 583.83,-45.41 571.28,-36.2"/>
<ellipse fill="black" stroke="black" cx="620.46" cy="-285.11" rx="4" ry="4"/>
</g>
<!-- midas_midas_diaghbht -->
<g id="node14" class="node">
<title>midas_midas_diaghbht</title>
<g id="a_node14"><a xlink:href="../programs/midas_diaghbht.html" xlink:title="midas_midas_diaghbht">
<polygon fill="gray" stroke="green" points="712.5,-396 569.5,-396 569.5,-360 712.5,-360 712.5,-396"/>
<text text-anchor="middle" x="641" y="-374.3" font-family="Times,serif" font-size="14.00">midas_midas_diaghbht</text>
</a>
</g>
</g>
<!-- midas_midas_diaghbht&#45;&gt;gridVariableTransforms_mod -->
<g id="edge13" class="edge">
<title>midas_midas_diaghbht&#45;&gt;gridVariableTransforms_mod</title>
<path fill="none" stroke="black" d="M663.4,-353.43C670.6,-344.75 678,-334.47 683,-324 700.47,-287.42 703,-275.54 703,-235 703,-235 703,-235 703,-161 703,-99.19 635.34,-57.6 588.29,-36.14"/>
<ellipse fill="black" stroke="black" cx="660.59" cy="-356.7" rx="4" ry="4"/>
</g>
<!-- midas_midas_extractbmatrixfor1dvar -->
<g id="node15" class="node">
<title>midas_midas_extractbmatrixfor1dvar</title>
<g id="a_node15"><a xlink:href="../programs/midas_extractbmatrixfor1dvar.html" xlink:title="midas_midas_extractbmatrixfor1dvar">
<polygon fill="gray" stroke="green" points="750.5,-468 527.5,-468 527.5,-432 750.5,-432 750.5,-468"/>
<text text-anchor="middle" x="639" y="-446.3" font-family="Times,serif" font-size="14.00">midas_midas_extractbmatrixfor1dvar</text>
</a>
</g>
</g>
<!-- midas_midas_extractbmatrixfor1dvar&#45;&gt;gridVariableTransforms_mod -->
<g id="edge14" class="edge">
<title>midas_midas_extractbmatrixfor1dvar&#45;&gt;gridVariableTransforms_mod</title>
<path fill="none" stroke="black" d="M685.14,-427.8C698.5,-419.61 711.92,-409.02 721,-396 744.19,-362.75 741,-347.54 741,-307 741,-307 741,-307 741,-161 741,-94.18 665.48,-55.67 607.96,-36.02"/>
<ellipse fill="black" stroke="black" cx="681.64" cy="-429.85" rx="4" ry="4"/>
</g>
<!-- midas_midas_obsimpact -->
<g id="node16" class="node">
<title>midas_midas_obsimpact</title>
<g id="a_node16"><a xlink:href="../programs/midas_obsimpact.html" xlink:title="midas_midas_obsimpact">
<polygon fill="gray" stroke="green" points="789,-540 637,-540 637,-504 789,-504 789,-540"/>
<text text-anchor="middle" x="713" y="-518.3" font-family="Times,serif" font-size="14.00">midas_midas_obsimpact</text>
</a>
</g>
</g>
<!-- midas_midas_obsimpact&#45;&gt;gridVariableTransforms_mod -->
<g id="edge15" class="edge">
<title>midas_midas_obsimpact&#45;&gt;gridVariableTransforms_mod</title>
<path fill="none" stroke="black" d="M737.74,-497.58C745.58,-488.96 753.61,-478.68 759,-468 777.29,-431.82 779,-419.54 779,-379 779,-379 779,-379 779,-161 779,-90.57 700.72,-54.14 634.52,-35.92"/>
<ellipse fill="black" stroke="black" cx="734.85" cy="-500.64" rx="4" ry="4"/>
</g>
<!-- midas_midas_randompert -->
<g id="node17" class="node">
<title>midas_midas_randompert</title>
<g id="a_node17"><a xlink:href="../programs/midas_randompert.html" xlink:title="midas_midas_randompert">
<polygon fill="gray" stroke="green" points="896.5,-612 737.5,-612 737.5,-576 896.5,-576 896.5,-612"/>
<text text-anchor="middle" x="817" y="-590.3" font-family="Times,serif" font-size="14.00">midas_midas_randompert</text>
</a>
</g>
</g>
<!-- midas_midas_randompert&#45;&gt;gridVariableTransforms_mod -->
<g id="edge16" class="edge">
<title>midas_midas_randompert&#45;&gt;gridVariableTransforms_mod</title>
<path fill="none" stroke="black" d="M817,-567.78C817,-539.39 817,-491.89 817,-451 817,-451 817,-451 817,-161 817,-76.99 713.99,-42.61 634.53,-28.59"/>
<ellipse fill="black" stroke="black" cx="817" cy="-571.95" rx="4" ry="4"/>
</g>
<!-- midas_midas_var1d -->
<g id="node18" class="node">
<title>midas_midas_var1d</title>
<g id="a_node18"><a xlink:href="../programs/midas_var1d.html" xlink:title="midas_midas_var1d">
<polygon fill="gray" stroke="green" points="972.5,-108 845.5,-108 845.5,-72 972.5,-72 972.5,-108"/>
<text text-anchor="middle" x="909" y="-86.3" font-family="Times,serif" font-size="14.00">midas_midas_var1d</text>
</a>
</g>
</g>
<!-- midas_midas_var1d&#45;&gt;gridVariableTransforms_mod -->
<g id="edge17" class="edge">
<title>midas_midas_var1d&#45;&gt;gridVariableTransforms_mod</title>
<path fill="none" stroke="black" d="M837.14,-73.25C835.07,-72.82 833.02,-72.41 831,-72 765.43,-58.8 691.18,-45.13 634.62,-34.97"/>
<ellipse fill="black" stroke="black" cx="841.27" cy="-74.1" rx="4" ry="4"/>
</g>
<!-- midas_midas_var -->
<g id="node19" class="node">
<title>midas_midas_var</title>
<g id="a_node19"><a xlink:href="../programs/midas_var.html" xlink:title="midas_midas_var">
<polygon fill="gray" stroke="green" points="1057.5,-180 944.5,-180 944.5,-144 1057.5,-144 1057.5,-180"/>
<text text-anchor="middle" x="1001" y="-158.3" font-family="Times,serif" font-size="14.00">midas_midas_var</text>
</a>
</g>
</g>
<!-- midas_midas_var&#45;&gt;gridVariableTransforms_mod -->
<g id="edge18" class="edge">
<title>midas_midas_var&#45;&gt;gridVariableTransforms_mod</title>
<path fill="none" stroke="black" d="M1002.92,-135.57C1002.95,-115.33 999.35,-87.85 982,-72 956.87,-49.04 755.48,-32.41 634.71,-24.39"/>
<ellipse fill="black" stroke="black" cx="1002.82" cy="-139.75" rx="4" ry="4"/>
</g>
</g>
</svg>
