<?xml version="1.0" encoding="UTF-8" standalone="no"?>
<!DOCTYPE svg PUBLIC "-//W3C//DTD SVG 1.1//EN"
 "http://www.w3.org/Graphics/SVG/1.1/DTD/svg11.dtd">
<!-- Generated by graphviz version 3.0.0 (20220315.2325)
 -->
<!-- Title: gridStateVectorFileIO_mod Pages: 1 -->
<svg width="1867pt" height="673pt"
 viewBox="0.00 0.00 1867.00 673.00" xmlns="http://www.w3.org/2000/svg" xmlns:xlink="http://www.w3.org/1999/xlink">
<g id="graph0" class="graph" transform="scale(1 1) rotate(0) translate(4 669)">
<title>gridStateVectorFileIO_mod</title>
<polygon fill="white" stroke="transparent" points="-4,4 -4,-669 1863,-669 1863,4 -4,4"/>
<text text-anchor="middle" x="929.5" y="-649.8" font-family="Times,serif" font-size="14.00">Blue boxes indicate modules with reverse dependencies not shown</text>
<text text-anchor="middle" x="929.5" y="-634.8" font-family="Times,serif" font-size="14.00">Higher level reverse dependencies can be shown by clicking on a blue box</text>
<text text-anchor="middle" x="929.5" y="-619.8" font-family="Times,serif" font-size="14.00">Green boxes are programs</text>
<!-- gridStateVectorFileIO_mod -->
<g id="node1" class="node">
<title>gridStateVectorFileIO_mod</title>
<g id="a_node1"><a xlink:href="gridStateVectorFileIO_mod.html" xlink:title="gridStateVectorFileIO_mod">
<polygon fill="none" stroke="black" points="1002.5,-36 832.5,-36 832.5,0 1002.5,0 1002.5,-36"/>
<text text-anchor="middle" x="917.5" y="-14.3" font-family="Times,serif" font-size="14.00">gridStateVectorFileIO_mod</text>
</a>
</g>
</g>
<!-- advection_mod -->
<g id="node2" class="node">
<title>advection_mod</title>
<g id="a_node2"><a xlink:href="../modules/advection_mod_rev.svg" xlink:title="advection_mod">
<polygon fill="none" stroke="blue" points="101,-108 0,-108 0,-72 101,-72 101,-108"/>
<text text-anchor="middle" x="50.5" y="-86.3" font-family="Times,serif" font-size="14.00">advection_mod</text>
</a>
</g>
</g>
<!-- advection_mod&#45;&gt;gridStateVectorFileIO_mod -->
<g id="edge1" class="edge">
<title>advection_mod&#45;&gt;gridStateVectorFileIO_mod</title>
<path fill="none" stroke="black" d="M109.23,-73.11C111.34,-72.71 113.43,-72.34 115.5,-72 374.27,-30 685.18,-21.1 832.32,-19.34"/>
<ellipse fill="black" stroke="black" cx="104.96" cy="-73.98" rx="4" ry="4"/>
</g>
<!-- analysiserroroi_mod -->
<g id="node3" class="node">
<title>analysiserroroi_mod</title>
<g id="a_node3"><a xlink:href="../modules/analysiserroroi_mod_rev.svg" xlink:title="analysiserroroi_mod">
<polygon fill="none" stroke="blue" points="166,-180 37,-180 37,-144 166,-144 166,-180"/>
<text text-anchor="middle" x="101.5" y="-158.3" font-family="Times,serif" font-size="14.00">analysiserroroi_mod</text>
</a>
</g>
</g>
<!-- analysiserroroi_mod&#45;&gt;gridStateVectorFileIO_mod -->
<g id="edge2" class="edge">
<title>analysiserroroi_mod&#45;&gt;gridStateVectorFileIO_mod</title>
<path fill="none" stroke="black" d="M115.16,-137.16C128.75,-115.97 151.7,-86.21 180.5,-72 237.7,-43.78 650.81,-27.42 832.33,-21.52"/>
<ellipse fill="black" stroke="black" cx="113.03" cy="-140.59" rx="4" ry="4"/>
</g>
<!-- bgckocean_mod -->
<g id="node4" class="node">
<title>bgckocean_mod</title>
<g id="a_node4"><a xlink:href="../modules/bgckocean_mod_rev.svg" xlink:title="bgckocean_mod">
<polygon fill="none" stroke="blue" points="204.5,-252 98.5,-252 98.5,-216 204.5,-216 204.5,-252"/>
<text text-anchor="middle" x="151.5" y="-230.3" font-family="Times,serif" font-size="14.00">bgckocean_mod</text>
</a>
</g>
</g>
<!-- bgckocean_mod&#45;&gt;gridStateVectorFileIO_mod -->
<g id="edge3" class="edge">
<title>bgckocean_mod&#45;&gt;gridStateVectorFileIO_mod</title>
<path fill="none" stroke="black" d="M162.32,-208.39C166.2,-199.47 170.59,-189.3 174.5,-180 194.6,-132.22 176.61,-102.53 218.5,-72 267.06,-36.61 656.73,-24.28 832.29,-20.49"/>
<ellipse fill="black" stroke="black" cx="160.66" cy="-212.19" rx="4" ry="4"/>
</g>
<!-- biascorrectionsat_mod -->
<g id="node5" class="node">
<title>biascorrectionsat_mod</title>
<g id="a_node5"><a xlink:href="../modules/biascorrectionsat_mod_rev.svg" xlink:title="biascorrectionsat_mod">
<polygon fill="none" stroke="blue" points="242.5,-324 102.5,-324 102.5,-288 242.5,-288 242.5,-324"/>
<text text-anchor="middle" x="172.5" y="-302.3" font-family="Times,serif" font-size="14.00">biascorrectionsat_mod</text>
</a>
</g>
</g>
<!-- biascorrectionsat_mod&#45;&gt;gridStateVectorFileIO_mod -->
<g id="edge4" class="edge">
<title>biascorrectionsat_mod&#45;&gt;gridStateVectorFileIO_mod</title>
<path fill="none" stroke="black" d="M194.28,-281.32C201.3,-272.63 208.54,-262.37 213.5,-252 249.01,-177.81 194.03,-125.5 256.5,-72 299.32,-35.33 663.59,-23.75 832.33,-20.33"/>
<ellipse fill="black" stroke="black" cx="191.56" cy="-284.57" rx="4" ry="4"/>
</g>
<!-- bmatrix1dvar_mod -->
<g id="node6" class="node">
<title>bmatrix1dvar_mod</title>
<g id="a_node6"><a xlink:href="../modules/bmatrix1dvar_mod_rev.svg" xlink:title="bmatrix1dvar_mod">
<polygon fill="none" stroke="blue" points="280.5,-396 158.5,-396 158.5,-360 280.5,-360 280.5,-396"/>
<text text-anchor="middle" x="219.5" y="-374.3" font-family="Times,serif" font-size="14.00">bmatrix1dvar_mod</text>
</a>
</g>
</g>
<!-- bmatrix1dvar_mod&#45;&gt;gridStateVectorFileIO_mod -->
<g id="edge5" class="edge">
<title>bmatrix1dvar_mod&#45;&gt;gridStateVectorFileIO_mod</title>
<path fill="none" stroke="black" d="M236.52,-352.66C241.98,-343.95 247.61,-333.84 251.5,-324 266.38,-286.39 270.5,-275.45 270.5,-235 270.5,-235 270.5,-235 270.5,-161 270.5,-120.03 263.06,-98.27 294.5,-72 334.87,-38.26 671.41,-25.23 832.37,-20.89"/>
<ellipse fill="black" stroke="black" cx="234.19" cy="-356.26" rx="4" ry="4"/>
</g>
<!-- bmatrixdiff_mod -->
<g id="node7" class="node">
<title>bmatrixdiff_mod</title>
<g id="a_node7"><a xlink:href="../modules/bmatrixdiff_mod_rev.svg" xlink:title="bmatrixdiff_mod">
<polygon fill="none" stroke="blue" points="318.5,-468 208.5,-468 208.5,-432 318.5,-432 318.5,-468"/>
<text text-anchor="middle" x="263.5" y="-446.3" font-family="Times,serif" font-size="14.00">bmatrixdiff_mod</text>
</a>
</g>
</g>
<!-- bmatrixdiff_mod&#45;&gt;gridStateVectorFileIO_mod -->
<g id="edge6" class="edge">
<title>bmatrixdiff_mod&#45;&gt;gridStateVectorFileIO_mod</title>
<path fill="none" stroke="black" d="M277.1,-424.47C281.54,-415.69 286.18,-405.59 289.5,-396 302.73,-357.78 308.5,-347.45 308.5,-307 308.5,-307 308.5,-307 308.5,-161 308.5,-120.03 301.14,-98.36 332.5,-72 369.9,-40.57 679.09,-26.5 832.22,-21.41"/>
<ellipse fill="black" stroke="black" cx="275.13" cy="-428.25" rx="4" ry="4"/>
</g>
<!-- bmatrixensemble_mod -->
<g id="node8" class="node">
<title>bmatrixensemble_mod</title>
<g id="a_node8"><a xlink:href="../modules/bmatrixensemble_mod_rev.svg" xlink:title="bmatrixensemble_mod">
<polygon fill="none" stroke="blue" points="356,-540 213,-540 213,-504 356,-504 356,-540"/>
<text text-anchor="middle" x="284.5" y="-518.3" font-family="Times,serif" font-size="14.00">bmatrixensemble_mod</text>
</a>
</g>
</g>
<!-- bmatrixensemble_mod&#45;&gt;gridStateVectorFileIO_mod -->
<g id="edge7" class="edge">
<title>bmatrixensemble_mod&#45;&gt;gridStateVectorFileIO_mod</title>
<path fill="none" stroke="black" d="M307.3,-497.79C314.74,-489.07 322.4,-478.67 327.5,-468 344.95,-431.51 346.5,-419.45 346.5,-379 346.5,-379 346.5,-379 346.5,-161 346.5,-120.03 339.22,-98.46 370.5,-72 404.97,-42.85 687.41,-27.83 832.36,-21.99"/>
<ellipse fill="black" stroke="black" cx="304.6" cy="-500.84" rx="4" ry="4"/>
</g>
<!-- calcstatsglb_mod -->
<g id="node9" class="node">
<title>calcstatsglb_mod</title>
<g id="a_node9"><a xlink:href="../modules/calcstatsglb_mod_rev.svg" xlink:title="calcstatsglb_mod">
<polygon fill="none" stroke="blue" points="440,-612 329,-612 329,-576 440,-576 440,-612"/>
<text text-anchor="middle" x="384.5" y="-590.3" font-family="Times,serif" font-size="14.00">calcstatsglb_mod</text>
</a>
</g>
</g>
<!-- calcstatsglb_mod&#45;&gt;gridStateVectorFileIO_mod -->
<g id="edge8" class="edge">
<title>calcstatsglb_mod&#45;&gt;gridStateVectorFileIO_mod</title>
<path fill="none" stroke="black" d="M384.5,-567.78C384.5,-539.39 384.5,-491.89 384.5,-451 384.5,-451 384.5,-451 384.5,-161 384.5,-120.46 374.19,-98.93 404.5,-72 435.77,-44.22 694.75,-28.75 832.33,-22.43"/>
<ellipse fill="black" stroke="black" cx="384.5" cy="-571.95" rx="4" ry="4"/>
</g>
<!-- calcstatslam_mod -->
<g id="node10" class="node">
<title>calcstatslam_mod</title>
<g id="a_node10"><a xlink:href="../modules/calcstatslam_mod_rev.svg" xlink:title="calcstatslam_mod">
<polygon fill="none" stroke="blue" points="528,-108 413,-108 413,-72 528,-72 528,-108"/>
<text text-anchor="middle" x="470.5" y="-86.3" font-family="Times,serif" font-size="14.00">calcstatslam_mod</text>
</a>
</g>
</g>
<!-- calcstatslam_mod&#45;&gt;gridStateVectorFileIO_mod -->
<g id="edge9" class="edge">
<title>calcstatslam_mod&#45;&gt;gridStateVectorFileIO_mod</title>
<path fill="none" stroke="black" d="M536.29,-73.21C538.38,-72.79 540.46,-72.38 542.5,-72 641.36,-53.38 756,-38.09 832.24,-28.79"/>
<ellipse fill="black" stroke="black" cx="532.09" cy="-74.08" rx="4" ry="4"/>
</g>
<!-- diffusion_mod -->
<g id="node11" class="node">
<title>diffusion_mod</title>
<g id="a_node11"><a xlink:href="../modules/diffusion_mod_rev.svg" xlink:title="diffusion_mod">
<polygon fill="none" stroke="blue" points="566.5,-180 470.5,-180 470.5,-144 566.5,-144 566.5,-180"/>
<text text-anchor="middle" x="518.5" y="-158.3" font-family="Times,serif" font-size="14.00">diffusion_mod</text>
</a>
</g>
</g>
<!-- diffusion_mod&#45;&gt;gridStateVectorFileIO_mod -->
<g id="edge10" class="edge">
<title>diffusion_mod&#45;&gt;gridStateVectorFileIO_mod</title>
<path fill="none" stroke="black" d="M528.94,-136.24C539.01,-115.57 556.3,-87.15 580.5,-72 621.36,-46.43 746.47,-31.95 832.19,-24.8"/>
<ellipse fill="black" stroke="black" cx="527.13" cy="-140.11" rx="4" ry="4"/>
</g>
<!-- ensemblestatevector_mod -->
<g id="node12" class="node">
<title>ensemblestatevector_mod</title>
<g id="a_node12"><a xlink:href="../modules/ensemblestatevector_mod_rev.svg" xlink:title="ensemblestatevector_mod">
<polygon fill="none" stroke="blue" points="604.5,-252 446.5,-252 446.5,-216 604.5,-216 604.5,-252"/>
<text text-anchor="middle" x="525.5" y="-230.3" font-family="Times,serif" font-size="14.00">ensemblestatevector_mod</text>
</a>
</g>
</g>
<!-- ensemblestatevector_mod&#45;&gt;gridStateVectorFileIO_mod -->
<g id="edge11" class="edge">
<title>ensemblestatevector_mod&#45;&gt;gridStateVectorFileIO_mod</title>
<path fill="none" stroke="black" d="M550.8,-210.02C559.45,-201.24 568.65,-190.75 575.5,-180 603.28,-136.44 578.45,-104.63 618.5,-72 650.58,-45.86 755.77,-31.85 832.33,-24.92"/>
<ellipse fill="black" stroke="black" cx="547.79" cy="-213" rx="4" ry="4"/>
</g>
<!-- enspostprocess_mod -->
<g id="node13" class="node">
<title>enspostprocess_mod</title>
<g id="a_node13"><a xlink:href="../modules/enspostprocess_mod_rev.svg" xlink:title="enspostprocess_mod">
<polygon fill="none" stroke="blue" points="642,-324 513,-324 513,-288 642,-288 642,-324"/>
<text text-anchor="middle" x="577.5" y="-302.3" font-family="Times,serif" font-size="14.00">enspostprocess_mod</text>
</a>
</g>
</g>
<!-- enspostprocess_mod&#45;&gt;gridStateVectorFileIO_mod -->
<g id="edge12" class="edge">
<title>enspostprocess_mod&#45;&gt;gridStateVectorFileIO_mod</title>
<path fill="none" stroke="black" d="M596.42,-281.13C602.61,-272.37 609.04,-262.12 613.5,-252 646.71,-176.75 597.36,-129.16 656.5,-72 681.35,-47.98 766.19,-33.94 832.47,-26.42"/>
<ellipse fill="black" stroke="black" cx="593.9" cy="-284.57" rx="4" ry="4"/>
</g>
<!-- fsoi_mod -->
<g id="node14" class="node">
<title>fsoi_mod</title>
<g id="a_node14"><a xlink:href="../modules/fsoi_mod_rev.svg" xlink:title="fsoi_mod">
<polygon fill="none" stroke="blue" points="680.5,-396 612.5,-396 612.5,-360 680.5,-360 680.5,-396"/>
<text text-anchor="middle" x="646.5" y="-374.3" font-family="Times,serif" font-size="14.00">fsoi_mod</text>
</a>
</g>
</g>
<!-- fsoi_mod&#45;&gt;gridStateVectorFileIO_mod -->
<g id="edge13" class="edge">
<title>fsoi_mod&#45;&gt;gridStateVectorFileIO_mod</title>
<path fill="none" stroke="black" d="M653.36,-351.9C660.45,-323.69 670.5,-276.42 670.5,-235 670.5,-235 670.5,-235 670.5,-161 670.5,-120.03 665.1,-100.53 694.5,-72 714.31,-52.77 778.16,-38.82 832.48,-30.07"/>
<ellipse fill="black" stroke="black" cx="652.35" cy="-355.8" rx="4" ry="4"/>
</g>
<!-- gridbinning_mod -->
<g id="node15" class="node">
<title>gridbinning_mod</title>
<g id="a_node15"><a xlink:href="../modules/gridbinning_mod_rev.svg" xlink:title="gridbinning_mod">
<polygon fill="none" stroke="blue" points="718,-468 605,-468 605,-432 718,-432 718,-468"/>
<text text-anchor="middle" x="661.5" y="-446.3" font-family="Times,serif" font-size="14.00">gridbinning_mod</text>
</a>
</g>
</g>
<!-- gridbinning_mod&#45;&gt;gridStateVectorFileIO_mod -->
<g id="edge14" class="edge">
<title>gridbinning_mod&#45;&gt;gridStateVectorFileIO_mod</title>
<path fill="none" stroke="black" d="M676.07,-424.84C680.9,-416.01 685.95,-405.78 689.5,-396 703.3,-357.98 708.5,-347.45 708.5,-307 708.5,-307 708.5,-307 708.5,-161 708.5,-120.03 703.76,-101.19 732.5,-72 758.63,-45.45 797.1,-31.98 832.19,-25.22"/>
<ellipse fill="black" stroke="black" cx="674.06" cy="-428.41" rx="4" ry="4"/>
</g>
<!-- gridvariabletransforms_mod -->
<g id="node16" class="node">
<title>gridvariabletransforms_mod</title>
<g id="a_node16"><a xlink:href="../modules/gridvariabletransforms_mod_rev.svg" xlink:title="gridvariabletransforms_mod">
<polygon fill="none" stroke="blue" points="756,-540 581,-540 581,-504 756,-504 756,-540"/>
<text text-anchor="middle" x="668.5" y="-518.3" font-family="Times,serif" font-size="14.00">gridvariabletransforms_mod</text>
</a>
</g>
</g>
<!-- gridvariabletransforms_mod&#45;&gt;gridStateVectorFileIO_mod -->
<g id="edge15" class="edge">
<title>gridvariabletransforms_mod&#45;&gt;gridStateVectorFileIO_mod</title>
<path fill="none" stroke="black" d="M700.29,-498.84C710.4,-490.3 720.7,-479.74 727.5,-468 747.76,-432.99 746.5,-419.45 746.5,-379 746.5,-379 746.5,-379 746.5,-161 746.5,-120.03 742.75,-102.14 770.5,-72 786.85,-54.24 809.6,-42.42 832.32,-34.56"/>
<ellipse fill="black" stroke="black" cx="697.16" cy="-501.38" rx="4" ry="4"/>
</g>
<!-- increment_mod -->
<g id="node17" class="node">
<title>increment_mod</title>
<g id="a_node17"><a xlink:href="../modules/increment_mod_rev.svg" xlink:title="increment_mod">
<polygon fill="none" stroke="blue" points="836,-612 733,-612 733,-576 836,-576 836,-612"/>
<text text-anchor="middle" x="784.5" y="-590.3" font-family="Times,serif" font-size="14.00">increment_mod</text>
</a>
</g>
</g>
<!-- increment_mod&#45;&gt;gridStateVectorFileIO_mod -->
<g id="edge16" class="edge">
<title>increment_mod&#45;&gt;gridStateVectorFileIO_mod</title>
<path fill="none" stroke="black" d="M784.5,-567.78C784.5,-539.39 784.5,-491.89 784.5,-451 784.5,-451 784.5,-451 784.5,-161 784.5,-120.55 778.29,-103.63 803.5,-72 816.56,-55.62 835.86,-44.07 854.88,-36.03"/>
<ellipse fill="black" stroke="black" cx="784.5" cy="-571.95" rx="4" ry="4"/>
</g>
<!-- minimization_mod -->
<g id="node18" class="node">
<title>minimization_mod</title>
<g id="a_node18"><a xlink:href="../modules/minimization_mod_rev.svg" xlink:title="minimization_mod">
<polygon fill="none" stroke="blue" points="934.5,-108 812.5,-108 812.5,-72 934.5,-72 934.5,-108"/>
<text text-anchor="middle" x="873.5" y="-86.3" font-family="Times,serif" font-size="14.00">minimization_mod</text>
</a>
</g>
</g>
<!-- minimization_mod&#45;&gt;gridStateVectorFileIO_mod -->
<g id="edge17" class="edge">
<title>minimization_mod&#45;&gt;gridStateVectorFileIO_mod</title>
<path fill="none" stroke="black" d="M888.74,-64.76C894.67,-55.32 901.33,-44.72 906.75,-36.1"/>
<ellipse fill="black" stroke="black" cx="886.51" cy="-68.31" rx="4" ry="4"/>
</g>
<!-- obserrors_mod -->
<g id="node19" class="node">
<title>obserrors_mod</title>
<g id="a_node19"><a xlink:href="../modules/obserrors_mod_rev.svg" xlink:title="obserrors_mod">
<polygon fill="none" stroke="blue" points="972,-180 873,-180 873,-144 972,-144 972,-180"/>
<text text-anchor="middle" x="922.5" y="-158.3" font-family="Times,serif" font-size="14.00">obserrors_mod</text>
</a>
</g>
</g>
<!-- obserrors_mod&#45;&gt;gridStateVectorFileIO_mod -->
<g id="edge18" class="edge">
<title>obserrors_mod&#45;&gt;gridStateVectorFileIO_mod</title>
<path fill="none" stroke="black" d="M934.55,-136.24C938.18,-127.53 941.68,-117.53 943.5,-108 946.5,-92.28 947.12,-87.59 943.5,-72 940.58,-59.42 934.24,-46.38 928.55,-36.39"/>
<ellipse fill="black" stroke="black" cx="932.82" cy="-140.17" rx="4" ry="4"/>
</g>
<!-- oceanbackground_mod -->
<g id="node20" class="node">
<title>oceanbackground_mod</title>
<g id="a_node20"><a xlink:href="../modules/oceanbackground_mod_rev.svg" xlink:title="oceanbackground_mod">
<polygon fill="none" stroke="blue" points="1010.5,-252 866.5,-252 866.5,-216 1010.5,-216 1010.5,-252"/>
<text text-anchor="middle" x="938.5" y="-230.3" font-family="Times,serif" font-size="14.00">oceanbackground_mod</text>
</a>
</g>
</g>
<!-- oceanbackground_mod&#45;&gt;gridStateVectorFileIO_mod -->
<g id="edge19" class="edge">
<title>oceanbackground_mod&#45;&gt;gridStateVectorFileIO_mod</title>
<path fill="none" stroke="black" d="M962.95,-209.91C970.38,-201.31 977.61,-190.96 981.5,-180 986.85,-164.92 983.96,-159.81 981.5,-144 976.33,-110.81 974.13,-101.74 958.5,-72 951.68,-59.02 941.64,-45.98 933.21,-36.08"/>
<ellipse fill="black" stroke="black" cx="960.23" cy="-212.88" rx="4" ry="4"/>
</g>
<!-- oceanobservations_mod -->
<g id="node21" class="node">
<title>oceanobservations_mod</title>
<g id="a_node21"><a xlink:href="../modules/oceanobservations_mod_rev.svg" xlink:title="oceanobservations_mod">
<polygon fill="none" stroke="blue" points="1049,-324 900,-324 900,-288 1049,-288 1049,-324"/>
<text text-anchor="middle" x="974.5" y="-302.3" font-family="Times,serif" font-size="14.00">oceanobservations_mod</text>
</a>
</g>
</g>
<!-- oceanobservations_mod&#45;&gt;gridStateVectorFileIO_mod -->
<g id="edge20" class="edge">
<title>oceanobservations_mod&#45;&gt;gridStateVectorFileIO_mod</title>
<path fill="none" stroke="black" d="M1000.67,-281.42C1008.24,-272.97 1015.52,-262.83 1019.5,-252 1025.02,-236.98 1021.66,-231.85 1019.5,-216 1010.53,-150.19 1015.19,-128.02 979.5,-72 970.45,-57.79 956.41,-45.34 943.99,-36.08"/>
<ellipse fill="black" stroke="black" cx="997.63" cy="-284.63" rx="4" ry="4"/>
</g>
<!-- ominusf_mod -->
<g id="node22" class="node">
<title>ominusf_mod</title>
<g id="a_node22"><a xlink:href="../modules/ominusf_mod_rev.svg" xlink:title="ominusf_mod">
<polygon fill="none" stroke="blue" points="1086,-396 993,-396 993,-360 1086,-360 1086,-396"/>
<text text-anchor="middle" x="1039.5" y="-374.3" font-family="Times,serif" font-size="14.00">ominusf_mod</text>
</a>
</g>
</g>
<!-- ominusf_mod&#45;&gt;gridStateVectorFileIO_mod -->
<g id="edge21" class="edge">
<title>ominusf_mod&#45;&gt;gridStateVectorFileIO_mod</title>
<path fill="none" stroke="black" d="M1050.07,-352.19C1061.01,-324.24 1076.5,-277.2 1076.5,-235 1076.5,-235 1076.5,-235 1076.5,-161 1076.5,-99.19 1008.84,-57.6 961.79,-36.14"/>
<ellipse fill="black" stroke="black" cx="1048.48" cy="-356.17" rx="4" ry="4"/>
</g>
<!-- sstbias_mod -->
<g id="node23" class="node">
<title>sstbias_mod</title>
<g id="a_node23"><a xlink:href="../modules/sstbias_mod_rev.svg" xlink:title="sstbias_mod">
<polygon fill="none" stroke="blue" points="1124.5,-468 1040.5,-468 1040.5,-432 1124.5,-432 1124.5,-468"/>
<text text-anchor="middle" x="1082.5" y="-446.3" font-family="Times,serif" font-size="14.00">sstbias_mod</text>
</a>
</g>
</g>
<!-- sstbias_mod&#45;&gt;gridStateVectorFileIO_mod -->
<g id="edge22" class="edge">
<title>sstbias_mod&#45;&gt;gridStateVectorFileIO_mod</title>
<path fill="none" stroke="black" d="M1091.64,-424.06C1101.1,-396 1114.5,-348.86 1114.5,-307 1114.5,-307 1114.5,-307 1114.5,-161 1114.5,-94.18 1038.98,-55.67 981.46,-36.02"/>
<ellipse fill="black" stroke="black" cx="1090.28" cy="-428.01" rx="4" ry="4"/>
</g>
<!-- thinning_mod -->
<g id="node24" class="node">
<title>thinning_mod</title>
<g id="a_node24"><a xlink:href="../modules/thinning_mod_rev.svg" xlink:title="thinning_mod">
<polygon fill="none" stroke="blue" points="1162,-540 1069,-540 1069,-504 1162,-504 1162,-540"/>
<text text-anchor="middle" x="1115.5" y="-518.3" font-family="Times,serif" font-size="14.00">thinning_mod</text>
</a>
</g>
</g>
<!-- thinning_mod&#45;&gt;gridStateVectorFileIO_mod -->
<g id="edge23" class="edge">
<title>thinning_mod&#45;&gt;gridStateVectorFileIO_mod</title>
<path fill="none" stroke="black" d="M1126.07,-496.19C1137.01,-468.24 1152.5,-421.2 1152.5,-379 1152.5,-379 1152.5,-379 1152.5,-161 1152.5,-88.66 1069.93,-52.19 1002.67,-34.48"/>
<ellipse fill="black" stroke="black" cx="1124.48" cy="-500.17" rx="4" ry="4"/>
</g>
<!-- midas_midas_diagbmatrix -->
<g id="node25" class="node">
<title>midas_midas_diagbmatrix</title>
<g id="a_node25"><a xlink:href="../programs/midas_diagbmatrix.html" xlink:title="midas_midas_diagbmatrix">
<polygon fill="gray" stroke="green" points="1272,-612 1109,-612 1109,-576 1272,-576 1272,-612"/>
<text text-anchor="middle" x="1190.5" y="-590.3" font-family="Times,serif" font-size="14.00">midas_midas_diagbmatrix</text>
</a>
</g>
</g>
<!-- midas_midas_diagbmatrix&#45;&gt;gridStateVectorFileIO_mod -->
<g id="edge24" class="edge">
<title>midas_midas_diagbmatrix&#45;&gt;gridStateVectorFileIO_mod</title>
<path fill="none" stroke="black" d="M1190.5,-567.78C1190.5,-539.39 1190.5,-491.89 1190.5,-451 1190.5,-451 1190.5,-451 1190.5,-161 1190.5,-75.12 1082.86,-41.1 1002.76,-27.68"/>
<ellipse fill="black" stroke="black" cx="1190.5" cy="-571.95" rx="4" ry="4"/>
</g>
<!-- midas_midas_diaghbht -->
<g id="node26" class="node">
<title>midas_midas_diaghbht</title>
<g id="a_node26"><a xlink:href="../programs/midas_diaghbht.html" xlink:title="midas_midas_diaghbht">
<polygon fill="gray" stroke="green" points="1362,-108 1219,-108 1219,-72 1362,-72 1362,-108"/>
<text text-anchor="middle" x="1290.5" y="-86.3" font-family="Times,serif" font-size="14.00">midas_midas_diaghbht</text>
</a>
</g>
</g>
<!-- midas_midas_diaghbht&#45;&gt;gridStateVectorFileIO_mod -->
<g id="edge25" class="edge">
<title>midas_midas_diaghbht&#45;&gt;gridStateVectorFileIO_mod</title>
<path fill="none" stroke="black" d="M1210.65,-73.18C1208.58,-72.78 1206.53,-72.39 1204.5,-72 1136.69,-59.04 1059.76,-44.86 1002.63,-34.43"/>
<ellipse fill="black" stroke="black" cx="1214.79" cy="-73.98" rx="4" ry="4"/>
</g>
<!-- midas_midas_ensembleh -->
<g id="node27" class="node">
<title>midas_midas_ensembleh</title>
<g id="a_node27"><a xlink:href="../programs/midas_ensembleh.html" xlink:title="midas_midas_ensembleh">
<polygon fill="gray" stroke="green" points="1400,-180 1245,-180 1245,-144 1400,-144 1400,-180"/>
<text text-anchor="middle" x="1322.5" y="-158.3" font-family="Times,serif" font-size="14.00">midas_midas_ensembleh</text>
</a>
</g>
</g>
<!-- midas_midas_ensembleh&#45;&gt;gridStateVectorFileIO_mod -->
<g id="edge26" class="edge">
<title>midas_midas_ensembleh&#45;&gt;gridStateVectorFileIO_mod</title>
<path fill="none" stroke="black" d="M1349.62,-138.19C1369.13,-119.08 1389.14,-91.82 1371.5,-72 1347.45,-44.97 1127.25,-29.56 1002.59,-22.92"/>
<ellipse fill="black" stroke="black" cx="1346.54" cy="-141.1" rx="4" ry="4"/>
</g>
<!-- midas_midas_enspostprocess -->
<g id="node28" class="node">
<title>midas_midas_enspostprocess</title>
<g id="a_node28"><a xlink:href="../programs/midas_enspostprocess.html" xlink:title="midas_midas_enspostprocess">
<polygon fill="gray" stroke="green" points="1439,-252 1262,-252 1262,-216 1439,-216 1439,-252"/>
<text text-anchor="middle" x="1350.5" y="-230.3" font-family="Times,serif" font-size="14.00">midas_midas_enspostprocess</text>
</a>
</g>
</g>
<!-- midas_midas_enspostprocess&#45;&gt;gridStateVectorFileIO_mod -->
<g id="edge27" class="edge">
<title>midas_midas_enspostprocess&#45;&gt;gridStateVectorFileIO_mod</title>
<path fill="none" stroke="black" d="M1384.79,-210.7C1394.64,-202.36 1404.16,-191.97 1409.5,-180 1429.41,-135.34 1425.91,-103.48 1388.5,-72 1359.64,-47.71 1130.45,-31.02 1002.74,-23.51"/>
<ellipse fill="black" stroke="black" cx="1381.43" cy="-213.38" rx="4" ry="4"/>
</g>
<!-- midas_midas_gencoeff -->
<g id="node29" class="node">
<title>midas_midas_gencoeff</title>
<g id="a_node29"><a xlink:href="../programs/midas_gencoeff.html" xlink:title="midas_midas_gencoeff">
<polygon fill="gray" stroke="green" points="1476,-324 1333,-324 1333,-288 1476,-288 1476,-324"/>
<text text-anchor="middle" x="1404.5" y="-302.3" font-family="Times,serif" font-size="14.00">midas_midas_gencoeff</text>
</a>
</g>
</g>
<!-- midas_midas_gencoeff&#45;&gt;gridStateVectorFileIO_mod -->
<g id="edge28" class="edge">
<title>midas_midas_gencoeff&#45;&gt;gridStateVectorFileIO_mod</title>
<path fill="none" stroke="black" d="M1429.51,-282C1437.11,-273.41 1444.51,-263.04 1448.5,-252 1468.41,-196.84 1451.96,-103.67 1416.5,-72 1386.31,-45.03 1136.89,-29.29 1002.52,-22.68"/>
<ellipse fill="black" stroke="black" cx="1426.7" cy="-284.99" rx="4" ry="4"/>
</g>
<!-- midas_midas_letkf -->
<g id="node30" class="node">
<title>midas_midas_letkf</title>
<g id="a_node30"><a xlink:href="../programs/midas_letkf.html" xlink:title="midas_midas_letkf">
<polygon fill="gray" stroke="green" points="1514.5,-396 1392.5,-396 1392.5,-360 1514.5,-360 1514.5,-396"/>
<text text-anchor="middle" x="1453.5" y="-374.3" font-family="Times,serif" font-size="14.00">midas_midas_letkf</text>
</a>
</g>
</g>
<!-- midas_midas_letkf&#45;&gt;gridStateVectorFileIO_mod -->
<g id="edge29" class="edge">
<title>midas_midas_letkf&#45;&gt;gridStateVectorFileIO_mod</title>
<path fill="none" stroke="black" d="M1470.52,-352.66C1475.98,-343.95 1481.61,-333.84 1485.5,-324 1500.38,-286.39 1504.5,-275.45 1504.5,-235 1504.5,-235 1504.5,-235 1504.5,-161 1504.5,-112.54 1483.37,-96.41 1441.5,-72 1369.07,-29.78 1131.54,-20.85 1002.6,-19.18"/>
<ellipse fill="black" stroke="black" cx="1468.19" cy="-356.26" rx="4" ry="4"/>
</g>
<!-- midas_midas_obsimpact -->
<g id="node31" class="node">
<title>midas_midas_obsimpact</title>
<g id="a_node31"><a xlink:href="../programs/midas_obsimpact.html" xlink:title="midas_midas_obsimpact">
<polygon fill="gray" stroke="green" points="1552.5,-468 1400.5,-468 1400.5,-432 1552.5,-432 1552.5,-468"/>
<text text-anchor="middle" x="1476.5" y="-446.3" font-family="Times,serif" font-size="14.00">midas_midas_obsimpact</text>
</a>
</g>
</g>
<!-- midas_midas_obsimpact&#45;&gt;gridStateVectorFileIO_mod -->
<g id="edge30" class="edge">
<title>midas_midas_obsimpact&#45;&gt;gridStateVectorFileIO_mod</title>
<path fill="none" stroke="black" d="M1501.86,-425.69C1509.87,-417.08 1518.05,-406.78 1523.5,-396 1541.74,-359.9 1542.5,-347.45 1542.5,-307 1542.5,-307 1542.5,-307 1542.5,-161 1542.5,-112.28 1520.76,-96.24 1478.5,-72 1399.58,-26.73 1139.19,-19.27 1002.69,-18.57"/>
<ellipse fill="black" stroke="black" cx="1498.87" cy="-428.77" rx="4" ry="4"/>
</g>
<!-- midas_midas_obsselection -->
<g id="node32" class="node">
<title>midas_midas_obsselection</title>
<g id="a_node32"><a xlink:href="../programs/midas_obsselection.html" xlink:title="midas_midas_obsselection">
<polygon fill="gray" stroke="green" points="1590,-540 1427,-540 1427,-504 1590,-504 1590,-540"/>
<text text-anchor="middle" x="1508.5" y="-518.3" font-family="Times,serif" font-size="14.00">midas_midas_obsselection</text>
</a>
</g>
</g>
<!-- midas_midas_obsselection&#45;&gt;gridStateVectorFileIO_mod -->
<g id="edge31" class="edge">
<title>midas_midas_obsselection&#45;&gt;gridStateVectorFileIO_mod</title>
<path fill="none" stroke="black" d="M1536.84,-498.49C1545.98,-489.86 1555.33,-479.35 1561.5,-468 1580.82,-432.46 1580.5,-419.45 1580.5,-379 1580.5,-379 1580.5,-379 1580.5,-161 1580.5,-112.02 1558.15,-96.09 1515.5,-72 1430.03,-23.72 1146.55,-17.79 1002.75,-18.03"/>
<ellipse fill="black" stroke="black" cx="1533.86" cy="-501.18" rx="4" ry="4"/>
</g>
<!-- midas_midas_randompert -->
<g id="node33" class="node">
<title>midas_midas_randompert</title>
<g id="a_node33"><a xlink:href="../programs/midas_randompert.html" xlink:title="midas_midas_randompert">
<polygon fill="gray" stroke="green" points="1698,-612 1539,-612 1539,-576 1698,-576 1698,-612"/>
<text text-anchor="middle" x="1618.5" y="-590.3" font-family="Times,serif" font-size="14.00">midas_midas_randompert</text>
</a>
</g>
</g>
<!-- midas_midas_randompert&#45;&gt;gridStateVectorFileIO_mod -->
<g id="edge32" class="edge">
<title>midas_midas_randompert&#45;&gt;gridStateVectorFileIO_mod</title>
<path fill="none" stroke="black" d="M1618.5,-567.78C1618.5,-539.39 1618.5,-491.89 1618.5,-451 1618.5,-451 1618.5,-451 1618.5,-161 1618.5,-112.02 1596.21,-95.98 1553.5,-72 1506.61,-45.68 1165.12,-28.8 1002.78,-22.18"/>
<ellipse fill="black" stroke="black" cx="1618.5" cy="-571.95" rx="4" ry="4"/>
</g>
<!-- midas_midas_var1d -->
<g id="node34" class="node">
<title>midas_midas_var1d</title>
<g id="a_node34"><a xlink:href="../programs/midas_var1d.html" xlink:title="midas_midas_var1d">
<polygon fill="gray" stroke="green" points="1774,-108 1647,-108 1647,-72 1774,-72 1774,-108"/>
<text text-anchor="middle" x="1710.5" y="-86.3" font-family="Times,serif" font-size="14.00">midas_midas_var1d</text>
</a>
</g>
</g>
<!-- midas_midas_var1d&#45;&gt;gridStateVectorFileIO_mod -->
<g id="edge33" class="edge">
<title>midas_midas_var1d&#45;&gt;gridStateVectorFileIO_mod</title>
<path fill="none" stroke="black" d="M1638.69,-72.95C1636.61,-72.62 1634.54,-72.3 1632.5,-72 1406.47,-39.16 1137.11,-26.17 1002.67,-21.44"/>
<ellipse fill="black" stroke="black" cx="1642.84" cy="-73.67" rx="4" ry="4"/>
</g>
<!-- midas_midas_var -->
<g id="node35" class="node">
<title>midas_midas_var</title>
<g id="a_node35"><a xlink:href="../programs/midas_var.html" xlink:title="midas_midas_var">
<polygon fill="gray" stroke="green" points="1859,-180 1746,-180 1746,-144 1859,-144 1859,-180"/>
<text text-anchor="middle" x="1802.5" y="-158.3" font-family="Times,serif" font-size="14.00">midas_midas_var</text>
</a>
</g>
</g>
<!-- midas_midas_var&#45;&gt;gridStateVectorFileIO_mod -->
<g id="edge34" class="edge">
<title>midas_midas_var&#45;&gt;gridStateVectorFileIO_mod</title>
<path fill="none" stroke="black" d="M1804.66,-135.66C1804.88,-115.22 1801.42,-87.42 1783.5,-72 1725.25,-21.85 1209.3,-17.98 1002.59,-18.47"/>
<ellipse fill="black" stroke="black" cx="1804.52" cy="-139.91" rx="4" ry="4"/>
</g>
</g>
</svg>
