<?xml version="1.0" encoding="UTF-8" standalone="no"?>
<!DOCTYPE svg PUBLIC "-//W3C//DTD SVG 1.1//EN"
 "http://www.w3.org/Graphics/SVG/1.1/DTD/svg11.dtd">
<!-- Generated by graphviz version 3.0.0 (20220315.2325)
 -->
<!-- Title: gridStateVectorFileIO_mod Pages: 1 -->
<svg width="775pt" height="673pt"
 viewBox="0.00 0.00 774.50 673.00" xmlns="http://www.w3.org/2000/svg" xmlns:xlink="http://www.w3.org/1999/xlink">
<g id="graph0" class="graph" transform="scale(1 1) rotate(0) translate(4 669)">
<title>gridStateVectorFileIO_mod</title>
<polygon fill="white" stroke="transparent" points="-4,4 -4,-669 770.5,-669 770.5,4 -4,4"/>
<text text-anchor="middle" x="383.25" y="-37.8" font-family="Times,serif" font-size="14.00">Red boxes indicate modules with dependencies not shown</text>
<text text-anchor="middle" x="383.25" y="-22.8" font-family="Times,serif" font-size="14.00">Lower level dependencies can be shown by clicking on a red box</text>
<text text-anchor="middle" x="383.25" y="-7.8" font-family="Times,serif" font-size="14.00">Shaded boxes indicate modules with no dependencies</text>
<!-- gridStateVectorFileIO_mod -->
<g id="node1" class="node">
<title>gridStateVectorFileIO_mod</title>
<g id="a_node1"><a xlink:href="gridStateVectorFileIO_mod.html" xlink:title="gridStateVectorFileIO_mod">
<polygon fill="none" stroke="black" points="434.5,-665 264.5,-665 264.5,-629 434.5,-629 434.5,-665"/>
<text text-anchor="middle" x="349.5" y="-643.3" font-family="Times,serif" font-size="14.00">gridStateVectorFileIO_mod</text>
</a>
</g>
</g>
<!-- codeprecision_mod -->
<g id="node2" class="node">
<title>codeprecision_mod</title>
<g id="a_node2"><a xlink:href="codeprecision_mod.html" xlink:title="codeprecision_mod">
<polygon fill="gray" stroke="black" points="123,-593 0,-593 0,-557 123,-557 123,-593"/>
<text text-anchor="middle" x="61.5" y="-571.3" font-family="Times,serif" font-size="14.00">codeprecision_mod</text>
</a>
</g>
</g>
<!-- gridStateVectorFileIO_mod&#45;&gt;codeprecision_mod -->
<g id="edge1" class="edge">
<title>gridStateVectorFileIO_mod&#45;&gt;codeprecision_mod</title>
<path fill="none" stroke="black" d="M279.42,-628.97C234.99,-618.17 177.69,-604.24 132.99,-593.38"/>
<polygon fill="black" stroke="black" points="133.62,-589.93 123.08,-590.97 131.97,-596.73 133.62,-589.93"/>
</g>
<!-- gridstatevector_mod -->
<g id="node3" class="node">
<title>gridstatevector_mod</title>
<g id="a_node3"><a xlink:href="../modules/gridstatevector_mod.svg" xlink:title="gridstatevector_mod">
<polygon fill="none" stroke="red" points="188.5,-521 58.5,-521 58.5,-485 188.5,-485 188.5,-521"/>
<text text-anchor="middle" x="123.5" y="-499.3" font-family="Times,serif" font-size="14.00">gridstatevector_mod</text>
</a>
</g>
</g>
<!-- gridStateVectorFileIO_mod&#45;&gt;gridstatevector_mod -->
<g id="edge2" class="edge">
<title>gridStateVectorFileIO_mod&#45;&gt;gridstatevector_mod</title>
<path fill="none" stroke="black" d="M280.65,-628.99C254.77,-620.65 225.97,-608.9 202.5,-593 177.32,-575.94 154.97,-549.07 140.53,-529.31"/>
<polygon fill="black" stroke="black" points="143.31,-527.18 134.65,-521.06 137.61,-531.24 143.31,-527.18"/>
</g>
<!-- horizontalcoord_mod -->
<g id="node4" class="node">
<title>horizontalcoord_mod</title>
<g id="a_node4"><a xlink:href="../modules/horizontalcoord_mod.svg" xlink:title="horizontalcoord_mod">
<polygon fill="none" stroke="red" points="226.5,-449 92.5,-449 92.5,-413 226.5,-413 226.5,-449"/>
<text text-anchor="middle" x="159.5" y="-427.3" font-family="Times,serif" font-size="14.00">horizontalcoord_mod</text>
</a>
</g>
</g>
<!-- gridStateVectorFileIO_mod&#45;&gt;horizontalcoord_mod -->
<g id="edge3" class="edge">
<title>gridStateVectorFileIO_mod&#45;&gt;horizontalcoord_mod</title>
<path fill="none" stroke="black" d="M295.32,-628.97C275.98,-620.67 255.32,-608.96 240.5,-593 205.34,-555.15 222.29,-530.33 197.5,-485 192.37,-475.61 185.84,-465.93 179.66,-457.46"/>
<polygon fill="black" stroke="black" points="182.45,-455.34 173.65,-449.44 176.85,-459.54 182.45,-455.34"/>
</g>
<!-- interpolation_mod -->
<g id="node5" class="node">
<title>interpolation_mod</title>
<g id="a_node5"><a xlink:href="../modules/interpolation_mod.svg" xlink:title="interpolation_mod">
<polygon fill="none" stroke="red" points="264.5,-377 146.5,-377 146.5,-341 264.5,-341 264.5,-377"/>
<text text-anchor="middle" x="205.5" y="-355.3" font-family="Times,serif" font-size="14.00">interpolation_mod</text>
</a>
</g>
</g>
<!-- gridStateVectorFileIO_mod&#45;&gt;interpolation_mod -->
<g id="edge4" class="edge">
<title>gridStateVectorFileIO_mod&#45;&gt;interpolation_mod</title>
<path fill="none" stroke="black" d="M317.46,-628.92C303.54,-619.97 288.22,-607.78 278.5,-593 233.29,-524.29 265.61,-489.54 235.5,-413 231.86,-403.75 226.85,-394.15 221.97,-385.7"/>
<polygon fill="black" stroke="black" points="224.93,-383.83 216.78,-377.05 218.92,-387.43 224.93,-383.83"/>
</g>
<!-- mathphysconstants_mod -->
<g id="node6" class="node">
<title>mathphysconstants_mod</title>
<g id="a_node6"><a xlink:href="mathphysconstants_mod.html" xlink:title="mathphysconstants_mod">
<polygon fill="gray" stroke="black" points="302.5,-305 150.5,-305 150.5,-269 302.5,-269 302.5,-305"/>
<text text-anchor="middle" x="226.5" y="-283.3" font-family="Times,serif" font-size="14.00">mathphysconstants_mod</text>
</a>
</g>
</g>
<!-- gridStateVectorFileIO_mod&#45;&gt;mathphysconstants_mod -->
<g id="edge5" class="edge">
<title>gridStateVectorFileIO_mod&#45;&gt;mathphysconstants_mod</title>
<path fill="none" stroke="black" d="M336.83,-628.57C330.03,-618.56 321.95,-605.52 316.5,-593 300.16,-555.43 292.5,-544.97 292.5,-504 292.5,-504 292.5,-504 292.5,-430 292.5,-389.55 291.74,-377.1 273.5,-341 268.32,-330.75 260.66,-320.92 253.03,-312.57"/>
<polygon fill="black" stroke="black" points="255.54,-310.14 246.09,-305.35 250.49,-314.99 255.54,-310.14"/>
</g>
<!-- midasmpi_mod -->
<g id="node7" class="node">
<title>midasmpi_mod</title>
<g id="a_node7"><a xlink:href="../modules/midasmpi_mod.svg" xlink:title="midasmpi_mod">
<polygon fill="none" stroke="red" points="340.5,-233 238.5,-233 238.5,-197 340.5,-197 340.5,-233"/>
<text text-anchor="middle" x="289.5" y="-211.3" font-family="Times,serif" font-size="14.00">midasmpi_mod</text>
</a>
</g>
</g>
<!-- gridStateVectorFileIO_mod&#45;&gt;midasmpi_mod -->
<g id="edge6" class="edge">
<title>gridStateVectorFileIO_mod&#45;&gt;midasmpi_mod</title>
<path fill="none" stroke="black" d="M345.66,-628.61C340.1,-601.94 330.5,-549.27 330.5,-504 330.5,-504 330.5,-504 330.5,-358 330.5,-316.41 314.06,-270.56 302,-242.51"/>
<polygon fill="black" stroke="black" points="305.05,-240.75 297.8,-233.03 298.65,-243.59 305.05,-240.75"/>
</g>
<!-- oceanmask_mod -->
<g id="node8" class="node">
<title>oceanmask_mod</title>
<g id="a_node8"><a xlink:href="../modules/oceanmask_mod.svg" xlink:title="oceanmask_mod">
<polygon fill="none" stroke="red" points="378,-161 269,-161 269,-125 378,-125 378,-161"/>
<text text-anchor="middle" x="323.5" y="-139.3" font-family="Times,serif" font-size="14.00">oceanmask_mod</text>
</a>
</g>
</g>
<!-- gridStateVectorFileIO_mod&#45;&gt;oceanmask_mod -->
<g id="edge7" class="edge">
<title>gridStateVectorFileIO_mod&#45;&gt;oceanmask_mod</title>
<path fill="none" stroke="black" d="M353.34,-628.61C358.9,-601.94 368.5,-549.27 368.5,-504 368.5,-504 368.5,-504 368.5,-286 368.5,-245.55 362.73,-235.22 349.5,-197 346.38,-187.99 342.1,-178.54 337.91,-170.14"/>
<polygon fill="black" stroke="black" points="340.99,-168.48 333.28,-161.2 334.77,-171.69 340.99,-168.48"/>
</g>
<!-- ramdisk_mod -->
<g id="node9" class="node">
<title>ramdisk_mod</title>
<g id="a_node9"><a xlink:href="../modules/ramdisk_mod.svg" xlink:title="ramdisk_mod">
<polygon fill="none" stroke="red" points="452.5,-89 360.5,-89 360.5,-53 452.5,-53 452.5,-89"/>
<text text-anchor="middle" x="406.5" y="-67.3" font-family="Times,serif" font-size="14.00">ramdisk_mod</text>
</a>
</g>
</g>
<!-- gridStateVectorFileIO_mod&#45;&gt;ramdisk_mod -->
<g id="edge8" class="edge">
<title>gridStateVectorFileIO_mod&#45;&gt;ramdisk_mod</title>
<path fill="none" stroke="black" d="M361.31,-628.96C378.01,-603.16 406.5,-552.08 406.5,-504 406.5,-504 406.5,-504 406.5,-214 406.5,-174 406.5,-127.65 406.5,-99.08"/>
<polygon fill="black" stroke="black" points="410,-99.05 406.5,-89.05 403,-99.05 410,-99.05"/>
</g>
<!-- timecoord_mod -->
<g id="node10" class="node">
<title>timecoord_mod</title>
<g id="a_node10"><a xlink:href="../modules/timecoord_mod.svg" xlink:title="timecoord_mod">
<polygon fill="none" stroke="red" points="538.5,-593 434.5,-593 434.5,-557 538.5,-557 538.5,-593"/>
<text text-anchor="middle" x="486.5" y="-571.3" font-family="Times,serif" font-size="14.00">timecoord_mod</text>
</a>
</g>
</g>
<!-- gridStateVectorFileIO_mod&#45;&gt;timecoord_mod -->
<g id="edge9" class="edge">
<title>gridStateVectorFileIO_mod&#45;&gt;timecoord_mod</title>
<path fill="none" stroke="black" d="M383.01,-628.88C401.34,-619.51 424.24,-607.81 443.83,-597.8"/>
<polygon fill="black" stroke="black" points="445.54,-600.86 452.86,-593.19 442.36,-594.62 445.54,-600.86"/>
</g>
<!-- utilities_mod -->
<g id="node11" class="node">
<title>utilities_mod</title>
<g id="a_node11"><a xlink:href="../modules/utilities_mod.svg" xlink:title="utilities_mod">
<polygon fill="none" stroke="red" points="593,-521 504,-521 504,-485 593,-485 593,-521"/>
<text text-anchor="middle" x="548.5" y="-499.3" font-family="Times,serif" font-size="14.00">utilities_mod</text>
</a>
</g>
</g>
<!-- gridStateVectorFileIO_mod&#45;&gt;utilities_mod -->
<g id="edge10" class="edge">
<title>gridStateVectorFileIO_mod&#45;&gt;utilities_mod</title>
<path fill="none" stroke="black" d="M434.53,-633.65C481.5,-624.91 533.18,-611.45 547.5,-593 560.93,-575.7 559.8,-550.27 556.11,-531.02"/>
<polygon fill="black" stroke="black" points="559.48,-530.04 553.87,-521.05 552.64,-531.57 559.48,-530.04"/>
</g>
<!-- varnamelist_mod -->
<g id="node12" class="node">
<title>varnamelist_mod</title>
<g id="a_node12"><a xlink:href="../modules/varnamelist_mod.svg" xlink:title="varnamelist_mod">
<polygon fill="none" stroke="red" points="678,-449 565,-449 565,-413 678,-413 678,-449"/>
<text text-anchor="middle" x="621.5" y="-427.3" font-family="Times,serif" font-size="14.00">varnamelist_mod</text>
</a>
</g>
</g>
<!-- gridStateVectorFileIO_mod&#45;&gt;varnamelist_mod -->
<g id="edge11" class="edge">
<title>gridStateVectorFileIO_mod&#45;&gt;varnamelist_mod</title>
<path fill="none" stroke="black" d="M434.55,-642.5C478.38,-636.75 530.29,-623.34 567.5,-593 607.77,-560.16 618.19,-496.22 620.77,-459.57"/>
<polygon fill="black" stroke="black" points="624.29,-459.31 621.34,-449.14 617.3,-458.93 624.29,-459.31"/>
</g>
<!-- verticalcoord_mod -->
<g id="node13" class="node">
<title>verticalcoord_mod</title>
<g id="a_node13"><a xlink:href="../modules/verticalcoord_mod.svg" xlink:title="verticalcoord_mod">
<polygon fill="none" stroke="red" points="766.5,-377 646.5,-377 646.5,-341 766.5,-341 766.5,-377"/>
<text text-anchor="middle" x="706.5" y="-355.3" font-family="Times,serif" font-size="14.00">verticalcoord_mod</text>
</a>
</g>
</g>
<!-- gridStateVectorFileIO_mod&#45;&gt;verticalcoord_mod -->
<g id="edge12" class="edge">
<title>gridStateVectorFileIO_mod&#45;&gt;verticalcoord_mod</title>
<path fill="none" stroke="black" d="M434.73,-644.06C485.65,-639.15 549.38,-626.06 596.5,-593 666.78,-543.69 693.51,-437.36 702.48,-387.22"/>
<polygon fill="black" stroke="black" points="705.97,-387.58 704.18,-377.14 699.07,-386.42 705.97,-387.58"/>
</g>
</g>
</svg>
