<?xml version="1.0" encoding="UTF-8" standalone="no"?>
<!DOCTYPE svg PUBLIC "-//W3C//DTD SVG 1.1//EN"
 "http://www.w3.org/Graphics/SVG/1.1/DTD/svg11.dtd">
<!-- Generated by graphviz version 3.0.0 (20220315.2325)
 -->
<!-- Title: gridBinning_mod Pages: 1 -->
<svg width="433pt" height="313pt"
 viewBox="0.00 0.00 433.00 313.00" xmlns="http://www.w3.org/2000/svg" xmlns:xlink="http://www.w3.org/1999/xlink">
<g id="graph0" class="graph" transform="scale(1 1) rotate(0) translate(4 309)">
<title>gridBinning_mod</title>
<polygon fill="white" stroke="transparent" points="-4,4 -4,-309 429,-309 429,4 -4,4"/>
<text text-anchor="middle" x="212.5" y="-289.8" font-family="Times,serif" font-size="14.00">Blue boxes indicate modules with reverse dependencies not shown</text>
<text text-anchor="middle" x="212.5" y="-274.8" font-family="Times,serif" font-size="14.00">Higher level reverse dependencies can be shown by clicking on a blue box</text>
<text text-anchor="middle" x="212.5" y="-259.8" font-family="Times,serif" font-size="14.00">Green boxes are programs</text>
<!-- gridBinning_mod -->
<g id="node1" class="node">
<title>gridBinning_mod</title>
<g id="a_node1"><a xlink:href="gridBinning_mod.html" xlink:title="gridBinning_mod">
<polygon fill="none" stroke="black" points="285,-36 170,-36 170,0 285,0 285,-36"/>
<text text-anchor="middle" x="227.5" y="-14.3" font-family="Times,serif" font-size="14.00">gridBinning_mod</text>
</a>
</g>
</g>
<!-- bmatrixensemble_mod -->
<g id="node2" class="node">
<title>bmatrixensemble_mod</title>
<g id="a_node2"><a xlink:href="../modules/bmatrixensemble_mod_rev.svg" xlink:title="bmatrixensemble_mod">
<polygon fill="none" stroke="blue" points="199,-108 56,-108 56,-72 199,-72 199,-108"/>
<text text-anchor="middle" x="127.5" y="-86.3" font-family="Times,serif" font-size="14.00">bmatrixensemble_mod</text>
</a>
</g>
</g>
<!-- bmatrixensemble_mod&#45;&gt;gridBinning_mod -->
<g id="edge1" class="edge">
<title>bmatrixensemble_mod&#45;&gt;gridBinning_mod</title>
<path fill="none" stroke="black" d="M158.74,-67.13C172.99,-57.16 189.61,-45.52 202.94,-36.19"/>
<ellipse fill="black" stroke="black" cx="155.24" cy="-69.58" rx="4" ry="4"/>
</g>
<!-- calcstatsglb_mod -->
<g id="node3" class="node">
<title>calcstatsglb_mod</title>
<g id="a_node3"><a xlink:href="../modules/calcstatsglb_mod_rev.svg" xlink:title="calcstatsglb_mod">
<polygon fill="none" stroke="blue" points="283,-180 172,-180 172,-144 283,-144 283,-180"/>
<text text-anchor="middle" x="227.5" y="-158.3" font-family="Times,serif" font-size="14.00">calcstatsglb_mod</text>
</a>
</g>
</g>
<!-- calcstatsglb_mod&#45;&gt;gridBinning_mod -->
<g id="edge2" class="edge">
<title>calcstatsglb_mod&#45;&gt;gridBinning_mod</title>
<path fill="none" stroke="black" d="M227.5,-135.56C227.5,-106.86 227.5,-60.96 227.5,-36.19"/>
<ellipse fill="black" stroke="black" cx="227.5" cy="-139.87" rx="4" ry="4"/>
</g>
<!-- calcstatslam_mod -->
<g id="node4" class="node">
<title>calcstatslam_mod</title>
<g id="a_node4"><a xlink:href="../modules/calcstatslam_mod_rev.svg" xlink:title="calcstatslam_mod">
<polygon fill="none" stroke="blue" points="369,-252 254,-252 254,-216 369,-216 369,-252"/>
<text text-anchor="middle" x="311.5" y="-230.3" font-family="Times,serif" font-size="14.00">calcstatslam_mod</text>
</a>
</g>
</g>
<!-- calcstatslam_mod&#45;&gt;gridBinning_mod -->
<g id="edge3" class="edge">
<title>calcstatslam_mod&#45;&gt;gridBinning_mod</title>
<path fill="none" stroke="black" d="M307.55,-207.61C304.32,-189.54 299.05,-164.86 291.5,-144 276.9,-103.65 252.13,-59.7 238.07,-36.17"/>
<ellipse fill="black" stroke="black" cx="308.3" cy="-211.97" rx="4" ry="4"/>
</g>
</g>
</svg>
