<?xml version="1.0" encoding="UTF-8" standalone="no"?>
<!DOCTYPE svg PUBLIC "-//W3C//DTD SVG 1.1//EN"
 "http://www.w3.org/Graphics/SVG/1.1/DTD/svg11.dtd">
<!-- Generated by graphviz version 3.0.0 (20220315.2325)
 -->
<!-- Title: horizontalCoord_mod Pages: 1 -->
<svg width="469pt" height="529pt"
 viewBox="0.00 0.00 468.50 529.00" xmlns="http://www.w3.org/2000/svg" xmlns:xlink="http://www.w3.org/1999/xlink">
<g id="graph0" class="graph" transform="scale(1 1) rotate(0) translate(4 525)">
<title>horizontalCoord_mod</title>
<polygon fill="white" stroke="transparent" points="-4,4 -4,-525 464.5,-525 464.5,4 -4,4"/>
<text text-anchor="middle" x="230.25" y="-37.8" font-family="Times,serif" font-size="14.00">Red boxes indicate modules with dependencies not shown</text>
<text text-anchor="middle" x="230.25" y="-22.8" font-family="Times,serif" font-size="14.00">Lower level dependencies can be shown by clicking on a red box</text>
<text text-anchor="middle" x="230.25" y="-7.8" font-family="Times,serif" font-size="14.00">Shaded boxes indicate modules with no dependencies</text>
<!-- horizontalCoord_mod -->
<g id="node1" class="node">
<title>horizontalCoord_mod</title>
<g id="a_node1"><a xlink:href="horizontalCoord_mod.html" xlink:title="horizontalCoord_mod">
<polygon fill="none" stroke="black" points="312.5,-521 175.5,-521 175.5,-485 312.5,-485 312.5,-521"/>
<text text-anchor="middle" x="244" y="-499.3" font-family="Times,serif" font-size="14.00">horizontalCoord_mod</text>
</a>
</g>
</g>
<!-- earthconstants_mod -->
<g id="node2" class="node">
<title>earthconstants_mod</title>
<g id="a_node2"><a xlink:href="../modules/earthconstants_mod.svg" xlink:title="earthconstants_mod">
<polygon fill="none" stroke="red" points="126,-449 0,-449 0,-413 126,-413 126,-449"/>
<text text-anchor="middle" x="63" y="-427.3" font-family="Times,serif" font-size="14.00">earthconstants_mod</text>
</a>
</g>
</g>
<!-- horizontalCoord_mod&#45;&gt;earthconstants_mod -->
<g id="edge1" class="edge">
<title>horizontalCoord_mod&#45;&gt;earthconstants_mod</title>
<path fill="none" stroke="black" d="M199.72,-484.88C174.65,-475.18 143.1,-462.98 116.63,-452.74"/>
<polygon fill="black" stroke="black" points="117.72,-449.41 107.13,-449.07 115.2,-455.94 117.72,-449.41"/>
</g>
<!-- mathphysconstants_mod -->
<g id="node3" class="node">
<title>mathphysconstants_mod</title>
<g id="a_node3"><a xlink:href="mathphysconstants_mod.html" xlink:title="mathphysconstants_mod">
<polygon fill="gray" stroke="black" points="197,-377 45,-377 45,-341 197,-341 197,-377"/>
<text text-anchor="middle" x="121" y="-355.3" font-family="Times,serif" font-size="14.00">mathphysconstants_mod</text>
</a>
</g>
</g>
<!-- horizontalCoord_mod&#45;&gt;mathphysconstants_mod -->
<g id="edge2" class="edge">
<title>horizontalCoord_mod&#45;&gt;mathphysconstants_mod</title>
<path fill="none" stroke="black" d="M229.16,-484.87C207.55,-459.92 167.3,-413.45 142.46,-384.77"/>
<polygon fill="black" stroke="black" points="145.08,-382.46 135.89,-377.19 139.79,-387.04 145.08,-382.46"/>
</g>
<!-- midasmpi_mod -->
<g id="node4" class="node">
<title>midasmpi_mod</title>
<g id="a_node4"><a xlink:href="../modules/midasmpi_mod.svg" xlink:title="midasmpi_mod">
<polygon fill="none" stroke="red" points="235,-305 133,-305 133,-269 235,-269 235,-305"/>
<text text-anchor="middle" x="184" y="-283.3" font-family="Times,serif" font-size="14.00">midasmpi_mod</text>
</a>
</g>
</g>
<!-- horizontalCoord_mod&#45;&gt;midasmpi_mod -->
<g id="edge3" class="edge">
<title>horizontalCoord_mod&#45;&gt;midasmpi_mod</title>
<path fill="none" stroke="black" d="M240.9,-484.83C235.32,-455.12 222.61,-392.38 206,-341 203.18,-332.28 199.55,-322.98 196.05,-314.65"/>
<polygon fill="black" stroke="black" points="199.23,-313.2 192.06,-305.4 192.81,-315.97 199.23,-313.2"/>
</g>
<!-- physicsfunctions_mod -->
<g id="node5" class="node">
<title>physicsfunctions_mod</title>
<g id="a_node5"><a xlink:href="../modules/physicsfunctions_mod.svg" xlink:title="physicsfunctions_mod">
<polygon fill="none" stroke="red" points="302.5,-233 163.5,-233 163.5,-197 302.5,-197 302.5,-233"/>
<text text-anchor="middle" x="233" y="-211.3" font-family="Times,serif" font-size="14.00">physicsfunctions_mod</text>
</a>
</g>
</g>
<!-- horizontalCoord_mod&#45;&gt;physicsfunctions_mod -->
<g id="edge4" class="edge">
<title>horizontalCoord_mod&#45;&gt;physicsfunctions_mod</title>
<path fill="none" stroke="black" d="M245.19,-484.98C247.62,-446.42 252.26,-349.48 244,-269 243.12,-260.46 241.47,-251.26 239.71,-242.96"/>
<polygon fill="black" stroke="black" points="243.08,-242.03 237.46,-233.05 236.26,-243.57 243.08,-242.03"/>
</g>
<!-- utilities_mod -->
<g id="node6" class="node">
<title>utilities_mod</title>
<g id="a_node6"><a xlink:href="../modules/utilities_mod.svg" xlink:title="utilities_mod">
<polygon fill="none" stroke="red" points="375.5,-161 286.5,-161 286.5,-125 375.5,-125 375.5,-161"/>
<text text-anchor="middle" x="331" y="-139.3" font-family="Times,serif" font-size="14.00">utilities_mod</text>
</a>
</g>
</g>
<!-- horizontalCoord_mod&#45;&gt;utilities_mod -->
<g id="edge5" class="edge">
<title>horizontalCoord_mod&#45;&gt;utilities_mod</title>
<path fill="none" stroke="black" d="M263.31,-484.82C288.94,-460.01 331,-411.46 331,-360 331,-360 331,-360 331,-286 331,-246 331,-199.65 331,-171.08"/>
<polygon fill="black" stroke="black" points="334.5,-171.05 331,-161.05 327.5,-171.05 334.5,-171.05"/>
</g>
<!-- varnamelist_mod -->
<g id="node7" class="node">
<title>varnamelist_mod</title>
<g id="a_node7"><a xlink:href="../modules/varnamelist_mod.svg" xlink:title="varnamelist_mod">
<polygon fill="none" stroke="red" points="460.5,-89 347.5,-89 347.5,-53 460.5,-53 460.5,-89"/>
<text text-anchor="middle" x="404" y="-67.3" font-family="Times,serif" font-size="14.00">varnamelist_mod</text>
</a>
</g>
</g>
<!-- horizontalCoord_mod&#45;&gt;varnamelist_mod -->
<g id="edge6" class="edge">
<title>horizontalCoord_mod&#45;&gt;varnamelist_mod</title>
<path fill="none" stroke="black" d="M288.57,-484.93C335.91,-463.55 404,-422.02 404,-360 404,-360 404,-360 404,-214 404,-174 404,-127.65 404,-99.08"/>
<polygon fill="black" stroke="black" points="407.5,-99.05 404,-89.05 400.5,-99.05 407.5,-99.05"/>
</g>
</g>
</svg>
