<?xml version="1.0" encoding="UTF-8" standalone="no"?>
<!DOCTYPE svg PUBLIC "-//W3C//DTD SVG 1.1//EN"
 "http://www.w3.org/Graphics/SVG/1.1/DTD/svg11.dtd">
<!-- Generated by graphviz version 3.0.0 (20220315.2325)
 -->
<!-- Title: humidityLimits_mod Pages: 1 -->
<svg width="549pt" height="673pt"
 viewBox="0.00 0.00 549.00 673.00" xmlns="http://www.w3.org/2000/svg" xmlns:xlink="http://www.w3.org/1999/xlink">
<g id="graph0" class="graph" transform="scale(1 1) rotate(0) translate(4 669)">
<title>humidityLimits_mod</title>
<polygon fill="white" stroke="transparent" points="-4,4 -4,-669 545,-669 545,4 -4,4"/>
<text text-anchor="middle" x="270.5" y="-649.8" font-family="Times,serif" font-size="14.00">Blue boxes indicate modules with reverse dependencies not shown</text>
<text text-anchor="middle" x="270.5" y="-634.8" font-family="Times,serif" font-size="14.00">Higher level reverse dependencies can be shown by clicking on a blue box</text>
<text text-anchor="middle" x="270.5" y="-619.8" font-family="Times,serif" font-size="14.00">Green boxes are programs</text>
<!-- humidityLimits_mod -->
<g id="node1" class="node">
<title>humidityLimits_mod</title>
<g id="a_node1"><a xlink:href="humidityLimits_mod.html" xlink:title="humidityLimits_mod">
<polygon fill="none" stroke="black" points="360.5,-36 226.5,-36 226.5,0 360.5,0 360.5,-36"/>
<text text-anchor="middle" x="293.5" y="-14.3" font-family="Times,serif" font-size="14.00">humidityLimits_mod</text>
</a>
</g>
</g>
<!-- bmatrixensemble_mod -->
<g id="node2" class="node">
<title>bmatrixensemble_mod</title>
<g id="a_node2"><a xlink:href="../modules/bmatrixensemble_mod_rev.svg" xlink:title="bmatrixensemble_mod">
<polygon fill="none" stroke="blue" points="143,-108 0,-108 0,-72 143,-72 143,-108"/>
<text text-anchor="middle" x="71.5" y="-86.3" font-family="Times,serif" font-size="14.00">bmatrixensemble_mod</text>
</a>
</g>
</g>
<!-- bmatrixensemble_mod&#45;&gt;humidityLimits_mod -->
<g id="edge1" class="edge">
<title>bmatrixensemble_mod&#45;&gt;humidityLimits_mod</title>
<path fill="none" stroke="black" d="M133.37,-69.49C166.62,-59.01 207.23,-46.2 239.23,-36.11"/>
<ellipse fill="black" stroke="black" cx="129.34" cy="-70.76" rx="4" ry="4"/>
</g>
<!-- enspostprocess_mod -->
<g id="node3" class="node">
<title>enspostprocess_mod</title>
<g id="a_node3"><a xlink:href="../modules/enspostprocess_mod_rev.svg" xlink:title="enspostprocess_mod">
<polygon fill="none" stroke="blue" points="208,-180 79,-180 79,-144 208,-144 208,-180"/>
<text text-anchor="middle" x="143.5" y="-158.3" font-family="Times,serif" font-size="14.00">enspostprocess_mod</text>
</a>
</g>
</g>
<!-- enspostprocess_mod&#45;&gt;humidityLimits_mod -->
<g id="edge2" class="edge">
<title>enspostprocess_mod&#45;&gt;humidityLimits_mod</title>
<path fill="none" stroke="black" d="M162.4,-137.15C177.7,-118.51 200.28,-92.42 222.5,-72 236.66,-58.99 253.92,-46.05 267.88,-36.21"/>
<ellipse fill="black" stroke="black" cx="159.63" cy="-140.56" rx="4" ry="4"/>
</g>
<!-- gridvariabletransforms_mod -->
<g id="node4" class="node">
<title>gridvariabletransforms_mod</title>
<g id="a_node4"><a xlink:href="../modules/gridvariabletransforms_mod_rev.svg" xlink:title="gridvariabletransforms_mod">
<polygon fill="none" stroke="blue" points="246,-252 71,-252 71,-216 246,-216 246,-252"/>
<text text-anchor="middle" x="158.5" y="-230.3" font-family="Times,serif" font-size="14.00">gridvariabletransforms_mod</text>
</a>
</g>
</g>
<!-- gridvariabletransforms_mod&#45;&gt;humidityLimits_mod -->
<g id="edge3" class="edge">
<title>gridvariabletransforms_mod&#45;&gt;humidityLimits_mod</title>
<path fill="none" stroke="black" d="M187.87,-210.68C197.93,-201.94 208.62,-191.31 216.5,-180 246.13,-137.48 236.94,-118.17 260.5,-72 266.81,-59.64 275.06,-46.39 281.73,-36.23"/>
<ellipse fill="black" stroke="black" cx="184.78" cy="-213.28" rx="4" ry="4"/>
</g>
<!-- increment_mod -->
<g id="node5" class="node">
<title>increment_mod</title>
<g id="a_node5"><a xlink:href="../modules/increment_mod_rev.svg" xlink:title="increment_mod">
<polygon fill="none" stroke="blue" points="284,-324 181,-324 181,-288 284,-288 284,-324"/>
<text text-anchor="middle" x="232.5" y="-302.3" font-family="Times,serif" font-size="14.00">increment_mod</text>
</a>
</g>
</g>
<!-- increment_mod&#45;&gt;humidityLimits_mod -->
<g id="edge4" class="edge">
<title>increment_mod&#45;&gt;humidityLimits_mod</title>
<path fill="none" stroke="black" d="M244.1,-280.34C247.87,-271.55 251.78,-261.48 254.5,-252 277.14,-173.16 288.21,-75.29 291.97,-36.25"/>
<ellipse fill="black" stroke="black" cx="242.48" cy="-284.03" rx="4" ry="4"/>
</g>
<!-- innovation_mod -->
<g id="node6" class="node">
<title>innovation_mod</title>
<g id="a_node6"><a xlink:href="../modules/innovation_mod_rev.svg" xlink:title="innovation_mod">
<polygon fill="none" stroke="blue" points="322.5,-396 216.5,-396 216.5,-360 322.5,-360 322.5,-396"/>
<text text-anchor="middle" x="269.5" y="-374.3" font-family="Times,serif" font-size="14.00">innovation_mod</text>
</a>
</g>
</g>
<!-- innovation_mod&#45;&gt;humidityLimits_mod -->
<g id="edge5" class="edge">
<title>innovation_mod&#45;&gt;humidityLimits_mod</title>
<path fill="none" stroke="black" d="M281.83,-352.26C294.54,-324.46 312.5,-277.62 312.5,-235 312.5,-235 312.5,-235 312.5,-161 312.5,-115.73 302.9,-63.06 297.34,-36.39"/>
<ellipse fill="black" stroke="black" cx="280.11" cy="-355.96" rx="4" ry="4"/>
</g>
<!-- statetocolumn_mod -->
<g id="node7" class="node">
<title>statetocolumn_mod</title>
<g id="a_node7"><a xlink:href="../modules/statetocolumn_mod_rev.svg" xlink:title="statetocolumn_mod">
<polygon fill="none" stroke="blue" points="387,-468 262,-468 262,-432 387,-432 387,-468"/>
<text text-anchor="middle" x="324.5" y="-446.3" font-family="Times,serif" font-size="14.00">statetocolumn_mod</text>
</a>
</g>
</g>
<!-- statetocolumn_mod&#45;&gt;humidityLimits_mod -->
<g id="edge6" class="edge">
<title>statetocolumn_mod&#45;&gt;humidityLimits_mod</title>
<path fill="none" stroke="black" d="M331.93,-423.94C339.61,-395.76 350.5,-348.52 350.5,-307 350.5,-307 350.5,-307 350.5,-161 350.5,-112.92 322.01,-61.84 305.31,-36.04"/>
<ellipse fill="black" stroke="black" cx="330.84" cy="-427.85" rx="4" ry="4"/>
</g>
<!-- tovsnl_mod -->
<g id="node8" class="node">
<title>tovsnl_mod</title>
<g id="a_node8"><a xlink:href="../modules/tovsnl_mod_rev.svg" xlink:title="tovsnl_mod">
<polygon fill="none" stroke="blue" points="456,-540 375,-540 375,-504 456,-504 456,-540"/>
<text text-anchor="middle" x="415.5" y="-518.3" font-family="Times,serif" font-size="14.00">tovsnl_mod</text>
</a>
</g>
</g>
<!-- tovsnl_mod&#45;&gt;humidityLimits_mod -->
<g id="edge7" class="edge">
<title>tovsnl_mod&#45;&gt;humidityLimits_mod</title>
<path fill="none" stroke="black" d="M415.5,-495.78C415.5,-467.39 415.5,-419.89 415.5,-379 415.5,-379 415.5,-379 415.5,-161 415.5,-104.61 359.46,-59.43 323.34,-36.17"/>
<ellipse fill="black" stroke="black" cx="415.5" cy="-499.95" rx="4" ry="4"/>
</g>
<!-- midas_midas_var -->
<g id="node9" class="node">
<title>midas_midas_var</title>
<g id="a_node9"><a xlink:href="../programs/midas_var.html" xlink:title="midas_midas_var">
<polygon fill="gray" stroke="green" points="541,-612 428,-612 428,-576 541,-576 541,-612"/>
<text text-anchor="middle" x="484.5" y="-590.3" font-family="Times,serif" font-size="14.00">midas_midas_var</text>
</a>
</g>
</g>
<!-- midas_midas_var&#45;&gt;humidityLimits_mod -->
<g id="edge8" class="edge">
<title>midas_midas_var&#45;&gt;humidityLimits_mod</title>
<path fill="none" stroke="black" d="M484.5,-567.78C484.5,-539.39 484.5,-491.89 484.5,-451 484.5,-451 484.5,-451 484.5,-161 484.5,-94.89 409.89,-55.95 353.93,-36.04"/>
<ellipse fill="black" stroke="black" cx="484.5" cy="-571.95" rx="4" ry="4"/>
</g>
</g>
</svg>
