<?xml version="1.0" encoding="UTF-8" standalone="no"?>
<!DOCTYPE svg PUBLIC "-//W3C//DTD SVG 1.1//EN"
 "http://www.w3.org/Graphics/SVG/1.1/DTD/svg11.dtd">
<!-- Generated by graphviz version 3.0.0 (20220315.2325)
 -->
<!-- Title: humidityLimits_mod Pages: 1 -->
<svg width="632pt" height="673pt"
 viewBox="0.00 0.00 632.00 673.00" xmlns="http://www.w3.org/2000/svg" xmlns:xlink="http://www.w3.org/1999/xlink">
<g id="graph0" class="graph" transform="scale(1 1) rotate(0) translate(4 669)">
<title>humidityLimits_mod</title>
<polygon fill="white" stroke="transparent" points="-4,4 -4,-669 628,-669 628,4 -4,4"/>
<text text-anchor="middle" x="312" y="-37.8" font-family="Times,serif" font-size="14.00">Red boxes indicate modules with dependencies not shown</text>
<text text-anchor="middle" x="312" y="-22.8" font-family="Times,serif" font-size="14.00">Lower level dependencies can be shown by clicking on a red box</text>
<text text-anchor="middle" x="312" y="-7.8" font-family="Times,serif" font-size="14.00">Shaded boxes indicate modules with no dependencies</text>
<!-- humidityLimits_mod -->
<g id="node1" class="node">
<title>humidityLimits_mod</title>
<g id="a_node1"><a xlink:href="humidityLimits_mod.html" xlink:title="humidityLimits_mod">
<polygon fill="none" stroke="black" points="411,-665 277,-665 277,-629 411,-629 411,-665"/>
<text text-anchor="middle" x="344" y="-643.3" font-family="Times,serif" font-size="14.00">humidityLimits_mod</text>
</a>
</g>
</g>
<!-- calcheightandpressure_mod -->
<g id="node2" class="node">
<title>calcheightandpressure_mod</title>
<g id="a_node2"><a xlink:href="../modules/calcheightandpressure_mod.svg" xlink:title="calcheightandpressure_mod">
<polygon fill="none" stroke="red" points="168,-593 0,-593 0,-557 168,-557 168,-593"/>
<text text-anchor="middle" x="84" y="-571.3" font-family="Times,serif" font-size="14.00">calcheightandpressure_mod</text>
</a>
</g>
</g>
<!-- humidityLimits_mod&#45;&gt;calcheightandpressure_mod -->
<g id="edge1" class="edge">
<title>humidityLimits_mod&#45;&gt;calcheightandpressure_mod</title>
<path fill="none" stroke="black" d="M280.73,-628.97C243.45,-618.93 196.14,-606.19 157.25,-595.72"/>
<polygon fill="black" stroke="black" points="158.12,-592.33 147.55,-593.11 156.3,-599.09 158.12,-592.33"/>
</g>
<!-- ensemblestatevector_mod -->
<g id="node3" class="node">
<title>ensemblestatevector_mod</title>
<g id="a_node3"><a xlink:href="../modules/ensemblestatevector_mod.svg" xlink:title="ensemblestatevector_mod">
<polygon fill="none" stroke="red" points="240,-521 82,-521 82,-485 240,-485 240,-521"/>
<text text-anchor="middle" x="161" y="-499.3" font-family="Times,serif" font-size="14.00">ensemblestatevector_mod</text>
</a>
</g>
</g>
<!-- humidityLimits_mod&#45;&gt;ensemblestatevector_mod -->
<g id="edge2" class="edge">
<title>humidityLimits_mod&#45;&gt;ensemblestatevector_mod</title>
<path fill="none" stroke="black" d="M310.77,-628.85C293.26,-619.22 271.78,-606.46 254,-593 228.27,-573.53 201.98,-547.71 183.95,-528.9"/>
<polygon fill="black" stroke="black" points="186.17,-526.16 176.75,-521.31 181.09,-530.97 186.17,-526.16"/>
</g>
<!-- gridstatevector_mod -->
<g id="node4" class="node">
<title>gridstatevector_mod</title>
<g id="a_node4"><a xlink:href="../modules/gridstatevector_mod.svg" xlink:title="gridstatevector_mod">
<polygon fill="none" stroke="red" points="278,-449 148,-449 148,-413 278,-413 278,-449"/>
<text text-anchor="middle" x="213" y="-427.3" font-family="Times,serif" font-size="14.00">gridstatevector_mod</text>
</a>
</g>
</g>
<!-- humidityLimits_mod&#45;&gt;gridstatevector_mod -->
<g id="edge3" class="edge">
<title>humidityLimits_mod&#45;&gt;gridstatevector_mod</title>
<path fill="none" stroke="black" d="M323.74,-628.94C313.2,-619.25 300.72,-606.39 292,-593 263.8,-549.71 273.21,-530.64 249,-485 244.05,-475.67 237.81,-465.96 231.93,-457.44"/>
<polygon fill="black" stroke="black" points="234.63,-455.2 226,-449.07 228.92,-459.25 234.63,-455.2"/>
</g>
<!-- mathphysconstants_mod -->
<g id="node5" class="node">
<title>mathphysconstants_mod</title>
<g id="a_node5"><a xlink:href="mathphysconstants_mod.html" xlink:title="mathphysconstants_mod">
<polygon fill="gray" stroke="black" points="316,-377 164,-377 164,-341 316,-341 316,-377"/>
<text text-anchor="middle" x="240" y="-355.3" font-family="Times,serif" font-size="14.00">mathphysconstants_mod</text>
</a>
</g>
</g>
<!-- humidityLimits_mod&#45;&gt;mathphysconstants_mod -->
<g id="edge4" class="edge">
<title>humidityLimits_mod&#45;&gt;mathphysconstants_mod</title>
<path fill="none" stroke="black" d="M339.36,-628.84C336.58,-618.48 333.02,-605 330,-593 309.94,-513.23 324.98,-485.96 287,-413 281.7,-402.81 274,-393 266.38,-384.65"/>
<polygon fill="black" stroke="black" points="268.9,-382.23 259.46,-377.42 263.84,-387.07 268.9,-382.23"/>
</g>
<!-- midasmpi_mod -->
<g id="node6" class="node">
<title>midasmpi_mod</title>
<g id="a_node6"><a xlink:href="../modules/midasmpi_mod.svg" xlink:title="midasmpi_mod">
<polygon fill="none" stroke="red" points="354,-305 252,-305 252,-269 354,-269 354,-305"/>
<text text-anchor="middle" x="303" y="-283.3" font-family="Times,serif" font-size="14.00">midasmpi_mod</text>
</a>
</g>
</g>
<!-- humidityLimits_mod&#45;&gt;midasmpi_mod -->
<g id="edge5" class="edge">
<title>humidityLimits_mod&#45;&gt;midasmpi_mod</title>
<path fill="none" stroke="black" d="M344,-628.95C344,-602.29 344,-549.11 344,-504 344,-504 344,-504 344,-430 344,-388.41 327.56,-342.56 315.5,-314.51"/>
<polygon fill="black" stroke="black" points="318.55,-312.75 311.3,-305.03 312.15,-315.59 318.55,-312.75"/>
</g>
<!-- physicsfunctions_mod -->
<g id="node7" class="node">
<title>physicsfunctions_mod</title>
<g id="a_node7"><a xlink:href="../modules/physicsfunctions_mod.svg" xlink:title="physicsfunctions_mod">
<polygon fill="none" stroke="red" points="391.5,-233 252.5,-233 252.5,-197 391.5,-197 391.5,-233"/>
<text text-anchor="middle" x="322" y="-211.3" font-family="Times,serif" font-size="14.00">physicsfunctions_mod</text>
</a>
</g>
</g>
<!-- humidityLimits_mod&#45;&gt;physicsfunctions_mod -->
<g id="edge6" class="edge">
<title>humidityLimits_mod&#45;&gt;physicsfunctions_mod</title>
<path fill="none" stroke="black" d="M351.69,-628.91C362.79,-602.62 382,-550.45 382,-504 382,-504 382,-504 382,-358 382,-317.55 380.02,-305.69 363,-269 358.45,-259.19 351.79,-249.51 345.16,-241.16"/>
<polygon fill="black" stroke="black" points="347.71,-238.75 338.62,-233.3 342.33,-243.23 347.71,-238.75"/>
</g>
<!-- utilities_mod -->
<g id="node8" class="node">
<title>utilities_mod</title>
<g id="a_node8"><a xlink:href="../modules/utilities_mod.svg" xlink:title="utilities_mod">
<polygon fill="none" stroke="red" points="447.5,-161 358.5,-161 358.5,-125 447.5,-125 447.5,-161"/>
<text text-anchor="middle" x="403" y="-139.3" font-family="Times,serif" font-size="14.00">utilities_mod</text>
</a>
</g>
</g>
<!-- humidityLimits_mod&#45;&gt;utilities_mod -->
<g id="edge7" class="edge">
<title>humidityLimits_mod&#45;&gt;utilities_mod</title>
<path fill="none" stroke="black" d="M360.49,-628.77C382.84,-603.53 420,-554.05 420,-504 420,-504 420,-504 420,-286 420,-245.93 413.24,-199.95 408.25,-171.43"/>
<polygon fill="black" stroke="black" points="411.66,-170.63 406.44,-161.41 404.77,-171.87 411.66,-170.63"/>
</g>
<!-- varnamelist_mod -->
<g id="node9" class="node">
<title>varnamelist_mod</title>
<g id="a_node9"><a xlink:href="../modules/varnamelist_mod.svg" xlink:title="varnamelist_mod">
<polygon fill="none" stroke="red" points="532.5,-89 419.5,-89 419.5,-53 532.5,-53 532.5,-89"/>
<text text-anchor="middle" x="476" y="-67.3" font-family="Times,serif" font-size="14.00">varnamelist_mod</text>
</a>
</g>
</g>
<!-- humidityLimits_mod&#45;&gt;varnamelist_mod -->
<g id="edge8" class="edge">
<title>humidityLimits_mod&#45;&gt;varnamelist_mod</title>
<path fill="none" stroke="black" d="M377.31,-628.87C416.41,-606.09 476,-561.89 476,-504 476,-504 476,-504 476,-214 476,-174 476,-127.65 476,-99.08"/>
<polygon fill="black" stroke="black" points="479.5,-99.05 476,-89.05 472.5,-99.05 479.5,-99.05"/>
</g>
<!-- verticalcoord_mod -->
<g id="node10" class="node">
<title>verticalcoord_mod</title>
<g id="a_node10"><a xlink:href="../modules/verticalcoord_mod.svg" xlink:title="verticalcoord_mod">
<polygon fill="none" stroke="red" points="624,-593 504,-593 504,-557 624,-557 624,-593"/>
<text text-anchor="middle" x="564" y="-571.3" font-family="Times,serif" font-size="14.00">verticalcoord_mod</text>
</a>
</g>
</g>
<!-- humidityLimits_mod&#45;&gt;verticalcoord_mod -->
<g id="edge9" class="edge">
<title>humidityLimits_mod&#45;&gt;verticalcoord_mod</title>
<path fill="none" stroke="black" d="M397.54,-628.97C428.54,-619.1 467.76,-606.62 500.34,-596.25"/>
<polygon fill="black" stroke="black" points="501.76,-599.48 510.22,-593.11 499.63,-592.81 501.76,-599.48"/>
</g>
</g>
</svg>
