<?xml version="1.0" encoding="UTF-8" standalone="no"?>
<!DOCTYPE svg PUBLIC "-//W3C//DTD SVG 1.1//EN"
 "http://www.w3.org/Graphics/SVG/1.1/DTD/svg11.dtd">
<!-- Generated by graphviz version 3.0.0 (20220315.2325)
 -->
<!-- Title: increment_mod Pages: 1 -->
<svg width="810pt" height="673pt"
 viewBox="0.00 0.00 810.00 673.00" xmlns="http://www.w3.org/2000/svg" xmlns:xlink="http://www.w3.org/1999/xlink">
<g id="graph0" class="graph" transform="scale(1 1) rotate(0) translate(4 669)">
<title>increment_mod</title>
<polygon fill="white" stroke="transparent" points="-4,4 -4,-669 806,-669 806,4 -4,4"/>
<text text-anchor="middle" x="401" y="-37.8" font-family="Times,serif" font-size="14.00">Red boxes indicate modules with dependencies not shown</text>
<text text-anchor="middle" x="401" y="-22.8" font-family="Times,serif" font-size="14.00">Lower level dependencies can be shown by clicking on a red box</text>
<text text-anchor="middle" x="401" y="-7.8" font-family="Times,serif" font-size="14.00">Shaded boxes indicate modules with no dependencies</text>
<!-- increment_mod -->
<g id="node1" class="node">
<title>increment_mod</title>
<g id="a_node1"><a xlink:href="increment_mod.html" xlink:title="increment_mod">
<polygon fill="none" stroke="black" points="406.5,-665 303.5,-665 303.5,-629 406.5,-629 406.5,-665"/>
<text text-anchor="middle" x="355" y="-643.3" font-family="Times,serif" font-size="14.00">increment_mod</text>
</a>
</g>
</g>
<!-- bmatrix_mod -->
<g id="node2" class="node">
<title>bmatrix_mod</title>
<g id="a_node2"><a xlink:href="../modules/bmatrix_mod.svg" xlink:title="bmatrix_mod">
<polygon fill="none" stroke="red" points="92,-593 0,-593 0,-557 92,-557 92,-593"/>
<text text-anchor="middle" x="46" y="-571.3" font-family="Times,serif" font-size="14.00">bmatrix_mod</text>
</a>
</g>
</g>
<!-- increment_mod&#45;&gt;bmatrix_mod -->
<g id="edge1" class="edge">
<title>increment_mod&#45;&gt;bmatrix_mod</title>
<path fill="none" stroke="black" d="M303.27,-636.03C252.74,-626.05 173.78,-609.8 106,-593 104.73,-592.69 103.44,-592.36 102.15,-592.03"/>
<polygon fill="black" stroke="black" points="102.67,-588.55 92.11,-589.4 100.89,-595.32 102.67,-588.55"/>
</g>
<!-- codeprecision_mod -->
<g id="node3" class="node">
<title>codeprecision_mod</title>
<g id="a_node3"><a xlink:href="codeprecision_mod.html" xlink:title="codeprecision_mod">
<polygon fill="gray" stroke="black" points="155.5,-521 32.5,-521 32.5,-485 155.5,-485 155.5,-521"/>
<text text-anchor="middle" x="94" y="-499.3" font-family="Times,serif" font-size="14.00">codeprecision_mod</text>
</a>
</g>
</g>
<!-- increment_mod&#45;&gt;codeprecision_mod -->
<g id="edge2" class="edge">
<title>increment_mod&#45;&gt;codeprecision_mod</title>
<path fill="none" stroke="black" d="M303.4,-639.46C264.31,-632.63 210.61,-619.11 170,-593 144.69,-576.72 123.23,-549.5 109.64,-529.44"/>
<polygon fill="black" stroke="black" points="112.55,-527.49 104.13,-521.06 106.7,-531.34 112.55,-527.49"/>
</g>
<!-- gridstatevectorfileio_mod -->
<g id="node4" class="node">
<title>gridstatevectorfileio_mod</title>
<g id="a_node4"><a xlink:href="../modules/gridstatevectorfileio_mod.svg" xlink:title="gridstatevectorfileio_mod">
<polygon fill="none" stroke="red" points="194,-449 36,-449 36,-413 194,-413 194,-449"/>
<text text-anchor="middle" x="115" y="-427.3" font-family="Times,serif" font-size="14.00">gridstatevectorfileio_mod</text>
</a>
</g>
</g>
<!-- increment_mod&#45;&gt;gridstatevectorfileio_mod -->
<g id="edge3" class="edge">
<title>increment_mod&#45;&gt;gridstatevectorfileio_mod</title>
<path fill="none" stroke="black" d="M303.48,-638.28C272.4,-631.22 233.93,-617.89 208,-593 170.61,-557.11 191.82,-528.73 164,-485 157.61,-474.96 149.23,-465.08 141.2,-456.62"/>
<polygon fill="black" stroke="black" points="143.5,-453.97 134,-449.28 138.51,-458.87 143.5,-453.97"/>
</g>
<!-- gridstatevector_mod -->
<g id="node5" class="node">
<title>gridstatevector_mod</title>
<g id="a_node5"><a xlink:href="../modules/gridstatevector_mod.svg" xlink:title="gridstatevector_mod">
<polygon fill="none" stroke="red" points="232,-377 102,-377 102,-341 232,-341 232,-377"/>
<text text-anchor="middle" x="167" y="-355.3" font-family="Times,serif" font-size="14.00">gridstatevector_mod</text>
</a>
</g>
</g>
<!-- increment_mod&#45;&gt;gridstatevector_mod -->
<g id="edge4" class="edge">
<title>increment_mod&#45;&gt;gridstatevector_mod</title>
<path fill="none" stroke="black" d="M303.5,-631.67C282.85,-623.49 260.55,-611.13 246,-593 194.51,-528.86 236.21,-488.25 203,-413 198.8,-403.48 192.87,-393.85 187.02,-385.45"/>
<polygon fill="black" stroke="black" points="189.75,-383.24 181.04,-377.2 184.08,-387.35 189.75,-383.24"/>
</g>
<!-- gridvariabletransforms_mod -->
<g id="node6" class="node">
<title>gridvariabletransforms_mod</title>
<g id="a_node6"><a xlink:href="../modules/gridvariabletransforms_mod.svg" xlink:title="gridvariabletransforms_mod">
<polygon fill="none" stroke="red" points="269.5,-305 94.5,-305 94.5,-269 269.5,-269 269.5,-305"/>
<text text-anchor="middle" x="182" y="-283.3" font-family="Times,serif" font-size="14.00">gridvariabletransforms_mod</text>
</a>
</g>
</g>
<!-- increment_mod&#45;&gt;gridvariabletransforms_mod -->
<g id="edge5" class="edge">
<title>increment_mod&#45;&gt;gridvariabletransforms_mod</title>
<path fill="none" stroke="black" d="M323.15,-628.8C309.27,-619.82 293.94,-607.63 284,-593 260.99,-559.11 260,-544.97 260,-504 260,-504 260,-504 260,-430 260,-389.55 261.26,-376.01 241,-341 234.59,-329.92 225.05,-319.9 215.51,-311.63"/>
<polygon fill="black" stroke="black" points="217.51,-308.74 207.55,-305.11 213.07,-314.15 217.51,-308.74"/>
</g>
<!-- horizontalcoord_mod -->
<g id="node7" class="node">
<title>horizontalcoord_mod</title>
<g id="a_node7"><a xlink:href="../modules/horizontalcoord_mod.svg" xlink:title="horizontalcoord_mod">
<polygon fill="none" stroke="red" points="308,-233 174,-233 174,-197 308,-197 308,-233"/>
<text text-anchor="middle" x="241" y="-211.3" font-family="Times,serif" font-size="14.00">horizontalcoord_mod</text>
</a>
</g>
</g>
<!-- increment_mod&#45;&gt;horizontalcoord_mod -->
<g id="edge6" class="edge">
<title>increment_mod&#45;&gt;horizontalcoord_mod</title>
<path fill="none" stroke="black" d="M342.33,-628.57C335.53,-618.56 327.45,-605.52 322,-593 305.66,-555.43 298,-544.97 298,-504 298,-504 298,-504 298,-358 298,-317.46 294.36,-306.1 278,-269 273.77,-259.4 267.69,-249.74 261.68,-241.35"/>
<polygon fill="black" stroke="black" points="264.31,-239.02 255.52,-233.11 258.71,-243.22 264.31,-239.02"/>
</g>
<!-- humiditylimits_mod -->
<g id="node8" class="node">
<title>humiditylimits_mod</title>
<g id="a_node8"><a xlink:href="../modules/humiditylimits_mod.svg" xlink:title="humiditylimits_mod">
<polygon fill="none" stroke="red" points="345.5,-161 216.5,-161 216.5,-125 345.5,-125 345.5,-161"/>
<text text-anchor="middle" x="281" y="-139.3" font-family="Times,serif" font-size="14.00">humiditylimits_mod</text>
</a>
</g>
</g>
<!-- increment_mod&#45;&gt;humiditylimits_mod -->
<g id="edge7" class="edge">
<title>increment_mod&#45;&gt;humiditylimits_mod</title>
<path fill="none" stroke="black" d="M351.16,-628.61C345.6,-601.94 336,-549.27 336,-504 336,-504 336,-504 336,-286 336,-245.55 332.88,-234.2 317,-197 312.92,-187.43 307.01,-177.78 301.16,-169.39"/>
<polygon fill="black" stroke="black" points="303.88,-167.17 295.16,-161.15 298.22,-171.29 303.88,-167.17"/>
</g>
<!-- interpolation_mod -->
<g id="node9" class="node">
<title>interpolation_mod</title>
<g id="a_node9"><a xlink:href="../modules/interpolation_mod.svg" xlink:title="interpolation_mod">
<polygon fill="none" stroke="red" points="433,-89 315,-89 315,-53 433,-53 433,-89"/>
<text text-anchor="middle" x="374" y="-67.3" font-family="Times,serif" font-size="14.00">interpolation_mod</text>
</a>
</g>
</g>
<!-- increment_mod&#45;&gt;interpolation_mod -->
<g id="edge8" class="edge">
<title>increment_mod&#45;&gt;interpolation_mod</title>
<path fill="none" stroke="black" d="M358.84,-628.61C364.4,-601.94 374,-549.27 374,-504 374,-504 374,-504 374,-214 374,-174 374,-127.65 374,-99.08"/>
<polygon fill="black" stroke="black" points="377.5,-99.05 374,-89.05 370.5,-99.05 377.5,-99.05"/>
</g>
<!-- message_mod -->
<g id="node10" class="node">
<title>message_mod</title>
<g id="a_node10"><a xlink:href="../modules/message_mod.svg" xlink:title="message_mod">
<polygon fill="none" stroke="red" points="497.5,-593 402.5,-593 402.5,-557 497.5,-557 497.5,-593"/>
<text text-anchor="middle" x="450" y="-571.3" font-family="Times,serif" font-size="14.00">message_mod</text>
</a>
</g>
</g>
<!-- increment_mod&#45;&gt;message_mod -->
<g id="edge9" class="edge">
<title>increment_mod&#45;&gt;message_mod</title>
<path fill="none" stroke="black" d="M378.48,-628.7C390.56,-619.8 405.45,-608.82 418.52,-599.2"/>
<polygon fill="black" stroke="black" points="420.81,-601.85 426.79,-593.1 416.66,-596.22 420.81,-601.85"/>
</g>
<!-- midasmpi_mod -->
<g id="node11" class="node">
<title>midasmpi_mod</title>
<g id="a_node11"><a xlink:href="../modules/midasmpi_mod.svg" xlink:title="midasmpi_mod">
<polygon fill="none" stroke="red" points="536,-521 434,-521 434,-485 536,-485 536,-521"/>
<text text-anchor="middle" x="485" y="-499.3" font-family="Times,serif" font-size="14.00">midasmpi_mod</text>
</a>
</g>
</g>
<!-- increment_mod&#45;&gt;midasmpi_mod -->
<g id="edge10" class="edge">
<title>increment_mod&#45;&gt;midasmpi_mod</title>
<path fill="none" stroke="black" d="M406.8,-642.65C441.07,-637.42 483.67,-624.51 506,-593 519.04,-574.61 511.15,-549.23 501.54,-530.28"/>
<polygon fill="black" stroke="black" points="504.49,-528.38 496.61,-521.29 498.35,-531.75 504.49,-528.38"/>
</g>
<!-- timecoord_mod -->
<g id="node12" class="node">
<title>timecoord_mod</title>
<g id="a_node12"><a xlink:href="../modules/timecoord_mod.svg" xlink:title="timecoord_mod">
<polygon fill="none" stroke="red" points="574,-449 470,-449 470,-413 574,-413 574,-449"/>
<text text-anchor="middle" x="522" y="-427.3" font-family="Times,serif" font-size="14.00">timecoord_mod</text>
</a>
</g>
</g>
<!-- increment_mod&#45;&gt;timecoord_mod -->
<g id="edge11" class="edge">
<title>increment_mod&#45;&gt;timecoord_mod</title>
<path fill="none" stroke="black" d="M406.72,-642.49C444.1,-637.26 493.22,-624.4 524,-593 558.23,-558.08 554.94,-532.88 545,-485 543.12,-475.96 539.63,-466.58 535.91,-458.26"/>
<polygon fill="black" stroke="black" points="539,-456.6 531.54,-449.07 532.68,-459.61 539,-456.6"/>
</g>
<!-- utilities_mod -->
<g id="node13" class="node">
<title>utilities_mod</title>
<g id="a_node13"><a xlink:href="../modules/utilities_mod.svg" xlink:title="utilities_mod">
<polygon fill="none" stroke="red" points="628.5,-377 539.5,-377 539.5,-341 628.5,-341 628.5,-377"/>
<text text-anchor="middle" x="584" y="-355.3" font-family="Times,serif" font-size="14.00">utilities_mod</text>
</a>
</g>
</g>
<!-- increment_mod&#45;&gt;utilities_mod -->
<g id="edge12" class="edge">
<title>increment_mod&#45;&gt;utilities_mod</title>
<path fill="none" stroke="black" d="M406.67,-645.93C450.83,-643 512.94,-631.58 550,-593 603.84,-536.95 596.46,-435.64 589.1,-387.21"/>
<polygon fill="black" stroke="black" points="592.53,-386.48 587.46,-377.18 585.62,-387.61 592.53,-386.48"/>
</g>
<!-- varnamelist_mod -->
<g id="node14" class="node">
<title>varnamelist_mod</title>
<g id="a_node14"><a xlink:href="../modules/varnamelist_mod.svg" xlink:title="varnamelist_mod">
<polygon fill="none" stroke="red" points="713.5,-305 600.5,-305 600.5,-269 713.5,-269 713.5,-305"/>
<text text-anchor="middle" x="657" y="-283.3" font-family="Times,serif" font-size="14.00">varnamelist_mod</text>
</a>
</g>
</g>
<!-- increment_mod&#45;&gt;varnamelist_mod -->
<g id="edge13" class="edge">
<title>increment_mod&#45;&gt;varnamelist_mod</title>
<path fill="none" stroke="black" d="M406.57,-644.39C492.83,-638.65 657,-613.36 657,-504 657,-504 657,-504 657,-430 657,-390 657,-343.65 657,-315.08"/>
<polygon fill="black" stroke="black" points="660.5,-315.05 657,-305.05 653.5,-315.05 660.5,-315.05"/>
</g>
<!-- verticalcoord_mod -->
<g id="node15" class="node">
<title>verticalcoord_mod</title>
<g id="a_node15"><a xlink:href="../modules/verticalcoord_mod.svg" xlink:title="verticalcoord_mod">
<polygon fill="none" stroke="red" points="802,-233 682,-233 682,-197 802,-197 802,-233"/>
<text text-anchor="middle" x="742" y="-211.3" font-family="Times,serif" font-size="14.00">verticalcoord_mod</text>
</a>
</g>
</g>
<!-- increment_mod&#45;&gt;verticalcoord_mod -->
<g id="edge14" class="edge">
<title>increment_mod&#45;&gt;verticalcoord_mod</title>
<path fill="none" stroke="black" d="M406.53,-644.31C465.22,-640.62 562.71,-629.05 638,-593 692.87,-566.73 742,-564.84 742,-504 742,-504 742,-504 742,-358 742,-318 742,-271.65 742,-243.08"/>
<polygon fill="black" stroke="black" points="745.5,-243.05 742,-233.05 738.5,-243.05 745.5,-243.05"/>
</g>
</g>
</svg>
