<?xml version="1.0" encoding="UTF-8" standalone="no"?>
<!DOCTYPE svg PUBLIC "-//W3C//DTD SVG 1.1//EN"
 "http://www.w3.org/Graphics/SVG/1.1/DTD/svg11.dtd">
<!-- Generated by graphviz version 3.0.0 (20220315.2325)
 -->
<!-- Title: increment_mod Pages: 1 -->
<svg width="433pt" height="241pt"
 viewBox="0.00 0.00 433.00 241.00" xmlns="http://www.w3.org/2000/svg" xmlns:xlink="http://www.w3.org/1999/xlink">
<g id="graph0" class="graph" transform="scale(1 1) rotate(0) translate(4 237)">
<title>increment_mod</title>
<polygon fill="white" stroke="transparent" points="-4,4 -4,-237 429,-237 429,4 -4,4"/>
<text text-anchor="middle" x="212.5" y="-217.8" font-family="Times,serif" font-size="14.00">Blue boxes indicate modules with reverse dependencies not shown</text>
<text text-anchor="middle" x="212.5" y="-202.8" font-family="Times,serif" font-size="14.00">Higher level reverse dependencies can be shown by clicking on a blue box</text>
<text text-anchor="middle" x="212.5" y="-187.8" font-family="Times,serif" font-size="14.00">Green boxes are programs</text>
<!-- increment_mod -->
<g id="node1" class="node">
<title>increment_mod</title>
<g id="a_node1"><a xlink:href="increment_mod.html" xlink:title="increment_mod">
<polygon fill="none" stroke="black" points="267.5,-36 164.5,-36 164.5,0 267.5,0 267.5,-36"/>
<text text-anchor="middle" x="216" y="-14.3" font-family="Times,serif" font-size="14.00">increment_mod</text>
</a>
</g>
</g>
<!-- midas_midas_var1d -->
<g id="node2" class="node">
<title>midas_midas_var1d</title>
<g id="a_node2"><a xlink:href="../programs/midas_var1d.html" xlink:title="midas_midas_var1d">
<polygon fill="gray" stroke="green" points="233.5,-108 106.5,-108 106.5,-72 233.5,-72 233.5,-108"/>
<text text-anchor="middle" x="170" y="-86.3" font-family="Times,serif" font-size="14.00">midas_midas_var1d</text>
</a>
</g>
</g>
<!-- midas_midas_var1d&#45;&gt;increment_mod -->
<g id="edge1" class="edge">
<title>midas_midas_var1d&#45;&gt;increment_mod</title>
<path fill="none" stroke="black" d="M185.93,-64.76C192.14,-55.32 199.1,-44.72 204.76,-36.1"/>
<ellipse fill="black" stroke="black" cx="183.57" cy="-68.35" rx="4" ry="4"/>
</g>
<!-- midas_midas_var -->
<g id="node3" class="node">
<title>midas_midas_var</title>
<g id="a_node3"><a xlink:href="../programs/midas_var.html" xlink:title="midas_midas_var">
<polygon fill="gray" stroke="green" points="318.5,-180 205.5,-180 205.5,-144 318.5,-144 318.5,-180"/>
<text text-anchor="middle" x="262" y="-158.3" font-family="Times,serif" font-size="14.00">midas_midas_var</text>
</a>
</g>
</g>
<!-- midas_midas_var&#45;&gt;increment_mod -->
<g id="edge2" class="edge">
<title>midas_midas_var&#45;&gt;increment_mod</title>
<path fill="none" stroke="black" d="M258.39,-135.61C255.39,-117.54 250.4,-92.86 243,-72 238.58,-59.54 231.83,-46.29 226.19,-36.16"/>
<ellipse fill="black" stroke="black" cx="259.08" cy="-139.96" rx="4" ry="4"/>
</g>
</g>
</svg>
