<?xml version="1.0" encoding="UTF-8" standalone="no"?>
<!DOCTYPE svg PUBLIC "-//W3C//DTD SVG 1.1//EN"
 "http://www.w3.org/Graphics/SVG/1.1/DTD/svg11.dtd">
<!-- Generated by graphviz version 3.0.0 (20220315.2325)
 -->
<!-- Title: innovation_mod Pages: 1 -->
<svg width="739pt" height="673pt"
 viewBox="0.00 0.00 739.00 673.00" xmlns="http://www.w3.org/2000/svg" xmlns:xlink="http://www.w3.org/1999/xlink">
<g id="graph0" class="graph" transform="scale(1 1) rotate(0) translate(4 669)">
<title>innovation_mod</title>
<polygon fill="white" stroke="transparent" points="-4,4 -4,-669 735,-669 735,4 -4,4"/>
<text text-anchor="middle" x="365.5" y="-649.8" font-family="Times,serif" font-size="14.00">Blue boxes indicate modules with reverse dependencies not shown</text>
<text text-anchor="middle" x="365.5" y="-634.8" font-family="Times,serif" font-size="14.00">Higher level reverse dependencies can be shown by clicking on a blue box</text>
<text text-anchor="middle" x="365.5" y="-619.8" font-family="Times,serif" font-size="14.00">Green boxes are programs</text>
<!-- innovation_mod -->
<g id="node1" class="node">
<title>innovation_mod</title>
<g id="a_node1"><a xlink:href="innovation_mod.html" xlink:title="innovation_mod">
<polygon fill="none" stroke="black" points="371.5,-36 265.5,-36 265.5,0 371.5,0 371.5,-36"/>
<text text-anchor="middle" x="318.5" y="-14.3" font-family="Times,serif" font-size="14.00">innovation_mod</text>
</a>
</g>
</g>
<!-- ominusf_mod -->
<g id="node2" class="node">
<title>ominusf_mod</title>
<g id="a_node2"><a xlink:href="../modules/ominusf_mod_rev.svg" xlink:title="ominusf_mod">
<polygon fill="none" stroke="blue" points="99,-108 6,-108 6,-72 99,-72 99,-108"/>
<text text-anchor="middle" x="52.5" y="-86.3" font-family="Times,serif" font-size="14.00">ominusf_mod</text>
</a>
</g>
</g>
<!-- ominusf_mod&#45;&gt;innovation_mod -->
<g id="edge1" class="edge">
<title>ominusf_mod&#45;&gt;innovation_mod</title>
<path fill="none" stroke="black" d="M106.82,-73.8C109.08,-73.19 111.31,-72.59 113.5,-72 164.98,-58.17 223.91,-43.01 265.33,-32.45"/>
<ellipse fill="black" stroke="black" cx="102.96" cy="-74.86" rx="4" ry="4"/>
</g>
<!-- midas_midas_analysiserroroi -->
<g id="node3" class="node">
<title>midas_midas_analysiserroroi</title>
<g id="a_node3"><a xlink:href="../programs/midas_analysiserroroi.html" xlink:title="midas_midas_analysiserroroi">
<polygon fill="gray" stroke="green" points="177,-180 0,-180 0,-144 177,-144 177,-180"/>
<text text-anchor="middle" x="88.5" y="-158.3" font-family="Times,serif" font-size="14.00">midas_midas_analysiserroroi</text>
</a>
</g>
</g>
<!-- midas_midas_analysiserroroi&#45;&gt;innovation_mod -->
<g id="edge2" class="edge">
<title>midas_midas_analysiserroroi&#45;&gt;innovation_mod</title>
<path fill="none" stroke="black" d="M110.55,-137.94C130.13,-118.43 160.27,-90.74 190.5,-72 214.21,-57.3 242.72,-45.04 266.8,-36.02"/>
<ellipse fill="black" stroke="black" cx="107.64" cy="-140.87" rx="4" ry="4"/>
</g>
<!-- midas_midas_diaghbht -->
<g id="node4" class="node">
<title>midas_midas_diaghbht</title>
<g id="a_node4"><a xlink:href="../programs/midas_diaghbht.html" xlink:title="midas_midas_diaghbht">
<polygon fill="gray" stroke="green" points="214,-252 71,-252 71,-216 214,-216 214,-252"/>
<text text-anchor="middle" x="142.5" y="-230.3" font-family="Times,serif" font-size="14.00">midas_midas_diaghbht</text>
</a>
</g>
</g>
<!-- midas_midas_diaghbht&#45;&gt;innovation_mod -->
<g id="edge3" class="edge">
<title>midas_midas_diaghbht&#45;&gt;innovation_mod</title>
<path fill="none" stroke="black" d="M163.96,-209.7C171.42,-200.83 179.42,-190.36 185.5,-180 211.63,-135.43 194.87,-111.22 228.5,-72 241.6,-56.72 260.26,-44.73 277.2,-36.04"/>
<ellipse fill="black" stroke="black" cx="161.27" cy="-212.81" rx="4" ry="4"/>
</g>
<!-- midas_midas_ensembleh -->
<g id="node5" class="node">
<title>midas_midas_ensembleh</title>
<g id="a_node5"><a xlink:href="../programs/midas_ensembleh.html" xlink:title="midas_midas_ensembleh">
<polygon fill="gray" stroke="green" points="252,-324 97,-324 97,-288 252,-288 252,-324"/>
<text text-anchor="middle" x="174.5" y="-302.3" font-family="Times,serif" font-size="14.00">midas_midas_ensembleh</text>
</a>
</g>
</g>
<!-- midas_midas_ensembleh&#45;&gt;innovation_mod -->
<g id="edge4" class="edge">
<title>midas_midas_ensembleh&#45;&gt;innovation_mod</title>
<path fill="none" stroke="black" d="M199.99,-281.93C208.23,-273.27 216.73,-262.87 222.5,-252 261.1,-179.25 226.45,-143.96 266.5,-72 274.15,-58.26 286.32,-45.58 296.96,-36.07"/>
<ellipse fill="black" stroke="black" cx="197.16" cy="-284.79" rx="4" ry="4"/>
</g>
<!-- midas_midas_gencoeff -->
<g id="node6" class="node">
<title>midas_midas_gencoeff</title>
<g id="a_node6"><a xlink:href="../programs/midas_gencoeff.html" xlink:title="midas_midas_gencoeff">
<polygon fill="gray" stroke="green" points="290,-396 147,-396 147,-360 290,-360 290,-396"/>
<text text-anchor="middle" x="218.5" y="-374.3" font-family="Times,serif" font-size="14.00">midas_midas_gencoeff</text>
</a>
</g>
</g>
<!-- midas_midas_gencoeff&#45;&gt;innovation_mod -->
<g id="edge5" class="edge">
<title>midas_midas_gencoeff&#45;&gt;innovation_mod</title>
<path fill="none" stroke="black" d="M240.9,-353.43C248.1,-344.75 255.5,-334.47 260.5,-324 277.97,-287.42 280.5,-275.54 280.5,-235 280.5,-235 280.5,-235 280.5,-161 280.5,-114.55 299.71,-62.38 310.81,-36.09"/>
<ellipse fill="black" stroke="black" cx="238.09" cy="-356.7" rx="4" ry="4"/>
</g>
<!-- midas_midas_letkf -->
<g id="node7" class="node">
<title>midas_midas_letkf</title>
<g id="a_node7"><a xlink:href="../programs/midas_letkf.html" xlink:title="midas_midas_letkf">
<polygon fill="gray" stroke="green" points="328.5,-468 206.5,-468 206.5,-432 328.5,-432 328.5,-468"/>
<text text-anchor="middle" x="267.5" y="-446.3" font-family="Times,serif" font-size="14.00">midas_midas_letkf</text>
</a>
</g>
</g>
<!-- midas_midas_letkf&#45;&gt;innovation_mod -->
<g id="edge6" class="edge">
<title>midas_midas_letkf&#45;&gt;innovation_mod</title>
<path fill="none" stroke="black" d="M283.9,-424.58C289.18,-415.85 294.66,-405.76 298.5,-396 313.35,-358.28 318.5,-347.54 318.5,-307 318.5,-307 318.5,-307 318.5,-161 318.5,-115.89 318.5,-62.71 318.5,-36.05"/>
<ellipse fill="black" stroke="black" cx="281.67" cy="-428.15" rx="4" ry="4"/>
</g>
<!-- midas_midas_obsimpact -->
<g id="node8" class="node">
<title>midas_midas_obsimpact</title>
<g id="a_node8"><a xlink:href="../programs/midas_obsimpact.html" xlink:title="midas_midas_obsimpact">
<polygon fill="gray" stroke="green" points="366.5,-540 214.5,-540 214.5,-504 366.5,-504 366.5,-540"/>
<text text-anchor="middle" x="290.5" y="-518.3" font-family="Times,serif" font-size="14.00">midas_midas_obsimpact</text>
</a>
</g>
</g>
<!-- midas_midas_obsimpact&#45;&gt;innovation_mod -->
<g id="edge7" class="edge">
<title>midas_midas_obsimpact&#45;&gt;innovation_mod</title>
<path fill="none" stroke="black" d="M315.86,-497.69C323.87,-489.08 332.05,-478.78 337.5,-468 355.74,-431.9 356.5,-419.45 356.5,-379 356.5,-379 356.5,-379 356.5,-161 356.5,-114.55 337.29,-62.38 326.19,-36.09"/>
<ellipse fill="black" stroke="black" cx="312.87" cy="-500.77" rx="4" ry="4"/>
</g>
<!-- midas_midas_obsselection -->
<g id="node9" class="node">
<title>midas_midas_obsselection</title>
<g id="a_node9"><a xlink:href="../programs/midas_obsselection.html" xlink:title="midas_midas_obsselection">
<polygon fill="gray" stroke="green" points="476,-612 313,-612 313,-576 476,-576 476,-612"/>
<text text-anchor="middle" x="394.5" y="-590.3" font-family="Times,serif" font-size="14.00">midas_midas_obsselection</text>
</a>
</g>
</g>
<!-- midas_midas_obsselection&#45;&gt;innovation_mod -->
<g id="edge8" class="edge">
<title>midas_midas_obsselection&#45;&gt;innovation_mod</title>
<path fill="none" stroke="black" d="M394.5,-567.78C394.5,-539.39 394.5,-491.89 394.5,-451 394.5,-451 394.5,-451 394.5,-161 394.5,-110.95 357.34,-61.47 334.99,-36.23"/>
<ellipse fill="black" stroke="black" cx="394.5" cy="-571.95" rx="4" ry="4"/>
</g>
<!-- midas_midas_sstbias -->
<g id="node10" class="node">
<title>midas_midas_sstbias</title>
<g id="a_node10"><a xlink:href="../programs/midas_sstbias.html" xlink:title="midas_midas_sstbias">
<polygon fill="gray" stroke="green" points="554.5,-108 422.5,-108 422.5,-72 554.5,-72 554.5,-108"/>
<text text-anchor="middle" x="488.5" y="-86.3" font-family="Times,serif" font-size="14.00">midas_midas_sstbias</text>
</a>
</g>
</g>
<!-- midas_midas_sstbias&#45;&gt;innovation_mod -->
<g id="edge9" class="edge">
<title>midas_midas_sstbias&#45;&gt;innovation_mod</title>
<path fill="none" stroke="black" d="M439.29,-68.74C414.14,-58.38 383.89,-45.93 359.95,-36.07"/>
<ellipse fill="black" stroke="black" cx="443.21" cy="-70.35" rx="4" ry="4"/>
</g>
<!-- midas_midas_var1d -->
<g id="node11" class="node">
<title>midas_midas_var1d</title>
<g id="a_node11"><a xlink:href="../programs/midas_var1d.html" xlink:title="midas_midas_var1d">
<polygon fill="gray" stroke="green" points="646,-180 519,-180 519,-144 646,-144 646,-180"/>
<text text-anchor="middle" x="582.5" y="-158.3" font-family="Times,serif" font-size="14.00">midas_midas_var1d</text>
</a>
</g>
</g>
<!-- midas_midas_var1d&#45;&gt;innovation_mod -->
<g id="edge10" class="edge">
<title>midas_midas_var1d&#45;&gt;innovation_mod</title>
<path fill="none" stroke="black" d="M584.02,-135.63C583.78,-115.67 580,-88.54 563.5,-72 537.03,-45.46 435.26,-30.64 371.51,-23.78"/>
<ellipse fill="black" stroke="black" cx="583.98" cy="-139.7" rx="4" ry="4"/>
</g>
<!-- midas_midas_var -->
<g id="node12" class="node">
<title>midas_midas_var</title>
<g id="a_node12"><a xlink:href="../programs/midas_var.html" xlink:title="midas_midas_var">
<polygon fill="gray" stroke="green" points="731,-252 618,-252 618,-216 731,-216 731,-252"/>
<text text-anchor="middle" x="674.5" y="-230.3" font-family="Times,serif" font-size="14.00">midas_midas_var</text>
</a>
</g>
</g>
<!-- midas_midas_var&#45;&gt;innovation_mod -->
<g id="edge11" class="edge">
<title>midas_midas_var&#45;&gt;innovation_mod</title>
<path fill="none" stroke="black" d="M672.43,-207.67C670.08,-189.14 665.08,-163.88 654.5,-144 633.83,-105.14 625.03,-93.28 586.5,-72 518.62,-34.51 428.13,-23.29 371.6,-20.07"/>
<ellipse fill="black" stroke="black" cx="672.88" cy="-211.69" rx="4" ry="4"/>
</g>
</g>
</svg>
