<?xml version="1.0" encoding="UTF-8" standalone="no"?>
<!DOCTYPE svg PUBLIC "-//W3C//DTD SVG 1.1//EN"
 "http://www.w3.org/Graphics/SVG/1.1/DTD/svg11.dtd">
<!-- Generated by graphviz version 3.0.0 (20220315.2325)
 -->
<!-- Title: innovation_mod Pages: 1 -->
<svg width="1555pt" height="673pt"
 viewBox="0.00 0.00 1555.00 673.00" xmlns="http://www.w3.org/2000/svg" xmlns:xlink="http://www.w3.org/1999/xlink">
<g id="graph0" class="graph" transform="scale(1 1) rotate(0) translate(4 669)">
<title>innovation_mod</title>
<polygon fill="white" stroke="transparent" points="-4,4 -4,-669 1551,-669 1551,4 -4,4"/>
<text text-anchor="middle" x="773.5" y="-37.8" font-family="Times,serif" font-size="14.00">Red boxes indicate modules with dependencies not shown</text>
<text text-anchor="middle" x="773.5" y="-22.8" font-family="Times,serif" font-size="14.00">Lower level dependencies can be shown by clicking on a red box</text>
<text text-anchor="middle" x="773.5" y="-7.8" font-family="Times,serif" font-size="14.00">Shaded boxes indicate modules with no dependencies</text>
<!-- innovation_mod -->
<g id="node1" class="node">
<title>innovation_mod</title>
<g id="a_node1"><a xlink:href="innovation_mod.html" xlink:title="innovation_mod">
<polygon fill="none" stroke="black" points="807,-665 701,-665 701,-629 807,-629 807,-665"/>
<text text-anchor="middle" x="754" y="-643.3" font-family="Times,serif" font-size="14.00">innovation_mod</text>
</a>
</g>
</g>
<!-- biascorrectionsat_mod -->
<g id="node2" class="node">
<title>biascorrectionsat_mod</title>
<g id="a_node2"><a xlink:href="../modules/biascorrectionsat_mod.svg" xlink:title="biascorrectionsat_mod">
<polygon fill="none" stroke="red" points="140,-593 0,-593 0,-557 140,-557 140,-593"/>
<text text-anchor="middle" x="70" y="-571.3" font-family="Times,serif" font-size="14.00">biascorrectionsat_mod</text>
</a>
</g>
</g>
<!-- innovation_mod&#45;&gt;biascorrectionsat_mod -->
<g id="edge1" class="edge">
<title>innovation_mod&#45;&gt;biascorrectionsat_mod</title>
<path fill="none" stroke="black" d="M700.8,-643.3C595.82,-637.53 354.77,-622.09 154,-593 152.72,-592.81 151.42,-592.62 150.12,-592.42"/>
<polygon fill="black" stroke="black" points="150.46,-588.93 140.02,-590.78 149.33,-595.84 150.46,-588.93"/>
</g>
<!-- bufr_mod -->
<g id="node3" class="node">
<title>bufr_mod</title>
<g id="a_node3"><a xlink:href="bufr_mod.html" xlink:title="bufr_mod">
<polygon fill="gray" stroke="black" points="190.5,-521 119.5,-521 119.5,-485 190.5,-485 190.5,-521"/>
<text text-anchor="middle" x="155" y="-499.3" font-family="Times,serif" font-size="14.00">bufr_mod</text>
</a>
</g>
</g>
<!-- innovation_mod&#45;&gt;bufr_mod -->
<g id="edge2" class="edge">
<title>innovation_mod&#45;&gt;bufr_mod</title>
<path fill="none" stroke="black" d="M700.79,-643.65C571.04,-637.53 245.96,-619.7 205,-593 183.05,-578.7 169.78,-551.24 162.48,-530.59"/>
<polygon fill="black" stroke="black" points="165.81,-529.5 159.37,-521.08 159.16,-531.68 165.81,-529.5"/>
</g>
<!-- columndata_mod -->
<g id="node4" class="node">
<title>columndata_mod</title>
<g id="a_node4"><a xlink:href="../modules/columndata_mod.svg" xlink:title="columndata_mod">
<polygon fill="none" stroke="red" points="229,-449 117,-449 117,-413 229,-413 229,-449"/>
<text text-anchor="middle" x="173" y="-427.3" font-family="Times,serif" font-size="14.00">columndata_mod</text>
</a>
</g>
</g>
<!-- innovation_mod&#45;&gt;columndata_mod -->
<g id="edge3" class="edge">
<title>innovation_mod&#45;&gt;columndata_mod</title>
<path fill="none" stroke="black" d="M700.65,-643.55C577.09,-637.44 279.07,-620.06 243,-593 201.54,-561.9 220.2,-532.29 199,-485 195.04,-476.17 190.46,-466.64 186.26,-458.13"/>
<polygon fill="black" stroke="black" points="189.33,-456.43 181.73,-449.04 183.06,-459.55 189.33,-456.43"/>
</g>
<!-- costfunction_mod -->
<g id="node5" class="node">
<title>costfunction_mod</title>
<g id="a_node5"><a xlink:href="../modules/costfunction_mod.svg" xlink:title="costfunction_mod">
<polygon fill="none" stroke="red" points="266.5,-377 151.5,-377 151.5,-341 266.5,-341 266.5,-377"/>
<text text-anchor="middle" x="209" y="-355.3" font-family="Times,serif" font-size="14.00">costfunction_mod</text>
</a>
</g>
</g>
<!-- innovation_mod&#45;&gt;costfunction_mod -->
<g id="edge4" class="edge">
<title>innovation_mod&#45;&gt;costfunction_mod</title>
<path fill="none" stroke="black" d="M700.88,-643.45C583.92,-637.36 311.99,-620.4 281,-593 219.38,-538.52 267.56,-489.76 238,-413 234.49,-403.9 229.71,-394.41 225.04,-386.03"/>
<polygon fill="black" stroke="black" points="227.91,-384.01 219.88,-377.1 221.85,-387.51 227.91,-384.01"/>
</g>
<!-- gps_mod -->
<g id="node6" class="node">
<title>gps_mod</title>
<g id="a_node6"><a xlink:href="../modules/gps_mod.svg" xlink:title="gps_mod">
<polygon fill="none" stroke="red" points="305,-305 237,-305 237,-269 305,-269 305,-305"/>
<text text-anchor="middle" x="271" y="-283.3" font-family="Times,serif" font-size="14.00">gps_mod</text>
</a>
</g>
</g>
<!-- innovation_mod&#45;&gt;gps_mod -->
<g id="edge5" class="edge">
<title>innovation_mod&#45;&gt;gps_mod</title>
<path fill="none" stroke="black" d="M700.82,-646.68C597.53,-646.9 374.97,-641.53 319,-593 288.05,-566.16 295,-544.97 295,-504 295,-504 295,-504 295,-430 295,-389.65 285.46,-343.74 278.41,-315.32"/>
<polygon fill="black" stroke="black" points="281.73,-314.15 275.86,-305.33 274.94,-315.88 281.73,-314.15"/>
</g>
<!-- gridstatevector_mod -->
<g id="node7" class="node">
<title>gridstatevector_mod</title>
<g id="a_node7"><a xlink:href="../modules/gridstatevector_mod.svg" xlink:title="gridstatevector_mod">
<polygon fill="none" stroke="red" points="343,-233 213,-233 213,-197 343,-197 343,-233"/>
<text text-anchor="middle" x="278" y="-211.3" font-family="Times,serif" font-size="14.00">gridstatevector_mod</text>
</a>
</g>
</g>
<!-- innovation_mod&#45;&gt;gridstatevector_mod -->
<g id="edge6" class="edge">
<title>innovation_mod&#45;&gt;gridstatevector_mod</title>
<path fill="none" stroke="black" d="M700.63,-645.96C604.37,-644.78 407.05,-636.9 357,-593 326.2,-565.98 333,-544.97 333,-504 333,-504 333,-504 333,-358 333,-317.55 329.88,-306.2 314,-269 309.92,-259.43 304.01,-249.78 298.16,-241.39"/>
<polygon fill="black" stroke="black" points="300.88,-239.17 292.16,-233.15 295.22,-243.29 300.88,-239.17"/>
</g>
<!-- horizontalcoord_mod -->
<g id="node8" class="node">
<title>horizontalcoord_mod</title>
<g id="a_node8"><a xlink:href="../modules/horizontalcoord_mod.svg" xlink:title="horizontalcoord_mod">
<polygon fill="none" stroke="red" points="381,-161 247,-161 247,-125 381,-125 381,-161"/>
<text text-anchor="middle" x="314" y="-139.3" font-family="Times,serif" font-size="14.00">horizontalcoord_mod</text>
</a>
</g>
</g>
<!-- innovation_mod&#45;&gt;horizontalcoord_mod -->
<g id="edge7" class="edge">
<title>innovation_mod&#45;&gt;horizontalcoord_mod</title>
<path fill="none" stroke="black" d="M700.83,-645.1C612.12,-642.49 439.25,-632.36 395,-593 364.39,-565.77 371,-544.97 371,-504 371,-504 371,-504 371,-286 371,-245.55 368.35,-233.99 352,-197 347.67,-187.21 341.36,-177.43 335.12,-168.98"/>
<polygon fill="black" stroke="black" points="337.86,-166.8 328.98,-161.03 332.32,-171.08 337.86,-166.8"/>
</g>
<!-- humiditylimits_mod -->
<g id="node9" class="node">
<title>humiditylimits_mod</title>
<g id="a_node9"><a xlink:href="../modules/humiditylimits_mod.svg" xlink:title="humiditylimits_mod">
<polygon fill="none" stroke="red" points="473.5,-89 344.5,-89 344.5,-53 473.5,-53 473.5,-89"/>
<text text-anchor="middle" x="409" y="-67.3" font-family="Times,serif" font-size="14.00">humiditylimits_mod</text>
</a>
</g>
</g>
<!-- innovation_mod&#45;&gt;humiditylimits_mod -->
<g id="edge8" class="edge">
<title>innovation_mod&#45;&gt;humiditylimits_mod</title>
<path fill="none" stroke="black" d="M700.88,-644.44C618.73,-640.9 466.31,-629.47 428,-593 398.71,-565.11 409,-544.45 409,-504 409,-504 409,-504 409,-214 409,-174 409,-127.65 409,-99.08"/>
<polygon fill="black" stroke="black" points="412.5,-99.05 409,-89.05 405.5,-99.05 412.5,-99.05"/>
</g>
<!-- interpolation_mod -->
<g id="node10" class="node">
<title>interpolation_mod</title>
<g id="a_node10"><a xlink:href="../modules/interpolation_mod.svg" xlink:title="interpolation_mod">
<polygon fill="none" stroke="red" points="555,-593 437,-593 437,-557 555,-557 555,-593"/>
<text text-anchor="middle" x="496" y="-571.3" font-family="Times,serif" font-size="14.00">interpolation_mod</text>
</a>
</g>
</g>
<!-- innovation_mod&#45;&gt;interpolation_mod -->
<g id="edge9" class="edge">
<title>innovation_mod&#45;&gt;interpolation_mod</title>
<path fill="none" stroke="black" d="M700.86,-631.58C661.58,-620.92 607.75,-606.32 565.13,-594.76"/>
<polygon fill="black" stroke="black" points="565.95,-591.35 555.39,-592.11 564.12,-598.11 565.95,-591.35"/>
</g>
<!-- mathphysconstants_mod -->
<g id="node11" class="node">
<title>mathphysconstants_mod</title>
<g id="a_node11"><a xlink:href="mathphysconstants_mod.html" xlink:title="mathphysconstants_mod">
<polygon fill="gray" stroke="black" points="593,-521 441,-521 441,-485 593,-485 593,-521"/>
<text text-anchor="middle" x="517" y="-499.3" font-family="Times,serif" font-size="14.00">mathphysconstants_mod</text>
</a>
</g>
</g>
<!-- innovation_mod&#45;&gt;mathphysconstants_mod -->
<g id="edge10" class="edge">
<title>innovation_mod&#45;&gt;mathphysconstants_mod</title>
<path fill="none" stroke="black" d="M700.79,-632.89C671.68,-624.26 635.79,-611.17 607,-593 592.22,-583.68 561.08,-551.59 539.6,-528.62"/>
<polygon fill="black" stroke="black" points="542.1,-526.17 532.72,-521.23 536.97,-530.94 542.1,-526.17"/>
</g>
<!-- message_mod -->
<g id="node12" class="node">
<title>message_mod</title>
<g id="a_node12"><a xlink:href="../modules/message_mod.svg" xlink:title="message_mod">
<polygon fill="none" stroke="red" points="630.5,-449 535.5,-449 535.5,-413 630.5,-413 630.5,-449"/>
<text text-anchor="middle" x="583" y="-427.3" font-family="Times,serif" font-size="14.00">message_mod</text>
</a>
</g>
</g>
<!-- innovation_mod&#45;&gt;message_mod -->
<g id="edge11" class="edge">
<title>innovation_mod&#45;&gt;message_mod</title>
<path fill="none" stroke="black" d="M700.85,-629.54C681.17,-621.23 660.02,-609.35 645,-593 640.23,-587.81 608.92,-503.12 592.71,-458.71"/>
<polygon fill="black" stroke="black" points="595.92,-457.32 589.21,-449.13 589.35,-459.72 595.92,-457.32"/>
</g>
<!-- midasmpi_mod -->
<g id="node13" class="node">
<title>midasmpi_mod</title>
<g id="a_node13"><a xlink:href="../modules/midasmpi_mod.svg" xlink:title="midasmpi_mod">
<polygon fill="none" stroke="red" points="669,-377 567,-377 567,-341 669,-341 669,-377"/>
<text text-anchor="middle" x="618" y="-355.3" font-family="Times,serif" font-size="14.00">midasmpi_mod</text>
</a>
</g>
</g>
<!-- innovation_mod&#45;&gt;midasmpi_mod -->
<g id="edge12" class="edge">
<title>innovation_mod&#45;&gt;midasmpi_mod</title>
<path fill="none" stroke="black" d="M722,-628.9C708.08,-619.94 692.76,-607.75 683,-593 637.55,-524.32 664.01,-491.47 639,-413 636.24,-404.32 632.75,-395.04 629.41,-386.7"/>
<polygon fill="black" stroke="black" points="632.65,-385.37 625.62,-377.45 626.17,-388.03 632.65,-385.37"/>
</g>
<!-- multiirbgck_mod -->
<g id="node14" class="node">
<title>multiirbgck_mod</title>
<g id="a_node14"><a xlink:href="../modules/multiirbgck_mod.svg" xlink:title="multiirbgck_mod">
<polygon fill="none" stroke="red" points="707,-305 595,-305 595,-269 707,-269 707,-305"/>
<text text-anchor="middle" x="651" y="-283.3" font-family="Times,serif" font-size="14.00">multiirbgck_mod</text>
</a>
</g>
</g>
<!-- innovation_mod&#45;&gt;multiirbgck_mod -->
<g id="edge13" class="edge">
<title>innovation_mod&#45;&gt;multiirbgck_mod</title>
<path fill="none" stroke="black" d="M741.33,-628.57C734.53,-618.56 726.45,-605.52 721,-593 704.66,-555.43 697,-544.97 697,-504 697,-504 697,-504 697,-430 697,-389.55 691.52,-379.12 678,-341 674.79,-331.95 670.35,-322.48 666,-314.09"/>
<polygon fill="black" stroke="black" points="669.01,-312.3 661.19,-305.16 662.85,-315.62 669.01,-312.3"/>
</g>
<!-- obserrors_mod -->
<g id="node15" class="node">
<title>obserrors_mod</title>
<g id="a_node15"><a xlink:href="../modules/obserrors_mod.svg" xlink:title="obserrors_mod">
<polygon fill="none" stroke="red" points="744.5,-233 645.5,-233 645.5,-197 744.5,-197 744.5,-233"/>
<text text-anchor="middle" x="695" y="-211.3" font-family="Times,serif" font-size="14.00">obserrors_mod</text>
</a>
</g>
</g>
<!-- innovation_mod&#45;&gt;obserrors_mod -->
<g id="edge14" class="edge">
<title>innovation_mod&#45;&gt;obserrors_mod</title>
<path fill="none" stroke="black" d="M750.16,-628.61C744.6,-601.94 735,-549.27 735,-504 735,-504 735,-504 735,-358 735,-316.48 718.96,-270.61 707.2,-242.54"/>
<polygon fill="black" stroke="black" points="710.27,-240.84 703.09,-233.05 703.85,-243.62 710.27,-240.84"/>
</g>
<!-- obsfiles_mod -->
<g id="node16" class="node">
<title>obsfiles_mod</title>
<g id="a_node16"><a xlink:href="../modules/obsfiles_mod.svg" xlink:title="obsfiles_mod">
<polygon fill="none" stroke="red" points="782.5,-161 693.5,-161 693.5,-125 782.5,-125 782.5,-161"/>
<text text-anchor="middle" x="738" y="-139.3" font-family="Times,serif" font-size="14.00">obsfiles_mod</text>
</a>
</g>
</g>
<!-- innovation_mod&#45;&gt;obsfiles_mod -->
<g id="edge15" class="edge">
<title>innovation_mod&#45;&gt;obsfiles_mod</title>
<path fill="none" stroke="black" d="M757.84,-628.61C763.4,-601.94 773,-549.27 773,-504 773,-504 773,-504 773,-286 773,-244.84 758.97,-198.88 748.67,-170.69"/>
<polygon fill="black" stroke="black" points="751.88,-169.28 745.08,-161.15 745.33,-171.74 751.88,-169.28"/>
</g>
<!-- obsfilter_mod -->
<g id="node17" class="node">
<title>obsfilter_mod</title>
<g id="a_node17"><a xlink:href="../modules/obsfilter_mod.svg" xlink:title="obsfilter_mod">
<polygon fill="none" stroke="red" points="857,-89 765,-89 765,-53 857,-53 857,-89"/>
<text text-anchor="middle" x="811" y="-67.3" font-family="Times,serif" font-size="14.00">obsfilter_mod</text>
</a>
</g>
</g>
<!-- innovation_mod&#45;&gt;obsfilter_mod -->
<g id="edge16" class="edge">
<title>innovation_mod&#45;&gt;obsfilter_mod</title>
<path fill="none" stroke="black" d="M765.81,-628.96C782.51,-603.16 811,-552.08 811,-504 811,-504 811,-504 811,-214 811,-174 811,-127.65 811,-99.08"/>
<polygon fill="black" stroke="black" points="814.5,-99.05 811,-89.05 807.5,-99.05 814.5,-99.05"/>
</g>
<!-- obsoperators_mod -->
<g id="node18" class="node">
<title>obsoperators_mod</title>
<g id="a_node18"><a xlink:href="../modules/obsoperators_mod.svg" xlink:title="obsoperators_mod">
<polygon fill="none" stroke="red" points="956.5,-593 839.5,-593 839.5,-557 956.5,-557 956.5,-593"/>
<text text-anchor="middle" x="898" y="-571.3" font-family="Times,serif" font-size="14.00">obsoperators_mod</text>
</a>
</g>
</g>
<!-- innovation_mod&#45;&gt;obsoperators_mod -->
<g id="edge17" class="edge">
<title>innovation_mod&#45;&gt;obsoperators_mod</title>
<path fill="none" stroke="black" d="M789.23,-628.88C808.58,-619.47 832.77,-607.71 853.43,-597.67"/>
<polygon fill="black" stroke="black" points="855.17,-600.71 862.64,-593.19 852.11,-594.41 855.17,-600.71"/>
</g>
<!-- obsspacedata_mod -->
<g id="node19" class="node">
<title>obsspacedata_mod</title>
<g id="a_node19"><a xlink:href="../modules/obsspacedata_mod.svg" xlink:title="obsspacedata_mod">
<polygon fill="none" stroke="red" points="994.5,-521 875.5,-521 875.5,-485 994.5,-485 994.5,-521"/>
<text text-anchor="middle" x="935" y="-499.3" font-family="Times,serif" font-size="14.00">obsspacedata_mod</text>
</a>
</g>
</g>
<!-- innovation_mod&#45;&gt;obsspacedata_mod -->
<g id="edge18" class="edge">
<title>innovation_mod&#45;&gt;obsspacedata_mod</title>
<path fill="none" stroke="black" d="M807,-640.09C862.98,-632.62 945.75,-617.68 965,-593 979.52,-574.38 968.01,-548.34 955.28,-529.24"/>
<polygon fill="black" stroke="black" points="958.07,-527.13 949.43,-521.01 952.36,-531.19 958.07,-527.13"/>
</g>
<!-- obstimeinterp_mod -->
<g id="node20" class="node">
<title>obstimeinterp_mod</title>
<g id="a_node20"><a xlink:href="../modules/obstimeinterp_mod.svg" xlink:title="obstimeinterp_mod">
<polygon fill="none" stroke="red" points="1033,-449 909,-449 909,-413 1033,-413 1033,-449"/>
<text text-anchor="middle" x="971" y="-427.3" font-family="Times,serif" font-size="14.00">obstimeinterp_mod</text>
</a>
</g>
</g>
<!-- innovation_mod&#45;&gt;obstimeinterp_mod -->
<g id="edge19" class="edge">
<title>innovation_mod&#45;&gt;obstimeinterp_mod</title>
<path fill="none" stroke="black" d="M807,-640.02C866.54,-632.26 958.13,-616.81 983,-593 1018.26,-559.24 1016.1,-532.03 1003,-485 1000.33,-475.42 995.41,-465.84 990.22,-457.51"/>
<polygon fill="black" stroke="black" points="993.02,-455.41 984.56,-449.03 987.2,-459.29 993.02,-455.41"/>
</g>
<!-- randomnumber_mod -->
<g id="node21" class="node">
<title>randomnumber_mod</title>
<g id="a_node21"><a xlink:href="randomnumber_mod.html" xlink:title="randomnumber_mod">
<polygon fill="gray" stroke="black" points="1071,-377 939,-377 939,-341 1071,-341 1071,-377"/>
<text text-anchor="middle" x="1005" y="-355.3" font-family="Times,serif" font-size="14.00">randomnumber_mod</text>
</a>
</g>
</g>
<!-- innovation_mod&#45;&gt;randomnumber_mod -->
<g id="edge20" class="edge">
<title>innovation_mod&#45;&gt;randomnumber_mod</title>
<path fill="none" stroke="black" d="M807.03,-641.73C873.41,-635.28 981.84,-620.76 1010,-593 1067.87,-535.96 1066.38,-490.51 1042,-413 1038.9,-403.15 1033.25,-393.53 1027.28,-385.25"/>
<polygon fill="black" stroke="black" points="1029.91,-382.94 1021.04,-377.15 1024.37,-387.21 1029.91,-382.94"/>
</g>
<!-- rmatrix_mod -->
<g id="node22" class="node">
<title>rmatrix_mod</title>
<g id="a_node22"><a xlink:href="../modules/rmatrix_mod.svg" xlink:title="rmatrix_mod">
<polygon fill="none" stroke="red" points="1109,-305 1019,-305 1019,-269 1109,-269 1109,-305"/>
<text text-anchor="middle" x="1064" y="-283.3" font-family="Times,serif" font-size="14.00">rmatrix_mod</text>
</a>
</g>
</g>
<!-- innovation_mod&#45;&gt;rmatrix_mod -->
<g id="edge21" class="edge">
<title>innovation_mod&#45;&gt;rmatrix_mod</title>
<path fill="none" stroke="black" d="M807.12,-641.05C878.74,-633.55 1001.6,-617.54 1039,-593 1078.88,-566.83 1099,-551.7 1099,-504 1099,-504 1099,-504 1099,-430 1099,-388.84 1084.97,-342.88 1074.67,-314.69"/>
<polygon fill="black" stroke="black" points="1077.88,-313.28 1071.08,-305.15 1071.33,-315.74 1077.88,-313.28"/>
</g>
<!-- statetocolumn_mod -->
<g id="node23" class="node">
<title>statetocolumn_mod</title>
<g id="a_node23"><a xlink:href="../modules/statetocolumn_mod.svg" xlink:title="statetocolumn_mod">
<polygon fill="none" stroke="red" points="1146.5,-233 1021.5,-233 1021.5,-197 1146.5,-197 1146.5,-233"/>
<text text-anchor="middle" x="1084" y="-211.3" font-family="Times,serif" font-size="14.00">statetocolumn_mod</text>
</a>
</g>
</g>
<!-- innovation_mod&#45;&gt;statetocolumn_mod -->
<g id="edge22" class="edge">
<title>innovation_mod&#45;&gt;statetocolumn_mod</title>
<path fill="none" stroke="black" d="M807.08,-642.23C886.44,-635.77 1031.35,-620.55 1075,-593 1115.77,-567.27 1137,-552.21 1137,-504 1137,-504 1137,-504 1137,-358 1137,-317.55 1133.39,-306.4 1118,-269 1114.11,-259.55 1108.52,-249.93 1103,-241.52"/>
<polygon fill="black" stroke="black" points="1105.88,-239.54 1097.34,-233.27 1100.11,-243.49 1105.88,-239.54"/>
</g>
<!-- timecoord_mod -->
<g id="node24" class="node">
<title>timecoord_mod</title>
<g id="a_node24"><a xlink:href="../modules/timecoord_mod.svg" xlink:title="timecoord_mod">
<polygon fill="none" stroke="red" points="1185,-161 1081,-161 1081,-125 1185,-125 1185,-161"/>
<text text-anchor="middle" x="1133" y="-139.3" font-family="Times,serif" font-size="14.00">timecoord_mod</text>
</a>
</g>
</g>
<!-- innovation_mod&#45;&gt;timecoord_mod -->
<g id="edge23" class="edge">
<title>innovation_mod&#45;&gt;timecoord_mod</title>
<path fill="none" stroke="black" d="M807.09,-643.23C893.99,-637.86 1061.94,-623.75 1112,-593 1153.29,-567.63 1175,-552.46 1175,-504 1175,-504 1175,-504 1175,-286 1175,-244.15 1158.01,-198.1 1145.65,-170.11"/>
<polygon fill="black" stroke="black" points="1148.83,-168.66 1141.5,-161.01 1142.46,-171.56 1148.83,-168.66"/>
</g>
<!-- tovsnl_mod -->
<g id="node25" class="node">
<title>tovsnl_mod</title>
<g id="a_node25"><a xlink:href="../modules/tovsnl_mod.svg" xlink:title="tovsnl_mod">
<polygon fill="none" stroke="red" points="1253.5,-89 1172.5,-89 1172.5,-53 1253.5,-53 1253.5,-89"/>
<text text-anchor="middle" x="1213" y="-67.3" font-family="Times,serif" font-size="14.00">tovsnl_mod</text>
</a>
</g>
</g>
<!-- innovation_mod&#45;&gt;tovsnl_mod -->
<g id="edge24" class="edge">
<title>innovation_mod&#45;&gt;tovsnl_mod</title>
<path fill="none" stroke="black" d="M807.03,-644.1C901.28,-639.88 1093.39,-627.24 1150,-593 1191.47,-567.92 1213,-552.46 1213,-504 1213,-504 1213,-504 1213,-214 1213,-174 1213,-127.65 1213,-99.08"/>
<polygon fill="black" stroke="black" points="1216.5,-99.05 1213,-89.05 1209.5,-99.05 1216.5,-99.05"/>
</g>
<!-- utilities_mod -->
<g id="node26" class="node">
<title>utilities_mod</title>
<g id="a_node26"><a xlink:href="../modules/utilities_mod.svg" xlink:title="utilities_mod">
<polygon fill="none" stroke="red" points="1330.5,-593 1241.5,-593 1241.5,-557 1330.5,-557 1330.5,-593"/>
<text text-anchor="middle" x="1286" y="-571.3" font-family="Times,serif" font-size="14.00">utilities_mod</text>
</a>
</g>
</g>
<!-- innovation_mod&#45;&gt;utilities_mod -->
<g id="edge25" class="edge">
<title>innovation_mod&#45;&gt;utilities_mod</title>
<path fill="none" stroke="black" d="M807.3,-642.97C895.35,-637.31 1076.45,-622.9 1227,-593 1228.47,-592.71 1229.96,-592.4 1231.45,-592.07"/>
<polygon fill="black" stroke="black" points="1232.5,-595.42 1241.42,-589.7 1230.88,-588.61 1232.5,-595.42"/>
</g>
<!-- varnamelist_mod -->
<g id="node27" class="node">
<title>varnamelist_mod</title>
<g id="a_node27"><a xlink:href="../modules/varnamelist_mod.svg" xlink:title="varnamelist_mod">
<polygon fill="none" stroke="red" points="1391.5,-521 1278.5,-521 1278.5,-485 1391.5,-485 1391.5,-521"/>
<text text-anchor="middle" x="1335" y="-499.3" font-family="Times,serif" font-size="14.00">varnamelist_mod</text>
</a>
</g>
</g>
<!-- innovation_mod&#45;&gt;varnamelist_mod -->
<g id="edge26" class="edge">
<title>innovation_mod&#45;&gt;varnamelist_mod</title>
<path fill="none" stroke="black" d="M807.17,-645.18C944.63,-642.52 1303.49,-631.87 1339,-593 1354.01,-576.57 1350.88,-550.48 1345.26,-530.79"/>
<polygon fill="black" stroke="black" points="1348.56,-529.62 1342.18,-521.16 1341.9,-531.75 1348.56,-529.62"/>
</g>
<!-- varqc_mod -->
<g id="node28" class="node">
<title>varqc_mod</title>
<g id="a_node28"><a xlink:href="../modules/varqc_mod.svg" xlink:title="varqc_mod">
<polygon fill="none" stroke="red" points="1459,-449 1381,-449 1381,-413 1459,-413 1459,-449"/>
<text text-anchor="middle" x="1420" y="-427.3" font-family="Times,serif" font-size="14.00">varqc_mod</text>
</a>
</g>
</g>
<!-- innovation_mod&#45;&gt;varqc_mod -->
<g id="edge27" class="edge">
<title>innovation_mod&#45;&gt;varqc_mod</title>
<path fill="none" stroke="black" d="M807.21,-644.15C946.3,-638.91 1313.1,-622.44 1359,-593 1403.88,-564.21 1415.83,-497.37 1418.96,-459.48"/>
<polygon fill="black" stroke="black" points="1422.47,-459.39 1419.64,-449.17 1415.49,-458.92 1422.47,-459.39"/>
</g>
<!-- verticalcoord_mod -->
<g id="node29" class="node">
<title>verticalcoord_mod</title>
<g id="a_node29"><a xlink:href="../modules/verticalcoord_mod.svg" xlink:title="verticalcoord_mod">
<polygon fill="none" stroke="red" points="1547,-377 1427,-377 1427,-341 1547,-341 1547,-377"/>
<text text-anchor="middle" x="1487" y="-355.3" font-family="Times,serif" font-size="14.00">verticalcoord_mod</text>
</a>
</g>
</g>
<!-- innovation_mod&#45;&gt;verticalcoord_mod -->
<g id="edge28" class="edge">
<title>innovation_mod&#45;&gt;verticalcoord_mod</title>
<path fill="none" stroke="black" d="M807.09,-644.45C951.12,-639.84 1341.71,-624.55 1390,-593 1460.57,-546.89 1479.85,-438.5 1485.08,-387.47"/>
<polygon fill="black" stroke="black" points="1488.59,-387.49 1486.02,-377.21 1481.62,-386.85 1488.59,-387.49"/>
</g>
</g>
</svg>
