<?xml version="1.0" encoding="UTF-8" standalone="no"?>
<!DOCTYPE svg PUBLIC "-//W3C//DTD SVG 1.1//EN"
 "http://www.w3.org/Graphics/SVG/1.1/DTD/svg11.dtd">
<!-- Generated by graphviz version 3.0.0 (20220315.2325)
 -->
<!-- Title: interpolation_mod Pages: 1 -->
<svg width="746pt" height="673pt"
 viewBox="0.00 0.00 746.00 673.00" xmlns="http://www.w3.org/2000/svg" xmlns:xlink="http://www.w3.org/1999/xlink">
<g id="graph0" class="graph" transform="scale(1 1) rotate(0) translate(4 669)">
<title>interpolation_mod</title>
<polygon fill="white" stroke="transparent" points="-4,4 -4,-669 742,-669 742,4 -4,4"/>
<text text-anchor="middle" x="369" y="-37.8" font-family="Times,serif" font-size="14.00">Red boxes indicate modules with dependencies not shown</text>
<text text-anchor="middle" x="369" y="-22.8" font-family="Times,serif" font-size="14.00">Lower level dependencies can be shown by clicking on a red box</text>
<text text-anchor="middle" x="369" y="-7.8" font-family="Times,serif" font-size="14.00">Shaded boxes indicate modules with no dependencies</text>
<!-- interpolation_mod -->
<g id="node1" class="node">
<title>interpolation_mod</title>
<g id="a_node1"><a xlink:href="interpolation_mod.html" xlink:title="interpolation_mod">
<polygon fill="none" stroke="black" points="430,-665 312,-665 312,-629 430,-629 430,-665"/>
<text text-anchor="middle" x="371" y="-643.3" font-family="Times,serif" font-size="14.00">interpolation_mod</text>
</a>
</g>
</g>
<!-- calcheightandpressure_mod -->
<g id="node2" class="node">
<title>calcheightandpressure_mod</title>
<g id="a_node2"><a xlink:href="../modules/calcheightandpressure_mod.svg" xlink:title="calcheightandpressure_mod">
<polygon fill="none" stroke="red" points="168,-593 0,-593 0,-557 168,-557 168,-593"/>
<text text-anchor="middle" x="84" y="-571.3" font-family="Times,serif" font-size="14.00">calcheightandpressure_mod</text>
</a>
</g>
</g>
<!-- interpolation_mod&#45;&gt;calcheightandpressure_mod -->
<g id="edge1" class="edge">
<title>interpolation_mod&#45;&gt;calcheightandpressure_mod</title>
<path fill="none" stroke="black" d="M311.88,-631.58C269.06,-621.14 210.7,-606.9 163.76,-595.45"/>
<polygon fill="black" stroke="black" points="164.47,-592.02 153.92,-593.05 162.81,-598.82 164.47,-592.02"/>
</g>
<!-- columndata_mod -->
<g id="node3" class="node">
<title>columndata_mod</title>
<g id="a_node3"><a xlink:href="../modules/columndata_mod.svg" xlink:title="columndata_mod">
<polygon fill="none" stroke="red" points="229,-521 117,-521 117,-485 229,-485 229,-521"/>
<text text-anchor="middle" x="173" y="-499.3" font-family="Times,serif" font-size="14.00">columndata_mod</text>
</a>
</g>
</g>
<!-- interpolation_mod&#45;&gt;columndata_mod -->
<g id="edge2" class="edge">
<title>interpolation_mod&#45;&gt;columndata_mod</title>
<path fill="none" stroke="black" d="M312.56,-628.95C289.48,-620.46 263.61,-608.62 243,-593 220.28,-575.78 200.83,-549.51 188.25,-529.96"/>
<polygon fill="black" stroke="black" points="191.07,-527.87 182.8,-521.25 185.13,-531.58 191.07,-527.87"/>
</g>
<!-- gridstatevector_mod -->
<g id="node4" class="node">
<title>gridstatevector_mod</title>
<g id="a_node4"><a xlink:href="../modules/gridstatevector_mod.svg" xlink:title="gridstatevector_mod">
<polygon fill="none" stroke="red" points="267,-449 137,-449 137,-413 267,-413 267,-449"/>
<text text-anchor="middle" x="202" y="-427.3" font-family="Times,serif" font-size="14.00">gridstatevector_mod</text>
</a>
</g>
</g>
<!-- interpolation_mod&#45;&gt;gridstatevector_mod -->
<g id="edge3" class="edge">
<title>interpolation_mod&#45;&gt;gridstatevector_mod</title>
<path fill="none" stroke="black" d="M329.7,-628.96C312.76,-620.27 294.1,-608.28 281,-593 247.37,-553.78 262.21,-530.64 238,-485 233.05,-475.67 226.81,-465.96 220.93,-457.44"/>
<polygon fill="black" stroke="black" points="223.63,-455.2 215,-449.07 217.92,-459.25 223.63,-455.2"/>
</g>
<!-- horizontalcoord_mod -->
<g id="node5" class="node">
<title>horizontalcoord_mod</title>
<g id="a_node5"><a xlink:href="../modules/horizontalcoord_mod.svg" xlink:title="horizontalcoord_mod">
<polygon fill="none" stroke="red" points="305,-377 171,-377 171,-341 305,-341 305,-377"/>
<text text-anchor="middle" x="238" y="-355.3" font-family="Times,serif" font-size="14.00">horizontalcoord_mod</text>
</a>
</g>
</g>
<!-- interpolation_mod&#45;&gt;horizontalcoord_mod -->
<g id="edge4" class="edge">
<title>interpolation_mod&#45;&gt;horizontalcoord_mod</title>
<path fill="none" stroke="black" d="M349.43,-628.95C338.78,-619.44 326.61,-606.76 319,-593 279.19,-521.02 310.16,-487.82 276,-413 271.56,-403.27 265.22,-393.5 258.98,-385.04"/>
<polygon fill="black" stroke="black" points="261.73,-382.88 252.86,-377.08 256.18,-387.14 261.73,-382.88"/>
</g>
<!-- kdtree2_mod -->
<g id="node6" class="node">
<title>kdtree2_mod</title>
<g id="a_node6"><a xlink:href="../modules/kdtree2_mod.svg" xlink:title="kdtree2_mod">
<polygon fill="none" stroke="red" points="342.5,-305 253.5,-305 253.5,-269 342.5,-269 342.5,-305"/>
<text text-anchor="middle" x="298" y="-283.3" font-family="Times,serif" font-size="14.00">kdtree2_mod</text>
</a>
</g>
</g>
<!-- interpolation_mod&#45;&gt;kdtree2_mod -->
<g id="edge5" class="edge">
<title>interpolation_mod&#45;&gt;kdtree2_mod</title>
<path fill="none" stroke="black" d="M363.31,-628.91C352.21,-602.62 333,-550.45 333,-504 333,-504 333,-504 333,-430 333,-388.84 318.97,-342.88 308.67,-314.69"/>
<polygon fill="black" stroke="black" points="311.88,-313.28 305.08,-305.15 305.33,-315.74 311.88,-313.28"/>
</g>
<!-- mathphysconstants_mod -->
<g id="node7" class="node">
<title>mathphysconstants_mod</title>
<g id="a_node7"><a xlink:href="mathphysconstants_mod.html" xlink:title="mathphysconstants_mod">
<polygon fill="gray" stroke="black" points="381,-233 229,-233 229,-197 381,-197 381,-233"/>
<text text-anchor="middle" x="305" y="-211.3" font-family="Times,serif" font-size="14.00">mathphysconstants_mod</text>
</a>
</g>
</g>
<!-- interpolation_mod&#45;&gt;mathphysconstants_mod -->
<g id="edge6" class="edge">
<title>interpolation_mod&#45;&gt;mathphysconstants_mod</title>
<path fill="none" stroke="black" d="M371,-628.95C371,-602.29 371,-549.11 371,-504 371,-504 371,-504 371,-358 371,-317.46 369.29,-305.18 351,-269 345.92,-258.95 338.51,-249.24 331.11,-240.95"/>
<polygon fill="black" stroke="black" points="333.49,-238.37 324.11,-233.46 328.38,-243.15 333.49,-238.37"/>
</g>
<!-- message_mod -->
<g id="node8" class="node">
<title>message_mod</title>
<g id="a_node8"><a xlink:href="../modules/message_mod.svg" xlink:title="message_mod">
<polygon fill="none" stroke="red" points="418.5,-161 323.5,-161 323.5,-125 418.5,-125 418.5,-161"/>
<text text-anchor="middle" x="371" y="-139.3" font-family="Times,serif" font-size="14.00">message_mod</text>
</a>
</g>
</g>
<!-- interpolation_mod&#45;&gt;message_mod -->
<g id="edge7" class="edge">
<title>interpolation_mod&#45;&gt;message_mod</title>
<path fill="none" stroke="black" d="M378.69,-628.91C389.79,-602.62 409,-550.45 409,-504 409,-504 409,-504 409,-286 409,-244.63 393.77,-198.72 382.59,-170.61"/>
<polygon fill="black" stroke="black" points="385.72,-169.02 378.69,-161.09 379.24,-171.67 385.72,-169.02"/>
</g>
<!-- midasmpi_mod -->
<g id="node9" class="node">
<title>midasmpi_mod</title>
<g id="a_node9"><a xlink:href="../modules/midasmpi_mod.svg" xlink:title="midasmpi_mod">
<polygon fill="none" stroke="red" points="498,-89 396,-89 396,-53 498,-53 498,-89"/>
<text text-anchor="middle" x="447" y="-67.3" font-family="Times,serif" font-size="14.00">midasmpi_mod</text>
</a>
</g>
</g>
<!-- interpolation_mod&#45;&gt;midasmpi_mod -->
<g id="edge8" class="edge">
<title>interpolation_mod&#45;&gt;midasmpi_mod</title>
<path fill="none" stroke="black" d="M387.49,-628.77C409.84,-603.53 447,-554.05 447,-504 447,-504 447,-504 447,-214 447,-174 447,-127.65 447,-99.08"/>
<polygon fill="black" stroke="black" points="450.5,-99.05 447,-89.05 443.5,-99.05 450.5,-99.05"/>
</g>
<!-- utilities_mod -->
<g id="node10" class="node">
<title>utilities_mod</title>
<g id="a_node10"><a xlink:href="../modules/utilities_mod.svg" xlink:title="utilities_mod">
<polygon fill="none" stroke="red" points="564.5,-593 475.5,-593 475.5,-557 564.5,-557 564.5,-593"/>
<text text-anchor="middle" x="520" y="-571.3" font-family="Times,serif" font-size="14.00">utilities_mod</text>
</a>
</g>
</g>
<!-- interpolation_mod&#45;&gt;utilities_mod -->
<g id="edge9" class="edge">
<title>interpolation_mod&#45;&gt;utilities_mod</title>
<path fill="none" stroke="black" d="M407.45,-628.88C427.64,-619.39 452.92,-607.51 474.41,-597.42"/>
<polygon fill="black" stroke="black" points="476.11,-600.49 483.67,-593.07 473.13,-594.15 476.11,-600.49"/>
</g>
<!-- varnamelist_mod -->
<g id="node11" class="node">
<title>varnamelist_mod</title>
<g id="a_node11"><a xlink:href="../modules/varnamelist_mod.svg" xlink:title="varnamelist_mod">
<polygon fill="none" stroke="red" points="649.5,-521 536.5,-521 536.5,-485 649.5,-485 649.5,-521"/>
<text text-anchor="middle" x="593" y="-499.3" font-family="Times,serif" font-size="14.00">varnamelist_mod</text>
</a>
</g>
</g>
<!-- interpolation_mod&#45;&gt;varnamelist_mod -->
<g id="edge10" class="edge">
<title>interpolation_mod&#45;&gt;varnamelist_mod</title>
<path fill="none" stroke="black" d="M430.15,-637.41C482.42,-628.63 553.33,-613.38 573,-593 588.68,-576.75 593.1,-550.99 593.94,-531.36"/>
<polygon fill="black" stroke="black" points="597.44,-531.23 594.08,-521.18 590.44,-531.13 597.44,-531.23"/>
</g>
<!-- verticalcoord_mod -->
<g id="node12" class="node">
<title>verticalcoord_mod</title>
<g id="a_node12"><a xlink:href="../modules/verticalcoord_mod.svg" xlink:title="verticalcoord_mod">
<polygon fill="none" stroke="red" points="738,-449 618,-449 618,-413 738,-413 738,-449"/>
<text text-anchor="middle" x="678" y="-427.3" font-family="Times,serif" font-size="14.00">verticalcoord_mod</text>
</a>
</g>
</g>
<!-- interpolation_mod&#45;&gt;verticalcoord_mod -->
<g id="edge11" class="edge">
<title>interpolation_mod&#45;&gt;verticalcoord_mod</title>
<path fill="none" stroke="black" d="M430.24,-642.12C477.96,-636.72 545.23,-623.82 596,-593 632.1,-571.09 639.03,-558.73 658,-521 667.75,-501.6 672.8,-477.46 675.38,-459.21"/>
<polygon fill="black" stroke="black" points="678.86,-459.59 676.63,-449.23 671.91,-458.72 678.86,-459.59"/>
</g>
</g>
</svg>
