<?xml version="1.0" encoding="UTF-8" standalone="no"?>
<!DOCTYPE svg PUBLIC "-//W3C//DTD SVG 1.1//EN"
 "http://www.w3.org/Graphics/SVG/1.1/DTD/svg11.dtd">
<!-- Generated by graphviz version 3.0.0 (20220315.2325)
 -->
<!-- Title: interpolation_mod Pages: 1 -->
<svg width="618pt" height="673pt"
 viewBox="0.00 0.00 617.50 673.00" xmlns="http://www.w3.org/2000/svg" xmlns:xlink="http://www.w3.org/1999/xlink">
<g id="graph0" class="graph" transform="scale(1 1) rotate(0) translate(4 669)">
<title>interpolation_mod</title>
<polygon fill="white" stroke="transparent" points="-4,4 -4,-669 613.5,-669 613.5,4 -4,4"/>
<text text-anchor="middle" x="304.75" y="-649.8" font-family="Times,serif" font-size="14.00">Blue boxes indicate modules with reverse dependencies not shown</text>
<text text-anchor="middle" x="304.75" y="-634.8" font-family="Times,serif" font-size="14.00">Higher level reverse dependencies can be shown by clicking on a blue box</text>
<text text-anchor="middle" x="304.75" y="-619.8" font-family="Times,serif" font-size="14.00">Green boxes are programs</text>
<!-- interpolation_mod -->
<g id="node1" class="node">
<title>interpolation_mod</title>
<g id="a_node1"><a xlink:href="interpolation_mod.html" xlink:title="interpolation_mod">
<polygon fill="none" stroke="black" points="356,-36 238,-36 238,0 356,0 356,-36"/>
<text text-anchor="middle" x="297" y="-14.3" font-family="Times,serif" font-size="14.00">interpolation_mod</text>
</a>
</g>
</g>
<!-- bmatrixhi_mod -->
<g id="node2" class="node">
<title>bmatrixhi_mod</title>
<g id="a_node2"><a xlink:href="../modules/bmatrixhi_mod_rev.svg" xlink:title="bmatrixhi_mod">
<polygon fill="none" stroke="blue" points="102,-108 0,-108 0,-72 102,-72 102,-108"/>
<text text-anchor="middle" x="51" y="-86.3" font-family="Times,serif" font-size="14.00">bmatrixhi_mod</text>
</a>
</g>
</g>
<!-- bmatrixhi_mod&#45;&gt;interpolation_mod -->
<g id="edge1" class="edge">
<title>bmatrixhi_mod&#45;&gt;interpolation_mod</title>
<path fill="none" stroke="black" d="M110.32,-72.12C148.88,-61.15 198.98,-46.89 237.57,-35.91"/>
<ellipse fill="black" stroke="black" cx="106.12" cy="-73.32" rx="4" ry="4"/>
</g>
<!-- ensemblestatevector_mod -->
<g id="node3" class="node">
<title>ensemblestatevector_mod</title>
<g id="a_node3"><a xlink:href="../modules/ensemblestatevector_mod_rev.svg" xlink:title="ensemblestatevector_mod">
<polygon fill="none" stroke="blue" points="174,-180 16,-180 16,-144 174,-144 174,-180"/>
<text text-anchor="middle" x="95" y="-158.3" font-family="Times,serif" font-size="14.00">ensemblestatevector_mod</text>
</a>
</g>
</g>
<!-- ensemblestatevector_mod&#45;&gt;interpolation_mod -->
<g id="edge2" class="edge">
<title>ensemblestatevector_mod&#45;&gt;interpolation_mod</title>
<path fill="none" stroke="black" d="M115.23,-137.97C133.03,-118.66 160.36,-91.24 188,-72 208.55,-57.7 233.55,-45.24 254.42,-36"/>
<ellipse fill="black" stroke="black" cx="112.49" cy="-140.98" rx="4" ry="4"/>
</g>
<!-- enspostprocess_mod -->
<g id="node4" class="node">
<title>enspostprocess_mod</title>
<g id="a_node4"><a xlink:href="../modules/enspostprocess_mod_rev.svg" xlink:title="enspostprocess_mod">
<polygon fill="none" stroke="blue" points="211.5,-252 82.5,-252 82.5,-216 211.5,-216 211.5,-252"/>
<text text-anchor="middle" x="147" y="-230.3" font-family="Times,serif" font-size="14.00">enspostprocess_mod</text>
</a>
</g>
</g>
<!-- enspostprocess_mod&#45;&gt;interpolation_mod -->
<g id="edge3" class="edge">
<title>enspostprocess_mod&#45;&gt;interpolation_mod</title>
<path fill="none" stroke="black" d="M164.82,-209.15C171.02,-200.27 177.73,-189.92 183,-180 207.21,-134.36 194.56,-113 226,-72 237.05,-57.6 252.99,-45.21 266.98,-36.04"/>
<ellipse fill="black" stroke="black" cx="162.31" cy="-212.67" rx="4" ry="4"/>
</g>
<!-- gridstatevectorfileio_mod -->
<g id="node5" class="node">
<title>gridstatevectorfileio_mod</title>
<g id="a_node5"><a xlink:href="../modules/gridstatevectorfileio_mod_rev.svg" xlink:title="gridstatevectorfileio_mod">
<polygon fill="none" stroke="blue" points="250,-324 92,-324 92,-288 250,-288 250,-324"/>
<text text-anchor="middle" x="171" y="-302.3" font-family="Times,serif" font-size="14.00">gridstatevectorfileio_mod</text>
</a>
</g>
</g>
<!-- gridstatevectorfileio_mod&#45;&gt;interpolation_mod -->
<g id="edge4" class="edge">
<title>gridstatevectorfileio_mod&#45;&gt;interpolation_mod</title>
<path fill="none" stroke="black" d="M197.6,-282.11C206.2,-273.47 215.04,-263.03 221,-252 260.1,-179.64 232.3,-147.9 264,-72 269.26,-59.4 277.34,-46.36 284.19,-36.37"/>
<ellipse fill="black" stroke="black" cx="194.6" cy="-285.02" rx="4" ry="4"/>
</g>
<!-- gridvariabletransforms_mod -->
<g id="node6" class="node">
<title>gridvariabletransforms_mod</title>
<g id="a_node6"><a xlink:href="../modules/gridvariabletransforms_mod_rev.svg" xlink:title="gridvariabletransforms_mod">
<polygon fill="none" stroke="blue" points="287.5,-396 112.5,-396 112.5,-360 287.5,-360 287.5,-396"/>
<text text-anchor="middle" x="200" y="-374.3" font-family="Times,serif" font-size="14.00">gridvariabletransforms_mod</text>
</a>
</g>
</g>
<!-- gridvariabletransforms_mod&#45;&gt;interpolation_mod -->
<g id="edge5" class="edge">
<title>gridvariabletransforms_mod&#45;&gt;interpolation_mod</title>
<path fill="none" stroke="black" d="M231.79,-354.84C241.9,-346.3 252.2,-335.74 259,-324 279.26,-288.99 278,-275.45 278,-235 278,-235 278,-235 278,-161 278,-115.73 287.6,-63.06 293.16,-36.39"/>
<ellipse fill="black" stroke="black" cx="228.66" cy="-357.38" rx="4" ry="4"/>
</g>
<!-- increment_mod -->
<g id="node7" class="node">
<title>increment_mod</title>
<g id="a_node7"><a xlink:href="../modules/increment_mod_rev.svg" xlink:title="increment_mod">
<polygon fill="none" stroke="blue" points="325.5,-468 222.5,-468 222.5,-432 325.5,-432 325.5,-468"/>
<text text-anchor="middle" x="274" y="-446.3" font-family="Times,serif" font-size="14.00">increment_mod</text>
</a>
</g>
</g>
<!-- increment_mod&#45;&gt;interpolation_mod -->
<g id="edge6" class="edge">
<title>increment_mod&#45;&gt;interpolation_mod</title>
<path fill="none" stroke="black" d="M285.84,-424.69C298.26,-396.92 316,-349.77 316,-307 316,-307 316,-307 316,-161 316,-115.73 306.4,-63.06 300.84,-36.39"/>
<ellipse fill="black" stroke="black" cx="284.16" cy="-428.36" rx="4" ry="4"/>
</g>
<!-- innovation_mod -->
<g id="node8" class="node">
<title>innovation_mod</title>
<g id="a_node8"><a xlink:href="../modules/innovation_mod_rev.svg" xlink:title="innovation_mod">
<polygon fill="none" stroke="blue" points="364,-540 258,-540 258,-504 364,-504 364,-540"/>
<text text-anchor="middle" x="311" y="-518.3" font-family="Times,serif" font-size="14.00">innovation_mod</text>
</a>
</g>
</g>
<!-- innovation_mod&#45;&gt;interpolation_mod -->
<g id="edge7" class="edge">
<title>innovation_mod&#45;&gt;interpolation_mod</title>
<path fill="none" stroke="black" d="M323.33,-496.26C336.04,-468.46 354,-421.62 354,-379 354,-379 354,-379 354,-161 354,-112.92 325.51,-61.84 308.81,-36.04"/>
<ellipse fill="black" stroke="black" cx="321.61" cy="-499.96" rx="4" ry="4"/>
</g>
<!-- lambmatrixhi_mod -->
<g id="node9" class="node">
<title>lambmatrixhi_mod</title>
<g id="a_node9"><a xlink:href="../modules/lambmatrixhi_mod_rev.svg" xlink:title="lambmatrixhi_mod">
<polygon fill="none" stroke="blue" points="453.5,-612 330.5,-612 330.5,-576 453.5,-576 453.5,-612"/>
<text text-anchor="middle" x="392" y="-590.3" font-family="Times,serif" font-size="14.00">lambmatrixhi_mod</text>
</a>
</g>
</g>
<!-- lambmatrixhi_mod&#45;&gt;interpolation_mod -->
<g id="edge8" class="edge">
<title>lambmatrixhi_mod&#45;&gt;interpolation_mod</title>
<path fill="none" stroke="black" d="M392,-567.78C392,-539.39 392,-491.89 392,-451 392,-451 392,-451 392,-161 392,-108.5 346.59,-60.72 318.56,-36.22"/>
<ellipse fill="black" stroke="black" cx="392" cy="-571.95" rx="4" ry="4"/>
</g>
<!-- tovsnl_mod -->
<g id="node10" class="node">
<title>tovsnl_mod</title>
<g id="a_node10"><a xlink:href="../modules/tovsnl_mod_rev.svg" xlink:title="tovsnl_mod">
<polygon fill="none" stroke="blue" points="501.5,-108 420.5,-108 420.5,-72 501.5,-72 501.5,-108"/>
<text text-anchor="middle" x="461" y="-86.3" font-family="Times,serif" font-size="14.00">tovsnl_mod</text>
</a>
</g>
</g>
<!-- tovsnl_mod&#45;&gt;interpolation_mod -->
<g id="edge9" class="edge">
<title>tovsnl_mod&#45;&gt;interpolation_mod</title>
<path fill="none" stroke="black" d="M413.21,-68.6C389.02,-58.28 359.98,-45.88 336.99,-36.07"/>
<ellipse fill="black" stroke="black" cx="417.2" cy="-70.31" rx="4" ry="4"/>
</g>
<!-- midas_midas_randompert -->
<g id="node11" class="node">
<title>midas_midas_randompert</title>
<g id="a_node11"><a xlink:href="../programs/midas_randompert.html" xlink:title="midas_midas_randompert">
<polygon fill="gray" stroke="green" points="609.5,-180 450.5,-180 450.5,-144 609.5,-144 609.5,-180"/>
<text text-anchor="middle" x="530" y="-158.3" font-family="Times,serif" font-size="14.00">midas_midas_randompert</text>
</a>
</g>
</g>
<!-- midas_midas_randompert&#45;&gt;interpolation_mod -->
<g id="edge10" class="edge">
<title>midas_midas_randompert&#45;&gt;interpolation_mod</title>
<path fill="none" stroke="black" d="M531.39,-135.76C531.07,-115.88 527.25,-88.79 511,-72 489.77,-50.07 411.92,-34.89 356.25,-26.57"/>
<ellipse fill="black" stroke="black" cx="531.37" cy="-139.8" rx="4" ry="4"/>
</g>
</g>
</svg>
