<?xml version="1.0" encoding="UTF-8" standalone="no"?>
<!DOCTYPE svg PUBLIC "-//W3C//DTD SVG 1.1//EN"
 "http://www.w3.org/Graphics/SVG/1.1/DTD/svg11.dtd">
<!-- Generated by graphviz version 3.0.0 (20220315.2325)
 -->
<!-- Title: kdTree2_mod Pages: 1 -->
<svg width="550pt" height="673pt"
 viewBox="0.00 0.00 550.00 673.00" xmlns="http://www.w3.org/2000/svg" xmlns:xlink="http://www.w3.org/1999/xlink">
<g id="graph0" class="graph" transform="scale(1 1) rotate(0) translate(4 669)">
<title>kdTree2_mod</title>
<polygon fill="white" stroke="transparent" points="-4,4 -4,-669 546,-669 546,4 -4,4"/>
<text text-anchor="middle" x="271" y="-649.8" font-family="Times,serif" font-size="14.00">Blue boxes indicate modules with reverse dependencies not shown</text>
<text text-anchor="middle" x="271" y="-634.8" font-family="Times,serif" font-size="14.00">Higher level reverse dependencies can be shown by clicking on a blue box</text>
<text text-anchor="middle" x="271" y="-619.8" font-family="Times,serif" font-size="14.00">Green boxes are programs</text>
<!-- kdTree2_mod -->
<g id="node1" class="node">
<title>kdTree2_mod</title>
<g id="a_node1"><a xlink:href="kdTree2_mod.html" xlink:title="kdTree2_mod">
<polygon fill="none" stroke="black" points="336.5,-36 244.5,-36 244.5,0 336.5,0 336.5,-36"/>
<text text-anchor="middle" x="290.5" y="-14.3" font-family="Times,serif" font-size="14.00">kdTree2_mod</text>
</a>
</g>
</g>
<!-- analysiserroroi_mod -->
<g id="node2" class="node">
<title>analysiserroroi_mod</title>
<g id="a_node2"><a xlink:href="../modules/analysiserroroi_mod_rev.svg" xlink:title="analysiserroroi_mod">
<polygon fill="none" stroke="blue" points="129,-108 0,-108 0,-72 129,-72 129,-108"/>
<text text-anchor="middle" x="64.5" y="-86.3" font-family="Times,serif" font-size="14.00">analysiserroroi_mod</text>
</a>
</g>
</g>
<!-- analysiserroroi_mod&#45;&gt;kdTree2_mod -->
<g id="edge1" class="edge">
<title>analysiserroroi_mod&#45;&gt;kdTree2_mod</title>
<path fill="none" stroke="black" d="M127.28,-69.56C164.42,-58.05 210.65,-43.73 244.42,-33.27"/>
<ellipse fill="black" stroke="black" cx="123.32" cy="-70.78" rx="4" ry="4"/>
</g>
<!-- burpread_mod -->
<g id="node3" class="node">
<title>burpread_mod</title>
<g id="a_node3"><a xlink:href="../modules/burpread_mod_rev.svg" xlink:title="burpread_mod">
<polygon fill="none" stroke="blue" points="186,-180 89,-180 89,-144 186,-144 186,-180"/>
<text text-anchor="middle" x="137.5" y="-158.3" font-family="Times,serif" font-size="14.00">burpread_mod</text>
</a>
</g>
</g>
<!-- burpread_mod&#45;&gt;kdTree2_mod -->
<g id="edge2" class="edge">
<title>burpread_mod&#45;&gt;kdTree2_mod</title>
<path fill="none" stroke="black" d="M150.65,-137C162.02,-117.78 179.86,-90.97 200.5,-72 216.12,-57.64 236.26,-45.34 253.53,-36.21"/>
<ellipse fill="black" stroke="black" cx="148.62" cy="-140.51" rx="4" ry="4"/>
</g>
<!-- ensembleobservations_mod -->
<g id="node4" class="node">
<title>ensembleobservations_mod</title>
<g id="a_node4"><a xlink:href="../modules/ensembleobservations_mod_rev.svg" xlink:title="ensembleobservations_mod">
<polygon fill="none" stroke="blue" points="225,-252 56,-252 56,-216 225,-216 225,-252"/>
<text text-anchor="middle" x="140.5" y="-230.3" font-family="Times,serif" font-size="14.00">ensembleobservations_mod</text>
</a>
</g>
</g>
<!-- ensembleobservations_mod&#45;&gt;kdTree2_mod -->
<g id="edge3" class="edge">
<title>ensembleobservations_mod&#45;&gt;kdTree2_mod</title>
<path fill="none" stroke="black" d="M167.82,-210.33C177.17,-201.57 187.12,-191.01 194.5,-180 223.37,-136.96 210.04,-115.32 238.5,-72 247.28,-58.64 259.75,-45.79 270.28,-36.09"/>
<ellipse fill="black" stroke="black" cx="164.75" cy="-213.12" rx="4" ry="4"/>
</g>
<!-- getgridposition_mod -->
<g id="node5" class="node">
<title>getgridposition_mod</title>
<g id="a_node5"><a xlink:href="../modules/getgridposition_mod_rev.svg" xlink:title="getgridposition_mod">
<polygon fill="none" stroke="blue" points="262,-324 131,-324 131,-288 262,-288 262,-324"/>
<text text-anchor="middle" x="196.5" y="-302.3" font-family="Times,serif" font-size="14.00">getgridposition_mod</text>
</a>
</g>
</g>
<!-- getgridposition_mod&#45;&gt;kdTree2_mod -->
<g id="edge4" class="edge">
<title>getgridposition_mod&#45;&gt;kdTree2_mod</title>
<path fill="none" stroke="black" d="M215.78,-281.45C222.2,-272.65 228.89,-262.28 233.5,-252 267.19,-176.96 256.44,-151.77 276.5,-72 279.52,-60 283.08,-46.52 285.86,-36.16"/>
<ellipse fill="black" stroke="black" cx="213.36" cy="-284.66" rx="4" ry="4"/>
</g>
<!-- interpolation_mod -->
<g id="node6" class="node">
<title>interpolation_mod</title>
<g id="a_node6"><a xlink:href="../modules/interpolation_mod_rev.svg" xlink:title="interpolation_mod">
<polygon fill="none" stroke="blue" points="300.5,-396 182.5,-396 182.5,-360 300.5,-360 300.5,-396"/>
<text text-anchor="middle" x="241.5" y="-374.3" font-family="Times,serif" font-size="14.00">interpolation_mod</text>
</a>
</g>
</g>
<!-- interpolation_mod&#45;&gt;kdTree2_mod -->
<g id="edge5" class="edge">
<title>interpolation_mod&#45;&gt;kdTree2_mod</title>
<path fill="none" stroke="black" d="M256.56,-352.88C261.56,-344.05 266.8,-333.81 270.5,-324 284.81,-286.07 290.5,-275.54 290.5,-235 290.5,-235 290.5,-235 290.5,-161 290.5,-115.89 290.5,-62.71 290.5,-36.05"/>
<ellipse fill="black" stroke="black" cx="254.46" cy="-356.47" rx="4" ry="4"/>
</g>
<!-- oceanmask_mod -->
<g id="node7" class="node">
<title>oceanmask_mod</title>
<g id="a_node7"><a xlink:href="../modules/oceanmask_mod_rev.svg" xlink:title="oceanmask_mod">
<polygon fill="none" stroke="blue" points="338,-468 229,-468 229,-432 338,-432 338,-468"/>
<text text-anchor="middle" x="283.5" y="-446.3" font-family="Times,serif" font-size="14.00">oceanmask_mod</text>
</a>
</g>
</g>
<!-- oceanmask_mod&#45;&gt;kdTree2_mod -->
<g id="edge6" class="edge">
<title>oceanmask_mod&#45;&gt;kdTree2_mod</title>
<path fill="none" stroke="black" d="M297.1,-424.47C301.54,-415.69 306.18,-405.59 309.5,-396 322.73,-357.78 328.5,-347.45 328.5,-307 328.5,-307 328.5,-307 328.5,-161 328.5,-114.55 309.29,-62.38 298.19,-36.09"/>
<ellipse fill="black" stroke="black" cx="295.13" cy="-428.25" rx="4" ry="4"/>
</g>
<!-- sstbias_mod -->
<g id="node8" class="node">
<title>sstbias_mod</title>
<g id="a_node8"><a xlink:href="../modules/sstbias_mod_rev.svg" xlink:title="sstbias_mod">
<polygon fill="none" stroke="blue" points="392.5,-540 308.5,-540 308.5,-504 392.5,-504 392.5,-540"/>
<text text-anchor="middle" x="350.5" y="-518.3" font-family="Times,serif" font-size="14.00">sstbias_mod</text>
</a>
</g>
</g>
<!-- sstbias_mod&#45;&gt;kdTree2_mod -->
<g id="edge7" class="edge">
<title>sstbias_mod&#45;&gt;kdTree2_mod</title>
<path fill="none" stroke="black" d="M355.13,-495.41C359.86,-467.06 366.5,-419.92 366.5,-379 366.5,-379 366.5,-379 366.5,-161 366.5,-110.95 329.34,-61.47 306.99,-36.23"/>
<ellipse fill="black" stroke="black" cx="354.41" cy="-499.64" rx="4" ry="4"/>
</g>
<!-- statetocolumn_mod -->
<g id="node9" class="node">
<title>statetocolumn_mod</title>
<g id="a_node9"><a xlink:href="../modules/statetocolumn_mod_rev.svg" xlink:title="statetocolumn_mod">
<polygon fill="none" stroke="blue" points="483,-612 358,-612 358,-576 483,-576 483,-612"/>
<text text-anchor="middle" x="420.5" y="-590.3" font-family="Times,serif" font-size="14.00">statetocolumn_mod</text>
</a>
</g>
</g>
<!-- statetocolumn_mod&#45;&gt;kdTree2_mod -->
<g id="edge8" class="edge">
<title>statetocolumn_mod&#45;&gt;kdTree2_mod</title>
<path fill="none" stroke="black" d="M420.5,-567.78C420.5,-539.39 420.5,-491.89 420.5,-451 420.5,-451 420.5,-451 420.5,-161 420.5,-103.34 361.47,-58.91 322.97,-36.06"/>
<ellipse fill="black" stroke="black" cx="420.5" cy="-571.95" rx="4" ry="4"/>
</g>
<!-- thinning_mod -->
<g id="node10" class="node">
<title>thinning_mod</title>
<g id="a_node10"><a xlink:href="../modules/thinning_mod_rev.svg" xlink:title="thinning_mod">
<polygon fill="none" stroke="blue" points="542,-108 449,-108 449,-72 542,-72 542,-108"/>
<text text-anchor="middle" x="495.5" y="-86.3" font-family="Times,serif" font-size="14.00">thinning_mod</text>
</a>
</g>
</g>
<!-- thinning_mod&#45;&gt;kdTree2_mod -->
<g id="edge9" class="edge">
<title>thinning_mod&#45;&gt;kdTree2_mod</title>
<path fill="none" stroke="black" d="M441.33,-70.5C408.8,-59.4 367.85,-45.41 336.83,-34.82"/>
<ellipse fill="black" stroke="black" cx="445.2" cy="-71.82" rx="4" ry="4"/>
</g>
</g>
</svg>
