<?xml version="1.0" encoding="UTF-8" standalone="no"?>
<!DOCTYPE svg PUBLIC "-//W3C//DTD SVG 1.1//EN"
 "http://www.w3.org/Graphics/SVG/1.1/DTD/svg11.dtd">
<!-- Generated by graphviz version 3.0.0 (20220315.2325)
 -->
<!-- Title: kdtree2_priority_queue_mod Pages: 1 -->
<svg width="382pt" height="241pt"
 viewBox="0.00 0.00 382.00 241.00" xmlns="http://www.w3.org/2000/svg" xmlns:xlink="http://www.w3.org/1999/xlink">
<g id="graph0" class="graph" transform="scale(1 1) rotate(0) translate(4 237)">
<title>kdtree2_priority_queue_mod</title>
<polygon fill="white" stroke="transparent" points="-4,4 -4,-237 378,-237 378,4 -4,4"/>
<text text-anchor="middle" x="187" y="-37.8" font-family="Times,serif" font-size="14.00">Red boxes indicate modules with dependencies not shown</text>
<text text-anchor="middle" x="187" y="-22.8" font-family="Times,serif" font-size="14.00">Lower level dependencies can be shown by clicking on a red box</text>
<text text-anchor="middle" x="187" y="-7.8" font-family="Times,serif" font-size="14.00">Shaded boxes indicate modules with no dependencies</text>
<!-- kdtree2_priority_queue_mod -->
<g id="node1" class="node">
<title>kdtree2_priority_queue_mod</title>
<g id="a_node1"><a xlink:href="kdtree2_priority_queue_mod.html" xlink:title="kdtree2_priority_queue_mod">
<polygon fill="none" stroke="black" points="288.5,-233 112.5,-233 112.5,-197 288.5,-197 288.5,-233"/>
<text text-anchor="middle" x="200.5" y="-211.3" font-family="Times,serif" font-size="14.00">kdtree2_priority_queue_mod</text>
</a>
</g>
</g>
<!-- kdtree2_precision_mod -->
<g id="node2" class="node">
<title>kdtree2_precision_mod</title>
<g id="a_node2"><a xlink:href="kdtree2_precision_mod.html" xlink:title="kdtree2_precision_mod">
<polygon fill="gray" stroke="black" points="223,-161 78,-161 78,-125 223,-125 223,-161"/>
<text text-anchor="middle" x="150.5" y="-139.3" font-family="Times,serif" font-size="14.00">kdtree2_precision_mod</text>
</a>
</g>
</g>
<!-- kdtree2_priority_queue_mod&#45;&gt;kdtree2_precision_mod -->
<g id="edge1" class="edge">
<title>kdtree2_priority_queue_mod&#45;&gt;kdtree2_precision_mod</title>
<path fill="none" stroke="black" d="M188.14,-196.7C182.27,-188.47 175.13,-178.48 168.66,-169.42"/>
<polygon fill="black" stroke="black" points="171.38,-167.21 162.72,-161.1 165.68,-171.28 171.38,-167.21"/>
</g>
<!-- utilities_mod -->
<g id="node3" class="node">
<title>utilities_mod</title>
<g id="a_node3"><a xlink:href="../modules/utilities_mod.svg" xlink:title="utilities_mod">
<polygon fill="none" stroke="red" points="296,-89 207,-89 207,-53 296,-53 296,-89"/>
<text text-anchor="middle" x="251.5" y="-67.3" font-family="Times,serif" font-size="14.00">utilities_mod</text>
</a>
</g>
</g>
<!-- kdtree2_priority_queue_mod&#45;&gt;utilities_mod -->
<g id="edge2" class="edge">
<title>kdtree2_priority_queue_mod&#45;&gt;utilities_mod</title>
<path fill="none" stroke="black" d="M213.02,-196.62C219.69,-186.63 227.52,-173.59 232.5,-161 240.38,-141.08 245.25,-117.28 248.08,-99.31"/>
<polygon fill="black" stroke="black" points="251.57,-99.62 249.55,-89.22 244.64,-98.61 251.57,-99.62"/>
</g>
</g>
</svg>
