<?xml version="1.0" encoding="UTF-8" standalone="no"?>
<!DOCTYPE svg PUBLIC "-//W3C//DTD SVG 1.1//EN"
 "http://www.w3.org/Graphics/SVG/1.1/DTD/svg11.dtd">
<!-- Generated by graphviz version 3.0.0 (20220315.2325)
 -->
<!-- Title: kdTree2_mod Pages: 1 -->
<svg width="399pt" height="385pt"
 viewBox="0.00 0.00 398.50 385.00" xmlns="http://www.w3.org/2000/svg" xmlns:xlink="http://www.w3.org/1999/xlink">
<g id="graph0" class="graph" transform="scale(1 1) rotate(0) translate(4 381)">
<title>kdTree2_mod</title>
<polygon fill="white" stroke="transparent" points="-4,4 -4,-381 394.5,-381 394.5,4 -4,4"/>
<text text-anchor="middle" x="195.25" y="-37.8" font-family="Times,serif" font-size="14.00">Red boxes indicate modules with dependencies not shown</text>
<text text-anchor="middle" x="195.25" y="-22.8" font-family="Times,serif" font-size="14.00">Lower level dependencies can be shown by clicking on a red box</text>
<text text-anchor="middle" x="195.25" y="-7.8" font-family="Times,serif" font-size="14.00">Shaded boxes indicate modules with no dependencies</text>
<!-- kdTree2_mod -->
<g id="node1" class="node">
<title>kdTree2_mod</title>
<g id="a_node1"><a xlink:href="kdTree2_mod.html" xlink:title="kdTree2_mod">
<polygon fill="none" stroke="black" points="250,-377 158,-377 158,-341 250,-341 250,-377"/>
<text text-anchor="middle" x="204" y="-355.3" font-family="Times,serif" font-size="14.00">kdTree2_mod</text>
</a>
</g>
</g>
<!-- earthconstants_mod -->
<g id="node2" class="node">
<title>earthconstants_mod</title>
<g id="a_node2"><a xlink:href="../modules/earthconstants_mod.svg" xlink:title="earthconstants_mod">
<polygon fill="none" stroke="red" points="126,-305 0,-305 0,-269 126,-269 126,-305"/>
<text text-anchor="middle" x="63" y="-283.3" font-family="Times,serif" font-size="14.00">earthconstants_mod</text>
</a>
</g>
</g>
<!-- kdTree2_mod&#45;&gt;earthconstants_mod -->
<g id="edge1" class="edge">
<title>kdTree2_mod&#45;&gt;earthconstants_mod</title>
<path fill="none" stroke="black" d="M169.51,-340.88C150.56,-331.47 126.87,-319.71 106.64,-309.67"/>
<polygon fill="black" stroke="black" points="108.14,-306.5 97.63,-305.19 105.03,-312.77 108.14,-306.5"/>
</g>
<!-- kdtree2_precision_mod -->
<g id="node3" class="node">
<title>kdtree2_precision_mod</title>
<g id="a_node3"><a xlink:href="kdtree2_precision_mod.html" xlink:title="kdtree2_precision_mod">
<polygon fill="gray" stroke="black" points="201.5,-233 56.5,-233 56.5,-197 201.5,-197 201.5,-233"/>
<text text-anchor="middle" x="129" y="-211.3" font-family="Times,serif" font-size="14.00">kdtree2_precision_mod</text>
</a>
</g>
</g>
<!-- kdTree2_mod&#45;&gt;kdtree2_precision_mod -->
<g id="edge2" class="edge">
<title>kdTree2_mod&#45;&gt;kdtree2_precision_mod</title>
<path fill="none" stroke="black" d="M194.95,-340.87C182,-316.35 158.07,-271.03 142.87,-242.26"/>
<polygon fill="black" stroke="black" points="145.84,-240.4 138.08,-233.19 139.65,-243.67 145.84,-240.4"/>
</g>
<!-- kdtree2_priority_queue_mod -->
<g id="node4" class="node">
<title>kdtree2_priority_queue_mod</title>
<g id="a_node4"><a xlink:href="../modules/kdtree2_priority_queue_mod.svg" xlink:title="kdtree2_priority_queue_mod">
<polygon fill="none" stroke="red" points="318,-161 142,-161 142,-125 318,-125 318,-161"/>
<text text-anchor="middle" x="230" y="-139.3" font-family="Times,serif" font-size="14.00">kdtree2_priority_queue_mod</text>
</a>
</g>
</g>
<!-- kdTree2_mod&#45;&gt;kdtree2_priority_queue_mod -->
<g id="edge3" class="edge">
<title>kdTree2_mod&#45;&gt;kdtree2_priority_queue_mod</title>
<path fill="none" stroke="black" d="M206.08,-340.85C210.58,-303.83 221.23,-216.18 226.67,-171.39"/>
<polygon fill="black" stroke="black" points="230.17,-171.58 227.91,-161.23 223.23,-170.74 230.17,-171.58"/>
</g>
<!-- utilities_mod -->
<g id="node5" class="node">
<title>utilities_mod</title>
<g id="a_node5"><a xlink:href="../modules/utilities_mod.svg" xlink:title="utilities_mod">
<polygon fill="none" stroke="red" points="390.5,-89 301.5,-89 301.5,-53 390.5,-53 390.5,-89"/>
<text text-anchor="middle" x="346" y="-67.3" font-family="Times,serif" font-size="14.00">utilities_mod</text>
</a>
</g>
</g>
<!-- kdTree2_mod&#45;&gt;utilities_mod -->
<g id="edge4" class="edge">
<title>kdTree2_mod&#45;&gt;utilities_mod</title>
<path fill="none" stroke="black" d="M217.58,-340.93C243.02,-308.09 297.91,-232.96 327,-161 335.03,-141.13 339.89,-117.34 342.68,-99.35"/>
<polygon fill="black" stroke="black" points="346.17,-99.65 344.12,-89.25 339.24,-98.65 346.17,-99.65"/>
</g>
</g>
</svg>
