<?xml version="1.0" encoding="UTF-8" standalone="no"?>
<!DOCTYPE svg PUBLIC "-//W3C//DTD SVG 1.1//EN"
 "http://www.w3.org/Graphics/SVG/1.1/DTD/svg11.dtd">
<!-- Generated by graphviz version 3.0.0 (20220315.2325)
 -->
<!-- Title: lamAnalysisGridTransforms_mod Pages: 1 -->
<svg width="492pt" height="457pt"
 viewBox="0.00 0.00 492.00 457.00" xmlns="http://www.w3.org/2000/svg" xmlns:xlink="http://www.w3.org/1999/xlink">
<g id="graph0" class="graph" transform="scale(1 1) rotate(0) translate(4 453)">
<title>lamAnalysisGridTransforms_mod</title>
<polygon fill="white" stroke="transparent" points="-4,4 -4,-453 488,-453 488,4 -4,4"/>
<text text-anchor="middle" x="242" y="-433.8" font-family="Times,serif" font-size="14.00">Blue boxes indicate modules with reverse dependencies not shown</text>
<text text-anchor="middle" x="242" y="-418.8" font-family="Times,serif" font-size="14.00">Higher level reverse dependencies can be shown by clicking on a blue box</text>
<text text-anchor="middle" x="242" y="-403.8" font-family="Times,serif" font-size="14.00">Green boxes are programs</text>
<!-- lamAnalysisGridTransforms_mod -->
<g id="node1" class="node">
<title>lamAnalysisGridTransforms_mod</title>
<g id="a_node1"><a xlink:href="lamAnalysisGridTransforms_mod.html" xlink:title="lamAnalysisGridTransforms_mod">
<polygon fill="none" stroke="black" points="336,-36 131,-36 131,0 336,0 336,-36"/>
<text text-anchor="middle" x="233.5" y="-14.3" font-family="Times,serif" font-size="14.00">lamAnalysisGridTransforms_mod</text>
</a>
</g>
</g>
<!-- bmatrixensemble_mod -->
<g id="node2" class="node">
<title>bmatrixensemble_mod</title>
<g id="a_node2"><a xlink:href="../modules/bmatrixensemble_mod_rev.svg" xlink:title="bmatrixensemble_mod">
<polygon fill="none" stroke="blue" points="143,-108 0,-108 0,-72 143,-72 143,-108"/>
<text text-anchor="middle" x="71.5" y="-86.3" font-family="Times,serif" font-size="14.00">bmatrixensemble_mod</text>
</a>
</g>
</g>
<!-- bmatrixensemble_mod&#45;&gt;lamAnalysisGridTransforms_mod -->
<g id="edge1" class="edge">
<title>bmatrixensemble_mod&#45;&gt;lamAnalysisGridTransforms_mod</title>
<path fill="none" stroke="black" d="M118.71,-68.6C142.6,-58.28 171.28,-45.88 194,-36.07"/>
<ellipse fill="black" stroke="black" cx="114.8" cy="-70.29" rx="4" ry="4"/>
</g>
<!-- calcstatslam_mod -->
<g id="node3" class="node">
<title>calcstatslam_mod</title>
<g id="a_node3"><a xlink:href="../modules/calcstatslam_mod_rev.svg" xlink:title="calcstatslam_mod">
<polygon fill="none" stroke="blue" points="205,-180 90,-180 90,-144 205,-144 205,-180"/>
<text text-anchor="middle" x="147.5" y="-158.3" font-family="Times,serif" font-size="14.00">calcstatslam_mod</text>
</a>
</g>
</g>
<!-- calcstatslam_mod&#45;&gt;lamAnalysisGridTransforms_mod -->
<g id="edge2" class="edge">
<title>calcstatslam_mod&#45;&gt;lamAnalysisGridTransforms_mod</title>
<path fill="none" stroke="black" d="M162.02,-137.03C179.33,-108.45 207.83,-61.39 223.09,-36.19"/>
<ellipse fill="black" stroke="black" cx="159.95" cy="-140.45" rx="4" ry="4"/>
</g>
<!-- ensemblestatevector_mod -->
<g id="node4" class="node">
<title>ensemblestatevector_mod</title>
<g id="a_node4"><a xlink:href="../modules/ensemblestatevector_mod_rev.svg" xlink:title="ensemblestatevector_mod">
<polygon fill="none" stroke="blue" points="278.5,-252 120.5,-252 120.5,-216 278.5,-216 278.5,-252"/>
<text text-anchor="middle" x="199.5" y="-230.3" font-family="Times,serif" font-size="14.00">ensemblestatevector_mod</text>
</a>
</g>
</g>
<!-- ensemblestatevector_mod&#45;&gt;lamAnalysisGridTransforms_mod -->
<g id="edge3" class="edge">
<title>ensemblestatevector_mod&#45;&gt;lamAnalysisGridTransforms_mod</title>
<path fill="none" stroke="black" d="M206.78,-208.23C209.19,-199.38 211.7,-189.3 213.5,-180 223.55,-128.01 229.62,-65.55 232.14,-36.04"/>
<ellipse fill="black" stroke="black" cx="205.7" cy="-212.1" rx="4" ry="4"/>
</g>
<!-- gridvariabletransforms_mod -->
<g id="node5" class="node">
<title>gridvariabletransforms_mod</title>
<g id="a_node5"><a xlink:href="../modules/gridvariabletransforms_mod_rev.svg" xlink:title="gridvariabletransforms_mod">
<polygon fill="none" stroke="blue" points="394,-324 219,-324 219,-288 394,-288 394,-324"/>
<text text-anchor="middle" x="306.5" y="-302.3" font-family="Times,serif" font-size="14.00">gridvariabletransforms_mod</text>
</a>
</g>
</g>
<!-- gridvariabletransforms_mod&#45;&gt;lamAnalysisGridTransforms_mod -->
<g id="edge4" class="edge">
<title>gridvariabletransforms_mod&#45;&gt;lamAnalysisGridTransforms_mod</title>
<path fill="none" stroke="black" d="M301.5,-279.68C297.87,-261.82 292.71,-237.37 287.5,-216 271.18,-148.98 248.49,-70.08 238.53,-36.04"/>
<ellipse fill="black" stroke="black" cx="302.36" cy="-283.95" rx="4" ry="4"/>
</g>
<!-- lambmatrixhi_mod -->
<g id="node6" class="node">
<title>lambmatrixhi_mod</title>
<g id="a_node6"><a xlink:href="../modules/lambmatrixhi_mod_rev.svg" xlink:title="lambmatrixhi_mod">
<polygon fill="none" stroke="blue" points="484,-396 361,-396 361,-360 484,-360 484,-396"/>
<text text-anchor="middle" x="422.5" y="-374.3" font-family="Times,serif" font-size="14.00">lambmatrixhi_mod</text>
</a>
</g>
</g>
<!-- lambmatrixhi_mod&#45;&gt;lamAnalysisGridTransforms_mod -->
<g id="edge5" class="edge">
<title>lambmatrixhi_mod&#45;&gt;lamAnalysisGridTransforms_mod</title>
<path fill="none" stroke="black" d="M422.5,-351.78C422.5,-323.39 422.5,-275.89 422.5,-235 422.5,-235 422.5,-235 422.5,-161 422.5,-95.13 348.21,-56.04 292.78,-36.04"/>
<ellipse fill="black" stroke="black" cx="422.5" cy="-355.95" rx="4" ry="4"/>
</g>
</g>
</svg>
