<?xml version="1.0" encoding="UTF-8" standalone="no"?>
<!DOCTYPE svg PUBLIC "-//W3C//DTD SVG 1.1//EN"
 "http://www.w3.org/Graphics/SVG/1.1/DTD/svg11.dtd">
<!-- Generated by graphviz version 3.0.0 (20220315.2325)
 -->
<!-- Title: lamAnalysisGridTransforms_mod Pages: 1 -->
<svg width="457pt" height="529pt"
 viewBox="0.00 0.00 457.00 529.00" xmlns="http://www.w3.org/2000/svg" xmlns:xlink="http://www.w3.org/1999/xlink">
<g id="graph0" class="graph" transform="scale(1 1) rotate(0) translate(4 525)">
<title>lamAnalysisGridTransforms_mod</title>
<polygon fill="white" stroke="transparent" points="-4,4 -4,-525 453,-525 453,4 -4,4"/>
<text text-anchor="middle" x="224.5" y="-37.8" font-family="Times,serif" font-size="14.00">Red boxes indicate modules with dependencies not shown</text>
<text text-anchor="middle" x="224.5" y="-22.8" font-family="Times,serif" font-size="14.00">Lower level dependencies can be shown by clicking on a red box</text>
<text text-anchor="middle" x="224.5" y="-7.8" font-family="Times,serif" font-size="14.00">Shaded boxes indicate modules with no dependencies</text>
<!-- lamAnalysisGridTransforms_mod -->
<g id="node1" class="node">
<title>lamAnalysisGridTransforms_mod</title>
<g id="a_node1"><a xlink:href="lamAnalysisGridTransforms_mod.html" xlink:title="lamAnalysisGridTransforms_mod">
<polygon fill="none" stroke="black" points="341.5,-521 136.5,-521 136.5,-485 341.5,-485 341.5,-521"/>
<text text-anchor="middle" x="239" y="-499.3" font-family="Times,serif" font-size="14.00">lamAnalysisGridTransforms_mod</text>
</a>
</g>
</g>
<!-- earthconstants_mod -->
<g id="node2" class="node">
<title>earthconstants_mod</title>
<g id="a_node2"><a xlink:href="../modules/earthconstants_mod.svg" xlink:title="earthconstants_mod">
<polygon fill="none" stroke="red" points="126,-449 0,-449 0,-413 126,-413 126,-449"/>
<text text-anchor="middle" x="63" y="-427.3" font-family="Times,serif" font-size="14.00">earthconstants_mod</text>
</a>
</g>
</g>
<!-- lamAnalysisGridTransforms_mod&#45;&gt;earthconstants_mod -->
<g id="edge1" class="edge">
<title>lamAnalysisGridTransforms_mod&#45;&gt;earthconstants_mod</title>
<path fill="none" stroke="black" d="M195.95,-484.88C171.67,-475.22 141.16,-463.09 115.49,-452.88"/>
<polygon fill="black" stroke="black" points="116.5,-449.51 105.91,-449.07 113.91,-456.02 116.5,-449.51"/>
</g>
<!-- horizontalcoord_mod -->
<g id="node3" class="node">
<title>horizontalcoord_mod</title>
<g id="a_node3"><a xlink:href="../modules/horizontalcoord_mod.svg" xlink:title="horizontalcoord_mod">
<polygon fill="none" stroke="red" points="192,-377 58,-377 58,-341 192,-341 192,-377"/>
<text text-anchor="middle" x="125" y="-355.3" font-family="Times,serif" font-size="14.00">horizontalcoord_mod</text>
</a>
</g>
</g>
<!-- lamAnalysisGridTransforms_mod&#45;&gt;horizontalcoord_mod -->
<g id="edge2" class="edge">
<title>lamAnalysisGridTransforms_mod&#45;&gt;horizontalcoord_mod</title>
<path fill="none" stroke="black" d="M225.25,-484.87C205.31,-460.03 168.23,-413.85 145.18,-385.14"/>
<polygon fill="black" stroke="black" points="147.79,-382.8 138.8,-377.19 142.33,-387.18 147.79,-382.8"/>
</g>
<!-- mathphysconstants_mod -->
<g id="node4" class="node">
<title>mathphysconstants_mod</title>
<g id="a_node4"><a xlink:href="mathphysconstants_mod.html" xlink:title="mathphysconstants_mod">
<polygon fill="gray" stroke="black" points="230,-305 78,-305 78,-269 230,-269 230,-305"/>
<text text-anchor="middle" x="154" y="-283.3" font-family="Times,serif" font-size="14.00">mathphysconstants_mod</text>
</a>
</g>
</g>
<!-- lamAnalysisGridTransforms_mod&#45;&gt;mathphysconstants_mod -->
<g id="edge3" class="edge">
<title>lamAnalysisGridTransforms_mod&#45;&gt;mathphysconstants_mod</title>
<path fill="none" stroke="black" d="M237.69,-484.59C234.8,-453.97 226,-389.18 201,-341 195.71,-330.8 188.02,-320.99 180.39,-312.64"/>
<polygon fill="black" stroke="black" points="182.92,-310.22 173.47,-305.42 177.86,-315.06 182.92,-310.22"/>
</g>
<!-- midasmpi_mod -->
<g id="node5" class="node">
<title>midasmpi_mod</title>
<g id="a_node5"><a xlink:href="../modules/midasmpi_mod.svg" xlink:title="midasmpi_mod">
<polygon fill="none" stroke="red" points="288,-233 186,-233 186,-197 288,-197 288,-233"/>
<text text-anchor="middle" x="237" y="-211.3" font-family="Times,serif" font-size="14.00">midasmpi_mod</text>
</a>
</g>
</g>
<!-- lamAnalysisGridTransforms_mod&#45;&gt;midasmpi_mod -->
<g id="edge4" class="edge">
<title>lamAnalysisGridTransforms_mod&#45;&gt;midasmpi_mod</title>
<path fill="none" stroke="black" d="M241.03,-484.84C242.15,-474.48 243.44,-461 244,-449 247.5,-374.65 242.36,-286.87 239.18,-243.33"/>
<polygon fill="black" stroke="black" points="242.67,-242.96 238.43,-233.25 235.69,-243.49 242.67,-242.96"/>
</g>
<!-- utilities_mod -->
<g id="node6" class="node">
<title>utilities_mod</title>
<g id="a_node6"><a xlink:href="../modules/utilities_mod.svg" xlink:title="utilities_mod">
<polygon fill="none" stroke="red" points="360.5,-161 271.5,-161 271.5,-125 360.5,-125 360.5,-161"/>
<text text-anchor="middle" x="316" y="-139.3" font-family="Times,serif" font-size="14.00">utilities_mod</text>
</a>
</g>
</g>
<!-- lamAnalysisGridTransforms_mod&#45;&gt;utilities_mod -->
<g id="edge5" class="edge">
<title>lamAnalysisGridTransforms_mod&#45;&gt;utilities_mod</title>
<path fill="none" stroke="black" d="M255.71,-484.81C278.35,-459.62 316,-410.2 316,-360 316,-360 316,-360 316,-286 316,-246 316,-199.65 316,-171.08"/>
<polygon fill="black" stroke="black" points="319.5,-171.05 316,-161.05 312.5,-171.05 319.5,-171.05"/>
</g>
<!-- verticalcoord_mod -->
<g id="node7" class="node">
<title>verticalcoord_mod</title>
<g id="a_node7"><a xlink:href="../modules/verticalcoord_mod.svg" xlink:title="verticalcoord_mod">
<polygon fill="none" stroke="red" points="449,-89 329,-89 329,-53 449,-53 449,-89"/>
<text text-anchor="middle" x="389" y="-67.3" font-family="Times,serif" font-size="14.00">verticalcoord_mod</text>
</a>
</g>
</g>
<!-- lamAnalysisGridTransforms_mod&#45;&gt;verticalcoord_mod -->
<g id="edge6" class="edge">
<title>lamAnalysisGridTransforms_mod&#45;&gt;verticalcoord_mod</title>
<path fill="none" stroke="black" d="M279.2,-484.94C323.63,-463.08 389,-420.6 389,-360 389,-360 389,-360 389,-214 389,-174 389,-127.65 389,-99.08"/>
<polygon fill="black" stroke="black" points="392.5,-99.05 389,-89.05 385.5,-99.05 392.5,-99.05"/>
</g>
</g>
</svg>
