<?xml version="1.0" encoding="UTF-8" standalone="no"?>
<!DOCTYPE svg PUBLIC "-//W3C//DTD SVG 1.1//EN"
 "http://www.w3.org/Graphics/SVG/1.1/DTD/svg11.dtd">
<!-- Generated by graphviz version 3.0.0 (20220315.2325)
 -->
<!-- Title: lamBmatrixHI_mod Pages: 1 -->
<svg width="663pt" height="673pt"
 viewBox="0.00 0.00 663.00 673.00" xmlns="http://www.w3.org/2000/svg" xmlns:xlink="http://www.w3.org/1999/xlink">
<g id="graph0" class="graph" transform="scale(1 1) rotate(0) translate(4 669)">
<title>lamBmatrixHI_mod</title>
<polygon fill="white" stroke="transparent" points="-4,4 -4,-669 659,-669 659,4 -4,4"/>
<text text-anchor="middle" x="327.5" y="-37.8" font-family="Times,serif" font-size="14.00">Red boxes indicate modules with dependencies not shown</text>
<text text-anchor="middle" x="327.5" y="-22.8" font-family="Times,serif" font-size="14.00">Lower level dependencies can be shown by clicking on a red box</text>
<text text-anchor="middle" x="327.5" y="-7.8" font-family="Times,serif" font-size="14.00">Shaded boxes indicate modules with no dependencies</text>
<!-- lamBmatrixHI_mod -->
<g id="node1" class="node">
<title>lamBmatrixHI_mod</title>
<g id="a_node1"><a xlink:href="lamBmatrixHI_mod.html" xlink:title="lamBmatrixHI_mod">
<polygon fill="none" stroke="black" points="395,-665 265,-665 265,-629 395,-629 395,-665"/>
<text text-anchor="middle" x="330" y="-643.3" font-family="Times,serif" font-size="14.00">lamBmatrixHI_mod</text>
</a>
</g>
</g>
<!-- gridstatevector_mod -->
<g id="node2" class="node">
<title>gridstatevector_mod</title>
<g id="a_node2"><a xlink:href="../modules/gridstatevector_mod.svg" xlink:title="gridstatevector_mod">
<polygon fill="none" stroke="red" points="130,-593 0,-593 0,-557 130,-557 130,-593"/>
<text text-anchor="middle" x="65" y="-571.3" font-family="Times,serif" font-size="14.00">gridstatevector_mod</text>
</a>
</g>
</g>
<!-- lamBmatrixHI_mod&#45;&gt;gridstatevector_mod -->
<g id="edge1" class="edge">
<title>lamBmatrixHI_mod&#45;&gt;gridstatevector_mod</title>
<path fill="none" stroke="black" d="M265.51,-628.97C227.52,-618.93 179.29,-606.19 139.66,-595.72"/>
<polygon fill="black" stroke="black" points="140.34,-592.28 129.78,-593.11 138.55,-599.05 140.34,-592.28"/>
</g>
<!-- gridvariabletransforms_mod -->
<g id="node3" class="node">
<title>gridvariabletransforms_mod</title>
<g id="a_node3"><a xlink:href="../modules/gridvariabletransforms_mod.svg" xlink:title="gridvariabletransforms_mod">
<polygon fill="none" stroke="red" points="206.5,-521 31.5,-521 31.5,-485 206.5,-485 206.5,-521"/>
<text text-anchor="middle" x="119" y="-499.3" font-family="Times,serif" font-size="14.00">gridvariabletransforms_mod</text>
</a>
</g>
</g>
<!-- lamBmatrixHI_mod&#45;&gt;gridvariabletransforms_mod -->
<g id="edge2" class="edge">
<title>lamBmatrixHI_mod&#45;&gt;gridvariabletransforms_mod</title>
<path fill="none" stroke="black" d="M288.48,-628.94C267.53,-619.56 242.14,-607 221,-593 192.29,-573.98 163.02,-547.57 143.25,-528.47"/>
<polygon fill="black" stroke="black" points="145.49,-525.77 135.9,-521.28 140.6,-530.77 145.49,-525.77"/>
</g>
<!-- horizontalcoord_mod -->
<g id="node4" class="node">
<title>horizontalcoord_mod</title>
<g id="a_node4"><a xlink:href="../modules/horizontalcoord_mod.svg" xlink:title="horizontalcoord_mod">
<polygon fill="none" stroke="red" points="245,-449 111,-449 111,-413 245,-413 245,-449"/>
<text text-anchor="middle" x="178" y="-427.3" font-family="Times,serif" font-size="14.00">horizontalcoord_mod</text>
</a>
</g>
</g>
<!-- lamBmatrixHI_mod&#45;&gt;horizontalcoord_mod -->
<g id="edge3" class="edge">
<title>lamBmatrixHI_mod&#45;&gt;horizontalcoord_mod</title>
<path fill="none" stroke="black" d="M300.03,-628.92C286.06,-619.74 270.1,-607.36 259,-593 227.29,-552 239.77,-530.53 215,-485 209.85,-475.54 203.36,-465.72 197.26,-457.14"/>
<polygon fill="black" stroke="black" points="200.07,-455.06 191.35,-449.04 194.42,-459.18 200.07,-455.06"/>
</g>
<!-- interpolation_mod -->
<g id="node5" class="node">
<title>interpolation_mod</title>
<g id="a_node5"><a xlink:href="../modules/interpolation_mod.svg" xlink:title="interpolation_mod">
<polygon fill="none" stroke="red" points="283,-377 165,-377 165,-341 283,-341 283,-377"/>
<text text-anchor="middle" x="224" y="-355.3" font-family="Times,serif" font-size="14.00">interpolation_mod</text>
</a>
</g>
</g>
<!-- lamBmatrixHI_mod&#45;&gt;interpolation_mod -->
<g id="edge4" class="edge">
<title>lamBmatrixHI_mod&#45;&gt;interpolation_mod</title>
<path fill="none" stroke="black" d="M317.19,-628.63C310.34,-618.64 302.26,-605.6 297,-593 265.3,-517.1 284.11,-489.54 254,-413 250.36,-403.75 245.35,-394.15 240.47,-385.7"/>
<polygon fill="black" stroke="black" points="243.43,-383.83 235.28,-377.05 237.42,-387.43 243.43,-383.83"/>
</g>
<!-- lamanalysisgridtransforms_mod -->
<g id="node6" class="node">
<title>lamanalysisgridtransforms_mod</title>
<g id="a_node6"><a xlink:href="../modules/lamanalysisgridtransforms_mod.svg" xlink:title="lamanalysisgridtransforms_mod">
<polygon fill="none" stroke="red" points="321.5,-305 126.5,-305 126.5,-269 321.5,-269 321.5,-305"/>
<text text-anchor="middle" x="224" y="-283.3" font-family="Times,serif" font-size="14.00">lamanalysisgridtransforms_mod</text>
</a>
</g>
</g>
<!-- lamBmatrixHI_mod&#45;&gt;lamanalysisgridtransforms_mod -->
<g id="edge5" class="edge">
<title>lamBmatrixHI_mod&#45;&gt;lamanalysisgridtransforms_mod</title>
<path fill="none" stroke="black" d="M326.16,-628.61C320.6,-601.94 311,-549.27 311,-504 311,-504 311,-504 311,-430 311,-389.55 313.47,-375.28 292,-341 284.66,-329.27 273.75,-319.11 262.81,-310.9"/>
<polygon fill="black" stroke="black" points="264.68,-307.94 254.5,-305.01 260.64,-313.65 264.68,-307.94"/>
</g>
<!-- lamspectraltransform_mod -->
<g id="node7" class="node">
<title>lamspectraltransform_mod</title>
<g id="a_node7"><a xlink:href="../modules/lamspectraltransform_mod.svg" xlink:title="lamspectraltransform_mod">
<polygon fill="none" stroke="red" points="358.5,-233 193.5,-233 193.5,-197 358.5,-197 358.5,-233"/>
<text text-anchor="middle" x="276" y="-211.3" font-family="Times,serif" font-size="14.00">lamspectraltransform_mod</text>
</a>
</g>
</g>
<!-- lamBmatrixHI_mod&#45;&gt;lamspectraltransform_mod -->
<g id="edge6" class="edge">
<title>lamBmatrixHI_mod&#45;&gt;lamspectraltransform_mod</title>
<path fill="none" stroke="black" d="M333.84,-628.61C339.4,-601.94 349,-549.27 349,-504 349,-504 349,-504 349,-358 349,-317.55 349.48,-304.45 330,-269 324.08,-258.23 315.27,-248.25 306.48,-239.92"/>
<polygon fill="black" stroke="black" points="308.6,-237.13 298.83,-233.05 303.93,-242.34 308.6,-237.13"/>
</g>
<!-- midasmpi_mod -->
<g id="node8" class="node">
<title>midasmpi_mod</title>
<g id="a_node8"><a xlink:href="../modules/midasmpi_mod.svg" xlink:title="midasmpi_mod">
<polygon fill="none" stroke="red" points="397,-161 295,-161 295,-125 397,-125 397,-161"/>
<text text-anchor="middle" x="346" y="-139.3" font-family="Times,serif" font-size="14.00">midasmpi_mod</text>
</a>
</g>
</g>
<!-- lamBmatrixHI_mod&#45;&gt;midasmpi_mod -->
<g id="edge7" class="edge">
<title>lamBmatrixHI_mod&#45;&gt;midasmpi_mod</title>
<path fill="none" stroke="black" d="M341.81,-628.96C358.51,-603.16 387,-552.08 387,-504 387,-504 387,-504 387,-286 387,-244.41 370.56,-198.56 358.5,-170.51"/>
<polygon fill="black" stroke="black" points="361.55,-168.75 354.3,-161.03 355.15,-171.59 361.55,-168.75"/>
</g>
<!-- utilities_mod -->
<g id="node9" class="node">
<title>utilities_mod</title>
<g id="a_node9"><a xlink:href="../modules/utilities_mod.svg" xlink:title="utilities_mod">
<polygon fill="none" stroke="red" points="469.5,-89 380.5,-89 380.5,-53 469.5,-53 469.5,-89"/>
<text text-anchor="middle" x="425" y="-67.3" font-family="Times,serif" font-size="14.00">utilities_mod</text>
</a>
</g>
</g>
<!-- lamBmatrixHI_mod&#45;&gt;utilities_mod -->
<g id="edge8" class="edge">
<title>lamBmatrixHI_mod&#45;&gt;utilities_mod</title>
<path fill="none" stroke="black" d="M351.56,-628.78C379.59,-604.28 425,-556.5 425,-504 425,-504 425,-504 425,-214 425,-174 425,-127.65 425,-99.08"/>
<polygon fill="black" stroke="black" points="428.5,-99.05 425,-89.05 421.5,-99.05 428.5,-99.05"/>
</g>
<!-- varnamelist_mod -->
<g id="node10" class="node">
<title>varnamelist_mod</title>
<g id="a_node10"><a xlink:href="../modules/varnamelist_mod.svg" xlink:title="varnamelist_mod">
<polygon fill="none" stroke="red" points="566.5,-593 453.5,-593 453.5,-557 566.5,-557 566.5,-593"/>
<text text-anchor="middle" x="510" y="-571.3" font-family="Times,serif" font-size="14.00">varnamelist_mod</text>
</a>
</g>
</g>
<!-- lamBmatrixHI_mod&#45;&gt;varnamelist_mod -->
<g id="edge9" class="edge">
<title>lamBmatrixHI_mod&#45;&gt;varnamelist_mod</title>
<path fill="none" stroke="black" d="M374.03,-628.88C398.97,-619.18 430.34,-606.98 456.66,-596.74"/>
<polygon fill="black" stroke="black" points="458.06,-599.95 466.11,-593.07 455.52,-593.43 458.06,-599.95"/>
</g>
<!-- verticalcoord_mod -->
<g id="node11" class="node">
<title>verticalcoord_mod</title>
<g id="a_node11"><a xlink:href="../modules/verticalcoord_mod.svg" xlink:title="verticalcoord_mod">
<polygon fill="none" stroke="red" points="655,-521 535,-521 535,-485 655,-485 655,-521"/>
<text text-anchor="middle" x="595" y="-499.3" font-family="Times,serif" font-size="14.00">verticalcoord_mod</text>
</a>
</g>
</g>
<!-- lamBmatrixHI_mod&#45;&gt;verticalcoord_mod -->
<g id="edge10" class="edge">
<title>lamBmatrixHI_mod&#45;&gt;verticalcoord_mod</title>
<path fill="none" stroke="black" d="M395.01,-639.82C458.79,-632.41 550.01,-617.79 575,-593 591.03,-577.1 595.41,-551.3 596.14,-531.56"/>
<polygon fill="black" stroke="black" points="599.64,-531.35 596.22,-521.32 592.64,-531.29 599.64,-531.35"/>
</g>
</g>
</svg>
