<?xml version="1.0" encoding="UTF-8" standalone="no"?>
<!DOCTYPE svg PUBLIC "-//W3C//DTD SVG 1.1//EN"
 "http://www.w3.org/Graphics/SVG/1.1/DTD/svg11.dtd">
<!-- Generated by graphviz version 3.0.0 (20220315.2325)
 -->
<!-- Title: lamBmatrixHI_mod Pages: 1 -->
<svg width="433pt" height="241pt"
 viewBox="0.00 0.00 433.00 241.00" xmlns="http://www.w3.org/2000/svg" xmlns:xlink="http://www.w3.org/1999/xlink">
<g id="graph0" class="graph" transform="scale(1 1) rotate(0) translate(4 237)">
<title>lamBmatrixHI_mod</title>
<polygon fill="white" stroke="transparent" points="-4,4 -4,-237 429,-237 429,4 -4,4"/>
<text text-anchor="middle" x="212.5" y="-217.8" font-family="Times,serif" font-size="14.00">Blue boxes indicate modules with reverse dependencies not shown</text>
<text text-anchor="middle" x="212.5" y="-202.8" font-family="Times,serif" font-size="14.00">Higher level reverse dependencies can be shown by clicking on a blue box</text>
<text text-anchor="middle" x="212.5" y="-187.8" font-family="Times,serif" font-size="14.00">Green boxes are programs</text>
<!-- lamBmatrixHI_mod -->
<g id="node1" class="node">
<title>lamBmatrixHI_mod</title>
<g id="a_node1"><a xlink:href="lamBmatrixHI_mod.html" xlink:title="lamBmatrixHI_mod">
<polygon fill="none" stroke="black" points="262.5,-36 132.5,-36 132.5,0 262.5,0 262.5,-36"/>
<text text-anchor="middle" x="197.5" y="-14.3" font-family="Times,serif" font-size="14.00">lamBmatrixHI_mod</text>
</a>
</g>
</g>
<!-- bmatrix_mod -->
<g id="node2" class="node">
<title>bmatrix_mod</title>
<g id="a_node2"><a xlink:href="../modules/bmatrix_mod_rev.svg" xlink:title="bmatrix_mod">
<polygon fill="none" stroke="blue" points="206.5,-108 114.5,-108 114.5,-72 206.5,-72 206.5,-108"/>
<text text-anchor="middle" x="160.5" y="-86.3" font-family="Times,serif" font-size="14.00">bmatrix_mod</text>
</a>
</g>
</g>
<!-- bmatrix_mod&#45;&gt;lamBmatrixHI_mod -->
<g id="edge1" class="edge">
<title>bmatrix_mod&#45;&gt;lamBmatrixHI_mod</title>
<path fill="none" stroke="black" d="M173.46,-64.48C178.41,-55.11 183.95,-44.64 188.46,-36.1"/>
<ellipse fill="black" stroke="black" cx="171.52" cy="-68.16" rx="4" ry="4"/>
</g>
<!-- midas_midas_adjointtest -->
<g id="node3" class="node">
<title>midas_midas_adjointtest</title>
<g id="a_node3"><a xlink:href="../programs/midas_adjointtest.html" xlink:title="midas_midas_adjointtest">
<polygon fill="gray" stroke="green" points="310.5,-180 158.5,-180 158.5,-144 310.5,-144 310.5,-180"/>
<text text-anchor="middle" x="234.5" y="-158.3" font-family="Times,serif" font-size="14.00">midas_midas_adjointtest</text>
</a>
</g>
</g>
<!-- midas_midas_adjointtest&#45;&gt;lamBmatrixHI_mod -->
<g id="edge2" class="edge">
<title>midas_midas_adjointtest&#45;&gt;lamBmatrixHI_mod</title>
<path fill="none" stroke="black" d="M229.89,-135.57C226.45,-117.67 221.34,-93.21 215.5,-72 212.14,-59.82 207.55,-46.34 203.85,-36.03"/>
<ellipse fill="black" stroke="black" cx="230.7" cy="-139.86" rx="4" ry="4"/>
</g>
</g>
</svg>
