<?xml version="1.0" encoding="UTF-8" standalone="no"?>
<!DOCTYPE svg PUBLIC "-//W3C//DTD SVG 1.1//EN"
 "http://www.w3.org/Graphics/SVG/1.1/DTD/svg11.dtd">
<!-- Generated by graphviz version 3.0.0 (20220315.2325)
 -->
<!-- Title: lamSpectralTransform_mod Pages: 1 -->
<svg width="485pt" height="457pt"
 viewBox="0.00 0.00 485.00 457.00" xmlns="http://www.w3.org/2000/svg" xmlns:xlink="http://www.w3.org/1999/xlink">
<g id="graph0" class="graph" transform="scale(1 1) rotate(0) translate(4 453)">
<title>lamSpectralTransform_mod</title>
<polygon fill="white" stroke="transparent" points="-4,4 -4,-453 481,-453 481,4 -4,4"/>
<text text-anchor="middle" x="238.5" y="-433.8" font-family="Times,serif" font-size="14.00">Blue boxes indicate modules with reverse dependencies not shown</text>
<text text-anchor="middle" x="238.5" y="-418.8" font-family="Times,serif" font-size="14.00">Higher level reverse dependencies can be shown by clicking on a blue box</text>
<text text-anchor="middle" x="238.5" y="-403.8" font-family="Times,serif" font-size="14.00">Green boxes are programs</text>
<!-- lamSpectralTransform_mod -->
<g id="node1" class="node">
<title>lamSpectralTransform_mod</title>
<g id="a_node1"><a xlink:href="lamSpectralTransform_mod.html" xlink:title="lamSpectralTransform_mod">
<polygon fill="none" stroke="black" points="319,-36 148,-36 148,0 319,0 319,-36"/>
<text text-anchor="middle" x="233.5" y="-14.3" font-family="Times,serif" font-size="14.00">lamSpectralTransform_mod</text>
</a>
</g>
</g>
<!-- bmatrixensemble_mod -->
<g id="node2" class="node">
<title>bmatrixensemble_mod</title>
<g id="a_node2"><a xlink:href="../modules/bmatrixensemble_mod_rev.svg" xlink:title="bmatrixensemble_mod">
<polygon fill="none" stroke="blue" points="143,-108 0,-108 0,-72 143,-72 143,-108"/>
<text text-anchor="middle" x="71.5" y="-86.3" font-family="Times,serif" font-size="14.00">bmatrixensemble_mod</text>
</a>
</g>
</g>
<!-- bmatrixensemble_mod&#45;&gt;lamSpectralTransform_mod -->
<g id="edge1" class="edge">
<title>bmatrixensemble_mod&#45;&gt;lamSpectralTransform_mod</title>
<path fill="none" stroke="black" d="M118.71,-68.6C142.6,-58.28 171.28,-45.88 194,-36.07"/>
<ellipse fill="black" stroke="black" cx="114.8" cy="-70.29" rx="4" ry="4"/>
</g>
<!-- calcstatslam_mod -->
<g id="node3" class="node">
<title>calcstatslam_mod</title>
<g id="a_node3"><a xlink:href="../modules/calcstatslam_mod_rev.svg" xlink:title="calcstatslam_mod">
<polygon fill="none" stroke="blue" points="205,-180 90,-180 90,-144 205,-144 205,-180"/>
<text text-anchor="middle" x="147.5" y="-158.3" font-family="Times,serif" font-size="14.00">calcstatslam_mod</text>
</a>
</g>
</g>
<!-- calcstatslam_mod&#45;&gt;lamSpectralTransform_mod -->
<g id="edge2" class="edge">
<title>calcstatslam_mod&#45;&gt;lamSpectralTransform_mod</title>
<path fill="none" stroke="black" d="M162.02,-137.03C179.33,-108.45 207.83,-61.39 223.09,-36.19"/>
<ellipse fill="black" stroke="black" cx="159.95" cy="-140.45" rx="4" ry="4"/>
</g>
<!-- gridvariabletransforms_mod -->
<g id="node4" class="node">
<title>gridvariabletransforms_mod</title>
<g id="a_node4"><a xlink:href="../modules/gridvariabletransforms_mod_rev.svg" xlink:title="gridvariabletransforms_mod">
<polygon fill="none" stroke="blue" points="282,-252 107,-252 107,-216 282,-216 282,-252"/>
<text text-anchor="middle" x="194.5" y="-230.3" font-family="Times,serif" font-size="14.00">gridvariabletransforms_mod</text>
</a>
</g>
</g>
<!-- gridvariabletransforms_mod&#45;&gt;lamSpectralTransform_mod -->
<g id="edge3" class="edge">
<title>gridvariabletransforms_mod&#45;&gt;lamSpectralTransform_mod</title>
<path fill="none" stroke="black" d="M204.74,-208C207.97,-199.27 211.28,-189.32 213.5,-180 225.77,-128.49 230.81,-65.81 232.61,-36.14"/>
<ellipse fill="black" stroke="black" cx="203.25" cy="-211.89" rx="4" ry="4"/>
</g>
<!-- lambmatrixhi_mod -->
<g id="node5" class="node">
<title>lambmatrixhi_mod</title>
<g id="a_node5"><a xlink:href="../modules/lambmatrixhi_mod_rev.svg" xlink:title="lambmatrixhi_mod">
<polygon fill="none" stroke="blue" points="372,-324 249,-324 249,-288 372,-288 372,-324"/>
<text text-anchor="middle" x="310.5" y="-302.3" font-family="Times,serif" font-size="14.00">lambmatrixhi_mod</text>
</a>
</g>
</g>
<!-- lambmatrixhi_mod&#45;&gt;lamSpectralTransform_mod -->
<g id="edge4" class="edge">
<title>lambmatrixhi_mod&#45;&gt;lamSpectralTransform_mod</title>
<path fill="none" stroke="black" d="M305.23,-279.67C301.42,-261.8 295.98,-237.35 290.5,-216 273.28,-148.93 249.32,-70.06 238.81,-36.03"/>
<ellipse fill="black" stroke="black" cx="306.14" cy="-283.95" rx="4" ry="4"/>
</g>
<!-- localizationspectral_mod -->
<g id="node6" class="node">
<title>localizationspectral_mod</title>
<g id="a_node6"><a xlink:href="../modules/localizationspectral_mod_rev.svg" xlink:title="localizationspectral_mod">
<polygon fill="none" stroke="blue" points="477,-396 324,-396 324,-360 477,-360 477,-396"/>
<text text-anchor="middle" x="400.5" y="-374.3" font-family="Times,serif" font-size="14.00">localizationspectral_mod</text>
</a>
</g>
</g>
<!-- localizationspectral_mod&#45;&gt;lamSpectralTransform_mod -->
<g id="edge5" class="edge">
<title>localizationspectral_mod&#45;&gt;lamSpectralTransform_mod</title>
<path fill="none" stroke="black" d="M400.5,-351.78C400.5,-323.39 400.5,-275.89 400.5,-235 400.5,-235 400.5,-235 400.5,-161 400.5,-98.02 330.7,-57.12 281.36,-36.08"/>
<ellipse fill="black" stroke="black" cx="400.5" cy="-355.95" rx="4" ry="4"/>
</g>
</g>
</svg>
