<?xml version="1.0" encoding="UTF-8" standalone="no"?>
<!DOCTYPE svg PUBLIC "-//W3C//DTD SVG 1.1//EN"
 "http://www.w3.org/Graphics/SVG/1.1/DTD/svg11.dtd">
<!-- Generated by graphviz version 3.0.0 (20220315.2325)
 -->
<!-- Title: lamSpectralTransform_mod Pages: 1 -->
<svg width="382pt" height="385pt"
 viewBox="0.00 0.00 382.00 385.00" xmlns="http://www.w3.org/2000/svg" xmlns:xlink="http://www.w3.org/1999/xlink">
<g id="graph0" class="graph" transform="scale(1 1) rotate(0) translate(4 381)">
<title>lamSpectralTransform_mod</title>
<polygon fill="white" stroke="transparent" points="-4,4 -4,-381 378,-381 378,4 -4,4"/>
<text text-anchor="middle" x="187" y="-37.8" font-family="Times,serif" font-size="14.00">Red boxes indicate modules with dependencies not shown</text>
<text text-anchor="middle" x="187" y="-22.8" font-family="Times,serif" font-size="14.00">Lower level dependencies can be shown by clicking on a red box</text>
<text text-anchor="middle" x="187" y="-7.8" font-family="Times,serif" font-size="14.00">Shaded boxes indicate modules with no dependencies</text>
<!-- lamSpectralTransform_mod -->
<g id="node1" class="node">
<title>lamSpectralTransform_mod</title>
<g id="a_node1"><a xlink:href="lamSpectralTransform_mod.html" xlink:title="lamSpectralTransform_mod">
<polygon fill="none" stroke="black" points="287.25,-377 116.25,-377 116.25,-341 287.25,-341 287.25,-377"/>
<text text-anchor="middle" x="201.75" y="-355.3" font-family="Times,serif" font-size="14.00">lamSpectralTransform_mod</text>
</a>
</g>
</g>
<!-- earthconstants_mod -->
<g id="node2" class="node">
<title>earthconstants_mod</title>
<g id="a_node2"><a xlink:href="../modules/earthconstants_mod.svg" xlink:title="earthconstants_mod">
<polygon fill="none" stroke="red" points="138.75,-305 12.75,-305 12.75,-269 138.75,-269 138.75,-305"/>
<text text-anchor="middle" x="75.75" y="-283.3" font-family="Times,serif" font-size="14.00">earthconstants_mod</text>
</a>
</g>
</g>
<!-- lamSpectralTransform_mod&#45;&gt;earthconstants_mod -->
<g id="edge1" class="edge">
<title>lamSpectralTransform_mod&#45;&gt;earthconstants_mod</title>
<path fill="none" stroke="black" d="M170.93,-340.88C154.3,-331.64 133.59,-320.13 115.73,-310.21"/>
<polygon fill="black" stroke="black" points="117.13,-306.99 106.69,-305.19 113.73,-313.11 117.13,-306.99"/>
</g>
<!-- mathphysconstants_mod -->
<g id="node3" class="node">
<title>mathphysconstants_mod</title>
<g id="a_node3"><a xlink:href="mathphysconstants_mod.html" xlink:title="mathphysconstants_mod">
<polygon fill="gray" stroke="black" points="209.75,-233 57.75,-233 57.75,-197 209.75,-197 209.75,-233"/>
<text text-anchor="middle" x="133.75" y="-211.3" font-family="Times,serif" font-size="14.00">mathphysconstants_mod</text>
</a>
</g>
</g>
<!-- lamSpectralTransform_mod&#45;&gt;mathphysconstants_mod -->
<g id="edge2" class="edge">
<title>lamSpectralTransform_mod&#45;&gt;mathphysconstants_mod</title>
<path fill="none" stroke="black" d="M193.55,-340.87C181.81,-316.35 160.1,-271.03 146.32,-242.26"/>
<polygon fill="black" stroke="black" points="149.46,-240.7 141.98,-233.19 143.14,-243.72 149.46,-240.7"/>
</g>
<!-- midasmpi_mod -->
<g id="node4" class="node">
<title>midasmpi_mod</title>
<g id="a_node4"><a xlink:href="../modules/midasmpi_mod.svg" xlink:title="midasmpi_mod">
<polygon fill="none" stroke="red" points="288.75,-161 186.75,-161 186.75,-125 288.75,-125 288.75,-161"/>
<text text-anchor="middle" x="237.75" y="-139.3" font-family="Times,serif" font-size="14.00">midasmpi_mod</text>
</a>
</g>
</g>
<!-- lamSpectralTransform_mod&#45;&gt;midasmpi_mod -->
<g id="edge3" class="edge">
<title>lamSpectralTransform_mod&#45;&gt;midasmpi_mod</title>
<path fill="none" stroke="black" d="M204.64,-340.85C210.88,-303.75 225.67,-215.81 233.19,-171.1"/>
<polygon fill="black" stroke="black" points="236.64,-171.67 234.85,-161.23 229.74,-170.51 236.64,-171.67"/>
</g>
<!-- utilities_mod -->
<g id="node5" class="node">
<title>utilities_mod</title>
<g id="a_node5"><a xlink:href="../modules/utilities_mod.svg" xlink:title="utilities_mod">
<polygon fill="none" stroke="red" points="361.25,-89 272.25,-89 272.25,-53 361.25,-53 361.25,-89"/>
<text text-anchor="middle" x="316.75" y="-67.3" font-family="Times,serif" font-size="14.00">utilities_mod</text>
</a>
</g>
</g>
<!-- lamSpectralTransform_mod&#45;&gt;utilities_mod -->
<g id="edge4" class="edge">
<title>lamSpectralTransform_mod&#45;&gt;utilities_mod</title>
<path fill="none" stroke="black" d="M210.61,-340.87C215.93,-330.51 222.8,-317.04 228.75,-305 260.19,-241.38 274.85,-228.17 297.75,-161 304.66,-140.72 309.59,-116.95 312.68,-99.08"/>
<polygon fill="black" stroke="black" points="316.16,-99.49 314.34,-89.05 309.26,-98.35 316.16,-99.49"/>
</g>
</g>
</svg>
