<?xml version="1.0" encoding="UTF-8" standalone="no"?>
<!DOCTYPE svg PUBLIC "-//W3C//DTD SVG 1.1//EN"
 "http://www.w3.org/Graphics/SVG/1.1/DTD/svg11.dtd">
<!-- Generated by graphviz version 3.0.0 (20220315.2325)
 -->
<!-- Title: localizationSpectral_mod Pages: 1 -->
<svg width="544pt" height="673pt"
 viewBox="0.00 0.00 543.50 673.00" xmlns="http://www.w3.org/2000/svg" xmlns:xlink="http://www.w3.org/1999/xlink">
<g id="graph0" class="graph" transform="scale(1 1) rotate(0) translate(4 669)">
<title>localizationSpectral_mod</title>
<polygon fill="white" stroke="transparent" points="-4,4 -4,-669 539.5,-669 539.5,4 -4,4"/>
<text text-anchor="middle" x="267.75" y="-37.8" font-family="Times,serif" font-size="14.00">Red boxes indicate modules with dependencies not shown</text>
<text text-anchor="middle" x="267.75" y="-22.8" font-family="Times,serif" font-size="14.00">Lower level dependencies can be shown by clicking on a red box</text>
<text text-anchor="middle" x="267.75" y="-7.8" font-family="Times,serif" font-size="14.00">Shaded boxes indicate modules with no dependencies</text>
<!-- localizationSpectral_mod -->
<g id="node1" class="node">
<title>localizationSpectral_mod</title>
<g id="a_node1"><a xlink:href="localizationSpectral_mod.html" xlink:title="localizationSpectral_mod">
<polygon fill="none" stroke="black" points="360.5,-665 205.5,-665 205.5,-629 360.5,-629 360.5,-665"/>
<text text-anchor="middle" x="283" y="-643.3" font-family="Times,serif" font-size="14.00">localizationSpectral_mod</text>
</a>
</g>
</g>
<!-- earthconstants_mod -->
<g id="node2" class="node">
<title>earthconstants_mod</title>
<g id="a_node2"><a xlink:href="../modules/earthconstants_mod.svg" xlink:title="earthconstants_mod">
<polygon fill="none" stroke="red" points="126,-593 0,-593 0,-557 126,-557 126,-593"/>
<text text-anchor="middle" x="63" y="-571.3" font-family="Times,serif" font-size="14.00">earthconstants_mod</text>
</a>
</g>
</g>
<!-- localizationSpectral_mod&#45;&gt;earthconstants_mod -->
<g id="edge1" class="edge">
<title>localizationSpectral_mod&#45;&gt;earthconstants_mod</title>
<path fill="none" stroke="black" d="M229.46,-628.97C198.46,-619.1 159.24,-606.62 126.66,-596.25"/>
<polygon fill="black" stroke="black" points="127.37,-592.81 116.78,-593.11 125.24,-599.48 127.37,-592.81"/>
</g>
<!-- ensemblestatevector_mod -->
<g id="node3" class="node">
<title>ensemblestatevector_mod</title>
<g id="a_node3"><a xlink:href="../modules/ensemblestatevector_mod.svg" xlink:title="ensemblestatevector_mod">
<polygon fill="none" stroke="red" points="198,-521 40,-521 40,-485 198,-485 198,-521"/>
<text text-anchor="middle" x="119" y="-499.3" font-family="Times,serif" font-size="14.00">ensemblestatevector_mod</text>
</a>
</g>
</g>
<!-- localizationSpectral_mod&#45;&gt;ensemblestatevector_mod -->
<g id="edge2" class="edge">
<title>localizationSpectral_mod&#45;&gt;ensemblestatevector_mod</title>
<path fill="none" stroke="black" d="M258.44,-628.8C244.5,-618.76 226.91,-605.62 212,-593 187.52,-572.28 161.26,-546.83 142.91,-528.45"/>
<polygon fill="black" stroke="black" points="145.09,-525.68 135.56,-521.05 140.12,-530.61 145.09,-525.68"/>
</g>
<!-- globalspectraltransform_mod -->
<g id="node4" class="node">
<title>globalspectraltransform_mod</title>
<g id="a_node4"><a xlink:href="../modules/globalspectraltransform_mod.svg" xlink:title="globalspectraltransform_mod">
<polygon fill="none" stroke="red" points="236,-449 58,-449 58,-413 236,-413 236,-449"/>
<text text-anchor="middle" x="147" y="-427.3" font-family="Times,serif" font-size="14.00">globalspectraltransform_mod</text>
</a>
</g>
</g>
<!-- localizationSpectral_mod&#45;&gt;globalspectraltransform_mod -->
<g id="edge3" class="edge">
<title>localizationSpectral_mod&#45;&gt;globalspectraltransform_mod</title>
<path fill="none" stroke="black" d="M271.19,-628.79C264.51,-618.63 256.26,-605.38 250,-593 226.7,-546.89 236.73,-527.26 207,-485 199.36,-474.15 189.08,-464.02 179.18,-455.58"/>
<polygon fill="black" stroke="black" points="181.34,-452.82 171.39,-449.2 176.9,-458.24 181.34,-452.82"/>
</g>
<!-- horizontalcoord_mod -->
<g id="node5" class="node">
<title>horizontalcoord_mod</title>
<g id="a_node5"><a xlink:href="../modules/horizontalcoord_mod.svg" xlink:title="horizontalcoord_mod">
<polygon fill="none" stroke="red" points="274,-377 140,-377 140,-341 274,-341 274,-377"/>
<text text-anchor="middle" x="207" y="-355.3" font-family="Times,serif" font-size="14.00">horizontalcoord_mod</text>
</a>
</g>
</g>
<!-- localizationSpectral_mod&#45;&gt;horizontalcoord_mod -->
<g id="edge4" class="edge">
<title>localizationSpectral_mod&#45;&gt;horizontalcoord_mod</title>
<path fill="none" stroke="black" d="M282.85,-628.9C281.94,-589.35 276.46,-489.14 245,-413 241.02,-403.37 234.99,-393.81 228.9,-385.52"/>
<polygon fill="black" stroke="black" points="231.5,-383.16 222.61,-377.39 225.96,-387.44 231.5,-383.16"/>
</g>
<!-- lamspectraltransform_mod -->
<g id="node6" class="node">
<title>lamspectraltransform_mod</title>
<g id="a_node6"><a xlink:href="../modules/lamspectraltransform_mod.svg" xlink:title="lamspectraltransform_mod">
<polygon fill="none" stroke="red" points="311.5,-305 146.5,-305 146.5,-269 311.5,-269 311.5,-305"/>
<text text-anchor="middle" x="229" y="-283.3" font-family="Times,serif" font-size="14.00">lamspectraltransform_mod</text>
</a>
</g>
</g>
<!-- localizationSpectral_mod&#45;&gt;lamspectraltransform_mod -->
<g id="edge5" class="edge">
<title>localizationSpectral_mod&#45;&gt;lamspectraltransform_mod</title>
<path fill="none" stroke="black" d="M286.84,-628.61C292.4,-601.94 302,-549.27 302,-504 302,-504 302,-504 302,-430 302,-389.55 302.48,-376.45 283,-341 277.08,-330.23 268.27,-320.25 259.48,-311.92"/>
<polygon fill="black" stroke="black" points="261.6,-309.13 251.83,-305.05 256.93,-314.34 261.6,-309.13"/>
</g>
<!-- localizationfunction_mod -->
<g id="node7" class="node">
<title>localizationfunction_mod</title>
<g id="a_node7"><a xlink:href="../modules/localizationfunction_mod.svg" xlink:title="localizationfunction_mod">
<polygon fill="none" stroke="red" points="384,-233 228,-233 228,-197 384,-197 384,-233"/>
<text text-anchor="middle" x="306" y="-211.3" font-family="Times,serif" font-size="14.00">localizationfunction_mod</text>
</a>
</g>
</g>
<!-- localizationSpectral_mod&#45;&gt;localizationfunction_mod -->
<g id="edge6" class="edge">
<title>localizationSpectral_mod&#45;&gt;localizationfunction_mod</title>
<path fill="none" stroke="black" d="M294.81,-628.96C311.51,-603.16 340,-552.08 340,-504 340,-504 340,-504 340,-358 340,-316.91 326.37,-270.92 316.37,-242.72"/>
<polygon fill="black" stroke="black" points="319.6,-241.36 312.88,-233.17 313.03,-243.76 319.6,-241.36"/>
</g>
<!-- midasmpi_mod -->
<g id="node8" class="node">
<title>midasmpi_mod</title>
<g id="a_node8"><a xlink:href="../modules/midasmpi_mod.svg" xlink:title="midasmpi_mod">
<polygon fill="none" stroke="red" points="463,-161 361,-161 361,-125 463,-125 463,-161"/>
<text text-anchor="middle" x="412" y="-139.3" font-family="Times,serif" font-size="14.00">midasmpi_mod</text>
</a>
</g>
</g>
<!-- localizationSpectral_mod&#45;&gt;midasmpi_mod -->
<g id="edge7" class="edge">
<title>localizationSpectral_mod&#45;&gt;midasmpi_mod</title>
<path fill="none" stroke="black" d="M315.22,-628.87C353.43,-605.95 412,-561.45 412,-504 412,-504 412,-504 412,-286 412,-246 412,-199.65 412,-171.08"/>
<polygon fill="black" stroke="black" points="415.5,-171.05 412,-161.05 408.5,-171.05 415.5,-171.05"/>
</g>
<!-- utilities_mod -->
<g id="node9" class="node">
<title>utilities_mod</title>
<g id="a_node9"><a xlink:href="../modules/utilities_mod.svg" xlink:title="utilities_mod">
<polygon fill="none" stroke="red" points="535.5,-89 446.5,-89 446.5,-53 535.5,-53 535.5,-89"/>
<text text-anchor="middle" x="491" y="-67.3" font-family="Times,serif" font-size="14.00">utilities_mod</text>
</a>
</g>
</g>
<!-- localizationSpectral_mod&#45;&gt;utilities_mod -->
<g id="edge8" class="edge">
<title>localizationSpectral_mod&#45;&gt;utilities_mod</title>
<path fill="none" stroke="black" d="M354,-628.96C414.26,-609.78 491,-571.99 491,-504 491,-504 491,-504 491,-214 491,-174 491,-127.65 491,-99.08"/>
<polygon fill="black" stroke="black" points="494.5,-99.05 491,-89.05 487.5,-99.05 494.5,-99.05"/>
</g>
</g>
</svg>
