<?xml version="1.0" encoding="UTF-8" standalone="no"?>
<!DOCTYPE svg PUBLIC "-//W3C//DTD SVG 1.1//EN"
 "http://www.w3.org/Graphics/SVG/1.1/DTD/svg11.dtd">
<!-- Generated by graphviz version 3.0.0 (20220315.2325)
 -->
<!-- Title: localization_mod Pages: 1 -->
<svg width="433pt" height="313pt"
 viewBox="0.00 0.00 433.00 313.00" xmlns="http://www.w3.org/2000/svg" xmlns:xlink="http://www.w3.org/1999/xlink">
<g id="graph0" class="graph" transform="scale(1 1) rotate(0) translate(4 309)">
<title>localization_mod</title>
<polygon fill="white" stroke="transparent" points="-4,4 -4,-309 429,-309 429,4 -4,4"/>
<text text-anchor="middle" x="212.5" y="-289.8" font-family="Times,serif" font-size="14.00">Blue boxes indicate modules with reverse dependencies not shown</text>
<text text-anchor="middle" x="212.5" y="-274.8" font-family="Times,serif" font-size="14.00">Higher level reverse dependencies can be shown by clicking on a blue box</text>
<text text-anchor="middle" x="212.5" y="-259.8" font-family="Times,serif" font-size="14.00">Green boxes are programs</text>
<!-- localization_mod -->
<g id="node1" class="node">
<title>localization_mod</title>
<g id="a_node1"><a xlink:href="localization_mod.html" xlink:title="localization_mod">
<polygon fill="none" stroke="black" points="261,-36 150,-36 150,0 261,0 261,-36"/>
<text text-anchor="middle" x="205.5" y="-14.3" font-family="Times,serif" font-size="14.00">localization_mod</text>
</a>
</g>
</g>
<!-- bmatrixensemble_mod -->
<g id="node2" class="node">
<title>bmatrixensemble_mod</title>
<g id="a_node2"><a xlink:href="../modules/bmatrixensemble_mod_rev.svg" xlink:title="bmatrixensemble_mod">
<polygon fill="none" stroke="blue" points="177,-108 34,-108 34,-72 177,-72 177,-108"/>
<text text-anchor="middle" x="105.5" y="-86.3" font-family="Times,serif" font-size="14.00">bmatrixensemble_mod</text>
</a>
</g>
</g>
<!-- bmatrixensemble_mod&#45;&gt;localization_mod -->
<g id="edge1" class="edge">
<title>bmatrixensemble_mod&#45;&gt;localization_mod</title>
<path fill="none" stroke="black" d="M136.74,-67.13C150.99,-57.16 167.61,-45.52 180.94,-36.19"/>
<ellipse fill="black" stroke="black" cx="133.24" cy="-69.58" rx="4" ry="4"/>
</g>
<!-- midas_midas_adjointtest -->
<g id="node3" class="node">
<title>midas_midas_adjointtest</title>
<g id="a_node3"><a xlink:href="../programs/midas_adjointtest.html" xlink:title="midas_midas_adjointtest">
<polygon fill="gray" stroke="green" points="281.5,-180 129.5,-180 129.5,-144 281.5,-144 281.5,-180"/>
<text text-anchor="middle" x="205.5" y="-158.3" font-family="Times,serif" font-size="14.00">midas_midas_adjointtest</text>
</a>
</g>
</g>
<!-- midas_midas_adjointtest&#45;&gt;localization_mod -->
<g id="edge2" class="edge">
<title>midas_midas_adjointtest&#45;&gt;localization_mod</title>
<path fill="none" stroke="black" d="M205.5,-135.56C205.5,-106.86 205.5,-60.96 205.5,-36.19"/>
<ellipse fill="black" stroke="black" cx="205.5" cy="-139.87" rx="4" ry="4"/>
</g>
<!-- midas_midas_diagbmatrix -->
<g id="node4" class="node">
<title>midas_midas_diagbmatrix</title>
<g id="a_node4"><a xlink:href="../programs/midas_diagbmatrix.html" xlink:title="midas_midas_diagbmatrix">
<polygon fill="gray" stroke="green" points="391,-252 228,-252 228,-216 391,-216 391,-252"/>
<text text-anchor="middle" x="309.5" y="-230.3" font-family="Times,serif" font-size="14.00">midas_midas_diagbmatrix</text>
</a>
</g>
</g>
<!-- midas_midas_diagbmatrix&#45;&gt;localization_mod -->
<g id="edge3" class="edge">
<title>midas_midas_diagbmatrix&#45;&gt;localization_mod</title>
<path fill="none" stroke="black" d="M306.69,-207.3C304.06,-189.08 299.19,-164.35 290.5,-144 272.56,-102.01 239.74,-59.35 220.55,-36.33"/>
<ellipse fill="black" stroke="black" cx="307.28" cy="-211.71" rx="4" ry="4"/>
</g>
</g>
</svg>
