<?xml version="1.0" encoding="UTF-8" standalone="no"?>
<!DOCTYPE svg PUBLIC "-//W3C//DTD SVG 1.1//EN"
 "http://www.w3.org/Graphics/SVG/1.1/DTD/svg11.dtd">
<!-- Generated by graphviz version 3.0.0 (20220315.2325)
 -->
<!-- Title: localization_mod Pages: 1 -->
<svg width="489pt" height="529pt"
 viewBox="0.00 0.00 489.00 529.00" xmlns="http://www.w3.org/2000/svg" xmlns:xlink="http://www.w3.org/1999/xlink">
<g id="graph0" class="graph" transform="scale(1 1) rotate(0) translate(4 525)">
<title>localization_mod</title>
<polygon fill="white" stroke="transparent" points="-4,4 -4,-525 485,-525 485,4 -4,4"/>
<text text-anchor="middle" x="240.5" y="-37.8" font-family="Times,serif" font-size="14.00">Red boxes indicate modules with dependencies not shown</text>
<text text-anchor="middle" x="240.5" y="-22.8" font-family="Times,serif" font-size="14.00">Lower level dependencies can be shown by clicking on a red box</text>
<text text-anchor="middle" x="240.5" y="-7.8" font-family="Times,serif" font-size="14.00">Shaded boxes indicate modules with no dependencies</text>
<!-- localization_mod -->
<g id="node1" class="node">
<title>localization_mod</title>
<g id="a_node1"><a xlink:href="localization_mod.html" xlink:title="localization_mod">
<polygon fill="none" stroke="black" points="326.5,-521 215.5,-521 215.5,-485 326.5,-485 326.5,-521"/>
<text text-anchor="middle" x="271" y="-499.3" font-family="Times,serif" font-size="14.00">localization_mod</text>
</a>
</g>
</g>
<!-- ensemblestatevector_mod -->
<g id="node2" class="node">
<title>ensemblestatevector_mod</title>
<g id="a_node2"><a xlink:href="../modules/ensemblestatevector_mod.svg" xlink:title="ensemblestatevector_mod">
<polygon fill="none" stroke="red" points="158,-449 0,-449 0,-413 158,-413 158,-449"/>
<text text-anchor="middle" x="79" y="-427.3" font-family="Times,serif" font-size="14.00">ensemblestatevector_mod</text>
</a>
</g>
</g>
<!-- localization_mod&#45;&gt;ensemblestatevector_mod -->
<g id="edge1" class="edge">
<title>localization_mod&#45;&gt;ensemblestatevector_mod</title>
<path fill="none" stroke="black" d="M224.03,-484.88C197.32,-475.14 163.68,-462.87 135.53,-452.61"/>
<polygon fill="black" stroke="black" points="136.41,-449.21 125.82,-449.07 134.01,-455.78 136.41,-449.21"/>
</g>
<!-- horizontalcoord_mod -->
<g id="node3" class="node">
<title>horizontalcoord_mod</title>
<g id="a_node3"><a xlink:href="../modules/horizontalcoord_mod.svg" xlink:title="horizontalcoord_mod">
<polygon fill="none" stroke="red" points="224,-377 90,-377 90,-341 224,-341 224,-377"/>
<text text-anchor="middle" x="157" y="-355.3" font-family="Times,serif" font-size="14.00">horizontalcoord_mod</text>
</a>
</g>
</g>
<!-- localization_mod&#45;&gt;horizontalcoord_mod -->
<g id="edge2" class="edge">
<title>localization_mod&#45;&gt;horizontalcoord_mod</title>
<path fill="none" stroke="black" d="M257.25,-484.87C237.31,-460.03 200.23,-413.85 177.18,-385.14"/>
<polygon fill="black" stroke="black" points="179.79,-382.8 170.8,-377.19 174.33,-387.18 179.79,-382.8"/>
</g>
<!-- localizationspectral_mod -->
<g id="node4" class="node">
<title>localizationspectral_mod</title>
<g id="a_node4"><a xlink:href="../modules/localizationspectral_mod.svg" xlink:title="localizationspectral_mod">
<polygon fill="none" stroke="red" points="261.5,-305 108.5,-305 108.5,-269 261.5,-269 261.5,-305"/>
<text text-anchor="middle" x="185" y="-283.3" font-family="Times,serif" font-size="14.00">localizationspectral_mod</text>
</a>
</g>
</g>
<!-- localization_mod&#45;&gt;localizationspectral_mod -->
<g id="edge3" class="edge">
<title>localization_mod&#45;&gt;localizationspectral_mod</title>
<path fill="none" stroke="black" d="M269.74,-484.56C266.93,-453.91 258.25,-389.05 233,-341 227.61,-330.74 219.76,-320.91 211.96,-312.56"/>
<polygon fill="black" stroke="black" points="214.39,-310.04 204.9,-305.34 209.39,-314.94 214.39,-310.04"/>
</g>
<!-- midasmpi_mod -->
<g id="node5" class="node">
<title>midasmpi_mod</title>
<g id="a_node5"><a xlink:href="../modules/midasmpi_mod.svg" xlink:title="midasmpi_mod">
<polygon fill="none" stroke="red" points="320,-233 218,-233 218,-197 320,-197 320,-233"/>
<text text-anchor="middle" x="269" y="-211.3" font-family="Times,serif" font-size="14.00">midasmpi_mod</text>
</a>
</g>
</g>
<!-- localization_mod&#45;&gt;midasmpi_mod -->
<g id="edge4" class="edge">
<title>localization_mod&#45;&gt;midasmpi_mod</title>
<path fill="none" stroke="black" d="M273.03,-484.84C274.15,-474.48 275.44,-461 276,-449 279.5,-374.65 274.36,-286.87 271.18,-243.33"/>
<polygon fill="black" stroke="black" points="274.67,-242.96 270.43,-233.25 267.69,-243.49 274.67,-242.96"/>
</g>
<!-- utilities_mod -->
<g id="node6" class="node">
<title>utilities_mod</title>
<g id="a_node6"><a xlink:href="../modules/utilities_mod.svg" xlink:title="utilities_mod">
<polygon fill="none" stroke="red" points="392.5,-161 303.5,-161 303.5,-125 392.5,-125 392.5,-161"/>
<text text-anchor="middle" x="348" y="-139.3" font-family="Times,serif" font-size="14.00">utilities_mod</text>
</a>
</g>
</g>
<!-- localization_mod&#45;&gt;utilities_mod -->
<g id="edge5" class="edge">
<title>localization_mod&#45;&gt;utilities_mod</title>
<path fill="none" stroke="black" d="M287.71,-484.81C310.35,-459.62 348,-410.2 348,-360 348,-360 348,-360 348,-286 348,-246 348,-199.65 348,-171.08"/>
<polygon fill="black" stroke="black" points="351.5,-171.05 348,-161.05 344.5,-171.05 351.5,-171.05"/>
</g>
<!-- verticalcoord_mod -->
<g id="node7" class="node">
<title>verticalcoord_mod</title>
<g id="a_node7"><a xlink:href="../modules/verticalcoord_mod.svg" xlink:title="verticalcoord_mod">
<polygon fill="none" stroke="red" points="481,-89 361,-89 361,-53 481,-53 481,-89"/>
<text text-anchor="middle" x="421" y="-67.3" font-family="Times,serif" font-size="14.00">verticalcoord_mod</text>
</a>
</g>
</g>
<!-- localization_mod&#45;&gt;verticalcoord_mod -->
<g id="edge6" class="edge">
<title>localization_mod&#45;&gt;verticalcoord_mod</title>
<path fill="none" stroke="black" d="M311.2,-484.94C355.63,-463.08 421,-420.6 421,-360 421,-360 421,-360 421,-214 421,-174 421,-127.65 421,-99.08"/>
<polygon fill="black" stroke="black" points="424.5,-99.05 421,-89.05 417.5,-99.05 424.5,-99.05"/>
</g>
</g>
</svg>
