<?xml version="1.0" encoding="UTF-8" standalone="no"?>
<!DOCTYPE svg PUBLIC "-//W3C//DTD SVG 1.1//EN"
 "http://www.w3.org/Graphics/SVG/1.1/DTD/svg11.dtd">
<!-- Generated by graphviz version 3.0.0 (20220315.2325)
 -->
<!-- Title: localizationFunction_mod Pages: 1 -->
<svg width="550pt" height="673pt"
 viewBox="0.00 0.00 549.50 673.00" xmlns="http://www.w3.org/2000/svg" xmlns:xlink="http://www.w3.org/1999/xlink">
<g id="graph0" class="graph" transform="scale(1 1) rotate(0) translate(4 669)">
<title>localizationFunction_mod</title>
<polygon fill="white" stroke="transparent" points="-4,4 -4,-669 545.5,-669 545.5,4 -4,4"/>
<text text-anchor="middle" x="270.75" y="-649.8" font-family="Times,serif" font-size="14.00">Blue boxes indicate modules with reverse dependencies not shown</text>
<text text-anchor="middle" x="270.75" y="-634.8" font-family="Times,serif" font-size="14.00">Higher level reverse dependencies can be shown by clicking on a blue box</text>
<text text-anchor="middle" x="270.75" y="-619.8" font-family="Times,serif" font-size="14.00">Green boxes are programs</text>
<!-- localizationFunction_mod -->
<g id="node1" class="node">
<title>localizationFunction_mod</title>
<g id="a_node1"><a xlink:href="localizationFunction_mod.html" xlink:title="localizationFunction_mod">
<polygon fill="none" stroke="black" points="367.5,-36 208.5,-36 208.5,0 367.5,0 367.5,-36"/>
<text text-anchor="middle" x="288" y="-14.3" font-family="Times,serif" font-size="14.00">localizationFunction_mod</text>
</a>
</g>
</g>
<!-- biascorrectionsat_mod -->
<g id="node2" class="node">
<title>biascorrectionsat_mod</title>
<g id="a_node2"><a xlink:href="../modules/biascorrectionsat_mod_rev.svg" xlink:title="biascorrectionsat_mod">
<polygon fill="none" stroke="blue" points="140,-108 0,-108 0,-72 140,-72 140,-108"/>
<text text-anchor="middle" x="70" y="-86.3" font-family="Times,serif" font-size="14.00">biascorrectionsat_mod</text>
</a>
</g>
</g>
<!-- biascorrectionsat_mod&#45;&gt;localizationFunction_mod -->
<g id="edge1" class="edge">
<title>biascorrectionsat_mod&#45;&gt;localizationFunction_mod</title>
<path fill="none" stroke="black" d="M130.75,-69.49C163.4,-59.01 203.28,-46.2 234.71,-36.11"/>
<ellipse fill="black" stroke="black" cx="126.86" cy="-70.74" rx="4" ry="4"/>
</g>
<!-- bmatrix1dvar_mod -->
<g id="node3" class="node">
<title>bmatrix1dvar_mod</title>
<g id="a_node3"><a xlink:href="../modules/bmatrix1dvar_mod_rev.svg" xlink:title="bmatrix1dvar_mod">
<polygon fill="none" stroke="blue" points="203,-180 81,-180 81,-144 203,-144 203,-180"/>
<text text-anchor="middle" x="142" y="-158.3" font-family="Times,serif" font-size="14.00">bmatrix1dvar_mod</text>
</a>
</g>
</g>
<!-- bmatrix1dvar_mod&#45;&gt;localizationFunction_mod -->
<g id="edge2" class="edge">
<title>bmatrix1dvar_mod&#45;&gt;localizationFunction_mod</title>
<path fill="none" stroke="black" d="M159.47,-137.4C173.88,-118.68 195.39,-92.37 217,-72 230.99,-58.81 248.25,-45.87 262.24,-36.07"/>
<ellipse fill="black" stroke="black" cx="156.92" cy="-140.75" rx="4" ry="4"/>
</g>
<!-- calcstatslam_mod -->
<g id="node4" class="node">
<title>calcstatslam_mod</title>
<g id="a_node4"><a xlink:href="../modules/calcstatslam_mod_rev.svg" xlink:title="calcstatslam_mod">
<polygon fill="none" stroke="blue" points="240.5,-252 125.5,-252 125.5,-216 240.5,-216 240.5,-252"/>
<text text-anchor="middle" x="183" y="-230.3" font-family="Times,serif" font-size="14.00">calcstatslam_mod</text>
</a>
</g>
</g>
<!-- calcstatslam_mod&#45;&gt;localizationFunction_mod -->
<g id="edge3" class="edge">
<title>calcstatslam_mod&#45;&gt;localizationFunction_mod</title>
<path fill="none" stroke="black" d="M197.21,-208.52C202.13,-199.65 207.53,-189.49 212,-180 234,-133.25 231.7,-118.11 255,-72 261.26,-59.62 269.51,-46.37 276.19,-36.21"/>
<ellipse fill="black" stroke="black" cx="195.18" cy="-212.13" rx="4" ry="4"/>
</g>
<!-- enkf_mod -->
<g id="node5" class="node">
<title>enkf_mod</title>
<g id="a_node5"><a xlink:href="../modules/enkf_mod_rev.svg" xlink:title="enkf_mod">
<polygon fill="none" stroke="blue" points="278.5,-324 205.5,-324 205.5,-288 278.5,-288 278.5,-324"/>
<text text-anchor="middle" x="242" y="-302.3" font-family="Times,serif" font-size="14.00">enkf_mod</text>
</a>
</g>
</g>
<!-- enkf_mod&#45;&gt;localizationFunction_mod -->
<g id="edge4" class="edge">
<title>enkf_mod&#45;&gt;localizationFunction_mod</title>
<path fill="none" stroke="black" d="M246.05,-279.85C255.22,-222.82 277.4,-84.91 285.22,-36.31"/>
<ellipse fill="black" stroke="black" cx="245.37" cy="-284.02" rx="4" ry="4"/>
</g>
<!-- localizationspectral_mod -->
<g id="node6" class="node">
<title>localizationspectral_mod</title>
<g id="a_node6"><a xlink:href="../modules/localizationspectral_mod_rev.svg" xlink:title="localizationspectral_mod">
<polygon fill="none" stroke="blue" points="316.5,-396 163.5,-396 163.5,-360 316.5,-360 316.5,-396"/>
<text text-anchor="middle" x="240" y="-374.3" font-family="Times,serif" font-size="14.00">localizationspectral_mod</text>
</a>
</g>
</g>
<!-- localizationspectral_mod&#45;&gt;localizationFunction_mod -->
<g id="edge5" class="edge">
<title>localizationspectral_mod&#45;&gt;localizationFunction_mod</title>
<path fill="none" stroke="black" d="M265.29,-353.66C273.3,-345.04 281.5,-334.75 287,-324 305.48,-287.91 307,-275.54 307,-235 307,-235 307,-235 307,-161 307,-115.73 297.4,-63.06 291.84,-36.39"/>
<ellipse fill="black" stroke="black" cx="262.31" cy="-356.74" rx="4" ry="4"/>
</g>
<!-- menetrierdiag_mod -->
<g id="node7" class="node">
<title>menetrierdiag_mod</title>
<g id="a_node7"><a xlink:href="../modules/menetrierdiag_mod_rev.svg" xlink:title="menetrierdiag_mod">
<polygon fill="none" stroke="blue" points="380.5,-468 255.5,-468 255.5,-432 380.5,-432 380.5,-468"/>
<text text-anchor="middle" x="318" y="-446.3" font-family="Times,serif" font-size="14.00">menetrierdiag_mod</text>
</a>
</g>
</g>
<!-- menetrierdiag_mod&#45;&gt;localizationFunction_mod -->
<g id="edge6" class="edge">
<title>menetrierdiag_mod&#45;&gt;localizationFunction_mod</title>
<path fill="none" stroke="black" d="M325.72,-423.96C333.7,-395.8 345,-348.57 345,-307 345,-307 345,-307 345,-161 345,-112.92 316.51,-61.84 299.81,-36.04"/>
<ellipse fill="black" stroke="black" cx="324.58" cy="-427.87" rx="4" ry="4"/>
</g>
<!-- sstbias_mod -->
<g id="node8" class="node">
<title>sstbias_mod</title>
<g id="a_node8"><a xlink:href="../modules/sstbias_mod_rev.svg" xlink:title="sstbias_mod">
<polygon fill="none" stroke="blue" points="451,-540 367,-540 367,-504 451,-504 451,-540"/>
<text text-anchor="middle" x="409" y="-518.3" font-family="Times,serif" font-size="14.00">sstbias_mod</text>
</a>
</g>
</g>
<!-- sstbias_mod&#45;&gt;localizationFunction_mod -->
<g id="edge7" class="edge">
<title>sstbias_mod&#45;&gt;localizationFunction_mod</title>
<path fill="none" stroke="black" d="M409,-495.78C409,-467.39 409,-419.89 409,-379 409,-379 409,-379 409,-161 409,-104.64 353.1,-59.3 317.29,-36.03"/>
<ellipse fill="black" stroke="black" cx="409" cy="-499.95" rx="4" ry="4"/>
</g>
<!-- verticalmodes_mod -->
<g id="node9" class="node">
<title>verticalmodes_mod</title>
<g id="a_node9"><a xlink:href="../modules/verticalmodes_mod_rev.svg" xlink:title="verticalmodes_mod">
<polygon fill="none" stroke="blue" points="541.5,-612 416.5,-612 416.5,-576 541.5,-576 541.5,-612"/>
<text text-anchor="middle" x="479" y="-590.3" font-family="Times,serif" font-size="14.00">verticalmodes_mod</text>
</a>
</g>
</g>
<!-- verticalmodes_mod&#45;&gt;localizationFunction_mod -->
<g id="edge8" class="edge">
<title>verticalmodes_mod&#45;&gt;localizationFunction_mod</title>
<path fill="none" stroke="black" d="M479,-567.78C479,-539.39 479,-491.89 479,-451 479,-451 479,-451 479,-161 479,-94.89 404.39,-55.95 348.43,-36.04"/>
<ellipse fill="black" stroke="black" cx="479" cy="-571.95" rx="4" ry="4"/>
</g>
</g>
</svg>
