<?xml version="1.0" encoding="UTF-8" standalone="no"?>
<!DOCTYPE svg PUBLIC "-//W3C//DTD SVG 1.1//EN"
 "http://www.w3.org/Graphics/SVG/1.1/DTD/svg11.dtd">
<!-- Generated by graphviz version 3.0.0 (20220315.2325)
 -->
<!-- Title: localizationFunction_mod Pages: 1 -->
<svg width="382pt" height="241pt"
 viewBox="0.00 0.00 382.00 241.00" xmlns="http://www.w3.org/2000/svg" xmlns:xlink="http://www.w3.org/1999/xlink">
<g id="graph0" class="graph" transform="scale(1 1) rotate(0) translate(4 237)">
<title>localizationFunction_mod</title>
<polygon fill="white" stroke="transparent" points="-4,4 -4,-237 378,-237 378,4 -4,4"/>
<text text-anchor="middle" x="187" y="-37.8" font-family="Times,serif" font-size="14.00">Red boxes indicate modules with dependencies not shown</text>
<text text-anchor="middle" x="187" y="-22.8" font-family="Times,serif" font-size="14.00">Lower level dependencies can be shown by clicking on a red box</text>
<text text-anchor="middle" x="187" y="-7.8" font-family="Times,serif" font-size="14.00">Shaded boxes indicate modules with no dependencies</text>
<!-- localizationFunction_mod -->
<g id="node1" class="node">
<title>localizationFunction_mod</title>
<g id="a_node1"><a xlink:href="localizationFunction_mod.html" xlink:title="localizationFunction_mod">
<polygon fill="none" stroke="black" points="275.25,-233 116.25,-233 116.25,-197 275.25,-197 275.25,-233"/>
<text text-anchor="middle" x="195.75" y="-211.3" font-family="Times,serif" font-size="14.00">localizationFunction_mod</text>
</a>
</g>
</g>
<!-- earthconstants_mod -->
<g id="node2" class="node">
<title>earthconstants_mod</title>
<g id="a_node2"><a xlink:href="../modules/earthconstants_mod.svg" xlink:title="earthconstants_mod">
<polygon fill="none" stroke="red" points="213.75,-161 87.75,-161 87.75,-125 213.75,-125 213.75,-161"/>
<text text-anchor="middle" x="150.75" y="-139.3" font-family="Times,serif" font-size="14.00">earthconstants_mod</text>
</a>
</g>
</g>
<!-- localizationFunction_mod&#45;&gt;earthconstants_mod -->
<g id="edge1" class="edge">
<title>localizationFunction_mod&#45;&gt;earthconstants_mod</title>
<path fill="none" stroke="black" d="M184.63,-196.7C179.39,-188.56 173.05,-178.69 167.27,-169.7"/>
<polygon fill="black" stroke="black" points="170.1,-167.62 161.75,-161.1 164.21,-171.41 170.1,-167.62"/>
</g>
<!-- utilities_mod -->
<g id="node3" class="node">
<title>utilities_mod</title>
<g id="a_node3"><a xlink:href="../modules/utilities_mod.svg" xlink:title="utilities_mod">
<polygon fill="none" stroke="red" points="286.25,-89 197.25,-89 197.25,-53 286.25,-53 286.25,-89"/>
<text text-anchor="middle" x="241.75" y="-67.3" font-family="Times,serif" font-size="14.00">utilities_mod</text>
</a>
</g>
</g>
<!-- localizationFunction_mod&#45;&gt;utilities_mod -->
<g id="edge2" class="edge">
<title>localizationFunction_mod&#45;&gt;utilities_mod</title>
<path fill="none" stroke="black" d="M205.94,-196.84C211.58,-186.71 218.33,-173.46 222.75,-161 229.91,-140.8 234.82,-117.03 237.85,-99.13"/>
<polygon fill="black" stroke="black" points="241.33,-99.52 239.46,-89.09 234.42,-98.41 241.33,-99.52"/>
</g>
</g>
</svg>
