<?xml version="1.0" encoding="UTF-8" standalone="no"?>
<!DOCTYPE svg PUBLIC "-//W3C//DTD SVG 1.1//EN"
 "http://www.w3.org/Graphics/SVG/1.1/DTD/svg11.dtd">
<!-- Generated by graphviz version 3.0.0 (20220315.2325)
 -->
<!-- Title: menetrierDiag_mod Pages: 1 -->
<svg width="433pt" height="241pt"
 viewBox="0.00 0.00 433.00 241.00" xmlns="http://www.w3.org/2000/svg" xmlns:xlink="http://www.w3.org/1999/xlink">
<g id="graph0" class="graph" transform="scale(1 1) rotate(0) translate(4 237)">
<title>menetrierDiag_mod</title>
<polygon fill="white" stroke="transparent" points="-4,4 -4,-237 429,-237 429,4 -4,4"/>
<text text-anchor="middle" x="212.5" y="-217.8" font-family="Times,serif" font-size="14.00">Blue boxes indicate modules with reverse dependencies not shown</text>
<text text-anchor="middle" x="212.5" y="-202.8" font-family="Times,serif" font-size="14.00">Higher level reverse dependencies can be shown by clicking on a blue box</text>
<text text-anchor="middle" x="212.5" y="-187.8" font-family="Times,serif" font-size="14.00">Green boxes are programs</text>
<!-- menetrierDiag_mod -->
<g id="node1" class="node">
<title>menetrierDiag_mod</title>
<g id="a_node1"><a xlink:href="menetrierDiag_mod.html" xlink:title="menetrierDiag_mod">
<polygon fill="none" stroke="black" points="275.5,-36 147.5,-36 147.5,0 275.5,0 275.5,-36"/>
<text text-anchor="middle" x="211.5" y="-14.3" font-family="Times,serif" font-size="14.00">menetrierDiag_mod</text>
</a>
</g>
</g>
<!-- calcstatsglb_mod -->
<g id="node2" class="node">
<title>calcstatsglb_mod</title>
<g id="a_node2"><a xlink:href="../modules/calcstatsglb_mod_rev.svg" xlink:title="calcstatsglb_mod">
<polygon fill="none" stroke="blue" points="225,-108 114,-108 114,-72 225,-72 225,-108"/>
<text text-anchor="middle" x="169.5" y="-86.3" font-family="Times,serif" font-size="14.00">calcstatsglb_mod</text>
</a>
</g>
</g>
<!-- calcstatsglb_mod&#45;&gt;menetrierDiag_mod -->
<g id="edge1" class="edge">
<title>calcstatsglb_mod&#45;&gt;menetrierDiag_mod</title>
<path fill="none" stroke="black" d="M184.05,-64.76C189.71,-55.32 196.07,-44.72 201.24,-36.1"/>
<ellipse fill="black" stroke="black" cx="181.94" cy="-68.27" rx="4" ry="4"/>
</g>
<!-- calcstatslam_mod -->
<g id="node3" class="node">
<title>calcstatslam_mod</title>
<g id="a_node3"><a xlink:href="../modules/calcstatslam_mod_rev.svg" xlink:title="calcstatslam_mod">
<polygon fill="none" stroke="blue" points="311,-180 196,-180 196,-144 311,-144 311,-180"/>
<text text-anchor="middle" x="253.5" y="-158.3" font-family="Times,serif" font-size="14.00">calcstatslam_mod</text>
</a>
</g>
</g>
<!-- calcstatslam_mod&#45;&gt;menetrierDiag_mod -->
<g id="edge2" class="edge">
<title>calcstatslam_mod&#45;&gt;menetrierDiag_mod</title>
<path fill="none" stroke="black" d="M249.43,-135.41C246.24,-117.43 241.21,-92.95 234.5,-72 230.58,-59.77 224.83,-46.52 220.06,-36.33"/>
<ellipse fill="black" stroke="black" cx="250.18" cy="-139.73" rx="4" ry="4"/>
</g>
</g>
</svg>
