<?xml version="1.0" encoding="UTF-8" standalone="no"?>
<!DOCTYPE svg PUBLIC "-//W3C//DTD SVG 1.1//EN"
 "http://www.w3.org/Graphics/SVG/1.1/DTD/svg11.dtd">
<!-- Generated by graphviz version 3.0.0 (20220315.2325)
 -->
<!-- Title: menetrierDiag_mod Pages: 1 -->
<svg width="587pt" height="673pt"
 viewBox="0.00 0.00 586.50 673.00" xmlns="http://www.w3.org/2000/svg" xmlns:xlink="http://www.w3.org/1999/xlink">
<g id="graph0" class="graph" transform="scale(1 1) rotate(0) translate(4 669)">
<title>menetrierDiag_mod</title>
<polygon fill="white" stroke="transparent" points="-4,4 -4,-669 582.5,-669 582.5,4 -4,4"/>
<text text-anchor="middle" x="289.25" y="-37.8" font-family="Times,serif" font-size="14.00">Red boxes indicate modules with dependencies not shown</text>
<text text-anchor="middle" x="289.25" y="-22.8" font-family="Times,serif" font-size="14.00">Lower level dependencies can be shown by clicking on a red box</text>
<text text-anchor="middle" x="289.25" y="-7.8" font-family="Times,serif" font-size="14.00">Shaded boxes indicate modules with no dependencies</text>
<!-- menetrierDiag_mod -->
<g id="node1" class="node">
<title>menetrierDiag_mod</title>
<g id="a_node1"><a xlink:href="menetrierDiag_mod.html" xlink:title="menetrierDiag_mod">
<polygon fill="none" stroke="black" points="366,-665 238,-665 238,-629 366,-629 366,-665"/>
<text text-anchor="middle" x="302" y="-643.3" font-family="Times,serif" font-size="14.00">menetrierDiag_mod</text>
</a>
</g>
</g>
<!-- earthconstants_mod -->
<g id="node2" class="node">
<title>earthconstants_mod</title>
<g id="a_node2"><a xlink:href="../modules/earthconstants_mod.svg" xlink:title="earthconstants_mod">
<polygon fill="none" stroke="red" points="126,-593 0,-593 0,-557 126,-557 126,-593"/>
<text text-anchor="middle" x="63" y="-571.3" font-family="Times,serif" font-size="14.00">earthconstants_mod</text>
</a>
</g>
</g>
<!-- menetrierDiag_mod&#45;&gt;earthconstants_mod -->
<g id="edge1" class="edge">
<title>menetrierDiag_mod&#45;&gt;earthconstants_mod</title>
<path fill="none" stroke="black" d="M243.84,-628.97C209.87,-619.01 166.82,-606.41 131.24,-595.99"/>
<polygon fill="black" stroke="black" points="132,-592.56 121.42,-593.11 130.03,-599.28 132,-592.56"/>
</g>
<!-- ensemblestatevector_mod -->
<g id="node3" class="node">
<title>ensemblestatevector_mod</title>
<g id="a_node3"><a xlink:href="../modules/ensemblestatevector_mod.svg" xlink:title="ensemblestatevector_mod">
<polygon fill="none" stroke="red" points="198,-521 40,-521 40,-485 198,-485 198,-521"/>
<text text-anchor="middle" x="119" y="-499.3" font-family="Times,serif" font-size="14.00">ensemblestatevector_mod</text>
</a>
</g>
</g>
<!-- menetrierDiag_mod&#45;&gt;ensemblestatevector_mod -->
<g id="edge2" class="edge">
<title>menetrierDiag_mod&#45;&gt;ensemblestatevector_mod</title>
<path fill="none" stroke="black" d="M268.77,-628.85C251.26,-619.22 229.78,-606.46 212,-593 186.27,-573.53 159.98,-547.71 141.95,-528.9"/>
<polygon fill="black" stroke="black" points="144.17,-526.16 134.75,-521.31 139.09,-530.97 144.17,-526.16"/>
</g>
<!-- gridstatevector_mod -->
<g id="node4" class="node">
<title>gridstatevector_mod</title>
<g id="a_node4"><a xlink:href="../modules/gridstatevector_mod.svg" xlink:title="gridstatevector_mod">
<polygon fill="none" stroke="red" points="236,-449 106,-449 106,-413 236,-413 236,-449"/>
<text text-anchor="middle" x="171" y="-427.3" font-family="Times,serif" font-size="14.00">gridstatevector_mod</text>
</a>
</g>
</g>
<!-- menetrierDiag_mod&#45;&gt;gridstatevector_mod -->
<g id="edge3" class="edge">
<title>menetrierDiag_mod&#45;&gt;gridstatevector_mod</title>
<path fill="none" stroke="black" d="M281.74,-628.94C271.2,-619.25 258.72,-606.39 250,-593 221.8,-549.71 231.21,-530.64 207,-485 202.05,-475.67 195.81,-465.96 189.93,-457.44"/>
<polygon fill="black" stroke="black" points="192.63,-455.2 184,-449.07 186.92,-459.25 192.63,-455.2"/>
</g>
<!-- horizontalcoord_mod -->
<g id="node5" class="node">
<title>horizontalcoord_mod</title>
<g id="a_node5"><a xlink:href="../modules/horizontalcoord_mod.svg" xlink:title="horizontalcoord_mod">
<polygon fill="none" stroke="red" points="274,-377 140,-377 140,-341 274,-341 274,-377"/>
<text text-anchor="middle" x="207" y="-355.3" font-family="Times,serif" font-size="14.00">horizontalcoord_mod</text>
</a>
</g>
</g>
<!-- menetrierDiag_mod&#45;&gt;horizontalcoord_mod -->
<g id="edge4" class="edge">
<title>menetrierDiag_mod&#45;&gt;horizontalcoord_mod</title>
<path fill="none" stroke="black" d="M297.36,-628.84C294.58,-618.48 291.02,-605 288,-593 267.94,-513.23 279.16,-487.82 245,-413 240.56,-403.27 234.22,-393.5 227.98,-385.04"/>
<polygon fill="black" stroke="black" points="230.73,-382.88 221.86,-377.08 225.18,-387.14 230.73,-382.88"/>
</g>
<!-- localizationfunction_mod -->
<g id="node6" class="node">
<title>localizationfunction_mod</title>
<g id="a_node6"><a xlink:href="../modules/localizationfunction_mod.svg" xlink:title="localizationfunction_mod">
<polygon fill="none" stroke="red" points="312,-305 156,-305 156,-269 312,-269 312,-305"/>
<text text-anchor="middle" x="234" y="-283.3" font-family="Times,serif" font-size="14.00">localizationfunction_mod</text>
</a>
</g>
</g>
<!-- menetrierDiag_mod&#45;&gt;localizationfunction_mod -->
<g id="edge5" class="edge">
<title>menetrierDiag_mod&#45;&gt;localizationfunction_mod</title>
<path fill="none" stroke="black" d="M302,-628.95C302,-602.29 302,-549.11 302,-504 302,-504 302,-504 302,-430 302,-389.55 301.62,-376.91 283,-341 277.61,-330.61 269.63,-320.74 261.67,-312.41"/>
<polygon fill="black" stroke="black" points="263.99,-309.78 254.44,-305.21 259.06,-314.74 263.99,-309.78"/>
</g>
<!-- midasmpi_mod -->
<g id="node7" class="node">
<title>midasmpi_mod</title>
<g id="a_node7"><a xlink:href="../modules/midasmpi_mod.svg" xlink:title="midasmpi_mod">
<polygon fill="none" stroke="red" points="350,-233 248,-233 248,-197 350,-197 350,-233"/>
<text text-anchor="middle" x="299" y="-211.3" font-family="Times,serif" font-size="14.00">midasmpi_mod</text>
</a>
</g>
</g>
<!-- menetrierDiag_mod&#45;&gt;midasmpi_mod -->
<g id="edge6" class="edge">
<title>menetrierDiag_mod&#45;&gt;midasmpi_mod</title>
<path fill="none" stroke="black" d="M309.69,-628.91C320.79,-602.62 340,-550.45 340,-504 340,-504 340,-504 340,-358 340,-316.41 323.56,-270.56 311.5,-242.51"/>
<polygon fill="black" stroke="black" points="314.55,-240.75 307.3,-233.03 308.15,-243.59 314.55,-240.75"/>
</g>
<!-- timecoord_mod -->
<g id="node8" class="node">
<title>timecoord_mod</title>
<g id="a_node8"><a xlink:href="../modules/timecoord_mod.svg" xlink:title="timecoord_mod">
<polygon fill="none" stroke="red" points="409,-161 305,-161 305,-125 409,-125 409,-161"/>
<text text-anchor="middle" x="357" y="-139.3" font-family="Times,serif" font-size="14.00">timecoord_mod</text>
</a>
</g>
</g>
<!-- menetrierDiag_mod&#45;&gt;timecoord_mod -->
<g id="edge7" class="edge">
<title>menetrierDiag_mod&#45;&gt;timecoord_mod</title>
<path fill="none" stroke="black" d="M318.49,-628.77C340.84,-603.53 378,-554.05 378,-504 378,-504 378,-504 378,-286 378,-245.78 369.65,-199.84 363.49,-171.37"/>
<polygon fill="black" stroke="black" points="366.85,-170.36 361.25,-161.37 360.01,-171.89 366.85,-170.36"/>
</g>
<!-- utilities_mod -->
<g id="node9" class="node">
<title>utilities_mod</title>
<g id="a_node9"><a xlink:href="../modules/utilities_mod.svg" xlink:title="utilities_mod">
<polygon fill="none" stroke="red" points="481.5,-89 392.5,-89 392.5,-53 481.5,-53 481.5,-89"/>
<text text-anchor="middle" x="437" y="-67.3" font-family="Times,serif" font-size="14.00">utilities_mod</text>
</a>
</g>
</g>
<!-- menetrierDiag_mod&#45;&gt;utilities_mod -->
<g id="edge8" class="edge">
<title>menetrierDiag_mod&#45;&gt;utilities_mod</title>
<path fill="none" stroke="black" d="M336.42,-628.87C376.41,-606.24 437,-562.34 437,-504 437,-504 437,-504 437,-214 437,-174 437,-127.65 437,-99.08"/>
<polygon fill="black" stroke="black" points="440.5,-99.05 437,-89.05 433.5,-99.05 440.5,-99.05"/>
</g>
<!-- varnamelist_mod -->
<g id="node10" class="node">
<title>varnamelist_mod</title>
<g id="a_node10"><a xlink:href="../modules/varnamelist_mod.svg" xlink:title="varnamelist_mod">
<polygon fill="none" stroke="red" points="578.5,-593 465.5,-593 465.5,-557 578.5,-557 578.5,-593"/>
<text text-anchor="middle" x="522" y="-571.3" font-family="Times,serif" font-size="14.00">varnamelist_mod</text>
</a>
</g>
</g>
<!-- menetrierDiag_mod&#45;&gt;varnamelist_mod -->
<g id="edge9" class="edge">
<title>menetrierDiag_mod&#45;&gt;varnamelist_mod</title>
<path fill="none" stroke="black" d="M355.54,-628.97C386.54,-619.1 425.76,-606.62 458.34,-596.25"/>
<polygon fill="black" stroke="black" points="459.76,-599.48 468.22,-593.11 457.63,-592.81 459.76,-599.48"/>
</g>
</g>
</svg>
