<?xml version="1.0" encoding="UTF-8" standalone="no"?>
<!DOCTYPE svg PUBLIC "-//W3C//DTD SVG 1.1//EN"
 "http://www.w3.org/Graphics/SVG/1.1/DTD/svg11.dtd">
<!-- Generated by graphviz version 3.0.0 (20220315.2325)
 -->
<!-- Title: message_mod Pages: 1 -->
<svg width="703pt" height="673pt"
 viewBox="0.00 0.00 703.00 673.00" xmlns="http://www.w3.org/2000/svg" xmlns:xlink="http://www.w3.org/1999/xlink">
<g id="graph0" class="graph" transform="scale(1 1) rotate(0) translate(4 669)">
<title>message_mod</title>
<polygon fill="white" stroke="transparent" points="-4,4 -4,-669 699,-669 699,4 -4,4"/>
<text text-anchor="middle" x="347.5" y="-649.8" font-family="Times,serif" font-size="14.00">Blue boxes indicate modules with reverse dependencies not shown</text>
<text text-anchor="middle" x="347.5" y="-634.8" font-family="Times,serif" font-size="14.00">Higher level reverse dependencies can be shown by clicking on a blue box</text>
<text text-anchor="middle" x="347.5" y="-619.8" font-family="Times,serif" font-size="14.00">Green boxes are programs</text>
<!-- message_mod -->
<g id="node1" class="node">
<title>message_mod</title>
<g id="a_node1"><a xlink:href="message_mod.html" xlink:title="message_mod">
<polygon fill="none" stroke="black" points="359,-36 264,-36 264,0 359,0 359,-36"/>
<text text-anchor="middle" x="311.5" y="-14.3" font-family="Times,serif" font-size="14.00">message_mod</text>
</a>
</g>
</g>
<!-- analysiserroroi_mod -->
<g id="node2" class="node">
<title>analysiserroroi_mod</title>
<g id="a_node2"><a xlink:href="../modules/analysiserroroi_mod_rev.svg" xlink:title="analysiserroroi_mod">
<polygon fill="none" stroke="blue" points="129,-108 0,-108 0,-72 129,-72 129,-108"/>
<text text-anchor="middle" x="64.5" y="-86.3" font-family="Times,serif" font-size="14.00">analysiserroroi_mod</text>
</a>
</g>
</g>
<!-- analysiserroroi_mod&#45;&gt;message_mod -->
<g id="edge1" class="edge">
<title>analysiserroroi_mod&#45;&gt;message_mod</title>
<path fill="none" stroke="black" d="M132.54,-69.72C174.26,-57.89 226.65,-43.05 263.94,-32.48"/>
<ellipse fill="black" stroke="black" cx="128.46" cy="-70.87" rx="4" ry="4"/>
</g>
<!-- bgckocean_mod -->
<g id="node3" class="node">
<title>bgckocean_mod</title>
<g id="a_node3"><a xlink:href="../modules/bgckocean_mod_rev.svg" xlink:title="bgckocean_mod">
<polygon fill="none" stroke="blue" points="188.5,-180 82.5,-180 82.5,-144 188.5,-144 188.5,-180"/>
<text text-anchor="middle" x="135.5" y="-158.3" font-family="Times,serif" font-size="14.00">bgckocean_mod</text>
</a>
</g>
</g>
<!-- bgckocean_mod&#45;&gt;message_mod -->
<g id="edge2" class="edge">
<title>bgckocean_mod&#45;&gt;message_mod</title>
<path fill="none" stroke="black" d="M149.4,-136.59C161.44,-117.13 180.39,-90.21 202.5,-72 220.77,-56.95 244.03,-44.89 264.37,-36.1"/>
<ellipse fill="black" stroke="black" cx="147.19" cy="-140.23" rx="4" ry="4"/>
</g>
<!-- calcheightandpressure_mod -->
<g id="node4" class="node">
<title>calcheightandpressure_mod</title>
<g id="a_node4"><a xlink:href="../modules/calcheightandpressure_mod_rev.svg" xlink:title="calcheightandpressure_mod">
<polygon fill="none" stroke="blue" points="226.5,-252 58.5,-252 58.5,-216 226.5,-216 226.5,-252"/>
<text text-anchor="middle" x="142.5" y="-230.3" font-family="Times,serif" font-size="14.00">calcheightandpressure_mod</text>
</a>
</g>
</g>
<!-- calcheightandpressure_mod&#45;&gt;message_mod -->
<g id="edge3" class="edge">
<title>calcheightandpressure_mod&#45;&gt;message_mod</title>
<path fill="none" stroke="black" d="M170.39,-210.44C179.92,-201.69 190.04,-191.11 197.5,-180 226.3,-137.11 209.06,-113 240.5,-72 251.55,-57.6 267.49,-45.21 281.48,-36.04"/>
<ellipse fill="black" stroke="black" cx="167.23" cy="-213.25" rx="4" ry="4"/>
</g>
<!-- gridstatevector_mod -->
<g id="node5" class="node">
<title>gridstatevector_mod</title>
<g id="a_node5"><a xlink:href="../modules/gridstatevector_mod_rev.svg" xlink:title="gridstatevector_mod">
<polygon fill="none" stroke="blue" points="264.5,-324 134.5,-324 134.5,-288 264.5,-288 264.5,-324"/>
<text text-anchor="middle" x="199.5" y="-302.3" font-family="Times,serif" font-size="14.00">gridstatevector_mod</text>
</a>
</g>
</g>
<!-- gridstatevector_mod&#45;&gt;message_mod -->
<g id="edge4" class="edge">
<title>gridstatevector_mod&#45;&gt;message_mod</title>
<path fill="none" stroke="black" d="M218.42,-281.13C224.61,-272.37 231.04,-262.12 235.5,-252 268.71,-176.75 246.8,-147.9 278.5,-72 283.76,-59.4 291.84,-46.36 298.69,-36.37"/>
<ellipse fill="black" stroke="black" cx="215.9" cy="-284.57" rx="4" ry="4"/>
</g>
<!-- increment_mod -->
<g id="node6" class="node">
<title>increment_mod</title>
<g id="a_node6"><a xlink:href="../modules/increment_mod_rev.svg" xlink:title="increment_mod">
<polygon fill="none" stroke="blue" points="302,-396 199,-396 199,-360 302,-360 302,-396"/>
<text text-anchor="middle" x="250.5" y="-374.3" font-family="Times,serif" font-size="14.00">increment_mod</text>
</a>
</g>
</g>
<!-- increment_mod&#45;&gt;message_mod -->
<g id="edge5" class="edge">
<title>increment_mod&#45;&gt;message_mod</title>
<path fill="none" stroke="black" d="M262.34,-352.69C274.76,-324.92 292.5,-277.77 292.5,-235 292.5,-235 292.5,-235 292.5,-161 292.5,-115.73 302.1,-63.06 307.66,-36.39"/>
<ellipse fill="black" stroke="black" cx="260.66" cy="-356.36" rx="4" ry="4"/>
</g>
<!-- innovation_mod -->
<g id="node7" class="node">
<title>innovation_mod</title>
<g id="a_node7"><a xlink:href="../modules/innovation_mod_rev.svg" xlink:title="innovation_mod">
<polygon fill="none" stroke="blue" points="340.5,-468 234.5,-468 234.5,-432 340.5,-432 340.5,-468"/>
<text text-anchor="middle" x="287.5" y="-446.3" font-family="Times,serif" font-size="14.00">innovation_mod</text>
</a>
</g>
</g>
<!-- innovation_mod&#45;&gt;message_mod -->
<g id="edge6" class="edge">
<title>innovation_mod&#45;&gt;message_mod</title>
<path fill="none" stroke="black" d="M299.83,-424.26C312.54,-396.46 330.5,-349.62 330.5,-307 330.5,-307 330.5,-307 330.5,-161 330.5,-115.73 320.9,-63.06 315.34,-36.39"/>
<ellipse fill="black" stroke="black" cx="298.11" cy="-427.96" rx="4" ry="4"/>
</g>
<!-- interpolation_mod -->
<g id="node8" class="node">
<title>interpolation_mod</title>
<g id="a_node8"><a xlink:href="../modules/interpolation_mod_rev.svg" xlink:title="interpolation_mod">
<polygon fill="none" stroke="blue" points="378.5,-540 260.5,-540 260.5,-504 378.5,-504 378.5,-540"/>
<text text-anchor="middle" x="319.5" y="-518.3" font-family="Times,serif" font-size="14.00">interpolation_mod</text>
</a>
</g>
</g>
<!-- interpolation_mod&#45;&gt;message_mod -->
<g id="edge7" class="edge">
<title>interpolation_mod&#45;&gt;message_mod</title>
<path fill="none" stroke="black" d="M335.16,-496.96C340.35,-488.13 345.75,-477.89 349.5,-468 363.85,-430.18 368.5,-419.45 368.5,-379 368.5,-379 368.5,-379 368.5,-161 368.5,-112.92 340.01,-61.84 323.31,-36.04"/>
<ellipse fill="black" stroke="black" cx="332.97" cy="-500.57" rx="4" ry="4"/>
</g>
<!-- physicsfunctions_mod -->
<g id="node9" class="node">
<title>physicsfunctions_mod</title>
<g id="a_node9"><a xlink:href="../modules/physicsfunctions_mod_rev.svg" xlink:title="physicsfunctions_mod">
<polygon fill="none" stroke="blue" points="476,-612 337,-612 337,-576 476,-576 476,-612"/>
<text text-anchor="middle" x="406.5" y="-590.3" font-family="Times,serif" font-size="14.00">physicsfunctions_mod</text>
</a>
</g>
</g>
<!-- physicsfunctions_mod&#45;&gt;message_mod -->
<g id="edge8" class="edge">
<title>physicsfunctions_mod&#45;&gt;message_mod</title>
<path fill="none" stroke="black" d="M406.5,-567.78C406.5,-539.39 406.5,-491.89 406.5,-451 406.5,-451 406.5,-451 406.5,-161 406.5,-108.5 361.09,-60.72 333.06,-36.22"/>
<ellipse fill="black" stroke="black" cx="406.5" cy="-571.95" rx="4" ry="4"/>
</g>
<!-- midas_midas_analysiserroroi -->
<g id="node10" class="node">
<title>midas_midas_analysiserroroi</title>
<g id="a_node10"><a xlink:href="../programs/midas_analysiserroroi.html" xlink:title="midas_midas_analysiserroroi">
<polygon fill="gray" stroke="green" points="611,-108 434,-108 434,-72 611,-72 611,-108"/>
<text text-anchor="middle" x="522.5" y="-86.3" font-family="Times,serif" font-size="14.00">midas_midas_analysiserroroi</text>
</a>
</g>
</g>
<!-- midas_midas_analysiserroroi&#45;&gt;message_mod -->
<g id="edge9" class="edge">
<title>midas_midas_analysiserroroi&#45;&gt;message_mod</title>
<path fill="none" stroke="black" d="M463.39,-69.39C430.45,-58.46 389.98,-45.03 359.1,-34.79"/>
<ellipse fill="black" stroke="black" cx="467.36" cy="-70.71" rx="4" ry="4"/>
</g>
<!-- midas_midas_var -->
<g id="node11" class="node">
<title>midas_midas_var</title>
<g id="a_node11"><a xlink:href="../programs/midas_var.html" xlink:title="midas_midas_var">
<polygon fill="gray" stroke="green" points="695,-180 582,-180 582,-144 695,-144 695,-180"/>
<text text-anchor="middle" x="638.5" y="-158.3" font-family="Times,serif" font-size="14.00">midas_midas_var</text>
</a>
</g>
</g>
<!-- midas_midas_var&#45;&gt;message_mod -->
<g id="edge10" class="edge">
<title>midas_midas_var&#45;&gt;message_mod</title>
<path fill="none" stroke="black" d="M640.53,-135.83C640.68,-115.73 637.33,-88.33 620.5,-72 584.03,-36.6 436.33,-24.64 359.09,-20.77"/>
<ellipse fill="black" stroke="black" cx="640.4" cy="-139.94" rx="4" ry="4"/>
</g>
</g>
</svg>
