<?xml version="1.0" encoding="UTF-8" standalone="no"?>
<!DOCTYPE svg PUBLIC "-//W3C//DTD SVG 1.1//EN"
 "http://www.w3.org/Graphics/SVG/1.1/DTD/svg11.dtd">
<!-- Generated by graphviz version 3.0.0 (20220315.2325)
 -->
<!-- Title: minimization_mod Pages: 1 -->
<svg width="1315pt" height="673pt"
 viewBox="0.00 0.00 1315.00 673.00" xmlns="http://www.w3.org/2000/svg" xmlns:xlink="http://www.w3.org/1999/xlink">
<g id="graph0" class="graph" transform="scale(1 1) rotate(0) translate(4 669)">
<title>minimization_mod</title>
<polygon fill="white" stroke="transparent" points="-4,4 -4,-669 1311,-669 1311,4 -4,4"/>
<text text-anchor="middle" x="653.5" y="-37.8" font-family="Times,serif" font-size="14.00">Red boxes indicate modules with dependencies not shown</text>
<text text-anchor="middle" x="653.5" y="-22.8" font-family="Times,serif" font-size="14.00">Lower level dependencies can be shown by clicking on a red box</text>
<text text-anchor="middle" x="653.5" y="-7.8" font-family="Times,serif" font-size="14.00">Shaded boxes indicate modules with no dependencies</text>
<!-- minimization_mod -->
<g id="node1" class="node">
<title>minimization_mod</title>
<g id="a_node1"><a xlink:href="minimization_mod.html" xlink:title="minimization_mod">
<polygon fill="none" stroke="black" points="772,-665 650,-665 650,-629 772,-629 772,-665"/>
<text text-anchor="middle" x="711" y="-643.3" font-family="Times,serif" font-size="14.00">minimization_mod</text>
</a>
</g>
</g>
<!-- biascorrectionsat_mod -->
<g id="node2" class="node">
<title>biascorrectionsat_mod</title>
<g id="a_node2"><a xlink:href="../modules/biascorrectionsat_mod.svg" xlink:title="biascorrectionsat_mod">
<polygon fill="none" stroke="red" points="140,-593 0,-593 0,-557 140,-557 140,-593"/>
<text text-anchor="middle" x="70" y="-571.3" font-family="Times,serif" font-size="14.00">biascorrectionsat_mod</text>
</a>
</g>
</g>
<!-- minimization_mod&#45;&gt;biascorrectionsat_mod -->
<g id="edge1" class="edge">
<title>minimization_mod&#45;&gt;biascorrectionsat_mod</title>
<path fill="none" stroke="black" d="M649.75,-642.28C546.92,-635.56 333.2,-619.58 154,-593 152.72,-592.81 151.42,-592.61 150.12,-592.41"/>
<polygon fill="black" stroke="black" points="150.47,-588.92 140.03,-590.74 149.33,-595.83 150.47,-588.92"/>
</g>
<!-- bmatrix1dvar_mod -->
<g id="node3" class="node">
<title>bmatrix1dvar_mod</title>
<g id="a_node3"><a xlink:href="../modules/bmatrix1dvar_mod.svg" xlink:title="bmatrix1dvar_mod">
<polygon fill="none" stroke="red" points="203,-521 81,-521 81,-485 203,-485 203,-521"/>
<text text-anchor="middle" x="142" y="-499.3" font-family="Times,serif" font-size="14.00">bmatrix1dvar_mod</text>
</a>
</g>
</g>
<!-- minimization_mod&#45;&gt;bmatrix1dvar_mod -->
<g id="edge2" class="edge">
<title>minimization_mod&#45;&gt;bmatrix1dvar_mod</title>
<path fill="none" stroke="black" d="M649.77,-645.06C534.58,-642.38 290.59,-632.13 217,-593 190.27,-578.79 169.14,-550.72 156.21,-529.89"/>
<polygon fill="black" stroke="black" points="159.14,-527.98 151.01,-521.19 153.13,-531.57 159.14,-527.98"/>
</g>
<!-- bmatrix_mod -->
<g id="node4" class="node">
<title>bmatrix_mod</title>
<g id="a_node4"><a xlink:href="../modules/bmatrix_mod.svg" xlink:title="bmatrix_mod">
<polygon fill="none" stroke="red" points="241,-449 149,-449 149,-413 241,-413 241,-449"/>
<text text-anchor="middle" x="195" y="-427.3" font-family="Times,serif" font-size="14.00">bmatrix_mod</text>
</a>
</g>
</g>
<!-- minimization_mod&#45;&gt;bmatrix_mod -->
<g id="edge3" class="edge">
<title>minimization_mod&#45;&gt;bmatrix_mod</title>
<path fill="none" stroke="black" d="M649.75,-646.57C539.84,-646.37 314.98,-640.02 255,-593 249.47,-588.67 219.61,-503.58 204.2,-458.89"/>
<polygon fill="black" stroke="black" points="207.45,-457.56 200.88,-449.24 200.83,-459.84 207.45,-457.56"/>
</g>
<!-- codeprecision_mod -->
<g id="node5" class="node">
<title>codeprecision_mod</title>
<g id="a_node5"><a xlink:href="codeprecision_mod.html" xlink:title="codeprecision_mod">
<polygon fill="gray" stroke="black" points="278.5,-377 155.5,-377 155.5,-341 278.5,-341 278.5,-377"/>
<text text-anchor="middle" x="217" y="-355.3" font-family="Times,serif" font-size="14.00">codeprecision_mod</text>
</a>
</g>
</g>
<!-- minimization_mod&#45;&gt;codeprecision_mod -->
<g id="edge4" class="edge">
<title>minimization_mod&#45;&gt;codeprecision_mod</title>
<path fill="none" stroke="black" d="M649.85,-646.49C546.69,-646.01 344.32,-639.04 293,-593 231.78,-538.08 281.7,-488.9 250,-413 246.13,-403.75 240.75,-394.26 235.45,-385.91"/>
<polygon fill="black" stroke="black" points="238.25,-383.79 229.81,-377.37 232.4,-387.65 238.25,-383.79"/>
</g>
<!-- columndata_mod -->
<g id="node6" class="node">
<title>columndata_mod</title>
<g id="a_node6"><a xlink:href="../modules/columndata_mod.svg" xlink:title="columndata_mod">
<polygon fill="none" stroke="red" points="317,-305 205,-305 205,-269 317,-269 317,-305"/>
<text text-anchor="middle" x="261" y="-283.3" font-family="Times,serif" font-size="14.00">columndata_mod</text>
</a>
</g>
</g>
<!-- minimization_mod&#45;&gt;columndata_mod -->
<g id="edge5" class="edge">
<title>minimization_mod&#45;&gt;columndata_mod</title>
<path fill="none" stroke="black" d="M649.8,-645.43C554.59,-643.27 377.14,-633.71 331,-593 300.28,-565.89 307,-544.97 307,-504 307,-504 307,-504 307,-430 307,-389.46 300.47,-379.24 287,-341 283.83,-332.01 279.54,-322.56 275.35,-314.16"/>
<polygon fill="black" stroke="black" points="278.43,-312.5 270.73,-305.22 272.21,-315.71 278.43,-312.5"/>
</g>
<!-- columnvariabletransforms_mod -->
<g id="node7" class="node">
<title>columnvariabletransforms_mod</title>
<g id="a_node7"><a xlink:href="../modules/columnvariabletransforms_mod.svg" xlink:title="columnvariabletransforms_mod">
<polygon fill="none" stroke="red" points="354.5,-233 161.5,-233 161.5,-197 354.5,-197 354.5,-233"/>
<text text-anchor="middle" x="258" y="-211.3" font-family="Times,serif" font-size="14.00">columnvariabletransforms_mod</text>
</a>
</g>
</g>
<!-- minimization_mod&#45;&gt;columnvariabletransforms_mod -->
<g id="edge6" class="edge">
<title>minimization_mod&#45;&gt;columnvariabletransforms_mod</title>
<path fill="none" stroke="black" d="M649.84,-644.33C562.84,-640.69 409.39,-629.18 369,-593 338.49,-565.66 345,-544.97 345,-504 345,-504 345,-504 345,-358 345,-317.55 347.47,-303.28 326,-269 318.66,-257.27 307.75,-247.11 296.81,-238.9"/>
<polygon fill="black" stroke="black" points="298.68,-235.94 288.5,-233.01 294.64,-241.65 298.68,-235.94"/>
</g>
<!-- controlvector_mod -->
<g id="node8" class="node">
<title>controlvector_mod</title>
<g id="a_node8"><a xlink:href="../modules/controlvector_mod.svg" xlink:title="controlvector_mod">
<polygon fill="none" stroke="red" points="393,-161 273,-161 273,-125 393,-125 393,-161"/>
<text text-anchor="middle" x="333" y="-139.3" font-family="Times,serif" font-size="14.00">controlvector_mod</text>
</a>
</g>
</g>
<!-- minimization_mod&#45;&gt;controlvector_mod -->
<g id="edge7" class="edge">
<title>minimization_mod&#45;&gt;controlvector_mod</title>
<path fill="none" stroke="black" d="M649.69,-642.96C571.34,-637.81 441.67,-624.65 407,-593 376.75,-565.38 383,-544.97 383,-504 383,-504 383,-504 383,-286 383,-245.46 377.59,-234.83 363,-197 359.42,-187.73 354.43,-178.12 349.54,-169.67"/>
<polygon fill="black" stroke="black" points="352.5,-167.8 344.35,-161.03 346.5,-171.4 352.5,-167.8"/>
</g>
<!-- costfunction_mod -->
<g id="node9" class="node">
<title>costfunction_mod</title>
<g id="a_node9"><a xlink:href="../modules/costfunction_mod.svg" xlink:title="costfunction_mod">
<polygon fill="none" stroke="red" points="478.5,-89 363.5,-89 363.5,-53 478.5,-53 478.5,-89"/>
<text text-anchor="middle" x="421" y="-67.3" font-family="Times,serif" font-size="14.00">costfunction_mod</text>
</a>
</g>
</g>
<!-- minimization_mod&#45;&gt;costfunction_mod -->
<g id="edge8" class="edge">
<title>minimization_mod&#45;&gt;costfunction_mod</title>
<path fill="none" stroke="black" d="M649.95,-641.77C579.35,-635.61 469.1,-621.61 440,-593 411.15,-564.65 421,-544.45 421,-504 421,-504 421,-504 421,-214 421,-174 421,-127.65 421,-99.08"/>
<polygon fill="black" stroke="black" points="424.5,-99.05 421,-89.05 417.5,-99.05 424.5,-99.05"/>
</g>
<!-- gridstatevectorfileio_mod -->
<g id="node10" class="node">
<title>gridstatevectorfileio_mod</title>
<g id="a_node10"><a xlink:href="../modules/gridstatevectorfileio_mod.svg" xlink:title="gridstatevectorfileio_mod">
<polygon fill="none" stroke="red" points="607,-593 449,-593 449,-557 607,-557 607,-593"/>
<text text-anchor="middle" x="528" y="-571.3" font-family="Times,serif" font-size="14.00">gridstatevectorfileio_mod</text>
</a>
</g>
</g>
<!-- minimization_mod&#45;&gt;gridstatevectorfileio_mod -->
<g id="edge9" class="edge">
<title>minimization_mod&#45;&gt;gridstatevectorfileio_mod</title>
<path fill="none" stroke="black" d="M666.23,-628.88C640.88,-619.18 608.99,-606.98 582.23,-596.74"/>
<polygon fill="black" stroke="black" points="583.21,-593.37 572.62,-593.07 580.71,-599.91 583.21,-593.37"/>
</g>
<!-- gridstatevector_mod -->
<g id="node11" class="node">
<title>gridstatevector_mod</title>
<g id="a_node11"><a xlink:href="../modules/gridstatevector_mod.svg" xlink:title="gridstatevector_mod">
<polygon fill="none" stroke="red" points="645,-521 515,-521 515,-485 645,-485 645,-521"/>
<text text-anchor="middle" x="580" y="-499.3" font-family="Times,serif" font-size="14.00">gridstatevector_mod</text>
</a>
</g>
</g>
<!-- minimization_mod&#45;&gt;gridstatevector_mod -->
<g id="edge10" class="edge">
<title>minimization_mod&#45;&gt;gridstatevector_mod</title>
<path fill="none" stroke="black" d="M693.44,-628.55C683.26,-618.31 670.26,-605.06 659,-593 639.2,-571.78 617.34,-547.05 601.64,-529.05"/>
<polygon fill="black" stroke="black" points="604.1,-526.54 594.89,-521.29 598.82,-531.13 604.1,-526.54"/>
</g>
<!-- horizontalcoord_mod -->
<g id="node12" class="node">
<title>horizontalcoord_mod</title>
<g id="a_node12"><a xlink:href="../modules/horizontalcoord_mod.svg" xlink:title="horizontalcoord_mod">
<polygon fill="none" stroke="red" points="683,-449 549,-449 549,-413 683,-413 683,-449"/>
<text text-anchor="middle" x="616" y="-427.3" font-family="Times,serif" font-size="14.00">horizontalcoord_mod</text>
</a>
</g>
</g>
<!-- minimization_mod&#45;&gt;horizontalcoord_mod -->
<g id="edge11" class="edge">
<title>minimization_mod&#45;&gt;horizontalcoord_mod</title>
<path fill="none" stroke="black" d="M706.66,-628.9C698.64,-598.76 679.94,-534.68 654,-485 649.05,-475.52 642.57,-465.81 636.38,-457.34"/>
<polygon fill="black" stroke="black" points="639.15,-455.21 630.34,-449.34 633.57,-459.43 639.15,-455.21"/>
</g>
<!-- midasmpi_mod -->
<g id="node13" class="node">
<title>midasmpi_mod</title>
<g id="a_node13"><a xlink:href="../modules/midasmpi_mod.svg" xlink:title="midasmpi_mod">
<polygon fill="none" stroke="red" points="721,-377 619,-377 619,-341 721,-341 721,-377"/>
<text text-anchor="middle" x="670" y="-355.3" font-family="Times,serif" font-size="14.00">midasmpi_mod</text>
</a>
</g>
</g>
<!-- minimization_mod&#45;&gt;midasmpi_mod -->
<g id="edge12" class="edge">
<title>minimization_mod&#45;&gt;midasmpi_mod</title>
<path fill="none" stroke="black" d="M711.41,-628.76C711.95,-589.73 711.09,-491.89 692,-413 689.84,-404.09 686.4,-394.74 682.86,-386.42"/>
<polygon fill="black" stroke="black" points="686.02,-384.91 678.75,-377.2 679.63,-387.76 686.02,-384.91"/>
</g>
<!-- obsoperators_mod -->
<g id="node14" class="node">
<title>obsoperators_mod</title>
<g id="a_node14"><a xlink:href="../modules/obsoperators_mod.svg" xlink:title="obsoperators_mod">
<polygon fill="none" stroke="red" points="758.5,-305 641.5,-305 641.5,-269 758.5,-269 758.5,-305"/>
<text text-anchor="middle" x="700" y="-283.3" font-family="Times,serif" font-size="14.00">obsoperators_mod</text>
</a>
</g>
</g>
<!-- minimization_mod&#45;&gt;obsoperators_mod -->
<g id="edge13" class="edge">
<title>minimization_mod&#45;&gt;obsoperators_mod</title>
<path fill="none" stroke="black" d="M718.69,-628.91C729.79,-602.62 749,-550.45 749,-504 749,-504 749,-504 749,-430 749,-389.55 744.35,-378.82 730,-341 726.47,-331.71 721.49,-322.09 716.6,-313.65"/>
<polygon fill="black" stroke="black" points="719.56,-311.77 711.4,-305.01 713.56,-315.38 719.56,-311.77"/>
</g>
<!-- obsspacedata_mod -->
<g id="node15" class="node">
<title>obsspacedata_mod</title>
<g id="a_node15"><a xlink:href="../modules/obsspacedata_mod.svg" xlink:title="obsspacedata_mod">
<polygon fill="none" stroke="red" points="796.5,-233 677.5,-233 677.5,-197 796.5,-197 796.5,-233"/>
<text text-anchor="middle" x="737" y="-211.3" font-family="Times,serif" font-size="14.00">obsspacedata_mod</text>
</a>
</g>
</g>
<!-- minimization_mod&#45;&gt;obsspacedata_mod -->
<g id="edge14" class="edge">
<title>minimization_mod&#45;&gt;obsspacedata_mod</title>
<path fill="none" stroke="black" d="M727.49,-628.77C749.84,-603.53 787,-554.05 787,-504 787,-504 787,-504 787,-358 787,-317.46 781.59,-306.83 767,-269 763.42,-259.73 758.43,-250.12 753.54,-241.67"/>
<polygon fill="black" stroke="black" points="756.5,-239.8 748.35,-233.03 750.5,-243.4 756.5,-239.8"/>
</g>
<!-- obstimeinterp_mod -->
<g id="node16" class="node">
<title>obstimeinterp_mod</title>
<g id="a_node16"><a xlink:href="../modules/obstimeinterp_mod.svg" xlink:title="obstimeinterp_mod">
<polygon fill="none" stroke="red" points="835,-161 711,-161 711,-125 835,-125 835,-161"/>
<text text-anchor="middle" x="773" y="-139.3" font-family="Times,serif" font-size="14.00">obstimeinterp_mod</text>
</a>
</g>
</g>
<!-- minimization_mod&#45;&gt;obstimeinterp_mod -->
<g id="edge15" class="edge">
<title>minimization_mod&#45;&gt;obstimeinterp_mod</title>
<path fill="none" stroke="black" d="M738.02,-628.96C771.73,-605.37 825,-559.33 825,-504 825,-504 825,-504 825,-286 825,-245.46 820.12,-234.62 805,-197 801.29,-187.77 796.08,-178.29 790.94,-169.94"/>
<polygon fill="black" stroke="black" points="793.81,-167.93 785.47,-161.4 787.92,-171.71 793.81,-167.93"/>
</g>
<!-- quasinewton_mod -->
<g id="node17" class="node">
<title>quasinewton_mod</title>
<g id="a_node17"><a xlink:href="../modules/quasinewton_mod.svg" xlink:title="quasinewton_mod">
<polygon fill="none" stroke="red" points="921.5,-89 804.5,-89 804.5,-53 921.5,-53 921.5,-89"/>
<text text-anchor="middle" x="863" y="-67.3" font-family="Times,serif" font-size="14.00">quasinewton_mod</text>
</a>
</g>
</g>
<!-- minimization_mod&#45;&gt;quasinewton_mod -->
<g id="edge16" class="edge">
<title>minimization_mod&#45;&gt;quasinewton_mod</title>
<path fill="none" stroke="black" d="M752.13,-628.9C797.15,-607.12 863,-564.85 863,-504 863,-504 863,-504 863,-214 863,-174 863,-127.65 863,-99.08"/>
<polygon fill="black" stroke="black" points="866.5,-99.05 863,-89.05 859.5,-99.05 866.5,-99.05"/>
</g>
<!-- residual_mod -->
<g id="node18" class="node">
<title>residual_mod</title>
<g id="a_node18"><a xlink:href="../modules/residual_mod.svg" xlink:title="residual_mod">
<polygon fill="none" stroke="red" points="982.5,-593 891.5,-593 891.5,-557 982.5,-557 982.5,-593"/>
<text text-anchor="middle" x="937" y="-571.3" font-family="Times,serif" font-size="14.00">residual_mod</text>
</a>
</g>
</g>
<!-- minimization_mod&#45;&gt;residual_mod -->
<g id="edge17" class="edge">
<title>minimization_mod&#45;&gt;residual_mod</title>
<path fill="none" stroke="black" d="M766,-628.97C801.11,-618.09 846.47,-604.04 881.65,-593.14"/>
<polygon fill="black" stroke="black" points="882.77,-596.46 891.29,-590.16 880.7,-589.77 882.77,-596.46"/>
</g>
<!-- rmatrix_mod -->
<g id="node19" class="node">
<title>rmatrix_mod</title>
<g id="a_node19"><a xlink:href="../modules/rmatrix_mod.svg" xlink:title="rmatrix_mod">
<polygon fill="none" stroke="red" points="1021,-521 931,-521 931,-485 1021,-485 1021,-521"/>
<text text-anchor="middle" x="976" y="-499.3" font-family="Times,serif" font-size="14.00">rmatrix_mod</text>
</a>
</g>
</g>
<!-- minimization_mod&#45;&gt;rmatrix_mod -->
<g id="edge18" class="edge">
<title>minimization_mod&#45;&gt;rmatrix_mod</title>
<path fill="none" stroke="black" d="M772.24,-643.25C846.11,-638.5 963.78,-625.86 991,-593 1005.37,-575.66 998.88,-549.74 990.42,-530.34"/>
<polygon fill="black" stroke="black" points="993.5,-528.67 986.05,-521.13 987.18,-531.67 993.5,-528.67"/>
</g>
<!-- statetocolumn_mod -->
<g id="node20" class="node">
<title>statetocolumn_mod</title>
<g id="a_node20"><a xlink:href="../modules/statetocolumn_mod.svg" xlink:title="statetocolumn_mod">
<polygon fill="none" stroke="red" points="1058.5,-449 933.5,-449 933.5,-413 1058.5,-413 1058.5,-449"/>
<text text-anchor="middle" x="996" y="-427.3" font-family="Times,serif" font-size="14.00">statetocolumn_mod</text>
</a>
</g>
</g>
<!-- minimization_mod&#45;&gt;statetocolumn_mod -->
<g id="edge19" class="edge">
<title>minimization_mod&#45;&gt;statetocolumn_mod</title>
<path fill="none" stroke="black" d="M772.27,-642.71C849.4,-637.32 975.96,-623.94 1010,-593 1046.13,-560.17 1043.73,-531.84 1030,-485 1027.2,-475.45 1022.09,-465.98 1016.67,-457.76"/>
<polygon fill="black" stroke="black" points="1019.38,-455.52 1010.75,-449.37 1013.65,-459.56 1019.38,-455.52"/>
</g>
<!-- timecoord_mod -->
<g id="node21" class="node">
<title>timecoord_mod</title>
<g id="a_node21"><a xlink:href="../modules/timecoord_mod.svg" xlink:title="timecoord_mod">
<polygon fill="none" stroke="red" points="1097,-377 993,-377 993,-341 1097,-341 1097,-377"/>
<text text-anchor="middle" x="1045" y="-355.3" font-family="Times,serif" font-size="14.00">timecoord_mod</text>
</a>
</g>
</g>
<!-- minimization_mod&#45;&gt;timecoord_mod -->
<g id="edge20" class="edge">
<title>minimization_mod&#45;&gt;timecoord_mod</title>
<path fill="none" stroke="black" d="M772.02,-644.11C855.71,-640.22 999.97,-628.43 1037,-593 1095.6,-536.93 1082.85,-492.54 1067,-413 1065.21,-404.01 1061.86,-394.64 1058.31,-386.32"/>
<polygon fill="black" stroke="black" points="1061.46,-384.77 1054.13,-377.12 1055.08,-387.67 1061.46,-384.77"/>
</g>
<!-- utilities_mod -->
<g id="node22" class="node">
<title>utilities_mod</title>
<g id="a_node22"><a xlink:href="../modules/utilities_mod.svg" xlink:title="utilities_mod">
<polygon fill="none" stroke="red" points="1151.5,-305 1062.5,-305 1062.5,-269 1151.5,-269 1151.5,-305"/>
<text text-anchor="middle" x="1107" y="-283.3" font-family="Times,serif" font-size="14.00">utilities_mod</text>
</a>
</g>
</g>
<!-- minimization_mod&#45;&gt;utilities_mod -->
<g id="edge21" class="edge">
<title>minimization_mod&#45;&gt;utilities_mod</title>
<path fill="none" stroke="black" d="M772.31,-642.82C860.66,-637.24 1018.42,-623.28 1066,-593 1106.04,-567.52 1125,-551.46 1125,-504 1125,-504 1125,-504 1125,-430 1125,-389.9 1117.85,-343.92 1112.56,-315.42"/>
<polygon fill="black" stroke="black" points="1115.96,-314.56 1110.64,-305.4 1109.08,-315.88 1115.96,-314.56"/>
</g>
<!-- varqc_mod -->
<g id="node23" class="node">
<title>varqc_mod</title>
<g id="a_node23"><a xlink:href="../modules/varqc_mod.svg" xlink:title="varqc_mod">
<polygon fill="none" stroke="red" points="1219,-233 1141,-233 1141,-197 1219,-197 1219,-233"/>
<text text-anchor="middle" x="1180" y="-211.3" font-family="Times,serif" font-size="14.00">varqc_mod</text>
</a>
</g>
</g>
<!-- minimization_mod&#45;&gt;varqc_mod -->
<g id="edge22" class="edge">
<title>minimization_mod&#45;&gt;varqc_mod</title>
<path fill="none" stroke="black" d="M772.05,-642.93C867.33,-637.27 1046.25,-622.95 1102,-593 1148.33,-568.11 1180,-556.6 1180,-504 1180,-504 1180,-504 1180,-358 1180,-318 1180,-271.65 1180,-243.08"/>
<polygon fill="black" stroke="black" points="1183.5,-243.05 1180,-233.05 1176.5,-243.05 1183.5,-243.05"/>
</g>
<!-- verticalcoord_mod -->
<g id="node24" class="node">
<title>verticalcoord_mod</title>
<g id="a_node24"><a xlink:href="../modules/verticalcoord_mod.svg" xlink:title="verticalcoord_mod">
<polygon fill="none" stroke="red" points="1307,-161 1187,-161 1187,-125 1307,-125 1307,-161"/>
<text text-anchor="middle" x="1247" y="-139.3" font-family="Times,serif" font-size="14.00">verticalcoord_mod</text>
</a>
</g>
</g>
<!-- minimization_mod&#45;&gt;verticalcoord_mod -->
<g id="edge23" class="edge">
<title>minimization_mod&#45;&gt;verticalcoord_mod</title>
<path fill="none" stroke="black" d="M772.39,-642.94C875.78,-637.06 1079.75,-622.1 1145,-593 1199.95,-568.5 1247,-564.16 1247,-504 1247,-504 1247,-504 1247,-286 1247,-246 1247,-199.65 1247,-171.08"/>
<polygon fill="black" stroke="black" points="1250.5,-171.05 1247,-161.05 1243.5,-171.05 1250.5,-171.05"/>
</g>
</g>
</svg>
