<?xml version="1.0" encoding="UTF-8" standalone="no"?>
<!DOCTYPE svg PUBLIC "-//W3C//DTD SVG 1.1//EN"
 "http://www.w3.org/Graphics/SVG/1.1/DTD/svg11.dtd">
<!-- Generated by graphviz version 3.0.0 (20220315.2325)
 -->
<!-- Title: multiIRbgck_mod Pages: 1 -->
<svg width="474pt" height="601pt"
 viewBox="0.00 0.00 473.50 601.00" xmlns="http://www.w3.org/2000/svg" xmlns:xlink="http://www.w3.org/1999/xlink">
<g id="graph0" class="graph" transform="scale(1 1) rotate(0) translate(4 597)">
<title>multiIRbgck_mod</title>
<polygon fill="white" stroke="transparent" points="-4,4 -4,-597 469.5,-597 469.5,4 -4,4"/>
<text text-anchor="middle" x="232.75" y="-37.8" font-family="Times,serif" font-size="14.00">Red boxes indicate modules with dependencies not shown</text>
<text text-anchor="middle" x="232.75" y="-22.8" font-family="Times,serif" font-size="14.00">Lower level dependencies can be shown by clicking on a red box</text>
<text text-anchor="middle" x="232.75" y="-7.8" font-family="Times,serif" font-size="14.00">Shaded boxes indicate modules with no dependencies</text>
<!-- multiIRbgck_mod -->
<g id="node1" class="node">
<title>multiIRbgck_mod</title>
<g id="a_node1"><a xlink:href="multiIRbgck_mod.html" xlink:title="multiIRbgck_mod">
<polygon fill="none" stroke="black" points="307.5,-593 190.5,-593 190.5,-557 307.5,-557 307.5,-593"/>
<text text-anchor="middle" x="249" y="-571.3" font-family="Times,serif" font-size="14.00">multiIRbgck_mod</text>
</a>
</g>
</g>
<!-- columndata_mod -->
<g id="node2" class="node">
<title>columndata_mod</title>
<g id="a_node2"><a xlink:href="../modules/columndata_mod.svg" xlink:title="columndata_mod">
<polygon fill="none" stroke="red" points="112,-521 0,-521 0,-485 112,-485 112,-521"/>
<text text-anchor="middle" x="56" y="-499.3" font-family="Times,serif" font-size="14.00">columndata_mod</text>
</a>
</g>
</g>
<!-- multiIRbgck_mod&#45;&gt;columndata_mod -->
<g id="edge1" class="edge">
<title>multiIRbgck_mod&#45;&gt;columndata_mod</title>
<path fill="none" stroke="black" d="M201.79,-556.88C174.93,-547.14 141.12,-534.87 112.82,-524.61"/>
<polygon fill="black" stroke="black" points="113.65,-521.19 103.06,-521.07 111.27,-527.77 113.65,-521.19"/>
</g>
<!-- mathphysconstants_mod -->
<g id="node3" class="node">
<title>mathphysconstants_mod</title>
<g id="a_node3"><a xlink:href="mathphysconstants_mod.html" xlink:title="mathphysconstants_mod">
<polygon fill="gray" stroke="black" points="183,-449 31,-449 31,-413 183,-413 183,-449"/>
<text text-anchor="middle" x="107" y="-427.3" font-family="Times,serif" font-size="14.00">mathphysconstants_mod</text>
</a>
</g>
</g>
<!-- multiIRbgck_mod&#45;&gt;mathphysconstants_mod -->
<g id="edge2" class="edge">
<title>multiIRbgck_mod&#45;&gt;mathphysconstants_mod</title>
<path fill="none" stroke="black" d="M231.87,-556.87C206.82,-531.82 160.05,-485.05 131.41,-456.41"/>
<polygon fill="black" stroke="black" points="133.74,-453.79 124.19,-449.19 128.79,-458.74 133.74,-453.79"/>
</g>
<!-- midasmpi_mod -->
<g id="node4" class="node">
<title>midasmpi_mod</title>
<g id="a_node4"><a xlink:href="../modules/midasmpi_mod.svg" xlink:title="midasmpi_mod">
<polygon fill="none" stroke="red" points="221,-377 119,-377 119,-341 221,-341 221,-377"/>
<text text-anchor="middle" x="170" y="-355.3" font-family="Times,serif" font-size="14.00">midasmpi_mod</text>
</a>
</g>
</g>
<!-- multiIRbgck_mod&#45;&gt;midasmpi_mod -->
<g id="edge3" class="edge">
<title>multiIRbgck_mod&#45;&gt;midasmpi_mod</title>
<path fill="none" stroke="black" d="M243.3,-556.97C233.36,-527.47 211.99,-465.04 192,-413 188.66,-404.31 184.83,-394.9 181.31,-386.46"/>
<polygon fill="black" stroke="black" points="184.47,-384.95 177.37,-377.09 178.02,-387.67 184.47,-384.95"/>
</g>
<!-- obsspacedata_mod -->
<g id="node5" class="node">
<title>obsspacedata_mod</title>
<g id="a_node5"><a xlink:href="../modules/obsspacedata_mod.svg" xlink:title="obsspacedata_mod">
<polygon fill="none" stroke="red" points="258.5,-305 139.5,-305 139.5,-269 258.5,-269 258.5,-305"/>
<text text-anchor="middle" x="199" y="-283.3" font-family="Times,serif" font-size="14.00">obsspacedata_mod</text>
</a>
</g>
</g>
<!-- multiIRbgck_mod&#45;&gt;obsspacedata_mod -->
<g id="edge4" class="edge">
<title>multiIRbgck_mod&#45;&gt;obsspacedata_mod</title>
<path fill="none" stroke="black" d="M250.16,-556.84C252.26,-517.58 254.46,-418.61 230,-341 227.04,-331.59 222.16,-322.06 217.15,-313.73"/>
<polygon fill="black" stroke="black" points="220.06,-311.77 211.74,-305.21 214.15,-315.53 220.06,-311.77"/>
</g>
<!-- rttovinterfaces_mod -->
<g id="node6" class="node">
<title>rttovinterfaces_mod</title>
<g id="a_node6"><a xlink:href="rttovinterfaces_mod.html" xlink:title="rttovinterfaces_mod">
<polygon fill="gray" stroke="black" points="324,-233 196,-233 196,-197 324,-197 324,-233"/>
<text text-anchor="middle" x="260" y="-211.3" font-family="Times,serif" font-size="14.00">rttovinterfaces_mod</text>
</a>
</g>
</g>
<!-- multiIRbgck_mod&#45;&gt;rttovinterfaces_mod -->
<g id="edge5" class="edge">
<title>multiIRbgck_mod&#45;&gt;rttovinterfaces_mod</title>
<path fill="none" stroke="black" d="M256.69,-556.91C267.79,-530.62 287,-478.45 287,-432 287,-432 287,-432 287,-358 287,-317.5 276.27,-271.63 268.34,-243.26"/>
<polygon fill="black" stroke="black" points="271.6,-241.93 265.46,-233.29 264.87,-243.87 271.6,-241.93"/>
</g>
<!-- tovsnl_mod -->
<g id="node7" class="node">
<title>tovsnl_mod</title>
<g id="a_node7"><a xlink:href="../modules/tovsnl_mod.svg" xlink:title="tovsnl_mod">
<polygon fill="none" stroke="red" points="392.5,-161 311.5,-161 311.5,-125 392.5,-125 392.5,-161"/>
<text text-anchor="middle" x="352" y="-139.3" font-family="Times,serif" font-size="14.00">tovsnl_mod</text>
</a>
</g>
</g>
<!-- multiIRbgck_mod&#45;&gt;tovsnl_mod -->
<g id="edge6" class="edge">
<title>multiIRbgck_mod&#45;&gt;tovsnl_mod</title>
<path fill="none" stroke="black" d="M272.63,-556.97C303.04,-532.89 352,-485.75 352,-432 352,-432 352,-432 352,-286 352,-246 352,-199.65 352,-171.08"/>
<polygon fill="black" stroke="black" points="355.5,-171.05 352,-161.05 348.5,-171.05 355.5,-171.05"/>
</g>
<!-- utilities_mod -->
<g id="node8" class="node">
<title>utilities_mod</title>
<g id="a_node8"><a xlink:href="../modules/utilities_mod.svg" xlink:title="utilities_mod">
<polygon fill="none" stroke="red" points="465.5,-89 376.5,-89 376.5,-53 465.5,-53 465.5,-89"/>
<text text-anchor="middle" x="421" y="-67.3" font-family="Times,serif" font-size="14.00">utilities_mod</text>
</a>
</g>
</g>
<!-- multiIRbgck_mod&#45;&gt;utilities_mod -->
<g id="edge7" class="edge">
<title>multiIRbgck_mod&#45;&gt;utilities_mod</title>
<path fill="none" stroke="black" d="M299.21,-556.96C349.98,-536.17 421,-495.7 421,-432 421,-432 421,-432 421,-214 421,-174 421,-127.65 421,-99.08"/>
<polygon fill="black" stroke="black" points="424.5,-99.05 421,-89.05 417.5,-99.05 424.5,-99.05"/>
</g>
</g>
</svg>
