<?xml version="1.0" encoding="UTF-8" standalone="no"?>
<!DOCTYPE svg PUBLIC "-//W3C//DTD SVG 1.1//EN"
 "http://www.w3.org/Graphics/SVG/1.1/DTD/svg11.dtd">
<!-- Generated by graphviz version 3.0.0 (20220315.2325)
 -->
<!-- Title: multiIRbgck_mod Pages: 1 -->
<svg width="433pt" height="241pt"
 viewBox="0.00 0.00 433.00 241.00" xmlns="http://www.w3.org/2000/svg" xmlns:xlink="http://www.w3.org/1999/xlink">
<g id="graph0" class="graph" transform="scale(1 1) rotate(0) translate(4 237)">
<title>multiIRbgck_mod</title>
<polygon fill="white" stroke="transparent" points="-4,4 -4,-237 429,-237 429,4 -4,4"/>
<text text-anchor="middle" x="212.5" y="-217.8" font-family="Times,serif" font-size="14.00">Blue boxes indicate modules with reverse dependencies not shown</text>
<text text-anchor="middle" x="212.5" y="-202.8" font-family="Times,serif" font-size="14.00">Higher level reverse dependencies can be shown by clicking on a blue box</text>
<text text-anchor="middle" x="212.5" y="-187.8" font-family="Times,serif" font-size="14.00">Green boxes are programs</text>
<!-- multiIRbgck_mod -->
<g id="node1" class="node">
<title>multiIRbgck_mod</title>
<g id="a_node1"><a xlink:href="multiIRbgck_mod.html" xlink:title="multiIRbgck_mod">
<polygon fill="none" stroke="black" points="256.25,-36 139.25,-36 139.25,0 256.25,0 256.25,-36"/>
<text text-anchor="middle" x="197.75" y="-14.3" font-family="Times,serif" font-size="14.00">multiIRbgck_mod</text>
</a>
</g>
</g>
<!-- innovation_mod -->
<g id="node2" class="node">
<title>innovation_mod</title>
<g id="a_node2"><a xlink:href="../modules/innovation_mod_rev.svg" xlink:title="innovation_mod">
<polygon fill="none" stroke="blue" points="210.75,-108 104.75,-108 104.75,-72 210.75,-72 210.75,-108"/>
<text text-anchor="middle" x="157.75" y="-86.3" font-family="Times,serif" font-size="14.00">innovation_mod</text>
</a>
</g>
</g>
<!-- innovation_mod&#45;&gt;multiIRbgck_mod -->
<g id="edge1" class="edge">
<title>innovation_mod&#45;&gt;multiIRbgck_mod</title>
<path fill="none" stroke="black" d="M171.76,-64.48C177.12,-55.11 183.1,-44.64 187.98,-36.1"/>
<ellipse fill="black" stroke="black" cx="169.62" cy="-68.22" rx="4" ry="4"/>
</g>
<!-- midas_midas_obsselection -->
<g id="node3" class="node">
<title>midas_midas_obsselection</title>
<g id="a_node3"><a xlink:href="../programs/midas_obsselection.html" xlink:title="midas_midas_obsselection">
<polygon fill="gray" stroke="green" points="320.25,-180 157.25,-180 157.25,-144 320.25,-144 320.25,-180"/>
<text text-anchor="middle" x="238.75" y="-158.3" font-family="Times,serif" font-size="14.00">midas_midas_obsselection</text>
</a>
</g>
</g>
<!-- midas_midas_obsselection&#45;&gt;multiIRbgck_mod -->
<g id="edge2" class="edge">
<title>midas_midas_obsselection&#45;&gt;multiIRbgck_mod</title>
<path fill="none" stroke="black" d="M234.58,-135.45C231.34,-117.48 226.29,-93 219.75,-72 215.96,-59.82 210.46,-46.57 205.91,-36.37"/>
<ellipse fill="black" stroke="black" cx="235.33" cy="-139.76" rx="4" ry="4"/>
</g>
</g>
</svg>
