<?xml version="1.0" encoding="UTF-8" standalone="no"?>
<!DOCTYPE svg PUBLIC "-//W3C//DTD SVG 1.1//EN"
 "http://www.w3.org/Graphics/SVG/1.1/DTD/svg11.dtd">
<!-- Generated by graphviz version 3.0.0 (20220315.2325)
 -->
<!-- Title: ObsColumnNames_mod Pages: 1 -->
<svg width="433pt" height="241pt"
 viewBox="0.00 0.00 433.00 241.00" xmlns="http://www.w3.org/2000/svg" xmlns:xlink="http://www.w3.org/1999/xlink">
<g id="graph0" class="graph" transform="scale(1 1) rotate(0) translate(4 237)">
<title>ObsColumnNames_mod</title>
<polygon fill="white" stroke="transparent" points="-4,4 -4,-237 429,-237 429,4 -4,4"/>
<text text-anchor="middle" x="212.5" y="-217.8" font-family="Times,serif" font-size="14.00">Blue boxes indicate modules with reverse dependencies not shown</text>
<text text-anchor="middle" x="212.5" y="-202.8" font-family="Times,serif" font-size="14.00">Higher level reverse dependencies can be shown by clicking on a blue box</text>
<text text-anchor="middle" x="212.5" y="-187.8" font-family="Times,serif" font-size="14.00">Green boxes are programs</text>
<!-- ObsColumnNames_mod -->
<g id="node1" class="node">
<title>ObsColumnNames_mod</title>
<g id="a_node1"><a xlink:href="ObsColumnNames_mod.html" xlink:title="ObsColumnNames_mod">
<polygon fill="none" stroke="black" points="291.5,-36 139.5,-36 139.5,0 291.5,0 291.5,-36"/>
<text text-anchor="middle" x="215.5" y="-14.3" font-family="Times,serif" font-size="14.00">ObsColumnNames_mod</text>
</a>
</g>
</g>
<!-- obsdatacolumn_mod -->
<g id="node2" class="node">
<title>obsdatacolumn_mod</title>
<g id="a_node2"><a xlink:href="../modules/obsdatacolumn_mod_rev.svg" xlink:title="obsdatacolumn_mod">
<polygon fill="none" stroke="blue" points="234,-108 103,-108 103,-72 234,-72 234,-108"/>
<text text-anchor="middle" x="168.5" y="-86.3" font-family="Times,serif" font-size="14.00">obsdatacolumn_mod</text>
</a>
</g>
</g>
<!-- obsdatacolumn_mod&#45;&gt;ObsColumnNames_mod -->
<g id="edge1" class="edge">
<title>obsdatacolumn_mod&#45;&gt;ObsColumnNames_mod</title>
<path fill="none" stroke="black" d="M184.59,-65.03C190.98,-55.52 198.17,-44.8 204.02,-36.1"/>
<ellipse fill="black" stroke="black" cx="182.35" cy="-68.38" rx="4" ry="4"/>
</g>
<!-- obsspacedata_mod -->
<g id="node3" class="node">
<title>obsspacedata_mod</title>
<g id="a_node3"><a xlink:href="../modules/obsspacedata_mod_rev.svg" xlink:title="obsspacedata_mod">
<polygon fill="none" stroke="blue" points="322,-180 203,-180 203,-144 322,-144 322,-180"/>
<text text-anchor="middle" x="262.5" y="-158.3" font-family="Times,serif" font-size="14.00">obsspacedata_mod</text>
</a>
</g>
</g>
<!-- obsspacedata_mod&#45;&gt;ObsColumnNames_mod -->
<g id="edge2" class="edge">
<title>obsspacedata_mod&#45;&gt;ObsColumnNames_mod</title>
<path fill="none" stroke="black" d="M258.99,-135.58C256.03,-117.49 251.05,-92.8 243.5,-72 238.96,-59.48 231.96,-46.23 226.09,-36.11"/>
<ellipse fill="black" stroke="black" cx="259.66" cy="-139.93" rx="4" ry="4"/>
</g>
</g>
</svg>
