<?xml version="1.0" encoding="UTF-8" standalone="no"?>
<!DOCTYPE svg PUBLIC "-//W3C//DTD SVG 1.1//EN"
 "http://www.w3.org/Graphics/SVG/1.1/DTD/svg11.dtd">
<!-- Generated by graphviz version 3.0.0 (20220315.2325)
 -->
<!-- Title: obsdbFiles_mod Pages: 1 -->
<svg width="773pt" height="673pt"
 viewBox="0.00 0.00 773.00 673.00" xmlns="http://www.w3.org/2000/svg" xmlns:xlink="http://www.w3.org/1999/xlink">
<g id="graph0" class="graph" transform="scale(1 1) rotate(0) translate(4 669)">
<title>obsdbFiles_mod</title>
<polygon fill="white" stroke="transparent" points="-4,4 -4,-669 769,-669 769,4 -4,4"/>
<text text-anchor="middle" x="382.5" y="-37.8" font-family="Times,serif" font-size="14.00">Red boxes indicate modules with dependencies not shown</text>
<text text-anchor="middle" x="382.5" y="-22.8" font-family="Times,serif" font-size="14.00">Lower level dependencies can be shown by clicking on a red box</text>
<text text-anchor="middle" x="382.5" y="-7.8" font-family="Times,serif" font-size="14.00">Shaded boxes indicate modules with no dependencies</text>
<!-- obsdbFiles_mod -->
<g id="node1" class="node">
<title>obsdbFiles_mod</title>
<g id="a_node1"><a xlink:href="obsdbFiles_mod.html" xlink:title="obsdbFiles_mod">
<polygon fill="none" stroke="black" points="349,-665 242,-665 242,-629 349,-629 349,-665"/>
<text text-anchor="middle" x="295.5" y="-643.3" font-family="Times,serif" font-size="14.00">obsdbFiles_mod</text>
</a>
</g>
</g>
<!-- bufr_mod -->
<g id="node2" class="node">
<title>bufr_mod</title>
<g id="a_node2"><a xlink:href="bufr_mod.html" xlink:title="bufr_mod">
<polygon fill="gray" stroke="black" points="71,-593 0,-593 0,-557 71,-557 71,-593"/>
<text text-anchor="middle" x="35.5" y="-571.3" font-family="Times,serif" font-size="14.00">bufr_mod</text>
</a>
</g>
</g>
<!-- obsdbFiles_mod&#45;&gt;bufr_mod -->
<g id="edge1" class="edge">
<title>obsdbFiles_mod&#45;&gt;bufr_mod</title>
<path fill="none" stroke="black" d="M241.66,-633.67C199.05,-623.62 138.15,-608.57 85.5,-593 84.04,-592.57 82.57,-592.12 81.08,-591.67"/>
<polygon fill="black" stroke="black" points="81.76,-588.21 71.17,-588.52 79.64,-594.88 81.76,-588.21"/>
</g>
<!-- clibinterfaces_mod -->
<g id="node3" class="node">
<title>clibinterfaces_mod</title>
<g id="a_node3"><a xlink:href="clibinterfaces_mod.html" xlink:title="clibinterfaces_mod">
<polygon fill="gray" stroke="black" points="134.5,-521 12.5,-521 12.5,-485 134.5,-485 134.5,-521"/>
<text text-anchor="middle" x="73.5" y="-499.3" font-family="Times,serif" font-size="14.00">clibinterfaces_mod</text>
</a>
</g>
</g>
<!-- obsdbFiles_mod&#45;&gt;clibinterfaces_mod -->
<g id="edge2" class="edge">
<title>obsdbFiles_mod&#45;&gt;clibinterfaces_mod</title>
<path fill="none" stroke="black" d="M241.98,-633.99C212.6,-625.68 176.55,-612.53 148.5,-593 124.2,-576.08 103.14,-549.36 89.58,-529.61"/>
<polygon fill="black" stroke="black" points="92.35,-527.46 83.89,-521.09 86.53,-531.35 92.35,-527.46"/>
</g>
<!-- codeprecision_mod -->
<g id="node4" class="node">
<title>codeprecision_mod</title>
<g id="a_node4"><a xlink:href="codeprecision_mod.html" xlink:title="codeprecision_mod">
<polygon fill="gray" stroke="black" points="172,-449 49,-449 49,-413 172,-413 172,-449"/>
<text text-anchor="middle" x="110.5" y="-427.3" font-family="Times,serif" font-size="14.00">codeprecision_mod</text>
</a>
</g>
</g>
<!-- obsdbFiles_mod&#45;&gt;codeprecision_mod -->
<g id="edge3" class="edge">
<title>obsdbFiles_mod&#45;&gt;codeprecision_mod</title>
<path fill="none" stroke="black" d="M241.88,-629.21C222.38,-620.9 201.47,-609.11 186.5,-593 151.34,-555.15 166.8,-531.11 143.5,-485 138.86,-475.81 133.11,-466.14 127.73,-457.62"/>
<polygon fill="black" stroke="black" points="130.67,-455.72 122.31,-449.21 124.79,-459.51 130.67,-455.72"/>
</g>
<!-- codtyp_mod -->
<g id="node5" class="node">
<title>codtyp_mod</title>
<g id="a_node5"><a xlink:href="../modules/codtyp_mod.svg" xlink:title="codtyp_mod">
<polygon fill="none" stroke="red" points="210,-377 125,-377 125,-341 210,-341 210,-377"/>
<text text-anchor="middle" x="167.5" y="-355.3" font-family="Times,serif" font-size="14.00">codtyp_mod</text>
</a>
</g>
</g>
<!-- obsdbFiles_mod&#45;&gt;codtyp_mod -->
<g id="edge4" class="edge">
<title>obsdbFiles_mod&#45;&gt;codtyp_mod</title>
<path fill="none" stroke="black" d="M263.5,-628.9C249.58,-619.94 234.26,-607.75 224.5,-593 179.05,-524.32 200.09,-492.99 180.5,-413 178.44,-404.59 176.19,-395.43 174.16,-387.12"/>
<polygon fill="black" stroke="black" points="177.5,-386.06 171.72,-377.18 170.7,-387.73 177.5,-386.06"/>
</g>
<!-- mathphysconstants_mod -->
<g id="node6" class="node">
<title>mathphysconstants_mod</title>
<g id="a_node6"><a xlink:href="mathphysconstants_mod.html" xlink:title="mathphysconstants_mod">
<polygon fill="gray" stroke="black" points="248.5,-305 96.5,-305 96.5,-269 248.5,-269 248.5,-305"/>
<text text-anchor="middle" x="172.5" y="-283.3" font-family="Times,serif" font-size="14.00">mathphysconstants_mod</text>
</a>
</g>
</g>
<!-- obsdbFiles_mod&#45;&gt;mathphysconstants_mod -->
<g id="edge5" class="edge">
<title>obsdbFiles_mod&#45;&gt;mathphysconstants_mod</title>
<path fill="none" stroke="black" d="M282.83,-628.57C276.03,-618.56 267.95,-605.52 262.5,-593 246.16,-555.43 238.5,-544.97 238.5,-504 238.5,-504 238.5,-504 238.5,-430 238.5,-389.46 236.79,-377.18 218.5,-341 213.42,-330.95 206.01,-321.24 198.61,-312.95"/>
<polygon fill="black" stroke="black" points="200.99,-310.37 191.61,-305.46 195.88,-315.15 200.99,-310.37"/>
</g>
<!-- midasmpi_mod -->
<g id="node7" class="node">
<title>midasmpi_mod</title>
<g id="a_node7"><a xlink:href="../modules/midasmpi_mod.svg" xlink:title="midasmpi_mod">
<polygon fill="none" stroke="red" points="286.5,-233 184.5,-233 184.5,-197 286.5,-197 286.5,-233"/>
<text text-anchor="middle" x="235.5" y="-211.3" font-family="Times,serif" font-size="14.00">midasmpi_mod</text>
</a>
</g>
</g>
<!-- obsdbFiles_mod&#45;&gt;midasmpi_mod -->
<g id="edge6" class="edge">
<title>obsdbFiles_mod&#45;&gt;midasmpi_mod</title>
<path fill="none" stroke="black" d="M291.66,-628.61C286.1,-601.94 276.5,-549.27 276.5,-504 276.5,-504 276.5,-504 276.5,-358 276.5,-316.41 260.06,-270.56 248,-242.51"/>
<polygon fill="black" stroke="black" points="251.05,-240.75 243.8,-233.03 244.65,-243.59 251.05,-240.75"/>
</g>
<!-- obsspacedata_mod -->
<g id="node8" class="node">
<title>obsspacedata_mod</title>
<g id="a_node8"><a xlink:href="../modules/obsspacedata_mod.svg" xlink:title="obsspacedata_mod">
<polygon fill="none" stroke="red" points="324,-161 205,-161 205,-125 324,-125 324,-161"/>
<text text-anchor="middle" x="264.5" y="-139.3" font-family="Times,serif" font-size="14.00">obsspacedata_mod</text>
</a>
</g>
</g>
<!-- obsdbFiles_mod&#45;&gt;obsspacedata_mod -->
<g id="edge7" class="edge">
<title>obsdbFiles_mod&#45;&gt;obsspacedata_mod</title>
<path fill="none" stroke="black" d="M299.34,-628.61C304.9,-601.94 314.5,-549.27 314.5,-504 314.5,-504 314.5,-504 314.5,-286 314.5,-245.55 310.12,-234.71 295.5,-197 291.94,-187.8 286.9,-178.33 281.92,-169.98"/>
<polygon fill="black" stroke="black" points="284.86,-168.08 276.61,-161.43 278.91,-171.77 284.86,-168.08"/>
</g>
<!-- obsutil_mod -->
<g id="node9" class="node">
<title>obsutil_mod</title>
<g id="a_node9"><a xlink:href="../modules/obsutil_mod.svg" xlink:title="obsutil_mod">
<polygon fill="none" stroke="red" points="395,-89 310,-89 310,-53 395,-53 395,-89"/>
<text text-anchor="middle" x="352.5" y="-67.3" font-family="Times,serif" font-size="14.00">obsutil_mod</text>
</a>
</g>
</g>
<!-- obsdbFiles_mod&#45;&gt;obsutil_mod -->
<g id="edge8" class="edge">
<title>obsdbFiles_mod&#45;&gt;obsutil_mod</title>
<path fill="none" stroke="black" d="M307.31,-628.96C324.01,-603.16 352.5,-552.08 352.5,-504 352.5,-504 352.5,-504 352.5,-214 352.5,-174 352.5,-127.65 352.5,-99.08"/>
<polygon fill="black" stroke="black" points="356,-99.05 352.5,-89.05 349,-99.05 356,-99.05"/>
</g>
<!-- obsvariabletransforms_mod -->
<g id="node10" class="node">
<title>obsvariabletransforms_mod</title>
<g id="a_node10"><a xlink:href="../modules/obsvariabletransforms_mod.svg" xlink:title="obsvariabletransforms_mod">
<polygon fill="none" stroke="red" points="550.5,-593 380.5,-593 380.5,-557 550.5,-557 550.5,-593"/>
<text text-anchor="middle" x="465.5" y="-571.3" font-family="Times,serif" font-size="14.00">obsvariabletransforms_mod</text>
</a>
</g>
</g>
<!-- obsdbFiles_mod&#45;&gt;obsvariabletransforms_mod -->
<g id="edge9" class="edge">
<title>obsdbFiles_mod&#45;&gt;obsvariabletransforms_mod</title>
<path fill="none" stroke="black" d="M337.09,-628.88C360.53,-619.22 390,-607.09 414.8,-596.88"/>
<polygon fill="black" stroke="black" points="416.13,-600.11 424.05,-593.07 413.47,-593.64 416.13,-600.11"/>
</g>
<!-- sqliteutilities_mod -->
<g id="node11" class="node">
<title>sqliteutilities_mod</title>
<g id="a_node11"><a xlink:href="../modules/sqliteutilities_mod.svg" xlink:title="sqliteutilities_mod">
<polygon fill="none" stroke="red" points="612.5,-521 494.5,-521 494.5,-485 612.5,-485 612.5,-521"/>
<text text-anchor="middle" x="553.5" y="-499.3" font-family="Times,serif" font-size="14.00">sqliteutilities_mod</text>
</a>
</g>
</g>
<!-- obsdbFiles_mod&#45;&gt;sqliteutilities_mod -->
<g id="edge10" class="edge">
<title>obsdbFiles_mod&#45;&gt;sqliteutilities_mod</title>
<path fill="none" stroke="black" d="M349.09,-643.03C418.43,-637.94 533.43,-624.82 559.5,-593 573.54,-575.86 570.01,-550.08 564.17,-530.67"/>
<polygon fill="black" stroke="black" points="567.49,-529.55 560.98,-521.19 560.85,-531.78 567.49,-529.55"/>
</g>
<!-- timecoord_mod -->
<g id="node12" class="node">
<title>timecoord_mod</title>
<g id="a_node12"><a xlink:href="../modules/timecoord_mod.svg" xlink:title="timecoord_mod">
<polygon fill="none" stroke="red" points="692.5,-449 588.5,-449 588.5,-413 692.5,-413 692.5,-449"/>
<text text-anchor="middle" x="640.5" y="-427.3" font-family="Times,serif" font-size="14.00">timecoord_mod</text>
</a>
</g>
</g>
<!-- obsdbFiles_mod&#45;&gt;timecoord_mod -->
<g id="edge11" class="edge">
<title>obsdbFiles_mod&#45;&gt;timecoord_mod</title>
<path fill="none" stroke="black" d="M349.05,-641.23C420.47,-633.99 542.16,-618.33 578.5,-593 622.22,-562.52 635.12,-496.63 638.92,-459.28"/>
<polygon fill="black" stroke="black" points="642.42,-459.38 639.8,-449.12 635.45,-458.78 642.42,-459.38"/>
</g>
<!-- utilities_mod -->
<g id="node13" class="node">
<title>utilities_mod</title>
<g id="a_node13"><a xlink:href="../modules/utilities_mod.svg" xlink:title="utilities_mod">
<polygon fill="none" stroke="red" points="765,-377 676,-377 676,-341 765,-341 765,-377"/>
<text text-anchor="middle" x="720.5" y="-355.3" font-family="Times,serif" font-size="14.00">utilities_mod</text>
</a>
</g>
</g>
<!-- obsdbFiles_mod&#45;&gt;utilities_mod -->
<g id="edge12" class="edge">
<title>obsdbFiles_mod&#45;&gt;utilities_mod</title>
<path fill="none" stroke="black" d="M349.31,-642.11C427.24,-635.61 566.79,-620.48 608.5,-593 680.6,-545.5 707.59,-437.8 716.55,-387.21"/>
<polygon fill="black" stroke="black" points="720.05,-387.48 718.24,-377.05 713.14,-386.34 720.05,-387.48"/>
</g>
</g>
</svg>
