<?xml version="1.0" encoding="UTF-8" standalone="no"?>
<!DOCTYPE svg PUBLIC "-//W3C//DTD SVG 1.1//EN"
 "http://www.w3.org/Graphics/SVG/1.1/DTD/svg11.dtd">
<!-- Generated by graphviz version 3.0.0 (20220315.2325)
 -->
<!-- Title: ObsDataColumn_mod Pages: 1 -->
<svg width="382pt" height="241pt"
 viewBox="0.00 0.00 382.00 241.00" xmlns="http://www.w3.org/2000/svg" xmlns:xlink="http://www.w3.org/1999/xlink">
<g id="graph0" class="graph" transform="scale(1 1) rotate(0) translate(4 237)">
<title>ObsDataColumn_mod</title>
<polygon fill="white" stroke="transparent" points="-4,4 -4,-237 378,-237 378,4 -4,4"/>
<text text-anchor="middle" x="187" y="-37.8" font-family="Times,serif" font-size="14.00">Red boxes indicate modules with dependencies not shown</text>
<text text-anchor="middle" x="187" y="-22.8" font-family="Times,serif" font-size="14.00">Lower level dependencies can be shown by clicking on a red box</text>
<text text-anchor="middle" x="187" y="-7.8" font-family="Times,serif" font-size="14.00">Shaded boxes indicate modules with no dependencies</text>
<!-- ObsDataColumn_mod -->
<g id="node1" class="node">
<title>ObsDataColumn_mod</title>
<g id="a_node1"><a xlink:href="ObsDataColumn_mod.html" xlink:title="ObsDataColumn_mod">
<polygon fill="none" stroke="black" points="252,-233 112,-233 112,-197 252,-197 252,-233"/>
<text text-anchor="middle" x="182" y="-211.3" font-family="Times,serif" font-size="14.00">ObsDataColumn_mod</text>
</a>
</g>
</g>
<!-- codeprecision_mod -->
<g id="node2" class="node">
<title>codeprecision_mod</title>
<g id="a_node2"><a xlink:href="codeprecision_mod.html" xlink:title="codeprecision_mod">
<polygon fill="gray" stroke="black" points="198.5,-161 75.5,-161 75.5,-125 198.5,-125 198.5,-161"/>
<text text-anchor="middle" x="137" y="-139.3" font-family="Times,serif" font-size="14.00">codeprecision_mod</text>
</a>
</g>
</g>
<!-- ObsDataColumn_mod&#45;&gt;codeprecision_mod -->
<g id="edge1" class="edge">
<title>ObsDataColumn_mod&#45;&gt;codeprecision_mod</title>
<path fill="none" stroke="black" d="M170.88,-196.7C165.64,-188.56 159.3,-178.69 153.52,-169.7"/>
<polygon fill="black" stroke="black" points="156.35,-167.62 148,-161.1 150.46,-171.41 156.35,-167.62"/>
</g>
<!-- obscolumnnames_mod -->
<g id="node3" class="node">
<title>obscolumnnames_mod</title>
<g id="a_node3"><a xlink:href="obscolumnnames_mod.html" xlink:title="obscolumnnames_mod">
<polygon fill="gray" stroke="black" points="298.5,-89 155.5,-89 155.5,-53 298.5,-53 298.5,-89"/>
<text text-anchor="middle" x="227" y="-67.3" font-family="Times,serif" font-size="14.00">obscolumnnames_mod</text>
</a>
</g>
</g>
<!-- ObsDataColumn_mod&#45;&gt;obscolumnnames_mod -->
<g id="edge2" class="edge">
<title>ObsDataColumn_mod&#45;&gt;obscolumnnames_mod</title>
<path fill="none" stroke="black" d="M191.78,-196.8C197.21,-186.65 203.71,-173.4 208,-161 215.01,-140.75 219.92,-116.98 223,-99.1"/>
<polygon fill="black" stroke="black" points="226.48,-99.5 224.63,-89.07 219.57,-98.37 226.48,-99.5"/>
</g>
</g>
</svg>
