<?xml version="1.0" encoding="UTF-8" standalone="no"?>
<!DOCTYPE svg PUBLIC "-//W3C//DTD SVG 1.1//EN"
 "http://www.w3.org/Graphics/SVG/1.1/DTD/svg11.dtd">
<!-- Generated by graphviz version 3.0.0 (20220315.2325)
 -->
<!-- Title: obsDiagFiles_mod Pages: 1 -->
<svg width="537pt" height="673pt"
 viewBox="0.00 0.00 537.00 673.00" xmlns="http://www.w3.org/2000/svg" xmlns:xlink="http://www.w3.org/1999/xlink">
<g id="graph0" class="graph" transform="scale(1 1) rotate(0) translate(4 669)">
<title>obsDiagFiles_mod</title>
<polygon fill="white" stroke="transparent" points="-4,4 -4,-669 533,-669 533,4 -4,4"/>
<text text-anchor="middle" x="264.5" y="-37.8" font-family="Times,serif" font-size="14.00">Red boxes indicate modules with dependencies not shown</text>
<text text-anchor="middle" x="264.5" y="-22.8" font-family="Times,serif" font-size="14.00">Lower level dependencies can be shown by clicking on a red box</text>
<text text-anchor="middle" x="264.5" y="-7.8" font-family="Times,serif" font-size="14.00">Shaded boxes indicate modules with no dependencies</text>
<!-- obsDiagFiles_mod -->
<g id="node1" class="node">
<title>obsDiagFiles_mod</title>
<g id="a_node1"><a xlink:href="obsDiagFiles_mod.html" xlink:title="obsDiagFiles_mod">
<polygon fill="none" stroke="black" points="332,-665 213,-665 213,-629 332,-629 332,-665"/>
<text text-anchor="middle" x="272.5" y="-643.3" font-family="Times,serif" font-size="14.00">obsDiagFiles_mod</text>
</a>
</g>
</g>
<!-- codtyp_mod -->
<g id="node2" class="node">
<title>codtyp_mod</title>
<g id="a_node2"><a xlink:href="../modules/codtyp_mod.svg" xlink:title="codtyp_mod">
<polygon fill="none" stroke="red" points="93,-593 8,-593 8,-557 93,-557 93,-593"/>
<text text-anchor="middle" x="50.5" y="-571.3" font-family="Times,serif" font-size="14.00">codtyp_mod</text>
</a>
</g>
</g>
<!-- obsDiagFiles_mod&#45;&gt;codtyp_mod -->
<g id="edge1" class="edge">
<title>obsDiagFiles_mod&#45;&gt;codtyp_mod</title>
<path fill="none" stroke="black" d="M218.48,-628.97C183.43,-617.92 137.99,-603.59 103.21,-592.62"/>
<polygon fill="black" stroke="black" points="103.83,-589.15 93.24,-589.48 101.73,-595.82 103.83,-589.15"/>
</g>
<!-- ensembleobservations_mod -->
<g id="node3" class="node">
<title>ensembleobservations_mod</title>
<g id="a_node3"><a xlink:href="../modules/ensembleobservations_mod.svg" xlink:title="ensembleobservations_mod">
<polygon fill="none" stroke="red" points="169,-521 0,-521 0,-485 169,-485 169,-521"/>
<text text-anchor="middle" x="84.5" y="-499.3" font-family="Times,serif" font-size="14.00">ensembleobservations_mod</text>
</a>
</g>
</g>
<!-- obsDiagFiles_mod&#45;&gt;ensembleobservations_mod -->
<g id="edge2" class="edge">
<title>obsDiagFiles_mod&#45;&gt;ensembleobservations_mod</title>
<path fill="none" stroke="black" d="M239.83,-628.89C222.29,-619.18 200.61,-606.33 182.5,-593 155.54,-573.15 127.53,-547.07 108.4,-528.28"/>
<polygon fill="black" stroke="black" points="110.84,-525.77 101.27,-521.22 105.91,-530.74 110.84,-525.77"/>
</g>
<!-- mathphysconstants_mod -->
<g id="node4" class="node">
<title>mathphysconstants_mod</title>
<g id="a_node4"><a xlink:href="mathphysconstants_mod.html" xlink:title="mathphysconstants_mod">
<polygon fill="gray" stroke="black" points="206.5,-449 54.5,-449 54.5,-413 206.5,-413 206.5,-449"/>
<text text-anchor="middle" x="130.5" y="-427.3" font-family="Times,serif" font-size="14.00">mathphysconstants_mod</text>
</a>
</g>
</g>
<!-- obsDiagFiles_mod&#45;&gt;mathphysconstants_mod -->
<g id="edge3" class="edge">
<title>obsDiagFiles_mod&#45;&gt;mathphysconstants_mod</title>
<path fill="none" stroke="black" d="M252.24,-628.94C241.7,-619.25 229.22,-606.39 220.5,-593 192.3,-549.71 204.6,-528.99 177.5,-485 171.38,-475.06 163.33,-465.2 155.63,-456.73"/>
<polygon fill="black" stroke="black" points="158.12,-454.27 148.72,-449.39 153.02,-459.07 158.12,-454.27"/>
</g>
<!-- midasmpi_mod -->
<g id="node5" class="node">
<title>midasmpi_mod</title>
<g id="a_node5"><a xlink:href="../modules/midasmpi_mod.svg" xlink:title="midasmpi_mod">
<polygon fill="none" stroke="red" points="244.5,-377 142.5,-377 142.5,-341 244.5,-341 244.5,-377"/>
<text text-anchor="middle" x="193.5" y="-355.3" font-family="Times,serif" font-size="14.00">midasmpi_mod</text>
</a>
</g>
</g>
<!-- obsDiagFiles_mod&#45;&gt;midasmpi_mod -->
<g id="edge4" class="edge">
<title>obsDiagFiles_mod&#45;&gt;midasmpi_mod</title>
<path fill="none" stroke="black" d="M267.86,-628.84C265.08,-618.48 261.52,-605 258.5,-593 238.44,-513.23 240.9,-491.23 215.5,-413 212.67,-404.28 209.03,-394.99 205.53,-386.65"/>
<polygon fill="black" stroke="black" points="208.72,-385.2 201.55,-377.4 202.29,-387.97 208.72,-385.2"/>
</g>
<!-- obsspacedata_mod -->
<g id="node6" class="node">
<title>obsspacedata_mod</title>
<g id="a_node6"><a xlink:href="../modules/obsspacedata_mod.svg" xlink:title="obsspacedata_mod">
<polygon fill="none" stroke="red" points="282,-305 163,-305 163,-269 282,-269 282,-305"/>
<text text-anchor="middle" x="222.5" y="-283.3" font-family="Times,serif" font-size="14.00">obsspacedata_mod</text>
</a>
</g>
</g>
<!-- obsDiagFiles_mod&#45;&gt;obsspacedata_mod -->
<g id="edge5" class="edge">
<title>obsDiagFiles_mod&#45;&gt;obsspacedata_mod</title>
<path fill="none" stroke="black" d="M272.5,-628.95C272.5,-602.29 272.5,-549.11 272.5,-504 272.5,-504 272.5,-504 272.5,-430 272.5,-389.55 268.12,-378.71 253.5,-341 249.94,-331.8 244.9,-322.33 239.92,-313.98"/>
<polygon fill="black" stroke="black" points="242.86,-312.08 234.61,-305.43 236.91,-315.77 242.86,-312.08"/>
</g>
<!-- ramdisk_mod -->
<g id="node7" class="node">
<title>ramdisk_mod</title>
<g id="a_node7"><a xlink:href="../modules/ramdisk_mod.svg" xlink:title="ramdisk_mod">
<polygon fill="none" stroke="red" points="320.5,-233 228.5,-233 228.5,-197 320.5,-197 320.5,-233"/>
<text text-anchor="middle" x="274.5" y="-211.3" font-family="Times,serif" font-size="14.00">ramdisk_mod</text>
</a>
</g>
</g>
<!-- obsDiagFiles_mod&#45;&gt;ramdisk_mod -->
<g id="edge6" class="edge">
<title>obsDiagFiles_mod&#45;&gt;ramdisk_mod</title>
<path fill="none" stroke="black" d="M280.19,-628.91C291.29,-602.62 310.5,-550.45 310.5,-504 310.5,-504 310.5,-504 310.5,-358 310.5,-316.78 296.07,-270.83 285.48,-242.66"/>
<polygon fill="black" stroke="black" points="288.66,-241.19 281.79,-233.13 282.14,-243.72 288.66,-241.19"/>
</g>
<!-- sqliteutilities_mod -->
<g id="node8" class="node">
<title>sqliteutilities_mod</title>
<g id="a_node8"><a xlink:href="../modules/sqliteutilities_mod.svg" xlink:title="sqliteutilities_mod">
<polygon fill="none" stroke="red" points="383.5,-161 265.5,-161 265.5,-125 383.5,-125 383.5,-161"/>
<text text-anchor="middle" x="324.5" y="-139.3" font-family="Times,serif" font-size="14.00">sqliteutilities_mod</text>
</a>
</g>
</g>
<!-- obsDiagFiles_mod&#45;&gt;sqliteutilities_mod -->
<g id="edge7" class="edge">
<title>obsDiagFiles_mod&#45;&gt;sqliteutilities_mod</title>
<path fill="none" stroke="black" d="M288.99,-628.77C311.34,-603.53 348.5,-554.05 348.5,-504 348.5,-504 348.5,-504 348.5,-286 348.5,-245.65 338.96,-199.74 331.91,-171.32"/>
<polygon fill="black" stroke="black" points="335.23,-170.15 329.36,-161.33 328.44,-171.88 335.23,-170.15"/>
</g>
<!-- tovsnl_mod -->
<g id="node9" class="node">
<title>tovsnl_mod</title>
<g id="a_node9"><a xlink:href="../modules/tovsnl_mod.svg" xlink:title="tovsnl_mod">
<polygon fill="none" stroke="red" points="452,-89 371,-89 371,-53 452,-53 452,-89"/>
<text text-anchor="middle" x="411.5" y="-67.3" font-family="Times,serif" font-size="14.00">tovsnl_mod</text>
</a>
</g>
</g>
<!-- obsDiagFiles_mod&#45;&gt;tovsnl_mod -->
<g id="edge8" class="edge">
<title>obsDiagFiles_mod&#45;&gt;tovsnl_mod</title>
<path fill="none" stroke="black" d="M308.3,-628.94C349.48,-606.53 411.5,-562.99 411.5,-504 411.5,-504 411.5,-504 411.5,-214 411.5,-174 411.5,-127.65 411.5,-99.08"/>
<polygon fill="black" stroke="black" points="415,-99.05 411.5,-89.05 408,-99.05 415,-99.05"/>
</g>
<!-- utilities_mod -->
<g id="node10" class="node">
<title>utilities_mod</title>
<g id="a_node10"><a xlink:href="../modules/utilities_mod.svg" xlink:title="utilities_mod">
<polygon fill="none" stroke="red" points="529,-593 440,-593 440,-557 529,-557 529,-593"/>
<text text-anchor="middle" x="484.5" y="-571.3" font-family="Times,serif" font-size="14.00">utilities_mod</text>
</a>
</g>
</g>
<!-- obsDiagFiles_mod&#45;&gt;utilities_mod -->
<g id="edge9" class="edge">
<title>obsDiagFiles_mod&#45;&gt;utilities_mod</title>
<path fill="none" stroke="black" d="M324.09,-628.97C356.19,-618.37 397.42,-604.75 430.05,-593.98"/>
<polygon fill="black" stroke="black" points="431.48,-597.19 439.88,-590.73 429.28,-590.55 431.48,-597.19"/>
</g>
</g>
</svg>
