<?xml version="1.0" encoding="UTF-8" standalone="no"?>
<!DOCTYPE svg PUBLIC "-//W3C//DTD SVG 1.1//EN"
 "http://www.w3.org/Graphics/SVG/1.1/DTD/svg11.dtd">
<!-- Generated by graphviz version 3.0.0 (20220315.2325)
 -->
<!-- Title: obsErrors_mod Pages: 1 -->
<svg width="1080pt" height="673pt"
 viewBox="0.00 0.00 1079.50 673.00" xmlns="http://www.w3.org/2000/svg" xmlns:xlink="http://www.w3.org/1999/xlink">
<g id="graph0" class="graph" transform="scale(1 1) rotate(0) translate(4 669)">
<title>obsErrors_mod</title>
<polygon fill="white" stroke="transparent" points="-4,4 -4,-669 1075.5,-669 1075.5,4 -4,4"/>
<text text-anchor="middle" x="535.75" y="-37.8" font-family="Times,serif" font-size="14.00">Red boxes indicate modules with dependencies not shown</text>
<text text-anchor="middle" x="535.75" y="-22.8" font-family="Times,serif" font-size="14.00">Lower level dependencies can be shown by clicking on a red box</text>
<text text-anchor="middle" x="535.75" y="-7.8" font-family="Times,serif" font-size="14.00">Shaded boxes indicate modules with no dependencies</text>
<!-- obsErrors_mod -->
<g id="node1" class="node">
<title>obsErrors_mod</title>
<g id="a_node1"><a xlink:href="obsErrors_mod.html" xlink:title="obsErrors_mod">
<polygon fill="none" stroke="black" points="603,-665 502,-665 502,-629 603,-629 603,-665"/>
<text text-anchor="middle" x="552.5" y="-643.3" font-family="Times,serif" font-size="14.00">obsErrors_mod</text>
</a>
</g>
</g>
<!-- bufr_mod -->
<g id="node2" class="node">
<title>bufr_mod</title>
<g id="a_node2"><a xlink:href="bufr_mod.html" xlink:title="bufr_mod">
<polygon fill="gray" stroke="black" points="71,-593 0,-593 0,-557 71,-557 71,-593"/>
<text text-anchor="middle" x="35.5" y="-571.3" font-family="Times,serif" font-size="14.00">bufr_mod</text>
</a>
</g>
</g>
<!-- obsErrors_mod&#45;&gt;bufr_mod -->
<g id="edge1" class="edge">
<title>obsErrors_mod&#45;&gt;bufr_mod</title>
<path fill="none" stroke="black" d="M501.81,-643.81C415.43,-639.29 234.6,-626.4 85.5,-593 84.02,-592.67 82.52,-592.31 81.01,-591.92"/>
<polygon fill="black" stroke="black" points="81.59,-588.45 71.01,-589.11 79.69,-595.19 81.59,-588.45"/>
</g>
<!-- codtyp_mod -->
<g id="node3" class="node">
<title>codtyp_mod</title>
<g id="a_node3"><a xlink:href="../modules/codtyp_mod.svg" xlink:title="codtyp_mod">
<polygon fill="none" stroke="red" points="126,-521 41,-521 41,-485 126,-485 126,-521"/>
<text text-anchor="middle" x="83.5" y="-499.3" font-family="Times,serif" font-size="14.00">codtyp_mod</text>
</a>
</g>
</g>
<!-- obsErrors_mod&#45;&gt;codtyp_mod -->
<g id="edge2" class="edge">
<title>obsErrors_mod&#45;&gt;codtyp_mod</title>
<path fill="none" stroke="black" d="M501.73,-644.75C405.2,-641.54 199.52,-630.38 140.5,-593 117.59,-578.49 102.13,-551.06 93.16,-530.48"/>
<polygon fill="black" stroke="black" points="96.31,-528.93 89.27,-521 89.83,-531.58 96.31,-528.93"/>
</g>
<!-- columndata_mod -->
<g id="node4" class="node">
<title>columndata_mod</title>
<g id="a_node4"><a xlink:href="../modules/columndata_mod.svg" xlink:title="columndata_mod">
<polygon fill="none" stroke="red" points="164.5,-449 52.5,-449 52.5,-413 164.5,-413 164.5,-449"/>
<text text-anchor="middle" x="108.5" y="-427.3" font-family="Times,serif" font-size="14.00">columndata_mod</text>
</a>
</g>
</g>
<!-- obsErrors_mod&#45;&gt;columndata_mod -->
<g id="edge3" class="edge">
<title>obsErrors_mod&#45;&gt;columndata_mod</title>
<path fill="none" stroke="black" d="M501.96,-644.93C411.77,-642.06 227.89,-631.51 178.5,-593 137.63,-561.13 155.7,-532.29 134.5,-485 130.54,-476.17 125.96,-466.64 121.76,-458.13"/>
<polygon fill="black" stroke="black" points="124.83,-456.43 117.23,-449.04 118.56,-459.55 124.83,-456.43"/>
</g>
<!-- earthconstants_mod -->
<g id="node5" class="node">
<title>earthconstants_mod</title>
<g id="a_node5"><a xlink:href="../modules/earthconstants_mod.svg" xlink:title="earthconstants_mod">
<polygon fill="none" stroke="red" points="202.5,-377 76.5,-377 76.5,-341 202.5,-341 202.5,-377"/>
<text text-anchor="middle" x="139.5" y="-355.3" font-family="Times,serif" font-size="14.00">earthconstants_mod</text>
</a>
</g>
</g>
<!-- obsErrors_mod&#45;&gt;earthconstants_mod -->
<g id="edge4" class="edge">
<title>obsErrors_mod&#45;&gt;earthconstants_mod</title>
<path fill="none" stroke="black" d="M501.93,-644.72C418.5,-641.55 257.15,-630.59 216.5,-593 156.12,-537.15 205.71,-488.68 173.5,-413 169.5,-403.59 163.88,-393.99 158.36,-385.58"/>
<polygon fill="black" stroke="black" points="161.25,-383.6 152.72,-377.32 155.47,-387.55 161.25,-383.6"/>
</g>
<!-- gps_mod -->
<g id="node6" class="node">
<title>gps_mod</title>
<g id="a_node6"><a xlink:href="../modules/gps_mod.svg" xlink:title="gps_mod">
<polygon fill="none" stroke="red" points="240.5,-305 172.5,-305 172.5,-269 240.5,-269 240.5,-305"/>
<text text-anchor="middle" x="206.5" y="-283.3" font-family="Times,serif" font-size="14.00">gps_mod</text>
</a>
</g>
</g>
<!-- obsErrors_mod&#45;&gt;gps_mod -->
<g id="edge5" class="edge">
<title>obsErrors_mod&#45;&gt;gps_mod</title>
<path fill="none" stroke="black" d="M501.96,-643.43C426.62,-638.57 289.9,-625.44 254.5,-593 224.29,-565.32 230.5,-544.97 230.5,-504 230.5,-504 230.5,-504 230.5,-430 230.5,-389.65 220.96,-343.74 213.91,-315.32"/>
<polygon fill="black" stroke="black" points="217.23,-314.15 211.36,-305.33 210.44,-315.88 217.23,-314.15"/>
</g>
<!-- gridstatevectorfileio_mod -->
<g id="node7" class="node">
<title>gridstatevectorfileio_mod</title>
<g id="a_node7"><a xlink:href="../modules/gridstatevectorfileio_mod.svg" xlink:title="gridstatevectorfileio_mod">
<polygon fill="none" stroke="red" points="278.5,-233 120.5,-233 120.5,-197 278.5,-197 278.5,-233"/>
<text text-anchor="middle" x="199.5" y="-211.3" font-family="Times,serif" font-size="14.00">gridstatevectorfileio_mod</text>
</a>
</g>
</g>
<!-- obsErrors_mod&#45;&gt;gridstatevectorfileio_mod -->
<g id="edge6" class="edge">
<title>obsErrors_mod&#45;&gt;gridstatevectorfileio_mod</title>
<path fill="none" stroke="black" d="M501.99,-641.95C435.13,-635.57 322.21,-620.92 292.5,-593 262.64,-564.95 268.5,-544.97 268.5,-504 268.5,-504 268.5,-504 268.5,-358 268.5,-317.55 268.3,-304.81 249.5,-269 244.01,-258.54 235.87,-248.65 227.74,-240.32"/>
<polygon fill="black" stroke="black" points="229.97,-237.6 220.36,-233.13 225.08,-242.61 229.97,-237.6"/>
</g>
<!-- gridstatevector_mod -->
<g id="node8" class="node">
<title>gridstatevector_mod</title>
<g id="a_node8"><a xlink:href="../modules/gridstatevector_mod.svg" xlink:title="gridstatevector_mod">
<polygon fill="none" stroke="red" points="316.5,-161 186.5,-161 186.5,-125 316.5,-125 316.5,-161"/>
<text text-anchor="middle" x="251.5" y="-139.3" font-family="Times,serif" font-size="14.00">gridstatevector_mod</text>
</a>
</g>
</g>
<!-- obsErrors_mod&#45;&gt;gridstatevector_mod -->
<g id="edge7" class="edge">
<title>obsErrors_mod&#45;&gt;gridstatevector_mod</title>
<path fill="none" stroke="black" d="M501.84,-639.95C444.1,-632.05 354.59,-616.4 330.5,-593 301.11,-564.45 306.5,-544.97 306.5,-504 306.5,-504 306.5,-504 306.5,-286 306.5,-245.55 303.38,-234.2 287.5,-197 283.42,-187.43 277.51,-177.78 271.66,-169.39"/>
<polygon fill="black" stroke="black" points="274.38,-167.17 265.66,-161.15 268.72,-171.29 274.38,-167.17"/>
</g>
<!-- horizontalcoord_mod -->
<g id="node9" class="node">
<title>horizontalcoord_mod</title>
<g id="a_node9"><a xlink:href="../modules/horizontalcoord_mod.svg" xlink:title="horizontalcoord_mod">
<polygon fill="none" stroke="red" points="411.5,-89 277.5,-89 277.5,-53 411.5,-53 411.5,-89"/>
<text text-anchor="middle" x="344.5" y="-67.3" font-family="Times,serif" font-size="14.00">horizontalcoord_mod</text>
</a>
</g>
</g>
<!-- obsErrors_mod&#45;&gt;horizontalcoord_mod -->
<g id="edge8" class="edge">
<title>obsErrors_mod&#45;&gt;horizontalcoord_mod</title>
<path fill="none" stroke="black" d="M501.82,-645.56C458.94,-642.37 398.95,-630.76 363.5,-593 335.82,-563.51 344.5,-544.45 344.5,-504 344.5,-504 344.5,-504 344.5,-214 344.5,-174 344.5,-127.65 344.5,-99.08"/>
<polygon fill="black" stroke="black" points="348,-99.05 344.5,-89.05 341,-99.05 348,-99.05"/>
</g>
<!-- mathphysconstants_mod -->
<g id="node10" class="node">
<title>mathphysconstants_mod</title>
<g id="a_node10"><a xlink:href="mathphysconstants_mod.html" xlink:title="mathphysconstants_mod">
<polygon fill="gray" stroke="black" points="524.5,-593 372.5,-593 372.5,-557 524.5,-557 524.5,-593"/>
<text text-anchor="middle" x="448.5" y="-571.3" font-family="Times,serif" font-size="14.00">mathphysconstants_mod</text>
</a>
</g>
</g>
<!-- obsErrors_mod&#45;&gt;mathphysconstants_mod -->
<g id="edge9" class="edge">
<title>obsErrors_mod&#45;&gt;mathphysconstants_mod</title>
<path fill="none" stroke="black" d="M527.06,-628.88C513.71,-619.89 497.18,-608.76 482.72,-599.03"/>
<polygon fill="black" stroke="black" points="484.29,-595.87 474.04,-593.19 480.38,-601.68 484.29,-595.87"/>
</g>
<!-- midasmpi_mod -->
<g id="node11" class="node">
<title>midasmpi_mod</title>
<g id="a_node11"><a xlink:href="../modules/midasmpi_mod.svg" xlink:title="midasmpi_mod">
<polygon fill="none" stroke="red" points="562.5,-521 460.5,-521 460.5,-485 562.5,-485 562.5,-521"/>
<text text-anchor="middle" x="511.5" y="-499.3" font-family="Times,serif" font-size="14.00">midasmpi_mod</text>
</a>
</g>
</g>
<!-- obsErrors_mod&#45;&gt;midasmpi_mod -->
<g id="edge10" class="edge">
<title>obsErrors_mod&#45;&gt;midasmpi_mod</title>
<path fill="none" stroke="black" d="M549.77,-628.7C546.7,-610.59 541.11,-581.44 533.5,-557 530.77,-548.25 527.17,-538.94 523.66,-530.61"/>
<polygon fill="black" stroke="black" points="526.85,-529.15 519.66,-521.37 520.42,-531.94 526.85,-529.15"/>
</g>
<!-- obsfiles_mod -->
<g id="node12" class="node">
<title>obsfiles_mod</title>
<g id="a_node12"><a xlink:href="../modules/obsfiles_mod.svg" xlink:title="obsfiles_mod">
<polygon fill="none" stroke="red" points="600,-449 511,-449 511,-413 600,-413 600,-449"/>
<text text-anchor="middle" x="555.5" y="-427.3" font-family="Times,serif" font-size="14.00">obsfiles_mod</text>
</a>
</g>
</g>
<!-- obsErrors_mod&#45;&gt;obsfiles_mod -->
<g id="edge11" class="edge">
<title>obsErrors_mod&#45;&gt;obsfiles_mod</title>
<path fill="none" stroke="black" d="M557.57,-628.56C565.51,-598.97 579.19,-537.07 571.5,-485 570.22,-476.35 567.83,-467.15 565.28,-458.89"/>
<polygon fill="black" stroke="black" points="568.6,-457.78 562.15,-449.37 561.95,-459.96 568.6,-457.78"/>
</g>
<!-- obsspacedata_mod -->
<g id="node13" class="node">
<title>obsspacedata_mod</title>
<g id="a_node13"><a xlink:href="../modules/obsspacedata_mod.svg" xlink:title="obsspacedata_mod">
<polygon fill="none" stroke="red" points="638,-377 519,-377 519,-341 638,-341 638,-377"/>
<text text-anchor="middle" x="578.5" y="-355.3" font-family="Times,serif" font-size="14.00">obsspacedata_mod</text>
</a>
</g>
</g>
<!-- obsErrors_mod&#45;&gt;obsspacedata_mod -->
<g id="edge12" class="edge">
<title>obsErrors_mod&#45;&gt;obsspacedata_mod</title>
<path fill="none" stroke="black" d="M564.79,-628.64C571.31,-618.65 578.89,-605.61 583.5,-593 605.81,-531.99 602.92,-513.72 608.5,-449 609.87,-433.06 612.58,-428.47 608.5,-413 606.01,-403.54 601.4,-393.99 596.53,-385.66"/>
<polygon fill="black" stroke="black" points="599.49,-383.79 591.23,-377.15 593.55,-387.49 599.49,-383.79"/>
</g>
<!-- obssubspacedata_mod -->
<g id="node14" class="node">
<title>obssubspacedata_mod</title>
<g id="a_node14"><a xlink:href="../modules/obssubspacedata_mod.svg" xlink:title="obssubspacedata_mod">
<polygon fill="none" stroke="red" points="676.5,-305 538.5,-305 538.5,-269 676.5,-269 676.5,-305"/>
<text text-anchor="middle" x="607.5" y="-283.3" font-family="Times,serif" font-size="14.00">obssubspacedata_mod</text>
</a>
</g>
</g>
<!-- obsErrors_mod&#45;&gt;obssubspacedata_mod -->
<g id="edge13" class="edge">
<title>obsErrors_mod&#45;&gt;obssubspacedata_mod</title>
<path fill="none" stroke="black" d="M579.52,-628.96C613.23,-605.37 666.5,-559.33 666.5,-504 666.5,-504 666.5,-504 666.5,-430 666.5,-389.46 663.32,-377.89 646.5,-341 642.09,-331.33 635.74,-321.69 629.44,-313.34"/>
<polygon fill="black" stroke="black" points="632.17,-311.15 623.23,-305.46 626.67,-315.48 632.17,-311.15"/>
</g>
<!-- rmatrix_mod -->
<g id="node15" class="node">
<title>rmatrix_mod</title>
<g id="a_node15"><a xlink:href="../modules/rmatrix_mod.svg" xlink:title="rmatrix_mod">
<polygon fill="none" stroke="red" points="714.5,-233 624.5,-233 624.5,-197 714.5,-197 714.5,-233"/>
<text text-anchor="middle" x="669.5" y="-211.3" font-family="Times,serif" font-size="14.00">rmatrix_mod</text>
</a>
</g>
</g>
<!-- obsErrors_mod&#45;&gt;rmatrix_mod -->
<g id="edge14" class="edge">
<title>obsErrors_mod&#45;&gt;rmatrix_mod</title>
<path fill="none" stroke="black" d="M593.63,-628.9C638.65,-607.12 704.5,-564.85 704.5,-504 704.5,-504 704.5,-504 704.5,-358 704.5,-316.84 690.47,-270.88 680.17,-242.69"/>
<polygon fill="black" stroke="black" points="683.38,-241.28 676.58,-233.15 676.83,-243.74 683.38,-241.28"/>
</g>
<!-- statetocolumn_mod -->
<g id="node16" class="node">
<title>statetocolumn_mod</title>
<g id="a_node16"><a xlink:href="../modules/statetocolumn_mod.svg" xlink:title="statetocolumn_mod">
<polygon fill="none" stroke="red" points="752,-161 627,-161 627,-125 752,-125 752,-161"/>
<text text-anchor="middle" x="689.5" y="-139.3" font-family="Times,serif" font-size="14.00">statetocolumn_mod</text>
</a>
</g>
</g>
<!-- obsErrors_mod&#45;&gt;statetocolumn_mod -->
<g id="edge15" class="edge">
<title>obsErrors_mod&#45;&gt;statetocolumn_mod</title>
<path fill="none" stroke="black" d="M603.42,-632.06C659.7,-613.19 742.5,-573.6 742.5,-504 742.5,-504 742.5,-504 742.5,-286 742.5,-245.55 738.89,-234.4 723.5,-197 719.61,-187.55 714.02,-177.93 708.5,-169.52"/>
<polygon fill="black" stroke="black" points="711.38,-167.54 702.84,-161.27 705.61,-171.49 711.38,-167.54"/>
</g>
<!-- tovsnl_mod -->
<g id="node17" class="node">
<title>tovsnl_mod</title>
<g id="a_node17"><a xlink:href="../modules/tovsnl_mod.svg" xlink:title="tovsnl_mod">
<polygon fill="none" stroke="red" points="821,-89 740,-89 740,-53 821,-53 821,-89"/>
<text text-anchor="middle" x="780.5" y="-67.3" font-family="Times,serif" font-size="14.00">tovsnl_mod</text>
</a>
</g>
</g>
<!-- obsErrors_mod&#45;&gt;tovsnl_mod -->
<g id="edge16" class="edge">
<title>obsErrors_mod&#45;&gt;tovsnl_mod</title>
<path fill="none" stroke="black" d="M603.1,-637.6C670.27,-623.23 780.5,-587.01 780.5,-504 780.5,-504 780.5,-504 780.5,-214 780.5,-174 780.5,-127.65 780.5,-99.08"/>
<polygon fill="black" stroke="black" points="784,-99.05 780.5,-89.05 777,-99.05 784,-99.05"/>
</g>
<!-- utilities_mod -->
<g id="node18" class="node">
<title>utilities_mod</title>
<g id="a_node18"><a xlink:href="../modules/utilities_mod.svg" xlink:title="utilities_mod">
<polygon fill="none" stroke="red" points="898,-593 809,-593 809,-557 898,-557 898,-593"/>
<text text-anchor="middle" x="853.5" y="-571.3" font-family="Times,serif" font-size="14.00">utilities_mod</text>
</a>
</g>
</g>
<!-- obsErrors_mod&#45;&gt;utilities_mod -->
<g id="edge17" class="edge">
<title>obsErrors_mod&#45;&gt;utilities_mod</title>
<path fill="none" stroke="black" d="M603.25,-635.89C652.37,-625.86 728.83,-609.63 794.5,-593 795.95,-592.63 797.42,-592.25 798.91,-591.87"/>
<polygon fill="black" stroke="black" points="800.05,-595.18 808.81,-589.21 798.24,-588.42 800.05,-595.18"/>
</g>
<!-- varnamelist_mod -->
<g id="node19" class="node">
<title>varnamelist_mod</title>
<g id="a_node19"><a xlink:href="../modules/varnamelist_mod.svg" xlink:title="varnamelist_mod">
<polygon fill="none" stroke="red" points="983,-521 870,-521 870,-485 983,-485 983,-521"/>
<text text-anchor="middle" x="926.5" y="-499.3" font-family="Times,serif" font-size="14.00">varnamelist_mod</text>
</a>
</g>
</g>
<!-- obsErrors_mod&#45;&gt;varnamelist_mod -->
<g id="edge18" class="edge">
<title>obsErrors_mod&#45;&gt;varnamelist_mod</title>
<path fill="none" stroke="black" d="M603.02,-645.25C690.13,-642.87 863.38,-633.1 906.5,-593 923.21,-577.46 927.45,-551.21 927.96,-531.24"/>
<polygon fill="black" stroke="black" points="931.45,-531.16 927.92,-521.18 924.45,-531.19 931.45,-531.16"/>
</g>
<!-- verticalcoord_mod -->
<g id="node20" class="node">
<title>verticalcoord_mod</title>
<g id="a_node20"><a xlink:href="../modules/verticalcoord_mod.svg" xlink:title="verticalcoord_mod">
<polygon fill="none" stroke="red" points="1071.5,-449 951.5,-449 951.5,-413 1071.5,-413 1071.5,-449"/>
<text text-anchor="middle" x="1011.5" y="-427.3" font-family="Times,serif" font-size="14.00">verticalcoord_mod</text>
</a>
</g>
</g>
<!-- obsErrors_mod&#45;&gt;verticalcoord_mod -->
<g id="edge19" class="edge">
<title>obsErrors_mod&#45;&gt;verticalcoord_mod</title>
<path fill="none" stroke="black" d="M603.22,-643.35C692.9,-637.94 875.22,-623.46 930.5,-593 967.23,-572.76 972.81,-558.54 991.5,-521 1001.18,-501.56 1006.22,-477.42 1008.83,-459.19"/>
<polygon fill="black" stroke="black" points="1012.31,-459.57 1010.09,-449.21 1005.36,-458.69 1012.31,-459.57"/>
</g>
</g>
</svg>
