<?xml version="1.0" encoding="UTF-8" standalone="no"?>
<!DOCTYPE svg PUBLIC "-//W3C//DTD SVG 1.1//EN"
 "http://www.w3.org/Graphics/SVG/1.1/DTD/svg11.dtd">
<!-- Generated by graphviz version 3.0.0 (20220315.2325)
 -->
<!-- Title: obsErrors_mod Pages: 1 -->
<svg width="1084pt" height="673pt"
 viewBox="0.00 0.00 1083.50 673.00" xmlns="http://www.w3.org/2000/svg" xmlns:xlink="http://www.w3.org/1999/xlink">
<g id="graph0" class="graph" transform="scale(1 1) rotate(0) translate(4 669)">
<title>obsErrors_mod</title>
<polygon fill="white" stroke="transparent" points="-4,4 -4,-669 1079.5,-669 1079.5,4 -4,4"/>
<text text-anchor="middle" x="537.75" y="-649.8" font-family="Times,serif" font-size="14.00">Blue boxes indicate modules with reverse dependencies not shown</text>
<text text-anchor="middle" x="537.75" y="-634.8" font-family="Times,serif" font-size="14.00">Higher level reverse dependencies can be shown by clicking on a blue box</text>
<text text-anchor="middle" x="537.75" y="-619.8" font-family="Times,serif" font-size="14.00">Green boxes are programs</text>
<!-- obsErrors_mod -->
<g id="node1" class="node">
<title>obsErrors_mod</title>
<g id="a_node1"><a xlink:href="obsErrors_mod.html" xlink:title="obsErrors_mod">
<polygon fill="none" stroke="black" points="599.5,-36 498.5,-36 498.5,0 599.5,0 599.5,-36"/>
<text text-anchor="middle" x="549" y="-14.3" font-family="Times,serif" font-size="14.00">obsErrors_mod</text>
</a>
</g>
</g>
<!-- bgckcsr_mod -->
<g id="node2" class="node">
<title>bgckcsr_mod</title>
<g id="a_node2"><a xlink:href="../modules/bgckcsr_mod_rev.svg" xlink:title="bgckcsr_mod">
<polygon fill="none" stroke="blue" points="90,-108 0,-108 0,-72 90,-72 90,-108"/>
<text text-anchor="middle" x="45" y="-86.3" font-family="Times,serif" font-size="14.00">bgckcsr_mod</text>
</a>
</g>
</g>
<!-- bgckcsr_mod&#45;&gt;obsErrors_mod -->
<g id="edge1" class="edge">
<title>bgckcsr_mod&#45;&gt;obsErrors_mod</title>
<path fill="none" stroke="black" d="M98.03,-73.29C100.04,-72.83 102.03,-72.4 104,-72 245.27,-43.43 415.11,-28.46 498.19,-22.36"/>
<ellipse fill="black" stroke="black" cx="94.12" cy="-74.23" rx="4" ry="4"/>
</g>
<!-- bgckmicrowave_mod -->
<g id="node3" class="node">
<title>bgckmicrowave_mod</title>
<g id="a_node3"><a xlink:href="../modules/bgckmicrowave_mod_rev.svg" xlink:title="bgckmicrowave_mod">
<polygon fill="none" stroke="blue" points="157,-180 21,-180 21,-144 157,-144 157,-180"/>
<text text-anchor="middle" x="89" y="-158.3" font-family="Times,serif" font-size="14.00">bgckmicrowave_mod</text>
</a>
</g>
</g>
<!-- bgckmicrowave_mod&#45;&gt;obsErrors_mod -->
<g id="edge2" class="edge">
<title>bgckmicrowave_mod&#45;&gt;obsErrors_mod</title>
<path fill="none" stroke="black" d="M103.88,-137.24C118.33,-116.38 142.24,-87.07 171,-72 226.9,-42.7 408.92,-27.66 498.41,-21.88"/>
<ellipse fill="black" stroke="black" cx="101.59" cy="-140.64" rx="4" ry="4"/>
</g>
<!-- bgckssmis_mod -->
<g id="node4" class="node">
<title>bgckssmis_mod</title>
<g id="a_node4"><a xlink:href="../modules/bgckssmis_mod_rev.svg" xlink:title="bgckssmis_mod">
<polygon fill="none" stroke="blue" points="194.5,-252 89.5,-252 89.5,-216 194.5,-216 194.5,-252"/>
<text text-anchor="middle" x="142" y="-230.3" font-family="Times,serif" font-size="14.00">bgckssmis_mod</text>
</a>
</g>
</g>
<!-- bgckssmis_mod&#45;&gt;obsErrors_mod -->
<g id="edge3" class="edge">
<title>bgckssmis_mod&#45;&gt;obsErrors_mod</title>
<path fill="none" stroke="black" d="M153.41,-208.44C157.47,-199.53 162.03,-189.35 166,-180 186.22,-132.46 168.61,-104.21 209,-72 252.79,-37.08 414.82,-24.88 498.4,-20.85"/>
<ellipse fill="black" stroke="black" cx="151.65" cy="-212.27" rx="4" ry="4"/>
</g>
<!-- biascorrectionsat_mod -->
<g id="node5" class="node">
<title>biascorrectionsat_mod</title>
<g id="a_node5"><a xlink:href="../modules/biascorrectionsat_mod_rev.svg" xlink:title="biascorrectionsat_mod">
<polygon fill="none" stroke="blue" points="233,-324 93,-324 93,-288 233,-288 233,-324"/>
<text text-anchor="middle" x="163" y="-302.3" font-family="Times,serif" font-size="14.00">biascorrectionsat_mod</text>
</a>
</g>
</g>
<!-- biascorrectionsat_mod&#45;&gt;obsErrors_mod -->
<g id="edge4" class="edge">
<title>biascorrectionsat_mod&#45;&gt;obsErrors_mod</title>
<path fill="none" stroke="black" d="M184.2,-281.23C191.04,-272.53 198.12,-262.29 203,-252 238.31,-177.6 186.88,-128.28 247,-72 282.61,-38.67 421.98,-25.9 498.32,-21.33"/>
<ellipse fill="black" stroke="black" cx="181.57" cy="-284.46" rx="4" ry="4"/>
</g>
<!-- costfunction_mod -->
<g id="node6" class="node">
<title>costfunction_mod</title>
<g id="a_node6"><a xlink:href="../modules/costfunction_mod_rev.svg" xlink:title="costfunction_mod">
<polygon fill="none" stroke="blue" points="270.5,-396 155.5,-396 155.5,-360 270.5,-360 270.5,-396"/>
<text text-anchor="middle" x="213" y="-374.3" font-family="Times,serif" font-size="14.00">costfunction_mod</text>
</a>
</g>
</g>
<!-- costfunction_mod&#45;&gt;obsErrors_mod -->
<g id="edge5" class="edge">
<title>costfunction_mod&#45;&gt;obsErrors_mod</title>
<path fill="none" stroke="black" d="M228.12,-352.9C233.13,-344.07 238.35,-333.83 242,-324 256.08,-286.08 261,-275.45 261,-235 261,-235 261,-235 261,-161 261,-120.03 255.1,-100.01 285,-72 315.28,-43.64 430.49,-29.13 498.29,-22.89"/>
<ellipse fill="black" stroke="black" cx="226.02" cy="-356.49" rx="4" ry="4"/>
</g>
<!-- innovation_mod -->
<g id="node7" class="node">
<title>innovation_mod</title>
<g id="a_node7"><a xlink:href="../modules/innovation_mod_rev.svg" xlink:title="innovation_mod">
<polygon fill="none" stroke="blue" points="309,-468 203,-468 203,-432 309,-432 309,-468"/>
<text text-anchor="middle" x="256" y="-446.3" font-family="Times,serif" font-size="14.00">innovation_mod</text>
</a>
</g>
</g>
<!-- innovation_mod&#45;&gt;obsErrors_mod -->
<g id="edge6" class="edge">
<title>innovation_mod&#45;&gt;obsErrors_mod</title>
<path fill="none" stroke="black" d="M268.33,-424.26C281.04,-396.46 299,-349.62 299,-307 299,-307 299,-307 299,-161 299,-120.03 293.56,-100.49 323,-72 347.69,-48.11 439.74,-32.53 498.47,-24.79"/>
<ellipse fill="black" stroke="black" cx="266.61" cy="-427.96" rx="4" ry="4"/>
</g>
<!-- obsoperators_mod -->
<g id="node8" class="node">
<title>obsoperators_mod</title>
<g id="a_node8"><a xlink:href="../modules/obsoperators_mod_rev.svg" xlink:title="obsoperators_mod">
<polygon fill="none" stroke="blue" points="346.5,-540 229.5,-540 229.5,-504 346.5,-504 346.5,-540"/>
<text text-anchor="middle" x="288" y="-518.3" font-family="Times,serif" font-size="14.00">obsoperators_mod</text>
</a>
</g>
</g>
<!-- obsoperators_mod&#45;&gt;obsErrors_mod -->
<g id="edge7" class="edge">
<title>obsoperators_mod&#45;&gt;obsErrors_mod</title>
<path fill="none" stroke="black" d="M303.66,-496.96C308.85,-488.13 314.25,-477.89 318,-468 332.35,-430.18 337,-419.45 337,-379 337,-379 337,-379 337,-161 337,-120.03 332.2,-101.13 361,-72 397,-35.59 455.94,-23.69 498.23,-20.06"/>
<ellipse fill="black" stroke="black" cx="301.47" cy="-500.57" rx="4" ry="4"/>
</g>
<!-- ominusf_mod -->
<g id="node9" class="node">
<title>ominusf_mod</title>
<g id="a_node9"><a xlink:href="../modules/ominusf_mod_rev.svg" xlink:title="ominusf_mod">
<polygon fill="none" stroke="blue" points="421.5,-612 328.5,-612 328.5,-576 421.5,-576 421.5,-612"/>
<text text-anchor="middle" x="375" y="-590.3" font-family="Times,serif" font-size="14.00">ominusf_mod</text>
</a>
</g>
</g>
<!-- ominusf_mod&#45;&gt;obsErrors_mod -->
<g id="edge8" class="edge">
<title>ominusf_mod&#45;&gt;obsErrors_mod</title>
<path fill="none" stroke="black" d="M375,-567.78C375,-539.39 375,-491.89 375,-451 375,-451 375,-451 375,-161 375,-120.55 367.15,-102.25 394,-72 420.33,-42.33 463.99,-29.25 498.28,-23.5"/>
<ellipse fill="black" stroke="black" cx="375" cy="-571.95" rx="4" ry="4"/>
</g>
<!-- midas_midas_analysiserroroi -->
<g id="node10" class="node">
<title>midas_midas_analysiserroroi</title>
<g id="a_node10"><a xlink:href="../programs/midas_analysiserroroi.html" xlink:title="midas_midas_analysiserroroi">
<polygon fill="gray" stroke="green" points="579.5,-108 402.5,-108 402.5,-72 579.5,-72 579.5,-108"/>
<text text-anchor="middle" x="491" y="-86.3" font-family="Times,serif" font-size="14.00">midas_midas_analysiserroroi</text>
</a>
</g>
</g>
<!-- midas_midas_analysiserroroi&#45;&gt;obsErrors_mod -->
<g id="edge9" class="edge">
<title>midas_midas_analysiserroroi&#45;&gt;obsErrors_mod</title>
<path fill="none" stroke="black" d="M510.63,-65.31C518.56,-55.73 527.55,-44.89 534.83,-36.1"/>
<ellipse fill="black" stroke="black" cx="507.89" cy="-68.62" rx="4" ry="4"/>
</g>
<!-- midas_midas_diaghbht -->
<g id="node11" class="node">
<title>midas_midas_diaghbht</title>
<g id="a_node11"><a xlink:href="../programs/midas_diaghbht.html" xlink:title="midas_midas_diaghbht">
<polygon fill="gray" stroke="green" points="616.5,-180 473.5,-180 473.5,-144 616.5,-144 616.5,-180"/>
<text text-anchor="middle" x="545" y="-158.3" font-family="Times,serif" font-size="14.00">midas_midas_diaghbht</text>
</a>
</g>
</g>
<!-- midas_midas_diaghbht&#45;&gt;obsErrors_mod -->
<g id="edge10" class="edge">
<title>midas_midas_diaghbht&#45;&gt;obsErrors_mod</title>
<path fill="none" stroke="black" d="M570.01,-138C577.61,-129.41 585.01,-119.04 589,-108 594.43,-92.95 594.08,-87.17 589,-72 584.53,-58.66 575.24,-46 566.73,-36.4"/>
<ellipse fill="black" stroke="black" cx="567.2" cy="-140.99" rx="4" ry="4"/>
</g>
<!-- midas_midas_ensembleh -->
<g id="node12" class="node">
<title>midas_midas_ensembleh</title>
<g id="a_node12"><a xlink:href="../programs/midas_ensembleh.html" xlink:title="midas_midas_ensembleh">
<polygon fill="gray" stroke="green" points="654.5,-252 499.5,-252 499.5,-216 654.5,-216 654.5,-252"/>
<text text-anchor="middle" x="577" y="-230.3" font-family="Times,serif" font-size="14.00">midas_midas_ensembleh</text>
</a>
</g>
</g>
<!-- midas_midas_ensembleh&#45;&gt;obsErrors_mod -->
<g id="edge11" class="edge">
<title>midas_midas_ensembleh&#45;&gt;obsErrors_mod</title>
<path fill="none" stroke="black" d="M604.97,-210.29C613.38,-201.78 621.55,-191.38 626,-180 631.83,-165.1 628.36,-159.82 626,-144 621.06,-110.91 621.5,-100.52 604,-72 595.54,-58.21 582.65,-45.53 571.48,-36.03"/>
<ellipse fill="black" stroke="black" cx="602.04" cy="-213.1" rx="4" ry="4"/>
</g>
<!-- midas_midas_gencoeff -->
<g id="node13" class="node">
<title>midas_midas_gencoeff</title>
<g id="a_node13"><a xlink:href="../programs/midas_gencoeff.html" xlink:title="midas_midas_gencoeff">
<polygon fill="gray" stroke="green" points="692.5,-324 549.5,-324 549.5,-288 692.5,-288 692.5,-324"/>
<text text-anchor="middle" x="621" y="-302.3" font-family="Times,serif" font-size="14.00">midas_midas_gencoeff</text>
</a>
</g>
</g>
<!-- midas_midas_gencoeff&#45;&gt;obsErrors_mod -->
<g id="edge12" class="edge">
<title>midas_midas_gencoeff&#45;&gt;obsErrors_mod</title>
<path fill="none" stroke="black" d="M645.45,-281.91C652.88,-273.31 660.11,-262.96 664,-252 669.35,-236.92 666.11,-231.86 664,-216 655.26,-150.27 663.16,-126.23 625,-72 614.54,-57.13 598.51,-45.07 583.86,-36.22"/>
<ellipse fill="black" stroke="black" cx="642.73" cy="-284.88" rx="4" ry="4"/>
</g>
<!-- midas_midas_letkf -->
<g id="node14" class="node">
<title>midas_midas_letkf</title>
<g id="a_node14"><a xlink:href="../programs/midas_letkf.html" xlink:title="midas_midas_letkf">
<polygon fill="gray" stroke="green" points="731,-396 609,-396 609,-360 731,-360 731,-396"/>
<text text-anchor="middle" x="670" y="-374.3" font-family="Times,serif" font-size="14.00">midas_midas_letkf</text>
</a>
</g>
</g>
<!-- midas_midas_letkf&#45;&gt;obsErrors_mod -->
<g id="edge13" class="edge">
<title>midas_midas_letkf&#45;&gt;obsErrors_mod</title>
<path fill="none" stroke="black" d="M687.02,-352.66C692.48,-343.95 698.11,-333.84 702,-324 716.88,-286.39 721,-275.45 721,-235 721,-235 721,-235 721,-161 721,-97.3 649.98,-56.83 599.21,-36.04"/>
<ellipse fill="black" stroke="black" cx="684.69" cy="-356.26" rx="4" ry="4"/>
</g>
<!-- midas_midas_obsimpact -->
<g id="node15" class="node">
<title>midas_midas_obsimpact</title>
<g id="a_node15"><a xlink:href="../programs/midas_obsimpact.html" xlink:title="midas_midas_obsimpact">
<polygon fill="gray" stroke="green" points="769,-468 617,-468 617,-432 769,-432 769,-468"/>
<text text-anchor="middle" x="693" y="-446.3" font-family="Times,serif" font-size="14.00">midas_midas_obsimpact</text>
</a>
</g>
</g>
<!-- midas_midas_obsimpact&#45;&gt;obsErrors_mod -->
<g id="edge14" class="edge">
<title>midas_midas_obsimpact&#45;&gt;obsErrors_mod</title>
<path fill="none" stroke="black" d="M718.36,-425.69C726.37,-417.08 734.55,-406.78 740,-396 758.24,-359.9 759,-347.45 759,-307 759,-307 759,-307 759,-161 759,-84.31 661.71,-46.23 599.57,-29.73"/>
<ellipse fill="black" stroke="black" cx="715.37" cy="-428.77" rx="4" ry="4"/>
</g>
<!-- midas_midas_obsselection -->
<g id="node16" class="node">
<title>midas_midas_obsselection</title>
<g id="a_node16"><a xlink:href="../programs/midas_obsselection.html" xlink:title="midas_midas_obsselection">
<polygon fill="gray" stroke="green" points="806.5,-540 643.5,-540 643.5,-504 806.5,-504 806.5,-540"/>
<text text-anchor="middle" x="725" y="-518.3" font-family="Times,serif" font-size="14.00">midas_midas_obsselection</text>
</a>
</g>
</g>
<!-- midas_midas_obsselection&#45;&gt;obsErrors_mod -->
<g id="edge15" class="edge">
<title>midas_midas_obsselection&#45;&gt;obsErrors_mod</title>
<path fill="none" stroke="black" d="M753.34,-498.49C762.48,-489.86 771.83,-479.35 778,-468 797.32,-432.46 797,-419.45 797,-379 797,-379 797,-379 797,-161 797,-70.95 672.34,-37.21 599.78,-25.2"/>
<ellipse fill="black" stroke="black" cx="750.36" cy="-501.18" rx="4" ry="4"/>
</g>
<!-- midas_midas_prepcma -->
<g id="node17" class="node">
<title>midas_midas_prepcma</title>
<g id="a_node17"><a xlink:href="../programs/midas_prepcma.html" xlink:title="midas_midas_prepcma">
<polygon fill="gray" stroke="green" points="906.5,-612 763.5,-612 763.5,-576 906.5,-576 906.5,-612"/>
<text text-anchor="middle" x="835" y="-590.3" font-family="Times,serif" font-size="14.00">midas_midas_prepcma</text>
</a>
</g>
</g>
<!-- midas_midas_prepcma&#45;&gt;obsErrors_mod -->
<g id="edge16" class="edge">
<title>midas_midas_prepcma&#45;&gt;obsErrors_mod</title>
<path fill="none" stroke="black" d="M835,-567.78C835,-539.39 835,-491.89 835,-451 835,-451 835,-451 835,-161 835,-57.2 681.99,-29.27 599.8,-21.76"/>
<ellipse fill="black" stroke="black" cx="835" cy="-571.95" rx="4" ry="4"/>
</g>
<!-- midas_midas_var1d -->
<g id="node18" class="node">
<title>midas_midas_var1d</title>
<g id="a_node18"><a xlink:href="../programs/midas_var1d.html" xlink:title="midas_midas_var1d">
<polygon fill="gray" stroke="green" points="990.5,-108 863.5,-108 863.5,-72 990.5,-72 990.5,-108"/>
<text text-anchor="middle" x="927" y="-86.3" font-family="Times,serif" font-size="14.00">midas_midas_var1d</text>
</a>
</g>
</g>
<!-- midas_midas_var1d&#45;&gt;obsErrors_mod -->
<g id="edge17" class="edge">
<title>midas_midas_var1d&#45;&gt;obsErrors_mod</title>
<path fill="none" stroke="black" d="M855.14,-73.23C853.07,-72.81 851.02,-72.4 849,-72 761.56,-54.76 659.26,-37.25 599.54,-27.3"/>
<ellipse fill="black" stroke="black" cx="859.27" cy="-74.07" rx="4" ry="4"/>
</g>
<!-- midas_midas_var -->
<g id="node19" class="node">
<title>midas_midas_var</title>
<g id="a_node19"><a xlink:href="../programs/midas_var.html" xlink:title="midas_midas_var">
<polygon fill="gray" stroke="green" points="1075.5,-180 962.5,-180 962.5,-144 1075.5,-144 1075.5,-180"/>
<text text-anchor="middle" x="1019" y="-158.3" font-family="Times,serif" font-size="14.00">midas_midas_var</text>
</a>
</g>
</g>
<!-- midas_midas_var&#45;&gt;obsErrors_mod -->
<g id="edge18" class="edge">
<title>midas_midas_var&#45;&gt;obsErrors_mod</title>
<path fill="none" stroke="black" d="M1020.94,-135.56C1020.97,-115.31 1017.38,-87.82 1000,-72 970.82,-45.42 711.33,-28 599.7,-21.66"/>
<ellipse fill="black" stroke="black" cx="1020.83" cy="-139.74" rx="4" ry="4"/>
</g>
</g>
</svg>
