<?xml version="1.0" encoding="UTF-8" standalone="no"?>
<!DOCTYPE svg PUBLIC "-//W3C//DTD SVG 1.1//EN"
 "http://www.w3.org/Graphics/SVG/1.1/DTD/svg11.dtd">
<!-- Generated by graphviz version 3.0.0 (20220315.2325)
 -->
<!-- Title: obsFiles_mod Pages: 1 -->
<svg width="1010pt" height="673pt"
 viewBox="0.00 0.00 1009.50 673.00" xmlns="http://www.w3.org/2000/svg" xmlns:xlink="http://www.w3.org/1999/xlink">
<g id="graph0" class="graph" transform="scale(1 1) rotate(0) translate(4 669)">
<title>obsFiles_mod</title>
<polygon fill="white" stroke="transparent" points="-4,4 -4,-669 1005.5,-669 1005.5,4 -4,4"/>
<text text-anchor="middle" x="500.75" y="-37.8" font-family="Times,serif" font-size="14.00">Red boxes indicate modules with dependencies not shown</text>
<text text-anchor="middle" x="500.75" y="-22.8" font-family="Times,serif" font-size="14.00">Lower level dependencies can be shown by clicking on a red box</text>
<text text-anchor="middle" x="500.75" y="-7.8" font-family="Times,serif" font-size="14.00">Shaded boxes indicate modules with no dependencies</text>
<!-- obsFiles_mod -->
<g id="node1" class="node">
<title>obsFiles_mod</title>
<g id="a_node1"><a xlink:href="obsFiles_mod.html" xlink:title="obsFiles_mod">
<polygon fill="none" stroke="black" points="594.5,-665 501.5,-665 501.5,-629 594.5,-629 594.5,-665"/>
<text text-anchor="middle" x="548" y="-643.3" font-family="Times,serif" font-size="14.00">obsFiles_mod</text>
</a>
</g>
</g>
<!-- biascorrectionconv_mod -->
<g id="node2" class="node">
<title>biascorrectionconv_mod</title>
<g id="a_node2"><a xlink:href="../modules/biascorrectionconv_mod.svg" xlink:title="biascorrectionconv_mod">
<polygon fill="none" stroke="red" points="152,-593 0,-593 0,-557 152,-557 152,-593"/>
<text text-anchor="middle" x="76" y="-571.3" font-family="Times,serif" font-size="14.00">biascorrectionconv_mod</text>
</a>
</g>
</g>
<!-- obsFiles_mod&#45;&gt;biascorrectionconv_mod -->
<g id="edge1" class="edge">
<title>obsFiles_mod&#45;&gt;biascorrectionconv_mod</title>
<path fill="none" stroke="black" d="M501.44,-640.28C429.38,-631.27 286.59,-612.74 166,-593 164.72,-592.79 163.43,-592.58 162.13,-592.36"/>
<polygon fill="black" stroke="black" points="162.51,-588.87 152.06,-590.64 161.33,-595.77 162.51,-588.87"/>
</g>
<!-- bufr_mod -->
<g id="node3" class="node">
<title>bufr_mod</title>
<g id="a_node3"><a xlink:href="bufr_mod.html" xlink:title="bufr_mod">
<polygon fill="gray" stroke="black" points="202.5,-521 131.5,-521 131.5,-485 202.5,-485 202.5,-521"/>
<text text-anchor="middle" x="167" y="-499.3" font-family="Times,serif" font-size="14.00">bufr_mod</text>
</a>
</g>
</g>
<!-- obsFiles_mod&#45;&gt;bufr_mod -->
<g id="edge2" class="edge">
<title>obsFiles_mod&#45;&gt;bufr_mod</title>
<path fill="none" stroke="black" d="M501.44,-643.49C421.45,-638.39 262.17,-624.5 217,-593 195.73,-578.17 182.44,-551.23 174.96,-530.86"/>
<polygon fill="black" stroke="black" points="178.2,-529.52 171.65,-521.19 171.58,-531.78 178.2,-529.52"/>
</g>
<!-- burpfiles_mod -->
<g id="node4" class="node">
<title>burpfiles_mod</title>
<g id="a_node4"><a xlink:href="../modules/burpfiles_mod.svg" xlink:title="burpfiles_mod">
<polygon fill="none" stroke="red" points="241,-449 145,-449 145,-413 241,-413 241,-449"/>
<text text-anchor="middle" x="193" y="-427.3" font-family="Times,serif" font-size="14.00">burpfiles_mod</text>
</a>
</g>
</g>
<!-- obsFiles_mod&#45;&gt;burpfiles_mod -->
<g id="edge3" class="edge">
<title>obsFiles_mod&#45;&gt;burpfiles_mod</title>
<path fill="none" stroke="black" d="M501.39,-643.06C428.45,-637.58 291.85,-623.48 255,-593 249.57,-588.51 218.57,-503.49 202.57,-458.86"/>
<polygon fill="black" stroke="black" points="205.78,-457.46 199.12,-449.22 199.19,-459.82 205.78,-457.46"/>
</g>
<!-- burpread_mod -->
<g id="node5" class="node">
<title>burpread_mod</title>
<g id="a_node5"><a xlink:href="../modules/burpread_mod.svg" xlink:title="burpread_mod">
<polygon fill="none" stroke="red" points="278.5,-377 181.5,-377 181.5,-341 278.5,-341 278.5,-377"/>
<text text-anchor="middle" x="230" y="-355.3" font-family="Times,serif" font-size="14.00">burpread_mod</text>
</a>
</g>
</g>
<!-- obsFiles_mod&#45;&gt;burpread_mod -->
<g id="edge4" class="edge">
<title>obsFiles_mod&#45;&gt;burpread_mod</title>
<path fill="none" stroke="black" d="M501.37,-642.23C436.09,-635.99 322.16,-621.31 293,-593 233.99,-535.71 274.12,-491.63 250,-413 247.38,-404.44 244.09,-395.27 240.94,-387.01"/>
<polygon fill="black" stroke="black" points="244.12,-385.52 237.23,-377.47 237.6,-388.06 244.12,-385.52"/>
</g>
<!-- clibinterfaces_mod -->
<g id="node6" class="node">
<title>clibinterfaces_mod</title>
<g id="a_node6"><a xlink:href="clibinterfaces_mod.html" xlink:title="clibinterfaces_mod">
<polygon fill="gray" stroke="black" points="317,-305 195,-305 195,-269 317,-269 317,-305"/>
<text text-anchor="middle" x="256" y="-283.3" font-family="Times,serif" font-size="14.00">clibinterfaces_mod</text>
</a>
</g>
</g>
<!-- obsFiles_mod&#45;&gt;clibinterfaces_mod -->
<g id="edge5" class="edge">
<title>obsFiles_mod&#45;&gt;clibinterfaces_mod</title>
<path fill="none" stroke="black" d="M501.44,-640.22C445.14,-632.31 354.93,-616.37 331,-593 301.69,-564.38 307,-544.97 307,-504 307,-504 307,-504 307,-430 307,-389.46 301.85,-378.72 287,-341 283.39,-331.82 278.33,-322.35 273.36,-314.01"/>
<polygon fill="black" stroke="black" points="276.3,-312.11 268.06,-305.45 270.35,-315.8 276.3,-312.11"/>
</g>
<!-- ensembleobservations_mod -->
<g id="node7" class="node">
<title>ensembleobservations_mod</title>
<g id="a_node7"><a xlink:href="../modules/ensembleobservations_mod.svg" xlink:title="ensembleobservations_mod">
<polygon fill="none" stroke="red" points="355.5,-233 186.5,-233 186.5,-197 355.5,-197 355.5,-233"/>
<text text-anchor="middle" x="271" y="-211.3" font-family="Times,serif" font-size="14.00">ensembleobservations_mod</text>
</a>
</g>
</g>
<!-- obsFiles_mod&#45;&gt;ensembleobservations_mod -->
<g id="edge6" class="edge">
<title>obsFiles_mod&#45;&gt;ensembleobservations_mod</title>
<path fill="none" stroke="black" d="M501.21,-644.4C460.81,-640.49 403.63,-628.49 369,-593 340.39,-563.68 345,-544.97 345,-504 345,-504 345,-504 345,-358 345,-317.55 345.64,-304.36 326,-269 320.02,-258.24 311.15,-248.32 302.27,-240.04"/>
<polygon fill="black" stroke="black" points="304.34,-237.2 294.53,-233.2 299.71,-242.45 304.34,-237.2"/>
</g>
<!-- midasmpi_mod -->
<g id="node8" class="node">
<title>midasmpi_mod</title>
<g id="a_node8"><a xlink:href="../modules/midasmpi_mod.svg" xlink:title="midasmpi_mod">
<polygon fill="none" stroke="red" points="393,-161 291,-161 291,-125 393,-125 393,-161"/>
<text text-anchor="middle" x="342" y="-139.3" font-family="Times,serif" font-size="14.00">midasmpi_mod</text>
</a>
</g>
</g>
<!-- obsFiles_mod&#45;&gt;midasmpi_mod -->
<g id="edge7" class="edge">
<title>obsFiles_mod&#45;&gt;midasmpi_mod</title>
<path fill="none" stroke="black" d="M501.21,-639.63C470.34,-633.03 431.26,-619.72 407,-593 379.46,-562.67 383,-544.97 383,-504 383,-504 383,-504 383,-286 383,-244.41 366.56,-198.56 354.5,-170.51"/>
<polygon fill="black" stroke="black" points="357.55,-168.75 350.3,-161.03 351.15,-171.59 357.55,-168.75"/>
</g>
<!-- obsdbfiles_mod -->
<g id="node9" class="node">
<title>obsdbfiles_mod</title>
<g id="a_node9"><a xlink:href="../modules/obsdbfiles_mod.svg" xlink:title="obsdbfiles_mod">
<polygon fill="none" stroke="red" points="472.5,-89 369.5,-89 369.5,-53 472.5,-53 472.5,-89"/>
<text text-anchor="middle" x="421" y="-67.3" font-family="Times,serif" font-size="14.00">obsdbfiles_mod</text>
</a>
</g>
</g>
<!-- obsFiles_mod&#45;&gt;obsdbfiles_mod -->
<g id="edge8" class="edge">
<title>obsFiles_mod&#45;&gt;obsdbfiles_mod</title>
<path fill="none" stroke="black" d="M501.45,-633.55C479.7,-625.43 455.29,-612.6 440,-593 415.12,-561.11 421,-544.45 421,-504 421,-504 421,-504 421,-214 421,-174 421,-127.65 421,-99.08"/>
<polygon fill="black" stroke="black" points="424.5,-99.05 421,-89.05 417.5,-99.05 424.5,-99.05"/>
</g>
<!-- obsdiagfiles_mod -->
<g id="node10" class="node">
<title>obsdiagfiles_mod</title>
<g id="a_node10"><a xlink:href="../modules/obsdiagfiles_mod.svg" xlink:title="obsdiagfiles_mod">
<polygon fill="none" stroke="red" points="562.5,-593 449.5,-593 449.5,-557 562.5,-557 562.5,-593"/>
<text text-anchor="middle" x="506" y="-571.3" font-family="Times,serif" font-size="14.00">obsdiagfiles_mod</text>
</a>
</g>
</g>
<!-- obsFiles_mod&#45;&gt;obsdiagfiles_mod -->
<g id="edge9" class="edge">
<title>obsFiles_mod&#45;&gt;obsdiagfiles_mod</title>
<path fill="none" stroke="black" d="M537.62,-628.7C532.74,-620.56 526.81,-610.69 521.42,-601.7"/>
<polygon fill="black" stroke="black" points="524.41,-599.88 516.26,-593.1 518.41,-603.48 524.41,-599.88"/>
</g>
<!-- obsspacedata_mod -->
<g id="node11" class="node">
<title>obsspacedata_mod</title>
<g id="a_node11"><a xlink:href="../modules/obsspacedata_mod.svg" xlink:title="obsspacedata_mod">
<polygon fill="none" stroke="red" points="600.5,-521 481.5,-521 481.5,-485 600.5,-485 600.5,-521"/>
<text text-anchor="middle" x="541" y="-499.3" font-family="Times,serif" font-size="14.00">obsspacedata_mod</text>
</a>
</g>
</g>
<!-- obsFiles_mod&#45;&gt;obsspacedata_mod -->
<g id="edge10" class="edge">
<title>obsFiles_mod&#45;&gt;obsspacedata_mod</title>
<path fill="none" stroke="black" d="M557.54,-628.93C562.64,-618.82 568.39,-605.57 571,-593 574.25,-577.33 575.08,-572.47 571,-557 568.51,-547.54 563.9,-537.99 559.03,-529.66"/>
<polygon fill="black" stroke="black" points="561.99,-527.79 553.73,-521.15 556.05,-531.49 561.99,-527.79"/>
</g>
<!-- obssubspacedata_mod -->
<g id="node12" class="node">
<title>obssubspacedata_mod</title>
<g id="a_node12"><a xlink:href="../modules/obssubspacedata_mod.svg" xlink:title="obssubspacedata_mod">
<polygon fill="none" stroke="red" points="639,-449 501,-449 501,-413 639,-413 639,-449"/>
<text text-anchor="middle" x="570" y="-427.3" font-family="Times,serif" font-size="14.00">obssubspacedata_mod</text>
</a>
</g>
</g>
<!-- obsFiles_mod&#45;&gt;obssubspacedata_mod -->
<g id="edge11" class="edge">
<title>obsFiles_mod&#45;&gt;obssubspacedata_mod</title>
<path fill="none" stroke="black" d="M562.96,-628.83C570.99,-618.9 580.54,-605.86 587,-593 602.02,-563.1 604.06,-554.09 609,-521 611.36,-505.18 613.99,-500.2 609,-485 605.69,-474.91 599.63,-465.15 593.27,-456.82"/>
<polygon fill="black" stroke="black" points="595.92,-454.54 586.89,-449.01 590.5,-458.97 595.92,-454.54"/>
</g>
<!-- obsutil_mod -->
<g id="node13" class="node">
<title>obsutil_mod</title>
<g id="a_node13"><a xlink:href="../modules/obsutil_mod.svg" xlink:title="obsutil_mod">
<polygon fill="none" stroke="red" points="676.5,-377 591.5,-377 591.5,-341 676.5,-341 676.5,-377"/>
<text text-anchor="middle" x="634" y="-355.3" font-family="Times,serif" font-size="14.00">obsutil_mod</text>
</a>
</g>
</g>
<!-- obsFiles_mod&#45;&gt;obsutil_mod -->
<g id="edge12" class="edge">
<title>obsFiles_mod&#45;&gt;obsutil_mod</title>
<path fill="none" stroke="black" d="M574.09,-628.86C586.33,-619.59 600.13,-607.14 609,-593 652.48,-523.65 658.54,-494.17 648,-413 646.9,-404.51 644.84,-395.43 642.63,-387.24"/>
<polygon fill="black" stroke="black" points="645.95,-386.09 639.82,-377.44 639.22,-388.02 645.95,-386.09"/>
</g>
<!-- obsvariabletransforms_mod -->
<g id="node14" class="node">
<title>obsvariabletransforms_mod</title>
<g id="a_node14"><a xlink:href="../modules/obsvariabletransforms_mod.svg" xlink:title="obsvariabletransforms_mod">
<polygon fill="none" stroke="red" points="715,-305 545,-305 545,-269 715,-269 715,-305"/>
<text text-anchor="middle" x="630" y="-283.3" font-family="Times,serif" font-size="14.00">obsvariabletransforms_mod</text>
</a>
</g>
</g>
<!-- obsFiles_mod&#45;&gt;obsvariabletransforms_mod -->
<g id="edge13" class="edge">
<title>obsFiles_mod&#45;&gt;obsvariabletransforms_mod</title>
<path fill="none" stroke="black" d="M591.32,-628.89C637.79,-607.35 705,-565.56 705,-504 705,-504 705,-504 705,-430 705,-389.46 704.88,-376.33 685,-341 678.85,-330.08 669.75,-319.99 660.7,-311.62"/>
<polygon fill="black" stroke="black" points="663.01,-308.98 653.19,-305.01 658.38,-314.24 663.01,-308.98"/>
</g>
<!-- ramdisk_mod -->
<g id="node15" class="node">
<title>ramdisk_mod</title>
<g id="a_node15"><a xlink:href="../modules/ramdisk_mod.svg" xlink:title="ramdisk_mod">
<polygon fill="none" stroke="red" points="753,-233 661,-233 661,-197 753,-197 753,-233"/>
<text text-anchor="middle" x="707" y="-211.3" font-family="Times,serif" font-size="14.00">ramdisk_mod</text>
</a>
</g>
</g>
<!-- obsFiles_mod&#45;&gt;ramdisk_mod -->
<g id="edge14" class="edge">
<title>obsFiles_mod&#45;&gt;ramdisk_mod</title>
<path fill="none" stroke="black" d="M594.71,-634.21C652.4,-616.51 743,-577.08 743,-504 743,-504 743,-504 743,-358 743,-316.78 728.57,-270.83 717.98,-242.66"/>
<polygon fill="black" stroke="black" points="721.16,-241.19 714.29,-233.13 714.64,-243.72 721.16,-241.19"/>
</g>
<!-- sqlitefiles_mod -->
<g id="node16" class="node">
<title>sqlitefiles_mod</title>
<g id="a_node16"><a xlink:href="../modules/sqlitefiles_mod.svg" xlink:title="sqlitefiles_mod">
<polygon fill="none" stroke="red" points="791,-161 691,-161 691,-125 791,-125 791,-161"/>
<text text-anchor="middle" x="741" y="-139.3" font-family="Times,serif" font-size="14.00">sqlitefiles_mod</text>
</a>
</g>
</g>
<!-- obsFiles_mod&#45;&gt;sqlitefiles_mod -->
<g id="edge15" class="edge">
<title>obsFiles_mod&#45;&gt;sqlitefiles_mod</title>
<path fill="none" stroke="black" d="M594.59,-638.98C662.59,-625.81 781,-590.45 781,-504 781,-504 781,-504 781,-286 781,-244.48 764.96,-198.61 753.2,-170.54"/>
<polygon fill="black" stroke="black" points="756.27,-168.84 749.09,-161.05 749.85,-171.62 756.27,-168.84"/>
</g>
<!-- sqliteutilities_mod -->
<g id="node17" class="node">
<title>sqliteutilities_mod</title>
<g id="a_node17"><a xlink:href="../modules/sqliteutilities_mod.svg" xlink:title="sqliteutilities_mod">
<polygon fill="none" stroke="red" points="878,-89 760,-89 760,-53 878,-53 878,-89"/>
<text text-anchor="middle" x="819" y="-67.3" font-family="Times,serif" font-size="14.00">sqliteutilities_mod</text>
</a>
</g>
</g>
<!-- obsFiles_mod&#45;&gt;sqliteutilities_mod -->
<g id="edge16" class="edge">
<title>obsFiles_mod&#45;&gt;sqliteutilities_mod</title>
<path fill="none" stroke="black" d="M594.59,-642.47C672.07,-633.79 819,-604.12 819,-504 819,-504 819,-504 819,-214 819,-174 819,-127.65 819,-99.08"/>
<polygon fill="black" stroke="black" points="822.5,-99.05 819,-89.05 815.5,-99.05 822.5,-99.05"/>
</g>
<!-- tovsnl_mod -->
<g id="node18" class="node">
<title>tovsnl_mod</title>
<g id="a_node18"><a xlink:href="../modules/tovsnl_mod.svg" xlink:title="tovsnl_mod">
<polygon fill="none" stroke="red" points="928.5,-593 847.5,-593 847.5,-557 928.5,-557 928.5,-593"/>
<text text-anchor="middle" x="888" y="-571.3" font-family="Times,serif" font-size="14.00">tovsnl_mod</text>
</a>
</g>
</g>
<!-- obsFiles_mod&#45;&gt;tovsnl_mod -->
<g id="edge17" class="edge">
<title>obsFiles_mod&#45;&gt;tovsnl_mod</title>
<path fill="none" stroke="black" d="M594.76,-639.01C651.51,-630.14 749.93,-613.49 833,-593 834.46,-592.64 835.93,-592.27 837.41,-591.88"/>
<polygon fill="black" stroke="black" points="838.59,-595.18 847.3,-589.16 836.73,-588.44 838.59,-595.18"/>
</g>
<!-- utilities_mod -->
<g id="node19" class="node">
<title>utilities_mod</title>
<g id="a_node19"><a xlink:href="../modules/utilities_mod.svg" xlink:title="utilities_mod">
<polygon fill="none" stroke="red" points="1001.5,-521 912.5,-521 912.5,-485 1001.5,-485 1001.5,-521"/>
<text text-anchor="middle" x="957" y="-499.3" font-family="Times,serif" font-size="14.00">utilities_mod</text>
</a>
</g>
</g>
<!-- obsFiles_mod&#45;&gt;utilities_mod -->
<g id="edge18" class="edge">
<title>obsFiles_mod&#45;&gt;utilities_mod</title>
<path fill="none" stroke="black" d="M594.84,-646.13C687.41,-645.38 889.03,-638.42 938,-593 954.69,-577.52 958.61,-551.27 958.85,-531.27"/>
<polygon fill="black" stroke="black" points="962.35,-531.14 958.68,-521.2 955.35,-531.26 962.35,-531.14"/>
</g>
</g>
</svg>
