<?xml version="1.0" encoding="UTF-8" standalone="no"?>
<!DOCTYPE svg PUBLIC "-//W3C//DTD SVG 1.1//EN"
 "http://www.w3.org/Graphics/SVG/1.1/DTD/svg11.dtd">
<!-- Generated by graphviz version 3.0.0 (20220315.2325)
 -->
<!-- Title: obsFamilyList_mod Pages: 1 -->
<svg width="494pt" height="529pt"
 viewBox="0.00 0.00 494.00 529.00" xmlns="http://www.w3.org/2000/svg" xmlns:xlink="http://www.w3.org/1999/xlink">
<g id="graph0" class="graph" transform="scale(1 1) rotate(0) translate(4 525)">
<title>obsFamilyList_mod</title>
<polygon fill="white" stroke="transparent" points="-4,4 -4,-525 490,-525 490,4 -4,4"/>
<text text-anchor="middle" x="243" y="-505.8" font-family="Times,serif" font-size="14.00">Blue boxes indicate modules with reverse dependencies not shown</text>
<text text-anchor="middle" x="243" y="-490.8" font-family="Times,serif" font-size="14.00">Higher level reverse dependencies can be shown by clicking on a blue box</text>
<text text-anchor="middle" x="243" y="-475.8" font-family="Times,serif" font-size="14.00">Green boxes are programs</text>
<!-- obsFamilyList_mod -->
<g id="node1" class="node">
<title>obsFamilyList_mod</title>
<g id="a_node1"><a xlink:href="obsFamilyList_mod.html" xlink:title="obsFamilyList_mod">
<polygon fill="none" stroke="black" points="329.5,-36 202.5,-36 202.5,0 329.5,0 329.5,-36"/>
<text text-anchor="middle" x="266" y="-14.3" font-family="Times,serif" font-size="14.00">obsFamilyList_mod</text>
</a>
</g>
</g>
<!-- backgroundcheck_mod -->
<g id="node2" class="node">
<title>backgroundcheck_mod</title>
<g id="a_node2"><a xlink:href="../modules/backgroundcheck_mod_rev.svg" xlink:title="backgroundcheck_mod">
<polygon fill="none" stroke="blue" points="144,-108 0,-108 0,-72 144,-72 144,-108"/>
<text text-anchor="middle" x="72" y="-86.3" font-family="Times,serif" font-size="14.00">backgroundcheck_mod</text>
</a>
</g>
</g>
<!-- backgroundcheck_mod&#45;&gt;obsFamilyList_mod -->
<g id="edge1" class="edge">
<title>backgroundcheck_mod&#45;&gt;obsFamilyList_mod</title>
<path fill="none" stroke="black" d="M127.05,-69.14C155.96,-58.71 191.02,-46.05 218.7,-36.07"/>
<ellipse fill="black" stroke="black" cx="123.22" cy="-70.52" rx="4" ry="4"/>
</g>
<!-- ensembleobservations_mod -->
<g id="node3" class="node">
<title>ensembleobservations_mod</title>
<g id="a_node3"><a xlink:href="../modules/ensembleobservations_mod_rev.svg" xlink:title="ensembleobservations_mod">
<polygon fill="none" stroke="blue" points="219.5,-180 50.5,-180 50.5,-144 219.5,-144 219.5,-180"/>
<text text-anchor="middle" x="135" y="-158.3" font-family="Times,serif" font-size="14.00">ensembleobservations_mod</text>
</a>
</g>
</g>
<!-- ensembleobservations_mod&#45;&gt;obsFamilyList_mod -->
<g id="edge2" class="edge">
<title>ensembleobservations_mod&#45;&gt;obsFamilyList_mod</title>
<path fill="none" stroke="black" d="M156.45,-137.75C182.75,-109.24 226.7,-61.6 250.14,-36.19"/>
<ellipse fill="black" stroke="black" cx="153.51" cy="-140.93" rx="4" ry="4"/>
</g>
<!-- obsspacediag_mod -->
<g id="node4" class="node">
<title>obsspacediag_mod</title>
<g id="a_node4"><a xlink:href="../modules/obsspacediag_mod_rev.svg" xlink:title="obsspacediag_mod">
<polygon fill="none" stroke="blue" points="257,-252 137,-252 137,-216 257,-216 257,-252"/>
<text text-anchor="middle" x="197" y="-230.3" font-family="Times,serif" font-size="14.00">obsspacediag_mod</text>
</a>
</g>
</g>
<!-- obsspacediag_mod&#45;&gt;obsFamilyList_mod -->
<g id="edge3" class="edge">
<title>obsspacediag_mod&#45;&gt;obsFamilyList_mod</title>
<path fill="none" stroke="black" d="M213.35,-208.55C218.62,-199.83 224.1,-189.74 228,-180 248.05,-129.87 259.15,-66.54 263.63,-36.43"/>
<ellipse fill="black" stroke="black" cx="211.12" cy="-212.13" rx="4" ry="4"/>
</g>
<!-- obsspaceerrorstddev_mod -->
<g id="node5" class="node">
<title>obsspaceerrorstddev_mod</title>
<g id="a_node5"><a xlink:href="../modules/obsspaceerrorstddev_mod_rev.svg" xlink:title="obsspaceerrorstddev_mod">
<polygon fill="none" stroke="blue" points="329.5,-324 170.5,-324 170.5,-288 329.5,-288 329.5,-324"/>
<text text-anchor="middle" x="250" y="-302.3" font-family="Times,serif" font-size="14.00">obsspaceerrorstddev_mod</text>
</a>
</g>
</g>
<!-- obsspaceerrorstddev_mod&#45;&gt;obsFamilyList_mod -->
<g id="edge4" class="edge">
<title>obsspaceerrorstddev_mod&#45;&gt;obsFamilyList_mod</title>
<path fill="none" stroke="black" d="M259.11,-279.99C261.88,-271.26 264.56,-261.31 266,-252 278.37,-172.05 271.41,-74.81 267.78,-36.09"/>
<ellipse fill="black" stroke="black" cx="257.85" cy="-283.82" rx="4" ry="4"/>
</g>
<!-- obstimeinterp_mod -->
<g id="node6" class="node">
<title>obstimeinterp_mod</title>
<g id="a_node6"><a xlink:href="../modules/obstimeinterp_mod_rev.svg" xlink:title="obstimeinterp_mod">
<polygon fill="none" stroke="blue" points="419,-396 295,-396 295,-360 419,-360 419,-396"/>
<text text-anchor="middle" x="357" y="-374.3" font-family="Times,serif" font-size="14.00">obstimeinterp_mod</text>
</a>
</g>
</g>
<!-- obstimeinterp_mod&#45;&gt;obsFamilyList_mod -->
<g id="edge5" class="edge">
<title>obstimeinterp_mod&#45;&gt;obsFamilyList_mod</title>
<path fill="none" stroke="black" d="M357,-351.78C357,-323.39 357,-275.89 357,-235 357,-235 357,-235 357,-161 357,-109.17 313.5,-61.13 286.65,-36.42"/>
<ellipse fill="black" stroke="black" cx="357" cy="-355.95" rx="4" ry="4"/>
</g>
<!-- varqc_mod -->
<g id="node7" class="node">
<title>varqc_mod</title>
<g id="a_node7"><a xlink:href="../modules/varqc_mod_rev.svg" xlink:title="varqc_mod">
<polygon fill="none" stroke="blue" points="486,-468 408,-468 408,-432 486,-432 486,-468"/>
<text text-anchor="middle" x="447" y="-446.3" font-family="Times,serif" font-size="14.00">varqc_mod</text>
</a>
</g>
</g>
<!-- varqc_mod&#45;&gt;obsFamilyList_mod -->
<g id="edge6" class="edge">
<title>varqc_mod&#45;&gt;obsFamilyList_mod</title>
<path fill="none" stroke="black" d="M447,-423.78C447,-395.39 447,-347.89 447,-307 447,-307 447,-307 447,-161 447,-96.1 374.07,-56.38 320.8,-36.02"/>
<ellipse fill="black" stroke="black" cx="447" cy="-427.95" rx="4" ry="4"/>
</g>
</g>
</svg>
