<?xml version="1.0" encoding="UTF-8" standalone="no"?>
<!DOCTYPE svg PUBLIC "-//W3C//DTD SVG 1.1//EN"
 "http://www.w3.org/Graphics/SVG/1.1/DTD/svg11.dtd">
<!-- Generated by graphviz version 3.0.0 (20220315.2325)
 -->
<!-- Title: obsFilter_mod Pages: 1 -->
<svg width="541pt" height="673pt"
 viewBox="0.00 0.00 541.00 673.00" xmlns="http://www.w3.org/2000/svg" xmlns:xlink="http://www.w3.org/1999/xlink">
<g id="graph0" class="graph" transform="scale(1 1) rotate(0) translate(4 669)">
<title>obsFilter_mod</title>
<polygon fill="white" stroke="transparent" points="-4,4 -4,-669 537,-669 537,4 -4,4"/>
<text text-anchor="middle" x="266.5" y="-649.8" font-family="Times,serif" font-size="14.00">Blue boxes indicate modules with reverse dependencies not shown</text>
<text text-anchor="middle" x="266.5" y="-634.8" font-family="Times,serif" font-size="14.00">Higher level reverse dependencies can be shown by clicking on a blue box</text>
<text text-anchor="middle" x="266.5" y="-619.8" font-family="Times,serif" font-size="14.00">Green boxes are programs</text>
<!-- obsFilter_mod -->
<g id="node1" class="node">
<title>obsFilter_mod</title>
<g id="a_node1"><a xlink:href="obsFilter_mod.html" xlink:title="obsFilter_mod">
<polygon fill="none" stroke="black" points="289.5,-36 193.5,-36 193.5,0 289.5,0 289.5,-36"/>
<text text-anchor="middle" x="241.5" y="-14.3" font-family="Times,serif" font-size="14.00">obsFilter_mod</text>
</a>
</g>
</g>
<!-- burpread_mod -->
<g id="node2" class="node">
<title>burpread_mod</title>
<g id="a_node2"><a xlink:href="../modules/burpread_mod_rev.svg" xlink:title="burpread_mod">
<polygon fill="none" stroke="blue" points="97,-108 0,-108 0,-72 97,-72 97,-108"/>
<text text-anchor="middle" x="48.5" y="-86.3" font-family="Times,serif" font-size="14.00">burpread_mod</text>
</a>
</g>
</g>
<!-- burpread_mod&#45;&gt;obsFilter_mod -->
<g id="edge1" class="edge">
<title>burpread_mod&#45;&gt;obsFilter_mod</title>
<path fill="none" stroke="black" d="M103.27,-69.14C132.03,-58.71 166.91,-46.05 194.44,-36.07"/>
<ellipse fill="black" stroke="black" cx="99.47" cy="-70.51" rx="4" ry="4"/>
</g>
<!-- innovation_mod -->
<g id="node3" class="node">
<title>innovation_mod</title>
<g id="a_node3"><a xlink:href="../modules/innovation_mod_rev.svg" xlink:title="innovation_mod">
<polygon fill="none" stroke="blue" points="156.5,-180 50.5,-180 50.5,-144 156.5,-144 156.5,-180"/>
<text text-anchor="middle" x="103.5" y="-158.3" font-family="Times,serif" font-size="14.00">innovation_mod</text>
</a>
</g>
</g>
<!-- innovation_mod&#45;&gt;obsFilter_mod -->
<g id="edge2" class="edge">
<title>innovation_mod&#45;&gt;obsFilter_mod</title>
<path fill="none" stroke="black" d="M118.99,-136.73C131.6,-117.95 150.54,-91.88 170.5,-72 184.01,-58.54 201.09,-45.68 215.12,-36.01"/>
<ellipse fill="black" stroke="black" cx="116.52" cy="-140.46" rx="4" ry="4"/>
</g>
<!-- obsvariabletransforms_mod -->
<g id="node4" class="node">
<title>obsvariabletransforms_mod</title>
<g id="a_node4"><a xlink:href="../modules/obsvariabletransforms_mod_rev.svg" xlink:title="obsvariabletransforms_mod">
<polygon fill="none" stroke="blue" points="194.5,-252 24.5,-252 24.5,-216 194.5,-216 194.5,-252"/>
<text text-anchor="middle" x="109.5" y="-230.3" font-family="Times,serif" font-size="14.00">obsvariabletransforms_mod</text>
</a>
</g>
</g>
<!-- obsvariabletransforms_mod&#45;&gt;obsFilter_mod -->
<g id="edge3" class="edge">
<title>obsvariabletransforms_mod&#45;&gt;obsFilter_mod</title>
<path fill="none" stroke="black" d="M137.91,-210.52C147.62,-201.78 157.92,-191.18 165.5,-180 194.5,-137.24 185.2,-118.11 208.5,-72 214.76,-59.62 223.01,-46.37 229.69,-36.21"/>
<ellipse fill="black" stroke="black" cx="134.67" cy="-213.35" rx="4" ry="4"/>
</g>
<!-- sqliteread_mod -->
<g id="node5" class="node">
<title>sqliteread_mod</title>
<g id="a_node5"><a xlink:href="../modules/sqliteread_mod_rev.svg" xlink:title="sqliteread_mod">
<polygon fill="none" stroke="blue" points="232,-324 131,-324 131,-288 232,-288 232,-324"/>
<text text-anchor="middle" x="181.5" y="-302.3" font-family="Times,serif" font-size="14.00">sqliteread_mod</text>
</a>
</g>
</g>
<!-- sqliteread_mod&#45;&gt;obsFilter_mod -->
<g id="edge4" class="edge">
<title>sqliteread_mod&#45;&gt;obsFilter_mod</title>
<path fill="none" stroke="black" d="M193.12,-280.35C196.9,-271.56 200.8,-261.49 203.5,-252 225.96,-173.17 236.52,-75.3 240.06,-36.25"/>
<ellipse fill="black" stroke="black" cx="191.5" cy="-284.04" rx="4" ry="4"/>
</g>
<!-- midas_midas_analysiserroroi -->
<g id="node6" class="node">
<title>midas_midas_analysiserroroi</title>
<g id="a_node6"><a xlink:href="../programs/midas_analysiserroroi.html" xlink:title="midas_midas_analysiserroroi">
<polygon fill="gray" stroke="green" points="271,-396 94,-396 94,-360 271,-360 271,-396"/>
<text text-anchor="middle" x="182.5" y="-374.3" font-family="Times,serif" font-size="14.00">midas_midas_analysiserroroi</text>
</a>
</g>
</g>
<!-- midas_midas_analysiserroroi&#45;&gt;obsFilter_mod -->
<g id="edge5" class="edge">
<title>midas_midas_analysiserroroi&#45;&gt;obsFilter_mod</title>
<path fill="none" stroke="black" d="M213.96,-354.47C223.8,-345.96 233.82,-335.52 240.5,-324 260.85,-288.93 260.5,-275.54 260.5,-235 260.5,-235 260.5,-235 260.5,-161 260.5,-115.73 250.9,-63.06 245.34,-36.39"/>
<ellipse fill="black" stroke="black" cx="210.63" cy="-357.22" rx="4" ry="4"/>
</g>
<!-- midas_midas_letkf -->
<g id="node7" class="node">
<title>midas_midas_letkf</title>
<g id="a_node7"><a xlink:href="../programs/midas_letkf.html" xlink:title="midas_midas_letkf">
<polygon fill="gray" stroke="green" points="334.5,-468 212.5,-468 212.5,-432 334.5,-432 334.5,-468"/>
<text text-anchor="middle" x="273.5" y="-446.3" font-family="Times,serif" font-size="14.00">midas_midas_letkf</text>
</a>
</g>
</g>
<!-- midas_midas_letkf&#45;&gt;obsFilter_mod -->
<g id="edge6" class="edge">
<title>midas_midas_letkf&#45;&gt;obsFilter_mod</title>
<path fill="none" stroke="black" d="M280.64,-423.92C288.03,-395.72 298.5,-348.46 298.5,-307 298.5,-307 298.5,-307 298.5,-161 298.5,-112.92 270.01,-61.84 253.31,-36.04"/>
<ellipse fill="black" stroke="black" cx="279.6" cy="-427.82" rx="4" ry="4"/>
</g>
<!-- midas_midas_prepcma -->
<g id="node8" class="node">
<title>midas_midas_prepcma</title>
<g id="a_node8"><a xlink:href="../programs/midas_prepcma.html" xlink:title="midas_midas_prepcma">
<polygon fill="gray" stroke="green" points="434,-540 291,-540 291,-504 434,-504 434,-540"/>
<text text-anchor="middle" x="362.5" y="-518.3" font-family="Times,serif" font-size="14.00">midas_midas_prepcma</text>
</a>
</g>
</g>
<!-- midas_midas_prepcma&#45;&gt;obsFilter_mod -->
<g id="edge7" class="edge">
<title>midas_midas_prepcma&#45;&gt;obsFilter_mod</title>
<path fill="none" stroke="black" d="M362.5,-495.78C362.5,-467.39 362.5,-419.89 362.5,-379 362.5,-379 362.5,-379 362.5,-161 362.5,-104.64 306.6,-59.3 270.79,-36.03"/>
<ellipse fill="black" stroke="black" cx="362.5" cy="-499.95" rx="4" ry="4"/>
</g>
<!-- midas_midas_thinning -->
<g id="node9" class="node">
<title>midas_midas_thinning</title>
<g id="a_node9"><a xlink:href="../programs/midas_thinning.html" xlink:title="midas_midas_thinning">
<polygon fill="gray" stroke="green" points="533,-612 392,-612 392,-576 533,-576 533,-612"/>
<text text-anchor="middle" x="462.5" y="-590.3" font-family="Times,serif" font-size="14.00">midas_midas_thinning</text>
</a>
</g>
</g>
<!-- midas_midas_thinning&#45;&gt;obsFilter_mod -->
<g id="edge8" class="edge">
<title>midas_midas_thinning&#45;&gt;obsFilter_mod</title>
<path fill="none" stroke="black" d="M462.5,-567.78C462.5,-539.39 462.5,-491.89 462.5,-451 462.5,-451 462.5,-451 462.5,-161 462.5,-79.48 354.75,-42.57 289.73,-27.72"/>
<ellipse fill="black" stroke="black" cx="462.5" cy="-571.95" rx="4" ry="4"/>
</g>
</g>
</svg>
