<?xml version="1.0" encoding="UTF-8" standalone="no"?>
<!DOCTYPE svg PUBLIC "-//W3C//DTD SVG 1.1//EN"
 "http://www.w3.org/Graphics/SVG/1.1/DTD/svg11.dtd">
<!-- Generated by graphviz version 3.0.0 (20220315.2325)
 -->
<!-- Title: obsFilter_mod Pages: 1 -->
<svg width="778pt" height="673pt"
 viewBox="0.00 0.00 778.00 673.00" xmlns="http://www.w3.org/2000/svg" xmlns:xlink="http://www.w3.org/1999/xlink">
<g id="graph0" class="graph" transform="scale(1 1) rotate(0) translate(4 669)">
<title>obsFilter_mod</title>
<polygon fill="white" stroke="transparent" points="-4,4 -4,-669 774,-669 774,4 -4,4"/>
<text text-anchor="middle" x="385" y="-37.8" font-family="Times,serif" font-size="14.00">Red boxes indicate modules with dependencies not shown</text>
<text text-anchor="middle" x="385" y="-22.8" font-family="Times,serif" font-size="14.00">Lower level dependencies can be shown by clicking on a red box</text>
<text text-anchor="middle" x="385" y="-7.8" font-family="Times,serif" font-size="14.00">Shaded boxes indicate modules with no dependencies</text>
<!-- obsFilter_mod -->
<g id="node1" class="node">
<title>obsFilter_mod</title>
<g id="a_node1"><a xlink:href="obsFilter_mod.html" xlink:title="obsFilter_mod">
<polygon fill="none" stroke="black" points="363.5,-665 267.5,-665 267.5,-629 363.5,-629 363.5,-665"/>
<text text-anchor="middle" x="315.5" y="-643.3" font-family="Times,serif" font-size="14.00">obsFilter_mod</text>
</a>
</g>
</g>
<!-- bufr_mod -->
<g id="node2" class="node">
<title>bufr_mod</title>
<g id="a_node2"><a xlink:href="bufr_mod.html" xlink:title="bufr_mod">
<polygon fill="gray" stroke="black" points="71,-593 0,-593 0,-557 71,-557 71,-593"/>
<text text-anchor="middle" x="35.5" y="-571.3" font-family="Times,serif" font-size="14.00">bufr_mod</text>
</a>
</g>
</g>
<!-- obsFilter_mod&#45;&gt;bufr_mod -->
<g id="edge1" class="edge">
<title>obsFilter_mod&#45;&gt;bufr_mod</title>
<path fill="none" stroke="black" d="M267.12,-636.34C220.33,-626.65 147.58,-610.66 85.5,-593 84.04,-592.58 82.56,-592.15 81.07,-591.71"/>
<polygon fill="black" stroke="black" points="81.73,-588.25 71.14,-588.61 79.64,-594.93 81.73,-588.25"/>
</g>
<!-- codeprecision_mod -->
<g id="node3" class="node">
<title>codeprecision_mod</title>
<g id="a_node3"><a xlink:href="codeprecision_mod.html" xlink:title="codeprecision_mod">
<polygon fill="gray" stroke="black" points="135,-521 12,-521 12,-485 135,-485 135,-521"/>
<text text-anchor="middle" x="73.5" y="-499.3" font-family="Times,serif" font-size="14.00">codeprecision_mod</text>
</a>
</g>
</g>
<!-- obsFilter_mod&#45;&gt;codeprecision_mod -->
<g id="edge2" class="edge">
<title>obsFilter_mod&#45;&gt;codeprecision_mod</title>
<path fill="none" stroke="black" d="M267.35,-637.98C232.44,-630.48 185.28,-616.78 149.5,-593 124.59,-576.44 103.19,-549.5 89.51,-529.59"/>
<polygon fill="black" stroke="black" points="92.42,-527.64 83.96,-521.27 86.6,-531.53 92.42,-527.64"/>
</g>
<!-- codtyp_mod -->
<g id="node4" class="node">
<title>codtyp_mod</title>
<g id="a_node4"><a xlink:href="../modules/codtyp_mod.svg" xlink:title="codtyp_mod">
<polygon fill="none" stroke="red" points="173,-449 88,-449 88,-413 173,-413 173,-449"/>
<text text-anchor="middle" x="130.5" y="-427.3" font-family="Times,serif" font-size="14.00">codtyp_mod</text>
</a>
</g>
</g>
<!-- obsFilter_mod&#45;&gt;codtyp_mod -->
<g id="edge3" class="edge">
<title>obsFilter_mod&#45;&gt;codtyp_mod</title>
<path fill="none" stroke="black" d="M267.39,-636.25C240.69,-628.58 208.69,-615.33 187.5,-593 168.82,-573.31 147.71,-499.45 137.19,-458.96"/>
<polygon fill="black" stroke="black" points="140.57,-458.03 134.7,-449.21 133.79,-459.76 140.57,-458.03"/>
</g>
<!-- columndata_mod -->
<g id="node5" class="node">
<title>columndata_mod</title>
<g id="a_node5"><a xlink:href="../modules/columndata_mod.svg" xlink:title="columndata_mod">
<polygon fill="none" stroke="red" points="211.5,-377 99.5,-377 99.5,-341 211.5,-341 211.5,-377"/>
<text text-anchor="middle" x="155.5" y="-355.3" font-family="Times,serif" font-size="14.00">columndata_mod</text>
</a>
</g>
</g>
<!-- obsFilter_mod&#45;&gt;columndata_mod -->
<g id="edge4" class="edge">
<title>obsFilter_mod&#45;&gt;columndata_mod</title>
<path fill="none" stroke="black" d="M271.29,-628.86C254.7,-620.39 237.07,-608.57 225.5,-593 176.37,-526.9 209.58,-490.42 181.5,-413 178.25,-404.04 173.93,-394.59 169.75,-386.2"/>
<polygon fill="black" stroke="black" points="172.83,-384.54 165.15,-377.25 166.61,-387.74 172.83,-384.54"/>
</g>
<!-- earthconstants_mod -->
<g id="node6" class="node">
<title>earthconstants_mod</title>
<g id="a_node6"><a xlink:href="../modules/earthconstants_mod.svg" xlink:title="earthconstants_mod">
<polygon fill="none" stroke="red" points="249.5,-305 123.5,-305 123.5,-269 249.5,-269 249.5,-305"/>
<text text-anchor="middle" x="186.5" y="-283.3" font-family="Times,serif" font-size="14.00">earthconstants_mod</text>
</a>
</g>
</g>
<!-- obsFilter_mod&#45;&gt;earthconstants_mod -->
<g id="edge5" class="edge">
<title>obsFilter_mod&#45;&gt;earthconstants_mod</title>
<path fill="none" stroke="black" d="M294.09,-628.86C283.49,-619.33 271.31,-606.65 263.5,-593 243.16,-557.44 239.5,-544.97 239.5,-504 239.5,-504 239.5,-504 239.5,-430 239.5,-389.55 235.89,-378.4 220.5,-341 216.61,-331.55 211.02,-321.93 205.5,-313.52"/>
<polygon fill="black" stroke="black" points="208.38,-311.54 199.84,-305.27 202.61,-315.49 208.38,-311.54"/>
</g>
<!-- gps_mod -->
<g id="node7" class="node">
<title>gps_mod</title>
<g id="a_node7"><a xlink:href="../modules/gps_mod.svg" xlink:title="gps_mod">
<polygon fill="none" stroke="red" points="287.5,-233 219.5,-233 219.5,-197 287.5,-197 287.5,-233"/>
<text text-anchor="middle" x="253.5" y="-211.3" font-family="Times,serif" font-size="14.00">gps_mod</text>
</a>
</g>
</g>
<!-- obsFilter_mod&#45;&gt;gps_mod -->
<g id="edge6" class="edge">
<title>obsFilter_mod&#45;&gt;gps_mod</title>
<path fill="none" stroke="black" d="M307.81,-628.91C296.71,-602.62 277.5,-550.45 277.5,-504 277.5,-504 277.5,-504 277.5,-358 277.5,-317.65 267.96,-271.74 260.91,-243.32"/>
<polygon fill="black" stroke="black" points="264.23,-242.15 258.36,-233.33 257.44,-243.88 264.23,-242.15"/>
</g>
<!-- midasmpi_mod -->
<g id="node8" class="node">
<title>midasmpi_mod</title>
<g id="a_node8"><a xlink:href="../modules/midasmpi_mod.svg" xlink:title="midasmpi_mod">
<polygon fill="none" stroke="red" points="325.5,-161 223.5,-161 223.5,-125 325.5,-125 325.5,-161"/>
<text text-anchor="middle" x="274.5" y="-139.3" font-family="Times,serif" font-size="14.00">midasmpi_mod</text>
</a>
</g>
</g>
<!-- obsFilter_mod&#45;&gt;midasmpi_mod -->
<g id="edge7" class="edge">
<title>obsFilter_mod&#45;&gt;midasmpi_mod</title>
<path fill="none" stroke="black" d="M315.5,-628.95C315.5,-602.29 315.5,-549.11 315.5,-504 315.5,-504 315.5,-504 315.5,-286 315.5,-244.41 299.06,-198.56 287,-170.51"/>
<polygon fill="black" stroke="black" points="290.05,-168.75 282.8,-161.03 283.65,-171.59 290.05,-168.75"/>
</g>
<!-- obsspacedata_mod -->
<g id="node9" class="node">
<title>obsspacedata_mod</title>
<g id="a_node9"><a xlink:href="../modules/obsspacedata_mod.svg" xlink:title="obsspacedata_mod">
<polygon fill="none" stroke="red" points="413,-89 294,-89 294,-53 413,-53 413,-89"/>
<text text-anchor="middle" x="353.5" y="-67.3" font-family="Times,serif" font-size="14.00">obsspacedata_mod</text>
</a>
</g>
</g>
<!-- obsFilter_mod&#45;&gt;obsspacedata_mod -->
<g id="edge8" class="edge">
<title>obsFilter_mod&#45;&gt;obsspacedata_mod</title>
<path fill="none" stroke="black" d="M323.19,-628.91C334.29,-602.62 353.5,-550.45 353.5,-504 353.5,-504 353.5,-504 353.5,-214 353.5,-174 353.5,-127.65 353.5,-99.08"/>
<polygon fill="black" stroke="black" points="357,-99.05 353.5,-89.05 350,-99.05 357,-99.05"/>
</g>
<!-- physicsfunctions_mod -->
<g id="node10" class="node">
<title>physicsfunctions_mod</title>
<g id="a_node10"><a xlink:href="../modules/physicsfunctions_mod.svg" xlink:title="physicsfunctions_mod">
<polygon fill="none" stroke="red" points="521,-593 382,-593 382,-557 521,-557 521,-593"/>
<text text-anchor="middle" x="451.5" y="-571.3" font-family="Times,serif" font-size="14.00">physicsfunctions_mod</text>
</a>
</g>
</g>
<!-- obsFilter_mod&#45;&gt;physicsfunctions_mod -->
<g id="edge9" class="edge">
<title>obsFilter_mod&#45;&gt;physicsfunctions_mod</title>
<path fill="none" stroke="black" d="M348.77,-628.88C366.96,-619.51 389.69,-607.81 409.14,-597.8"/>
<polygon fill="black" stroke="black" points="410.81,-600.88 418.1,-593.19 407.61,-594.65 410.81,-600.88"/>
</g>
<!-- radialvelocity_mod -->
<g id="node11" class="node">
<title>radialvelocity_mod</title>
<g id="a_node11"><a xlink:href="../modules/radialvelocity_mod.svg" xlink:title="radialvelocity_mod">
<polygon fill="none" stroke="red" points="559.5,-521 437.5,-521 437.5,-485 559.5,-485 559.5,-521"/>
<text text-anchor="middle" x="498.5" y="-499.3" font-family="Times,serif" font-size="14.00">radialvelocity_mod</text>
</a>
</g>
</g>
<!-- obsFilter_mod&#45;&gt;radialvelocity_mod -->
<g id="edge10" class="edge">
<title>obsFilter_mod&#45;&gt;radialvelocity_mod</title>
<path fill="none" stroke="black" d="M363.94,-640.87C420.62,-633.76 509.33,-618.77 529.5,-593 544.02,-574.45 532.4,-548.62 519.46,-529.56"/>
<polygon fill="black" stroke="black" points="522.2,-527.39 513.51,-521.33 516.53,-531.49 522.2,-527.39"/>
</g>
<!-- tovsnl_mod -->
<g id="node12" class="node">
<title>tovsnl_mod</title>
<g id="a_node12"><a xlink:href="../modules/tovsnl_mod.svg" xlink:title="tovsnl_mod">
<polygon fill="none" stroke="red" points="612,-449 531,-449 531,-413 612,-413 612,-449"/>
<text text-anchor="middle" x="571.5" y="-427.3" font-family="Times,serif" font-size="14.00">tovsnl_mod</text>
</a>
</g>
</g>
<!-- obsFilter_mod&#45;&gt;tovsnl_mod -->
<g id="edge11" class="edge">
<title>obsFilter_mod&#45;&gt;tovsnl_mod</title>
<path fill="none" stroke="black" d="M363.61,-640.76C423.56,-633.28 521.34,-617.65 547.5,-593 583.66,-558.92 581.47,-495.72 576.55,-459.46"/>
<polygon fill="black" stroke="black" points="579.95,-458.5 574.98,-449.14 573.03,-459.55 579.95,-458.5"/>
</g>
<!-- utilities_mod -->
<g id="node13" class="node">
<title>utilities_mod</title>
<g id="a_node13"><a xlink:href="../modules/utilities_mod.svg" xlink:title="utilities_mod">
<polygon fill="none" stroke="red" points="685,-377 596,-377 596,-341 685,-341 685,-377"/>
<text text-anchor="middle" x="640.5" y="-355.3" font-family="Times,serif" font-size="14.00">utilities_mod</text>
</a>
</g>
</g>
<!-- obsFilter_mod&#45;&gt;utilities_mod -->
<g id="edge12" class="edge">
<title>obsFilter_mod&#45;&gt;utilities_mod</title>
<path fill="none" stroke="black" d="M363.75,-641.84C429.64,-635.23 543.06,-620.18 573.5,-593 633.33,-539.57 641.21,-436.55 641.33,-387.4"/>
<polygon fill="black" stroke="black" points="644.83,-387.18 641.24,-377.21 637.83,-387.24 644.83,-387.18"/>
</g>
<!-- varnamelist_mod -->
<g id="node14" class="node">
<title>varnamelist_mod</title>
<g id="a_node14"><a xlink:href="../modules/varnamelist_mod.svg" xlink:title="varnamelist_mod">
<polygon fill="none" stroke="red" points="770,-305 657,-305 657,-269 770,-269 770,-305"/>
<text text-anchor="middle" x="713.5" y="-283.3" font-family="Times,serif" font-size="14.00">varnamelist_mod</text>
</a>
</g>
</g>
<!-- obsFilter_mod&#45;&gt;varnamelist_mod -->
<g id="edge13" class="edge">
<title>obsFilter_mod&#45;&gt;varnamelist_mod</title>
<path fill="none" stroke="black" d="M363.61,-644.26C422.43,-640.56 523.83,-629.01 602.5,-593 660,-566.68 713.5,-567.23 713.5,-504 713.5,-504 713.5,-504 713.5,-430 713.5,-390 713.5,-343.65 713.5,-315.08"/>
<polygon fill="black" stroke="black" points="717,-315.05 713.5,-305.05 710,-315.05 717,-315.05"/>
</g>
</g>
</svg>
