<?xml version="1.0" encoding="UTF-8" standalone="no"?>
<!DOCTYPE svg PUBLIC "-//W3C//DTD SVG 1.1//EN"
 "http://www.w3.org/Graphics/SVG/1.1/DTD/svg11.dtd">
<!-- Generated by graphviz version 3.0.0 (20220315.2325)
 -->
<!-- Title: obsFiles_mod Pages: 1 -->
<svg width="1212pt" height="673pt"
 viewBox="0.00 0.00 1211.50 673.00" xmlns="http://www.w3.org/2000/svg" xmlns:xlink="http://www.w3.org/1999/xlink">
<g id="graph0" class="graph" transform="scale(1 1) rotate(0) translate(4 669)">
<title>obsFiles_mod</title>
<polygon fill="white" stroke="transparent" points="-4,4 -4,-669 1207.5,-669 1207.5,4 -4,4"/>
<text text-anchor="middle" x="601.75" y="-649.8" font-family="Times,serif" font-size="14.00">Blue boxes indicate modules with reverse dependencies not shown</text>
<text text-anchor="middle" x="601.75" y="-634.8" font-family="Times,serif" font-size="14.00">Higher level reverse dependencies can be shown by clicking on a blue box</text>
<text text-anchor="middle" x="601.75" y="-619.8" font-family="Times,serif" font-size="14.00">Green boxes are programs</text>
<!-- obsFiles_mod -->
<g id="node1" class="node">
<title>obsFiles_mod</title>
<g id="a_node1"><a xlink:href="obsFiles_mod.html" xlink:title="obsFiles_mod">
<polygon fill="none" stroke="black" points="675.5,-36 582.5,-36 582.5,0 675.5,0 675.5,-36"/>
<text text-anchor="middle" x="629" y="-14.3" font-family="Times,serif" font-size="14.00">obsFiles_mod</text>
</a>
</g>
</g>
<!-- biascorrectionsat_mod -->
<g id="node2" class="node">
<title>biascorrectionsat_mod</title>
<g id="a_node2"><a xlink:href="../modules/biascorrectionsat_mod_rev.svg" xlink:title="biascorrectionsat_mod">
<polygon fill="none" stroke="blue" points="140,-108 0,-108 0,-72 140,-72 140,-108"/>
<text text-anchor="middle" x="70" y="-86.3" font-family="Times,serif" font-size="14.00">biascorrectionsat_mod</text>
</a>
</g>
</g>
<!-- biascorrectionsat_mod&#45;&gt;obsFiles_mod -->
<g id="edge1" class="edge">
<title>biascorrectionsat_mod&#45;&gt;obsFiles_mod</title>
<path fill="none" stroke="black" d="M147.95,-72.98C149.99,-72.64 152.01,-72.31 154,-72 310.17,-47.53 496.94,-30.13 582.3,-22.83"/>
<ellipse fill="black" stroke="black" cx="143.98" cy="-73.66" rx="4" ry="4"/>
</g>
<!-- innovation_mod -->
<g id="node3" class="node">
<title>innovation_mod</title>
<g id="a_node3"><a xlink:href="../modules/innovation_mod_rev.svg" xlink:title="innovation_mod">
<polygon fill="none" stroke="blue" points="199,-180 93,-180 93,-144 199,-144 199,-180"/>
<text text-anchor="middle" x="146" y="-158.3" font-family="Times,serif" font-size="14.00">innovation_mod</text>
</a>
</g>
</g>
<!-- innovation_mod&#45;&gt;obsFiles_mod -->
<g id="edge2" class="edge">
<title>innovation_mod&#45;&gt;obsFiles_mod</title>
<path fill="none" stroke="black" d="M157.34,-136.66C168.43,-115.82 187.38,-86.88 213,-72 274.94,-36.03 487.39,-24.05 582.42,-20.42"/>
<ellipse fill="black" stroke="black" cx="155.44" cy="-140.38" rx="4" ry="4"/>
</g>
<!-- obserrors_mod -->
<g id="node4" class="node">
<title>obserrors_mod</title>
<g id="a_node4"><a xlink:href="../modules/obserrors_mod_rev.svg" xlink:title="obserrors_mod">
<polygon fill="none" stroke="blue" points="236.5,-252 137.5,-252 137.5,-216 236.5,-216 236.5,-252"/>
<text text-anchor="middle" x="187" y="-230.3" font-family="Times,serif" font-size="14.00">obserrors_mod</text>
</a>
</g>
</g>
<!-- obserrors_mod&#45;&gt;obsFiles_mod -->
<g id="edge3" class="edge">
<title>obserrors_mod&#45;&gt;obsFiles_mod</title>
<path fill="none" stroke="black" d="M196.84,-208.18C214.74,-163.05 250.82,-72.14 251,-72 301.61,-32.24 493.05,-22.3 582.47,-19.82"/>
<ellipse fill="black" stroke="black" cx="195.3" cy="-212.07" rx="4" ry="4"/>
</g>
<!-- obsoperatorschem_mod -->
<g id="node5" class="node">
<title>obsoperatorschem_mod</title>
<g id="a_node5"><a xlink:href="../modules/obsoperatorschem_mod_rev.svg" xlink:title="obsoperatorschem_mod">
<polygon fill="none" stroke="blue" points="274.5,-324 127.5,-324 127.5,-288 274.5,-288 274.5,-324"/>
<text text-anchor="middle" x="201" y="-302.3" font-family="Times,serif" font-size="14.00">obsoperatorschem_mod</text>
</a>
</g>
</g>
<!-- obsoperatorschem_mod&#45;&gt;obsFiles_mod -->
<g id="edge4" class="edge">
<title>obsoperatorschem_mod&#45;&gt;obsFiles_mod</title>
<path fill="none" stroke="black" d="M224.16,-281.79C231.77,-273.06 239.64,-262.66 245,-252 282.03,-178.44 228.34,-127.7 289,-72 330.97,-33.46 499.16,-22.93 582.17,-20.06"/>
<ellipse fill="black" stroke="black" cx="221.39" cy="-284.85" rx="4" ry="4"/>
</g>
<!-- obsspacediag_mod -->
<g id="node6" class="node">
<title>obsspacediag_mod</title>
<g id="a_node6"><a xlink:href="../modules/obsspacediag_mod_rev.svg" xlink:title="obsspacediag_mod">
<polygon fill="none" stroke="blue" points="313,-396 193,-396 193,-360 313,-360 313,-396"/>
<text text-anchor="middle" x="253" y="-374.3" font-family="Times,serif" font-size="14.00">obsspacediag_mod</text>
</a>
</g>
</g>
<!-- obsspacediag_mod&#45;&gt;obsFiles_mod -->
<g id="edge5" class="edge">
<title>obsspacediag_mod&#45;&gt;obsFiles_mod</title>
<path fill="none" stroke="black" d="M268.61,-352.93C273.79,-344.11 279.2,-333.87 283,-324 297.59,-286.17 303,-275.54 303,-235 303,-235 303,-235 303,-161 303,-120.03 296.76,-99.64 327,-72 363.64,-38.51 507.18,-25.69 582.41,-21.19"/>
<ellipse fill="black" stroke="black" cx="266.42" cy="-356.55" rx="4" ry="4"/>
</g>
<!-- ominusf_mod -->
<g id="node7" class="node">
<title>ominusf_mod</title>
<g id="a_node7"><a xlink:href="../modules/ominusf_mod_rev.svg" xlink:title="ominusf_mod">
<polygon fill="none" stroke="blue" points="350.5,-468 257.5,-468 257.5,-432 350.5,-432 350.5,-468"/>
<text text-anchor="middle" x="304" y="-446.3" font-family="Times,serif" font-size="14.00">ominusf_mod</text>
</a>
</g>
</g>
<!-- ominusf_mod&#45;&gt;obsFiles_mod -->
<g id="edge6" class="edge">
<title>ominusf_mod&#45;&gt;obsFiles_mod</title>
<path fill="none" stroke="black" d="M314.57,-424.19C325.51,-396.24 341,-349.2 341,-307 341,-307 341,-307 341,-161 341,-120.03 335.1,-100.01 365,-72 395.88,-43.08 515.06,-28.56 582.25,-22.53"/>
<ellipse fill="black" stroke="black" cx="312.98" cy="-428.17" rx="4" ry="4"/>
</g>
<!-- midas_midas_analysiserroroi -->
<g id="node8" class="node">
<title>midas_midas_analysiserroroi</title>
<g id="a_node8"><a xlink:href="../programs/midas_analysiserroroi.html" xlink:title="midas_midas_analysiserroroi">
<polygon fill="gray" stroke="green" points="389.5,-540 212.5,-540 212.5,-504 389.5,-504 389.5,-540"/>
<text text-anchor="middle" x="301" y="-518.3" font-family="Times,serif" font-size="14.00">midas_midas_analysiserroroi</text>
</a>
</g>
</g>
<!-- midas_midas_analysiserroroi&#45;&gt;obsFiles_mod -->
<g id="edge7" class="edge">
<title>midas_midas_analysiserroroi&#45;&gt;obsFiles_mod</title>
<path fill="none" stroke="black" d="M332.46,-498.47C342.3,-489.96 352.32,-479.52 359,-468 379.35,-432.93 379,-419.54 379,-379 379,-379 379,-379 379,-161 379,-120.03 373.56,-100.49 403,-72 428.23,-47.59 523.82,-31.85 582.3,-24.29"/>
<ellipse fill="black" stroke="black" cx="329.13" cy="-501.22" rx="4" ry="4"/>
</g>
<!-- midas_midas_diaghbht -->
<g id="node9" class="node">
<title>midas_midas_diaghbht</title>
<g id="a_node9"><a xlink:href="../programs/midas_diaghbht.html" xlink:title="midas_midas_diaghbht">
<polygon fill="gray" stroke="green" points="488.5,-612 345.5,-612 345.5,-576 488.5,-576 488.5,-612"/>
<text text-anchor="middle" x="417" y="-590.3" font-family="Times,serif" font-size="14.00">midas_midas_diaghbht</text>
</a>
</g>
</g>
<!-- midas_midas_diaghbht&#45;&gt;obsFiles_mod -->
<g id="edge8" class="edge">
<title>midas_midas_diaghbht&#45;&gt;obsFiles_mod</title>
<path fill="none" stroke="black" d="M417,-567.78C417,-539.39 417,-491.89 417,-451 417,-451 417,-451 417,-161 417,-120.55 408.24,-101.41 436,-72 473.69,-32.08 538.37,-21.24 582.37,-18.8"/>
<ellipse fill="black" stroke="black" cx="417" cy="-571.95" rx="4" ry="4"/>
</g>
<!-- midas_midas_ensembleh -->
<g id="node10" class="node">
<title>midas_midas_ensembleh</title>
<g id="a_node10"><a xlink:href="../programs/midas_ensembleh.html" xlink:title="midas_midas_ensembleh">
<polygon fill="gray" stroke="green" points="600.5,-108 445.5,-108 445.5,-72 600.5,-72 600.5,-108"/>
<text text-anchor="middle" x="523" y="-86.3" font-family="Times,serif" font-size="14.00">midas_midas_ensembleh</text>
</a>
</g>
</g>
<!-- midas_midas_ensembleh&#45;&gt;obsFiles_mod -->
<g id="edge9" class="edge">
<title>midas_midas_ensembleh&#45;&gt;obsFiles_mod</title>
<path fill="none" stroke="black" d="M555.7,-67.4C570.9,-57.37 588.71,-45.61 602.97,-36.19"/>
<ellipse fill="black" stroke="black" cx="552.27" cy="-69.67" rx="4" ry="4"/>
</g>
<!-- midas_midas_gencoeff -->
<g id="node11" class="node">
<title>midas_midas_gencoeff</title>
<g id="a_node11"><a xlink:href="../programs/midas_gencoeff.html" xlink:title="midas_midas_gencoeff">
<polygon fill="gray" stroke="green" points="638.5,-180 495.5,-180 495.5,-144 638.5,-144 638.5,-180"/>
<text text-anchor="middle" x="567" y="-158.3" font-family="Times,serif" font-size="14.00">midas_midas_gencoeff</text>
</a>
</g>
</g>
<!-- midas_midas_gencoeff&#45;&gt;obsFiles_mod -->
<g id="edge10" class="edge">
<title>midas_midas_gencoeff&#45;&gt;obsFiles_mod</title>
<path fill="none" stroke="black" d="M589.4,-137.43C596.6,-128.75 604,-118.47 609,-108 620.19,-84.56 625.25,-54.63 627.44,-36.14"/>
<ellipse fill="black" stroke="black" cx="586.59" cy="-140.7" rx="4" ry="4"/>
</g>
<!-- midas_midas_letkf -->
<g id="node12" class="node">
<title>midas_midas_letkf</title>
<g id="a_node12"><a xlink:href="../programs/midas_letkf.html" xlink:title="midas_midas_letkf">
<polygon fill="gray" stroke="green" points="677,-252 555,-252 555,-216 677,-216 677,-252"/>
<text text-anchor="middle" x="616" y="-230.3" font-family="Times,serif" font-size="14.00">midas_midas_letkf</text>
</a>
</g>
</g>
<!-- midas_midas_letkf&#45;&gt;obsFiles_mod -->
<g id="edge11" class="edge">
<title>midas_midas_letkf&#45;&gt;obsFiles_mod</title>
<path fill="none" stroke="black" d="M633.66,-208.99C639.04,-200.3 644.26,-190.13 647,-180 660.83,-128.96 644.64,-66.06 635.06,-36.24"/>
<ellipse fill="black" stroke="black" cx="631.33" cy="-212.56" rx="4" ry="4"/>
</g>
<!-- midas_midas_obsimpact -->
<g id="node13" class="node">
<title>midas_midas_obsimpact</title>
<g id="a_node13"><a xlink:href="../programs/midas_obsimpact.html" xlink:title="midas_midas_obsimpact">
<polygon fill="gray" stroke="green" points="715,-324 563,-324 563,-288 715,-288 715,-324"/>
<text text-anchor="middle" x="639" y="-302.3" font-family="Times,serif" font-size="14.00">midas_midas_obsimpact</text>
</a>
</g>
</g>
<!-- midas_midas_obsimpact&#45;&gt;obsFiles_mod -->
<g id="edge12" class="edge">
<title>midas_midas_obsimpact&#45;&gt;obsFiles_mod</title>
<path fill="none" stroke="black" d="M666.31,-281.61C674.21,-273.17 681.83,-262.99 686,-252 691.68,-237.04 687.32,-231.95 686,-216 680.65,-151.34 684.92,-132.7 662,-72 657.18,-59.22 649.11,-46.18 642.15,-36.24"/>
<ellipse fill="black" stroke="black" cx="663.08" cy="-284.86" rx="4" ry="4"/>
</g>
<!-- midas_midas_obsselection -->
<g id="node14" class="node">
<title>midas_midas_obsselection</title>
<g id="a_node14"><a xlink:href="../programs/midas_obsselection.html" xlink:title="midas_midas_obsselection">
<polygon fill="gray" stroke="green" points="752.5,-396 589.5,-396 589.5,-360 752.5,-360 752.5,-396"/>
<text text-anchor="middle" x="671" y="-374.3" font-family="Times,serif" font-size="14.00">midas_midas_obsselection</text>
</a>
</g>
</g>
<!-- midas_midas_obsselection&#45;&gt;obsFiles_mod -->
<g id="edge13" class="edge">
<title>midas_midas_obsselection&#45;&gt;obsFiles_mod</title>
<path fill="none" stroke="black" d="M699.34,-354.49C708.48,-345.86 717.83,-335.35 724,-324 743.32,-288.46 743,-275.45 743,-235 743,-235 743,-235 743,-161 743,-105.67 689.73,-59.63 656.02,-36.04"/>
<ellipse fill="black" stroke="black" cx="696.36" cy="-357.18" rx="4" ry="4"/>
</g>
<!-- midas_midas_ominusf -->
<g id="node15" class="node">
<title>midas_midas_ominusf</title>
<g id="a_node15"><a xlink:href="../programs/midas_ominusf.html" xlink:title="midas_midas_ominusf">
<polygon fill="gray" stroke="green" points="790.5,-468 649.5,-468 649.5,-432 790.5,-432 790.5,-468"/>
<text text-anchor="middle" x="720" y="-446.3" font-family="Times,serif" font-size="14.00">midas_midas_ominusf</text>
</a>
</g>
</g>
<!-- midas_midas_ominusf&#45;&gt;obsFiles_mod -->
<g id="edge14" class="edge">
<title>midas_midas_ominusf&#45;&gt;obsFiles_mod</title>
<path fill="none" stroke="black" d="M741.86,-425.36C748.88,-416.67 756.11,-406.4 761,-396 778.26,-359.31 781,-347.54 781,-307 781,-307 781,-307 781,-161 781,-100.15 715.15,-57.88 670.13,-36.1"/>
<ellipse fill="black" stroke="black" cx="739.13" cy="-428.6" rx="4" ry="4"/>
</g>
<!-- midas_midas_prepcma -->
<g id="node16" class="node">
<title>midas_midas_prepcma</title>
<g id="a_node16"><a xlink:href="../programs/midas_prepcma.html" xlink:title="midas_midas_prepcma">
<polygon fill="gray" stroke="green" points="828.5,-540 685.5,-540 685.5,-504 828.5,-504 828.5,-540"/>
<text text-anchor="middle" x="757" y="-518.3" font-family="Times,serif" font-size="14.00">midas_midas_prepcma</text>
</a>
</g>
</g>
<!-- midas_midas_prepcma&#45;&gt;obsFiles_mod -->
<g id="edge15" class="edge">
<title>midas_midas_prepcma&#45;&gt;obsFiles_mod</title>
<path fill="none" stroke="black" d="M779.4,-497.43C786.6,-488.75 794,-478.47 799,-468 816.47,-431.42 819,-419.54 819,-379 819,-379 819,-379 819,-161 819,-89.76 732.23,-49.96 675.97,-31.63"/>
<ellipse fill="black" stroke="black" cx="776.59" cy="-500.7" rx="4" ry="4"/>
</g>
<!-- midas_midas_sstbias -->
<g id="node17" class="node">
<title>midas_midas_sstbias</title>
<g id="a_node17"><a xlink:href="../programs/midas_sstbias.html" xlink:title="midas_midas_sstbias">
<polygon fill="gray" stroke="green" points="923,-612 791,-612 791,-576 923,-576 923,-612"/>
<text text-anchor="middle" x="857" y="-590.3" font-family="Times,serif" font-size="14.00">midas_midas_sstbias</text>
</a>
</g>
</g>
<!-- midas_midas_sstbias&#45;&gt;obsFiles_mod -->
<g id="edge16" class="edge">
<title>midas_midas_sstbias&#45;&gt;obsFiles_mod</title>
<path fill="none" stroke="black" d="M857,-567.78C857,-539.39 857,-491.89 857,-451 857,-451 857,-451 857,-161 857,-76.36 742.39,-40.36 675.69,-26.57"/>
<ellipse fill="black" stroke="black" cx="857" cy="-571.95" rx="4" ry="4"/>
</g>
<!-- midas_midas_thinning -->
<g id="node18" class="node">
<title>midas_midas_thinning</title>
<g id="a_node18"><a xlink:href="../programs/midas_thinning.html" xlink:title="midas_midas_thinning">
<polygon fill="gray" stroke="green" points="1026.5,-108 885.5,-108 885.5,-72 1026.5,-72 1026.5,-108"/>
<text text-anchor="middle" x="956" y="-86.3" font-family="Times,serif" font-size="14.00">midas_midas_thinning</text>
</a>
</g>
</g>
<!-- midas_midas_thinning&#45;&gt;obsFiles_mod -->
<g id="edge17" class="edge">
<title>midas_midas_thinning&#45;&gt;obsFiles_mod</title>
<path fill="none" stroke="black" d="M877.5,-72.2C814.55,-58.72 728.31,-40.26 675.74,-29"/>
<ellipse fill="black" stroke="black" cx="881.54" cy="-73.06" rx="4" ry="4"/>
</g>
<!-- midas_midas_var1d -->
<g id="node19" class="node">
<title>midas_midas_var1d</title>
<g id="a_node19"><a xlink:href="../programs/midas_var1d.html" xlink:title="midas_midas_var1d">
<polygon fill="gray" stroke="green" points="1118.5,-180 991.5,-180 991.5,-144 1118.5,-144 1118.5,-180"/>
<text text-anchor="middle" x="1055" y="-158.3" font-family="Times,serif" font-size="14.00">midas_midas_var1d</text>
</a>
</g>
</g>
<!-- midas_midas_var1d&#45;&gt;obsFiles_mod -->
<g id="edge18" class="edge">
<title>midas_midas_var1d&#45;&gt;obsFiles_mod</title>
<path fill="none" stroke="black" d="M1056.57,-135.59C1056.33,-115.35 1052.4,-87.88 1035,-72 983.28,-24.8 770.74,-18.86 675.51,-18.63"/>
<ellipse fill="black" stroke="black" cx="1056.52" cy="-139.76" rx="4" ry="4"/>
</g>
<!-- midas_midas_var -->
<g id="node20" class="node">
<title>midas_midas_var</title>
<g id="a_node20"><a xlink:href="../programs/midas_var.html" xlink:title="midas_midas_var">
<polygon fill="gray" stroke="green" points="1203.5,-252 1090.5,-252 1090.5,-216 1203.5,-216 1203.5,-252"/>
<text text-anchor="middle" x="1147" y="-230.3" font-family="Times,serif" font-size="14.00">midas_midas_var</text>
</a>
</g>
</g>
<!-- midas_midas_var&#45;&gt;obsFiles_mod -->
<g id="edge19" class="edge">
<title>midas_midas_var&#45;&gt;obsFiles_mod</title>
<path fill="none" stroke="black" d="M1144.93,-207.67C1142.58,-189.14 1137.58,-163.88 1127,-144 1106.33,-105.14 1098.28,-91.87 1059,-72 992.72,-38.47 772.78,-25.13 675.72,-20.79"/>
<ellipse fill="black" stroke="black" cx="1145.38" cy="-211.69" rx="4" ry="4"/>
</g>
</g>
</svg>
