<?xml version="1.0" encoding="UTF-8" standalone="no"?>
<!DOCTYPE svg PUBLIC "-//W3C//DTD SVG 1.1//EN"
 "http://www.w3.org/Graphics/SVG/1.1/DTD/svg11.dtd">
<!-- Generated by graphviz version 3.0.0 (20220315.2325)
 -->
<!-- Title: obsOperatorsChem_mod Pages: 1 -->
<svg width="433pt" height="313pt"
 viewBox="0.00 0.00 433.00 313.00" xmlns="http://www.w3.org/2000/svg" xmlns:xlink="http://www.w3.org/1999/xlink">
<g id="graph0" class="graph" transform="scale(1 1) rotate(0) translate(4 309)">
<title>obsOperatorsChem_mod</title>
<polygon fill="white" stroke="transparent" points="-4,4 -4,-309 429,-309 429,4 -4,4"/>
<text text-anchor="middle" x="212.5" y="-289.8" font-family="Times,serif" font-size="14.00">Blue boxes indicate modules with reverse dependencies not shown</text>
<text text-anchor="middle" x="212.5" y="-274.8" font-family="Times,serif" font-size="14.00">Higher level reverse dependencies can be shown by clicking on a blue box</text>
<text text-anchor="middle" x="212.5" y="-259.8" font-family="Times,serif" font-size="14.00">Green boxes are programs</text>
<!-- obsOperatorsChem_mod -->
<g id="node1" class="node">
<title>obsOperatorsChem_mod</title>
<g id="a_node1"><a xlink:href="obsOperatorsChem_mod.html" xlink:title="obsOperatorsChem_mod">
<polygon fill="none" stroke="black" points="278,-36 125,-36 125,0 278,0 278,-36"/>
<text text-anchor="middle" x="201.5" y="-14.3" font-family="Times,serif" font-size="14.00">obsOperatorsChem_mod</text>
</a>
</g>
</g>
<!-- obsoperators_mod -->
<g id="node2" class="node">
<title>obsoperators_mod</title>
<g id="a_node2"><a xlink:href="../modules/obsoperators_mod_rev.svg" xlink:title="obsoperators_mod">
<polygon fill="none" stroke="blue" points="173,-108 56,-108 56,-72 173,-72 173,-108"/>
<text text-anchor="middle" x="114.5" y="-86.3" font-family="Times,serif" font-size="14.00">obsoperators_mod</text>
</a>
</g>
</g>
<!-- obsoperators_mod&#45;&gt;obsOperatorsChem_mod -->
<g id="edge1" class="edge">
<title>obsoperators_mod&#45;&gt;obsOperatorsChem_mod</title>
<path fill="none" stroke="black" d="M142.24,-66.68C154.55,-56.78 168.8,-45.31 180.24,-36.1"/>
<ellipse fill="black" stroke="black" cx="139.12" cy="-69.19" rx="4" ry="4"/>
</g>
<!-- obsspacediag_mod -->
<g id="node3" class="node">
<title>obsspacediag_mod</title>
<g id="a_node3"><a xlink:href="../modules/obsspacediag_mod_rev.svg" xlink:title="obsspacediag_mod">
<polygon fill="none" stroke="blue" points="261.5,-180 141.5,-180 141.5,-144 261.5,-144 261.5,-180"/>
<text text-anchor="middle" x="201.5" y="-158.3" font-family="Times,serif" font-size="14.00">obsspacediag_mod</text>
</a>
</g>
</g>
<!-- obsspacediag_mod&#45;&gt;obsOperatorsChem_mod -->
<g id="edge2" class="edge">
<title>obsspacediag_mod&#45;&gt;obsOperatorsChem_mod</title>
<path fill="none" stroke="black" d="M201.5,-135.56C201.5,-106.86 201.5,-60.96 201.5,-36.19"/>
<ellipse fill="black" stroke="black" cx="201.5" cy="-139.87" rx="4" ry="4"/>
</g>
<!-- obsspaceerrorstddev_mod -->
<g id="node4" class="node">
<title>obsspaceerrorstddev_mod</title>
<g id="a_node4"><a xlink:href="../modules/obsspaceerrorstddev_mod_rev.svg" xlink:title="obsspaceerrorstddev_mod">
<polygon fill="none" stroke="blue" points="369,-252 210,-252 210,-216 369,-216 369,-252"/>
<text text-anchor="middle" x="289.5" y="-230.3" font-family="Times,serif" font-size="14.00">obsspaceerrorstddev_mod</text>
</a>
</g>
</g>
<!-- obsspaceerrorstddev_mod&#45;&gt;obsOperatorsChem_mod -->
<g id="edge3" class="edge">
<title>obsspaceerrorstddev_mod&#45;&gt;obsOperatorsChem_mod</title>
<path fill="none" stroke="black" d="M286.1,-207.53C283.2,-189.42 278.24,-164.73 270.5,-144 255.24,-103.13 228.35,-59.37 213.03,-36.02"/>
<ellipse fill="black" stroke="black" cx="286.77" cy="-211.89" rx="4" ry="4"/>
</g>
</g>
</svg>
