<?xml version="1.0" encoding="UTF-8" standalone="no"?>
<!DOCTYPE svg PUBLIC "-//W3C//DTD SVG 1.1//EN"
 "http://www.w3.org/Graphics/SVG/1.1/DTD/svg11.dtd">
<!-- Generated by graphviz version 3.0.0 (20220315.2325)
 -->
<!-- Title: obsOperatorsChem_mod Pages: 1 -->
<svg width="937pt" height="673pt"
 viewBox="0.00 0.00 937.00 673.00" xmlns="http://www.w3.org/2000/svg" xmlns:xlink="http://www.w3.org/1999/xlink">
<g id="graph0" class="graph" transform="scale(1 1) rotate(0) translate(4 669)">
<title>obsOperatorsChem_mod</title>
<polygon fill="white" stroke="transparent" points="-4,4 -4,-669 933,-669 933,4 -4,4"/>
<text text-anchor="middle" x="464.5" y="-37.8" font-family="Times,serif" font-size="14.00">Red boxes indicate modules with dependencies not shown</text>
<text text-anchor="middle" x="464.5" y="-22.8" font-family="Times,serif" font-size="14.00">Lower level dependencies can be shown by clicking on a red box</text>
<text text-anchor="middle" x="464.5" y="-7.8" font-family="Times,serif" font-size="14.00">Shaded boxes indicate modules with no dependencies</text>
<!-- obsOperatorsChem_mod -->
<g id="node1" class="node">
<title>obsOperatorsChem_mod</title>
<g id="a_node1"><a xlink:href="obsOperatorsChem_mod.html" xlink:title="obsOperatorsChem_mod">
<polygon fill="none" stroke="black" points="533,-665 380,-665 380,-629 533,-629 533,-665"/>
<text text-anchor="middle" x="456.5" y="-643.3" font-family="Times,serif" font-size="14.00">obsOperatorsChem_mod</text>
</a>
</g>
</g>
<!-- bcovarsetupchem_mod -->
<g id="node2" class="node">
<title>bcovarsetupchem_mod</title>
<g id="a_node2"><a xlink:href="../modules/bcovarsetupchem_mod.svg" xlink:title="bcovarsetupchem_mod">
<polygon fill="none" stroke="red" points="143,-593 0,-593 0,-557 143,-557 143,-593"/>
<text text-anchor="middle" x="71.5" y="-571.3" font-family="Times,serif" font-size="14.00">bcovarsetupchem_mod</text>
</a>
</g>
</g>
<!-- obsOperatorsChem_mod&#45;&gt;bcovarsetupchem_mod -->
<g id="edge1" class="edge">
<title>obsOperatorsChem_mod&#45;&gt;bcovarsetupchem_mod</title>
<path fill="none" stroke="black" d="M379.92,-632.85C319.47,-622.37 233.02,-607.16 157.5,-593 156.05,-592.73 154.59,-592.45 153.12,-592.17"/>
<polygon fill="black" stroke="black" points="153.75,-588.73 143.28,-590.3 152.44,-595.61 153.75,-588.73"/>
</g>
<!-- bufr_mod -->
<g id="node3" class="node">
<title>bufr_mod</title>
<g id="a_node3"><a xlink:href="bufr_mod.html" xlink:title="bufr_mod">
<polygon fill="gray" stroke="black" points="194,-521 123,-521 123,-485 194,-485 194,-521"/>
<text text-anchor="middle" x="158.5" y="-499.3" font-family="Times,serif" font-size="14.00">bufr_mod</text>
</a>
</g>
</g>
<!-- obsOperatorsChem_mod&#45;&gt;bufr_mod -->
<g id="edge2" class="edge">
<title>obsOperatorsChem_mod&#45;&gt;bufr_mod</title>
<path fill="none" stroke="black" d="M380,-636.65C317.55,-627.76 235.4,-612.81 208.5,-593 187.75,-577.72 174.44,-551.08 166.81,-530.91"/>
<polygon fill="black" stroke="black" points="170.06,-529.6 163.42,-521.34 163.46,-531.93 170.06,-529.6"/>
</g>
<!-- codtyp_mod -->
<g id="node4" class="node">
<title>codtyp_mod</title>
<g id="a_node4"><a xlink:href="../modules/codtyp_mod.svg" xlink:title="codtyp_mod">
<polygon fill="none" stroke="red" points="232,-449 147,-449 147,-413 232,-413 232,-449"/>
<text text-anchor="middle" x="189.5" y="-427.3" font-family="Times,serif" font-size="14.00">codtyp_mod</text>
</a>
</g>
</g>
<!-- obsOperatorsChem_mod&#45;&gt;codtyp_mod -->
<g id="edge3" class="edge">
<title>obsOperatorsChem_mod&#45;&gt;codtyp_mod</title>
<path fill="none" stroke="black" d="M379.97,-644.02C336.02,-639.02 282.57,-625.86 246.5,-593 236.25,-583.66 210.56,-502.05 197.46,-458.74"/>
<polygon fill="black" stroke="black" points="200.79,-457.69 194.56,-449.12 194.09,-459.71 200.79,-457.69"/>
</g>
<!-- columndata_mod -->
<g id="node5" class="node">
<title>columndata_mod</title>
<g id="a_node5"><a xlink:href="../modules/columndata_mod.svg" xlink:title="columndata_mod">
<polygon fill="none" stroke="red" points="270.5,-377 158.5,-377 158.5,-341 270.5,-341 270.5,-377"/>
<text text-anchor="middle" x="214.5" y="-355.3" font-family="Times,serif" font-size="14.00">columndata_mod</text>
</a>
</g>
</g>
<!-- obsOperatorsChem_mod&#45;&gt;columndata_mod -->
<g id="edge4" class="edge">
<title>obsOperatorsChem_mod&#45;&gt;columndata_mod</title>
<path fill="none" stroke="black" d="M379.87,-639.27C346.36,-632.5 309.15,-619.15 284.5,-593 228.01,-533.07 268.58,-490.42 240.5,-413 237.25,-404.04 232.93,-394.59 228.75,-386.2"/>
<polygon fill="black" stroke="black" points="231.83,-384.54 224.15,-377.25 225.61,-387.74 231.83,-384.54"/>
</g>
<!-- earthconstants_mod -->
<g id="node6" class="node">
<title>earthconstants_mod</title>
<g id="a_node6"><a xlink:href="../modules/earthconstants_mod.svg" xlink:title="earthconstants_mod">
<polygon fill="none" stroke="red" points="308.5,-305 182.5,-305 182.5,-269 308.5,-269 308.5,-305"/>
<text text-anchor="middle" x="245.5" y="-283.3" font-family="Times,serif" font-size="14.00">earthconstants_mod</text>
</a>
</g>
</g>
<!-- obsOperatorsChem_mod&#45;&gt;earthconstants_mod -->
<g id="edge5" class="edge">
<title>obsOperatorsChem_mod&#45;&gt;earthconstants_mod</title>
<path fill="none" stroke="black" d="M379.8,-629.36C358.74,-621.46 337.58,-609.89 322.5,-593 295.22,-562.44 298.5,-544.97 298.5,-504 298.5,-504 298.5,-504 298.5,-430 298.5,-389.55 294.89,-378.4 279.5,-341 275.61,-331.55 270.02,-321.93 264.5,-313.52"/>
<polygon fill="black" stroke="black" points="267.38,-311.54 258.84,-305.27 261.61,-315.49 267.38,-311.54"/>
</g>
<!-- mathphysconstants_mod -->
<g id="node7" class="node">
<title>mathphysconstants_mod</title>
<g id="a_node7"><a xlink:href="mathphysconstants_mod.html" xlink:title="mathphysconstants_mod">
<polygon fill="gray" stroke="black" points="346.5,-233 194.5,-233 194.5,-197 346.5,-197 346.5,-233"/>
<text text-anchor="middle" x="270.5" y="-211.3" font-family="Times,serif" font-size="14.00">mathphysconstants_mod</text>
</a>
</g>
</g>
<!-- obsOperatorsChem_mod&#45;&gt;mathphysconstants_mod -->
<g id="edge6" class="edge">
<title>obsOperatorsChem_mod&#45;&gt;mathphysconstants_mod</title>
<path fill="none" stroke="black" d="M408.57,-628.85C391.2,-620.47 372.83,-608.73 360.5,-593 335.22,-560.76 336.5,-544.97 336.5,-504 336.5,-504 336.5,-504 336.5,-358 336.5,-317.55 335.74,-305.1 317.5,-269 312.32,-258.75 304.66,-248.92 297.03,-240.57"/>
<polygon fill="black" stroke="black" points="299.54,-238.14 290.09,-233.35 294.49,-242.99 299.54,-238.14"/>
</g>
<!-- midasmpi_mod -->
<g id="node8" class="node">
<title>midasmpi_mod</title>
<g id="a_node8"><a xlink:href="../modules/midasmpi_mod.svg" xlink:title="midasmpi_mod">
<polygon fill="none" stroke="red" points="384.5,-161 282.5,-161 282.5,-125 384.5,-125 384.5,-161"/>
<text text-anchor="middle" x="333.5" y="-139.3" font-family="Times,serif" font-size="14.00">midasmpi_mod</text>
</a>
</g>
</g>
<!-- obsOperatorsChem_mod&#45;&gt;midasmpi_mod -->
<g id="edge7" class="edge">
<title>obsOperatorsChem_mod&#45;&gt;midasmpi_mod</title>
<path fill="none" stroke="black" d="M431.99,-628.86C420.29,-619.5 407.01,-606.98 398.5,-593 377.19,-558.01 374.5,-544.97 374.5,-504 374.5,-504 374.5,-504 374.5,-286 374.5,-244.41 358.06,-198.56 346,-170.51"/>
<polygon fill="black" stroke="black" points="349.05,-168.75 341.8,-161.03 342.65,-171.59 349.05,-168.75"/>
</g>
<!-- obsfiles_mod -->
<g id="node9" class="node">
<title>obsfiles_mod</title>
<g id="a_node9"><a xlink:href="../modules/obsfiles_mod.svg" xlink:title="obsfiles_mod">
<polygon fill="none" stroke="red" points="457,-89 368,-89 368,-53 457,-53 457,-89"/>
<text text-anchor="middle" x="412.5" y="-67.3" font-family="Times,serif" font-size="14.00">obsfiles_mod</text>
</a>
</g>
</g>
<!-- obsOperatorsChem_mod&#45;&gt;obsfiles_mod -->
<g id="edge8" class="edge">
<title>obsOperatorsChem_mod&#45;&gt;obsfiles_mod</title>
<path fill="none" stroke="black" d="M447.12,-628.75C441.91,-618.59 435.66,-605.34 431.5,-593 418.56,-554.68 412.5,-544.45 412.5,-504 412.5,-504 412.5,-504 412.5,-214 412.5,-174 412.5,-127.65 412.5,-99.08"/>
<polygon fill="black" stroke="black" points="416,-99.05 412.5,-89.05 409,-99.05 416,-99.05"/>
</g>
<!-- obsspacedata_mod -->
<g id="node10" class="node">
<title>obsspacedata_mod</title>
<g id="a_node10"><a xlink:href="../modules/obsspacedata_mod.svg" xlink:title="obsspacedata_mod">
<polygon fill="none" stroke="red" points="560,-593 441,-593 441,-557 560,-557 560,-593"/>
<text text-anchor="middle" x="500.5" y="-571.3" font-family="Times,serif" font-size="14.00">obsspacedata_mod</text>
</a>
</g>
</g>
<!-- obsOperatorsChem_mod&#45;&gt;obsspacedata_mod -->
<g id="edge9" class="edge">
<title>obsOperatorsChem_mod&#45;&gt;obsspacedata_mod</title>
<path fill="none" stroke="black" d="M467.38,-628.7C472.49,-620.56 478.7,-610.69 484.34,-601.7"/>
<polygon fill="black" stroke="black" points="487.39,-603.43 489.75,-593.1 481.46,-599.71 487.39,-603.43"/>
</g>
<!-- obssubspacedata_mod -->
<g id="node11" class="node">
<title>obssubspacedata_mod</title>
<g id="a_node11"><a xlink:href="../modules/obssubspacedata_mod.svg" xlink:title="obssubspacedata_mod">
<polygon fill="none" stroke="red" points="598.5,-521 460.5,-521 460.5,-485 598.5,-485 598.5,-521"/>
<text text-anchor="middle" x="529.5" y="-499.3" font-family="Times,serif" font-size="14.00">obssubspacedata_mod</text>
</a>
</g>
</g>
<!-- obsOperatorsChem_mod&#45;&gt;obssubspacedata_mod -->
<g id="edge10" class="edge">
<title>obsOperatorsChem_mod&#45;&gt;obssubspacedata_mod</title>
<path fill="none" stroke="black" d="M523.06,-628.94C540.85,-621.02 558.03,-609.54 568.5,-593 581.33,-572.73 567.87,-547.51 553.37,-529.1"/>
<polygon fill="black" stroke="black" points="555.83,-526.59 546.72,-521.16 550.46,-531.08 555.83,-526.59"/>
</g>
<!-- ozoneclim_mod -->
<g id="node12" class="node">
<title>ozoneclim_mod</title>
<g id="a_node12"><a xlink:href="../modules/ozoneclim_mod.svg" xlink:title="ozoneclim_mod">
<polygon fill="none" stroke="red" points="636,-449 531,-449 531,-413 636,-413 636,-449"/>
<text text-anchor="middle" x="583.5" y="-427.3" font-family="Times,serif" font-size="14.00">ozoneclim_mod</text>
</a>
</g>
</g>
<!-- obsOperatorsChem_mod&#45;&gt;ozoneclim_mod -->
<g id="edge11" class="edge">
<title>obsOperatorsChem_mod&#45;&gt;ozoneclim_mod</title>
<path fill="none" stroke="black" d="M529.03,-628.89C549.62,-620.95 570.5,-609.47 585.5,-593 618.49,-556.78 617.84,-532.88 607.5,-485 605.54,-475.92 601.89,-466.52 598.01,-458.2"/>
<polygon fill="black" stroke="black" points="601.04,-456.42 593.45,-449.02 594.77,-459.53 601.04,-456.42"/>
</g>
<!-- physicsfunctions_mod -->
<g id="node13" class="node">
<title>physicsfunctions_mod</title>
<g id="a_node13"><a xlink:href="../modules/physicsfunctions_mod.svg" xlink:title="physicsfunctions_mod">
<polygon fill="none" stroke="red" points="674,-377 535,-377 535,-341 674,-341 674,-377"/>
<text text-anchor="middle" x="604.5" y="-355.3" font-family="Times,serif" font-size="14.00">physicsfunctions_mod</text>
</a>
</g>
</g>
<!-- obsOperatorsChem_mod&#45;&gt;physicsfunctions_mod -->
<g id="edge12" class="edge">
<title>obsOperatorsChem_mod&#45;&gt;physicsfunctions_mod</title>
<path fill="none" stroke="black" d="M533,-635.8C561.28,-628.33 591.32,-615.4 611.5,-593 665.94,-532.57 670.34,-490.12 644.5,-413 641.15,-403 635.08,-393.38 628.67,-385.14"/>
<polygon fill="black" stroke="black" points="631.32,-382.85 622.23,-377.4 625.94,-387.33 631.32,-382.85"/>
</g>
<!-- presprofileoperators_mod -->
<g id="node14" class="node">
<title>presprofileoperators_mod</title>
<g id="a_node14"><a xlink:href="../modules/presprofileoperators_mod.svg" xlink:title="presprofileoperators_mod">
<polygon fill="none" stroke="red" points="712.5,-305 556.5,-305 556.5,-269 712.5,-269 712.5,-305"/>
<text text-anchor="middle" x="634.5" y="-283.3" font-family="Times,serif" font-size="14.00">presprofileoperators_mod</text>
</a>
</g>
</g>
<!-- obsOperatorsChem_mod&#45;&gt;presprofileoperators_mod -->
<g id="edge13" class="edge">
<title>obsOperatorsChem_mod&#45;&gt;presprofileoperators_mod</title>
<path fill="none" stroke="black" d="M533.32,-634.58C605.5,-618.98 702.5,-583.27 702.5,-504 702.5,-504 702.5,-504 702.5,-430 702.5,-389.46 701.17,-376.99 682.5,-341 677.16,-330.71 669.33,-320.87 661.53,-312.52"/>
<polygon fill="black" stroke="black" points="663.96,-310 654.45,-305.31 658.96,-314.9 663.96,-310"/>
</g>
<!-- timecoord_mod -->
<g id="node15" class="node">
<title>timecoord_mod</title>
<g id="a_node15"><a xlink:href="../modules/timecoord_mod.svg" xlink:title="timecoord_mod">
<polygon fill="none" stroke="red" points="771.5,-233 667.5,-233 667.5,-197 771.5,-197 771.5,-233"/>
<text text-anchor="middle" x="719.5" y="-211.3" font-family="Times,serif" font-size="14.00">timecoord_mod</text>
</a>
</g>
</g>
<!-- obsOperatorsChem_mod&#45;&gt;timecoord_mod -->
<g id="edge14" class="edge">
<title>obsOperatorsChem_mod&#45;&gt;timecoord_mod</title>
<path fill="none" stroke="black" d="M533.35,-640.13C617.46,-629.02 740.5,-596.89 740.5,-504 740.5,-504 740.5,-504 740.5,-358 740.5,-317.78 732.15,-271.84 725.99,-243.37"/>
<polygon fill="black" stroke="black" points="729.35,-242.36 723.75,-233.37 722.51,-243.89 729.35,-242.36"/>
</g>
<!-- utilities_mod -->
<g id="node16" class="node">
<title>utilities_mod</title>
<g id="a_node16"><a xlink:href="../modules/utilities_mod.svg" xlink:title="utilities_mod">
<polygon fill="none" stroke="red" points="844,-161 755,-161 755,-125 844,-125 844,-161"/>
<text text-anchor="middle" x="799.5" y="-139.3" font-family="Times,serif" font-size="14.00">utilities_mod</text>
</a>
</g>
</g>
<!-- obsOperatorsChem_mod&#45;&gt;utilities_mod -->
<g id="edge15" class="edge">
<title>obsOperatorsChem_mod&#45;&gt;utilities_mod</title>
<path fill="none" stroke="black" d="M533.16,-643.07C587.89,-638.09 661.59,-625.29 718.5,-593 765.02,-566.61 799.5,-557.48 799.5,-504 799.5,-504 799.5,-504 799.5,-286 799.5,-246 799.5,-199.65 799.5,-171.08"/>
<polygon fill="black" stroke="black" points="803,-171.05 799.5,-161.05 796,-171.05 803,-171.05"/>
</g>
<!-- varnamelist_mod -->
<g id="node17" class="node">
<title>varnamelist_mod</title>
<g id="a_node17"><a xlink:href="../modules/varnamelist_mod.svg" xlink:title="varnamelist_mod">
<polygon fill="none" stroke="red" points="929,-89 816,-89 816,-53 929,-53 929,-89"/>
<text text-anchor="middle" x="872.5" y="-67.3" font-family="Times,serif" font-size="14.00">varnamelist_mod</text>
</a>
</g>
</g>
<!-- obsOperatorsChem_mod&#45;&gt;varnamelist_mod -->
<g id="edge16" class="edge">
<title>obsOperatorsChem_mod&#45;&gt;varnamelist_mod</title>
<path fill="none" stroke="black" d="M533.2,-643.4C597.07,-638.78 689.1,-626.3 762.5,-593 819.77,-567.02 872.5,-566.89 872.5,-504 872.5,-504 872.5,-504 872.5,-214 872.5,-174 872.5,-127.65 872.5,-99.08"/>
<polygon fill="black" stroke="black" points="876,-99.05 872.5,-89.05 869,-99.05 876,-99.05"/>
</g>
</g>
</svg>
