<?xml version="1.0" encoding="UTF-8" standalone="no"?>
<!DOCTYPE svg PUBLIC "-//W3C//DTD SVG 1.1//EN"
 "http://www.w3.org/Graphics/SVG/1.1/DTD/svg11.dtd">
<!-- Generated by graphviz version 3.0.0 (20220315.2325)
 -->
<!-- Title: obsOperators_mod Pages: 1 -->
<svg width="533pt" height="601pt"
 viewBox="0.00 0.00 533.00 601.00" xmlns="http://www.w3.org/2000/svg" xmlns:xlink="http://www.w3.org/1999/xlink">
<g id="graph0" class="graph" transform="scale(1 1) rotate(0) translate(4 597)">
<title>obsOperators_mod</title>
<polygon fill="white" stroke="transparent" points="-4,4 -4,-597 529,-597 529,4 -4,4"/>
<text text-anchor="middle" x="262.5" y="-577.8" font-family="Times,serif" font-size="14.00">Blue boxes indicate modules with reverse dependencies not shown</text>
<text text-anchor="middle" x="262.5" y="-562.8" font-family="Times,serif" font-size="14.00">Higher level reverse dependencies can be shown by clicking on a blue box</text>
<text text-anchor="middle" x="262.5" y="-547.8" font-family="Times,serif" font-size="14.00">Green boxes are programs</text>
<!-- obsOperators_mod -->
<g id="node1" class="node">
<title>obsOperators_mod</title>
<g id="a_node1"><a xlink:href="obsOperators_mod.html" xlink:title="obsOperators_mod">
<polygon fill="none" stroke="black" points="305.5,-36 185.5,-36 185.5,0 305.5,0 305.5,-36"/>
<text text-anchor="middle" x="245.5" y="-14.3" font-family="Times,serif" font-size="14.00">obsOperators_mod</text>
</a>
</g>
</g>
<!-- analysiserroroi_mod -->
<g id="node2" class="node">
<title>analysiserroroi_mod</title>
<g id="a_node2"><a xlink:href="../modules/analysiserroroi_mod_rev.svg" xlink:title="analysiserroroi_mod">
<polygon fill="none" stroke="blue" points="129,-108 0,-108 0,-72 129,-72 129,-108"/>
<text text-anchor="middle" x="64.5" y="-86.3" font-family="Times,serif" font-size="14.00">analysiserroroi_mod</text>
</a>
</g>
</g>
<!-- analysiserroroi_mod&#45;&gt;obsOperators_mod -->
<g id="edge1" class="edge">
<title>analysiserroroi_mod&#45;&gt;obsOperators_mod</title>
<path fill="none" stroke="black" d="M116.55,-68.87C143.39,-58.49 175.77,-45.97 201.37,-36.07"/>
<ellipse fill="black" stroke="black" cx="112.51" cy="-70.43" rx="4" ry="4"/>
</g>
<!-- fsoi_mod -->
<g id="node3" class="node">
<title>fsoi_mod</title>
<g id="a_node3"><a xlink:href="../modules/fsoi_mod_rev.svg" xlink:title="fsoi_mod">
<polygon fill="none" stroke="blue" points="179.5,-180 111.5,-180 111.5,-144 179.5,-144 179.5,-180"/>
<text text-anchor="middle" x="145.5" y="-158.3" font-family="Times,serif" font-size="14.00">fsoi_mod</text>
</a>
</g>
</g>
<!-- fsoi_mod&#45;&gt;obsOperators_mod -->
<g id="edge2" class="edge">
<title>fsoi_mod&#45;&gt;obsOperators_mod</title>
<path fill="none" stroke="black" d="M156.5,-136.29C165.28,-117.79 178.55,-92.28 193.5,-72 203.14,-58.93 215.89,-45.88 226.35,-36.01"/>
<ellipse fill="black" stroke="black" cx="154.71" cy="-140.13" rx="4" ry="4"/>
</g>
<!-- innovation_mod -->
<g id="node4" class="node">
<title>innovation_mod</title>
<g id="a_node4"><a xlink:href="../modules/innovation_mod_rev.svg" xlink:title="innovation_mod">
<polygon fill="none" stroke="blue" points="217.5,-252 111.5,-252 111.5,-216 217.5,-216 217.5,-252"/>
<text text-anchor="middle" x="164.5" y="-230.3" font-family="Times,serif" font-size="14.00">innovation_mod</text>
</a>
</g>
</g>
<!-- innovation_mod&#45;&gt;obsOperators_mod -->
<g id="edge3" class="edge">
<title>innovation_mod&#45;&gt;obsOperators_mod</title>
<path fill="none" stroke="black" d="M176.11,-208.53C180.19,-199.62 184.71,-189.42 188.5,-180 209.32,-128.29 230.3,-65.7 239.98,-36.1"/>
<ellipse fill="black" stroke="black" cx="174.34" cy="-212.34" rx="4" ry="4"/>
</g>
<!-- minimization_mod -->
<g id="node5" class="node">
<title>minimization_mod</title>
<g id="a_node5"><a xlink:href="../modules/minimization_mod_rev.svg" xlink:title="minimization_mod">
<polygon fill="none" stroke="blue" points="255.5,-324 133.5,-324 133.5,-288 255.5,-288 255.5,-324"/>
<text text-anchor="middle" x="194.5" y="-302.3" font-family="Times,serif" font-size="14.00">minimization_mod</text>
</a>
</g>
</g>
<!-- minimization_mod&#45;&gt;obsOperators_mod -->
<g id="edge4" class="edge">
<title>minimization_mod&#45;&gt;obsOperators_mod</title>
<path fill="none" stroke="black" d="M212.08,-281.19C217.66,-272.43 223.22,-262.17 226.5,-252 251.5,-174.56 248.99,-75.5 246.73,-36.19"/>
<ellipse fill="black" stroke="black" cx="209.87" cy="-284.52" rx="4" ry="4"/>
</g>
<!-- obsspacediag_mod -->
<g id="node6" class="node">
<title>obsspacediag_mod</title>
<g id="a_node6"><a xlink:href="../modules/obsspacediag_mod_rev.svg" xlink:title="obsspacediag_mod">
<polygon fill="none" stroke="blue" points="318.5,-396 198.5,-396 198.5,-360 318.5,-360 318.5,-396"/>
<text text-anchor="middle" x="258.5" y="-374.3" font-family="Times,serif" font-size="14.00">obsspacediag_mod</text>
</a>
</g>
</g>
<!-- obsspacediag_mod&#45;&gt;obsOperators_mod -->
<g id="edge5" class="edge">
<title>obsspacediag_mod&#45;&gt;obsOperators_mod</title>
<path fill="none" stroke="black" d="M265.64,-351.92C273.03,-323.72 283.5,-276.46 283.5,-235 283.5,-235 283.5,-235 283.5,-161 283.5,-114.55 264.29,-62.38 253.19,-36.09"/>
<ellipse fill="black" stroke="black" cx="264.6" cy="-355.82" rx="4" ry="4"/>
</g>
<!-- obsspaceerrorstddev_mod -->
<g id="node7" class="node">
<title>obsspaceerrorstddev_mod</title>
<g id="a_node7"><a xlink:href="../modules/obsspaceerrorstddev_mod_rev.svg" xlink:title="obsspaceerrorstddev_mod">
<polygon fill="none" stroke="blue" points="426,-468 267,-468 267,-432 426,-432 426,-468"/>
<text text-anchor="middle" x="346.5" y="-446.3" font-family="Times,serif" font-size="14.00">obsspaceerrorstddev_mod</text>
</a>
</g>
</g>
<!-- obsspaceerrorstddev_mod&#45;&gt;obsOperators_mod -->
<g id="edge6" class="edge">
<title>obsspaceerrorstddev_mod&#45;&gt;obsOperators_mod</title>
<path fill="none" stroke="black" d="M346.5,-423.78C346.5,-395.39 346.5,-347.89 346.5,-307 346.5,-307 346.5,-307 346.5,-161 346.5,-107.6 298.49,-60.34 268.67,-36.13"/>
<ellipse fill="black" stroke="black" cx="346.5" cy="-427.95" rx="4" ry="4"/>
</g>
<!-- midas_midas_diaghbht -->
<g id="node8" class="node">
<title>midas_midas_diaghbht</title>
<g id="a_node8"><a xlink:href="../programs/midas_diaghbht.html" xlink:title="midas_midas_diaghbht">
<polygon fill="gray" stroke="green" points="525,-540 382,-540 382,-504 525,-504 525,-540"/>
<text text-anchor="middle" x="453.5" y="-518.3" font-family="Times,serif" font-size="14.00">midas_midas_diaghbht</text>
</a>
</g>
</g>
<!-- midas_midas_diaghbht&#45;&gt;obsOperators_mod -->
<g id="edge7" class="edge">
<title>midas_midas_diaghbht&#45;&gt;obsOperators_mod</title>
<path fill="none" stroke="black" d="M453.5,-495.78C453.5,-467.39 453.5,-419.89 453.5,-379 453.5,-379 453.5,-379 453.5,-161 453.5,-88.86 367.09,-50.72 305.66,-32.72"/>
<ellipse fill="black" stroke="black" cx="453.5" cy="-499.95" rx="4" ry="4"/>
</g>
</g>
</svg>
