<?xml version="1.0" encoding="UTF-8" standalone="no"?>
<!DOCTYPE svg PUBLIC "-//W3C//DTD SVG 1.1//EN"
 "http://www.w3.org/Graphics/SVG/1.1/DTD/svg11.dtd">
<!-- Generated by graphviz version 3.0.0 (20220315.2325)
 -->
<!-- Title: obsOperators_mod Pages: 1 -->
<svg width="959pt" height="673pt"
 viewBox="0.00 0.00 958.50 673.00" xmlns="http://www.w3.org/2000/svg" xmlns:xlink="http://www.w3.org/1999/xlink">
<g id="graph0" class="graph" transform="scale(1 1) rotate(0) translate(4 669)">
<title>obsOperators_mod</title>
<polygon fill="white" stroke="transparent" points="-4,4 -4,-669 954.5,-669 954.5,4 -4,4"/>
<text text-anchor="middle" x="475.25" y="-37.8" font-family="Times,serif" font-size="14.00">Red boxes indicate modules with dependencies not shown</text>
<text text-anchor="middle" x="475.25" y="-22.8" font-family="Times,serif" font-size="14.00">Lower level dependencies can be shown by clicking on a red box</text>
<text text-anchor="middle" x="475.25" y="-7.8" font-family="Times,serif" font-size="14.00">Shaded boxes indicate modules with no dependencies</text>
<!-- obsOperators_mod -->
<g id="node1" class="node">
<title>obsOperators_mod</title>
<g id="a_node1"><a xlink:href="obsOperators_mod.html" xlink:title="obsOperators_mod">
<polygon fill="none" stroke="black" points="515.5,-665 395.5,-665 395.5,-629 515.5,-629 515.5,-665"/>
<text text-anchor="middle" x="455.5" y="-643.3" font-family="Times,serif" font-size="14.00">obsOperators_mod</text>
</a>
</g>
</g>
<!-- bufr_mod -->
<g id="node2" class="node">
<title>bufr_mod</title>
<g id="a_node2"><a xlink:href="bufr_mod.html" xlink:title="bufr_mod">
<polygon fill="gray" stroke="black" points="71,-593 0,-593 0,-557 71,-557 71,-593"/>
<text text-anchor="middle" x="35.5" y="-571.3" font-family="Times,serif" font-size="14.00">bufr_mod</text>
</a>
</g>
</g>
<!-- obsOperators_mod&#45;&gt;bufr_mod -->
<g id="edge1" class="edge">
<title>obsOperators_mod&#45;&gt;bufr_mod</title>
<path fill="none" stroke="black" d="M395.26,-640.83C321.5,-633.72 193.1,-618.76 85.5,-593 84.02,-592.65 82.53,-592.27 81.02,-591.87"/>
<polygon fill="black" stroke="black" points="81.62,-588.4 71.04,-588.98 79.68,-595.12 81.62,-588.4"/>
</g>
<!-- codeprecision_mod -->
<g id="node3" class="node">
<title>codeprecision_mod</title>
<g id="a_node3"><a xlink:href="codeprecision_mod.html" xlink:title="codeprecision_mod">
<polygon fill="gray" stroke="black" points="135,-521 12,-521 12,-485 135,-485 135,-521"/>
<text text-anchor="middle" x="73.5" y="-499.3" font-family="Times,serif" font-size="14.00">codeprecision_mod</text>
</a>
</g>
</g>
<!-- obsOperators_mod&#45;&gt;codeprecision_mod -->
<g id="edge2" class="edge">
<title>obsOperators_mod&#45;&gt;codeprecision_mod</title>
<path fill="none" stroke="black" d="M395.29,-640.45C318.43,-632.54 190.49,-616.35 149.5,-593 123.2,-578.02 101.78,-550.34 88.46,-529.81"/>
<polygon fill="black" stroke="black" points="91.36,-527.85 83.09,-521.23 85.43,-531.57 91.36,-527.85"/>
</g>
<!-- columndata_mod -->
<g id="node4" class="node">
<title>columndata_mod</title>
<g id="a_node4"><a xlink:href="../modules/columndata_mod.svg" xlink:title="columndata_mod">
<polygon fill="none" stroke="red" points="173.5,-449 61.5,-449 61.5,-413 173.5,-413 173.5,-449"/>
<text text-anchor="middle" x="117.5" y="-427.3" font-family="Times,serif" font-size="14.00">columndata_mod</text>
</a>
</g>
</g>
<!-- obsOperators_mod&#45;&gt;columndata_mod -->
<g id="edge3" class="edge">
<title>obsOperators_mod&#45;&gt;columndata_mod</title>
<path fill="none" stroke="black" d="M395.31,-640.73C326.26,-633.56 218.56,-618.61 187.5,-593 147.51,-560.02 164.7,-532.29 143.5,-485 139.54,-476.17 134.96,-466.64 130.76,-458.13"/>
<polygon fill="black" stroke="black" points="133.83,-456.43 126.23,-449.04 127.56,-459.55 133.83,-456.43"/>
</g>
<!-- earthconstants_mod -->
<g id="node5" class="node">
<title>earthconstants_mod</title>
<g id="a_node5"><a xlink:href="../modules/earthconstants_mod.svg" xlink:title="earthconstants_mod">
<polygon fill="none" stroke="red" points="211.5,-377 85.5,-377 85.5,-341 211.5,-341 211.5,-377"/>
<text text-anchor="middle" x="148.5" y="-355.3" font-family="Times,serif" font-size="14.00">earthconstants_mod</text>
</a>
</g>
</g>
<!-- obsOperators_mod&#45;&gt;earthconstants_mod -->
<g id="edge4" class="edge">
<title>obsOperators_mod&#45;&gt;earthconstants_mod</title>
<path fill="none" stroke="black" d="M395.33,-639.34C335.44,-631.48 249.14,-616.45 225.5,-593 167.11,-535.07 214.71,-488.68 182.5,-413 178.5,-403.59 172.88,-393.99 167.36,-385.58"/>
<polygon fill="black" stroke="black" points="170.25,-383.6 161.72,-377.32 164.47,-387.55 170.25,-383.6"/>
</g>
<!-- gps_mod -->
<g id="node6" class="node">
<title>gps_mod</title>
<g id="a_node6"><a xlink:href="../modules/gps_mod.svg" xlink:title="gps_mod">
<polygon fill="none" stroke="red" points="249.5,-305 181.5,-305 181.5,-269 249.5,-269 249.5,-305"/>
<text text-anchor="middle" x="215.5" y="-283.3" font-family="Times,serif" font-size="14.00">gps_mod</text>
</a>
</g>
</g>
<!-- obsOperators_mod&#45;&gt;gps_mod -->
<g id="edge5" class="edge">
<title>obsOperators_mod&#45;&gt;gps_mod</title>
<path fill="none" stroke="black" d="M395.33,-644.5C353.02,-640.23 298,-627.7 263.5,-593 234.62,-563.95 239.5,-544.97 239.5,-504 239.5,-504 239.5,-504 239.5,-430 239.5,-389.65 229.96,-343.74 222.91,-315.32"/>
<polygon fill="black" stroke="black" points="226.23,-314.15 220.36,-305.33 219.44,-315.88 226.23,-314.15"/>
</g>
<!-- mathphysconstants_mod -->
<g id="node7" class="node">
<title>mathphysconstants_mod</title>
<g id="a_node7"><a xlink:href="mathphysconstants_mod.html" xlink:title="mathphysconstants_mod">
<polygon fill="gray" stroke="black" points="287.5,-233 135.5,-233 135.5,-197 287.5,-197 287.5,-233"/>
<text text-anchor="middle" x="211.5" y="-211.3" font-family="Times,serif" font-size="14.00">mathphysconstants_mod</text>
</a>
</g>
</g>
<!-- obsOperators_mod&#45;&gt;mathphysconstants_mod -->
<g id="edge6" class="edge">
<title>obsOperators_mod&#45;&gt;mathphysconstants_mod</title>
<path fill="none" stroke="black" d="M395.13,-638.94C363.21,-632.18 325.72,-618.93 301.5,-593 273.53,-563.06 277.5,-544.97 277.5,-504 277.5,-504 277.5,-504 277.5,-358 277.5,-317.55 276.74,-305.1 258.5,-269 253.32,-258.75 245.66,-248.92 238.03,-240.57"/>
<polygon fill="black" stroke="black" points="240.54,-238.14 231.09,-233.35 235.49,-242.99 240.54,-238.14"/>
</g>
<!-- midasmpi_mod -->
<g id="node8" class="node">
<title>midasmpi_mod</title>
<g id="a_node8"><a xlink:href="../modules/midasmpi_mod.svg" xlink:title="midasmpi_mod">
<polygon fill="none" stroke="red" points="325.5,-161 223.5,-161 223.5,-125 325.5,-125 325.5,-161"/>
<text text-anchor="middle" x="274.5" y="-139.3" font-family="Times,serif" font-size="14.00">midasmpi_mod</text>
</a>
</g>
</g>
<!-- obsOperators_mod&#45;&gt;midasmpi_mod -->
<g id="edge7" class="edge">
<title>obsOperators_mod&#45;&gt;midasmpi_mod</title>
<path fill="none" stroke="black" d="M395.32,-630.01C375.06,-621.91 353.95,-610.06 339.5,-593 313.02,-561.74 315.5,-544.97 315.5,-504 315.5,-504 315.5,-504 315.5,-286 315.5,-244.41 299.06,-198.56 287,-170.51"/>
<polygon fill="black" stroke="black" points="290.05,-168.75 282.8,-161.03 283.65,-171.59 290.05,-168.75"/>
</g>
<!-- obserrors_mod -->
<g id="node9" class="node">
<title>obserrors_mod</title>
<g id="a_node9"><a xlink:href="../modules/obserrors_mod.svg" xlink:title="obserrors_mod">
<polygon fill="none" stroke="red" points="403,-89 304,-89 304,-53 403,-53 403,-89"/>
<text text-anchor="middle" x="353.5" y="-67.3" font-family="Times,serif" font-size="14.00">obserrors_mod</text>
</a>
</g>
</g>
<!-- obsOperators_mod&#45;&gt;obserrors_mod -->
<g id="edge8" class="edge">
<title>obsOperators_mod&#45;&gt;obserrors_mod</title>
<path fill="none" stroke="black" d="M415.33,-628.79C399.74,-620.19 383.12,-608.31 372.5,-593 349.45,-559.76 353.5,-544.45 353.5,-504 353.5,-504 353.5,-504 353.5,-214 353.5,-174 353.5,-127.65 353.5,-99.08"/>
<polygon fill="black" stroke="black" points="357,-99.05 353.5,-89.05 350,-99.05 357,-99.05"/>
</g>
<!-- obsoperatorschem_mod -->
<g id="node10" class="node">
<title>obsoperatorschem_mod</title>
<g id="a_node10"><a xlink:href="../modules/obsoperatorschem_mod.svg" xlink:title="obsoperatorschem_mod">
<polygon fill="none" stroke="red" points="529,-593 382,-593 382,-557 529,-557 529,-593"/>
<text text-anchor="middle" x="455.5" y="-571.3" font-family="Times,serif" font-size="14.00">obsoperatorschem_mod</text>
</a>
</g>
</g>
<!-- obsOperators_mod&#45;&gt;obsoperatorschem_mod -->
<g id="edge9" class="edge">
<title>obsOperators_mod&#45;&gt;obsoperatorschem_mod</title>
<path fill="none" stroke="black" d="M455.5,-628.7C455.5,-620.98 455.5,-611.71 455.5,-603.11"/>
<polygon fill="black" stroke="black" points="459,-603.1 455.5,-593.1 452,-603.1 459,-603.1"/>
</g>
<!-- obsspacedata_mod -->
<g id="node11" class="node">
<title>obsspacedata_mod</title>
<g id="a_node11"><a xlink:href="../modules/obsspacedata_mod.svg" xlink:title="obsspacedata_mod">
<polygon fill="none" stroke="red" points="567,-521 448,-521 448,-485 567,-485 567,-521"/>
<text text-anchor="middle" x="507.5" y="-499.3" font-family="Times,serif" font-size="14.00">obsspacedata_mod</text>
</a>
</g>
</g>
<!-- obsOperators_mod&#45;&gt;obsspacedata_mod -->
<g id="edge10" class="edge">
<title>obsOperators_mod&#45;&gt;obsspacedata_mod</title>
<path fill="none" stroke="black" d="M498.12,-628.99C513.37,-620.58 528.91,-608.78 537.5,-593 548.49,-572.82 538.28,-547.88 526.89,-529.54"/>
<polygon fill="black" stroke="black" points="529.74,-527.51 521.29,-521.12 523.91,-531.39 529.74,-527.51"/>
</g>
<!-- physicsfunctions_mod -->
<g id="node12" class="node">
<title>physicsfunctions_mod</title>
<g id="a_node12"><a xlink:href="../modules/physicsfunctions_mod.svg" xlink:title="physicsfunctions_mod">
<polygon fill="none" stroke="red" points="605,-449 466,-449 466,-413 605,-413 605,-449"/>
<text text-anchor="middle" x="535.5" y="-427.3" font-family="Times,serif" font-size="14.00">physicsfunctions_mod</text>
</a>
</g>
</g>
<!-- obsOperators_mod&#45;&gt;physicsfunctions_mod -->
<g id="edge11" class="edge">
<title>obsOperators_mod&#45;&gt;physicsfunctions_mod</title>
<path fill="none" stroke="black" d="M504.99,-628.91C522.81,-620.56 541.67,-608.82 554.5,-593 585.31,-555.02 591.03,-531.37 575.5,-485 572.15,-475 566.08,-465.38 559.67,-457.14"/>
<polygon fill="black" stroke="black" points="562.32,-454.85 553.23,-449.4 556.94,-459.33 562.32,-454.85"/>
</g>
<!-- timecoord_mod -->
<g id="node13" class="node">
<title>timecoord_mod</title>
<g id="a_node13"><a xlink:href="../modules/timecoord_mod.svg" xlink:title="timecoord_mod">
<polygon fill="none" stroke="red" points="643.5,-377 539.5,-377 539.5,-341 643.5,-341 643.5,-377"/>
<text text-anchor="middle" x="591.5" y="-355.3" font-family="Times,serif" font-size="14.00">timecoord_mod</text>
</a>
</g>
</g>
<!-- obsOperators_mod&#45;&gt;timecoord_mod -->
<g id="edge12" class="edge">
<title>obsOperators_mod&#45;&gt;timecoord_mod</title>
<path fill="none" stroke="black" d="M515.81,-633.01C539.12,-625.11 564.07,-612.6 580.5,-593 632.74,-530.66 629.4,-492.76 613.5,-413 611.71,-404.01 608.36,-394.64 604.81,-386.32"/>
<polygon fill="black" stroke="black" points="607.96,-384.77 600.63,-377.12 601.58,-387.67 607.96,-384.77"/>
</g>
<!-- tovslin_mod -->
<g id="node14" class="node">
<title>tovslin_mod</title>
<g id="a_node14"><a xlink:href="../modules/tovslin_mod.svg" xlink:title="tovslin_mod">
<polygon fill="none" stroke="red" points="681,-305 596,-305 596,-269 681,-269 681,-305"/>
<text text-anchor="middle" x="638.5" y="-283.3" font-family="Times,serif" font-size="14.00">tovslin_mod</text>
</a>
</g>
</g>
<!-- obsOperators_mod&#45;&gt;tovslin_mod -->
<g id="edge13" class="edge">
<title>obsOperators_mod&#45;&gt;tovslin_mod</title>
<path fill="none" stroke="black" d="M515.67,-633.62C579.58,-616.54 671.5,-578.95 671.5,-504 671.5,-504 671.5,-504 671.5,-430 671.5,-388.97 658.27,-342.97 648.56,-314.74"/>
<polygon fill="black" stroke="black" points="651.82,-313.45 645.18,-305.19 645.22,-315.78 651.82,-313.45"/>
</g>
<!-- tovsnl_mod -->
<g id="node15" class="node">
<title>tovsnl_mod</title>
<g id="a_node15"><a xlink:href="../modules/tovsnl_mod.svg" xlink:title="tovsnl_mod">
<polygon fill="none" stroke="red" points="719,-233 638,-233 638,-197 719,-197 719,-233"/>
<text text-anchor="middle" x="678.5" y="-211.3" font-family="Times,serif" font-size="14.00">tovsnl_mod</text>
</a>
</g>
</g>
<!-- obsOperators_mod&#45;&gt;tovsnl_mod -->
<g id="edge14" class="edge">
<title>obsOperators_mod&#45;&gt;tovsnl_mod</title>
<path fill="none" stroke="black" d="M515.69,-638.9C590.81,-626.3 709.5,-592.41 709.5,-504 709.5,-504 709.5,-504 709.5,-358 709.5,-317.1 697.07,-271.06 687.95,-242.79"/>
<polygon fill="black" stroke="black" points="691.25,-241.61 684.77,-233.22 684.61,-243.82 691.25,-241.61"/>
</g>
<!-- utilities_mod -->
<g id="node16" class="node">
<title>utilities_mod</title>
<g id="a_node16"><a xlink:href="../modules/utilities_mod.svg" xlink:title="utilities_mod">
<polygon fill="none" stroke="red" points="774,-161 685,-161 685,-125 774,-125 774,-161"/>
<text text-anchor="middle" x="729.5" y="-139.3" font-family="Times,serif" font-size="14.00">utilities_mod</text>
</a>
</g>
</g>
<!-- obsOperators_mod&#45;&gt;utilities_mod -->
<g id="edge15" class="edge">
<title>obsOperators_mod&#45;&gt;utilities_mod</title>
<path fill="none" stroke="black" d="M515.65,-642.88C601.13,-634.85 747.5,-606.17 747.5,-504 747.5,-504 747.5,-504 747.5,-286 747.5,-245.9 740.35,-199.92 735.06,-171.42"/>
<polygon fill="black" stroke="black" points="738.46,-170.56 733.14,-161.4 731.58,-171.88 738.46,-170.56"/>
</g>
<!-- varnamelist_mod -->
<g id="node17" class="node">
<title>varnamelist_mod</title>
<g id="a_node17"><a xlink:href="../modules/varnamelist_mod.svg" xlink:title="varnamelist_mod">
<polygon fill="none" stroke="red" points="859,-89 746,-89 746,-53 859,-53 859,-89"/>
<text text-anchor="middle" x="802.5" y="-67.3" font-family="Times,serif" font-size="14.00">varnamelist_mod</text>
</a>
</g>
</g>
<!-- obsOperators_mod&#45;&gt;varnamelist_mod -->
<g id="edge16" class="edge">
<title>obsOperators_mod&#45;&gt;varnamelist_mod</title>
<path fill="none" stroke="black" d="M515.75,-645.58C573.72,-642.69 661.97,-631.53 727.5,-593 772.09,-566.78 802.5,-555.73 802.5,-504 802.5,-504 802.5,-504 802.5,-214 802.5,-174 802.5,-127.65 802.5,-99.08"/>
<polygon fill="black" stroke="black" points="806,-99.05 802.5,-89.05 799,-99.05 806,-99.05"/>
</g>
<!-- verticalcoord_mod -->
<g id="node18" class="node">
<title>verticalcoord_mod</title>
<g id="a_node18"><a xlink:href="../modules/verticalcoord_mod.svg" xlink:title="verticalcoord_mod">
<polygon fill="none" stroke="red" points="950.5,-593 830.5,-593 830.5,-557 950.5,-557 950.5,-593"/>
<text text-anchor="middle" x="890.5" y="-571.3" font-family="Times,serif" font-size="14.00">verticalcoord_mod</text>
</a>
</g>
</g>
<!-- obsOperators_mod&#45;&gt;verticalcoord_mod -->
<g id="edge17" class="edge">
<title>obsOperators_mod&#45;&gt;verticalcoord_mod</title>
<path fill="none" stroke="black" d="M515.79,-638.65C587.66,-629.54 711.29,-612.78 816.5,-593 817.78,-592.76 819.06,-592.51 820.36,-592.26"/>
<polygon fill="black" stroke="black" points="821.3,-595.64 830.41,-590.23 819.91,-588.78 821.3,-595.64"/>
</g>
</g>
</svg>
