<?xml version="1.0" encoding="UTF-8" standalone="no"?>
<!DOCTYPE svg PUBLIC "-//W3C//DTD SVG 1.1//EN"
 "http://www.w3.org/Graphics/SVG/1.1/DTD/svg11.dtd">
<!-- Generated by graphviz version 3.0.0 (20220315.2325)
 -->
<!-- Title: obsSpaceDiag_mod Pages: 1 -->
<svg width="1475pt" height="673pt"
 viewBox="0.00 0.00 1474.50 673.00" xmlns="http://www.w3.org/2000/svg" xmlns:xlink="http://www.w3.org/1999/xlink">
<g id="graph0" class="graph" transform="scale(1 1) rotate(0) translate(4 669)">
<title>obsSpaceDiag_mod</title>
<polygon fill="white" stroke="transparent" points="-4,4 -4,-669 1470.5,-669 1470.5,4 -4,4"/>
<text text-anchor="middle" x="733.25" y="-37.8" font-family="Times,serif" font-size="14.00">Red boxes indicate modules with dependencies not shown</text>
<text text-anchor="middle" x="733.25" y="-22.8" font-family="Times,serif" font-size="14.00">Lower level dependencies can be shown by clicking on a red box</text>
<text text-anchor="middle" x="733.25" y="-7.8" font-family="Times,serif" font-size="14.00">Shaded boxes indicate modules with no dependencies</text>
<!-- obsSpaceDiag_mod -->
<g id="node1" class="node">
<title>obsSpaceDiag_mod</title>
<g id="a_node1"><a xlink:href="obsSpaceDiag_mod.html" xlink:title="obsSpaceDiag_mod">
<polygon fill="none" stroke="black" points="802,-665 677,-665 677,-629 802,-629 802,-665"/>
<text text-anchor="middle" x="739.5" y="-643.3" font-family="Times,serif" font-size="14.00">obsSpaceDiag_mod</text>
</a>
</g>
</g>
<!-- bcovarsetupchem_mod -->
<g id="node2" class="node">
<title>bcovarsetupchem_mod</title>
<g id="a_node2"><a xlink:href="../modules/bcovarsetupchem_mod.svg" xlink:title="bcovarsetupchem_mod">
<polygon fill="none" stroke="red" points="143,-593 0,-593 0,-557 143,-557 143,-593"/>
<text text-anchor="middle" x="71.5" y="-571.3" font-family="Times,serif" font-size="14.00">bcovarsetupchem_mod</text>
</a>
</g>
</g>
<!-- obsSpaceDiag_mod&#45;&gt;bcovarsetupchem_mod -->
<g id="edge1" class="edge">
<title>obsSpaceDiag_mod&#45;&gt;bcovarsetupchem_mod</title>
<path fill="none" stroke="black" d="M676.81,-642.44C569.88,-635.9 345.54,-620.07 157.5,-593 156.04,-592.79 154.57,-592.57 153.09,-592.35"/>
<polygon fill="black" stroke="black" points="153.63,-588.89 143.2,-590.75 152.52,-595.8 153.63,-588.89"/>
</g>
<!-- bmatrixensemble_mod -->
<g id="node3" class="node">
<title>bmatrixensemble_mod</title>
<g id="a_node3"><a xlink:href="../modules/bmatrixensemble_mod.svg" xlink:title="bmatrixensemble_mod">
<polygon fill="none" stroke="red" points="212,-521 69,-521 69,-485 212,-485 212,-521"/>
<text text-anchor="middle" x="140.5" y="-499.3" font-family="Times,serif" font-size="14.00">bmatrixensemble_mod</text>
</a>
</g>
</g>
<!-- obsSpaceDiag_mod&#45;&gt;bmatrixensemble_mod -->
<g id="edge2" class="edge">
<title>obsSpaceDiag_mod&#45;&gt;bmatrixensemble_mod</title>
<path fill="none" stroke="black" d="M676.63,-644.84C557.63,-641.78 304.4,-630.89 226.5,-593 197.29,-578.79 172.59,-550.33 157.26,-529.4"/>
<polygon fill="black" stroke="black" points="160.11,-527.37 151.47,-521.24 154.4,-531.42 160.11,-527.37"/>
</g>
<!-- bmatrixhi_mod -->
<g id="node4" class="node">
<title>bmatrixhi_mod</title>
<g id="a_node4"><a xlink:href="../modules/bmatrixhi_mod.svg" xlink:title="bmatrixhi_mod">
<polygon fill="none" stroke="red" points="250.5,-449 148.5,-449 148.5,-413 250.5,-413 250.5,-449"/>
<text text-anchor="middle" x="199.5" y="-427.3" font-family="Times,serif" font-size="14.00">bmatrixhi_mod</text>
</a>
</g>
</g>
<!-- obsSpaceDiag_mod&#45;&gt;bmatrixhi_mod -->
<g id="edge3" class="edge">
<title>obsSpaceDiag_mod&#45;&gt;bmatrixhi_mod</title>
<path fill="none" stroke="black" d="M676.73,-646.75C562.8,-646.87 327.88,-641.09 264.5,-593 263.08,-591.92 228.09,-504.08 210.05,-458.62"/>
<polygon fill="black" stroke="black" points="213.21,-457.09 206.27,-449.09 206.7,-459.67 213.21,-457.09"/>
</g>
<!-- bmatrix_mod -->
<g id="node5" class="node">
<title>bmatrix_mod</title>
<g id="a_node5"><a xlink:href="../modules/bmatrix_mod.svg" xlink:title="bmatrix_mod">
<polygon fill="none" stroke="red" points="288.5,-377 196.5,-377 196.5,-341 288.5,-341 288.5,-377"/>
<text text-anchor="middle" x="242.5" y="-355.3" font-family="Times,serif" font-size="14.00">bmatrix_mod</text>
</a>
</g>
</g>
<!-- obsSpaceDiag_mod&#45;&gt;bmatrix_mod -->
<g id="edge4" class="edge">
<title>obsSpaceDiag_mod&#45;&gt;bmatrix_mod</title>
<path fill="none" stroke="black" d="M676.87,-646.89C569.46,-647.07 356.46,-641.14 302.5,-593 241.13,-538.24 281.63,-492.22 259.5,-413 257.1,-404.4 254.21,-395.1 251.51,-386.73"/>
<polygon fill="black" stroke="black" points="254.79,-385.5 248.34,-377.09 248.14,-387.68 254.79,-385.5"/>
</g>
<!-- bufr_mod -->
<g id="node6" class="node">
<title>bufr_mod</title>
<g id="a_node6"><a xlink:href="bufr_mod.html" xlink:title="bufr_mod">
<polygon fill="gray" stroke="black" points="326,-305 255,-305 255,-269 326,-269 326,-305"/>
<text text-anchor="middle" x="290.5" y="-283.3" font-family="Times,serif" font-size="14.00">bufr_mod</text>
</a>
</g>
</g>
<!-- obsSpaceDiag_mod&#45;&gt;bufr_mod -->
<g id="edge5" class="edge">
<title>obsSpaceDiag_mod&#45;&gt;bufr_mod</title>
<path fill="none" stroke="black" d="M676.88,-645.88C577.35,-644.38 389.3,-635.78 340.5,-593 309.69,-565.99 316.5,-544.97 316.5,-504 316.5,-504 316.5,-504 316.5,-430 316.5,-389.55 306.17,-343.67 298.53,-315.28"/>
<polygon fill="black" stroke="black" points="301.81,-314 295.76,-305.3 295.06,-315.87 301.81,-314"/>
</g>
<!-- codeprecision_mod -->
<g id="node7" class="node">
<title>codeprecision_mod</title>
<g id="a_node7"><a xlink:href="codeprecision_mod.html" xlink:title="codeprecision_mod">
<polygon fill="gray" stroke="black" points="364,-233 241,-233 241,-197 364,-197 364,-233"/>
<text text-anchor="middle" x="302.5" y="-211.3" font-family="Times,serif" font-size="14.00">codeprecision_mod</text>
</a>
</g>
</g>
<!-- obsSpaceDiag_mod&#45;&gt;codeprecision_mod -->
<g id="edge6" class="edge">
<title>obsSpaceDiag_mod&#45;&gt;codeprecision_mod</title>
<path fill="none" stroke="black" d="M676.87,-644.86C585.42,-641.9 421.53,-631.24 378.5,-593 347.88,-565.78 354.5,-544.97 354.5,-504 354.5,-504 354.5,-504 354.5,-358 354.5,-317.46 349.62,-306.62 334.5,-269 330.79,-259.77 325.58,-250.29 320.44,-241.94"/>
<polygon fill="black" stroke="black" points="323.31,-239.93 314.97,-233.4 317.42,-243.71 323.31,-239.93"/>
</g>
<!-- codtyp_mod -->
<g id="node8" class="node">
<title>codtyp_mod</title>
<g id="a_node8"><a xlink:href="../modules/codtyp_mod.svg" xlink:title="codtyp_mod">
<polygon fill="none" stroke="red" points="402,-161 317,-161 317,-125 402,-125 402,-161"/>
<text text-anchor="middle" x="359.5" y="-139.3" font-family="Times,serif" font-size="14.00">codtyp_mod</text>
</a>
</g>
</g>
<!-- obsSpaceDiag_mod&#45;&gt;codtyp_mod -->
<g id="edge7" class="edge">
<title>obsSpaceDiag_mod&#45;&gt;codtyp_mod</title>
<path fill="none" stroke="black" d="M676.86,-643.61C593.93,-639.15 453.81,-626.73 416.5,-593 386.11,-565.53 392.5,-544.97 392.5,-504 392.5,-504 392.5,-504 392.5,-286 392.5,-244.97 379.27,-198.97 369.56,-170.74"/>
<polygon fill="black" stroke="black" points="372.82,-169.45 366.18,-161.19 366.22,-171.78 372.82,-169.45"/>
</g>
<!-- columndata_mod -->
<g id="node9" class="node">
<title>columndata_mod</title>
<g id="a_node9"><a xlink:href="../modules/columndata_mod.svg" xlink:title="columndata_mod">
<polygon fill="none" stroke="red" points="486.5,-89 374.5,-89 374.5,-53 486.5,-53 486.5,-89"/>
<text text-anchor="middle" x="430.5" y="-67.3" font-family="Times,serif" font-size="14.00">columndata_mod</text>
</a>
</g>
</g>
<!-- obsSpaceDiag_mod&#45;&gt;columndata_mod -->
<g id="edge8" class="edge">
<title>obsSpaceDiag_mod&#45;&gt;columndata_mod</title>
<path fill="none" stroke="black" d="M676.85,-642.55C601.48,-637.08 481.13,-623.7 449.5,-593 420.48,-564.83 430.5,-544.45 430.5,-504 430.5,-504 430.5,-504 430.5,-214 430.5,-174 430.5,-127.65 430.5,-99.08"/>
<polygon fill="black" stroke="black" points="434,-99.05 430.5,-89.05 427,-99.05 434,-99.05"/>
</g>
<!-- controlvector_mod -->
<g id="node10" class="node">
<title>controlvector_mod</title>
<g id="a_node10"><a xlink:href="../modules/controlvector_mod.svg" xlink:title="controlvector_mod">
<polygon fill="none" stroke="red" points="578.5,-593 458.5,-593 458.5,-557 578.5,-557 578.5,-593"/>
<text text-anchor="middle" x="518.5" y="-571.3" font-family="Times,serif" font-size="14.00">controlvector_mod</text>
</a>
</g>
</g>
<!-- obsSpaceDiag_mod&#45;&gt;controlvector_mod -->
<g id="edge9" class="edge">
<title>obsSpaceDiag_mod&#45;&gt;controlvector_mod</title>
<path fill="none" stroke="black" d="M685.72,-628.97C654.57,-619.1 615.18,-606.62 582.45,-596.25"/>
<polygon fill="black" stroke="black" points="583.11,-592.79 572.52,-593.11 581,-599.47 583.11,-592.79"/>
</g>
<!-- gridstatevector_mod -->
<g id="node11" class="node">
<title>gridstatevector_mod</title>
<g id="a_node11"><a xlink:href="../modules/gridstatevector_mod.svg" xlink:title="gridstatevector_mod">
<polygon fill="none" stroke="red" points="616.5,-521 486.5,-521 486.5,-485 616.5,-485 616.5,-521"/>
<text text-anchor="middle" x="551.5" y="-499.3" font-family="Times,serif" font-size="14.00">gridstatevector_mod</text>
</a>
</g>
</g>
<!-- obsSpaceDiag_mod&#45;&gt;gridstatevector_mod -->
<g id="edge10" class="edge">
<title>obsSpaceDiag_mod&#45;&gt;gridstatevector_mod</title>
<path fill="none" stroke="black" d="M694.54,-628.9C673.95,-619.91 649.87,-607.68 630.5,-593 606.55,-574.84 584.31,-548.58 569.57,-529.29"/>
<polygon fill="black" stroke="black" points="572.33,-527.14 563.54,-521.23 566.73,-531.34 572.33,-527.14"/>
</g>
<!-- horizontalcoord_mod -->
<g id="node12" class="node">
<title>horizontalcoord_mod</title>
<g id="a_node12"><a xlink:href="../modules/horizontalcoord_mod.svg" xlink:title="horizontalcoord_mod">
<polygon fill="none" stroke="red" points="654.5,-449 520.5,-449 520.5,-413 654.5,-413 654.5,-449"/>
<text text-anchor="middle" x="587.5" y="-427.3" font-family="Times,serif" font-size="14.00">horizontalcoord_mod</text>
</a>
</g>
</g>
<!-- obsSpaceDiag_mod&#45;&gt;horizontalcoord_mod -->
<g id="edge11" class="edge">
<title>obsSpaceDiag_mod&#45;&gt;horizontalcoord_mod</title>
<path fill="none" stroke="black" d="M709.48,-628.96C695.49,-619.79 679.55,-607.4 668.5,-593 637.06,-552 650.29,-530.33 625.5,-485 620.37,-475.61 613.84,-465.93 607.66,-457.46"/>
<polygon fill="black" stroke="black" points="610.45,-455.34 601.65,-449.44 604.85,-459.54 610.45,-455.34"/>
</g>
<!-- mathphysconstants_mod -->
<g id="node13" class="node">
<title>mathphysconstants_mod</title>
<g id="a_node13"><a xlink:href="mathphysconstants_mod.html" xlink:title="mathphysconstants_mod">
<polygon fill="gray" stroke="black" points="692.5,-377 540.5,-377 540.5,-341 692.5,-341 692.5,-377"/>
<text text-anchor="middle" x="616.5" y="-355.3" font-family="Times,serif" font-size="14.00">mathphysconstants_mod</text>
</a>
</g>
</g>
<!-- obsSpaceDiag_mod&#45;&gt;mathphysconstants_mod -->
<g id="edge12" class="edge">
<title>obsSpaceDiag_mod&#45;&gt;mathphysconstants_mod</title>
<path fill="none" stroke="black" d="M726.69,-628.63C719.84,-618.64 711.76,-605.6 706.5,-593 674.8,-517.1 701.48,-485.96 663.5,-413 658.2,-402.81 650.5,-393 642.88,-384.65"/>
<polygon fill="black" stroke="black" points="645.4,-382.23 635.96,-377.42 640.34,-387.07 645.4,-382.23"/>
</g>
<!-- midasmpi_mod -->
<g id="node14" class="node">
<title>midasmpi_mod</title>
<g id="a_node14"><a xlink:href="../modules/midasmpi_mod.svg" xlink:title="midasmpi_mod">
<polygon fill="none" stroke="red" points="730.5,-305 628.5,-305 628.5,-269 730.5,-269 730.5,-305"/>
<text text-anchor="middle" x="679.5" y="-283.3" font-family="Times,serif" font-size="14.00">midasmpi_mod</text>
</a>
</g>
</g>
<!-- obsSpaceDiag_mod&#45;&gt;midasmpi_mod -->
<g id="edge13" class="edge">
<title>obsSpaceDiag_mod&#45;&gt;midasmpi_mod</title>
<path fill="none" stroke="black" d="M735.66,-628.61C730.1,-601.94 720.5,-549.27 720.5,-504 720.5,-504 720.5,-504 720.5,-430 720.5,-388.41 704.06,-342.56 692,-314.51"/>
<polygon fill="black" stroke="black" points="695.05,-312.75 687.8,-305.03 688.65,-315.59 695.05,-312.75"/>
</g>
<!-- obsfamilylist_mod -->
<g id="node15" class="node">
<title>obsfamilylist_mod</title>
<g id="a_node15"><a xlink:href="obsfamilylist_mod.html" xlink:title="obsfamilylist_mod">
<polygon fill="gray" stroke="black" points="768,-233 649,-233 649,-197 768,-197 768,-233"/>
<text text-anchor="middle" x="708.5" y="-211.3" font-family="Times,serif" font-size="14.00">obsfamilylist_mod</text>
</a>
</g>
</g>
<!-- obsSpaceDiag_mod&#45;&gt;obsfamilylist_mod -->
<g id="edge14" class="edge">
<title>obsSpaceDiag_mod&#45;&gt;obsfamilylist_mod</title>
<path fill="none" stroke="black" d="M743.34,-628.61C748.9,-601.94 758.5,-549.27 758.5,-504 758.5,-504 758.5,-504 758.5,-358 758.5,-317.55 754.12,-306.71 739.5,-269 735.94,-259.8 730.9,-250.33 725.92,-241.98"/>
<polygon fill="black" stroke="black" points="728.86,-240.08 720.61,-233.43 722.91,-243.77 728.86,-240.08"/>
</g>
<!-- obsfiles_mod -->
<g id="node16" class="node">
<title>obsfiles_mod</title>
<g id="a_node16"><a xlink:href="../modules/obsfiles_mod.svg" xlink:title="obsfiles_mod">
<polygon fill="none" stroke="red" points="806,-161 717,-161 717,-125 806,-125 806,-161"/>
<text text-anchor="middle" x="761.5" y="-139.3" font-family="Times,serif" font-size="14.00">obsfiles_mod</text>
</a>
</g>
</g>
<!-- obsSpaceDiag_mod&#45;&gt;obsfiles_mod -->
<g id="edge15" class="edge">
<title>obsSpaceDiag_mod&#45;&gt;obsfiles_mod</title>
<path fill="none" stroke="black" d="M751.31,-628.96C768.01,-603.16 796.5,-552.08 796.5,-504 796.5,-504 796.5,-504 796.5,-286 796.5,-244.84 782.47,-198.88 772.17,-170.69"/>
<polygon fill="black" stroke="black" points="775.38,-169.28 768.58,-161.15 768.83,-171.74 775.38,-169.28"/>
</g>
<!-- obsoperatorschem_mod -->
<g id="node17" class="node">
<title>obsoperatorschem_mod</title>
<g id="a_node17"><a xlink:href="../modules/obsoperatorschem_mod.svg" xlink:title="obsoperatorschem_mod">
<polygon fill="none" stroke="red" points="908,-89 761,-89 761,-53 908,-53 908,-89"/>
<text text-anchor="middle" x="834.5" y="-67.3" font-family="Times,serif" font-size="14.00">obsoperatorschem_mod</text>
</a>
</g>
</g>
<!-- obsSpaceDiag_mod&#45;&gt;obsoperatorschem_mod -->
<g id="edge16" class="edge">
<title>obsSpaceDiag_mod&#45;&gt;obsoperatorschem_mod</title>
<path fill="none" stroke="black" d="M761.06,-628.78C789.09,-604.28 834.5,-556.5 834.5,-504 834.5,-504 834.5,-504 834.5,-214 834.5,-174 834.5,-127.65 834.5,-99.08"/>
<polygon fill="black" stroke="black" points="838,-99.05 834.5,-89.05 831,-99.05 838,-99.05"/>
</g>
<!-- obsoperators_mod -->
<g id="node18" class="node">
<title>obsoperators_mod</title>
<g id="a_node18"><a xlink:href="../modules/obsoperators_mod.svg" xlink:title="obsoperators_mod">
<polygon fill="none" stroke="red" points="980,-593 863,-593 863,-557 980,-557 980,-593"/>
<text text-anchor="middle" x="921.5" y="-571.3" font-family="Times,serif" font-size="14.00">obsoperators_mod</text>
</a>
</g>
</g>
<!-- obsSpaceDiag_mod&#45;&gt;obsoperators_mod -->
<g id="edge17" class="edge">
<title>obsSpaceDiag_mod&#45;&gt;obsoperators_mod</title>
<path fill="none" stroke="black" d="M784.02,-628.88C809.23,-619.18 840.95,-606.98 867.57,-596.74"/>
<polygon fill="black" stroke="black" points="869.05,-599.92 877.12,-593.07 866.53,-593.39 869.05,-599.92"/>
</g>
<!-- obsspacedata_mod -->
<g id="node19" class="node">
<title>obsspacedata_mod</title>
<g id="a_node19"><a xlink:href="../modules/obsspacedata_mod.svg" xlink:title="obsspacedata_mod">
<polygon fill="none" stroke="red" points="1018,-521 899,-521 899,-485 1018,-485 1018,-521"/>
<text text-anchor="middle" x="958.5" y="-499.3" font-family="Times,serif" font-size="14.00">obsspacedata_mod</text>
</a>
</g>
</g>
<!-- obsSpaceDiag_mod&#45;&gt;obsspacedata_mod -->
<g id="edge18" class="edge">
<title>obsSpaceDiag_mod&#45;&gt;obsspacedata_mod</title>
<path fill="none" stroke="black" d="M802.23,-641.47C868.16,-635.25 965.49,-621.43 988.5,-593 1003.36,-574.65 991.8,-548.58 978.97,-529.39"/>
<polygon fill="black" stroke="black" points="981.72,-527.23 973.07,-521.12 976.02,-531.29 981.72,-527.23"/>
</g>
<!-- obssubspacedata_mod -->
<g id="node20" class="node">
<title>obssubspacedata_mod</title>
<g id="a_node20"><a xlink:href="../modules/obssubspacedata_mod.svg" xlink:title="obssubspacedata_mod">
<polygon fill="none" stroke="red" points="1056.5,-449 918.5,-449 918.5,-413 1056.5,-413 1056.5,-449"/>
<text text-anchor="middle" x="987.5" y="-427.3" font-family="Times,serif" font-size="14.00">obssubspacedata_mod</text>
</a>
</g>
</g>
<!-- obsSpaceDiag_mod&#45;&gt;obssubspacedata_mod -->
<g id="edge19" class="edge">
<title>obsSpaceDiag_mod&#45;&gt;obssubspacedata_mod</title>
<path fill="none" stroke="black" d="M802.08,-641.02C871.39,-634.26 977.22,-619.81 1006.5,-593 1042.56,-559.97 1043.03,-531.37 1027.5,-485 1024.15,-475 1018.08,-465.38 1011.67,-457.14"/>
<polygon fill="black" stroke="black" points="1014.32,-454.85 1005.23,-449.4 1008.94,-459.33 1014.32,-454.85"/>
</g>
<!-- physicsfunctions_mod -->
<g id="node21" class="node">
<title>physicsfunctions_mod</title>
<g id="a_node21"><a xlink:href="../modules/physicsfunctions_mod.svg" xlink:title="physicsfunctions_mod">
<polygon fill="none" stroke="red" points="1094,-377 955,-377 955,-341 1094,-341 1094,-377"/>
<text text-anchor="middle" x="1024.5" y="-355.3" font-family="Times,serif" font-size="14.00">physicsfunctions_mod</text>
</a>
</g>
</g>
<!-- obsSpaceDiag_mod&#45;&gt;physicsfunctions_mod -->
<g id="edge20" class="edge">
<title>obsSpaceDiag_mod&#45;&gt;physicsfunctions_mod</title>
<path fill="none" stroke="black" d="M802.3,-642.68C878.61,-637.32 1001.19,-624.03 1033.5,-593 1092.1,-536.71 1091.77,-489.89 1065.5,-413 1062.06,-402.93 1055.84,-393.28 1049.27,-385.05"/>
<polygon fill="black" stroke="black" points="1051.82,-382.65 1042.67,-377.32 1046.5,-387.2 1051.82,-382.65"/>
</g>
<!-- randomnumber_mod -->
<g id="node22" class="node">
<title>randomnumber_mod</title>
<g id="a_node22"><a xlink:href="randomnumber_mod.html" xlink:title="randomnumber_mod">
<polygon fill="gray" stroke="black" points="1132.5,-305 1000.5,-305 1000.5,-269 1132.5,-269 1132.5,-305"/>
<text text-anchor="middle" x="1066.5" y="-283.3" font-family="Times,serif" font-size="14.00">randomnumber_mod</text>
</a>
</g>
</g>
<!-- obsSpaceDiag_mod&#45;&gt;randomnumber_mod -->
<g id="edge21" class="edge">
<title>obsSpaceDiag_mod&#45;&gt;randomnumber_mod</title>
<path fill="none" stroke="black" d="M802.2,-641.52C883.4,-634.73 1019.49,-619.72 1061.5,-593 1101.96,-567.26 1122.5,-551.95 1122.5,-504 1122.5,-504 1122.5,-504 1122.5,-430 1122.5,-389.55 1119.62,-378.1 1103.5,-341 1099.32,-331.38 1093.25,-321.71 1087.24,-313.32"/>
<polygon fill="black" stroke="black" points="1089.87,-310.99 1081.07,-305.09 1084.27,-315.19 1089.87,-310.99"/>
</g>
<!-- statetocolumn_mod -->
<g id="node23" class="node">
<title>statetocolumn_mod</title>
<g id="a_node23"><a xlink:href="../modules/statetocolumn_mod.svg" xlink:title="statetocolumn_mod">
<polygon fill="none" stroke="red" points="1170,-233 1045,-233 1045,-197 1170,-197 1170,-233"/>
<text text-anchor="middle" x="1107.5" y="-211.3" font-family="Times,serif" font-size="14.00">statetocolumn_mod</text>
</a>
</g>
</g>
<!-- obsSpaceDiag_mod&#45;&gt;statetocolumn_mod -->
<g id="edge22" class="edge">
<title>obsSpaceDiag_mod&#45;&gt;statetocolumn_mod</title>
<path fill="none" stroke="black" d="M802.31,-642.61C891.47,-636.82 1049.25,-622.64 1097.5,-593 1138.79,-567.63 1160.5,-552.46 1160.5,-504 1160.5,-504 1160.5,-504 1160.5,-358 1160.5,-317.55 1156.89,-306.4 1141.5,-269 1137.61,-259.55 1132.02,-249.93 1126.5,-241.52"/>
<polygon fill="black" stroke="black" points="1129.38,-239.54 1120.84,-233.27 1123.61,-243.49 1129.38,-239.54"/>
</g>
<!-- timecoord_mod -->
<g id="node24" class="node">
<title>timecoord_mod</title>
<g id="a_node24"><a xlink:href="../modules/timecoord_mod.svg" xlink:title="timecoord_mod">
<polygon fill="none" stroke="red" points="1208.5,-161 1104.5,-161 1104.5,-125 1208.5,-125 1208.5,-161"/>
<text text-anchor="middle" x="1156.5" y="-139.3" font-family="Times,serif" font-size="14.00">timecoord_mod</text>
</a>
</g>
</g>
<!-- obsSpaceDiag_mod&#45;&gt;timecoord_mod -->
<g id="edge23" class="edge">
<title>obsSpaceDiag_mod&#45;&gt;timecoord_mod</title>
<path fill="none" stroke="black" d="M802.31,-643.57C899.25,-638.84 1079.84,-625.79 1134.5,-593 1176.28,-567.94 1198.5,-552.72 1198.5,-504 1198.5,-504 1198.5,-504 1198.5,-286 1198.5,-244.15 1181.51,-198.1 1169.15,-170.11"/>
<polygon fill="black" stroke="black" points="1172.33,-168.66 1165,-161.01 1165.96,-171.56 1172.33,-168.66"/>
</g>
<!-- utilities_mod -->
<g id="node25" class="node">
<title>utilities_mod</title>
<g id="a_node25"><a xlink:href="../modules/utilities_mod.svg" xlink:title="utilities_mod">
<polygon fill="none" stroke="red" points="1281,-89 1192,-89 1192,-53 1281,-53 1281,-89"/>
<text text-anchor="middle" x="1236.5" y="-67.3" font-family="Times,serif" font-size="14.00">utilities_mod</text>
</a>
</g>
</g>
<!-- obsSpaceDiag_mod&#45;&gt;utilities_mod -->
<g id="edge24" class="edge">
<title>obsSpaceDiag_mod&#45;&gt;utilities_mod</title>
<path fill="none" stroke="black" d="M802.2,-644.37C906.53,-640.66 1110.33,-628.92 1171.5,-593 1213.74,-568.19 1236.5,-552.98 1236.5,-504 1236.5,-504 1236.5,-504 1236.5,-214 1236.5,-174 1236.5,-127.65 1236.5,-99.08"/>
<polygon fill="black" stroke="black" points="1240,-99.05 1236.5,-89.05 1233,-99.05 1240,-99.05"/>
</g>
<!-- varnamelist_mod -->
<g id="node26" class="node">
<title>varnamelist_mod</title>
<g id="a_node26"><a xlink:href="../modules/varnamelist_mod.svg" xlink:title="varnamelist_mod">
<polygon fill="none" stroke="red" points="1378,-593 1265,-593 1265,-557 1378,-557 1378,-593"/>
<text text-anchor="middle" x="1321.5" y="-571.3" font-family="Times,serif" font-size="14.00">varnamelist_mod</text>
</a>
</g>
</g>
<!-- obsSpaceDiag_mod&#45;&gt;varnamelist_mod -->
<g id="edge25" class="edge">
<title>obsSpaceDiag_mod&#45;&gt;varnamelist_mod</title>
<path fill="none" stroke="black" d="M802,-642.18C898.67,-635.67 1090.05,-620.41 1250.5,-593 1251.8,-592.78 1253.11,-592.55 1254.43,-592.3"/>
<polygon fill="black" stroke="black" points="1255.53,-595.66 1264.67,-590.3 1254.18,-588.79 1255.53,-595.66"/>
</g>
<!-- verticalcoord_mod -->
<g id="node27" class="node">
<title>verticalcoord_mod</title>
<g id="a_node27"><a xlink:href="../modules/verticalcoord_mod.svg" xlink:title="verticalcoord_mod">
<polygon fill="none" stroke="red" points="1466.5,-521 1346.5,-521 1346.5,-485 1466.5,-485 1466.5,-521"/>
<text text-anchor="middle" x="1406.5" y="-499.3" font-family="Times,serif" font-size="14.00">verticalcoord_mod</text>
</a>
</g>
</g>
<!-- obsSpaceDiag_mod&#45;&gt;verticalcoord_mod -->
<g id="edge26" class="edge">
<title>obsSpaceDiag_mod&#45;&gt;verticalcoord_mod</title>
<path fill="none" stroke="black" d="M802.08,-645.06C956.08,-642.16 1344.13,-631.12 1387.5,-593 1404.7,-577.88 1408.52,-551.35 1408.59,-531.18"/>
<polygon fill="black" stroke="black" points="1412.08,-530.92 1408.32,-521.02 1405.08,-531.11 1412.08,-530.92"/>
</g>
</g>
</svg>
