<?xml version="1.0" encoding="UTF-8" standalone="no"?>
<!DOCTYPE svg PUBLIC "-//W3C//DTD SVG 1.1//EN"
 "http://www.w3.org/Graphics/SVG/1.1/DTD/svg11.dtd">
<!-- Generated by graphviz version 3.0.0 (20220315.2325)
 -->
<!-- Title: obsSpaceErrorStdDev_mod Pages: 1 -->
<svg width="1305pt" height="673pt"
 viewBox="0.00 0.00 1304.50 673.00" xmlns="http://www.w3.org/2000/svg" xmlns:xlink="http://www.w3.org/1999/xlink">
<g id="graph0" class="graph" transform="scale(1 1) rotate(0) translate(4 669)">
<title>obsSpaceErrorStdDev_mod</title>
<polygon fill="white" stroke="transparent" points="-4,4 -4,-669 1300.5,-669 1300.5,4 -4,4"/>
<text text-anchor="middle" x="648.25" y="-37.8" font-family="Times,serif" font-size="14.00">Red boxes indicate modules with dependencies not shown</text>
<text text-anchor="middle" x="648.25" y="-22.8" font-family="Times,serif" font-size="14.00">Lower level dependencies can be shown by clicking on a red box</text>
<text text-anchor="middle" x="648.25" y="-7.8" font-family="Times,serif" font-size="14.00">Shaded boxes indicate modules with no dependencies</text>
<!-- obsSpaceErrorStdDev_mod -->
<g id="node1" class="node">
<title>obsSpaceErrorStdDev_mod</title>
<g id="a_node1"><a xlink:href="obsSpaceErrorStdDev_mod.html" xlink:title="obsSpaceErrorStdDev_mod">
<polygon fill="none" stroke="black" points="739.5,-665 569.5,-665 569.5,-629 739.5,-629 739.5,-665"/>
<text text-anchor="middle" x="654.5" y="-643.3" font-family="Times,serif" font-size="14.00">obsSpaceErrorStdDev_mod</text>
</a>
</g>
</g>
<!-- bcovarsetupchem_mod -->
<g id="node2" class="node">
<title>bcovarsetupchem_mod</title>
<g id="a_node2"><a xlink:href="../modules/bcovarsetupchem_mod.svg" xlink:title="bcovarsetupchem_mod">
<polygon fill="none" stroke="red" points="143,-593 0,-593 0,-557 143,-557 143,-593"/>
<text text-anchor="middle" x="71.5" y="-571.3" font-family="Times,serif" font-size="14.00">bcovarsetupchem_mod</text>
</a>
</g>
</g>
<!-- obsSpaceErrorStdDev_mod&#45;&gt;bcovarsetupchem_mod -->
<g id="edge1" class="edge">
<title>obsSpaceErrorStdDev_mod&#45;&gt;bcovarsetupchem_mod</title>
<path fill="none" stroke="black" d="M569.34,-639.24C470.13,-630.82 301.41,-614.85 157.5,-593 156.04,-592.78 154.57,-592.55 153.09,-592.31"/>
<polygon fill="black" stroke="black" points="153.65,-588.86 143.21,-590.67 152.5,-595.76 153.65,-588.86"/>
</g>
<!-- bmatrixensemble_mod -->
<g id="node3" class="node">
<title>bmatrixensemble_mod</title>
<g id="a_node3"><a xlink:href="../modules/bmatrixensemble_mod.svg" xlink:title="bmatrixensemble_mod">
<polygon fill="none" stroke="red" points="212,-521 69,-521 69,-485 212,-485 212,-521"/>
<text text-anchor="middle" x="140.5" y="-499.3" font-family="Times,serif" font-size="14.00">bmatrixensemble_mod</text>
</a>
</g>
</g>
<!-- obsSpaceErrorStdDev_mod&#45;&gt;bmatrixensemble_mod -->
<g id="edge2" class="edge">
<title>obsSpaceErrorStdDev_mod&#45;&gt;bmatrixensemble_mod</title>
<path fill="none" stroke="black" d="M569.3,-642.15C462.07,-636.16 284.87,-622.13 226.5,-593 197.57,-578.56 172.93,-550.34 157.54,-529.53"/>
<polygon fill="black" stroke="black" points="160.19,-527.22 151.52,-521.13 154.5,-531.3 160.19,-527.22"/>
</g>
<!-- bmatrixhi_mod -->
<g id="node4" class="node">
<title>bmatrixhi_mod</title>
<g id="a_node4"><a xlink:href="../modules/bmatrixhi_mod.svg" xlink:title="bmatrixhi_mod">
<polygon fill="none" stroke="red" points="250.5,-449 148.5,-449 148.5,-413 250.5,-413 250.5,-449"/>
<text text-anchor="middle" x="199.5" y="-427.3" font-family="Times,serif" font-size="14.00">bmatrixhi_mod</text>
</a>
</g>
</g>
<!-- obsSpaceErrorStdDev_mod&#45;&gt;bmatrixhi_mod -->
<g id="edge3" class="edge">
<title>obsSpaceErrorStdDev_mod&#45;&gt;bmatrixhi_mod</title>
<path fill="none" stroke="black" d="M569.32,-644.21C469.13,-640.47 310.61,-628.87 264.5,-593 263.09,-591.9 228.09,-504.07 210.05,-458.61"/>
<polygon fill="black" stroke="black" points="213.21,-457.09 206.27,-449.08 206.7,-459.67 213.21,-457.09"/>
</g>
<!-- bufr_mod -->
<g id="node5" class="node">
<title>bufr_mod</title>
<g id="a_node5"><a xlink:href="bufr_mod.html" xlink:title="bufr_mod">
<polygon fill="gray" stroke="black" points="288,-377 217,-377 217,-341 288,-341 288,-377"/>
<text text-anchor="middle" x="252.5" y="-355.3" font-family="Times,serif" font-size="14.00">bufr_mod</text>
</a>
</g>
</g>
<!-- obsSpaceErrorStdDev_mod&#45;&gt;bufr_mod -->
<g id="edge4" class="edge">
<title>obsSpaceErrorStdDev_mod&#45;&gt;bufr_mod</title>
<path fill="none" stroke="black" d="M569.26,-644.02C477.61,-640.06 339.99,-628.24 302.5,-593 287.49,-578.9 265.58,-445.79 256.59,-387.32"/>
<polygon fill="black" stroke="black" points="260.03,-386.67 255.06,-377.32 253.11,-387.73 260.03,-386.67"/>
</g>
<!-- calcheightandpressure_mod -->
<g id="node6" class="node">
<title>calcheightandpressure_mod</title>
<g id="a_node6"><a xlink:href="../modules/calcheightandpressure_mod.svg" xlink:title="calcheightandpressure_mod">
<polygon fill="none" stroke="red" points="326.5,-305 158.5,-305 158.5,-269 326.5,-269 326.5,-305"/>
<text text-anchor="middle" x="242.5" y="-283.3" font-family="Times,serif" font-size="14.00">calcheightandpressure_mod</text>
</a>
</g>
</g>
<!-- obsSpaceErrorStdDev_mod&#45;&gt;calcheightandpressure_mod -->
<g id="edge5" class="edge">
<title>obsSpaceErrorStdDev_mod&#45;&gt;calcheightandpressure_mod</title>
<path fill="none" stroke="black" d="M569.34,-641.8C488.07,-636.05 373.29,-622.78 340.5,-593 310.17,-565.46 316.5,-544.97 316.5,-504 316.5,-504 316.5,-504 316.5,-430 316.5,-389.46 316.22,-376.42 296.5,-341 290.52,-330.26 281.7,-320.29 272.91,-311.96"/>
<polygon fill="black" stroke="black" points="275.04,-309.17 265.26,-305.09 270.36,-314.37 275.04,-309.17"/>
</g>
<!-- codtyp_mod -->
<g id="node7" class="node">
<title>codtyp_mod</title>
<g id="a_node7"><a xlink:href="../modules/codtyp_mod.svg" xlink:title="codtyp_mod">
<polygon fill="none" stroke="red" points="364,-233 279,-233 279,-197 364,-197 364,-233"/>
<text text-anchor="middle" x="321.5" y="-211.3" font-family="Times,serif" font-size="14.00">codtyp_mod</text>
</a>
</g>
</g>
<!-- obsSpaceErrorStdDev_mod&#45;&gt;codtyp_mod -->
<g id="edge6" class="edge">
<title>obsSpaceErrorStdDev_mod&#45;&gt;codtyp_mod</title>
<path fill="none" stroke="black" d="M569.35,-639.47C498.79,-632.33 405.8,-618.36 378.5,-593 348.48,-565.12 354.5,-544.97 354.5,-504 354.5,-504 354.5,-504 354.5,-358 354.5,-316.97 341.27,-270.97 331.56,-242.74"/>
<polygon fill="black" stroke="black" points="334.82,-241.45 328.18,-233.19 328.22,-243.78 334.82,-241.45"/>
</g>
<!-- columndata_mod -->
<g id="node8" class="node">
<title>columndata_mod</title>
<g id="a_node8"><a xlink:href="../modules/columndata_mod.svg" xlink:title="columndata_mod">
<polygon fill="none" stroke="red" points="402.5,-161 290.5,-161 290.5,-125 402.5,-125 402.5,-161"/>
<text text-anchor="middle" x="346.5" y="-139.3" font-family="Times,serif" font-size="14.00">columndata_mod</text>
</a>
</g>
</g>
<!-- obsSpaceErrorStdDev_mod&#45;&gt;columndata_mod -->
<g id="edge7" class="edge">
<title>obsSpaceErrorStdDev_mod&#45;&gt;columndata_mod</title>
<path fill="none" stroke="black" d="M569.42,-636.41C510.32,-628.06 438.41,-613.96 416.5,-593 386.9,-564.68 392.5,-544.97 392.5,-504 392.5,-504 392.5,-504 392.5,-286 392.5,-245.46 385.97,-235.24 372.5,-197 369.33,-188.01 365.04,-178.56 360.85,-170.16"/>
<polygon fill="black" stroke="black" points="363.93,-168.5 356.23,-161.22 357.71,-171.71 363.93,-168.5"/>
</g>
<!-- earthconstants_mod -->
<g id="node9" class="node">
<title>earthconstants_mod</title>
<g id="a_node9"><a xlink:href="../modules/earthconstants_mod.svg" xlink:title="earthconstants_mod">
<polygon fill="none" stroke="red" points="493.5,-89 367.5,-89 367.5,-53 493.5,-53 493.5,-89"/>
<text text-anchor="middle" x="430.5" y="-67.3" font-family="Times,serif" font-size="14.00">earthconstants_mod</text>
</a>
</g>
</g>
<!-- obsSpaceErrorStdDev_mod&#45;&gt;earthconstants_mod -->
<g id="edge8" class="edge">
<title>obsSpaceErrorStdDev_mod&#45;&gt;earthconstants_mod</title>
<path fill="none" stroke="black" d="M569.43,-640.23C532.24,-633.64 490.56,-620.17 461.5,-593 430.9,-564.39 430.5,-545.89 430.5,-504 430.5,-504 430.5,-504 430.5,-214 430.5,-174 430.5,-127.65 430.5,-99.08"/>
<polygon fill="black" stroke="black" points="434,-99.05 430.5,-89.05 427,-99.05 434,-99.05"/>
</g>
<!-- gps_mod -->
<g id="node10" class="node">
<title>gps_mod</title>
<g id="a_node10"><a xlink:href="../modules/gps_mod.svg" xlink:title="gps_mod">
<polygon fill="none" stroke="red" points="538.5,-593 470.5,-593 470.5,-557 538.5,-557 538.5,-593"/>
<text text-anchor="middle" x="504.5" y="-571.3" font-family="Times,serif" font-size="14.00">gps_mod</text>
</a>
</g>
</g>
<!-- obsSpaceErrorStdDev_mod&#45;&gt;gps_mod -->
<g id="edge9" class="edge">
<title>obsSpaceErrorStdDev_mod&#45;&gt;gps_mod</title>
<path fill="none" stroke="black" d="M617.81,-628.88C596.63,-619 569.89,-606.52 547.7,-596.16"/>
<polygon fill="black" stroke="black" points="549.05,-592.93 538.5,-591.87 546.09,-599.27 549.05,-592.93"/>
</g>
<!-- gridstatevector_mod -->
<g id="node11" class="node">
<title>gridstatevector_mod</title>
<g id="a_node11"><a xlink:href="../modules/gridstatevector_mod.svg" xlink:title="gridstatevector_mod">
<polygon fill="none" stroke="red" points="588.5,-521 458.5,-521 458.5,-485 588.5,-485 588.5,-521"/>
<text text-anchor="middle" x="523.5" y="-499.3" font-family="Times,serif" font-size="14.00">gridstatevector_mod</text>
</a>
</g>
</g>
<!-- obsSpaceErrorStdDev_mod&#45;&gt;gridstatevector_mod -->
<g id="edge10" class="edge">
<title>obsSpaceErrorStdDev_mod&#45;&gt;gridstatevector_mod</title>
<path fill="none" stroke="black" d="M636.94,-628.55C626.76,-618.31 613.76,-605.06 602.5,-593 582.7,-571.78 560.84,-547.05 545.14,-529.05"/>
<polygon fill="black" stroke="black" points="547.6,-526.54 538.39,-521.29 542.32,-531.13 547.6,-526.54"/>
</g>
<!-- horizontalcoord_mod -->
<g id="node12" class="node">
<title>horizontalcoord_mod</title>
<g id="a_node12"><a xlink:href="../modules/horizontalcoord_mod.svg" xlink:title="horizontalcoord_mod">
<polygon fill="none" stroke="red" points="626.5,-449 492.5,-449 492.5,-413 626.5,-413 626.5,-449"/>
<text text-anchor="middle" x="559.5" y="-427.3" font-family="Times,serif" font-size="14.00">horizontalcoord_mod</text>
</a>
</g>
</g>
<!-- obsSpaceErrorStdDev_mod&#45;&gt;horizontalcoord_mod -->
<g id="edge11" class="edge">
<title>obsSpaceErrorStdDev_mod&#45;&gt;horizontalcoord_mod</title>
<path fill="none" stroke="black" d="M650.16,-628.9C642.14,-598.76 623.44,-534.68 597.5,-485 592.55,-475.52 586.07,-465.81 579.88,-457.34"/>
<polygon fill="black" stroke="black" points="582.65,-455.21 573.84,-449.34 577.07,-459.43 582.65,-455.21"/>
</g>
<!-- mathphysconstants_mod -->
<g id="node13" class="node">
<title>mathphysconstants_mod</title>
<g id="a_node13"><a xlink:href="mathphysconstants_mod.html" xlink:title="mathphysconstants_mod">
<polygon fill="gray" stroke="black" points="664.5,-377 512.5,-377 512.5,-341 664.5,-341 664.5,-377"/>
<text text-anchor="middle" x="588.5" y="-355.3" font-family="Times,serif" font-size="14.00">mathphysconstants_mod</text>
</a>
</g>
</g>
<!-- obsSpaceErrorStdDev_mod&#45;&gt;mathphysconstants_mod -->
<g id="edge12" class="edge">
<title>obsSpaceErrorStdDev_mod&#45;&gt;mathphysconstants_mod</title>
<path fill="none" stroke="black" d="M656.68,-628.75C660.97,-588.88 667.52,-488.03 635.5,-413 630.99,-402.43 623.51,-392.52 615.84,-384.2"/>
<polygon fill="black" stroke="black" points="618.31,-381.72 608.81,-377.02 613.31,-386.61 618.31,-381.72"/>
</g>
<!-- midasmpi_mod -->
<g id="node14" class="node">
<title>midasmpi_mod</title>
<g id="a_node14"><a xlink:href="../modules/midasmpi_mod.svg" xlink:title="midasmpi_mod">
<polygon fill="none" stroke="red" points="702.5,-305 600.5,-305 600.5,-269 702.5,-269 702.5,-305"/>
<text text-anchor="middle" x="651.5" y="-283.3" font-family="Times,serif" font-size="14.00">midasmpi_mod</text>
</a>
</g>
</g>
<!-- obsSpaceErrorStdDev_mod&#45;&gt;midasmpi_mod -->
<g id="edge13" class="edge">
<title>obsSpaceErrorStdDev_mod&#45;&gt;midasmpi_mod</title>
<path fill="none" stroke="black" d="M662.19,-628.91C673.29,-602.62 692.5,-550.45 692.5,-504 692.5,-504 692.5,-504 692.5,-430 692.5,-388.41 676.06,-342.56 664,-314.51"/>
<polygon fill="black" stroke="black" points="667.05,-312.75 659.8,-305.03 660.65,-315.59 667.05,-312.75"/>
</g>
<!-- obsfamilylist_mod -->
<g id="node15" class="node">
<title>obsfamilylist_mod</title>
<g id="a_node15"><a xlink:href="obsfamilylist_mod.html" xlink:title="obsfamilylist_mod">
<polygon fill="gray" stroke="black" points="740,-233 621,-233 621,-197 740,-197 740,-233"/>
<text text-anchor="middle" x="680.5" y="-211.3" font-family="Times,serif" font-size="14.00">obsfamilylist_mod</text>
</a>
</g>
</g>
<!-- obsSpaceErrorStdDev_mod&#45;&gt;obsfamilylist_mod -->
<g id="edge14" class="edge">
<title>obsSpaceErrorStdDev_mod&#45;&gt;obsfamilylist_mod</title>
<path fill="none" stroke="black" d="M670.99,-628.77C693.34,-603.53 730.5,-554.05 730.5,-504 730.5,-504 730.5,-504 730.5,-358 730.5,-317.55 726.12,-306.71 711.5,-269 707.94,-259.8 702.9,-250.33 697.92,-241.98"/>
<polygon fill="black" stroke="black" points="700.86,-240.08 692.61,-233.43 694.91,-243.77 700.86,-240.08"/>
</g>
<!-- obsoperatorschem_mod -->
<g id="node16" class="node">
<title>obsoperatorschem_mod</title>
<g id="a_node16"><a xlink:href="../modules/obsoperatorschem_mod.svg" xlink:title="obsoperatorschem_mod">
<polygon fill="none" stroke="red" points="778,-161 631,-161 631,-125 778,-125 778,-161"/>
<text text-anchor="middle" x="704.5" y="-139.3" font-family="Times,serif" font-size="14.00">obsoperatorschem_mod</text>
</a>
</g>
</g>
<!-- obsSpaceErrorStdDev_mod&#45;&gt;obsoperatorschem_mod -->
<g id="edge15" class="edge">
<title>obsSpaceErrorStdDev_mod&#45;&gt;obsoperatorschem_mod</title>
<path fill="none" stroke="black" d="M681.52,-628.96C715.23,-605.37 768.5,-559.33 768.5,-504 768.5,-504 768.5,-504 768.5,-286 768.5,-245.46 766.39,-233.38 748.5,-197 743.54,-186.92 736.29,-177.09 729.11,-168.7"/>
<polygon fill="black" stroke="black" points="731.6,-166.23 722.31,-161.13 726.39,-170.91 731.6,-166.23"/>
</g>
<!-- obsoperators_mod -->
<g id="node17" class="node">
<title>obsoperators_mod</title>
<g id="a_node17"><a xlink:href="../modules/obsoperators_mod.svg" xlink:title="obsoperators_mod">
<polygon fill="none" stroke="red" points="865,-89 748,-89 748,-53 865,-53 865,-89"/>
<text text-anchor="middle" x="806.5" y="-67.3" font-family="Times,serif" font-size="14.00">obsoperators_mod</text>
</a>
</g>
</g>
<!-- obsSpaceErrorStdDev_mod&#45;&gt;obsoperators_mod -->
<g id="edge16" class="edge">
<title>obsSpaceErrorStdDev_mod&#45;&gt;obsoperators_mod</title>
<path fill="none" stroke="black" d="M695.63,-628.9C740.65,-607.12 806.5,-564.85 806.5,-504 806.5,-504 806.5,-504 806.5,-214 806.5,-174 806.5,-127.65 806.5,-99.08"/>
<polygon fill="black" stroke="black" points="810,-99.05 806.5,-89.05 803,-99.05 810,-99.05"/>
</g>
<!-- obsspacedata_mod -->
<g id="node18" class="node">
<title>obsspacedata_mod</title>
<g id="a_node18"><a xlink:href="../modules/obsspacedata_mod.svg" xlink:title="obsspacedata_mod">
<polygon fill="none" stroke="red" points="954,-593 835,-593 835,-557 954,-557 954,-593"/>
<text text-anchor="middle" x="894.5" y="-571.3" font-family="Times,serif" font-size="14.00">obsspacedata_mod</text>
</a>
</g>
</g>
<!-- obsSpaceErrorStdDev_mod&#45;&gt;obsspacedata_mod -->
<g id="edge17" class="edge">
<title>obsSpaceErrorStdDev_mod&#45;&gt;obsspacedata_mod</title>
<path fill="none" stroke="black" d="M712.9,-628.97C747.02,-619.01 790.25,-606.41 825.97,-595.99"/>
<polygon fill="black" stroke="black" points="827.21,-599.27 835.83,-593.11 825.25,-592.55 827.21,-599.27"/>
</g>
<!-- obstimeinterp_mod -->
<g id="node19" class="node">
<title>obstimeinterp_mod</title>
<g id="a_node19"><a xlink:href="../modules/obstimeinterp_mod.svg" xlink:title="obstimeinterp_mod">
<polygon fill="none" stroke="red" points="992.5,-521 868.5,-521 868.5,-485 992.5,-485 992.5,-521"/>
<text text-anchor="middle" x="930.5" y="-499.3" font-family="Times,serif" font-size="14.00">obstimeinterp_mod</text>
</a>
</g>
</g>
<!-- obsSpaceErrorStdDev_mod&#45;&gt;obstimeinterp_mod -->
<g id="edge18" class="edge">
<title>obsSpaceErrorStdDev_mod&#45;&gt;obstimeinterp_mod</title>
<path fill="none" stroke="black" d="M739.77,-643.26C820.86,-638.64 934.49,-626.25 962.5,-593 977.89,-574.73 965.46,-548.49 951.85,-529.23"/>
<polygon fill="black" stroke="black" points="954.62,-527.09 945.82,-521.19 949.02,-531.29 954.62,-527.09"/>
</g>
<!-- statetocolumn_mod -->
<g id="node20" class="node">
<title>statetocolumn_mod</title>
<g id="a_node20"><a xlink:href="../modules/statetocolumn_mod.svg" xlink:title="statetocolumn_mod">
<polygon fill="none" stroke="red" points="1030,-449 905,-449 905,-413 1030,-413 1030,-449"/>
<text text-anchor="middle" x="967.5" y="-427.3" font-family="Times,serif" font-size="14.00">statetocolumn_mod</text>
</a>
</g>
</g>
<!-- obsSpaceErrorStdDev_mod&#45;&gt;statetocolumn_mod -->
<g id="edge19" class="edge">
<title>obsSpaceErrorStdDev_mod&#45;&gt;statetocolumn_mod</title>
<path fill="none" stroke="black" d="M739.62,-642.28C824.03,-636.86 945.65,-623.82 980.5,-593 1017.13,-560.61 1015.26,-531.92 1001.5,-485 998.7,-475.45 993.59,-465.98 988.17,-457.76"/>
<polygon fill="black" stroke="black" points="990.88,-455.52 982.25,-449.37 985.15,-459.56 990.88,-455.52"/>
</g>
<!-- timecoord_mod -->
<g id="node21" class="node">
<title>timecoord_mod</title>
<g id="a_node21"><a xlink:href="../modules/timecoord_mod.svg" xlink:title="timecoord_mod">
<polygon fill="none" stroke="red" points="1068.5,-377 964.5,-377 964.5,-341 1068.5,-341 1068.5,-377"/>
<text text-anchor="middle" x="1016.5" y="-355.3" font-family="Times,serif" font-size="14.00">timecoord_mod</text>
</a>
</g>
</g>
<!-- obsSpaceErrorStdDev_mod&#45;&gt;timecoord_mod -->
<g id="edge20" class="edge">
<title>obsSpaceErrorStdDev_mod&#45;&gt;timecoord_mod</title>
<path fill="none" stroke="black" d="M739.85,-644.14C832.04,-640.3 970.84,-628.58 1008.5,-593 1067.45,-537.3 1054.35,-492.54 1038.5,-413 1036.71,-404.01 1033.36,-394.64 1029.81,-386.32"/>
<polygon fill="black" stroke="black" points="1032.96,-384.77 1025.63,-377.12 1026.58,-387.67 1032.96,-384.77"/>
</g>
<!-- utilities_mod -->
<g id="node22" class="node">
<title>utilities_mod</title>
<g id="a_node22"><a xlink:href="../modules/utilities_mod.svg" xlink:title="utilities_mod">
<polygon fill="none" stroke="red" points="1123,-305 1034,-305 1034,-269 1123,-269 1123,-305"/>
<text text-anchor="middle" x="1078.5" y="-283.3" font-family="Times,serif" font-size="14.00">utilities_mod</text>
</a>
</g>
</g>
<!-- obsSpaceErrorStdDev_mod&#45;&gt;utilities_mod -->
<g id="edge21" class="edge">
<title>obsSpaceErrorStdDev_mod&#45;&gt;utilities_mod</title>
<path fill="none" stroke="black" d="M739.64,-642.31C837.05,-636.7 989.34,-623.29 1037.5,-593 1077.67,-567.73 1096.5,-551.46 1096.5,-504 1096.5,-504 1096.5,-504 1096.5,-430 1096.5,-389.9 1089.35,-343.92 1084.06,-315.42"/>
<polygon fill="black" stroke="black" points="1087.46,-314.56 1082.14,-305.4 1080.58,-315.88 1087.46,-314.56"/>
</g>
<!-- varnamelist_mod -->
<g id="node23" class="node">
<title>varnamelist_mod</title>
<g id="a_node23"><a xlink:href="../modules/varnamelist_mod.svg" xlink:title="varnamelist_mod">
<polygon fill="none" stroke="red" points="1208,-233 1095,-233 1095,-197 1208,-197 1208,-233"/>
<text text-anchor="middle" x="1151.5" y="-211.3" font-family="Times,serif" font-size="14.00">varnamelist_mod</text>
</a>
</g>
</g>
<!-- obsSpaceErrorStdDev_mod&#45;&gt;varnamelist_mod -->
<g id="edge22" class="edge">
<title>obsSpaceErrorStdDev_mod&#45;&gt;varnamelist_mod</title>
<path fill="none" stroke="black" d="M739.95,-642.31C845.34,-636.54 1017.41,-622.81 1073.5,-593 1119.94,-568.32 1151.5,-556.6 1151.5,-504 1151.5,-504 1151.5,-504 1151.5,-358 1151.5,-318 1151.5,-271.65 1151.5,-243.08"/>
<polygon fill="black" stroke="black" points="1155,-243.05 1151.5,-233.05 1148,-243.05 1155,-243.05"/>
</g>
<!-- verticalcoord_mod -->
<g id="node24" class="node">
<title>verticalcoord_mod</title>
<g id="a_node24"><a xlink:href="../modules/verticalcoord_mod.svg" xlink:title="verticalcoord_mod">
<polygon fill="none" stroke="red" points="1296.5,-161 1176.5,-161 1176.5,-125 1296.5,-125 1296.5,-161"/>
<text text-anchor="middle" x="1236.5" y="-139.3" font-family="Times,serif" font-size="14.00">verticalcoord_mod</text>
</a>
</g>
</g>
<!-- obsSpaceErrorStdDev_mod&#45;&gt;verticalcoord_mod -->
<g id="edge23" class="edge">
<title>obsSpaceErrorStdDev_mod&#45;&gt;verticalcoord_mod</title>
<path fill="none" stroke="black" d="M739.58,-641.58C853.99,-634.73 1050.77,-619.5 1117.5,-593 1178.88,-568.62 1236.5,-570.04 1236.5,-504 1236.5,-504 1236.5,-504 1236.5,-286 1236.5,-246 1236.5,-199.65 1236.5,-171.08"/>
<polygon fill="black" stroke="black" points="1240,-171.05 1236.5,-161.05 1233,-171.05 1240,-171.05"/>
</g>
</g>
</svg>
