<?xml version="1.0" encoding="UTF-8" standalone="no"?>
<!DOCTYPE svg PUBLIC "-//W3C//DTD SVG 1.1//EN"
 "http://www.w3.org/Graphics/SVG/1.1/DTD/svg11.dtd">
<!-- Generated by graphviz version 3.0.0 (20220315.2325)
 -->
<!-- Title: ObsSpaceData_mod Pages: 1 -->
<svg width="460pt" height="457pt"
 viewBox="0.00 0.00 460.00 457.00" xmlns="http://www.w3.org/2000/svg" xmlns:xlink="http://www.w3.org/1999/xlink">
<g id="graph0" class="graph" transform="scale(1 1) rotate(0) translate(4 453)">
<title>ObsSpaceData_mod</title>
<polygon fill="white" stroke="transparent" points="-4,4 -4,-453 456,-453 456,4 -4,4"/>
<text text-anchor="middle" x="226" y="-37.8" font-family="Times,serif" font-size="14.00">Red boxes indicate modules with dependencies not shown</text>
<text text-anchor="middle" x="226" y="-22.8" font-family="Times,serif" font-size="14.00">Lower level dependencies can be shown by clicking on a red box</text>
<text text-anchor="middle" x="226" y="-7.8" font-family="Times,serif" font-size="14.00">Shaded boxes indicate modules with no dependencies</text>
<!-- ObsSpaceData_mod -->
<g id="node1" class="node">
<title>ObsSpaceData_mod</title>
<g id="a_node1"><a xlink:href="ObsSpaceData_mod.html" xlink:title="ObsSpaceData_mod">
<polygon fill="none" stroke="black" points="279.5,-449 151.5,-449 151.5,-413 279.5,-413 279.5,-449"/>
<text text-anchor="middle" x="215.5" y="-427.3" font-family="Times,serif" font-size="14.00">ObsSpaceData_mod</text>
</a>
</g>
</g>
<!-- codeprecision_mod -->
<g id="node2" class="node">
<title>codeprecision_mod</title>
<g id="a_node2"><a xlink:href="codeprecision_mod.html" xlink:title="codeprecision_mod">
<polygon fill="gray" stroke="black" points="123,-377 0,-377 0,-341 123,-341 123,-377"/>
<text text-anchor="middle" x="61.5" y="-355.3" font-family="Times,serif" font-size="14.00">codeprecision_mod</text>
</a>
</g>
</g>
<!-- ObsSpaceData_mod&#45;&gt;codeprecision_mod -->
<g id="edge1" class="edge">
<title>ObsSpaceData_mod&#45;&gt;codeprecision_mod</title>
<path fill="none" stroke="black" d="M177.83,-412.88C156.87,-403.35 130.6,-391.41 108.32,-381.28"/>
<polygon fill="black" stroke="black" points="109.6,-378.02 99.05,-377.07 106.71,-384.39 109.6,-378.02"/>
</g>
<!-- indexlistdepot_mod -->
<g id="node3" class="node">
<title>indexlistdepot_mod</title>
<g id="a_node3"><a xlink:href="indexlistdepot_mod.html" xlink:title="indexlistdepot_mod">
<polygon fill="gray" stroke="black" points="187,-305 62,-305 62,-269 187,-269 187,-305"/>
<text text-anchor="middle" x="124.5" y="-283.3" font-family="Times,serif" font-size="14.00">indexlistdepot_mod</text>
</a>
</g>
</g>
<!-- ObsSpaceData_mod&#45;&gt;indexlistdepot_mod -->
<g id="edge2" class="edge">
<title>ObsSpaceData_mod&#45;&gt;indexlistdepot_mod</title>
<path fill="none" stroke="black" d="M204.52,-412.87C188.74,-388.24 159.51,-342.64 141.09,-313.88"/>
<polygon fill="black" stroke="black" points="143.86,-311.72 135.52,-305.19 137.96,-315.5 143.86,-311.72"/>
</g>
<!-- mathphysconstants_mod -->
<g id="node4" class="node">
<title>mathphysconstants_mod</title>
<g id="a_node4"><a xlink:href="mathphysconstants_mod.html" xlink:title="mathphysconstants_mod">
<polygon fill="gray" stroke="black" points="258.5,-233 106.5,-233 106.5,-197 258.5,-197 258.5,-233"/>
<text text-anchor="middle" x="182.5" y="-211.3" font-family="Times,serif" font-size="14.00">mathphysconstants_mod</text>
</a>
</g>
</g>
<!-- ObsSpaceData_mod&#45;&gt;mathphysconstants_mod -->
<g id="edge3" class="edge">
<title>ObsSpaceData_mod&#45;&gt;mathphysconstants_mod</title>
<path fill="none" stroke="black" d="M214.05,-412.98C211.38,-383.49 205.09,-321.08 195.5,-269 193.93,-260.48 191.83,-251.29 189.77,-242.99"/>
<polygon fill="black" stroke="black" points="193.1,-241.89 187.23,-233.08 186.32,-243.63 193.1,-241.89"/>
</g>
<!-- obscolumnnames_mod -->
<g id="node5" class="node">
<title>obscolumnnames_mod</title>
<g id="a_node5"><a xlink:href="obscolumnnames_mod.html" xlink:title="obscolumnnames_mod">
<polygon fill="gray" stroke="black" points="358,-161 215,-161 215,-125 358,-125 358,-161"/>
<text text-anchor="middle" x="286.5" y="-139.3" font-family="Times,serif" font-size="14.00">obscolumnnames_mod</text>
</a>
</g>
</g>
<!-- ObsSpaceData_mod&#45;&gt;obscolumnnames_mod -->
<g id="edge4" class="edge">
<title>ObsSpaceData_mod&#45;&gt;obscolumnnames_mod</title>
<path fill="none" stroke="black" d="M220.3,-412.94C229.81,-378.87 251.53,-299.92 267.5,-233 272.42,-212.38 277.4,-188.93 281.03,-171.28"/>
<polygon fill="black" stroke="black" points="284.53,-171.61 283.1,-161.12 277.67,-170.22 284.53,-171.61"/>
</g>
<!-- obsdatacolumn_mod -->
<g id="node6" class="node">
<title>obsdatacolumn_mod</title>
<g id="a_node6"><a xlink:href="../modules/obsdatacolumn_mod.svg" xlink:title="obsdatacolumn_mod">
<polygon fill="none" stroke="red" points="452,-89 321,-89 321,-53 452,-53 452,-89"/>
<text text-anchor="middle" x="386.5" y="-67.3" font-family="Times,serif" font-size="14.00">obsdatacolumn_mod</text>
</a>
</g>
</g>
<!-- ObsSpaceData_mod&#45;&gt;obsdatacolumn_mod -->
<g id="edge5" class="edge">
<title>ObsSpaceData_mod&#45;&gt;obsdatacolumn_mod</title>
<path fill="none" stroke="black" d="M265.42,-412.87C315.89,-392.01 386.5,-351.48 386.5,-288 386.5,-288 386.5,-288 386.5,-214 386.5,-174 386.5,-127.65 386.5,-99.08"/>
<polygon fill="black" stroke="black" points="390,-99.05 386.5,-89.05 383,-99.05 390,-99.05"/>
</g>
</g>
</svg>
