<?xml version="1.0" encoding="UTF-8" standalone="no"?>
<!DOCTYPE svg PUBLIC "-//W3C//DTD SVG 1.1//EN"
 "http://www.w3.org/Graphics/SVG/1.1/DTD/svg11.dtd">
<!-- Generated by graphviz version 3.0.0 (20220315.2325)
 -->
<!-- Title: obsSubSpaceData_mod Pages: 1 -->
<svg width="492pt" height="529pt"
 viewBox="0.00 0.00 491.50 529.00" xmlns="http://www.w3.org/2000/svg" xmlns:xlink="http://www.w3.org/1999/xlink">
<g id="graph0" class="graph" transform="scale(1 1) rotate(0) translate(4 525)">
<title>obsSubSpaceData_mod</title>
<polygon fill="white" stroke="transparent" points="-4,4 -4,-525 487.5,-525 487.5,4 -4,4"/>
<text text-anchor="middle" x="241.75" y="-505.8" font-family="Times,serif" font-size="14.00">Blue boxes indicate modules with reverse dependencies not shown</text>
<text text-anchor="middle" x="241.75" y="-490.8" font-family="Times,serif" font-size="14.00">Higher level reverse dependencies can be shown by clicking on a blue box</text>
<text text-anchor="middle" x="241.75" y="-475.8" font-family="Times,serif" font-size="14.00">Green boxes are programs</text>
<!-- obsSubSpaceData_mod -->
<g id="node1" class="node">
<title>obsSubSpaceData_mod</title>
<g id="a_node1"><a xlink:href="obsSubSpaceData_mod.html" xlink:title="obsSubSpaceData_mod">
<polygon fill="none" stroke="black" points="320.5,-36 174.5,-36 174.5,0 320.5,0 320.5,-36"/>
<text text-anchor="middle" x="247.5" y="-14.3" font-family="Times,serif" font-size="14.00">obsSubSpaceData_mod</text>
</a>
</g>
</g>
<!-- bcovarsetupchem_mod -->
<g id="node2" class="node">
<title>bcovarsetupchem_mod</title>
<g id="a_node2"><a xlink:href="../modules/bcovarsetupchem_mod_rev.svg" xlink:title="bcovarsetupchem_mod">
<polygon fill="none" stroke="blue" points="143,-108 0,-108 0,-72 143,-72 143,-108"/>
<text text-anchor="middle" x="71.5" y="-86.3" font-family="Times,serif" font-size="14.00">bcovarsetupchem_mod</text>
</a>
</g>
</g>
<!-- bcovarsetupchem_mod&#45;&gt;obsSubSpaceData_mod -->
<g id="edge1" class="edge">
<title>bcovarsetupchem_mod&#45;&gt;obsSubSpaceData_mod</title>
<path fill="none" stroke="black" d="M122.11,-68.87C148.21,-58.49 179.69,-45.97 204.59,-36.07"/>
<ellipse fill="black" stroke="black" cx="118.27" cy="-70.4" rx="4" ry="4"/>
</g>
<!-- burpfiles_mod -->
<g id="node3" class="node">
<title>burpfiles_mod</title>
<g id="a_node3"><a xlink:href="../modules/burpfiles_mod_rev.svg" xlink:title="burpfiles_mod">
<polygon fill="none" stroke="blue" points="200.5,-180 104.5,-180 104.5,-144 200.5,-144 200.5,-180"/>
<text text-anchor="middle" x="152.5" y="-158.3" font-family="Times,serif" font-size="14.00">burpfiles_mod</text>
</a>
</g>
</g>
<!-- burpfiles_mod&#45;&gt;obsSubSpaceData_mod -->
<g id="edge2" class="edge">
<title>burpfiles_mod&#45;&gt;obsSubSpaceData_mod</title>
<path fill="none" stroke="black" d="M168.54,-137.03C187.66,-108.45 219.14,-61.39 236,-36.19"/>
<ellipse fill="black" stroke="black" cx="166.18" cy="-140.55" rx="4" ry="4"/>
</g>
<!-- obserrors_mod -->
<g id="node4" class="node">
<title>obserrors_mod</title>
<g id="a_node4"><a xlink:href="../modules/obserrors_mod_rev.svg" xlink:title="obserrors_mod">
<polygon fill="none" stroke="blue" points="238,-252 139,-252 139,-216 238,-216 238,-252"/>
<text text-anchor="middle" x="188.5" y="-230.3" font-family="Times,serif" font-size="14.00">obserrors_mod</text>
</a>
</g>
</g>
<!-- obserrors_mod&#45;&gt;obsSubSpaceData_mod -->
<g id="edge3" class="edge">
<title>obserrors_mod&#45;&gt;obsSubSpaceData_mod</title>
<path fill="none" stroke="black" d="M199.3,-207.93C202.83,-199.19 206.59,-189.25 209.5,-180 225.69,-128.49 238.59,-65.81 244.31,-36.14"/>
<ellipse fill="black" stroke="black" cx="197.68" cy="-211.87" rx="4" ry="4"/>
</g>
<!-- obsfiles_mod -->
<g id="node5" class="node">
<title>obsfiles_mod</title>
<g id="a_node5"><a xlink:href="../modules/obsfiles_mod_rev.svg" xlink:title="obsfiles_mod">
<polygon fill="none" stroke="blue" points="293,-324 204,-324 204,-288 293,-288 293,-324"/>
<text text-anchor="middle" x="248.5" y="-302.3" font-family="Times,serif" font-size="14.00">obsfiles_mod</text>
</a>
</g>
</g>
<!-- obsfiles_mod&#45;&gt;obsSubSpaceData_mod -->
<g id="edge4" class="edge">
<title>obsfiles_mod&#45;&gt;obsSubSpaceData_mod</title>
<path fill="none" stroke="black" d="M248.41,-279.85C248.21,-222.82 247.73,-84.91 247.56,-36.31"/>
<ellipse fill="black" stroke="black" cx="248.43" cy="-283.97" rx="4" ry="4"/>
</g>
<!-- obsoperatorschem_mod -->
<g id="node6" class="node">
<title>obsoperatorschem_mod</title>
<g id="a_node6"><a xlink:href="../modules/obsoperatorschem_mod_rev.svg" xlink:title="obsoperatorschem_mod">
<polygon fill="none" stroke="blue" points="395,-396 248,-396 248,-360 395,-360 395,-396"/>
<text text-anchor="middle" x="321.5" y="-374.3" font-family="Times,serif" font-size="14.00">obsoperatorschem_mod</text>
</a>
</g>
</g>
<!-- obsoperatorschem_mod&#45;&gt;obsSubSpaceData_mod -->
<g id="edge5" class="edge">
<title>obsoperatorschem_mod&#45;&gt;obsSubSpaceData_mod</title>
<path fill="none" stroke="black" d="M321.5,-351.78C321.5,-323.39 321.5,-275.89 321.5,-235 321.5,-235 321.5,-235 321.5,-161 321.5,-111.24 285.32,-61.64 263.56,-36.31"/>
<ellipse fill="black" stroke="black" cx="321.5" cy="-355.95" rx="4" ry="4"/>
</g>
<!-- obsspacediag_mod -->
<g id="node7" class="node">
<title>obsspacediag_mod</title>
<g id="a_node7"><a xlink:href="../modules/obsspacediag_mod_rev.svg" xlink:title="obsspacediag_mod">
<polygon fill="none" stroke="blue" points="483.5,-468 363.5,-468 363.5,-432 483.5,-432 483.5,-468"/>
<text text-anchor="middle" x="423.5" y="-446.3" font-family="Times,serif" font-size="14.00">obsspacediag_mod</text>
</a>
</g>
</g>
<!-- obsspacediag_mod&#45;&gt;obsSubSpaceData_mod -->
<g id="edge6" class="edge">
<title>obsspacediag_mod&#45;&gt;obsSubSpaceData_mod</title>
<path fill="none" stroke="black" d="M423.5,-423.78C423.5,-395.39 423.5,-347.89 423.5,-307 423.5,-307 423.5,-307 423.5,-161 423.5,-96.81 351.71,-56.69 299.83,-36.08"/>
<ellipse fill="black" stroke="black" cx="423.5" cy="-427.95" rx="4" ry="4"/>
</g>
</g>
</svg>
