<?xml version="1.0" encoding="UTF-8" standalone="no"?>
<!DOCTYPE svg PUBLIC "-//W3C//DTD SVG 1.1//EN"
 "http://www.w3.org/Graphics/SVG/1.1/DTD/svg11.dtd">
<!-- Generated by graphviz version 3.0.0 (20220315.2325)
 -->
<!-- Title: obsSpaceErrorStdDev_mod Pages: 1 -->
<svg width="433pt" height="241pt"
 viewBox="0.00 0.00 433.00 241.00" xmlns="http://www.w3.org/2000/svg" xmlns:xlink="http://www.w3.org/1999/xlink">
<g id="graph0" class="graph" transform="scale(1 1) rotate(0) translate(4 237)">
<title>obsSpaceErrorStdDev_mod</title>
<polygon fill="white" stroke="transparent" points="-4,4 -4,-237 429,-237 429,4 -4,4"/>
<text text-anchor="middle" x="212.5" y="-217.8" font-family="Times,serif" font-size="14.00">Blue boxes indicate modules with reverse dependencies not shown</text>
<text text-anchor="middle" x="212.5" y="-202.8" font-family="Times,serif" font-size="14.00">Higher level reverse dependencies can be shown by clicking on a blue box</text>
<text text-anchor="middle" x="212.5" y="-187.8" font-family="Times,serif" font-size="14.00">Green boxes are programs</text>
<!-- obsSpaceErrorStdDev_mod -->
<g id="node1" class="node">
<title>obsSpaceErrorStdDev_mod</title>
<g id="a_node1"><a xlink:href="obsSpaceErrorStdDev_mod.html" xlink:title="obsSpaceErrorStdDev_mod">
<polygon fill="none" stroke="black" points="310.25,-36 140.25,-36 140.25,0 310.25,0 310.25,-36"/>
<text text-anchor="middle" x="225.25" y="-14.3" font-family="Times,serif" font-size="14.00">obsSpaceErrorStdDev_mod</text>
</a>
</g>
</g>
<!-- backgroundcheck_mod -->
<g id="node2" class="node">
<title>backgroundcheck_mod</title>
<g id="a_node2"><a xlink:href="../modules/backgroundcheck_mod_rev.svg" xlink:title="backgroundcheck_mod">
<polygon fill="none" stroke="blue" points="247.25,-108 103.25,-108 103.25,-72 247.25,-72 247.25,-108"/>
<text text-anchor="middle" x="175.25" y="-86.3" font-family="Times,serif" font-size="14.00">backgroundcheck_mod</text>
</a>
</g>
</g>
<!-- backgroundcheck_mod&#45;&gt;obsSpaceErrorStdDev_mod -->
<g id="edge1" class="edge">
<title>backgroundcheck_mod&#45;&gt;obsSpaceErrorStdDev_mod</title>
<path fill="none" stroke="black" d="M192.37,-65.03C199.16,-55.52 206.82,-44.8 213.03,-36.1"/>
<ellipse fill="black" stroke="black" cx="189.93" cy="-68.44" rx="4" ry="4"/>
</g>
<!-- ominusf_mod -->
<g id="node3" class="node">
<title>ominusf_mod</title>
<g id="a_node3"><a xlink:href="../modules/ominusf_mod_rev.svg" xlink:title="ominusf_mod">
<polygon fill="none" stroke="blue" points="321.75,-180 228.75,-180 228.75,-144 321.75,-144 321.75,-180"/>
<text text-anchor="middle" x="275.25" y="-158.3" font-family="Times,serif" font-size="14.00">ominusf_mod</text>
</a>
</g>
</g>
<!-- ominusf_mod&#45;&gt;obsSpaceErrorStdDev_mod -->
<g id="edge2" class="edge">
<title>ominusf_mod&#45;&gt;obsSpaceErrorStdDev_mod</title>
<path fill="none" stroke="black" d="M272.01,-135.47C269.18,-117.34 264.25,-92.64 256.25,-72 251.4,-59.48 243.81,-46.44 237.36,-36.43"/>
<ellipse fill="black" stroke="black" cx="272.65" cy="-139.85" rx="4" ry="4"/>
</g>
</g>
</svg>
