<?xml version="1.0" encoding="UTF-8" standalone="no"?>
<!DOCTYPE svg PUBLIC "-//W3C//DTD SVG 1.1//EN"
 "http://www.w3.org/Graphics/SVG/1.1/DTD/svg11.dtd">
<!-- Generated by graphviz version 3.0.0 (20220315.2325)
 -->
<!-- Title: obsSubSpaceData_mod Pages: 1 -->
<svg width="400pt" height="529pt"
 viewBox="0.00 0.00 400.00 529.00" xmlns="http://www.w3.org/2000/svg" xmlns:xlink="http://www.w3.org/1999/xlink">
<g id="graph0" class="graph" transform="scale(1 1) rotate(0) translate(4 525)">
<title>obsSubSpaceData_mod</title>
<polygon fill="white" stroke="transparent" points="-4,4 -4,-525 396,-525 396,4 -4,4"/>
<text text-anchor="middle" x="196" y="-37.8" font-family="Times,serif" font-size="14.00">Red boxes indicate modules with dependencies not shown</text>
<text text-anchor="middle" x="196" y="-22.8" font-family="Times,serif" font-size="14.00">Lower level dependencies can be shown by clicking on a red box</text>
<text text-anchor="middle" x="196" y="-7.8" font-family="Times,serif" font-size="14.00">Shaded boxes indicate modules with no dependencies</text>
<!-- obsSubSpaceData_mod -->
<g id="node1" class="node">
<title>obsSubSpaceData_mod</title>
<g id="a_node1"><a xlink:href="obsSubSpaceData_mod.html" xlink:title="obsSubSpaceData_mod">
<polygon fill="none" stroke="black" points="255.5,-521 109.5,-521 109.5,-485 255.5,-485 255.5,-521"/>
<text text-anchor="middle" x="182.5" y="-499.3" font-family="Times,serif" font-size="14.00">obsSubSpaceData_mod</text>
</a>
</g>
</g>
<!-- bufr_mod -->
<g id="node2" class="node">
<title>bufr_mod</title>
<g id="a_node2"><a xlink:href="bufr_mod.html" xlink:title="bufr_mod">
<polygon fill="gray" stroke="black" points="71,-449 0,-449 0,-413 71,-413 71,-449"/>
<text text-anchor="middle" x="35.5" y="-427.3" font-family="Times,serif" font-size="14.00">bufr_mod</text>
</a>
</g>
</g>
<!-- obsSubSpaceData_mod&#45;&gt;bufr_mod -->
<g id="edge1" class="edge">
<title>obsSubSpaceData_mod&#45;&gt;bufr_mod</title>
<path fill="none" stroke="black" d="M146.54,-484.88C126.55,-475.36 101.49,-463.43 80.24,-453.31"/>
<polygon fill="black" stroke="black" points="81.62,-450.09 71.09,-448.95 78.61,-456.41 81.62,-450.09"/>
</g>
<!-- codeprecision_mod -->
<g id="node3" class="node">
<title>codeprecision_mod</title>
<g id="a_node3"><a xlink:href="codeprecision_mod.html" xlink:title="codeprecision_mod">
<polygon fill="gray" stroke="black" points="135,-377 12,-377 12,-341 135,-341 135,-377"/>
<text text-anchor="middle" x="73.5" y="-355.3" font-family="Times,serif" font-size="14.00">codeprecision_mod</text>
</a>
</g>
</g>
<!-- obsSubSpaceData_mod&#45;&gt;codeprecision_mod -->
<g id="edge2" class="edge">
<title>obsSubSpaceData_mod&#45;&gt;codeprecision_mod</title>
<path fill="none" stroke="black" d="M169.35,-484.87C150.28,-460.03 114.83,-413.85 92.8,-385.14"/>
<polygon fill="black" stroke="black" points="95.56,-382.99 86.69,-377.19 90.01,-387.25 95.56,-382.99"/>
</g>
<!-- mathphysconstants_mod -->
<g id="node4" class="node">
<title>mathphysconstants_mod</title>
<g id="a_node4"><a xlink:href="mathphysconstants_mod.html" xlink:title="mathphysconstants_mod">
<polygon fill="gray" stroke="black" points="173.5,-305 21.5,-305 21.5,-269 173.5,-269 173.5,-305"/>
<text text-anchor="middle" x="97.5" y="-283.3" font-family="Times,serif" font-size="14.00">mathphysconstants_mod</text>
</a>
</g>
</g>
<!-- obsSubSpaceData_mod&#45;&gt;mathphysconstants_mod -->
<g id="edge3" class="edge">
<title>obsSubSpaceData_mod&#45;&gt;mathphysconstants_mod</title>
<path fill="none" stroke="black" d="M181,-484.62C177.8,-454.04 168.42,-389.31 143.5,-341 138.2,-330.72 130.5,-320.78 122.92,-312.33"/>
<polygon fill="black" stroke="black" points="125.45,-309.92 116.05,-305.03 120.35,-314.72 125.45,-309.92"/>
</g>
<!-- midasmpi_mod -->
<g id="node5" class="node">
<title>midasmpi_mod</title>
<g id="a_node5"><a xlink:href="../modules/midasmpi_mod.svg" xlink:title="midasmpi_mod">
<polygon fill="none" stroke="red" points="231.5,-233 129.5,-233 129.5,-197 231.5,-197 231.5,-233"/>
<text text-anchor="middle" x="180.5" y="-211.3" font-family="Times,serif" font-size="14.00">midasmpi_mod</text>
</a>
</g>
</g>
<!-- obsSubSpaceData_mod&#45;&gt;midasmpi_mod -->
<g id="edge4" class="edge">
<title>obsSubSpaceData_mod&#45;&gt;midasmpi_mod</title>
<path fill="none" stroke="black" d="M184.53,-484.84C185.65,-474.48 186.94,-461 187.5,-449 191,-374.65 185.86,-286.87 182.68,-243.33"/>
<polygon fill="black" stroke="black" points="186.17,-242.96 181.93,-233.25 179.19,-243.49 186.17,-242.96"/>
</g>
<!-- obsspacedata_mod -->
<g id="node6" class="node">
<title>obsspacedata_mod</title>
<g id="a_node6"><a xlink:href="../modules/obsspacedata_mod.svg" xlink:title="obsspacedata_mod">
<polygon fill="none" stroke="red" points="319,-161 200,-161 200,-125 319,-125 319,-161"/>
<text text-anchor="middle" x="259.5" y="-139.3" font-family="Times,serif" font-size="14.00">obsspacedata_mod</text>
</a>
</g>
</g>
<!-- obsSubSpaceData_mod&#45;&gt;obsspacedata_mod -->
<g id="edge5" class="edge">
<title>obsSubSpaceData_mod&#45;&gt;obsspacedata_mod</title>
<path fill="none" stroke="black" d="M199.21,-484.81C221.85,-459.62 259.5,-410.2 259.5,-360 259.5,-360 259.5,-360 259.5,-286 259.5,-246 259.5,-199.65 259.5,-171.08"/>
<polygon fill="black" stroke="black" points="263,-171.05 259.5,-161.05 256,-171.05 263,-171.05"/>
</g>
<!-- utilities_mod -->
<g id="node7" class="node">
<title>utilities_mod</title>
<g id="a_node7"><a xlink:href="../modules/utilities_mod.svg" xlink:title="utilities_mod">
<polygon fill="none" stroke="red" points="392,-89 303,-89 303,-53 392,-53 392,-89"/>
<text text-anchor="middle" x="347.5" y="-67.3" font-family="Times,serif" font-size="14.00">utilities_mod</text>
</a>
</g>
</g>
<!-- obsSubSpaceData_mod&#45;&gt;utilities_mod -->
<g id="edge6" class="edge">
<title>obsSubSpaceData_mod&#45;&gt;utilities_mod</title>
<path fill="none" stroke="black" d="M229.34,-484.95C278.12,-463.82 347.5,-422.74 347.5,-360 347.5,-360 347.5,-360 347.5,-214 347.5,-174 347.5,-127.65 347.5,-99.08"/>
<polygon fill="black" stroke="black" points="351,-99.05 347.5,-89.05 344,-99.05 351,-99.05"/>
</g>
</g>
</svg>
