<?xml version="1.0" encoding="UTF-8" standalone="no"?>
<!DOCTYPE svg PUBLIC "-//W3C//DTD SVG 1.1//EN"
 "http://www.w3.org/Graphics/SVG/1.1/DTD/svg11.dtd">
<!-- Generated by graphviz version 3.0.0 (20220315.2325)
 -->
<!-- Title: obsSpaceDiag_mod Pages: 1 -->
<svg width="433pt" height="241pt"
 viewBox="0.00 0.00 433.00 241.00" xmlns="http://www.w3.org/2000/svg" xmlns:xlink="http://www.w3.org/1999/xlink">
<g id="graph0" class="graph" transform="scale(1 1) rotate(0) translate(4 237)">
<title>obsSpaceDiag_mod</title>
<polygon fill="white" stroke="transparent" points="-4,4 -4,-237 429,-237 429,4 -4,4"/>
<text text-anchor="middle" x="212.5" y="-217.8" font-family="Times,serif" font-size="14.00">Blue boxes indicate modules with reverse dependencies not shown</text>
<text text-anchor="middle" x="212.5" y="-202.8" font-family="Times,serif" font-size="14.00">Higher level reverse dependencies can be shown by clicking on a blue box</text>
<text text-anchor="middle" x="212.5" y="-187.8" font-family="Times,serif" font-size="14.00">Green boxes are programs</text>
<!-- obsSpaceDiag_mod -->
<g id="node1" class="node">
<title>obsSpaceDiag_mod</title>
<g id="a_node1"><a xlink:href="obsSpaceDiag_mod.html" xlink:title="obsSpaceDiag_mod">
<polygon fill="none" stroke="black" points="282.75,-36 157.75,-36 157.75,0 282.75,0 282.75,-36"/>
<text text-anchor="middle" x="220.25" y="-14.3" font-family="Times,serif" font-size="14.00">obsSpaceDiag_mod</text>
</a>
</g>
</g>
<!-- backgroundcheck_mod -->
<g id="node2" class="node">
<title>backgroundcheck_mod</title>
<g id="a_node2"><a xlink:href="../modules/backgroundcheck_mod_rev.svg" xlink:title="backgroundcheck_mod">
<polygon fill="none" stroke="blue" points="242.25,-108 98.25,-108 98.25,-72 242.25,-72 242.25,-108"/>
<text text-anchor="middle" x="170.25" y="-86.3" font-family="Times,serif" font-size="14.00">backgroundcheck_mod</text>
</a>
</g>
</g>
<!-- backgroundcheck_mod&#45;&gt;obsSpaceDiag_mod -->
<g id="edge1" class="edge">
<title>backgroundcheck_mod&#45;&gt;obsSpaceDiag_mod</title>
<path fill="none" stroke="black" d="M187.37,-65.03C194.16,-55.52 201.82,-44.8 208.03,-36.1"/>
<ellipse fill="black" stroke="black" cx="184.93" cy="-68.44" rx="4" ry="4"/>
</g>
<!-- midas_midas_var -->
<g id="node3" class="node">
<title>midas_midas_var</title>
<g id="a_node3"><a xlink:href="../programs/midas_var.html" xlink:title="midas_midas_var">
<polygon fill="gray" stroke="green" points="326.75,-180 213.75,-180 213.75,-144 326.75,-144 326.75,-180"/>
<text text-anchor="middle" x="270.25" y="-158.3" font-family="Times,serif" font-size="14.00">midas_midas_var</text>
</a>
</g>
</g>
<!-- midas_midas_var&#45;&gt;obsSpaceDiag_mod -->
<g id="edge2" class="edge">
<title>midas_midas_var&#45;&gt;obsSpaceDiag_mod</title>
<path fill="none" stroke="black" d="M267.01,-135.47C264.18,-117.34 259.25,-92.64 251.25,-72 246.4,-59.48 238.81,-46.44 232.36,-36.43"/>
<ellipse fill="black" stroke="black" cx="267.65" cy="-139.85" rx="4" ry="4"/>
</g>
</g>
</svg>
