<?xml version="1.0" encoding="UTF-8" standalone="no"?>
<!DOCTYPE svg PUBLIC "-//W3C//DTD SVG 1.1//EN"
 "http://www.w3.org/Graphics/SVG/1.1/DTD/svg11.dtd">
<!-- Generated by graphviz version 3.0.0 (20220315.2325)
 -->
<!-- Title: obsTimeInterp_mod Pages: 1 -->
<svg width="511pt" height="601pt"
 viewBox="0.00 0.00 510.50 601.00" xmlns="http://www.w3.org/2000/svg" xmlns:xlink="http://www.w3.org/1999/xlink">
<g id="graph0" class="graph" transform="scale(1 1) rotate(0) translate(4 597)">
<title>obsTimeInterp_mod</title>
<polygon fill="white" stroke="transparent" points="-4,4 -4,-597 506.5,-597 506.5,4 -4,4"/>
<text text-anchor="middle" x="251.25" y="-577.8" font-family="Times,serif" font-size="14.00">Blue boxes indicate modules with reverse dependencies not shown</text>
<text text-anchor="middle" x="251.25" y="-562.8" font-family="Times,serif" font-size="14.00">Higher level reverse dependencies can be shown by clicking on a blue box</text>
<text text-anchor="middle" x="251.25" y="-547.8" font-family="Times,serif" font-size="14.00">Green boxes are programs</text>
<!-- obsTimeInterp_mod -->
<g id="node1" class="node">
<title>obsTimeInterp_mod</title>
<g id="a_node1"><a xlink:href="obsTimeInterp_mod.html" xlink:title="obsTimeInterp_mod">
<polygon fill="none" stroke="black" points="299.5,-36 170.5,-36 170.5,0 299.5,0 299.5,-36"/>
<text text-anchor="middle" x="235" y="-14.3" font-family="Times,serif" font-size="14.00">obsTimeInterp_mod</text>
</a>
</g>
</g>
<!-- innovation_mod -->
<g id="node2" class="node">
<title>innovation_mod</title>
<g id="a_node2"><a xlink:href="../modules/innovation_mod_rev.svg" xlink:title="innovation_mod">
<polygon fill="none" stroke="blue" points="106,-108 0,-108 0,-72 106,-72 106,-108"/>
<text text-anchor="middle" x="53" y="-86.3" font-family="Times,serif" font-size="14.00">innovation_mod</text>
</a>
</g>
</g>
<!-- innovation_mod&#45;&gt;obsTimeInterp_mod -->
<g id="edge1" class="edge">
<title>innovation_mod&#45;&gt;obsTimeInterp_mod</title>
<path fill="none" stroke="black" d="M104.99,-69C132.05,-58.6 164.77,-46.01 190.62,-36.07"/>
<ellipse fill="black" stroke="black" cx="101.26" cy="-70.44" rx="4" ry="4"/>
</g>
<!-- minimization_mod -->
<g id="node3" class="node">
<title>minimization_mod</title>
<g id="a_node3"><a xlink:href="../modules/minimization_mod_rev.svg" xlink:title="minimization_mod">
<polygon fill="none" stroke="blue" points="169,-180 47,-180 47,-144 169,-144 169,-180"/>
<text text-anchor="middle" x="108" y="-158.3" font-family="Times,serif" font-size="14.00">minimization_mod</text>
</a>
</g>
</g>
<!-- minimization_mod&#45;&gt;obsTimeInterp_mod -->
<g id="edge2" class="edge">
<title>minimization_mod&#45;&gt;obsTimeInterp_mod</title>
<path fill="none" stroke="black" d="M126.9,-137.6C141.79,-119.41 163.26,-93.7 183,-72 194.1,-59.79 207.1,-46.54 217.33,-36.35"/>
<ellipse fill="black" stroke="black" cx="124.26" cy="-140.84" rx="4" ry="4"/>
</g>
<!-- obsspaceerrorstddev_mod -->
<g id="node4" class="node">
<title>obsspaceerrorstddev_mod</title>
<g id="a_node4"><a xlink:href="../modules/obsspaceerrorstddev_mod_rev.svg" xlink:title="obsspaceerrorstddev_mod">
<polygon fill="none" stroke="blue" points="207.5,-252 48.5,-252 48.5,-216 207.5,-216 207.5,-252"/>
<text text-anchor="middle" x="128" y="-230.3" font-family="Times,serif" font-size="14.00">obsspaceerrorstddev_mod</text>
</a>
</g>
</g>
<!-- obsspaceerrorstddev_mod&#45;&gt;obsTimeInterp_mod -->
<g id="edge3" class="edge">
<title>obsspaceerrorstddev_mod&#45;&gt;obsTimeInterp_mod</title>
<path fill="none" stroke="black" d="M153.53,-210.17C162.2,-201.4 171.36,-190.88 178,-180 193.3,-154.95 219.03,-72.34 229.9,-36.19"/>
<ellipse fill="black" stroke="black" cx="150.51" cy="-213.13" rx="4" ry="4"/>
</g>
<!-- statetocolumn_mod -->
<g id="node5" class="node">
<title>statetocolumn_mod</title>
<g id="a_node5"><a xlink:href="../modules/statetocolumn_mod_rev.svg" xlink:title="statetocolumn_mod">
<polygon fill="none" stroke="blue" points="244.5,-324 119.5,-324 119.5,-288 244.5,-288 244.5,-324"/>
<text text-anchor="middle" x="182" y="-302.3" font-family="Times,serif" font-size="14.00">statetocolumn_mod</text>
</a>
</g>
</g>
<!-- statetocolumn_mod&#45;&gt;obsTimeInterp_mod -->
<g id="edge4" class="edge">
<title>statetocolumn_mod&#45;&gt;obsTimeInterp_mod</title>
<path fill="none" stroke="black" d="M200.69,-281.33C206.62,-272.59 212.52,-262.3 216,-252 242.05,-174.91 238.95,-75.65 236.38,-36.24"/>
<ellipse fill="black" stroke="black" cx="198.3" cy="-284.71" rx="4" ry="4"/>
</g>
<!-- midas_midas_diaghbht -->
<g id="node6" class="node">
<title>midas_midas_diaghbht</title>
<g id="a_node6"><a xlink:href="../programs/midas_diaghbht.html" xlink:title="midas_midas_diaghbht">
<polygon fill="gray" stroke="green" points="313.5,-396 170.5,-396 170.5,-360 313.5,-360 313.5,-396"/>
<text text-anchor="middle" x="242" y="-374.3" font-family="Times,serif" font-size="14.00">midas_midas_diaghbht</text>
</a>
</g>
</g>
<!-- midas_midas_diaghbht&#45;&gt;obsTimeInterp_mod -->
<g id="edge5" class="edge">
<title>midas_midas_diaghbht&#45;&gt;obsTimeInterp_mod</title>
<path fill="none" stroke="black" d="M250.86,-352.04C260.02,-323.96 273,-276.8 273,-235 273,-235 273,-235 273,-161 273,-114.55 253.79,-62.38 242.69,-36.09"/>
<ellipse fill="black" stroke="black" cx="249.54" cy="-355.98" rx="4" ry="4"/>
</g>
<!-- midas_midas_letkf -->
<g id="node7" class="node">
<title>midas_midas_letkf</title>
<g id="a_node7"><a xlink:href="../programs/midas_letkf.html" xlink:title="midas_midas_letkf">
<polygon fill="gray" stroke="green" points="403,-468 281,-468 281,-432 403,-432 403,-468"/>
<text text-anchor="middle" x="342" y="-446.3" font-family="Times,serif" font-size="14.00">midas_midas_letkf</text>
</a>
</g>
</g>
<!-- midas_midas_letkf&#45;&gt;obsTimeInterp_mod -->
<g id="edge6" class="edge">
<title>midas_midas_letkf&#45;&gt;obsTimeInterp_mod</title>
<path fill="none" stroke="black" d="M342,-423.78C342,-395.39 342,-347.89 342,-307 342,-307 342,-307 342,-161 342,-106.67 291.43,-59.93 259.82,-36.02"/>
<ellipse fill="black" stroke="black" cx="342" cy="-427.95" rx="4" ry="4"/>
</g>
<!-- midas_midas_prepcma -->
<g id="node8" class="node">
<title>midas_midas_prepcma</title>
<g id="a_node8"><a xlink:href="../programs/midas_prepcma.html" xlink:title="midas_midas_prepcma">
<polygon fill="gray" stroke="green" points="502.5,-540 359.5,-540 359.5,-504 502.5,-504 502.5,-540"/>
<text text-anchor="middle" x="431" y="-518.3" font-family="Times,serif" font-size="14.00">midas_midas_prepcma</text>
</a>
</g>
</g>
<!-- midas_midas_prepcma&#45;&gt;obsTimeInterp_mod -->
<g id="edge7" class="edge">
<title>midas_midas_prepcma&#45;&gt;obsTimeInterp_mod</title>
<path fill="none" stroke="black" d="M431,-495.78C431,-467.39 431,-419.89 431,-379 431,-379 431,-379 431,-161 431,-94.29 355.63,-55.71 298.36,-36.03"/>
<ellipse fill="black" stroke="black" cx="431" cy="-499.95" rx="4" ry="4"/>
</g>
</g>
</svg>
