<?xml version="1.0" encoding="UTF-8" standalone="no"?>
<!DOCTYPE svg PUBLIC "-//W3C//DTD SVG 1.1//EN"
 "http://www.w3.org/Graphics/SVG/1.1/DTD/svg11.dtd">
<!-- Generated by graphviz version 3.0.0 (20220315.2325)
 -->
<!-- Title: obsTimeInterp_mod Pages: 1 -->
<svg width="389pt" height="457pt"
 viewBox="0.00 0.00 388.50 457.00" xmlns="http://www.w3.org/2000/svg" xmlns:xlink="http://www.w3.org/1999/xlink">
<g id="graph0" class="graph" transform="scale(1 1) rotate(0) translate(4 453)">
<title>obsTimeInterp_mod</title>
<polygon fill="white" stroke="transparent" points="-4,4 -4,-453 384.5,-453 384.5,4 -4,4"/>
<text text-anchor="middle" x="190.25" y="-37.8" font-family="Times,serif" font-size="14.00">Red boxes indicate modules with dependencies not shown</text>
<text text-anchor="middle" x="190.25" y="-22.8" font-family="Times,serif" font-size="14.00">Lower level dependencies can be shown by clicking on a red box</text>
<text text-anchor="middle" x="190.25" y="-7.8" font-family="Times,serif" font-size="14.00">Shaded boxes indicate modules with no dependencies</text>
<!-- obsTimeInterp_mod -->
<g id="node1" class="node">
<title>obsTimeInterp_mod</title>
<g id="a_node1"><a xlink:href="obsTimeInterp_mod.html" xlink:title="obsTimeInterp_mod">
<polygon fill="none" stroke="black" points="257.5,-449 128.5,-449 128.5,-413 257.5,-413 257.5,-449"/>
<text text-anchor="middle" x="193" y="-427.3" font-family="Times,serif" font-size="14.00">obsTimeInterp_mod</text>
</a>
</g>
</g>
<!-- midasmpi_mod -->
<g id="node2" class="node">
<title>midasmpi_mod</title>
<g id="a_node2"><a xlink:href="../modules/midasmpi_mod.svg" xlink:title="midasmpi_mod">
<polygon fill="none" stroke="red" points="102,-377 0,-377 0,-341 102,-341 102,-377"/>
<text text-anchor="middle" x="51" y="-355.3" font-family="Times,serif" font-size="14.00">midasmpi_mod</text>
</a>
</g>
</g>
<!-- obsTimeInterp_mod&#45;&gt;midasmpi_mod -->
<g id="edge1" class="edge">
<title>obsTimeInterp_mod&#45;&gt;midasmpi_mod</title>
<path fill="none" stroke="black" d="M158.26,-412.88C139.18,-403.47 115.32,-391.71 94.95,-381.67"/>
<polygon fill="black" stroke="black" points="96.39,-378.47 85.87,-377.19 93.29,-384.75 96.39,-378.47"/>
</g>
<!-- obsfamilylist_mod -->
<g id="node3" class="node">
<title>obsfamilylist_mod</title>
<g id="a_node3"><a xlink:href="obsfamilylist_mod.html" xlink:title="obsfamilylist_mod">
<polygon fill="gray" stroke="black" points="164.5,-305 45.5,-305 45.5,-269 164.5,-269 164.5,-305"/>
<text text-anchor="middle" x="105" y="-283.3" font-family="Times,serif" font-size="14.00">obsfamilylist_mod</text>
</a>
</g>
</g>
<!-- obsTimeInterp_mod&#45;&gt;obsfamilylist_mod -->
<g id="edge2" class="edge">
<title>obsTimeInterp_mod&#45;&gt;obsfamilylist_mod</title>
<path fill="none" stroke="black" d="M182.39,-412.87C167.12,-388.24 138.86,-342.64 121.04,-313.88"/>
<polygon fill="black" stroke="black" points="123.9,-311.85 115.65,-305.19 117.95,-315.53 123.9,-311.85"/>
</g>
<!-- obsspacedata_mod -->
<g id="node4" class="node">
<title>obsspacedata_mod</title>
<g id="a_node4"><a xlink:href="../modules/obsspacedata_mod.svg" xlink:title="obsspacedata_mod">
<polygon fill="none" stroke="red" points="227.5,-233 108.5,-233 108.5,-197 227.5,-197 227.5,-233"/>
<text text-anchor="middle" x="168" y="-211.3" font-family="Times,serif" font-size="14.00">obsspacedata_mod</text>
</a>
</g>
</g>
<!-- obsTimeInterp_mod&#45;&gt;obsspacedata_mod -->
<g id="edge3" class="edge">
<title>obsTimeInterp_mod&#45;&gt;obsspacedata_mod</title>
<path fill="none" stroke="black" d="M191,-412.85C186.67,-375.83 176.43,-288.18 171.2,-243.39"/>
<polygon fill="black" stroke="black" points="174.65,-242.76 170.01,-233.23 167.7,-243.57 174.65,-242.76"/>
</g>
<!-- timecoord_mod -->
<g id="node5" class="node">
<title>timecoord_mod</title>
<g id="a_node5"><a xlink:href="../modules/timecoord_mod.svg" xlink:title="timecoord_mod">
<polygon fill="none" stroke="red" points="308,-161 204,-161 204,-125 308,-125 308,-161"/>
<text text-anchor="middle" x="256" y="-139.3" font-family="Times,serif" font-size="14.00">timecoord_mod</text>
</a>
</g>
</g>
<!-- obsTimeInterp_mod&#45;&gt;timecoord_mod -->
<g id="edge4" class="edge">
<title>obsTimeInterp_mod&#45;&gt;timecoord_mod</title>
<path fill="none" stroke="black" d="M196.75,-412.97C207.28,-365.19 237.14,-229.62 249.99,-171.27"/>
<polygon fill="black" stroke="black" points="253.45,-171.83 252.19,-161.31 246.62,-170.32 253.45,-171.83"/>
</g>
<!-- utilities_mod -->
<g id="node6" class="node">
<title>utilities_mod</title>
<g id="a_node6"><a xlink:href="../modules/utilities_mod.svg" xlink:title="utilities_mod">
<polygon fill="none" stroke="red" points="380.5,-89 291.5,-89 291.5,-53 380.5,-53 380.5,-89"/>
<text text-anchor="middle" x="336" y="-67.3" font-family="Times,serif" font-size="14.00">utilities_mod</text>
</a>
</g>
</g>
<!-- obsTimeInterp_mod&#45;&gt;utilities_mod -->
<g id="edge5" class="edge">
<title>obsTimeInterp_mod&#45;&gt;utilities_mod</title>
<path fill="none" stroke="black" d="M230.57,-412.83C272.94,-390.58 336,-347.48 336,-288 336,-288 336,-288 336,-214 336,-174 336,-127.65 336,-99.08"/>
<polygon fill="black" stroke="black" points="339.5,-99.05 336,-89.05 332.5,-99.05 339.5,-99.05"/>
</g>
</g>
</svg>
