<?xml version="1.0" encoding="UTF-8" standalone="no"?>
<!DOCTYPE svg PUBLIC "-//W3C//DTD SVG 1.1//EN"
 "http://www.w3.org/Graphics/SVG/1.1/DTD/svg11.dtd">
<!-- Generated by graphviz version 3.0.0 (20220315.2325)
 -->
<!-- Title: obsUtil_mod Pages: 1 -->
<svg width="468pt" height="601pt"
 viewBox="0.00 0.00 468.00 601.00" xmlns="http://www.w3.org/2000/svg" xmlns:xlink="http://www.w3.org/1999/xlink">
<g id="graph0" class="graph" transform="scale(1 1) rotate(0) translate(4 597)">
<title>obsUtil_mod</title>
<polygon fill="white" stroke="transparent" points="-4,4 -4,-597 464,-597 464,4 -4,4"/>
<text text-anchor="middle" x="230" y="-37.8" font-family="Times,serif" font-size="14.00">Red boxes indicate modules with dependencies not shown</text>
<text text-anchor="middle" x="230" y="-22.8" font-family="Times,serif" font-size="14.00">Lower level dependencies can be shown by clicking on a red box</text>
<text text-anchor="middle" x="230" y="-7.8" font-family="Times,serif" font-size="14.00">Shaded boxes indicate modules with no dependencies</text>
<!-- obsUtil_mod -->
<g id="node1" class="node">
<title>obsUtil_mod</title>
<g id="a_node1"><a xlink:href="obsUtil_mod.html" xlink:title="obsUtil_mod">
<polygon fill="none" stroke="black" points="245.5,-593 157.5,-593 157.5,-557 245.5,-557 245.5,-593"/>
<text text-anchor="middle" x="201.5" y="-571.3" font-family="Times,serif" font-size="14.00">obsUtil_mod</text>
</a>
</g>
</g>
<!-- bufr_mod -->
<g id="node2" class="node">
<title>bufr_mod</title>
<g id="a_node2"><a xlink:href="bufr_mod.html" xlink:title="bufr_mod">
<polygon fill="gray" stroke="black" points="71,-521 0,-521 0,-485 71,-485 71,-521"/>
<text text-anchor="middle" x="35.5" y="-499.3" font-family="Times,serif" font-size="14.00">bufr_mod</text>
</a>
</g>
</g>
<!-- obsUtil_mod&#45;&gt;bufr_mod -->
<g id="edge1" class="edge">
<title>obsUtil_mod&#45;&gt;bufr_mod</title>
<path fill="none" stroke="black" d="M160.89,-556.88C136.55,-546.61 105.56,-533.54 80.48,-522.97"/>
<polygon fill="black" stroke="black" points="81.75,-519.71 71.18,-519.05 79.03,-526.16 81.75,-519.71"/>
</g>
<!-- codeprecision_mod -->
<g id="node3" class="node">
<title>codeprecision_mod</title>
<g id="a_node3"><a xlink:href="codeprecision_mod.html" xlink:title="codeprecision_mod">
<polygon fill="gray" stroke="black" points="135,-449 12,-449 12,-413 135,-413 135,-449"/>
<text text-anchor="middle" x="73.5" y="-427.3" font-family="Times,serif" font-size="14.00">codeprecision_mod</text>
</a>
</g>
</g>
<!-- obsUtil_mod&#45;&gt;codeprecision_mod -->
<g id="edge2" class="edge">
<title>obsUtil_mod&#45;&gt;codeprecision_mod</title>
<path fill="none" stroke="black" d="M183.86,-556.63C173.64,-546.42 160.64,-533.17 149.5,-521 130.11,-499.82 108.96,-474.89 93.91,-456.82"/>
<polygon fill="black" stroke="black" points="96.53,-454.49 87.45,-449.03 91.14,-458.96 96.53,-454.49"/>
</g>
<!-- codtyp_mod -->
<g id="node4" class="node">
<title>codtyp_mod</title>
<g id="a_node4"><a xlink:href="../modules/codtyp_mod.svg" xlink:title="codtyp_mod">
<polygon fill="none" stroke="red" points="173,-377 88,-377 88,-341 173,-341 173,-377"/>
<text text-anchor="middle" x="130.5" y="-355.3" font-family="Times,serif" font-size="14.00">codtyp_mod</text>
</a>
</g>
</g>
<!-- obsUtil_mod&#45;&gt;codtyp_mod -->
<g id="edge3" class="edge">
<title>obsUtil_mod&#45;&gt;codtyp_mod</title>
<path fill="none" stroke="black" d="M195.81,-556.85C183.48,-519.68 154.2,-431.44 139.4,-386.82"/>
<polygon fill="black" stroke="black" points="142.69,-385.62 136.22,-377.23 136.04,-387.83 142.69,-385.62"/>
</g>
<!-- mathphysconstants_mod -->
<g id="node5" class="node">
<title>mathphysconstants_mod</title>
<g id="a_node5"><a xlink:href="mathphysconstants_mod.html" xlink:title="mathphysconstants_mod">
<polygon fill="gray" stroke="black" points="211.5,-305 59.5,-305 59.5,-269 211.5,-269 211.5,-305"/>
<text text-anchor="middle" x="135.5" y="-283.3" font-family="Times,serif" font-size="14.00">mathphysconstants_mod</text>
</a>
</g>
</g>
<!-- obsUtil_mod&#45;&gt;mathphysconstants_mod -->
<g id="edge4" class="edge">
<title>obsUtil_mod&#45;&gt;mathphysconstants_mod</title>
<path fill="none" stroke="black" d="M203.53,-556.76C207.49,-516.93 213.3,-416.16 181.5,-341 177.11,-330.63 169.89,-320.83 162.46,-312.55"/>
<polygon fill="black" stroke="black" points="164.79,-309.93 155.36,-305.11 159.73,-314.76 164.79,-309.93"/>
</g>
<!-- obsspacedata_mod -->
<g id="node6" class="node">
<title>obsspacedata_mod</title>
<g id="a_node6"><a xlink:href="../modules/obsspacedata_mod.svg" xlink:title="obsspacedata_mod">
<polygon fill="none" stroke="red" points="274,-233 155,-233 155,-197 274,-197 274,-233"/>
<text text-anchor="middle" x="214.5" y="-211.3" font-family="Times,serif" font-size="14.00">obsspacedata_mod</text>
</a>
</g>
</g>
<!-- obsUtil_mod&#45;&gt;obsspacedata_mod -->
<g id="edge5" class="edge">
<title>obsUtil_mod&#45;&gt;obsspacedata_mod</title>
<path fill="none" stroke="black" d="M209.19,-556.91C220.29,-530.62 239.5,-478.45 239.5,-432 239.5,-432 239.5,-432 239.5,-358 239.5,-317.6 229.56,-271.71 222.22,-243.3"/>
<polygon fill="black" stroke="black" points="225.52,-242.08 219.56,-233.32 218.75,-243.88 225.52,-242.08"/>
</g>
<!-- obsvariabletransforms_mod -->
<g id="node7" class="node">
<title>obsvariabletransforms_mod</title>
<g id="a_node7"><a xlink:href="../modules/obsvariabletransforms_mod.svg" xlink:title="obsvariabletransforms_mod">
<polygon fill="none" stroke="red" points="387.5,-161 217.5,-161 217.5,-125 387.5,-125 387.5,-161"/>
<text text-anchor="middle" x="302.5" y="-139.3" font-family="Times,serif" font-size="14.00">obsvariabletransforms_mod</text>
</a>
</g>
</g>
<!-- obsUtil_mod&#45;&gt;obsvariabletransforms_mod -->
<g id="edge6" class="edge">
<title>obsUtil_mod&#45;&gt;obsvariabletransforms_mod</title>
<path fill="none" stroke="black" d="M224.67,-556.87C254.49,-532.66 302.5,-485.4 302.5,-432 302.5,-432 302.5,-432 302.5,-286 302.5,-246 302.5,-199.65 302.5,-171.08"/>
<polygon fill="black" stroke="black" points="306,-171.05 302.5,-161.05 299,-171.05 306,-171.05"/>
</g>
<!-- utilities_mod -->
<g id="node8" class="node">
<title>utilities_mod</title>
<g id="a_node8"><a xlink:href="../modules/utilities_mod.svg" xlink:title="utilities_mod">
<polygon fill="none" stroke="red" points="460,-89 371,-89 371,-53 460,-53 460,-89"/>
<text text-anchor="middle" x="415.5" y="-67.3" font-family="Times,serif" font-size="14.00">utilities_mod</text>
</a>
</g>
</g>
<!-- obsUtil_mod&#45;&gt;utilities_mod -->
<g id="edge7" class="edge">
<title>obsUtil_mod&#45;&gt;utilities_mod</title>
<path fill="none" stroke="black" d="M245.58,-565.42C308.23,-550.38 415.5,-512.82 415.5,-432 415.5,-432 415.5,-432 415.5,-214 415.5,-174 415.5,-127.65 415.5,-99.08"/>
<polygon fill="black" stroke="black" points="419,-99.05 415.5,-89.05 412,-99.05 419,-99.05"/>
</g>
</g>
</svg>
