<?xml version="1.0" encoding="UTF-8" standalone="no"?>
<!DOCTYPE svg PUBLIC "-//W3C//DTD SVG 1.1//EN"
 "http://www.w3.org/Graphics/SVG/1.1/DTD/svg11.dtd">
<!-- Generated by graphviz version 3.0.0 (20220315.2325)
 -->
<!-- Title: obsUtil_mod Pages: 1 -->
<svg width="433pt" height="529pt"
 viewBox="0.00 0.00 433.00 529.00" xmlns="http://www.w3.org/2000/svg" xmlns:xlink="http://www.w3.org/1999/xlink">
<g id="graph0" class="graph" transform="scale(1 1) rotate(0) translate(4 525)">
<title>obsUtil_mod</title>
<polygon fill="white" stroke="transparent" points="-4,4 -4,-525 429,-525 429,4 -4,4"/>
<text text-anchor="middle" x="212.5" y="-505.8" font-family="Times,serif" font-size="14.00">Blue boxes indicate modules with reverse dependencies not shown</text>
<text text-anchor="middle" x="212.5" y="-490.8" font-family="Times,serif" font-size="14.00">Higher level reverse dependencies can be shown by clicking on a blue box</text>
<text text-anchor="middle" x="212.5" y="-475.8" font-family="Times,serif" font-size="14.00">Green boxes are programs</text>
<!-- obsUtil_mod -->
<g id="node1" class="node">
<title>obsUtil_mod</title>
<g id="a_node1"><a xlink:href="obsUtil_mod.html" xlink:title="obsUtil_mod">
<polygon fill="none" stroke="black" points="254.75,-36 166.75,-36 166.75,0 254.75,0 254.75,-36"/>
<text text-anchor="middle" x="210.75" y="-14.3" font-family="Times,serif" font-size="14.00">obsUtil_mod</text>
</a>
</g>
</g>
<!-- burpfiles_mod -->
<g id="node2" class="node">
<title>burpfiles_mod</title>
<g id="a_node2"><a xlink:href="../modules/burpfiles_mod_rev.svg" xlink:title="burpfiles_mod">
<polygon fill="none" stroke="blue" points="106.75,-108 10.75,-108 10.75,-72 106.75,-72 106.75,-108"/>
<text text-anchor="middle" x="58.75" y="-86.3" font-family="Times,serif" font-size="14.00">burpfiles_mod</text>
</a>
</g>
</g>
<!-- burpfiles_mod&#45;&gt;obsUtil_mod -->
<g id="edge1" class="edge">
<title>burpfiles_mod&#45;&gt;obsUtil_mod</title>
<path fill="none" stroke="black" d="M103.33,-68.47C125.7,-58.17 152.47,-45.84 173.69,-36.07"/>
<ellipse fill="black" stroke="black" cx="99.57" cy="-70.2" rx="4" ry="4"/>
</g>
<!-- burpread_mod -->
<g id="node3" class="node">
<title>burpread_mod</title>
<g id="a_node3"><a xlink:href="../modules/burpread_mod_rev.svg" xlink:title="burpread_mod">
<polygon fill="none" stroke="blue" points="163.25,-180 66.25,-180 66.25,-144 163.25,-144 163.25,-180"/>
<text text-anchor="middle" x="114.75" y="-158.3" font-family="Times,serif" font-size="14.00">burpread_mod</text>
</a>
</g>
</g>
<!-- burpread_mod&#45;&gt;obsUtil_mod -->
<g id="edge2" class="edge">
<title>burpread_mod&#45;&gt;obsUtil_mod</title>
<path fill="none" stroke="black" d="M130.96,-137.03C150.28,-108.45 182.1,-61.39 199.13,-36.19"/>
<ellipse fill="black" stroke="black" cx="128.57" cy="-140.56" rx="4" ry="4"/>
</g>
<!-- obsdbfiles_mod -->
<g id="node4" class="node">
<title>obsdbfiles_mod</title>
<g id="a_node4"><a xlink:href="../modules/obsdbfiles_mod_rev.svg" xlink:title="obsdbfiles_mod">
<polygon fill="none" stroke="blue" points="201.25,-252 98.25,-252 98.25,-216 201.25,-216 201.25,-252"/>
<text text-anchor="middle" x="149.75" y="-230.3" font-family="Times,serif" font-size="14.00">obsdbfiles_mod</text>
</a>
</g>
</g>
<!-- obsdbfiles_mod&#45;&gt;obsUtil_mod -->
<g id="edge3" class="edge">
<title>obsdbfiles_mod&#45;&gt;obsUtil_mod</title>
<path fill="none" stroke="black" d="M160.97,-208.23C164.71,-199.43 168.69,-189.38 171.75,-180 188.53,-128.6 201.7,-65.87 207.51,-36.16"/>
<ellipse fill="black" stroke="black" cx="159.37" cy="-211.92" rx="4" ry="4"/>
</g>
<!-- obsfiles_mod -->
<g id="node5" class="node">
<title>obsfiles_mod</title>
<g id="a_node5"><a xlink:href="../modules/obsfiles_mod_rev.svg" xlink:title="obsfiles_mod">
<polygon fill="none" stroke="blue" points="257.25,-324 168.25,-324 168.25,-288 257.25,-288 257.25,-324"/>
<text text-anchor="middle" x="212.75" y="-302.3" font-family="Times,serif" font-size="14.00">obsfiles_mod</text>
</a>
</g>
</g>
<!-- obsfiles_mod&#45;&gt;obsUtil_mod -->
<g id="edge4" class="edge">
<title>obsfiles_mod&#45;&gt;obsUtil_mod</title>
<path fill="none" stroke="black" d="M212.57,-279.85C212.18,-222.82 211.21,-84.91 210.87,-36.31"/>
<ellipse fill="black" stroke="black" cx="212.6" cy="-283.97" rx="4" ry="4"/>
</g>
<!-- sqlitefiles_mod -->
<g id="node6" class="node">
<title>sqlitefiles_mod</title>
<g id="a_node6"><a xlink:href="../modules/sqlitefiles_mod_rev.svg" xlink:title="sqlitefiles_mod">
<polygon fill="none" stroke="blue" points="335.75,-396 235.75,-396 235.75,-360 335.75,-360 335.75,-396"/>
<text text-anchor="middle" x="285.75" y="-374.3" font-family="Times,serif" font-size="14.00">sqlitefiles_mod</text>
</a>
</g>
</g>
<!-- sqlitefiles_mod&#45;&gt;obsUtil_mod -->
<g id="edge5" class="edge">
<title>sqlitefiles_mod&#45;&gt;obsUtil_mod</title>
<path fill="none" stroke="black" d="M285.75,-351.78C285.75,-323.39 285.75,-275.89 285.75,-235 285.75,-235 285.75,-235 285.75,-161 285.75,-111.09 249.08,-61.55 227.02,-36.27"/>
<ellipse fill="black" stroke="black" cx="285.75" cy="-355.95" rx="4" ry="4"/>
</g>
<!-- sqliteread_mod -->
<g id="node7" class="node">
<title>sqliteread_mod</title>
<g id="a_node7"><a xlink:href="../modules/sqliteread_mod_rev.svg" xlink:title="sqliteread_mod">
<polygon fill="none" stroke="blue" points="414.25,-468 313.25,-468 313.25,-432 414.25,-432 414.25,-468"/>
<text text-anchor="middle" x="363.75" y="-446.3" font-family="Times,serif" font-size="14.00">sqliteread_mod</text>
</a>
</g>
</g>
<!-- sqliteread_mod&#45;&gt;obsUtil_mod -->
<g id="edge6" class="edge">
<title>sqliteread_mod&#45;&gt;obsUtil_mod</title>
<path fill="none" stroke="black" d="M363.75,-423.78C363.75,-395.39 363.75,-347.89 363.75,-307 363.75,-307 363.75,-307 363.75,-161 363.75,-99.94 297.47,-57.74 252.15,-36.03"/>
<ellipse fill="black" stroke="black" cx="363.75" cy="-427.95" rx="4" ry="4"/>
</g>
</g>
</svg>
