<?xml version="1.0" encoding="UTF-8" standalone="no"?>
<!DOCTYPE svg PUBLIC "-//W3C//DTD SVG 1.1//EN"
 "http://www.w3.org/Graphics/SVG/1.1/DTD/svg11.dtd">
<!-- Generated by graphviz version 3.0.0 (20220315.2325)
 -->
<!-- Title: obsVariableTransforms_mod Pages: 1 -->
<svg width="474pt" height="673pt"
 viewBox="0.00 0.00 474.00 673.00" xmlns="http://www.w3.org/2000/svg" xmlns:xlink="http://www.w3.org/1999/xlink">
<g id="graph0" class="graph" transform="scale(1 1) rotate(0) translate(4 669)">
<title>obsVariableTransforms_mod</title>
<polygon fill="white" stroke="transparent" points="-4,4 -4,-669 470,-669 470,4 -4,4"/>
<text text-anchor="middle" x="233" y="-37.8" font-family="Times,serif" font-size="14.00">Red boxes indicate modules with dependencies not shown</text>
<text text-anchor="middle" x="233" y="-22.8" font-family="Times,serif" font-size="14.00">Lower level dependencies can be shown by clicking on a red box</text>
<text text-anchor="middle" x="233" y="-7.8" font-family="Times,serif" font-size="14.00">Shaded boxes indicate modules with no dependencies</text>
<!-- obsVariableTransforms_mod -->
<g id="node1" class="node">
<title>obsVariableTransforms_mod</title>
<g id="a_node1"><a xlink:href="obsVariableTransforms_mod.html" xlink:title="obsVariableTransforms_mod">
<polygon fill="none" stroke="black" points="308.5,-665 132.5,-665 132.5,-629 308.5,-629 308.5,-665"/>
<text text-anchor="middle" x="220.5" y="-643.3" font-family="Times,serif" font-size="14.00">obsVariableTransforms_mod</text>
</a>
</g>
</g>
<!-- bufr_mod -->
<g id="node2" class="node">
<title>bufr_mod</title>
<g id="a_node2"><a xlink:href="bufr_mod.html" xlink:title="bufr_mod">
<polygon fill="gray" stroke="black" points="71,-593 0,-593 0,-557 71,-557 71,-593"/>
<text text-anchor="middle" x="35.5" y="-571.3" font-family="Times,serif" font-size="14.00">bufr_mod</text>
</a>
</g>
</g>
<!-- obsVariableTransforms_mod&#45;&gt;bufr_mod -->
<g id="edge1" class="edge">
<title>obsVariableTransforms_mod&#45;&gt;bufr_mod</title>
<path fill="none" stroke="black" d="M175.24,-628.88C146.41,-617.97 109.21,-603.89 80.44,-593"/>
<polygon fill="black" stroke="black" points="81.62,-589.71 71.03,-589.44 79.14,-596.26 81.62,-589.71"/>
</g>
<!-- codeprecision_mod -->
<g id="node3" class="node">
<title>codeprecision_mod</title>
<g id="a_node3"><a xlink:href="codeprecision_mod.html" xlink:title="codeprecision_mod">
<polygon fill="gray" stroke="black" points="135,-521 12,-521 12,-485 135,-485 135,-521"/>
<text text-anchor="middle" x="73.5" y="-499.3" font-family="Times,serif" font-size="14.00">codeprecision_mod</text>
</a>
</g>
</g>
<!-- obsVariableTransforms_mod&#45;&gt;codeprecision_mod -->
<g id="edge2" class="edge">
<title>obsVariableTransforms_mod&#45;&gt;codeprecision_mod</title>
<path fill="none" stroke="black" d="M194.78,-628.89C180.79,-619.09 163.53,-606.14 149.5,-593 128.28,-573.13 107.04,-547.67 92.43,-529.07"/>
<polygon fill="black" stroke="black" points="95.1,-526.81 86.21,-521.06 89.57,-531.1 95.1,-526.81"/>
</g>
<!-- codtyp_mod -->
<g id="node4" class="node">
<title>codtyp_mod</title>
<g id="a_node4"><a xlink:href="../modules/codtyp_mod.svg" xlink:title="codtyp_mod">
<polygon fill="none" stroke="red" points="173,-449 88,-449 88,-413 173,-413 173,-449"/>
<text text-anchor="middle" x="130.5" y="-427.3" font-family="Times,serif" font-size="14.00">codtyp_mod</text>
</a>
</g>
</g>
<!-- obsVariableTransforms_mod&#45;&gt;codtyp_mod -->
<g id="edge3" class="edge">
<title>obsVariableTransforms_mod&#45;&gt;codtyp_mod</title>
<path fill="none" stroke="black" d="M208.51,-628.88C201.77,-618.75 193.52,-605.5 187.5,-593 165.68,-547.68 147.75,-491.72 138.14,-459.13"/>
<polygon fill="black" stroke="black" points="141.46,-458.04 135.31,-449.41 134.74,-459.99 141.46,-458.04"/>
</g>
<!-- earthconstants_mod -->
<g id="node5" class="node">
<title>earthconstants_mod</title>
<g id="a_node5"><a xlink:href="../modules/earthconstants_mod.svg" xlink:title="earthconstants_mod">
<polygon fill="none" stroke="red" points="211.5,-377 85.5,-377 85.5,-341 211.5,-341 211.5,-377"/>
<text text-anchor="middle" x="148.5" y="-355.3" font-family="Times,serif" font-size="14.00">earthconstants_mod</text>
</a>
</g>
</g>
<!-- obsVariableTransforms_mod&#45;&gt;earthconstants_mod -->
<g id="edge4" class="edge">
<title>obsVariableTransforms_mod&#45;&gt;earthconstants_mod</title>
<path fill="none" stroke="black" d="M219.9,-628.74C218.03,-589.28 210.57,-489.92 181.5,-413 177.95,-403.62 172.66,-394.09 167.34,-385.76"/>
<polygon fill="black" stroke="black" points="170.12,-383.61 161.65,-377.24 164.3,-387.5 170.12,-383.61"/>
</g>
<!-- mathphysconstants_mod -->
<g id="node6" class="node">
<title>mathphysconstants_mod</title>
<g id="a_node6"><a xlink:href="mathphysconstants_mod.html" xlink:title="mathphysconstants_mod">
<polygon fill="gray" stroke="black" points="249.5,-305 97.5,-305 97.5,-269 249.5,-269 249.5,-305"/>
<text text-anchor="middle" x="173.5" y="-283.3" font-family="Times,serif" font-size="14.00">mathphysconstants_mod</text>
</a>
</g>
</g>
<!-- obsVariableTransforms_mod&#45;&gt;mathphysconstants_mod -->
<g id="edge5" class="edge">
<title>obsVariableTransforms_mod&#45;&gt;mathphysconstants_mod</title>
<path fill="none" stroke="black" d="M224.34,-628.61C229.9,-601.94 239.5,-549.27 239.5,-504 239.5,-504 239.5,-504 239.5,-430 239.5,-389.55 238.74,-377.1 220.5,-341 215.32,-330.75 207.66,-320.92 200.03,-312.57"/>
<polygon fill="black" stroke="black" points="202.54,-310.14 193.09,-305.35 197.49,-314.99 202.54,-310.14"/>
</g>
<!-- obsfilter_mod -->
<g id="node7" class="node">
<title>obsfilter_mod</title>
<g id="a_node7"><a xlink:href="../modules/obsfilter_mod.svg" xlink:title="obsfilter_mod">
<polygon fill="none" stroke="red" points="305.5,-233 213.5,-233 213.5,-197 305.5,-197 305.5,-233"/>
<text text-anchor="middle" x="259.5" y="-211.3" font-family="Times,serif" font-size="14.00">obsfilter_mod</text>
</a>
</g>
</g>
<!-- obsVariableTransforms_mod&#45;&gt;obsfilter_mod -->
<g id="edge6" class="edge">
<title>obsVariableTransforms_mod&#45;&gt;obsfilter_mod</title>
<path fill="none" stroke="black" d="M232.31,-628.96C249.01,-603.16 277.5,-552.08 277.5,-504 277.5,-504 277.5,-504 277.5,-358 277.5,-317.9 270.35,-271.92 265.06,-243.42"/>
<polygon fill="black" stroke="black" points="268.46,-242.56 263.14,-233.4 261.58,-243.88 268.46,-242.56"/>
</g>
<!-- obsspacedata_mod -->
<g id="node8" class="node">
<title>obsspacedata_mod</title>
<g id="a_node8"><a xlink:href="../modules/obsspacedata_mod.svg" xlink:title="obsspacedata_mod">
<polygon fill="none" stroke="red" points="393,-161 274,-161 274,-125 393,-125 393,-161"/>
<text text-anchor="middle" x="333.5" y="-139.3" font-family="Times,serif" font-size="14.00">obsspacedata_mod</text>
</a>
</g>
</g>
<!-- obsVariableTransforms_mod&#45;&gt;obsspacedata_mod -->
<g id="edge7" class="edge">
<title>obsVariableTransforms_mod&#45;&gt;obsspacedata_mod</title>
<path fill="none" stroke="black" d="M247.28,-628.91C280.7,-605.25 333.5,-559.14 333.5,-504 333.5,-504 333.5,-504 333.5,-286 333.5,-246 333.5,-199.65 333.5,-171.08"/>
<polygon fill="black" stroke="black" points="337,-171.05 333.5,-161.05 330,-171.05 337,-171.05"/>
</g>
<!-- utilities_mod -->
<g id="node9" class="node">
<title>utilities_mod</title>
<g id="a_node9"><a xlink:href="../modules/utilities_mod.svg" xlink:title="utilities_mod">
<polygon fill="none" stroke="red" points="466,-89 377,-89 377,-53 466,-53 466,-89"/>
<text text-anchor="middle" x="421.5" y="-67.3" font-family="Times,serif" font-size="14.00">utilities_mod</text>
</a>
</g>
</g>
<!-- obsVariableTransforms_mod&#45;&gt;utilities_mod -->
<g id="edge8" class="edge">
<title>obsVariableTransforms_mod&#45;&gt;utilities_mod</title>
<path fill="none" stroke="black" d="M286.87,-629C345.42,-609.53 421.5,-571.29 421.5,-504 421.5,-504 421.5,-504 421.5,-214 421.5,-174 421.5,-127.65 421.5,-99.08"/>
<polygon fill="black" stroke="black" points="425,-99.05 421.5,-89.05 418,-99.05 425,-99.05"/>
</g>
</g>
</svg>
