<?xml version="1.0" encoding="UTF-8" standalone="no"?>
<!DOCTYPE svg PUBLIC "-//W3C//DTD SVG 1.1//EN"
 "http://www.w3.org/Graphics/SVG/1.1/DTD/svg11.dtd">
<!-- Generated by graphviz version 3.0.0 (20220315.2325)
 -->
<!-- Title: obsVariableTransforms_mod Pages: 1 -->
<svg width="449pt" height="601pt"
 viewBox="0.00 0.00 448.50 601.00" xmlns="http://www.w3.org/2000/svg" xmlns:xlink="http://www.w3.org/1999/xlink">
<g id="graph0" class="graph" transform="scale(1 1) rotate(0) translate(4 597)">
<title>obsVariableTransforms_mod</title>
<polygon fill="white" stroke="transparent" points="-4,4 -4,-597 444.5,-597 444.5,4 -4,4"/>
<text text-anchor="middle" x="220.25" y="-577.8" font-family="Times,serif" font-size="14.00">Blue boxes indicate modules with reverse dependencies not shown</text>
<text text-anchor="middle" x="220.25" y="-562.8" font-family="Times,serif" font-size="14.00">Higher level reverse dependencies can be shown by clicking on a blue box</text>
<text text-anchor="middle" x="220.25" y="-547.8" font-family="Times,serif" font-size="14.00">Green boxes are programs</text>
<!-- obsVariableTransforms_mod -->
<g id="node1" class="node">
<title>obsVariableTransforms_mod</title>
<g id="a_node1"><a xlink:href="obsVariableTransforms_mod.html" xlink:title="obsVariableTransforms_mod">
<polygon fill="none" stroke="black" points="307,-36 131,-36 131,0 307,0 307,-36"/>
<text text-anchor="middle" x="219" y="-14.3" font-family="Times,serif" font-size="14.00">obsVariableTransforms_mod</text>
</a>
</g>
</g>
<!-- burpfiles_mod -->
<g id="node2" class="node">
<title>burpfiles_mod</title>
<g id="a_node2"><a xlink:href="../modules/burpfiles_mod_rev.svg" xlink:title="burpfiles_mod">
<polygon fill="none" stroke="blue" points="96,-108 0,-108 0,-72 96,-72 96,-108"/>
<text text-anchor="middle" x="48" y="-86.3" font-family="Times,serif" font-size="14.00">burpfiles_mod</text>
</a>
</g>
</g>
<!-- burpfiles_mod&#45;&gt;obsVariableTransforms_mod -->
<g id="edge1" class="edge">
<title>burpfiles_mod&#45;&gt;obsVariableTransforms_mod</title>
<path fill="none" stroke="black" d="M97.5,-68.74C122.79,-58.38 153.22,-45.93 177.3,-36.07"/>
<ellipse fill="black" stroke="black" cx="93.53" cy="-70.36" rx="4" ry="4"/>
</g>
<!-- burpread_mod -->
<g id="node3" class="node">
<title>burpread_mod</title>
<g id="a_node3"><a xlink:href="../modules/burpread_mod_rev.svg" xlink:title="burpread_mod">
<polygon fill="none" stroke="blue" points="152.5,-180 55.5,-180 55.5,-144 152.5,-144 152.5,-180"/>
<text text-anchor="middle" x="104" y="-158.3" font-family="Times,serif" font-size="14.00">burpread_mod</text>
</a>
</g>
</g>
<!-- burpread_mod&#45;&gt;obsVariableTransforms_mod -->
<g id="edge2" class="edge">
<title>burpread_mod&#45;&gt;obsVariableTransforms_mod</title>
<path fill="none" stroke="black" d="M119.61,-136.77C131.8,-118.43 149.54,-92.91 167,-72 177.58,-59.34 190.58,-46.09 200.93,-36"/>
<ellipse fill="black" stroke="black" cx="117.27" cy="-140.33" rx="4" ry="4"/>
</g>
<!-- obsdbfiles_mod -->
<g id="node4" class="node">
<title>obsdbfiles_mod</title>
<g id="a_node4"><a xlink:href="../modules/obsdbfiles_mod_rev.svg" xlink:title="obsdbfiles_mod">
<polygon fill="none" stroke="blue" points="190.5,-252 87.5,-252 87.5,-216 190.5,-216 190.5,-252"/>
<text text-anchor="middle" x="139" y="-230.3" font-family="Times,serif" font-size="14.00">obsdbfiles_mod</text>
</a>
</g>
</g>
<!-- obsdbfiles_mod&#45;&gt;obsVariableTransforms_mod -->
<g id="edge3" class="edge">
<title>obsdbfiles_mod&#45;&gt;obsVariableTransforms_mod</title>
<path fill="none" stroke="black" d="M149.48,-208.44C153.21,-199.52 157.38,-189.34 161,-180 181.18,-127.92 203,-65.5 213.17,-36.02"/>
<ellipse fill="black" stroke="black" cx="147.89" cy="-212.21" rx="4" ry="4"/>
</g>
<!-- obsfiles_mod -->
<g id="node5" class="node">
<title>obsfiles_mod</title>
<g id="a_node5"><a xlink:href="../modules/obsfiles_mod_rev.svg" xlink:title="obsfiles_mod">
<polygon fill="none" stroke="blue" points="228.5,-324 139.5,-324 139.5,-288 228.5,-288 228.5,-324"/>
<text text-anchor="middle" x="184" y="-302.3" font-family="Times,serif" font-size="14.00">obsfiles_mod</text>
</a>
</g>
</g>
<!-- obsfiles_mod&#45;&gt;obsVariableTransforms_mod -->
<g id="edge4" class="edge">
<title>obsfiles_mod&#45;&gt;obsVariableTransforms_mod</title>
<path fill="none" stroke="black" d="M192.24,-279.62C194.78,-270.94 197.33,-261.12 199,-252 213.59,-172.12 217.59,-74.84 218.64,-36.1"/>
<ellipse fill="black" stroke="black" cx="191.01" cy="-283.7" rx="4" ry="4"/>
</g>
<!-- obsutil_mod -->
<g id="node6" class="node">
<title>obsutil_mod</title>
<g id="a_node6"><a xlink:href="../modules/obsutil_mod_rev.svg" xlink:title="obsutil_mod">
<polygon fill="none" stroke="blue" points="283.5,-396 198.5,-396 198.5,-360 283.5,-360 283.5,-396"/>
<text text-anchor="middle" x="241" y="-374.3" font-family="Times,serif" font-size="14.00">obsutil_mod</text>
</a>
</g>
</g>
<!-- obsutil_mod&#45;&gt;obsVariableTransforms_mod -->
<g id="edge5" class="edge">
<title>obsutil_mod&#45;&gt;obsVariableTransforms_mod</title>
<path fill="none" stroke="black" d="M245.63,-351.41C250.36,-323.06 257,-275.92 257,-235 257,-235 257,-235 257,-161 257,-114.55 237.79,-62.38 226.69,-36.09"/>
<ellipse fill="black" stroke="black" cx="244.91" cy="-355.64" rx="4" ry="4"/>
</g>
<!-- sqlitefiles_mod -->
<g id="node7" class="node">
<title>sqlitefiles_mod</title>
<g id="a_node7"><a xlink:href="../modules/sqlitefiles_mod_rev.svg" xlink:title="sqlitefiles_mod">
<polygon fill="none" stroke="blue" points="362,-468 262,-468 262,-432 362,-432 362,-468"/>
<text text-anchor="middle" x="312" y="-446.3" font-family="Times,serif" font-size="14.00">sqlitefiles_mod</text>
</a>
</g>
</g>
<!-- sqlitefiles_mod&#45;&gt;obsVariableTransforms_mod -->
<g id="edge6" class="edge">
<title>sqlitefiles_mod&#45;&gt;obsVariableTransforms_mod</title>
<path fill="none" stroke="black" d="M312,-423.78C312,-395.39 312,-347.89 312,-307 312,-307 312,-307 312,-161 312,-108.84 267.54,-60.92 240.1,-36.32"/>
<ellipse fill="black" stroke="black" cx="312" cy="-427.95" rx="4" ry="4"/>
</g>
<!-- sqliteread_mod -->
<g id="node8" class="node">
<title>sqliteread_mod</title>
<g id="a_node8"><a xlink:href="../modules/sqliteread_mod_rev.svg" xlink:title="sqliteread_mod">
<polygon fill="none" stroke="blue" points="440.5,-540 339.5,-540 339.5,-504 440.5,-504 440.5,-540"/>
<text text-anchor="middle" x="390" y="-518.3" font-family="Times,serif" font-size="14.00">sqliteread_mod</text>
</a>
</g>
</g>
<!-- sqliteread_mod&#45;&gt;obsVariableTransforms_mod -->
<g id="edge7" class="edge">
<title>sqliteread_mod&#45;&gt;obsVariableTransforms_mod</title>
<path fill="none" stroke="black" d="M390,-495.78C390,-467.39 390,-419.89 390,-379 390,-379 390,-379 390,-161 390,-97.52 319.39,-56.99 268.92,-36.13"/>
<ellipse fill="black" stroke="black" cx="390" cy="-499.95" rx="4" ry="4"/>
</g>
</g>
</svg>
