<?xml version="1.0" encoding="UTF-8" standalone="no"?>
<!DOCTYPE svg PUBLIC "-//W3C//DTD SVG 1.1//EN"
 "http://www.w3.org/Graphics/SVG/1.1/DTD/svg11.dtd">
<!-- Generated by graphviz version 3.0.0 (20220315.2325)
 -->
<!-- Title: oceanMask_mod Pages: 1 -->
<svg width="595pt" height="673pt"
 viewBox="0.00 0.00 594.50 673.00" xmlns="http://www.w3.org/2000/svg" xmlns:xlink="http://www.w3.org/1999/xlink">
<g id="graph0" class="graph" transform="scale(1 1) rotate(0) translate(4 669)">
<title>oceanMask_mod</title>
<polygon fill="white" stroke="transparent" points="-4,4 -4,-669 590.5,-669 590.5,4 -4,4"/>
<text text-anchor="middle" x="293.25" y="-649.8" font-family="Times,serif" font-size="14.00">Blue boxes indicate modules with reverse dependencies not shown</text>
<text text-anchor="middle" x="293.25" y="-634.8" font-family="Times,serif" font-size="14.00">Higher level reverse dependencies can be shown by clicking on a blue box</text>
<text text-anchor="middle" x="293.25" y="-619.8" font-family="Times,serif" font-size="14.00">Green boxes are programs</text>
<!-- oceanMask_mod -->
<g id="node1" class="node">
<title>oceanMask_mod</title>
<g id="a_node1"><a xlink:href="oceanMask_mod.html" xlink:title="oceanMask_mod">
<polygon fill="none" stroke="black" points="345.5,-36 235.5,-36 235.5,0 345.5,0 345.5,-36"/>
<text text-anchor="middle" x="290.5" y="-14.3" font-family="Times,serif" font-size="14.00">oceanMask_mod</text>
</a>
</g>
</g>
<!-- analysiserroroi_mod -->
<g id="node2" class="node">
<title>analysiserroroi_mod</title>
<g id="a_node2"><a xlink:href="../modules/analysiserroroi_mod_rev.svg" xlink:title="analysiserroroi_mod">
<polygon fill="none" stroke="blue" points="129,-108 0,-108 0,-72 129,-72 129,-108"/>
<text text-anchor="middle" x="64.5" y="-86.3" font-family="Times,serif" font-size="14.00">analysiserroroi_mod</text>
</a>
</g>
</g>
<!-- analysiserroroi_mod&#45;&gt;oceanMask_mod -->
<g id="edge1" class="edge">
<title>analysiserroroi_mod&#45;&gt;oceanMask_mod</title>
<path fill="none" stroke="black" d="M127.48,-69.49C161.33,-59.01 202.67,-46.2 235.26,-36.11"/>
<ellipse fill="black" stroke="black" cx="123.32" cy="-70.78" rx="4" ry="4"/>
</g>
<!-- diffusion_mod -->
<g id="node3" class="node">
<title>diffusion_mod</title>
<g id="a_node3"><a xlink:href="../modules/diffusion_mod_rev.svg" xlink:title="diffusion_mod">
<polygon fill="none" stroke="blue" points="186.5,-180 90.5,-180 90.5,-144 186.5,-144 186.5,-180"/>
<text text-anchor="middle" x="138.5" y="-158.3" font-family="Times,serif" font-size="14.00">diffusion_mod</text>
</a>
</g>
</g>
<!-- diffusion_mod&#45;&gt;oceanMask_mod -->
<g id="edge2" class="edge">
<title>diffusion_mod&#45;&gt;oceanMask_mod</title>
<path fill="none" stroke="black" d="M151.36,-136.99C162.51,-117.76 180.04,-90.95 200.5,-72 216.06,-57.58 236.2,-45.27 253.48,-36.15"/>
<ellipse fill="black" stroke="black" cx="149.38" cy="-140.48" rx="4" ry="4"/>
</g>
<!-- ensembleobservations_mod -->
<g id="node4" class="node">
<title>ensembleobservations_mod</title>
<g id="a_node4"><a xlink:href="../modules/ensembleobservations_mod_rev.svg" xlink:title="ensembleobservations_mod">
<polygon fill="none" stroke="blue" points="225,-252 56,-252 56,-216 225,-216 225,-252"/>
<text text-anchor="middle" x="140.5" y="-230.3" font-family="Times,serif" font-size="14.00">ensembleobservations_mod</text>
</a>
</g>
</g>
<!-- ensembleobservations_mod&#45;&gt;oceanMask_mod -->
<g id="edge3" class="edge">
<title>ensembleobservations_mod&#45;&gt;oceanMask_mod</title>
<path fill="none" stroke="black" d="M168.39,-210.44C177.92,-201.69 188.04,-191.11 195.5,-180 224.3,-137.11 210.3,-115.29 238.5,-72 247.22,-58.61 259.7,-45.75 270.24,-36.06"/>
<ellipse fill="black" stroke="black" cx="165.23" cy="-213.25" rx="4" ry="4"/>
</g>
<!-- ensemblestatevector_mod -->
<g id="node5" class="node">
<title>ensemblestatevector_mod</title>
<g id="a_node5"><a xlink:href="../modules/ensemblestatevector_mod_rev.svg" xlink:title="ensemblestatevector_mod">
<polygon fill="none" stroke="blue" points="262.5,-324 104.5,-324 104.5,-288 262.5,-288 262.5,-324"/>
<text text-anchor="middle" x="183.5" y="-302.3" font-family="Times,serif" font-size="14.00">ensemblestatevector_mod</text>
</a>
</g>
</g>
<!-- ensemblestatevector_mod&#45;&gt;oceanMask_mod -->
<g id="edge4" class="edge">
<title>ensemblestatevector_mod&#45;&gt;oceanMask_mod</title>
<path fill="none" stroke="black" d="M210.1,-282.11C218.7,-273.47 227.54,-263.03 233.5,-252 272.6,-179.64 256.44,-151.77 276.5,-72 279.52,-60 283.08,-46.52 285.86,-36.16"/>
<ellipse fill="black" stroke="black" cx="207.1" cy="-285.02" rx="4" ry="4"/>
</g>
<!-- gridstatevectorfileio_mod -->
<g id="node6" class="node">
<title>gridstatevectorfileio_mod</title>
<g id="a_node6"><a xlink:href="../modules/gridstatevectorfileio_mod_rev.svg" xlink:title="gridstatevectorfileio_mod">
<polygon fill="none" stroke="blue" points="300.5,-396 142.5,-396 142.5,-360 300.5,-360 300.5,-396"/>
<text text-anchor="middle" x="221.5" y="-374.3" font-family="Times,serif" font-size="14.00">gridstatevectorfileio_mod</text>
</a>
</g>
</g>
<!-- gridstatevectorfileio_mod&#45;&gt;oceanMask_mod -->
<g id="edge5" class="edge">
<title>gridstatevectorfileio_mod&#45;&gt;oceanMask_mod</title>
<path fill="none" stroke="black" d="M248.25,-354.19C256.86,-345.55 265.67,-335.1 271.5,-324 290.3,-288.19 290.5,-275.45 290.5,-235 290.5,-235 290.5,-235 290.5,-161 290.5,-115.89 290.5,-62.71 290.5,-36.05"/>
<ellipse fill="black" stroke="black" cx="245.24" cy="-357.09" rx="4" ry="4"/>
</g>
<!-- gridstatevector_mod -->
<g id="node7" class="node">
<title>gridstatevector_mod</title>
<g id="a_node7"><a xlink:href="../modules/gridstatevector_mod_rev.svg" xlink:title="gridstatevector_mod">
<polygon fill="none" stroke="blue" points="338.5,-468 208.5,-468 208.5,-432 338.5,-432 338.5,-468"/>
<text text-anchor="middle" x="273.5" y="-446.3" font-family="Times,serif" font-size="14.00">gridstatevector_mod</text>
</a>
</g>
</g>
<!-- gridstatevector_mod&#45;&gt;oceanMask_mod -->
<g id="edge6" class="edge">
<title>gridstatevector_mod&#45;&gt;oceanMask_mod</title>
<path fill="none" stroke="black" d="M292.55,-425.19C298.76,-416.44 305.16,-406.17 309.5,-396 325.38,-358.8 328.5,-347.45 328.5,-307 328.5,-307 328.5,-307 328.5,-161 328.5,-114.55 309.29,-62.38 298.19,-36.09"/>
<ellipse fill="black" stroke="black" cx="290.03" cy="-428.63" rx="4" ry="4"/>
</g>
<!-- oceanobservations_mod -->
<g id="node8" class="node">
<title>oceanobservations_mod</title>
<g id="a_node8"><a xlink:href="../modules/oceanobservations_mod_rev.svg" xlink:title="oceanobservations_mod">
<polygon fill="none" stroke="blue" points="409,-540 260,-540 260,-504 409,-504 409,-540"/>
<text text-anchor="middle" x="334.5" y="-518.3" font-family="Times,serif" font-size="14.00">oceanobservations_mod</text>
</a>
</g>
</g>
<!-- oceanobservations_mod&#45;&gt;oceanMask_mod -->
<g id="edge7" class="edge">
<title>oceanobservations_mod&#45;&gt;oceanMask_mod</title>
<path fill="none" stroke="black" d="M343.64,-496.06C353.1,-468 366.5,-420.86 366.5,-379 366.5,-379 366.5,-379 366.5,-161 366.5,-110.95 329.34,-61.47 306.99,-36.23"/>
<ellipse fill="black" stroke="black" cx="342.28" cy="-500.01" rx="4" ry="4"/>
</g>
<!-- sstbias_mod -->
<g id="node9" class="node">
<title>sstbias_mod</title>
<g id="a_node9"><a xlink:href="../modules/sstbias_mod_rev.svg" xlink:title="sstbias_mod">
<polygon fill="none" stroke="blue" points="478.5,-612 394.5,-612 394.5,-576 478.5,-576 478.5,-612"/>
<text text-anchor="middle" x="436.5" y="-590.3" font-family="Times,serif" font-size="14.00">sstbias_mod</text>
</a>
</g>
</g>
<!-- sstbias_mod&#45;&gt;oceanMask_mod -->
<g id="edge8" class="edge">
<title>sstbias_mod&#45;&gt;oceanMask_mod</title>
<path fill="none" stroke="black" d="M436.5,-567.78C436.5,-539.39 436.5,-491.89 436.5,-451 436.5,-451 436.5,-451 436.5,-161 436.5,-101.07 372.5,-58.25 329.24,-36.15"/>
<ellipse fill="black" stroke="black" cx="436.5" cy="-571.95" rx="4" ry="4"/>
</g>
<!-- midas_midas_letkf -->
<g id="node10" class="node">
<title>midas_midas_letkf</title>
<g id="a_node10"><a xlink:href="../programs/midas_letkf.html" xlink:title="midas_midas_letkf">
<polygon fill="gray" stroke="green" points="586.5,-108 464.5,-108 464.5,-72 586.5,-72 586.5,-108"/>
<text text-anchor="middle" x="525.5" y="-86.3" font-family="Times,serif" font-size="14.00">midas_midas_letkf</text>
</a>
</g>
</g>
<!-- midas_midas_letkf&#45;&gt;oceanMask_mod -->
<g id="edge9" class="edge">
<title>midas_midas_letkf&#45;&gt;oceanMask_mod</title>
<path fill="none" stroke="black" d="M460.27,-69.57C424.19,-58.82 379.83,-45.61 345.51,-35.39"/>
<ellipse fill="black" stroke="black" cx="464.48" cy="-70.82" rx="4" ry="4"/>
</g>
</g>
</svg>
