<?xml version="1.0" encoding="UTF-8" standalone="no"?>
<!DOCTYPE svg PUBLIC "-//W3C//DTD SVG 1.1//EN"
 "http://www.w3.org/Graphics/SVG/1.1/DTD/svg11.dtd">
<!-- Generated by graphviz version 3.0.0 (20220315.2325)
 -->
<!-- Title: oceanBackground_mod Pages: 1 -->
<svg width="439pt" height="529pt"
 viewBox="0.00 0.00 439.00 529.00" xmlns="http://www.w3.org/2000/svg" xmlns:xlink="http://www.w3.org/1999/xlink">
<g id="graph0" class="graph" transform="scale(1 1) rotate(0) translate(4 525)">
<title>oceanBackground_mod</title>
<polygon fill="white" stroke="transparent" points="-4,4 -4,-525 435,-525 435,4 -4,4"/>
<text text-anchor="middle" x="215.5" y="-37.8" font-family="Times,serif" font-size="14.00">Red boxes indicate modules with dependencies not shown</text>
<text text-anchor="middle" x="215.5" y="-22.8" font-family="Times,serif" font-size="14.00">Lower level dependencies can be shown by clicking on a red box</text>
<text text-anchor="middle" x="215.5" y="-7.8" font-family="Times,serif" font-size="14.00">Shaded boxes indicate modules with no dependencies</text>
<!-- oceanBackground_mod -->
<g id="node1" class="node">
<title>oceanBackground_mod</title>
<g id="a_node1"><a xlink:href="oceanBackground_mod.html" xlink:title="oceanBackground_mod">
<polygon fill="none" stroke="black" points="278,-521 132,-521 132,-485 278,-485 278,-521"/>
<text text-anchor="middle" x="205" y="-499.3" font-family="Times,serif" font-size="14.00">oceanBackground_mod</text>
</a>
</g>
</g>
<!-- codtyp_mod -->
<g id="node2" class="node">
<title>codtyp_mod</title>
<g id="a_node2"><a xlink:href="../modules/codtyp_mod.svg" xlink:title="codtyp_mod">
<polygon fill="none" stroke="red" points="85.5,-449 0.5,-449 0.5,-413 85.5,-413 85.5,-449"/>
<text text-anchor="middle" x="43" y="-427.3" font-family="Times,serif" font-size="14.00">codtyp_mod</text>
</a>
</g>
</g>
<!-- oceanBackground_mod&#45;&gt;codtyp_mod -->
<g id="edge1" class="edge">
<title>oceanBackground_mod&#45;&gt;codtyp_mod</title>
<path fill="none" stroke="black" d="M165.37,-484.88C143.22,-475.31 115.44,-463.3 91.94,-453.15"/>
<polygon fill="black" stroke="black" points="93.07,-449.82 82.5,-449.07 90.29,-456.25 93.07,-449.82"/>
</g>
<!-- gridstatevectorfileio_mod -->
<g id="node3" class="node">
<title>gridstatevectorfileio_mod</title>
<g id="a_node3"><a xlink:href="../modules/gridstatevectorfileio_mod.svg" xlink:title="gridstatevectorfileio_mod">
<polygon fill="none" stroke="red" points="158,-377 0,-377 0,-341 158,-341 158,-377"/>
<text text-anchor="middle" x="79" y="-355.3" font-family="Times,serif" font-size="14.00">gridstatevectorfileio_mod</text>
</a>
</g>
</g>
<!-- oceanBackground_mod&#45;&gt;gridstatevectorfileio_mod -->
<g id="edge2" class="edge">
<title>oceanBackground_mod&#45;&gt;gridstatevectorfileio_mod</title>
<path fill="none" stroke="black" d="M189.8,-484.87C167.66,-459.92 126.43,-413.45 100.98,-384.77"/>
<polygon fill="black" stroke="black" points="103.51,-382.35 94.25,-377.19 98.27,-386.99 103.51,-382.35"/>
</g>
<!-- gridstatevector_mod -->
<g id="node4" class="node">
<title>gridstatevector_mod</title>
<g id="a_node4"><a xlink:href="../modules/gridstatevector_mod.svg" xlink:title="gridstatevector_mod">
<polygon fill="none" stroke="red" points="196,-305 66,-305 66,-269 196,-269 196,-305"/>
<text text-anchor="middle" x="131" y="-283.3" font-family="Times,serif" font-size="14.00">gridstatevector_mod</text>
</a>
</g>
</g>
<!-- oceanBackground_mod&#45;&gt;gridstatevector_mod -->
<g id="edge3" class="edge">
<title>oceanBackground_mod&#45;&gt;gridstatevector_mod</title>
<path fill="none" stroke="black" d="M203.04,-484.9C199.15,-454.76 188.85,-390.69 167,-341 162.81,-331.48 156.88,-321.84 151.04,-313.44"/>
<polygon fill="black" stroke="black" points="153.76,-311.24 145.06,-305.2 148.1,-315.35 153.76,-311.24"/>
</g>
<!-- horizontalcoord_mod -->
<g id="node5" class="node">
<title>horizontalcoord_mod</title>
<g id="a_node5"><a xlink:href="../modules/horizontalcoord_mod.svg" xlink:title="horizontalcoord_mod">
<polygon fill="none" stroke="red" points="263,-233 129,-233 129,-197 263,-197 263,-233"/>
<text text-anchor="middle" x="196" y="-211.3" font-family="Times,serif" font-size="14.00">horizontalcoord_mod</text>
</a>
</g>
</g>
<!-- oceanBackground_mod&#45;&gt;horizontalcoord_mod -->
<g id="edge4" class="edge">
<title>oceanBackground_mod&#45;&gt;horizontalcoord_mod</title>
<path fill="none" stroke="black" d="M206.22,-484.82C206.89,-474.46 207.66,-460.98 208,-449 209.56,-393.97 206.89,-288.97 205,-269 204.19,-260.51 202.82,-251.32 201.38,-243.02"/>
<polygon fill="black" stroke="black" points="204.81,-242.31 199.56,-233.1 197.92,-243.57 204.81,-242.31"/>
</g>
<!-- timecoord_mod -->
<g id="node6" class="node">
<title>timecoord_mod</title>
<g id="a_node6"><a xlink:href="../modules/timecoord_mod.svg" xlink:title="timecoord_mod">
<polygon fill="none" stroke="red" points="343,-161 239,-161 239,-125 343,-125 343,-161"/>
<text text-anchor="middle" x="291" y="-139.3" font-family="Times,serif" font-size="14.00">timecoord_mod</text>
</a>
</g>
</g>
<!-- oceanBackground_mod&#45;&gt;timecoord_mod -->
<g id="edge5" class="edge">
<title>oceanBackground_mod&#45;&gt;timecoord_mod</title>
<path fill="none" stroke="black" d="M224.09,-484.77C249.42,-459.91 291,-411.3 291,-360 291,-360 291,-360 291,-286 291,-246 291,-199.65 291,-171.08"/>
<polygon fill="black" stroke="black" points="294.5,-171.05 291,-161.05 287.5,-171.05 294.5,-171.05"/>
</g>
<!-- verticalcoord_mod -->
<g id="node7" class="node">
<title>verticalcoord_mod</title>
<g id="a_node7"><a xlink:href="../modules/verticalcoord_mod.svg" xlink:title="verticalcoord_mod">
<polygon fill="none" stroke="red" points="431,-89 311,-89 311,-53 431,-53 431,-89"/>
<text text-anchor="middle" x="371" y="-67.3" font-family="Times,serif" font-size="14.00">verticalcoord_mod</text>
</a>
</g>
</g>
<!-- oceanBackground_mod&#45;&gt;verticalcoord_mod -->
<g id="edge6" class="edge">
<title>oceanBackground_mod&#45;&gt;verticalcoord_mod</title>
<path fill="none" stroke="black" d="M252.57,-484.84C301.62,-463.73 371,-422.77 371,-360 371,-360 371,-360 371,-214 371,-174 371,-127.65 371,-99.08"/>
<polygon fill="black" stroke="black" points="374.5,-99.05 371,-89.05 367.5,-99.05 374.5,-99.05"/>
</g>
</g>
</svg>
