<?xml version="1.0" encoding="UTF-8" standalone="no"?>
<!DOCTYPE svg PUBLIC "-//W3C//DTD SVG 1.1//EN"
 "http://www.w3.org/Graphics/SVG/1.1/DTD/svg11.dtd">
<!-- Generated by graphviz version 3.0.0 (20220315.2325)
 -->
<!-- Title: oceanMask_mod Pages: 1 -->
<svg width="417pt" height="457pt"
 viewBox="0.00 0.00 417.00 457.00" xmlns="http://www.w3.org/2000/svg" xmlns:xlink="http://www.w3.org/1999/xlink">
<g id="graph0" class="graph" transform="scale(1 1) rotate(0) translate(4 453)">
<title>oceanMask_mod</title>
<polygon fill="white" stroke="transparent" points="-4,4 -4,-453 413,-453 413,4 -4,4"/>
<text text-anchor="middle" x="204.5" y="-37.8" font-family="Times,serif" font-size="14.00">Red boxes indicate modules with dependencies not shown</text>
<text text-anchor="middle" x="204.5" y="-22.8" font-family="Times,serif" font-size="14.00">Lower level dependencies can be shown by clicking on a red box</text>
<text text-anchor="middle" x="204.5" y="-7.8" font-family="Times,serif" font-size="14.00">Shaded boxes indicate modules with no dependencies</text>
<!-- oceanMask_mod -->
<g id="node1" class="node">
<title>oceanMask_mod</title>
<g id="a_node1"><a xlink:href="oceanMask_mod.html" xlink:title="oceanMask_mod">
<polygon fill="none" stroke="black" points="272,-449 162,-449 162,-413 272,-413 272,-449"/>
<text text-anchor="middle" x="217" y="-427.3" font-family="Times,serif" font-size="14.00">oceanMask_mod</text>
</a>
</g>
</g>
<!-- horizontalcoord_mod -->
<g id="node2" class="node">
<title>horizontalcoord_mod</title>
<g id="a_node2"><a xlink:href="../modules/horizontalcoord_mod.svg" xlink:title="horizontalcoord_mod">
<polygon fill="none" stroke="red" points="134,-377 0,-377 0,-341 134,-341 134,-377"/>
<text text-anchor="middle" x="67" y="-355.3" font-family="Times,serif" font-size="14.00">horizontalcoord_mod</text>
</a>
</g>
</g>
<!-- oceanMask_mod&#45;&gt;horizontalcoord_mod -->
<g id="edge1" class="edge">
<title>oceanMask_mod&#45;&gt;horizontalcoord_mod</title>
<path fill="none" stroke="black" d="M180.31,-412.88C159.98,-403.39 134.53,-391.51 112.9,-381.42"/>
<polygon fill="black" stroke="black" points="114.12,-378.13 103.57,-377.07 111.16,-384.47 114.12,-378.13"/>
</g>
<!-- kdtree2_mod -->
<g id="node3" class="node">
<title>kdtree2_mod</title>
<g id="a_node3"><a xlink:href="../modules/kdtree2_mod.svg" xlink:title="kdtree2_mod">
<polygon fill="none" stroke="red" points="188.5,-305 99.5,-305 99.5,-269 188.5,-269 188.5,-305"/>
<text text-anchor="middle" x="144" y="-283.3" font-family="Times,serif" font-size="14.00">kdtree2_mod</text>
</a>
</g>
</g>
<!-- oceanMask_mod&#45;&gt;kdtree2_mod -->
<g id="edge2" class="edge">
<title>oceanMask_mod&#45;&gt;kdtree2_mod</title>
<path fill="none" stroke="black" d="M208.19,-412.87C195.59,-388.35 172.29,-343.03 157.5,-314.26"/>
<polygon fill="black" stroke="black" points="160.52,-312.48 152.84,-305.19 154.3,-315.68 160.52,-312.48"/>
</g>
<!-- midasmpi_mod -->
<g id="node4" class="node">
<title>midasmpi_mod</title>
<g id="a_node4"><a xlink:href="../modules/midasmpi_mod.svg" xlink:title="midasmpi_mod">
<polygon fill="none" stroke="red" points="248,-233 146,-233 146,-197 248,-197 248,-233"/>
<text text-anchor="middle" x="197" y="-211.3" font-family="Times,serif" font-size="14.00">midasmpi_mod</text>
</a>
</g>
</g>
<!-- oceanMask_mod&#45;&gt;midasmpi_mod -->
<g id="edge3" class="edge">
<title>oceanMask_mod&#45;&gt;midasmpi_mod</title>
<path fill="none" stroke="black" d="M215.4,-412.85C211.94,-375.83 203.75,-288.18 199.56,-243.39"/>
<polygon fill="black" stroke="black" points="203.03,-242.86 198.61,-233.23 196.06,-243.51 203.03,-242.86"/>
</g>
<!-- utilities_mod -->
<g id="node5" class="node">
<title>utilities_mod</title>
<g id="a_node5"><a xlink:href="../modules/utilities_mod.svg" xlink:title="utilities_mod">
<polygon fill="none" stroke="red" points="320.5,-161 231.5,-161 231.5,-125 320.5,-125 320.5,-161"/>
<text text-anchor="middle" x="276" y="-139.3" font-family="Times,serif" font-size="14.00">utilities_mod</text>
</a>
</g>
</g>
<!-- oceanMask_mod&#45;&gt;utilities_mod -->
<g id="edge4" class="edge">
<title>oceanMask_mod&#45;&gt;utilities_mod</title>
<path fill="none" stroke="black" d="M220.51,-412.97C230.37,-365.19 258.34,-229.62 270.38,-171.27"/>
<polygon fill="black" stroke="black" points="273.84,-171.81 272.43,-161.31 266.98,-170.39 273.84,-171.81"/>
</g>
<!-- verticalcoord_mod -->
<g id="node6" class="node">
<title>verticalcoord_mod</title>
<g id="a_node6"><a xlink:href="../modules/verticalcoord_mod.svg" xlink:title="verticalcoord_mod">
<polygon fill="none" stroke="red" points="409,-89 289,-89 289,-53 409,-53 409,-89"/>
<text text-anchor="middle" x="349" y="-67.3" font-family="Times,serif" font-size="14.00">verticalcoord_mod</text>
</a>
</g>
</g>
<!-- oceanMask_mod&#45;&gt;verticalcoord_mod -->
<g id="edge5" class="edge">
<title>oceanMask_mod&#45;&gt;verticalcoord_mod</title>
<path fill="none" stroke="black" d="M250.31,-412.87C289.41,-390.09 349,-345.89 349,-288 349,-288 349,-288 349,-214 349,-174 349,-127.65 349,-99.08"/>
<polygon fill="black" stroke="black" points="352.5,-99.05 349,-89.05 345.5,-99.05 352.5,-99.05"/>
</g>
</g>
</svg>
