<?xml version="1.0" encoding="UTF-8" standalone="no"?>
<!DOCTYPE svg PUBLIC "-//W3C//DTD SVG 1.1//EN"
 "http://www.w3.org/Graphics/SVG/1.1/DTD/svg11.dtd">
<!-- Generated by graphviz version 3.0.0 (20220315.2325)
 -->
<!-- Title: oceanObservations_mod Pages: 1 -->
<svg width="758pt" height="673pt"
 viewBox="0.00 0.00 757.50 673.00" xmlns="http://www.w3.org/2000/svg" xmlns:xlink="http://www.w3.org/1999/xlink">
<g id="graph0" class="graph" transform="scale(1 1) rotate(0) translate(4 669)">
<title>oceanObservations_mod</title>
<polygon fill="white" stroke="transparent" points="-4,4 -4,-669 753.5,-669 753.5,4 -4,4"/>
<text text-anchor="middle" x="374.75" y="-37.8" font-family="Times,serif" font-size="14.00">Red boxes indicate modules with dependencies not shown</text>
<text text-anchor="middle" x="374.75" y="-22.8" font-family="Times,serif" font-size="14.00">Lower level dependencies can be shown by clicking on a red box</text>
<text text-anchor="middle" x="374.75" y="-7.8" font-family="Times,serif" font-size="14.00">Shaded boxes indicate modules with no dependencies</text>
<!-- oceanObservations_mod -->
<g id="node1" class="node">
<title>oceanObservations_mod</title>
<g id="a_node1"><a xlink:href="oceanObservations_mod.html" xlink:title="oceanObservations_mod">
<polygon fill="none" stroke="black" points="391.5,-665 239.5,-665 239.5,-629 391.5,-629 391.5,-665"/>
<text text-anchor="middle" x="315.5" y="-643.3" font-family="Times,serif" font-size="14.00">oceanObservations_mod</text>
</a>
</g>
</g>
<!-- bufr_mod -->
<g id="node2" class="node">
<title>bufr_mod</title>
<g id="a_node2"><a xlink:href="bufr_mod.html" xlink:title="bufr_mod">
<polygon fill="gray" stroke="black" points="71,-593 0,-593 0,-557 71,-557 71,-593"/>
<text text-anchor="middle" x="35.5" y="-571.3" font-family="Times,serif" font-size="14.00">bufr_mod</text>
</a>
</g>
</g>
<!-- oceanObservations_mod&#45;&gt;bufr_mod -->
<g id="edge1" class="edge">
<title>oceanObservations_mod&#45;&gt;bufr_mod</title>
<path fill="none" stroke="black" d="M239.39,-630.49C194.35,-620.81 136.34,-607.46 85.5,-593 84.04,-592.58 82.56,-592.15 81.07,-591.71"/>
<polygon fill="black" stroke="black" points="81.73,-588.25 71.14,-588.61 79.64,-594.93 81.73,-588.25"/>
</g>
<!-- codeprecision_mod -->
<g id="node3" class="node">
<title>codeprecision_mod</title>
<g id="a_node3"><a xlink:href="codeprecision_mod.html" xlink:title="codeprecision_mod">
<polygon fill="gray" stroke="black" points="135,-521 12,-521 12,-485 135,-485 135,-521"/>
<text text-anchor="middle" x="73.5" y="-499.3" font-family="Times,serif" font-size="14.00">codeprecision_mod</text>
</a>
</g>
</g>
<!-- oceanObservations_mod&#45;&gt;codeprecision_mod -->
<g id="edge2" class="edge">
<title>oceanObservations_mod&#45;&gt;codeprecision_mod</title>
<path fill="none" stroke="black" d="M239.24,-631.13C209.57,-623 176.33,-610.83 149.5,-593 124.59,-576.44 103.19,-549.5 89.51,-529.59"/>
<polygon fill="black" stroke="black" points="92.42,-527.64 83.96,-521.27 86.6,-531.53 92.42,-527.64"/>
</g>
<!-- codtyp_mod -->
<g id="node4" class="node">
<title>codtyp_mod</title>
<g id="a_node4"><a xlink:href="../modules/codtyp_mod.svg" xlink:title="codtyp_mod">
<polygon fill="none" stroke="red" points="173,-449 88,-449 88,-413 173,-413 173,-449"/>
<text text-anchor="middle" x="130.5" y="-427.3" font-family="Times,serif" font-size="14.00">codtyp_mod</text>
</a>
</g>
</g>
<!-- oceanObservations_mod&#45;&gt;codtyp_mod -->
<g id="edge3" class="edge">
<title>oceanObservations_mod&#45;&gt;codtyp_mod</title>
<path fill="none" stroke="black" d="M245.3,-628.89C224.46,-620.9 203.06,-609.4 187.5,-593 168.82,-573.31 147.71,-499.45 137.19,-458.96"/>
<polygon fill="black" stroke="black" points="140.57,-458.03 134.7,-449.21 133.79,-459.76 140.57,-458.03"/>
</g>
<!-- gridstatevectorfileio_mod -->
<g id="node5" class="node">
<title>gridstatevectorfileio_mod</title>
<g id="a_node5"><a xlink:href="../modules/gridstatevectorfileio_mod.svg" xlink:title="gridstatevectorfileio_mod">
<polygon fill="none" stroke="red" points="211.5,-377 53.5,-377 53.5,-341 211.5,-341 211.5,-377"/>
<text text-anchor="middle" x="132.5" y="-355.3" font-family="Times,serif" font-size="14.00">gridstatevectorfileio_mod</text>
</a>
</g>
</g>
<!-- oceanObservations_mod&#45;&gt;gridstatevectorfileio_mod -->
<g id="edge4" class="edge">
<title>oceanObservations_mod&#45;&gt;gridstatevectorfileio_mod</title>
<path fill="none" stroke="black" d="M271.29,-628.86C254.7,-620.39 237.07,-608.57 225.5,-593 176.37,-526.9 220.47,-485.55 181.5,-413 175.96,-402.69 167.94,-392.85 159.99,-384.5"/>
<polygon fill="black" stroke="black" points="162.32,-381.89 152.77,-377.29 157.37,-386.84 162.32,-381.89"/>
</g>
<!-- gridstatevector_mod -->
<g id="node6" class="node">
<title>gridstatevector_mod</title>
<g id="a_node6"><a xlink:href="../modules/gridstatevector_mod.svg" xlink:title="gridstatevector_mod">
<polygon fill="none" stroke="red" points="249.5,-305 119.5,-305 119.5,-269 249.5,-269 249.5,-305"/>
<text text-anchor="middle" x="184.5" y="-283.3" font-family="Times,serif" font-size="14.00">gridstatevector_mod</text>
</a>
</g>
</g>
<!-- oceanObservations_mod&#45;&gt;gridstatevector_mod -->
<g id="edge5" class="edge">
<title>oceanObservations_mod&#45;&gt;gridstatevector_mod</title>
<path fill="none" stroke="black" d="M294.09,-628.86C283.49,-619.33 271.31,-606.65 263.5,-593 243.16,-557.44 239.5,-544.97 239.5,-504 239.5,-504 239.5,-504 239.5,-430 239.5,-389.55 236.38,-378.2 220.5,-341 216.42,-331.43 210.51,-321.78 204.66,-313.39"/>
<polygon fill="black" stroke="black" points="207.38,-311.17 198.66,-305.15 201.72,-315.29 207.38,-311.17"/>
</g>
<!-- horizontalcoord_mod -->
<g id="node7" class="node">
<title>horizontalcoord_mod</title>
<g id="a_node7"><a xlink:href="../modules/horizontalcoord_mod.svg" xlink:title="horizontalcoord_mod">
<polygon fill="none" stroke="red" points="287.5,-233 153.5,-233 153.5,-197 287.5,-197 287.5,-233"/>
<text text-anchor="middle" x="220.5" y="-211.3" font-family="Times,serif" font-size="14.00">horizontalcoord_mod</text>
</a>
</g>
</g>
<!-- oceanObservations_mod&#45;&gt;horizontalcoord_mod -->
<g id="edge6" class="edge">
<title>oceanObservations_mod&#45;&gt;horizontalcoord_mod</title>
<path fill="none" stroke="black" d="M307.81,-628.91C296.71,-602.62 277.5,-550.45 277.5,-504 277.5,-504 277.5,-504 277.5,-358 277.5,-317.55 274.85,-305.99 258.5,-269 254.17,-259.21 247.86,-249.43 241.62,-240.98"/>
<polygon fill="black" stroke="black" points="244.36,-238.8 235.48,-233.03 238.82,-243.08 244.36,-238.8"/>
</g>
<!-- midasmpi_mod -->
<g id="node8" class="node">
<title>midasmpi_mod</title>
<g id="a_node8"><a xlink:href="../modules/midasmpi_mod.svg" xlink:title="midasmpi_mod">
<polygon fill="none" stroke="red" points="325.5,-161 223.5,-161 223.5,-125 325.5,-125 325.5,-161"/>
<text text-anchor="middle" x="274.5" y="-139.3" font-family="Times,serif" font-size="14.00">midasmpi_mod</text>
</a>
</g>
</g>
<!-- oceanObservations_mod&#45;&gt;midasmpi_mod -->
<g id="edge7" class="edge">
<title>oceanObservations_mod&#45;&gt;midasmpi_mod</title>
<path fill="none" stroke="black" d="M315.5,-628.95C315.5,-602.29 315.5,-549.11 315.5,-504 315.5,-504 315.5,-504 315.5,-286 315.5,-244.41 299.06,-198.56 287,-170.51"/>
<polygon fill="black" stroke="black" points="290.05,-168.75 282.8,-161.03 283.65,-171.59 290.05,-168.75"/>
</g>
<!-- obsspacedata_mod -->
<g id="node9" class="node">
<title>obsspacedata_mod</title>
<g id="a_node9"><a xlink:href="../modules/obsspacedata_mod.svg" xlink:title="obsspacedata_mod">
<polygon fill="none" stroke="red" points="413,-89 294,-89 294,-53 413,-53 413,-89"/>
<text text-anchor="middle" x="353.5" y="-67.3" font-family="Times,serif" font-size="14.00">obsspacedata_mod</text>
</a>
</g>
</g>
<!-- oceanObservations_mod&#45;&gt;obsspacedata_mod -->
<g id="edge8" class="edge">
<title>oceanObservations_mod&#45;&gt;obsspacedata_mod</title>
<path fill="none" stroke="black" d="M323.19,-628.91C334.29,-602.62 353.5,-550.45 353.5,-504 353.5,-504 353.5,-504 353.5,-214 353.5,-174 353.5,-127.65 353.5,-99.08"/>
<polygon fill="black" stroke="black" points="357,-99.05 353.5,-89.05 350,-99.05 357,-99.05"/>
</g>
<!-- oceanmask_mod -->
<g id="node10" class="node">
<title>oceanmask_mod</title>
<g id="a_node10"><a xlink:href="../modules/oceanmask_mod.svg" xlink:title="oceanmask_mod">
<polygon fill="none" stroke="red" points="491,-593 382,-593 382,-557 491,-557 491,-593"/>
<text text-anchor="middle" x="436.5" y="-571.3" font-family="Times,serif" font-size="14.00">oceanmask_mod</text>
</a>
</g>
</g>
<!-- oceanObservations_mod&#45;&gt;oceanmask_mod -->
<g id="edge9" class="edge">
<title>oceanObservations_mod&#45;&gt;oceanmask_mod</title>
<path fill="none" stroke="black" d="M345.1,-628.88C361.07,-619.64 380.96,-608.13 398.11,-598.21"/>
<polygon fill="black" stroke="black" points="399.88,-601.23 406.79,-593.19 396.38,-595.17 399.88,-601.23"/>
</g>
<!-- sqliteread_mod -->
<g id="node11" class="node">
<title>sqliteread_mod</title>
<g id="a_node11"><a xlink:href="../modules/sqliteread_mod.svg" xlink:title="sqliteread_mod">
<polygon fill="none" stroke="red" points="529,-521 428,-521 428,-485 529,-485 529,-521"/>
<text text-anchor="middle" x="478.5" y="-499.3" font-family="Times,serif" font-size="14.00">sqliteread_mod</text>
</a>
</g>
</g>
<!-- oceanObservations_mod&#45;&gt;sqliteread_mod -->
<g id="edge10" class="edge">
<title>oceanObservations_mod&#45;&gt;sqliteread_mod</title>
<path fill="none" stroke="black" d="M391.91,-633.49C436.32,-624.48 486.11,-610.8 499.5,-593 513.2,-574.8 504.94,-549.03 495.04,-529.9"/>
<polygon fill="black" stroke="black" points="498.06,-528.14 490.13,-521.11 491.95,-531.55 498.06,-528.14"/>
</g>
<!-- timecoord_mod -->
<g id="node12" class="node">
<title>timecoord_mod</title>
<g id="a_node12"><a xlink:href="../modules/timecoord_mod.svg" xlink:title="timecoord_mod">
<polygon fill="none" stroke="red" points="588.5,-449 484.5,-449 484.5,-413 588.5,-413 588.5,-449"/>
<text text-anchor="middle" x="536.5" y="-427.3" font-family="Times,serif" font-size="14.00">timecoord_mod</text>
</a>
</g>
</g>
<!-- oceanObservations_mod&#45;&gt;timecoord_mod -->
<g id="edge11" class="edge">
<title>oceanObservations_mod&#45;&gt;timecoord_mod</title>
<path fill="none" stroke="black" d="M391.71,-643.93C433.95,-638.83 484.45,-625.58 517.5,-593 552.74,-558.26 548.54,-495.3 542.45,-459.27"/>
<polygon fill="black" stroke="black" points="545.81,-458.2 540.54,-449.01 538.93,-459.48 545.81,-458.2"/>
</g>
<!-- utilities_mod -->
<g id="node13" class="node">
<title>utilities_mod</title>
<g id="a_node13"><a xlink:href="../modules/utilities_mod.svg" xlink:title="utilities_mod">
<polygon fill="none" stroke="red" points="661,-377 572,-377 572,-341 661,-341 661,-377"/>
<text text-anchor="middle" x="616.5" y="-355.3" font-family="Times,serif" font-size="14.00">utilities_mod</text>
</a>
</g>
</g>
<!-- oceanObservations_mod&#45;&gt;utilities_mod -->
<g id="edge12" class="edge">
<title>oceanObservations_mod&#45;&gt;utilities_mod</title>
<path fill="none" stroke="black" d="M391.73,-636C448.57,-627.13 520.09,-612.56 542.5,-593 603.44,-539.81 614.66,-436.68 616.41,-387.45"/>
<polygon fill="black" stroke="black" points="619.91,-387.33 616.66,-377.24 612.92,-387.15 619.91,-387.33"/>
</g>
<!-- verticalcoord_mod -->
<g id="node14" class="node">
<title>verticalcoord_mod</title>
<g id="a_node14"><a xlink:href="../modules/verticalcoord_mod.svg" xlink:title="verticalcoord_mod">
<polygon fill="none" stroke="red" points="749.5,-305 629.5,-305 629.5,-269 749.5,-269 749.5,-305"/>
<text text-anchor="middle" x="689.5" y="-283.3" font-family="Times,serif" font-size="14.00">verticalcoord_mod</text>
</a>
</g>
</g>
<!-- oceanObservations_mod&#45;&gt;verticalcoord_mod -->
<g id="edge13" class="edge">
<title>oceanObservations_mod&#45;&gt;verticalcoord_mod</title>
<path fill="none" stroke="black" d="M391.64,-639.3C444.3,-632.54 514.96,-619.17 572.5,-593 631.97,-565.95 689.5,-569.33 689.5,-504 689.5,-504 689.5,-504 689.5,-430 689.5,-390 689.5,-343.65 689.5,-315.08"/>
<polygon fill="black" stroke="black" points="693,-315.05 689.5,-305.05 686,-315.05 693,-315.05"/>
</g>
</g>
</svg>
