<?xml version="1.0" encoding="UTF-8" standalone="no"?>
<!DOCTYPE svg PUBLIC "-//W3C//DTD SVG 1.1//EN"
 "http://www.w3.org/Graphics/SVG/1.1/DTD/svg11.dtd">
<!-- Generated by graphviz version 3.0.0 (20220315.2325)
 -->
<!-- Title: oMinusF_mod Pages: 1 -->
<svg width="1212pt" height="673pt"
 viewBox="0.00 0.00 1212.00 673.00" xmlns="http://www.w3.org/2000/svg" xmlns:xlink="http://www.w3.org/1999/xlink">
<g id="graph0" class="graph" transform="scale(1 1) rotate(0) translate(4 669)">
<title>oMinusF_mod</title>
<polygon fill="white" stroke="transparent" points="-4,4 -4,-669 1208,-669 1208,4 -4,4"/>
<text text-anchor="middle" x="602" y="-37.8" font-family="Times,serif" font-size="14.00">Red boxes indicate modules with dependencies not shown</text>
<text text-anchor="middle" x="602" y="-22.8" font-family="Times,serif" font-size="14.00">Lower level dependencies can be shown by clicking on a red box</text>
<text text-anchor="middle" x="602" y="-7.8" font-family="Times,serif" font-size="14.00">Shaded boxes indicate modules with no dependencies</text>
<!-- oMinusF_mod -->
<g id="node1" class="node">
<title>oMinusF_mod</title>
<g id="a_node1"><a xlink:href="oMinusF_mod.html" xlink:title="oMinusF_mod">
<polygon fill="none" stroke="black" points="692,-665 594,-665 594,-629 692,-629 692,-665"/>
<text text-anchor="middle" x="643" y="-643.3" font-family="Times,serif" font-size="14.00">oMinusF_mod</text>
</a>
</g>
</g>
<!-- biascorrectionconv_mod -->
<g id="node2" class="node">
<title>biascorrectionconv_mod</title>
<g id="a_node2"><a xlink:href="../modules/biascorrectionconv_mod.svg" xlink:title="biascorrectionconv_mod">
<polygon fill="none" stroke="red" points="152,-593 0,-593 0,-557 152,-557 152,-593"/>
<text text-anchor="middle" x="76" y="-571.3" font-family="Times,serif" font-size="14.00">biascorrectionconv_mod</text>
</a>
</g>
</g>
<!-- oMinusF_mod&#45;&gt;biascorrectionconv_mod -->
<g id="edge1" class="edge">
<title>oMinusF_mod&#45;&gt;biascorrectionconv_mod</title>
<path fill="none" stroke="black" d="M593.74,-641.77C507.02,-634.05 321.54,-616.3 166,-593 164.72,-592.81 163.43,-592.61 162.13,-592.41"/>
<polygon fill="black" stroke="black" points="162.47,-588.92 152.04,-590.78 161.36,-595.83 162.47,-588.92"/>
</g>
<!-- codeprecision_mod -->
<g id="node3" class="node">
<title>codeprecision_mod</title>
<g id="a_node3"><a xlink:href="codeprecision_mod.html" xlink:title="codeprecision_mod">
<polygon fill="gray" stroke="black" points="215.5,-521 92.5,-521 92.5,-485 215.5,-485 215.5,-521"/>
<text text-anchor="middle" x="154" y="-499.3" font-family="Times,serif" font-size="14.00">codeprecision_mod</text>
</a>
</g>
</g>
<!-- oMinusF_mod&#45;&gt;codeprecision_mod -->
<g id="edge2" class="edge">
<title>oMinusF_mod&#45;&gt;codeprecision_mod</title>
<path fill="none" stroke="black" d="M593.65,-644.08C498.11,-639.66 291.84,-626.45 230,-593 203.22,-578.52 181.76,-550.5 168.56,-529.75"/>
<polygon fill="black" stroke="black" points="171.46,-527.79 163.25,-521.09 165.49,-531.44 171.46,-527.79"/>
</g>
<!-- columndata_mod -->
<g id="node4" class="node">
<title>columndata_mod</title>
<g id="a_node4"><a xlink:href="../modules/columndata_mod.svg" xlink:title="columndata_mod">
<polygon fill="none" stroke="red" points="254,-449 142,-449 142,-413 254,-413 254,-449"/>
<text text-anchor="middle" x="198" y="-427.3" font-family="Times,serif" font-size="14.00">columndata_mod</text>
</a>
</g>
</g>
<!-- oMinusF_mod&#45;&gt;columndata_mod -->
<g id="edge3" class="edge">
<title>oMinusF_mod&#45;&gt;columndata_mod</title>
<path fill="none" stroke="black" d="M593.74,-645C503.83,-642.22 317.78,-631.81 268,-593 227.12,-561.13 245.2,-532.29 224,-485 220.04,-476.17 215.46,-466.64 211.26,-458.13"/>
<polygon fill="black" stroke="black" points="214.33,-456.43 206.73,-449.04 208.06,-459.55 214.33,-456.43"/>
</g>
<!-- ensembleobservations_mod -->
<g id="node5" class="node">
<title>ensembleobservations_mod</title>
<g id="a_node5"><a xlink:href="../modules/ensembleobservations_mod.svg" xlink:title="ensembleobservations_mod">
<polygon fill="none" stroke="red" points="292.5,-377 123.5,-377 123.5,-341 292.5,-341 292.5,-377"/>
<text text-anchor="middle" x="208" y="-355.3" font-family="Times,serif" font-size="14.00">ensembleobservations_mod</text>
</a>
</g>
</g>
<!-- oMinusF_mod&#45;&gt;ensembleobservations_mod -->
<g id="edge4" class="edge">
<title>oMinusF_mod&#45;&gt;ensembleobservations_mod</title>
<path fill="none" stroke="black" d="M593.95,-644.8C510.76,-641.75 347.04,-630.94 306,-593 245.6,-537.17 303.81,-484.41 263,-413 256.78,-402.12 247.65,-392.04 238.62,-383.67"/>
<polygon fill="black" stroke="black" points="240.93,-381.04 231.11,-377.05 236.3,-386.29 240.93,-381.04"/>
</g>
<!-- ensemblestatevector_mod -->
<g id="node6" class="node">
<title>ensemblestatevector_mod</title>
<g id="a_node6"><a xlink:href="../modules/ensemblestatevector_mod.svg" xlink:title="ensemblestatevector_mod">
<polygon fill="none" stroke="red" points="330,-305 172,-305 172,-269 330,-269 330,-305"/>
<text text-anchor="middle" x="251" y="-283.3" font-family="Times,serif" font-size="14.00">ensemblestatevector_mod</text>
</a>
</g>
</g>
<!-- oMinusF_mod&#45;&gt;ensemblestatevector_mod -->
<g id="edge5" class="edge">
<title>oMinusF_mod&#45;&gt;ensemblestatevector_mod</title>
<path fill="none" stroke="black" d="M593.84,-643.55C518.58,-638.8 379.77,-625.75 344,-593 313.79,-565.33 320,-544.97 320,-504 320,-504 320,-504 320,-430 320,-389.55 319.8,-376.81 301,-341 295.51,-330.54 287.37,-320.65 279.24,-312.32"/>
<polygon fill="black" stroke="black" points="281.47,-309.6 271.86,-305.13 276.58,-314.61 281.47,-309.6"/>
</g>
<!-- filenames_mod -->
<g id="node7" class="node">
<title>filenames_mod</title>
<g id="a_node7"><a xlink:href="../modules/filenames_mod.svg" xlink:title="filenames_mod">
<polygon fill="none" stroke="red" points="367.5,-233 266.5,-233 266.5,-197 367.5,-197 367.5,-233"/>
<text text-anchor="middle" x="317" y="-211.3" font-family="Times,serif" font-size="14.00">filenames_mod</text>
</a>
</g>
</g>
<!-- oMinusF_mod&#45;&gt;filenames_mod -->
<g id="edge6" class="edge">
<title>oMinusF_mod&#45;&gt;filenames_mod</title>
<path fill="none" stroke="black" d="M593.99,-642.13C527.11,-635.87 412.09,-621.25 382,-593 352.13,-564.96 358,-544.97 358,-504 358,-504 358,-504 358,-358 358,-316.41 341.56,-270.56 329.5,-242.51"/>
<polygon fill="black" stroke="black" points="332.55,-240.75 325.3,-233.03 326.15,-243.59 332.55,-240.75"/>
</g>
<!-- gridstatevectorfileio_mod -->
<g id="node8" class="node">
<title>gridstatevectorfileio_mod</title>
<g id="a_node8"><a xlink:href="../modules/gridstatevectorfileio_mod.svg" xlink:title="gridstatevectorfileio_mod">
<polygon fill="none" stroke="red" points="406,-161 248,-161 248,-125 406,-125 406,-161"/>
<text text-anchor="middle" x="327" y="-139.3" font-family="Times,serif" font-size="14.00">gridstatevectorfileio_mod</text>
</a>
</g>
</g>
<!-- oMinusF_mod&#45;&gt;gridstatevectorfileio_mod -->
<g id="edge7" class="edge">
<title>oMinusF_mod&#45;&gt;gridstatevectorfileio_mod</title>
<path fill="none" stroke="black" d="M593.9,-640.22C535.98,-632.43 444.45,-616.73 420,-593 390.6,-564.47 396,-544.97 396,-504 396,-504 396,-504 396,-286 396,-245.46 394.85,-232.89 376,-197 370.56,-186.64 362.56,-176.78 354.6,-168.44"/>
<polygon fill="black" stroke="black" points="356.93,-165.82 347.38,-161.24 351.99,-170.78 356.93,-165.82"/>
</g>
<!-- gridstatevector_mod -->
<g id="node9" class="node">
<title>gridstatevector_mod</title>
<g id="a_node9"><a xlink:href="../modules/gridstatevector_mod.svg" xlink:title="gridstatevector_mod">
<polygon fill="none" stroke="red" points="499,-89 369,-89 369,-53 499,-53 499,-89"/>
<text text-anchor="middle" x="434" y="-67.3" font-family="Times,serif" font-size="14.00">gridstatevector_mod</text>
</a>
</g>
</g>
<!-- oMinusF_mod&#45;&gt;gridstatevector_mod -->
<g id="edge8" class="edge">
<title>oMinusF_mod&#45;&gt;gridstatevector_mod</title>
<path fill="none" stroke="black" d="M593.75,-645.76C550.54,-642.8 489.12,-631.42 453,-593 425.3,-563.53 434,-544.45 434,-504 434,-504 434,-504 434,-214 434,-174 434,-127.65 434,-99.08"/>
<polygon fill="black" stroke="black" points="437.5,-99.05 434,-89.05 430.5,-99.05 437.5,-99.05"/>
</g>
<!-- horizontalcoord_mod -->
<g id="node10" class="node">
<title>horizontalcoord_mod</title>
<g id="a_node10"><a xlink:href="../modules/horizontalcoord_mod.svg" xlink:title="horizontalcoord_mod">
<polygon fill="none" stroke="red" points="596,-593 462,-593 462,-557 596,-557 596,-593"/>
<text text-anchor="middle" x="529" y="-571.3" font-family="Times,serif" font-size="14.00">horizontalcoord_mod</text>
</a>
</g>
</g>
<!-- oMinusF_mod&#45;&gt;horizontalcoord_mod -->
<g id="edge9" class="edge">
<title>oMinusF_mod&#45;&gt;horizontalcoord_mod</title>
<path fill="none" stroke="black" d="M615.11,-628.88C600.21,-619.72 581.67,-608.34 565.62,-598.48"/>
<polygon fill="black" stroke="black" points="567.35,-595.44 556.99,-593.19 563.69,-601.41 567.35,-595.44"/>
</g>
<!-- innovation_mod -->
<g id="node11" class="node">
<title>innovation_mod</title>
<g id="a_node11"><a xlink:href="../modules/innovation_mod.svg" xlink:title="innovation_mod">
<polygon fill="none" stroke="red" points="634,-521 528,-521 528,-485 634,-485 634,-521"/>
<text text-anchor="middle" x="581" y="-499.3" font-family="Times,serif" font-size="14.00">innovation_mod</text>
</a>
</g>
</g>
<!-- oMinusF_mod&#45;&gt;innovation_mod -->
<g id="edge10" class="edge">
<title>oMinusF_mod&#45;&gt;innovation_mod</title>
<path fill="none" stroke="black" d="M635.82,-628.89C628.26,-610.94 615.96,-581.91 605,-557 601.16,-548.27 596.89,-538.76 593.02,-530.25"/>
<polygon fill="black" stroke="black" points="596.21,-528.79 588.88,-521.14 589.83,-531.7 596.21,-528.79"/>
</g>
<!-- mathphysconstants_mod -->
<g id="node12" class="node">
<title>mathphysconstants_mod</title>
<g id="a_node12"><a xlink:href="mathphysconstants_mod.html" xlink:title="mathphysconstants_mod">
<polygon fill="gray" stroke="black" points="672,-449 520,-449 520,-413 672,-413 672,-449"/>
<text text-anchor="middle" x="596" y="-427.3" font-family="Times,serif" font-size="14.00">mathphysconstants_mod</text>
</a>
</g>
</g>
<!-- oMinusF_mod&#45;&gt;mathphysconstants_mod -->
<g id="edge11" class="edge">
<title>oMinusF_mod&#45;&gt;mathphysconstants_mod</title>
<path fill="none" stroke="black" d="M646.85,-628.84C652.81,-598.61 661.75,-534.39 643,-485 639.03,-474.54 631.95,-464.83 624.47,-456.65"/>
<polygon fill="black" stroke="black" points="626.77,-453.99 617.27,-449.3 621.77,-458.89 626.77,-453.99"/>
</g>
<!-- midasmpi_mod -->
<g id="node13" class="node">
<title>midasmpi_mod</title>
<g id="a_node13"><a xlink:href="../modules/midasmpi_mod.svg" xlink:title="midasmpi_mod">
<polygon fill="none" stroke="red" points="710,-377 608,-377 608,-341 710,-341 710,-377"/>
<text text-anchor="middle" x="659" y="-355.3" font-family="Times,serif" font-size="14.00">midasmpi_mod</text>
</a>
</g>
</g>
<!-- oMinusF_mod&#45;&gt;midasmpi_mod -->
<g id="edge12" class="edge">
<title>oMinusF_mod&#45;&gt;midasmpi_mod</title>
<path fill="none" stroke="black" d="M652.94,-628.92C658.33,-618.82 664.58,-605.57 668,-593 689.04,-515.6 696.68,-491.66 681,-413 679.21,-404.01 675.86,-394.64 672.31,-386.32"/>
<polygon fill="black" stroke="black" points="675.46,-384.77 668.13,-377.12 669.08,-387.67 675.46,-384.77"/>
</g>
<!-- obserrors_mod -->
<g id="node14" class="node">
<title>obserrors_mod</title>
<g id="a_node14"><a xlink:href="../modules/obserrors_mod.svg" xlink:title="obserrors_mod">
<polygon fill="none" stroke="red" points="747.5,-305 648.5,-305 648.5,-269 747.5,-269 747.5,-305"/>
<text text-anchor="middle" x="698" y="-283.3" font-family="Times,serif" font-size="14.00">obserrors_mod</text>
</a>
</g>
</g>
<!-- oMinusF_mod&#45;&gt;obserrors_mod -->
<g id="edge13" class="edge">
<title>oMinusF_mod&#45;&gt;obserrors_mod</title>
<path fill="none" stroke="black" d="M664.56,-628.78C692.59,-604.28 738,-556.5 738,-504 738,-504 738,-504 738,-430 738,-388.48 721.96,-342.61 710.2,-314.54"/>
<polygon fill="black" stroke="black" points="713.27,-312.84 706.09,-305.05 706.85,-315.62 713.27,-312.84"/>
</g>
<!-- obsfiles_mod -->
<g id="node15" class="node">
<title>obsfiles_mod</title>
<g id="a_node15"><a xlink:href="../modules/obsfiles_mod.svg" xlink:title="obsfiles_mod">
<polygon fill="none" stroke="red" points="785.5,-233 696.5,-233 696.5,-197 785.5,-197 785.5,-233"/>
<text text-anchor="middle" x="741" y="-211.3" font-family="Times,serif" font-size="14.00">obsfiles_mod</text>
</a>
</g>
</g>
<!-- oMinusF_mod&#45;&gt;obsfiles_mod -->
<g id="edge14" class="edge">
<title>oMinusF_mod&#45;&gt;obsfiles_mod</title>
<path fill="none" stroke="black" d="M676.56,-628.93C715.96,-606.23 776,-562.1 776,-504 776,-504 776,-504 776,-358 776,-316.84 761.97,-270.88 751.67,-242.69"/>
<polygon fill="black" stroke="black" points="754.88,-241.28 748.08,-233.15 748.33,-243.74 754.88,-241.28"/>
</g>
<!-- obsspacedata_mod -->
<g id="node16" class="node">
<title>obsspacedata_mod</title>
<g id="a_node16"><a xlink:href="../modules/obsspacedata_mod.svg" xlink:title="obsspacedata_mod">
<polygon fill="none" stroke="red" points="823.5,-161 704.5,-161 704.5,-125 823.5,-125 823.5,-161"/>
<text text-anchor="middle" x="764" y="-139.3" font-family="Times,serif" font-size="14.00">obsspacedata_mod</text>
</a>
</g>
</g>
<!-- oMinusF_mod&#45;&gt;obsspacedata_mod -->
<g id="edge15" class="edge">
<title>oMinusF_mod&#45;&gt;obsspacedata_mod</title>
<path fill="none" stroke="black" d="M692,-629.25C742.53,-608.5 814,-567.86 814,-504 814,-504 814,-504 814,-286 814,-245.46 808.59,-234.83 794,-197 790.42,-187.73 785.43,-178.12 780.54,-169.67"/>
<polygon fill="black" stroke="black" points="783.5,-167.8 775.35,-161.03 777.5,-171.4 783.5,-167.8"/>
</g>
<!-- obsspaceerrorstddev_mod -->
<g id="node17" class="node">
<title>obsspaceerrorstddev_mod</title>
<g id="a_node17"><a xlink:href="../modules/obsspaceerrorstddev_mod.svg" xlink:title="obsspaceerrorstddev_mod">
<polygon fill="none" stroke="red" points="931.5,-89 772.5,-89 772.5,-53 931.5,-53 931.5,-89"/>
<text text-anchor="middle" x="852" y="-67.3" font-family="Times,serif" font-size="14.00">obsspaceerrorstddev_mod</text>
</a>
</g>
</g>
<!-- oMinusF_mod&#45;&gt;obsspaceerrorstddev_mod -->
<g id="edge16" class="edge">
<title>oMinusF_mod&#45;&gt;obsspaceerrorstddev_mod</title>
<path fill="none" stroke="black" d="M692,-635.54C753.78,-619.15 852,-580.99 852,-504 852,-504 852,-504 852,-214 852,-174 852,-127.65 852,-99.08"/>
<polygon fill="black" stroke="black" points="855.5,-99.05 852,-89.05 848.5,-99.05 855.5,-99.05"/>
</g>
<!-- ramdisk_mod -->
<g id="node18" class="node">
<title>ramdisk_mod</title>
<g id="a_node18"><a xlink:href="../modules/ramdisk_mod.svg" xlink:title="ramdisk_mod">
<polygon fill="none" stroke="red" points="972,-593 880,-593 880,-557 972,-557 972,-593"/>
<text text-anchor="middle" x="926" y="-571.3" font-family="Times,serif" font-size="14.00">ramdisk_mod</text>
</a>
</g>
</g>
<!-- oMinusF_mod&#45;&gt;ramdisk_mod -->
<g id="edge17" class="edge">
<title>oMinusF_mod&#45;&gt;ramdisk_mod</title>
<path fill="none" stroke="black" d="M692.31,-634.92C737.6,-624.59 806.5,-608.49 866,-593 867.27,-592.67 868.55,-592.33 869.84,-591.99"/>
<polygon fill="black" stroke="black" points="871.12,-595.27 879.87,-589.29 869.3,-588.51 871.12,-595.27"/>
</g>
<!-- statetocolumn_mod -->
<g id="node19" class="node">
<title>statetocolumn_mod</title>
<g id="a_node19"><a xlink:href="../modules/statetocolumn_mod.svg" xlink:title="statetocolumn_mod">
<polygon fill="none" stroke="red" points="1035.5,-521 910.5,-521 910.5,-485 1035.5,-485 1035.5,-521"/>
<text text-anchor="middle" x="973" y="-499.3" font-family="Times,serif" font-size="14.00">statetocolumn_mod</text>
</a>
</g>
</g>
<!-- oMinusF_mod&#45;&gt;statetocolumn_mod -->
<g id="edge18" class="edge">
<title>oMinusF_mod&#45;&gt;statetocolumn_mod</title>
<path fill="none" stroke="black" d="M692.17,-645.79C776.79,-644.26 944.42,-635.77 981,-593 995.43,-576.13 991.23,-550.32 984.72,-530.83"/>
<polygon fill="black" stroke="black" points="987.95,-529.46 981.19,-521.3 981.38,-531.89 987.95,-529.46"/>
</g>
<!-- timecoord_mod -->
<g id="node20" class="node">
<title>timecoord_mod</title>
<g id="a_node20"><a xlink:href="../modules/timecoord_mod.svg" xlink:title="timecoord_mod">
<polygon fill="none" stroke="red" points="1116,-449 1012,-449 1012,-413 1116,-413 1116,-449"/>
<text text-anchor="middle" x="1064" y="-427.3" font-family="Times,serif" font-size="14.00">timecoord_mod</text>
</a>
</g>
</g>
<!-- oMinusF_mod&#45;&gt;timecoord_mod -->
<g id="edge19" class="edge">
<title>oMinusF_mod&#45;&gt;timecoord_mod</title>
<path fill="none" stroke="black" d="M692.05,-643.8C777.76,-639.14 950.37,-625.86 1000,-593 1044.74,-563.38 1058.2,-496.86 1062.26,-459.25"/>
<polygon fill="black" stroke="black" points="1065.77,-459.3 1063.2,-449.02 1058.8,-458.66 1065.77,-459.3"/>
</g>
<!-- verticalcoord_mod -->
<g id="node21" class="node">
<title>verticalcoord_mod</title>
<g id="a_node21"><a xlink:href="../modules/verticalcoord_mod.svg" xlink:title="verticalcoord_mod">
<polygon fill="none" stroke="red" points="1204,-377 1084,-377 1084,-341 1204,-341 1204,-377"/>
<text text-anchor="middle" x="1144" y="-355.3" font-family="Times,serif" font-size="14.00">verticalcoord_mod</text>
</a>
</g>
</g>
<!-- oMinusF_mod&#45;&gt;verticalcoord_mod -->
<g id="edge20" class="edge">
<title>oMinusF_mod&#45;&gt;verticalcoord_mod</title>
<path fill="none" stroke="black" d="M692.21,-644.31C783.68,-640.36 975.63,-628.03 1031,-593 1104.24,-546.66 1131.26,-437.98 1140.13,-387.13"/>
<polygon fill="black" stroke="black" points="1143.59,-387.63 1141.76,-377.2 1136.69,-386.5 1143.59,-387.63"/>
</g>
</g>
</svg>
