<?xml version="1.0" encoding="UTF-8" standalone="no"?>
<!DOCTYPE svg PUBLIC "-//W3C//DTD SVG 1.1//EN"
 "http://www.w3.org/Graphics/SVG/1.1/DTD/svg11.dtd">
<!-- Generated by graphviz version 3.0.0 (20220315.2325)
 -->
<!-- Title: ozoneClim_mod Pages: 1 -->
<svg width="382pt" height="313pt"
 viewBox="0.00 0.00 382.00 313.00" xmlns="http://www.w3.org/2000/svg" xmlns:xlink="http://www.w3.org/1999/xlink">
<g id="graph0" class="graph" transform="scale(1 1) rotate(0) translate(4 309)">
<title>ozoneClim_mod</title>
<polygon fill="white" stroke="transparent" points="-4,4 -4,-309 378,-309 378,4 -4,4"/>
<text text-anchor="middle" x="187" y="-37.8" font-family="Times,serif" font-size="14.00">Red boxes indicate modules with dependencies not shown</text>
<text text-anchor="middle" x="187" y="-22.8" font-family="Times,serif" font-size="14.00">Lower level dependencies can be shown by clicking on a red box</text>
<text text-anchor="middle" x="187" y="-7.8" font-family="Times,serif" font-size="14.00">Shaded boxes indicate modules with no dependencies</text>
<!-- ozoneClim_mod -->
<g id="node1" class="node">
<title>ozoneClim_mod</title>
<g id="a_node1"><a xlink:href="ozoneClim_mod.html" xlink:title="ozoneClim_mod">
<polygon fill="none" stroke="black" points="239.5,-305 131.5,-305 131.5,-269 239.5,-269 239.5,-305"/>
<text text-anchor="middle" x="185.5" y="-283.3" font-family="Times,serif" font-size="14.00">ozoneClim_mod</text>
</a>
</g>
</g>
<!-- obsspacedata_mod -->
<g id="node2" class="node">
<title>obsspacedata_mod</title>
<g id="a_node2"><a xlink:href="../modules/obsspacedata_mod.svg" xlink:title="obsspacedata_mod">
<polygon fill="none" stroke="red" points="157,-233 38,-233 38,-197 157,-197 157,-233"/>
<text text-anchor="middle" x="97.5" y="-211.3" font-family="Times,serif" font-size="14.00">obsspacedata_mod</text>
</a>
</g>
</g>
<!-- ozoneClim_mod&#45;&gt;obsspacedata_mod -->
<g id="edge1" class="edge">
<title>ozoneClim_mod&#45;&gt;obsspacedata_mod</title>
<path fill="none" stroke="black" d="M163.75,-268.7C152.66,-259.88 139.03,-249.03 127.01,-239.47"/>
<polygon fill="black" stroke="black" points="129.01,-236.59 119,-233.1 124.65,-242.07 129.01,-236.59"/>
</g>
<!-- presprofileoperators_mod -->
<g id="node3" class="node">
<title>presprofileoperators_mod</title>
<g id="a_node3"><a xlink:href="../modules/presprofileoperators_mod.svg" xlink:title="presprofileoperators_mod">
<polygon fill="none" stroke="red" points="263.5,-161 107.5,-161 107.5,-125 263.5,-125 263.5,-161"/>
<text text-anchor="middle" x="185.5" y="-139.3" font-family="Times,serif" font-size="14.00">presprofileoperators_mod</text>
</a>
</g>
</g>
<!-- ozoneClim_mod&#45;&gt;presprofileoperators_mod -->
<g id="edge2" class="edge">
<title>ozoneClim_mod&#45;&gt;presprofileoperators_mod</title>
<path fill="none" stroke="black" d="M185.5,-268.87C185.5,-244.67 185.5,-200.21 185.5,-171.39"/>
<polygon fill="black" stroke="black" points="189,-171.19 185.5,-161.19 182,-171.19 189,-171.19"/>
</g>
<!-- utilities_mod -->
<g id="node4" class="node">
<title>utilities_mod</title>
<g id="a_node4"><a xlink:href="../modules/utilities_mod.svg" xlink:title="utilities_mod">
<polygon fill="none" stroke="red" points="336,-89 247,-89 247,-53 336,-53 336,-89"/>
<text text-anchor="middle" x="291.5" y="-67.3" font-family="Times,serif" font-size="14.00">utilities_mod</text>
</a>
</g>
</g>
<!-- ozoneClim_mod&#45;&gt;utilities_mod -->
<g id="edge3" class="edge">
<title>ozoneClim_mod&#45;&gt;utilities_mod</title>
<path fill="none" stroke="black" d="M200.93,-268.73C220.58,-245.79 254.2,-203.21 272.5,-161 281.08,-141.22 285.91,-117.24 288.55,-99.16"/>
<polygon fill="black" stroke="black" points="292.05,-99.38 289.9,-89.01 285.11,-98.46 292.05,-99.38"/>
</g>
</g>
</svg>
