<?xml version="1.0" encoding="UTF-8" standalone="no"?>
<!DOCTYPE svg PUBLIC "-//W3C//DTD SVG 1.1//EN"
 "http://www.w3.org/Graphics/SVG/1.1/DTD/svg11.dtd">
<!-- Generated by graphviz version 3.0.0 (20220315.2325)
 -->
<!-- Title: ozoneClim_mod Pages: 1 -->
<svg width="433pt" height="241pt"
 viewBox="0.00 0.00 433.00 241.00" xmlns="http://www.w3.org/2000/svg" xmlns:xlink="http://www.w3.org/1999/xlink">
<g id="graph0" class="graph" transform="scale(1 1) rotate(0) translate(4 237)">
<title>ozoneClim_mod</title>
<polygon fill="white" stroke="transparent" points="-4,4 -4,-237 429,-237 429,4 -4,4"/>
<text text-anchor="middle" x="212.5" y="-217.8" font-family="Times,serif" font-size="14.00">Blue boxes indicate modules with reverse dependencies not shown</text>
<text text-anchor="middle" x="212.5" y="-202.8" font-family="Times,serif" font-size="14.00">Higher level reverse dependencies can be shown by clicking on a blue box</text>
<text text-anchor="middle" x="212.5" y="-187.8" font-family="Times,serif" font-size="14.00">Green boxes are programs</text>
<!-- ozoneClim_mod -->
<g id="node1" class="node">
<title>ozoneClim_mod</title>
<g id="a_node1"><a xlink:href="ozoneClim_mod.html" xlink:title="ozoneClim_mod">
<polygon fill="none" stroke="black" points="283,-36 175,-36 175,0 283,0 283,-36"/>
<text text-anchor="middle" x="229" y="-14.3" font-family="Times,serif" font-size="14.00">ozoneClim_mod</text>
</a>
</g>
</g>
<!-- obsoperatorschem_mod -->
<g id="node2" class="node">
<title>obsoperatorschem_mod</title>
<g id="a_node2"><a xlink:href="../modules/obsoperatorschem_mod_rev.svg" xlink:title="obsoperatorschem_mod">
<polygon fill="none" stroke="blue" points="251.5,-108 104.5,-108 104.5,-72 251.5,-72 251.5,-108"/>
<text text-anchor="middle" x="178" y="-86.3" font-family="Times,serif" font-size="14.00">obsoperatorschem_mod</text>
</a>
</g>
</g>
<!-- obsoperatorschem_mod&#45;&gt;ozoneClim_mod -->
<g id="edge1" class="edge">
<title>obsoperatorschem_mod&#45;&gt;ozoneClim_mod</title>
<path fill="none" stroke="black" d="M195.46,-65.03C202.39,-55.52 210.2,-44.8 216.54,-36.1"/>
<ellipse fill="black" stroke="black" cx="192.96" cy="-68.46" rx="4" ry="4"/>
</g>
<!-- tovsnl_mod -->
<g id="node3" class="node">
<title>tovsnl_mod</title>
<g id="a_node3"><a xlink:href="../modules/tovsnl_mod_rev.svg" xlink:title="tovsnl_mod">
<polygon fill="none" stroke="blue" points="320.5,-180 239.5,-180 239.5,-144 320.5,-144 320.5,-180"/>
<text text-anchor="middle" x="280" y="-158.3" font-family="Times,serif" font-size="14.00">tovsnl_mod</text>
</a>
</g>
</g>
<!-- tovsnl_mod&#45;&gt;ozoneClim_mod -->
<g id="edge2" class="edge">
<title>tovsnl_mod&#45;&gt;ozoneClim_mod</title>
<path fill="none" stroke="black" d="M276.85,-135.44C274.06,-117.28 269.14,-92.58 261,-72 256.02,-59.41 248.19,-46.37 241.52,-36.38"/>
<ellipse fill="black" stroke="black" cx="277.48" cy="-139.82" rx="4" ry="4"/>
</g>
</g>
</svg>
