<?xml version="1.0" encoding="UTF-8" standalone="no"?>
<!DOCTYPE svg PUBLIC "-//W3C//DTD SVG 1.1//EN"
 "http://www.w3.org/Graphics/SVG/1.1/DTD/svg11.dtd">
<!-- Generated by graphviz version 3.0.0 (20220315.2325)
 -->
<!-- Title: physicsFunctions_mod Pages: 1 -->
<svg width="382pt" height="385pt"
 viewBox="0.00 0.00 382.00 385.00" xmlns="http://www.w3.org/2000/svg" xmlns:xlink="http://www.w3.org/1999/xlink">
<g id="graph0" class="graph" transform="scale(1 1) rotate(0) translate(4 381)">
<title>physicsFunctions_mod</title>
<polygon fill="white" stroke="transparent" points="-4,4 -4,-381 378,-381 378,4 -4,4"/>
<text text-anchor="middle" x="187" y="-37.8" font-family="Times,serif" font-size="14.00">Red boxes indicate modules with dependencies not shown</text>
<text text-anchor="middle" x="187" y="-22.8" font-family="Times,serif" font-size="14.00">Lower level dependencies can be shown by clicking on a red box</text>
<text text-anchor="middle" x="187" y="-7.8" font-family="Times,serif" font-size="14.00">Shaded boxes indicate modules with no dependencies</text>
<!-- physicsFunctions_mod -->
<g id="node1" class="node">
<title>physicsFunctions_mod</title>
<g id="a_node1"><a xlink:href="physicsFunctions_mod.html" xlink:title="physicsFunctions_mod">
<polygon fill="none" stroke="black" points="287.75,-377 145.75,-377 145.75,-341 287.75,-341 287.75,-377"/>
<text text-anchor="middle" x="216.75" y="-355.3" font-family="Times,serif" font-size="14.00">physicsFunctions_mod</text>
</a>
</g>
</g>
<!-- earthconstants_mod -->
<g id="node2" class="node">
<title>earthconstants_mod</title>
<g id="a_node2"><a xlink:href="../modules/earthconstants_mod.svg" xlink:title="earthconstants_mod">
<polygon fill="none" stroke="red" points="136.75,-305 10.75,-305 10.75,-269 136.75,-269 136.75,-305"/>
<text text-anchor="middle" x="73.75" y="-283.3" font-family="Times,serif" font-size="14.00">earthconstants_mod</text>
</a>
</g>
</g>
<!-- physicsFunctions_mod&#45;&gt;earthconstants_mod -->
<g id="edge1" class="edge">
<title>physicsFunctions_mod&#45;&gt;earthconstants_mod</title>
<path fill="none" stroke="black" d="M181.77,-340.88C162.55,-331.47 138.52,-319.71 118.01,-309.67"/>
<polygon fill="black" stroke="black" points="119.39,-306.44 108.87,-305.19 116.31,-312.73 119.39,-306.44"/>
</g>
<!-- mathphysconstants_mod -->
<g id="node3" class="node">
<title>mathphysconstants_mod</title>
<g id="a_node3"><a xlink:href="mathphysconstants_mod.html" xlink:title="mathphysconstants_mod">
<polygon fill="gray" stroke="black" points="214.75,-233 62.75,-233 62.75,-197 214.75,-197 214.75,-233"/>
<text text-anchor="middle" x="138.75" y="-211.3" font-family="Times,serif" font-size="14.00">mathphysconstants_mod</text>
</a>
</g>
</g>
<!-- physicsFunctions_mod&#45;&gt;mathphysconstants_mod -->
<g id="edge2" class="edge">
<title>physicsFunctions_mod&#45;&gt;mathphysconstants_mod</title>
<path fill="none" stroke="black" d="M207.34,-340.87C193.87,-316.35 168.98,-271.03 153.17,-242.26"/>
<polygon fill="black" stroke="black" points="156.07,-240.27 148.19,-233.19 149.94,-243.64 156.07,-240.27"/>
</g>
<!-- message_mod -->
<g id="node4" class="node">
<title>message_mod</title>
<g id="a_node4"><a xlink:href="../modules/message_mod.svg" xlink:title="message_mod">
<polygon fill="none" stroke="red" points="290.25,-161 195.25,-161 195.25,-125 290.25,-125 290.25,-161"/>
<text text-anchor="middle" x="242.75" y="-139.3" font-family="Times,serif" font-size="14.00">message_mod</text>
</a>
</g>
</g>
<!-- physicsFunctions_mod&#45;&gt;message_mod -->
<g id="edge3" class="edge">
<title>physicsFunctions_mod&#45;&gt;message_mod</title>
<path fill="none" stroke="black" d="M218.83,-340.85C223.33,-303.83 233.98,-216.18 239.42,-171.39"/>
<polygon fill="black" stroke="black" points="242.92,-171.58 240.66,-161.23 235.98,-170.74 242.92,-171.58"/>
</g>
<!-- utilities_mod -->
<g id="node5" class="node">
<title>utilities_mod</title>
<g id="a_node5"><a xlink:href="../modules/utilities_mod.svg" xlink:title="utilities_mod">
<polygon fill="none" stroke="red" points="363.25,-89 274.25,-89 274.25,-53 363.25,-53 363.25,-89"/>
<text text-anchor="middle" x="318.75" y="-67.3" font-family="Times,serif" font-size="14.00">utilities_mod</text>
</a>
</g>
</g>
<!-- physicsFunctions_mod&#45;&gt;utilities_mod -->
<g id="edge4" class="edge">
<title>physicsFunctions_mod&#45;&gt;utilities_mod</title>
<path fill="none" stroke="black" d="M224.27,-340.84C228.8,-330.48 234.65,-317 239.75,-305 266.88,-241.2 279.09,-227.18 299.75,-161 306.1,-140.67 311.03,-117.08 314.27,-99.29"/>
<polygon fill="black" stroke="black" points="317.74,-99.76 316.03,-89.3 310.85,-98.55 317.74,-99.76"/>
</g>
</g>
</svg>
