<?xml version="1.0" encoding="UTF-8" standalone="no"?>
<!DOCTYPE svg PUBLIC "-//W3C//DTD SVG 1.1//EN"
 "http://www.w3.org/Graphics/SVG/1.1/DTD/svg11.dtd">
<!-- Generated by graphviz version 3.0.0 (20220315.2325)
 -->
<!-- Title: physicsFunctions_mod Pages: 1 -->
<svg width="816pt" height="673pt"
 viewBox="0.00 0.00 816.00 673.00" xmlns="http://www.w3.org/2000/svg" xmlns:xlink="http://www.w3.org/1999/xlink">
<g id="graph0" class="graph" transform="scale(1 1) rotate(0) translate(4 669)">
<title>physicsFunctions_mod</title>
<polygon fill="white" stroke="transparent" points="-4,4 -4,-669 812,-669 812,4 -4,4"/>
<text text-anchor="middle" x="404" y="-649.8" font-family="Times,serif" font-size="14.00">Blue boxes indicate modules with reverse dependencies not shown</text>
<text text-anchor="middle" x="404" y="-634.8" font-family="Times,serif" font-size="14.00">Higher level reverse dependencies can be shown by clicking on a blue box</text>
<text text-anchor="middle" x="404" y="-619.8" font-family="Times,serif" font-size="14.00">Green boxes are programs</text>
<!-- physicsFunctions_mod -->
<g id="node1" class="node">
<title>physicsFunctions_mod</title>
<g id="a_node1"><a xlink:href="physicsFunctions_mod.html" xlink:title="physicsFunctions_mod">
<polygon fill="none" stroke="black" points="421.5,-36 279.5,-36 279.5,0 421.5,0 421.5,-36"/>
<text text-anchor="middle" x="350.5" y="-14.3" font-family="Times,serif" font-size="14.00">physicsFunctions_mod</text>
</a>
</g>
</g>
<!-- analysiserroroi_mod -->
<g id="node2" class="node">
<title>analysiserroroi_mod</title>
<g id="a_node2"><a xlink:href="../modules/analysiserroroi_mod_rev.svg" xlink:title="analysiserroroi_mod">
<polygon fill="none" stroke="blue" points="129,-108 0,-108 0,-72 129,-72 129,-108"/>
<text text-anchor="middle" x="64.5" y="-86.3" font-family="Times,serif" font-size="14.00">analysiserroroi_mod</text>
</a>
</g>
</g>
<!-- analysiserroroi_mod&#45;&gt;physicsFunctions_mod -->
<g id="edge1" class="edge">
<title>analysiserroroi_mod&#45;&gt;physicsFunctions_mod</title>
<path fill="none" stroke="black" d="M136.87,-71.29C181.06,-60.47 237.27,-46.71 280.95,-36.02"/>
<ellipse fill="black" stroke="black" cx="132.93" cy="-72.25" rx="4" ry="4"/>
</g>
<!-- bmatrixdiff_mod -->
<g id="node3" class="node">
<title>bmatrixdiff_mod</title>
<g id="a_node3"><a xlink:href="../modules/bmatrixdiff_mod_rev.svg" xlink:title="bmatrixdiff_mod">
<polygon fill="none" stroke="blue" points="189.5,-180 79.5,-180 79.5,-144 189.5,-144 189.5,-180"/>
<text text-anchor="middle" x="134.5" y="-158.3" font-family="Times,serif" font-size="14.00">bmatrixdiff_mod</text>
</a>
</g>
</g>
<!-- bmatrixdiff_mod&#45;&gt;physicsFunctions_mod -->
<g id="edge2" class="edge">
<title>bmatrixdiff_mod&#45;&gt;physicsFunctions_mod</title>
<path fill="none" stroke="black" d="M147.87,-136.94C160.03,-117.03 179.7,-89.31 203.5,-72 225.88,-55.73 253.76,-44.01 279.21,-35.8"/>
<ellipse fill="black" stroke="black" cx="145.78" cy="-140.45" rx="4" ry="4"/>
</g>
<!-- calcheightandpressure_mod -->
<g id="node4" class="node">
<title>calcheightandpressure_mod</title>
<g id="a_node4"><a xlink:href="../modules/calcheightandpressure_mod_rev.svg" xlink:title="calcheightandpressure_mod">
<polygon fill="none" stroke="blue" points="227.5,-252 59.5,-252 59.5,-216 227.5,-216 227.5,-252"/>
<text text-anchor="middle" x="143.5" y="-230.3" font-family="Times,serif" font-size="14.00">calcheightandpressure_mod</text>
</a>
</g>
</g>
<!-- calcheightandpressure_mod&#45;&gt;physicsFunctions_mod -->
<g id="edge3" class="edge">
<title>calcheightandpressure_mod&#45;&gt;physicsFunctions_mod</title>
<path fill="none" stroke="black" d="M171.39,-210.44C180.92,-201.69 191.04,-191.11 198.5,-180 227.3,-137.11 206.34,-109.85 241.5,-72 256.32,-56.04 276.98,-44.33 296.32,-36.03"/>
<ellipse fill="black" stroke="black" cx="168.23" cy="-213.25" rx="4" ry="4"/>
</g>
<!-- getgridposition_mod -->
<g id="node5" class="node">
<title>getgridposition_mod</title>
<g id="a_node5"><a xlink:href="../modules/getgridposition_mod_rev.svg" xlink:title="getgridposition_mod">
<polygon fill="none" stroke="blue" points="265,-324 134,-324 134,-288 265,-288 265,-324"/>
<text text-anchor="middle" x="199.5" y="-302.3" font-family="Times,serif" font-size="14.00">getgridposition_mod</text>
</a>
</g>
</g>
<!-- getgridposition_mod&#45;&gt;physicsFunctions_mod -->
<g id="edge4" class="edge">
<title>getgridposition_mod&#45;&gt;physicsFunctions_mod</title>
<path fill="none" stroke="black" d="M218.78,-281.45C225.2,-272.65 231.89,-262.28 236.5,-252 270.19,-176.96 234.29,-140.71 279.5,-72 289.22,-57.22 304.54,-45.03 318.46,-36.08"/>
<ellipse fill="black" stroke="black" cx="216.36" cy="-284.66" rx="4" ry="4"/>
</g>
<!-- gridstatevector_mod -->
<g id="node6" class="node">
<title>gridstatevector_mod</title>
<g id="a_node6"><a xlink:href="../modules/gridstatevector_mod_rev.svg" xlink:title="gridstatevector_mod">
<polygon fill="none" stroke="blue" points="303.5,-396 173.5,-396 173.5,-360 303.5,-360 303.5,-396"/>
<text text-anchor="middle" x="238.5" y="-374.3" font-family="Times,serif" font-size="14.00">gridstatevector_mod</text>
</a>
</g>
</g>
<!-- gridstatevector_mod&#45;&gt;physicsFunctions_mod -->
<g id="edge5" class="edge">
<title>gridstatevector_mod&#45;&gt;physicsFunctions_mod</title>
<path fill="none" stroke="black" d="M256.95,-353.09C262.97,-344.33 269.21,-334.09 273.5,-324 289.38,-286.7 293.5,-275.54 293.5,-235 293.5,-235 293.5,-235 293.5,-161 293.5,-120.03 301.16,-109.57 317.5,-72 322.95,-59.48 331.03,-46.44 337.83,-36.43"/>
<ellipse fill="black" stroke="black" cx="254.52" cy="-356.51" rx="4" ry="4"/>
</g>
<!-- horizontalcoord_mod -->
<g id="node7" class="node">
<title>horizontalcoord_mod</title>
<g id="a_node7"><a xlink:href="../modules/horizontalcoord_mod_rev.svg" xlink:title="horizontalcoord_mod">
<polygon fill="none" stroke="blue" points="341.5,-468 207.5,-468 207.5,-432 341.5,-432 341.5,-468"/>
<text text-anchor="middle" x="274.5" y="-446.3" font-family="Times,serif" font-size="14.00">horizontalcoord_mod</text>
</a>
</g>
</g>
<!-- horizontalcoord_mod&#45;&gt;physicsFunctions_mod -->
<g id="edge6" class="edge">
<title>horizontalcoord_mod&#45;&gt;physicsFunctions_mod</title>
<path fill="none" stroke="black" d="M294.46,-425.59C301.07,-416.79 307.9,-406.4 312.5,-396 328.85,-359.01 331.5,-347.45 331.5,-307 331.5,-307 331.5,-307 331.5,-161 331.5,-115.73 341.1,-63.06 346.66,-36.39"/>
<ellipse fill="black" stroke="black" cx="291.94" cy="-428.82" rx="4" ry="4"/>
</g>
<!-- humiditylimits_mod -->
<g id="node8" class="node">
<title>humiditylimits_mod</title>
<g id="a_node8"><a xlink:href="../modules/humiditylimits_mod_rev.svg" xlink:title="humiditylimits_mod">
<polygon fill="none" stroke="blue" points="379,-540 250,-540 250,-504 379,-504 379,-540"/>
<text text-anchor="middle" x="314.5" y="-518.3" font-family="Times,serif" font-size="14.00">humiditylimits_mod</text>
</a>
</g>
</g>
<!-- humiditylimits_mod&#45;&gt;physicsFunctions_mod -->
<g id="edge7" class="edge">
<title>humiditylimits_mod&#45;&gt;physicsFunctions_mod</title>
<path fill="none" stroke="black" d="M333.55,-497.19C339.76,-488.44 346.16,-478.17 350.5,-468 366.38,-430.8 369.5,-419.45 369.5,-379 369.5,-379 369.5,-379 369.5,-161 369.5,-115.73 359.9,-63.06 354.34,-36.39"/>
<ellipse fill="black" stroke="black" cx="331.03" cy="-500.63" rx="4" ry="4"/>
</g>
<!-- obsfilter_mod -->
<g id="node9" class="node">
<title>obsfilter_mod</title>
<g id="a_node9"><a xlink:href="../modules/obsfilter_mod_rev.svg" xlink:title="obsfilter_mod">
<polygon fill="none" stroke="blue" points="453.5,-612 361.5,-612 361.5,-576 453.5,-576 453.5,-612"/>
<text text-anchor="middle" x="407.5" y="-590.3" font-family="Times,serif" font-size="14.00">obsfilter_mod</text>
</a>
</g>
</g>
<!-- obsfilter_mod&#45;&gt;physicsFunctions_mod -->
<g id="edge8" class="edge">
<title>obsfilter_mod&#45;&gt;physicsFunctions_mod</title>
<path fill="none" stroke="black" d="M407.5,-567.78C407.5,-539.39 407.5,-491.89 407.5,-451 407.5,-451 407.5,-451 407.5,-161 407.5,-112.92 379.01,-61.84 362.31,-36.04"/>
<ellipse fill="black" stroke="black" cx="407.5" cy="-571.95" rx="4" ry="4"/>
</g>
<!-- obsoperatorschem_mod -->
<g id="node10" class="node">
<title>obsoperatorschem_mod</title>
<g id="a_node10"><a xlink:href="../modules/obsoperatorschem_mod_rev.svg" xlink:title="obsoperatorschem_mod">
<polygon fill="none" stroke="blue" points="583,-108 436,-108 436,-72 583,-72 583,-108"/>
<text text-anchor="middle" x="509.5" y="-86.3" font-family="Times,serif" font-size="14.00">obsoperatorschem_mod</text>
</a>
</g>
</g>
<!-- obsoperatorschem_mod&#45;&gt;physicsFunctions_mod -->
<g id="edge9" class="edge">
<title>obsoperatorschem_mod&#45;&gt;physicsFunctions_mod</title>
<path fill="none" stroke="black" d="M463.17,-68.6C439.71,-58.28 411.56,-45.88 389.27,-36.07"/>
<ellipse fill="black" stroke="black" cx="466.94" cy="-70.26" rx="4" ry="4"/>
</g>
<!-- obsoperators_mod -->
<g id="node11" class="node">
<title>obsoperators_mod</title>
<g id="a_node11"><a xlink:href="../modules/obsoperators_mod_rev.svg" xlink:title="obsoperators_mod">
<polygon fill="none" stroke="blue" points="645,-180 528,-180 528,-144 645,-144 645,-180"/>
<text text-anchor="middle" x="586.5" y="-158.3" font-family="Times,serif" font-size="14.00">obsoperators_mod</text>
</a>
</g>
</g>
<!-- obsoperators_mod&#45;&gt;physicsFunctions_mod -->
<g id="edge10" class="edge">
<title>obsoperators_mod&#45;&gt;physicsFunctions_mod</title>
<path fill="none" stroke="black" d="M596.12,-136.24C601.96,-116.68 605.82,-89.81 591.5,-72 570.46,-45.83 484.83,-31.84 421.6,-24.92"/>
<ellipse fill="black" stroke="black" cx="594.88" cy="-140.06" rx="4" ry="4"/>
</g>
<!-- obsspacediag_mod -->
<g id="node12" class="node">
<title>obsspacediag_mod</title>
<g id="a_node12"><a xlink:href="../modules/obsspacediag_mod_rev.svg" xlink:title="obsspacediag_mod">
<polygon fill="none" stroke="blue" points="733.5,-252 613.5,-252 613.5,-216 733.5,-216 733.5,-252"/>
<text text-anchor="middle" x="673.5" y="-230.3" font-family="Times,serif" font-size="14.00">obsspacediag_mod</text>
</a>
</g>
</g>
<!-- obsspacediag_mod&#45;&gt;physicsFunctions_mod -->
<g id="edge11" class="edge">
<title>obsspacediag_mod&#45;&gt;physicsFunctions_mod</title>
<path fill="none" stroke="black" d="M671.86,-207.73C667.96,-170.89 654.82,-103.42 610.5,-72 580.67,-50.85 487.86,-35.55 421.64,-26.98"/>
<ellipse fill="black" stroke="black" cx="672.26" cy="-211.98" rx="4" ry="4"/>
</g>
<!-- thinning_mod -->
<g id="node13" class="node">
<title>thinning_mod</title>
<g id="a_node13"><a xlink:href="../modules/thinning_mod_rev.svg" xlink:title="thinning_mod">
<polygon fill="none" stroke="blue" points="808,-324 715,-324 715,-288 808,-288 808,-324"/>
<text text-anchor="middle" x="761.5" y="-302.3" font-family="Times,serif" font-size="14.00">thinning_mod</text>
</a>
</g>
</g>
<!-- thinning_mod&#45;&gt;physicsFunctions_mod -->
<g id="edge12" class="edge">
<title>thinning_mod&#45;&gt;physicsFunctions_mod</title>
<path fill="none" stroke="black" d="M758.86,-279.58C756.3,-261.31 751.44,-236.39 742.5,-216 711,-144.18 706.63,-114.17 640.5,-72 605.01,-49.37 495.38,-33.94 421.56,-25.8"/>
<ellipse fill="black" stroke="black" cx="759.42" cy="-284.01" rx="4" ry="4"/>
</g>
</g>
</svg>
