<?xml version="1.0" encoding="UTF-8" standalone="no"?>
<!DOCTYPE svg PUBLIC "-//W3C//DTD SVG 1.1//EN"
 "http://www.w3.org/Graphics/SVG/1.1/DTD/svg11.dtd">
<!-- Generated by graphviz version 3.0.0 (20220315.2325)
 -->
<!-- Title: presProfileOperators_mod Pages: 1 -->
<svg width="433pt" height="241pt"
 viewBox="0.00 0.00 433.00 241.00" xmlns="http://www.w3.org/2000/svg" xmlns:xlink="http://www.w3.org/1999/xlink">
<g id="graph0" class="graph" transform="scale(1 1) rotate(0) translate(4 237)">
<title>presProfileOperators_mod</title>
<polygon fill="white" stroke="transparent" points="-4,4 -4,-237 429,-237 429,4 -4,4"/>
<text text-anchor="middle" x="212.5" y="-217.8" font-family="Times,serif" font-size="14.00">Blue boxes indicate modules with reverse dependencies not shown</text>
<text text-anchor="middle" x="212.5" y="-202.8" font-family="Times,serif" font-size="14.00">Higher level reverse dependencies can be shown by clicking on a blue box</text>
<text text-anchor="middle" x="212.5" y="-187.8" font-family="Times,serif" font-size="14.00">Green boxes are programs</text>
<!-- presProfileOperators_mod -->
<g id="node1" class="node">
<title>presProfileOperators_mod</title>
<g id="a_node1"><a xlink:href="presProfileOperators_mod.html" xlink:title="presProfileOperators_mod">
<polygon fill="none" stroke="black" points="303,-36 143,-36 143,0 303,0 303,-36"/>
<text text-anchor="middle" x="223" y="-14.3" font-family="Times,serif" font-size="14.00">presProfileOperators_mod</text>
</a>
</g>
</g>
<!-- obsoperatorschem_mod -->
<g id="node2" class="node">
<title>obsoperatorschem_mod</title>
<g id="a_node2"><a xlink:href="../modules/obsoperatorschem_mod_rev.svg" xlink:title="obsoperatorschem_mod">
<polygon fill="none" stroke="blue" points="245.5,-108 98.5,-108 98.5,-72 245.5,-72 245.5,-108"/>
<text text-anchor="middle" x="172" y="-86.3" font-family="Times,serif" font-size="14.00">obsoperatorschem_mod</text>
</a>
</g>
</g>
<!-- obsoperatorschem_mod&#45;&gt;presProfileOperators_mod -->
<g id="edge1" class="edge">
<title>obsoperatorschem_mod&#45;&gt;presProfileOperators_mod</title>
<path fill="none" stroke="black" d="M189.46,-65.03C196.39,-55.52 204.2,-44.8 210.54,-36.1"/>
<ellipse fill="black" stroke="black" cx="186.96" cy="-68.46" rx="4" ry="4"/>
</g>
<!-- ozoneclim_mod -->
<g id="node3" class="node">
<title>ozoneclim_mod</title>
<g id="a_node3"><a xlink:href="../modules/ozoneclim_mod_rev.svg" xlink:title="ozoneclim_mod">
<polygon fill="none" stroke="blue" points="326.5,-180 221.5,-180 221.5,-144 326.5,-144 326.5,-180"/>
<text text-anchor="middle" x="274" y="-158.3" font-family="Times,serif" font-size="14.00">ozoneclim_mod</text>
</a>
</g>
</g>
<!-- ozoneclim_mod&#45;&gt;presProfileOperators_mod -->
<g id="edge2" class="edge">
<title>ozoneclim_mod&#45;&gt;presProfileOperators_mod</title>
<path fill="none" stroke="black" d="M270.85,-135.44C268.06,-117.28 263.14,-92.58 255,-72 250.02,-59.41 242.19,-46.37 235.52,-36.38"/>
<ellipse fill="black" stroke="black" cx="271.48" cy="-139.82" rx="4" ry="4"/>
</g>
</g>
</svg>
