<?xml version="1.0" encoding="UTF-8" standalone="no"?>
<!DOCTYPE svg PUBLIC "-//W3C//DTD SVG 1.1//EN"
 "http://www.w3.org/Graphics/SVG/1.1/DTD/svg11.dtd">
<!-- Generated by graphviz version 3.0.0 (20220315.2325)
 -->
<!-- Title: quasiNewton_mod Pages: 1 -->
<svg width="433pt" height="241pt"
 viewBox="0.00 0.00 433.00 241.00" xmlns="http://www.w3.org/2000/svg" xmlns:xlink="http://www.w3.org/1999/xlink">
<g id="graph0" class="graph" transform="scale(1 1) rotate(0) translate(4 237)">
<title>quasiNewton_mod</title>
<polygon fill="white" stroke="transparent" points="-4,4 -4,-237 429,-237 429,4 -4,4"/>
<text text-anchor="middle" x="212.5" y="-217.8" font-family="Times,serif" font-size="14.00">Blue boxes indicate modules with reverse dependencies not shown</text>
<text text-anchor="middle" x="212.5" y="-202.8" font-family="Times,serif" font-size="14.00">Higher level reverse dependencies can be shown by clicking on a blue box</text>
<text text-anchor="middle" x="212.5" y="-187.8" font-family="Times,serif" font-size="14.00">Green boxes are programs</text>
<!-- quasiNewton_mod -->
<g id="node1" class="node">
<title>quasiNewton_mod</title>
<g id="a_node1"><a xlink:href="quasiNewton_mod.html" xlink:title="quasiNewton_mod">
<polygon fill="none" stroke="black" points="259,-36 139,-36 139,0 259,0 259,-36"/>
<text text-anchor="middle" x="199" y="-14.3" font-family="Times,serif" font-size="14.00">quasiNewton_mod</text>
</a>
</g>
</g>
<!-- fsoi_mod -->
<g id="node2" class="node">
<title>fsoi_mod</title>
<g id="a_node2"><a xlink:href="../modules/fsoi_mod_rev.svg" xlink:title="fsoi_mod">
<polygon fill="none" stroke="blue" points="202,-108 134,-108 134,-72 202,-72 202,-108"/>
<text text-anchor="middle" x="168" y="-86.3" font-family="Times,serif" font-size="14.00">fsoi_mod</text>
</a>
</g>
</g>
<!-- fsoi_mod&#45;&gt;quasiNewton_mod -->
<g id="edge1" class="edge">
<title>fsoi_mod&#45;&gt;quasiNewton_mod</title>
<path fill="none" stroke="black" d="M178.98,-64.2C183.1,-54.9 187.68,-44.55 191.43,-36.1"/>
<ellipse fill="black" stroke="black" cx="177.28" cy="-68.04" rx="4" ry="4"/>
</g>
<!-- minimization_mod -->
<g id="node3" class="node">
<title>minimization_mod</title>
<g id="a_node3"><a xlink:href="../modules/minimization_mod_rev.svg" xlink:title="minimization_mod">
<polygon fill="none" stroke="blue" points="291,-180 169,-180 169,-144 291,-144 291,-180"/>
<text text-anchor="middle" x="230" y="-158.3" font-family="Times,serif" font-size="14.00">minimization_mod</text>
</a>
</g>
</g>
<!-- minimization_mod&#45;&gt;quasiNewton_mod -->
<g id="edge2" class="edge">
<title>minimization_mod&#45;&gt;quasiNewton_mod</title>
<path fill="none" stroke="black" d="M224.7,-135.75C220.93,-117.92 215.72,-93.48 211,-72 208.37,-60.02 205.31,-46.54 202.94,-36.17"/>
<ellipse fill="black" stroke="black" cx="225.59" cy="-140.01" rx="4" ry="4"/>
</g>
</g>
</svg>
