<?xml version="1.0" encoding="UTF-8" standalone="no"?>
<!DOCTYPE svg PUBLIC "-//W3C//DTD SVG 1.1//EN"
 "http://www.w3.org/Graphics/SVG/1.1/DTD/svg11.dtd">
<!-- Generated by graphviz version 3.0.0 (20220315.2325)
 -->
<!-- Title: quasiNewton_mod Pages: 1 -->
<svg width="382pt" height="169pt"
 viewBox="0.00 0.00 382.00 169.00" xmlns="http://www.w3.org/2000/svg" xmlns:xlink="http://www.w3.org/1999/xlink">
<g id="graph0" class="graph" transform="scale(1 1) rotate(0) translate(4 165)">
<title>quasiNewton_mod</title>
<polygon fill="white" stroke="transparent" points="-4,4 -4,-165 378,-165 378,4 -4,4"/>
<text text-anchor="middle" x="187" y="-37.8" font-family="Times,serif" font-size="14.00">Red boxes indicate modules with dependencies not shown</text>
<text text-anchor="middle" x="187" y="-22.8" font-family="Times,serif" font-size="14.00">Lower level dependencies can be shown by clicking on a red box</text>
<text text-anchor="middle" x="187" y="-7.8" font-family="Times,serif" font-size="14.00">Shaded boxes indicate modules with no dependencies</text>
<!-- quasiNewton_mod -->
<g id="node1" class="node">
<title>quasiNewton_mod</title>
<g id="a_node1"><a xlink:href="quasiNewton_mod.html" xlink:title="quasiNewton_mod">
<polygon fill="none" stroke="black" points="247,-161 127,-161 127,-125 247,-125 247,-161"/>
<text text-anchor="middle" x="187" y="-139.3" font-family="Times,serif" font-size="14.00">quasiNewton_mod</text>
</a>
</g>
</g>
<!-- midasmpi_mod -->
<g id="node2" class="node">
<title>midasmpi_mod</title>
<g id="a_node2"><a xlink:href="../modules/midasmpi_mod.svg" xlink:title="midasmpi_mod">
<polygon fill="none" stroke="red" points="238,-89 136,-89 136,-53 238,-53 238,-89"/>
<text text-anchor="middle" x="187" y="-67.3" font-family="Times,serif" font-size="14.00">midasmpi_mod</text>
</a>
</g>
</g>
<!-- quasiNewton_mod&#45;&gt;midasmpi_mod -->
<g id="edge1" class="edge">
<title>quasiNewton_mod&#45;&gt;midasmpi_mod</title>
<path fill="none" stroke="black" d="M187,-124.7C187,-116.98 187,-107.71 187,-99.11"/>
<polygon fill="black" stroke="black" points="190.5,-99.1 187,-89.1 183.5,-99.1 190.5,-99.1"/>
</g>
</g>
</svg>
