<?xml version="1.0" encoding="UTF-8" standalone="no"?>
<!DOCTYPE svg PUBLIC "-//W3C//DTD SVG 1.1//EN"
 "http://www.w3.org/Graphics/SVG/1.1/DTD/svg11.dtd">
<!-- Generated by graphviz version 3.0.0 (20220315.2325)
 -->
<!-- Title: radialVelocity_mod Pages: 1 -->
<svg width="382pt" height="241pt"
 viewBox="0.00 0.00 382.00 241.00" xmlns="http://www.w3.org/2000/svg" xmlns:xlink="http://www.w3.org/1999/xlink">
<g id="graph0" class="graph" transform="scale(1 1) rotate(0) translate(4 237)">
<title>radialVelocity_mod</title>
<polygon fill="white" stroke="transparent" points="-4,4 -4,-237 378,-237 378,4 -4,4"/>
<text text-anchor="middle" x="187" y="-37.8" font-family="Times,serif" font-size="14.00">Red boxes indicate modules with dependencies not shown</text>
<text text-anchor="middle" x="187" y="-22.8" font-family="Times,serif" font-size="14.00">Lower level dependencies can be shown by clicking on a red box</text>
<text text-anchor="middle" x="187" y="-7.8" font-family="Times,serif" font-size="14.00">Shaded boxes indicate modules with no dependencies</text>
<!-- radialVelocity_mod -->
<g id="node1" class="node">
<title>radialVelocity_mod</title>
<g id="a_node1"><a xlink:href="radialVelocity_mod.html" xlink:title="radialVelocity_mod">
<polygon fill="none" stroke="black" points="248.75,-233 123.75,-233 123.75,-197 248.75,-197 248.75,-233"/>
<text text-anchor="middle" x="186.25" y="-211.3" font-family="Times,serif" font-size="14.00">radialVelocity_mod</text>
</a>
</g>
</g>
<!-- codeprecision_mod -->
<g id="node2" class="node">
<title>codeprecision_mod</title>
<g id="a_node2"><a xlink:href="codeprecision_mod.html" xlink:title="codeprecision_mod">
<polygon fill="gray" stroke="black" points="202.75,-161 79.75,-161 79.75,-125 202.75,-125 202.75,-161"/>
<text text-anchor="middle" x="141.25" y="-139.3" font-family="Times,serif" font-size="14.00">codeprecision_mod</text>
</a>
</g>
</g>
<!-- radialVelocity_mod&#45;&gt;codeprecision_mod -->
<g id="edge1" class="edge">
<title>radialVelocity_mod&#45;&gt;codeprecision_mod</title>
<path fill="none" stroke="black" d="M175.13,-196.7C169.89,-188.56 163.55,-178.69 157.77,-169.7"/>
<polygon fill="black" stroke="black" points="160.6,-167.62 152.25,-161.1 154.71,-171.41 160.6,-167.62"/>
</g>
<!-- earthconstants_mod -->
<g id="node3" class="node">
<title>earthconstants_mod</title>
<g id="a_node3"><a xlink:href="../modules/earthconstants_mod.svg" xlink:title="earthconstants_mod">
<polygon fill="none" stroke="red" points="294.25,-89 168.25,-89 168.25,-53 294.25,-53 294.25,-89"/>
<text text-anchor="middle" x="231.25" y="-67.3" font-family="Times,serif" font-size="14.00">earthconstants_mod</text>
</a>
</g>
</g>
<!-- radialVelocity_mod&#45;&gt;earthconstants_mod -->
<g id="edge2" class="edge">
<title>radialVelocity_mod&#45;&gt;earthconstants_mod</title>
<path fill="none" stroke="black" d="M196.03,-196.8C201.46,-186.65 207.96,-173.4 212.25,-161 219.26,-140.75 224.17,-116.98 227.25,-99.1"/>
<polygon fill="black" stroke="black" points="230.73,-99.5 228.88,-89.07 223.82,-98.37 230.73,-99.5"/>
</g>
</g>
</svg>
