<?xml version="1.0" encoding="UTF-8" standalone="no"?>
<!DOCTYPE svg PUBLIC "-//W3C//DTD SVG 1.1//EN"
 "http://www.w3.org/Graphics/SVG/1.1/DTD/svg11.dtd">
<!-- Generated by graphviz version 3.0.0 (20220315.2325)
 -->
<!-- Title: radialVelocity_mod Pages: 1 -->
<svg width="433pt" height="313pt"
 viewBox="0.00 0.00 433.00 313.00" xmlns="http://www.w3.org/2000/svg" xmlns:xlink="http://www.w3.org/1999/xlink">
<g id="graph0" class="graph" transform="scale(1 1) rotate(0) translate(4 309)">
<title>radialVelocity_mod</title>
<polygon fill="white" stroke="transparent" points="-4,4 -4,-309 429,-309 429,4 -4,4"/>
<text text-anchor="middle" x="212.5" y="-289.8" font-family="Times,serif" font-size="14.00">Blue boxes indicate modules with reverse dependencies not shown</text>
<text text-anchor="middle" x="212.5" y="-274.8" font-family="Times,serif" font-size="14.00">Higher level reverse dependencies can be shown by clicking on a blue box</text>
<text text-anchor="middle" x="212.5" y="-259.8" font-family="Times,serif" font-size="14.00">Green boxes are programs</text>
<!-- radialVelocity_mod -->
<g id="node1" class="node">
<title>radialVelocity_mod</title>
<g id="a_node1"><a xlink:href="radialVelocity_mod.html" xlink:title="radialVelocity_mod">
<polygon fill="none" stroke="black" points="260.75,-36 135.75,-36 135.75,0 260.75,0 260.75,-36"/>
<text text-anchor="middle" x="198.25" y="-14.3" font-family="Times,serif" font-size="14.00">radialVelocity_mod</text>
</a>
</g>
</g>
<!-- obsfilter_mod -->
<g id="node2" class="node">
<title>obsfilter_mod</title>
<g id="a_node2"><a xlink:href="../modules/obsfilter_mod_rev.svg" xlink:title="obsfilter_mod">
<polygon fill="none" stroke="blue" points="170.25,-108 78.25,-108 78.25,-72 170.25,-72 170.25,-108"/>
<text text-anchor="middle" x="124.25" y="-86.3" font-family="Times,serif" font-size="14.00">obsfilter_mod</text>
</a>
</g>
</g>
<!-- obsfilter_mod&#45;&gt;radialVelocity_mod -->
<g id="edge1" class="edge">
<title>obsfilter_mod&#45;&gt;radialVelocity_mod</title>
<path fill="none" stroke="black" d="M148.42,-66.13C158.76,-56.36 170.61,-45.14 180.17,-36.1"/>
<ellipse fill="black" stroke="black" cx="145.45" cy="-68.95" rx="4" ry="4"/>
</g>
<!-- slantprofilelatlon_mod -->
<g id="node3" class="node">
<title>slantprofilelatlon_mod</title>
<g id="a_node3"><a xlink:href="../modules/slantprofilelatlon_mod_rev.svg" xlink:title="slantprofilelatlon_mod">
<polygon fill="none" stroke="blue" points="268.25,-180 128.25,-180 128.25,-144 268.25,-144 268.25,-180"/>
<text text-anchor="middle" x="198.25" y="-158.3" font-family="Times,serif" font-size="14.00">slantprofilelatlon_mod</text>
</a>
</g>
</g>
<!-- slantprofilelatlon_mod&#45;&gt;radialVelocity_mod -->
<g id="edge2" class="edge">
<title>slantprofilelatlon_mod&#45;&gt;radialVelocity_mod</title>
<path fill="none" stroke="black" d="M198.25,-135.56C198.25,-106.86 198.25,-60.96 198.25,-36.19"/>
<ellipse fill="black" stroke="black" cx="198.25" cy="-139.87" rx="4" ry="4"/>
</g>
<!-- sqliteread_mod -->
<g id="node4" class="node">
<title>sqliteread_mod</title>
<g id="a_node4"><a xlink:href="../modules/sqliteread_mod_rev.svg" xlink:title="sqliteread_mod">
<polygon fill="none" stroke="blue" points="346.75,-252 245.75,-252 245.75,-216 346.75,-216 346.75,-252"/>
<text text-anchor="middle" x="296.25" y="-230.3" font-family="Times,serif" font-size="14.00">sqliteread_mod</text>
</a>
</g>
</g>
<!-- sqliteread_mod&#45;&gt;radialVelocity_mod -->
<g id="edge3" class="edge">
<title>sqliteread_mod&#45;&gt;radialVelocity_mod</title>
<path fill="none" stroke="black" d="M293.23,-207.39C290.5,-189.21 285.6,-164.5 277.25,-144 260.3,-102.4 229.6,-59.26 211.88,-36.13"/>
<ellipse fill="black" stroke="black" cx="293.84" cy="-211.78" rx="4" ry="4"/>
</g>
</g>
</svg>
