<?xml version="1.0" encoding="UTF-8" standalone="no"?>
<!DOCTYPE svg PUBLIC "-//W3C//DTD SVG 1.1//EN"
 "http://www.w3.org/Graphics/SVG/1.1/DTD/svg11.dtd">
<!-- Generated by graphviz version 3.0.0 (20220315.2325)
 -->
<!-- Title: ramDisk_mod Pages: 1 -->
<svg width="1744pt" height="673pt"
 viewBox="0.00 0.00 1744.00 673.00" xmlns="http://www.w3.org/2000/svg" xmlns:xlink="http://www.w3.org/1999/xlink">
<g id="graph0" class="graph" transform="scale(1 1) rotate(0) translate(4 669)">
<title>ramDisk_mod</title>
<polygon fill="white" stroke="transparent" points="-4,4 -4,-669 1740,-669 1740,4 -4,4"/>
<text text-anchor="middle" x="868" y="-649.8" font-family="Times,serif" font-size="14.00">Blue boxes indicate modules with reverse dependencies not shown</text>
<text text-anchor="middle" x="868" y="-634.8" font-family="Times,serif" font-size="14.00">Higher level reverse dependencies can be shown by clicking on a blue box</text>
<text text-anchor="middle" x="868" y="-619.8" font-family="Times,serif" font-size="14.00">Green boxes are programs</text>
<!-- ramDisk_mod -->
<g id="node1" class="node">
<title>ramDisk_mod</title>
<g id="a_node1"><a xlink:href="ramDisk_mod.html" xlink:title="ramDisk_mod">
<polygon fill="none" stroke="black" points="795,-36 700,-36 700,0 795,0 795,-36"/>
<text text-anchor="middle" x="747.5" y="-14.3" font-family="Times,serif" font-size="14.00">ramDisk_mod</text>
</a>
</g>
</g>
<!-- advection_mod -->
<g id="node2" class="node">
<title>advection_mod</title>
<g id="a_node2"><a xlink:href="../modules/advection_mod_rev.svg" xlink:title="advection_mod">
<polygon fill="none" stroke="blue" points="101,-108 0,-108 0,-72 101,-72 101,-108"/>
<text text-anchor="middle" x="50.5" y="-86.3" font-family="Times,serif" font-size="14.00">advection_mod</text>
</a>
</g>
</g>
<!-- advection_mod&#45;&gt;ramDisk_mod -->
<g id="edge1" class="edge">
<title>advection_mod&#45;&gt;ramDisk_mod</title>
<path fill="none" stroke="black" d="M109.24,-73.16C111.35,-72.74 113.44,-72.35 115.5,-72 331.74,-34.94 594.22,-23.46 699.98,-20.2"/>
<ellipse fill="black" stroke="black" cx="104.97" cy="-74.05" rx="4" ry="4"/>
</g>
<!-- biascorrectionsat_mod -->
<g id="node3" class="node">
<title>biascorrectionsat_mod</title>
<g id="a_node3"><a xlink:href="../modules/biascorrectionsat_mod_rev.svg" xlink:title="biascorrectionsat_mod">
<polygon fill="none" stroke="blue" points="169.5,-180 29.5,-180 29.5,-144 169.5,-144 169.5,-180"/>
<text text-anchor="middle" x="99.5" y="-158.3" font-family="Times,serif" font-size="14.00">biascorrectionsat_mod</text>
</a>
</g>
</g>
<!-- biascorrectionsat_mod&#45;&gt;ramDisk_mod -->
<g id="edge2" class="edge">
<title>biascorrectionsat_mod&#45;&gt;ramDisk_mod</title>
<path fill="none" stroke="black" d="M114.72,-136.92C129.5,-115.84 153.99,-86.4 183.5,-72 273.98,-27.84 580.51,-20.42 699.62,-19.21"/>
<ellipse fill="black" stroke="black" cx="112.34" cy="-140.41" rx="4" ry="4"/>
</g>
<!-- ensemblestatevector_mod -->
<g id="node4" class="node">
<title>ensemblestatevector_mod</title>
<g id="a_node4"><a xlink:href="../modules/ensemblestatevector_mod_rev.svg" xlink:title="ensemblestatevector_mod">
<polygon fill="none" stroke="blue" points="207.5,-252 49.5,-252 49.5,-216 207.5,-216 207.5,-252"/>
<text text-anchor="middle" x="128.5" y="-230.3" font-family="Times,serif" font-size="14.00">ensemblestatevector_mod</text>
</a>
</g>
</g>
<!-- ensemblestatevector_mod&#45;&gt;ramDisk_mod -->
<g id="edge3" class="edge">
<title>ensemblestatevector_mod&#45;&gt;ramDisk_mod</title>
<path fill="none" stroke="black" d="M153.8,-210.02C162.45,-201.24 171.65,-190.75 178.5,-180 206.28,-136.44 180.25,-103.11 221.5,-72 259.28,-43.5 577.61,-26.52 699.91,-21"/>
<ellipse fill="black" stroke="black" cx="150.79" cy="-213" rx="4" ry="4"/>
</g>
<!-- filenames_mod -->
<g id="node5" class="node">
<title>filenames_mod</title>
<g id="a_node5"><a xlink:href="../modules/filenames_mod_rev.svg" xlink:title="filenames_mod">
<polygon fill="none" stroke="blue" points="245,-324 144,-324 144,-288 245,-288 245,-324"/>
<text text-anchor="middle" x="194.5" y="-302.3" font-family="Times,serif" font-size="14.00">filenames_mod</text>
</a>
</g>
</g>
<!-- filenames_mod&#45;&gt;ramDisk_mod -->
<g id="edge4" class="edge">
<title>filenames_mod&#45;&gt;ramDisk_mod</title>
<path fill="none" stroke="black" d="M205.74,-280.23C209.47,-271.43 213.45,-261.38 216.5,-252 241.9,-173.77 197.78,-126.37 259.5,-72 292.15,-43.23 583.35,-26.63 699.74,-21.1"/>
<ellipse fill="black" stroke="black" cx="204.14" cy="-283.93" rx="4" ry="4"/>
</g>
<!-- gridstatevectorfileio_mod -->
<g id="node6" class="node">
<title>gridstatevectorfileio_mod</title>
<g id="a_node6"><a xlink:href="../modules/gridstatevectorfileio_mod_rev.svg" xlink:title="gridstatevectorfileio_mod">
<polygon fill="none" stroke="blue" points="283.5,-396 125.5,-396 125.5,-360 283.5,-360 283.5,-396"/>
<text text-anchor="middle" x="204.5" y="-374.3" font-family="Times,serif" font-size="14.00">gridstatevectorfileio_mod</text>
</a>
</g>
</g>
<!-- gridstatevectorfileio_mod&#45;&gt;ramDisk_mod -->
<g id="edge5" class="edge">
<title>gridstatevectorfileio_mod&#45;&gt;ramDisk_mod</title>
<path fill="none" stroke="black" d="M230.64,-354.07C239.07,-345.42 247.72,-335 253.5,-324 272.35,-288.11 273.5,-275.54 273.5,-235 273.5,-235 273.5,-235 273.5,-161 273.5,-120.03 266.49,-98.78 297.5,-72 327.57,-46.04 590.36,-28.05 699.89,-21.61"/>
<ellipse fill="black" stroke="black" cx="227.73" cy="-356.95" rx="4" ry="4"/>
</g>
<!-- obsdiagfiles_mod -->
<g id="node7" class="node">
<title>obsdiagfiles_mod</title>
<g id="a_node7"><a xlink:href="../modules/obsdiagfiles_mod_rev.svg" xlink:title="obsdiagfiles_mod">
<polygon fill="none" stroke="blue" points="321,-468 208,-468 208,-432 321,-432 321,-468"/>
<text text-anchor="middle" x="264.5" y="-446.3" font-family="Times,serif" font-size="14.00">obsdiagfiles_mod</text>
</a>
</g>
</g>
<!-- obsdiagfiles_mod&#45;&gt;ramDisk_mod -->
<g id="edge6" class="edge">
<title>obsdiagfiles_mod&#45;&gt;ramDisk_mod</title>
<path fill="none" stroke="black" d="M279.07,-424.84C283.9,-416.01 288.95,-405.78 292.5,-396 306.3,-357.98 311.5,-347.45 311.5,-307 311.5,-307 311.5,-307 311.5,-161 311.5,-120.03 304.64,-98.94 335.5,-72 388.88,-25.4 603.05,-19.11 699.73,-18.71"/>
<ellipse fill="black" stroke="black" cx="277.06" cy="-428.41" rx="4" ry="4"/>
</g>
<!-- obsfiles_mod -->
<g id="node8" class="node">
<title>obsfiles_mod</title>
<g id="a_node8"><a xlink:href="../modules/obsfiles_mod_rev.svg" xlink:title="obsfiles_mod">
<polygon fill="none" stroke="blue" points="359,-540 270,-540 270,-504 359,-504 359,-540"/>
<text text-anchor="middle" x="314.5" y="-518.3" font-family="Times,serif" font-size="14.00">obsfiles_mod</text>
</a>
</g>
</g>
<!-- obsfiles_mod&#45;&gt;ramDisk_mod -->
<g id="edge7" class="edge">
<title>obsfiles_mod&#45;&gt;ramDisk_mod</title>
<path fill="none" stroke="black" d="M324.5,-496.14C334.85,-468.14 349.5,-421.06 349.5,-379 349.5,-379 349.5,-379 349.5,-161 349.5,-120.03 342.81,-99.14 373.5,-72 420.97,-30.02 609.89,-21.22 699.66,-19.43"/>
<ellipse fill="black" stroke="black" cx="323" cy="-500.11" rx="4" ry="4"/>
</g>
<!-- ominusf_mod -->
<g id="node9" class="node">
<title>ominusf_mod</title>
<g id="a_node9"><a xlink:href="../modules/ominusf_mod_rev.svg" xlink:title="ominusf_mod">
<polygon fill="none" stroke="blue" points="434,-612 341,-612 341,-576 434,-576 434,-612"/>
<text text-anchor="middle" x="387.5" y="-590.3" font-family="Times,serif" font-size="14.00">ominusf_mod</text>
</a>
</g>
</g>
<!-- ominusf_mod&#45;&gt;ramDisk_mod -->
<g id="edge8" class="edge">
<title>ominusf_mod&#45;&gt;ramDisk_mod</title>
<path fill="none" stroke="black" d="M387.5,-567.78C387.5,-539.39 387.5,-491.89 387.5,-451 387.5,-451 387.5,-451 387.5,-161 387.5,-119.91 381.8,-99.31 412.5,-72 454.19,-34.92 617.72,-23.7 699.87,-20.37"/>
<ellipse fill="black" stroke="black" cx="387.5" cy="-571.95" rx="4" ry="4"/>
</g>
<!-- sqliteread_mod -->
<g id="node10" class="node">
<title>sqliteread_mod</title>
<g id="a_node10"><a xlink:href="../modules/sqliteread_mod_rev.svg" xlink:title="sqliteread_mod">
<polygon fill="none" stroke="blue" points="523,-108 422,-108 422,-72 523,-72 523,-108"/>
<text text-anchor="middle" x="472.5" y="-86.3" font-family="Times,serif" font-size="14.00">sqliteread_mod</text>
</a>
</g>
</g>
<!-- sqliteread_mod&#45;&gt;ramDisk_mod -->
<g id="edge9" class="edge">
<title>sqliteread_mod&#45;&gt;ramDisk_mod</title>
<path fill="none" stroke="black" d="M531.33,-73.59C533.41,-73.05 535.47,-72.52 537.5,-72 593.22,-57.68 657.35,-41.55 699.93,-30.88"/>
<ellipse fill="black" stroke="black" cx="527.1" cy="-74.68" rx="4" ry="4"/>
</g>
<!-- midas_midas_adjointtest -->
<g id="node11" class="node">
<title>midas_midas_adjointtest</title>
<g id="a_node11"><a xlink:href="../programs/midas_adjointtest.html" xlink:title="midas_midas_adjointtest">
<polygon fill="gray" stroke="green" points="567.5,-180 415.5,-180 415.5,-144 567.5,-144 567.5,-180"/>
<text text-anchor="middle" x="491.5" y="-158.3" font-family="Times,serif" font-size="14.00">midas_midas_adjointtest</text>
</a>
</g>
</g>
<!-- midas_midas_adjointtest&#45;&gt;ramDisk_mod -->
<g id="edge10" class="edge">
<title>midas_midas_adjointtest&#45;&gt;ramDisk_mod</title>
<path fill="none" stroke="black" d="M509.9,-137.37C526.61,-117.37 552.96,-89.28 581.5,-72 618.25,-49.75 665.3,-35.88 699.92,-27.93"/>
<ellipse fill="black" stroke="black" cx="507.15" cy="-140.72" rx="4" ry="4"/>
</g>
<!-- midas_midas_analysiserroroi -->
<g id="node12" class="node">
<title>midas_midas_analysiserroroi</title>
<g id="a_node12"><a xlink:href="../programs/midas_analysiserroroi.html" xlink:title="midas_midas_analysiserroroi">
<polygon fill="gray" stroke="green" points="606,-252 429,-252 429,-216 606,-216 606,-252"/>
<text text-anchor="middle" x="517.5" y="-230.3" font-family="Times,serif" font-size="14.00">midas_midas_analysiserroroi</text>
</a>
</g>
</g>
<!-- midas_midas_analysiserroroi&#45;&gt;ramDisk_mod -->
<g id="edge11" class="edge">
<title>midas_midas_analysiserroroi&#45;&gt;ramDisk_mod</title>
<path fill="none" stroke="black" d="M547.44,-210.79C557.68,-202.07 568.54,-191.41 576.5,-180 606.05,-137.62 583.22,-108.78 619.5,-72 641.12,-50.08 673.12,-36.83 699.72,-29.06"/>
<ellipse fill="black" stroke="black" cx="544.26" cy="-213.42" rx="4" ry="4"/>
</g>
<!-- midas_midas_calcstats -->
<g id="node13" class="node">
<title>midas_midas_calcstats</title>
<g id="a_node13"><a xlink:href="../programs/midas_calcstats.html" xlink:title="midas_midas_calcstats">
<polygon fill="gray" stroke="green" points="643.5,-324 501.5,-324 501.5,-288 643.5,-288 643.5,-324"/>
<text text-anchor="middle" x="572.5" y="-302.3" font-family="Times,serif" font-size="14.00">midas_midas_calcstats</text>
</a>
</g>
</g>
<!-- midas_midas_calcstats&#45;&gt;ramDisk_mod -->
<g id="edge12" class="edge">
<title>midas_midas_calcstats&#45;&gt;ramDisk_mod</title>
<path fill="none" stroke="black" d="M594.82,-281.39C602.02,-272.71 609.43,-262.43 614.5,-252 650.45,-178.02 608.61,-138.14 657.5,-72 669.03,-56.4 686.65,-44.58 703.25,-36.11"/>
<ellipse fill="black" stroke="black" cx="592.01" cy="-284.67" rx="4" ry="4"/>
</g>
<!-- midas_midas_diagbmatrix -->
<g id="node14" class="node">
<title>midas_midas_diagbmatrix</title>
<g id="a_node14"><a xlink:href="../programs/midas_diagbmatrix.html" xlink:title="midas_midas_diagbmatrix">
<polygon fill="gray" stroke="green" points="681,-396 518,-396 518,-360 681,-360 681,-396"/>
<text text-anchor="middle" x="599.5" y="-374.3" font-family="Times,serif" font-size="14.00">midas_midas_diagbmatrix</text>
</a>
</g>
</g>
<!-- midas_midas_diagbmatrix&#45;&gt;ramDisk_mod -->
<g id="edge13" class="edge">
<title>midas_midas_diagbmatrix&#45;&gt;ramDisk_mod</title>
<path fill="none" stroke="black" d="M627.84,-354.49C636.98,-345.86 646.33,-335.35 652.5,-324 671.82,-288.46 671.5,-275.45 671.5,-235 671.5,-235 671.5,-235 671.5,-161 671.5,-120.03 675.16,-107.56 695.5,-72 703.31,-58.35 715.49,-45.67 726.09,-36.14"/>
<ellipse fill="black" stroke="black" cx="624.86" cy="-357.18" rx="4" ry="4"/>
</g>
<!-- midas_midas_diaghbht -->
<g id="node15" class="node">
<title>midas_midas_diaghbht</title>
<g id="a_node15"><a xlink:href="../programs/midas_diaghbht.html" xlink:title="midas_midas_diaghbht">
<polygon fill="gray" stroke="green" points="719,-468 576,-468 576,-432 719,-432 719,-468"/>
<text text-anchor="middle" x="647.5" y="-446.3" font-family="Times,serif" font-size="14.00">midas_midas_diaghbht</text>
</a>
</g>
</g>
<!-- midas_midas_diaghbht&#45;&gt;ramDisk_mod -->
<g id="edge14" class="edge">
<title>midas_midas_diaghbht&#45;&gt;ramDisk_mod</title>
<path fill="none" stroke="black" d="M669.9,-425.43C677.1,-416.75 684.5,-406.47 689.5,-396 706.97,-359.42 709.5,-347.54 709.5,-307 709.5,-307 709.5,-307 709.5,-161 709.5,-114.55 728.71,-62.38 739.81,-36.09"/>
<ellipse fill="black" stroke="black" cx="667.09" cy="-428.7" rx="4" ry="4"/>
</g>
<!-- midas_midas_ensembleh -->
<g id="node16" class="node">
<title>midas_midas_ensembleh</title>
<g id="a_node16"><a xlink:href="../programs/midas_ensembleh.html" xlink:title="midas_midas_ensembleh">
<polygon fill="gray" stroke="green" points="757,-540 602,-540 602,-504 757,-504 757,-540"/>
<text text-anchor="middle" x="679.5" y="-518.3" font-family="Times,serif" font-size="14.00">midas_midas_ensembleh</text>
</a>
</g>
</g>
<!-- midas_midas_ensembleh&#45;&gt;ramDisk_mod -->
<g id="edge15" class="edge">
<title>midas_midas_ensembleh&#45;&gt;ramDisk_mod</title>
<path fill="none" stroke="black" d="M705.1,-497.99C713.36,-489.33 721.83,-478.92 727.5,-468 746.17,-432.01 747.5,-419.54 747.5,-379 747.5,-379 747.5,-379 747.5,-161 747.5,-115.89 747.5,-62.71 747.5,-36.05"/>
<ellipse fill="black" stroke="black" cx="702.27" cy="-500.85" rx="4" ry="4"/>
</g>
<!-- midas_midas_enspostprocess -->
<g id="node17" class="node">
<title>midas_midas_enspostprocess</title>
<g id="a_node17"><a xlink:href="../programs/midas_enspostprocess.html" xlink:title="midas_midas_enspostprocess">
<polygon fill="gray" stroke="green" points="874,-612 697,-612 697,-576 874,-576 874,-612"/>
<text text-anchor="middle" x="785.5" y="-590.3" font-family="Times,serif" font-size="14.00">midas_midas_enspostprocess</text>
</a>
</g>
</g>
<!-- midas_midas_enspostprocess&#45;&gt;ramDisk_mod -->
<g id="edge16" class="edge">
<title>midas_midas_enspostprocess&#45;&gt;ramDisk_mod</title>
<path fill="none" stroke="black" d="M785.5,-567.78C785.5,-539.39 785.5,-491.89 785.5,-451 785.5,-451 785.5,-451 785.5,-161 785.5,-114.55 766.29,-62.38 755.19,-36.09"/>
<ellipse fill="black" stroke="black" cx="785.5" cy="-571.95" rx="4" ry="4"/>
</g>
<!-- midas_midas_extractbmatrixfor1dvar -->
<g id="node18" class="node">
<title>midas_midas_extractbmatrixfor1dvar</title>
<g id="a_node18"><a xlink:href="../programs/midas_extractbmatrixfor1dvar.html" xlink:title="midas_midas_extractbmatrixfor1dvar">
<polygon fill="gray" stroke="green" points="1037,-108 814,-108 814,-72 1037,-72 1037,-108"/>
<text text-anchor="middle" x="925.5" y="-86.3" font-family="Times,serif" font-size="14.00">midas_midas_extractbmatrixfor1dvar</text>
</a>
</g>
</g>
<!-- midas_midas_extractbmatrixfor1dvar&#45;&gt;ramDisk_mod -->
<g id="edge17" class="edge">
<title>midas_midas_extractbmatrixfor1dvar&#45;&gt;ramDisk_mod</title>
<path fill="none" stroke="black" d="M874.31,-68.87C847.92,-58.49 816.08,-45.97 790.9,-36.07"/>
<ellipse fill="black" stroke="black" cx="878.23" cy="-70.41" rx="4" ry="4"/>
</g>
<!-- midas_midas_gencoeff -->
<g id="node19" class="node">
<title>midas_midas_gencoeff</title>
<g id="a_node19"><a xlink:href="../programs/midas_gencoeff.html" xlink:title="midas_midas_gencoeff">
<polygon fill="gray" stroke="green" points="1075,-180 932,-180 932,-144 1075,-144 1075,-180"/>
<text text-anchor="middle" x="1003.5" y="-158.3" font-family="Times,serif" font-size="14.00">midas_midas_gencoeff</text>
</a>
</g>
</g>
<!-- midas_midas_gencoeff&#45;&gt;ramDisk_mod -->
<g id="edge18" class="edge">
<title>midas_midas_gencoeff&#45;&gt;ramDisk_mod</title>
<path fill="none" stroke="black" d="M1027.68,-137.88C1044.76,-118.75 1061.94,-91.62 1045.5,-72 1014.11,-34.54 871.02,-23.54 795.12,-20.32"/>
<ellipse fill="black" stroke="black" cx="1024.9" cy="-140.87" rx="4" ry="4"/>
</g>
<!-- midas_midas_letkf -->
<g id="node20" class="node">
<title>midas_midas_letkf</title>
<g id="a_node20"><a xlink:href="../programs/midas_letkf.html" xlink:title="midas_midas_letkf">
<polygon fill="gray" stroke="green" points="1113.5,-252 991.5,-252 991.5,-216 1113.5,-216 1113.5,-252"/>
<text text-anchor="middle" x="1052.5" y="-230.3" font-family="Times,serif" font-size="14.00">midas_midas_letkf</text>
</a>
</g>
</g>
<!-- midas_midas_letkf&#45;&gt;ramDisk_mod -->
<g id="edge19" class="edge">
<title>midas_midas_letkf&#45;&gt;ramDisk_mod</title>
<path fill="none" stroke="black" d="M1070.16,-208.99C1075.54,-200.3 1080.76,-190.13 1083.5,-180 1096.27,-132.88 1099.78,-104.66 1063.5,-72 1024.8,-37.15 873.65,-24.93 795.26,-20.87"/>
<ellipse fill="black" stroke="black" cx="1067.83" cy="-212.56" rx="4" ry="4"/>
</g>
<!-- midas_midas_obsimpact -->
<g id="node21" class="node">
<title>midas_midas_obsimpact</title>
<g id="a_node21"><a xlink:href="../programs/midas_obsimpact.html" xlink:title="midas_midas_obsimpact">
<polygon fill="gray" stroke="green" points="1151.5,-324 999.5,-324 999.5,-288 1151.5,-288 1151.5,-324"/>
<text text-anchor="middle" x="1075.5" y="-302.3" font-family="Times,serif" font-size="14.00">midas_midas_obsimpact</text>
</a>
</g>
</g>
<!-- midas_midas_obsimpact&#45;&gt;ramDisk_mod -->
<g id="edge20" class="edge">
<title>midas_midas_obsimpact&#45;&gt;ramDisk_mod</title>
<path fill="none" stroke="black" d="M1102.81,-281.61C1110.71,-273.17 1118.33,-262.99 1122.5,-252 1143.06,-197.82 1128.62,-107.7 1090.5,-72 1048.61,-32.76 879.13,-22.57 795.15,-19.93"/>
<ellipse fill="black" stroke="black" cx="1099.58" cy="-284.86" rx="4" ry="4"/>
</g>
<!-- midas_midas_obsselection -->
<g id="node22" class="node">
<title>midas_midas_obsselection</title>
<g id="a_node22"><a xlink:href="../programs/midas_obsselection.html" xlink:title="midas_midas_obsselection">
<polygon fill="gray" stroke="green" points="1189,-396 1026,-396 1026,-360 1189,-360 1189,-396"/>
<text text-anchor="middle" x="1107.5" y="-374.3" font-family="Times,serif" font-size="14.00">midas_midas_obsselection</text>
</a>
</g>
</g>
<!-- midas_midas_obsselection&#45;&gt;ramDisk_mod -->
<g id="edge21" class="edge">
<title>midas_midas_obsselection&#45;&gt;ramDisk_mod</title>
<path fill="none" stroke="black" d="M1135.84,-354.49C1144.98,-345.86 1154.33,-335.35 1160.5,-324 1179.82,-288.46 1179.5,-275.45 1179.5,-235 1179.5,-235 1179.5,-235 1179.5,-161 1179.5,-112.54 1157.85,-97.28 1116.5,-72 1063.49,-39.59 882.43,-25.98 795.22,-21.2"/>
<ellipse fill="black" stroke="black" cx="1132.86" cy="-357.18" rx="4" ry="4"/>
</g>
<!-- midas_midas_prepcma -->
<g id="node23" class="node">
<title>midas_midas_prepcma</title>
<g id="a_node23"><a xlink:href="../programs/midas_prepcma.html" xlink:title="midas_midas_prepcma">
<polygon fill="gray" stroke="green" points="1227,-468 1084,-468 1084,-432 1227,-432 1227,-468"/>
<text text-anchor="middle" x="1155.5" y="-446.3" font-family="Times,serif" font-size="14.00">midas_midas_prepcma</text>
</a>
</g>
</g>
<!-- midas_midas_prepcma&#45;&gt;ramDisk_mod -->
<g id="edge22" class="edge">
<title>midas_midas_prepcma&#45;&gt;ramDisk_mod</title>
<path fill="none" stroke="black" d="M1177.9,-425.43C1185.1,-416.75 1192.5,-406.47 1197.5,-396 1214.97,-359.42 1217.5,-347.54 1217.5,-307 1217.5,-307 1217.5,-307 1217.5,-161 1217.5,-112.54 1196.01,-97.01 1154.5,-72 1094.91,-36.11 889.47,-24.13 795.31,-20.47"/>
<ellipse fill="black" stroke="black" cx="1175.09" cy="-428.7" rx="4" ry="4"/>
</g>
<!-- midas_midas_pseudosstobs -->
<g id="node24" class="node">
<title>midas_midas_pseudosstobs</title>
<g id="a_node24"><a xlink:href="../programs/midas_pseudosstobs.html" xlink:title="midas_midas_pseudosstobs">
<polygon fill="gray" stroke="green" points="1266,-540 1099,-540 1099,-504 1266,-504 1266,-540"/>
<text text-anchor="middle" x="1182.5" y="-518.3" font-family="Times,serif" font-size="14.00">midas_midas_pseudosstobs</text>
</a>
</g>
</g>
<!-- midas_midas_pseudosstobs&#45;&gt;ramDisk_mod -->
<g id="edge23" class="edge">
<title>midas_midas_pseudosstobs&#45;&gt;ramDisk_mod</title>
<path fill="none" stroke="black" d="M1210.77,-498.45C1219.9,-489.82 1229.27,-479.31 1235.5,-468 1255.05,-432.48 1255.5,-419.54 1255.5,-379 1255.5,-379 1255.5,-379 1255.5,-161 1255.5,-112.54 1234.15,-96.78 1192.5,-72 1126.22,-32.57 895.72,-22.42 795.1,-19.85"/>
<ellipse fill="black" stroke="black" cx="1207.8" cy="-501.15" rx="4" ry="4"/>
</g>
<!-- midas_midas_randompert -->
<g id="node25" class="node">
<title>midas_midas_randompert</title>
<g id="a_node25"><a xlink:href="../programs/midas_randompert.html" xlink:title="midas_midas_randompert">
<polygon fill="gray" stroke="green" points="1373,-612 1214,-612 1214,-576 1373,-576 1373,-612"/>
<text text-anchor="middle" x="1293.5" y="-590.3" font-family="Times,serif" font-size="14.00">midas_midas_randompert</text>
</a>
</g>
</g>
<!-- midas_midas_randompert&#45;&gt;ramDisk_mod -->
<g id="edge24" class="edge">
<title>midas_midas_randompert&#45;&gt;ramDisk_mod</title>
<path fill="none" stroke="black" d="M1293.5,-567.78C1293.5,-539.39 1293.5,-491.89 1293.5,-451 1293.5,-451 1293.5,-451 1293.5,-161 1293.5,-112.54 1272.26,-96.59 1230.5,-72 1157.53,-29.04 901.99,-20.87 795.08,-19.34"/>
<ellipse fill="black" stroke="black" cx="1293.5" cy="-571.95" rx="4" ry="4"/>
</g>
<!-- midas_midas_sstbias -->
<g id="node26" class="node">
<title>midas_midas_sstbias</title>
<g id="a_node26"><a xlink:href="../programs/midas_sstbias.html" xlink:title="midas_midas_sstbias">
<polygon fill="gray" stroke="green" points="1453.5,-108 1321.5,-108 1321.5,-72 1453.5,-72 1453.5,-108"/>
<text text-anchor="middle" x="1387.5" y="-86.3" font-family="Times,serif" font-size="14.00">midas_midas_sstbias</text>
</a>
</g>
</g>
<!-- midas_midas_sstbias&#45;&gt;ramDisk_mod -->
<g id="edge25" class="edge">
<title>midas_midas_sstbias&#45;&gt;ramDisk_mod</title>
<path fill="none" stroke="black" d="M1313.03,-72.88C1311.17,-72.57 1309.32,-72.28 1307.5,-72 1119.02,-43.15 892.29,-27.48 795.3,-21.66"/>
<ellipse fill="black" stroke="black" cx="1317.31" cy="-73.63" rx="4" ry="4"/>
</g>
<!-- midas_midas_ssttrial -->
<g id="node27" class="node">
<title>midas_midas_ssttrial</title>
<g id="a_node27"><a xlink:href="../programs/midas_ssttrial.html" xlink:title="midas_midas_ssttrial">
<polygon fill="gray" stroke="green" points="1491,-180 1358,-180 1358,-144 1491,-144 1491,-180"/>
<text text-anchor="middle" x="1424.5" y="-158.3" font-family="Times,serif" font-size="14.00">midas_midas_ssttrial</text>
</a>
</g>
</g>
<!-- midas_midas_ssttrial&#45;&gt;ramDisk_mod -->
<g id="edge26" class="edge">
<title>midas_midas_ssttrial&#45;&gt;ramDisk_mod</title>
<path fill="none" stroke="black" d="M1447.46,-137.37C1463.65,-117.86 1479.65,-90.47 1462.5,-72 1417.19,-23.2 948,-18.95 795.26,-18.87"/>
<ellipse fill="black" stroke="black" cx="1444.63" cy="-140.64" rx="4" ry="4"/>
</g>
<!-- midas_midas_thinning -->
<g id="node28" class="node">
<title>midas_midas_thinning</title>
<g id="a_node28"><a xlink:href="../programs/midas_thinning.html" xlink:title="midas_midas_thinning">
<polygon fill="gray" stroke="green" points="1559,-252 1418,-252 1418,-216 1559,-216 1559,-252"/>
<text text-anchor="middle" x="1488.5" y="-230.3" font-family="Times,serif" font-size="14.00">midas_midas_thinning</text>
</a>
</g>
</g>
<!-- midas_midas_thinning&#45;&gt;ramDisk_mod -->
<g id="edge27" class="edge">
<title>midas_midas_thinning&#45;&gt;ramDisk_mod</title>
<path fill="none" stroke="black" d="M1496.83,-208.14C1507.3,-171.65 1519.55,-104.39 1480.5,-72 1427.87,-28.34 949.37,-20.64 795.16,-19.29"/>
<ellipse fill="black" stroke="black" cx="1495.66" cy="-212.04" rx="4" ry="4"/>
</g>
<!-- midas_midas_var1d -->
<g id="node29" class="node">
<title>midas_midas_var1d</title>
<g id="a_node29"><a xlink:href="../programs/midas_var1d.html" xlink:title="midas_midas_var1d">
<polygon fill="gray" stroke="green" points="1651,-324 1524,-324 1524,-288 1651,-288 1651,-324"/>
<text text-anchor="middle" x="1587.5" y="-302.3" font-family="Times,serif" font-size="14.00">midas_midas_var1d</text>
</a>
</g>
</g>
<!-- midas_midas_var1d&#45;&gt;ramDisk_mod -->
<g id="edge28" class="edge">
<title>midas_midas_var1d&#45;&gt;ramDisk_mod</title>
<path fill="none" stroke="black" d="M1587.47,-279.73C1585.87,-230.09 1574.4,-120.47 1506.5,-72 1448.71,-30.75 952.64,-21.4 795.22,-19.47"/>
<ellipse fill="black" stroke="black" cx="1587.57" cy="-284" rx="4" ry="4"/>
</g>
<!-- midas_midas_var -->
<g id="node30" class="node">
<title>midas_midas_var</title>
<g id="a_node30"><a xlink:href="../programs/midas_var.html" xlink:title="midas_midas_var">
<polygon fill="gray" stroke="green" points="1736,-396 1623,-396 1623,-360 1736,-360 1736,-396"/>
<text text-anchor="middle" x="1679.5" y="-374.3" font-family="Times,serif" font-size="14.00">midas_midas_var</text>
</a>
</g>
</g>
<!-- midas_midas_var&#45;&gt;ramDisk_mod -->
<g id="edge29" class="edge">
<title>midas_midas_var&#45;&gt;ramDisk_mod</title>
<path fill="none" stroke="black" d="M1679.5,-351.78C1679.5,-323.39 1679.5,-275.89 1679.5,-235 1679.5,-235 1679.5,-235 1679.5,-161 1679.5,-86.52 1608.35,-94.96 1537.5,-72 1398.24,-26.86 943.82,-20.15 795.09,-19.16"/>
<ellipse fill="black" stroke="black" cx="1679.5" cy="-355.95" rx="4" ry="4"/>
</g>
</g>
</svg>
