<?xml version="1.0" encoding="UTF-8" standalone="no"?>
<!DOCTYPE svg PUBLIC "-//W3C//DTD SVG 1.1//EN"
 "http://www.w3.org/Graphics/SVG/1.1/DTD/svg11.dtd">
<!-- Generated by graphviz version 3.0.0 (20220315.2325)
 -->
<!-- Title: ramDisk_mod Pages: 1 -->
<svg width="382pt" height="241pt"
 viewBox="0.00 0.00 382.00 241.00" xmlns="http://www.w3.org/2000/svg" xmlns:xlink="http://www.w3.org/1999/xlink">
<g id="graph0" class="graph" transform="scale(1 1) rotate(0) translate(4 237)">
<title>ramDisk_mod</title>
<polygon fill="white" stroke="transparent" points="-4,4 -4,-237 378,-237 378,4 -4,4"/>
<text text-anchor="middle" x="187" y="-37.8" font-family="Times,serif" font-size="14.00">Red boxes indicate modules with dependencies not shown</text>
<text text-anchor="middle" x="187" y="-22.8" font-family="Times,serif" font-size="14.00">Lower level dependencies can be shown by clicking on a red box</text>
<text text-anchor="middle" x="187" y="-7.8" font-family="Times,serif" font-size="14.00">Shaded boxes indicate modules with no dependencies</text>
<!-- ramDisk_mod -->
<g id="node1" class="node">
<title>ramDisk_mod</title>
<g id="a_node1"><a xlink:href="ramDisk_mod.html" xlink:title="ramDisk_mod">
<polygon fill="none" stroke="black" points="242.25,-233 147.25,-233 147.25,-197 242.25,-197 242.25,-233"/>
<text text-anchor="middle" x="194.75" y="-211.3" font-family="Times,serif" font-size="14.00">ramDisk_mod</text>
</a>
</g>
</g>
<!-- clibinterfaces_mod -->
<g id="node2" class="node">
<title>clibinterfaces_mod</title>
<g id="a_node2"><a xlink:href="clibinterfaces_mod.html" xlink:title="clibinterfaces_mod">
<polygon fill="gray" stroke="black" points="211.75,-161 89.75,-161 89.75,-125 211.75,-125 211.75,-161"/>
<text text-anchor="middle" x="150.75" y="-139.3" font-family="Times,serif" font-size="14.00">clibinterfaces_mod</text>
</a>
</g>
</g>
<!-- ramDisk_mod&#45;&gt;clibinterfaces_mod -->
<g id="edge1" class="edge">
<title>ramDisk_mod&#45;&gt;clibinterfaces_mod</title>
<path fill="none" stroke="black" d="M183.87,-196.7C178.76,-188.56 172.55,-178.69 166.91,-169.7"/>
<polygon fill="black" stroke="black" points="169.79,-167.71 161.5,-161.1 163.86,-171.43 169.79,-167.71"/>
</g>
<!-- utilities_mod -->
<g id="node3" class="node">
<title>utilities_mod</title>
<g id="a_node3"><a xlink:href="../modules/utilities_mod.svg" xlink:title="utilities_mod">
<polygon fill="none" stroke="red" points="284.25,-89 195.25,-89 195.25,-53 284.25,-53 284.25,-89"/>
<text text-anchor="middle" x="239.75" y="-67.3" font-family="Times,serif" font-size="14.00">utilities_mod</text>
</a>
</g>
</g>
<!-- ramDisk_mod&#45;&gt;utilities_mod -->
<g id="edge2" class="edge">
<title>ramDisk_mod&#45;&gt;utilities_mod</title>
<path fill="none" stroke="black" d="M204.53,-196.8C209.96,-186.65 216.46,-173.4 220.75,-161 227.76,-140.75 232.67,-116.98 235.75,-99.1"/>
<polygon fill="black" stroke="black" points="239.23,-99.5 237.38,-89.07 232.32,-98.37 239.23,-99.5"/>
</g>
</g>
</svg>
