<?xml version="1.0" encoding="UTF-8" standalone="no"?>
<!DOCTYPE svg PUBLIC "-//W3C//DTD SVG 1.1//EN"
 "http://www.w3.org/Graphics/SVG/1.1/DTD/svg11.dtd">
<!-- Generated by graphviz version 3.0.0 (20220315.2325)
 -->
<!-- Title: randomNumber_mod Pages: 1 -->
<svg width="677pt" height="673pt"
 viewBox="0.00 0.00 676.50 673.00" xmlns="http://www.w3.org/2000/svg" xmlns:xlink="http://www.w3.org/1999/xlink">
<g id="graph0" class="graph" transform="scale(1 1) rotate(0) translate(4 669)">
<title>randomNumber_mod</title>
<polygon fill="white" stroke="transparent" points="-4,4 -4,-669 672.5,-669 672.5,4 -4,4"/>
<text text-anchor="middle" x="334.25" y="-649.8" font-family="Times,serif" font-size="14.00">Blue boxes indicate modules with reverse dependencies not shown</text>
<text text-anchor="middle" x="334.25" y="-634.8" font-family="Times,serif" font-size="14.00">Higher level reverse dependencies can be shown by clicking on a blue box</text>
<text text-anchor="middle" x="334.25" y="-619.8" font-family="Times,serif" font-size="14.00">Green boxes are programs</text>
<!-- randomNumber_mod -->
<g id="node1" class="node">
<title>randomNumber_mod</title>
<g id="a_node1"><a xlink:href="randomNumber_mod.html" xlink:title="randomNumber_mod">
<polygon fill="none" stroke="black" points="361.5,-36 226.5,-36 226.5,0 361.5,0 361.5,-36"/>
<text text-anchor="middle" x="294" y="-14.3" font-family="Times,serif" font-size="14.00">randomNumber_mod</text>
</a>
</g>
</g>
<!-- diffusion_mod -->
<g id="node2" class="node">
<title>diffusion_mod</title>
<g id="a_node2"><a xlink:href="../modules/diffusion_mod_rev.svg" xlink:title="diffusion_mod">
<polygon fill="none" stroke="blue" points="96,-108 0,-108 0,-72 96,-72 96,-108"/>
<text text-anchor="middle" x="48" y="-86.3" font-family="Times,serif" font-size="14.00">diffusion_mod</text>
</a>
</g>
</g>
<!-- diffusion_mod&#45;&gt;randomNumber_mod -->
<g id="edge1" class="edge">
<title>diffusion_mod&#45;&gt;randomNumber_mod</title>
<path fill="none" stroke="black" d="M104.08,-73.04C142.83,-62.02 194.32,-47.36 233.91,-36.1"/>
<ellipse fill="black" stroke="black" cx="99.86" cy="-74.24" rx="4" ry="4"/>
</g>
<!-- ensembleobservations_mod -->
<g id="node3" class="node">
<title>ensembleobservations_mod</title>
<g id="a_node3"><a xlink:href="../modules/ensembleobservations_mod_rev.svg" xlink:title="ensembleobservations_mod">
<polygon fill="none" stroke="blue" points="171.5,-180 2.5,-180 2.5,-144 171.5,-144 171.5,-180"/>
<text text-anchor="middle" x="87" y="-158.3" font-family="Times,serif" font-size="14.00">ensembleobservations_mod</text>
</a>
</g>
</g>
<!-- ensembleobservations_mod&#45;&gt;randomNumber_mod -->
<g id="edge2" class="edge">
<title>ensembleobservations_mod&#45;&gt;randomNumber_mod</title>
<path fill="none" stroke="black" d="M108.89,-137.72C127.79,-118.48 156.49,-91.29 185,-72 205.82,-57.91 230.96,-45.42 251.84,-36.12"/>
<ellipse fill="black" stroke="black" cx="105.89" cy="-140.79" rx="4" ry="4"/>
</g>
<!-- enspostprocess_mod -->
<g id="node4" class="node">
<title>enspostprocess_mod</title>
<g id="a_node4"><a xlink:href="../modules/enspostprocess_mod_rev.svg" xlink:title="enspostprocess_mod">
<polygon fill="none" stroke="blue" points="208.5,-252 79.5,-252 79.5,-216 208.5,-216 208.5,-252"/>
<text text-anchor="middle" x="144" y="-230.3" font-family="Times,serif" font-size="14.00">enspostprocess_mod</text>
</a>
</g>
</g>
<!-- enspostprocess_mod&#45;&gt;randomNumber_mod -->
<g id="edge3" class="edge">
<title>enspostprocess_mod&#45;&gt;randomNumber_mod</title>
<path fill="none" stroke="black" d="M161.82,-209.15C168.02,-200.27 174.73,-189.92 180,-180 204.21,-134.36 191.56,-113 223,-72 234.05,-57.6 249.99,-45.21 263.98,-36.04"/>
<ellipse fill="black" stroke="black" cx="159.31" cy="-212.67" rx="4" ry="4"/>
</g>
<!-- innovation_mod -->
<g id="node5" class="node">
<title>innovation_mod</title>
<g id="a_node5"><a xlink:href="../modules/innovation_mod_rev.svg" xlink:title="innovation_mod">
<polygon fill="none" stroke="blue" points="247,-324 141,-324 141,-288 247,-288 247,-324"/>
<text text-anchor="middle" x="194" y="-302.3" font-family="Times,serif" font-size="14.00">innovation_mod</text>
</a>
</g>
</g>
<!-- innovation_mod&#45;&gt;randomNumber_mod -->
<g id="edge4" class="edge">
<title>innovation_mod&#45;&gt;randomNumber_mod</title>
<path fill="none" stroke="black" d="M206.35,-280.32C210.44,-271.53 214.76,-261.46 218,-252 244.64,-174.18 229.3,-147.9 261,-72 266.26,-59.4 274.34,-46.36 281.19,-36.37"/>
<ellipse fill="black" stroke="black" cx="204.58" cy="-284.06" rx="4" ry="4"/>
</g>
<!-- obsspacediag_mod -->
<g id="node6" class="node">
<title>obsspacediag_mod</title>
<g id="a_node6"><a xlink:href="../modules/obsspacediag_mod_rev.svg" xlink:title="obsspacediag_mod">
<polygon fill="none" stroke="blue" points="285,-396 165,-396 165,-360 285,-360 285,-396"/>
<text text-anchor="middle" x="225" y="-374.3" font-family="Times,serif" font-size="14.00">obsspacediag_mod</text>
</a>
</g>
</g>
<!-- obsspacediag_mod&#45;&gt;randomNumber_mod -->
<g id="edge5" class="edge">
<title>obsspacediag_mod&#45;&gt;randomNumber_mod</title>
<path fill="none" stroke="black" d="M241.46,-352.6C246.75,-343.88 252.21,-333.78 256,-324 270.62,-286.29 275,-275.45 275,-235 275,-235 275,-235 275,-161 275,-115.73 284.6,-63.06 290.16,-36.39"/>
<ellipse fill="black" stroke="black" cx="239.23" cy="-356.18" rx="4" ry="4"/>
</g>
<!-- utilities_mod -->
<g id="node7" class="node">
<title>utilities_mod</title>
<g id="a_node7"><a xlink:href="../modules/utilities_mod_rev.svg" xlink:title="utilities_mod">
<polygon fill="none" stroke="blue" points="322.5,-468 233.5,-468 233.5,-432 322.5,-432 322.5,-468"/>
<text text-anchor="middle" x="278" y="-446.3" font-family="Times,serif" font-size="14.00">utilities_mod</text>
</a>
</g>
</g>
<!-- utilities_mod&#45;&gt;randomNumber_mod -->
<g id="edge6" class="edge">
<title>utilities_mod&#45;&gt;randomNumber_mod</title>
<path fill="none" stroke="black" d="M288,-424.14C298.35,-396.14 313,-349.06 313,-307 313,-307 313,-307 313,-161 313,-115.73 303.4,-63.06 297.84,-36.39"/>
<ellipse fill="black" stroke="black" cx="286.5" cy="-428.11" rx="4" ry="4"/>
</g>
<!-- midas_midas_adjointtest -->
<g id="node8" class="node">
<title>midas_midas_adjointtest</title>
<g id="a_node8"><a xlink:href="../programs/midas_adjointtest.html" xlink:title="midas_midas_adjointtest">
<polygon fill="gray" stroke="green" points="361,-540 209,-540 209,-504 361,-504 361,-540"/>
<text text-anchor="middle" x="285" y="-518.3" font-family="Times,serif" font-size="14.00">midas_midas_adjointtest</text>
</a>
</g>
</g>
<!-- midas_midas_adjointtest&#45;&gt;randomNumber_mod -->
<g id="edge7" class="edge">
<title>midas_midas_adjointtest&#45;&gt;randomNumber_mod</title>
<path fill="none" stroke="black" d="M310.36,-497.69C318.37,-489.08 326.55,-478.78 332,-468 350.24,-431.9 351,-419.45 351,-379 351,-379 351,-379 351,-161 351,-112.92 322.51,-61.84 305.81,-36.04"/>
<ellipse fill="black" stroke="black" cx="307.37" cy="-500.77" rx="4" ry="4"/>
</g>
<!-- midas_midas_diagbmatrix -->
<g id="node9" class="node">
<title>midas_midas_diagbmatrix</title>
<g id="a_node9"><a xlink:href="../programs/midas_diagbmatrix.html" xlink:title="midas_midas_diagbmatrix">
<polygon fill="gray" stroke="green" points="470.5,-612 307.5,-612 307.5,-576 470.5,-576 470.5,-612"/>
<text text-anchor="middle" x="389" y="-590.3" font-family="Times,serif" font-size="14.00">midas_midas_diagbmatrix</text>
</a>
</g>
</g>
<!-- midas_midas_diagbmatrix&#45;&gt;randomNumber_mod -->
<g id="edge8" class="edge">
<title>midas_midas_diagbmatrix&#45;&gt;randomNumber_mod</title>
<path fill="none" stroke="black" d="M389,-567.78C389,-539.39 389,-491.89 389,-451 389,-451 389,-451 389,-161 389,-108.5 343.59,-60.72 315.56,-36.22"/>
<ellipse fill="black" stroke="black" cx="389" cy="-571.95" rx="4" ry="4"/>
</g>
<!-- midas_midas_diaghbht -->
<g id="node10" class="node">
<title>midas_midas_diaghbht</title>
<g id="a_node10"><a xlink:href="../programs/midas_diaghbht.html" xlink:title="midas_midas_diaghbht">
<polygon fill="gray" stroke="green" points="560.5,-108 417.5,-108 417.5,-72 560.5,-72 560.5,-108"/>
<text text-anchor="middle" x="489" y="-86.3" font-family="Times,serif" font-size="14.00">midas_midas_diaghbht</text>
</a>
</g>
</g>
<!-- midas_midas_diaghbht&#45;&gt;randomNumber_mod -->
<g id="edge9" class="edge">
<title>midas_midas_diaghbht&#45;&gt;randomNumber_mod</title>
<path fill="none" stroke="black" d="M433.67,-69.14C404.61,-58.71 369.36,-46.05 341.55,-36.07"/>
<ellipse fill="black" stroke="black" cx="437.53" cy="-70.52" rx="4" ry="4"/>
</g>
<!-- midas_midas_randompert -->
<g id="node11" class="node">
<title>midas_midas_randompert</title>
<g id="a_node11"><a xlink:href="../programs/midas_randompert.html" xlink:title="midas_midas_randompert">
<polygon fill="gray" stroke="green" points="668.5,-180 509.5,-180 509.5,-144 668.5,-144 668.5,-180"/>
<text text-anchor="middle" x="589" y="-158.3" font-family="Times,serif" font-size="14.00">midas_midas_randompert</text>
</a>
</g>
</g>
<!-- midas_midas_randompert&#45;&gt;randomNumber_mod -->
<g id="edge10" class="edge">
<title>midas_midas_randompert&#45;&gt;randomNumber_mod</title>
<path fill="none" stroke="black" d="M590.63,-135.89C590.48,-115.83 586.79,-88.45 570,-72 541.07,-43.66 433.61,-29.79 361.63,-23.54"/>
<ellipse fill="black" stroke="black" cx="590.57" cy="-139.98" rx="4" ry="4"/>
</g>
</g>
</svg>
