<?xml version="1.0" encoding="UTF-8" standalone="no"?>
<!DOCTYPE svg PUBLIC "-//W3C//DTD SVG 1.1//EN"
 "http://www.w3.org/Graphics/SVG/1.1/DTD/svg11.dtd">
<!-- Generated by graphviz version 3.0.0 (20220315.2325)
 -->
<!-- Title: regions_mod Pages: 1 -->
<svg width="382pt" height="241pt"
 viewBox="0.00 0.00 382.00 241.00" xmlns="http://www.w3.org/2000/svg" xmlns:xlink="http://www.w3.org/1999/xlink">
<g id="graph0" class="graph" transform="scale(1 1) rotate(0) translate(4 237)">
<title>regions_mod</title>
<polygon fill="white" stroke="transparent" points="-4,4 -4,-237 378,-237 378,4 -4,4"/>
<text text-anchor="middle" x="187" y="-37.8" font-family="Times,serif" font-size="14.00">Red boxes indicate modules with dependencies not shown</text>
<text text-anchor="middle" x="187" y="-22.8" font-family="Times,serif" font-size="14.00">Lower level dependencies can be shown by clicking on a red box</text>
<text text-anchor="middle" x="187" y="-7.8" font-family="Times,serif" font-size="14.00">Shaded boxes indicate modules with no dependencies</text>
<!-- regions_mod -->
<g id="node1" class="node">
<title>regions_mod</title>
<g id="a_node1"><a xlink:href="regions_mod.html" xlink:title="regions_mod">
<polygon fill="none" stroke="black" points="243.5,-233 155.5,-233 155.5,-197 243.5,-197 243.5,-233"/>
<text text-anchor="middle" x="199.5" y="-211.3" font-family="Times,serif" font-size="14.00">regions_mod</text>
</a>
</g>
</g>
<!-- mathphysconstants_mod -->
<g id="node2" class="node">
<title>mathphysconstants_mod</title>
<g id="a_node2"><a xlink:href="mathphysconstants_mod.html" xlink:title="mathphysconstants_mod">
<polygon fill="gray" stroke="black" points="223.5,-161 71.5,-161 71.5,-125 223.5,-125 223.5,-161"/>
<text text-anchor="middle" x="147.5" y="-139.3" font-family="Times,serif" font-size="14.00">mathphysconstants_mod</text>
</a>
</g>
</g>
<!-- regions_mod&#45;&gt;mathphysconstants_mod -->
<g id="edge1" class="edge">
<title>regions_mod&#45;&gt;mathphysconstants_mod</title>
<path fill="none" stroke="black" d="M186.65,-196.7C180.47,-188.39 172.96,-178.28 166.18,-169.14"/>
<polygon fill="black" stroke="black" points="168.98,-167.04 160.21,-161.1 163.36,-171.22 168.98,-167.04"/>
</g>
<!-- midasmpi_mod -->
<g id="node3" class="node">
<title>midasmpi_mod</title>
<g id="a_node3"><a xlink:href="../modules/midasmpi_mod.svg" xlink:title="midasmpi_mod">
<polygon fill="none" stroke="red" points="302.5,-89 200.5,-89 200.5,-53 302.5,-53 302.5,-89"/>
<text text-anchor="middle" x="251.5" y="-67.3" font-family="Times,serif" font-size="14.00">midasmpi_mod</text>
</a>
</g>
</g>
<!-- regions_mod&#45;&gt;midasmpi_mod -->
<g id="edge2" class="edge">
<title>regions_mod&#45;&gt;midasmpi_mod</title>
<path fill="none" stroke="black" d="M212.43,-196.68C219.31,-186.7 227.39,-173.66 232.5,-161 240.52,-141.13 245.37,-117.33 248.17,-99.35"/>
<polygon fill="black" stroke="black" points="251.66,-99.64 249.62,-89.25 244.73,-98.65 251.66,-99.64"/>
</g>
</g>
</svg>
