<?xml version="1.0" encoding="UTF-8" standalone="no"?>
<!DOCTYPE svg PUBLIC "-//W3C//DTD SVG 1.1//EN"
 "http://www.w3.org/Graphics/SVG/1.1/DTD/svg11.dtd">
<!-- Generated by graphviz version 3.0.0 (20220315.2325)
 -->
<!-- Title: rMatrix_mod Pages: 1 -->
<svg width="433pt" height="529pt"
 viewBox="0.00 0.00 433.00 529.00" xmlns="http://www.w3.org/2000/svg" xmlns:xlink="http://www.w3.org/1999/xlink">
<g id="graph0" class="graph" transform="scale(1 1) rotate(0) translate(4 525)">
<title>rMatrix_mod</title>
<polygon fill="white" stroke="transparent" points="-4,4 -4,-525 429,-525 429,4 -4,4"/>
<text text-anchor="middle" x="212.5" y="-505.8" font-family="Times,serif" font-size="14.00">Blue boxes indicate modules with reverse dependencies not shown</text>
<text text-anchor="middle" x="212.5" y="-490.8" font-family="Times,serif" font-size="14.00">Higher level reverse dependencies can be shown by clicking on a blue box</text>
<text text-anchor="middle" x="212.5" y="-475.8" font-family="Times,serif" font-size="14.00">Green boxes are programs</text>
<!-- rMatrix_mod -->
<g id="node1" class="node">
<title>rMatrix_mod</title>
<g id="a_node1"><a xlink:href="rMatrix_mod.html" xlink:title="rMatrix_mod">
<polygon fill="none" stroke="black" points="244.75,-36 153.75,-36 153.75,0 244.75,0 244.75,-36"/>
<text text-anchor="middle" x="199.25" y="-14.3" font-family="Times,serif" font-size="14.00">rMatrix_mod</text>
</a>
</g>
</g>
<!-- fsoi_mod -->
<g id="node2" class="node">
<title>fsoi_mod</title>
<g id="a_node2"><a xlink:href="../modules/fsoi_mod_rev.svg" xlink:title="fsoi_mod">
<polygon fill="none" stroke="blue" points="93.25,-108 25.25,-108 25.25,-72 93.25,-72 93.25,-108"/>
<text text-anchor="middle" x="59.25" y="-86.3" font-family="Times,serif" font-size="14.00">fsoi_mod</text>
</a>
</g>
</g>
<!-- fsoi_mod&#45;&gt;rMatrix_mod -->
<g id="edge1" class="edge">
<title>fsoi_mod&#45;&gt;rMatrix_mod</title>
<path fill="none" stroke="black" d="M100.82,-68.21C121.23,-58.01 145.53,-45.86 164.87,-36.19"/>
<ellipse fill="black" stroke="black" cx="97.08" cy="-70.09" rx="4" ry="4"/>
</g>
<!-- innovation_mod -->
<g id="node3" class="node">
<title>innovation_mod</title>
<g id="a_node3"><a xlink:href="../modules/innovation_mod_rev.svg" xlink:title="innovation_mod">
<polygon fill="none" stroke="blue" points="152.25,-180 46.25,-180 46.25,-144 152.25,-144 152.25,-180"/>
<text text-anchor="middle" x="99.25" y="-158.3" font-family="Times,serif" font-size="14.00">innovation_mod</text>
</a>
</g>
</g>
<!-- innovation_mod&#45;&gt;rMatrix_mod -->
<g id="edge2" class="edge">
<title>innovation_mod&#45;&gt;rMatrix_mod</title>
<path fill="none" stroke="black" d="M116.13,-137.03C136.26,-108.45 169.4,-61.39 187.14,-36.19"/>
<ellipse fill="black" stroke="black" cx="113.62" cy="-140.6" rx="4" ry="4"/>
</g>
<!-- minimization_mod -->
<g id="node4" class="node">
<title>minimization_mod</title>
<g id="a_node4"><a xlink:href="../modules/minimization_mod_rev.svg" xlink:title="minimization_mod">
<polygon fill="none" stroke="blue" points="190.25,-252 68.25,-252 68.25,-216 190.25,-216 190.25,-252"/>
<text text-anchor="middle" x="129.25" y="-230.3" font-family="Times,serif" font-size="14.00">minimization_mod</text>
</a>
</g>
</g>
<!-- minimization_mod&#45;&gt;rMatrix_mod -->
<g id="edge3" class="edge">
<title>minimization_mod&#45;&gt;rMatrix_mod</title>
<path fill="none" stroke="black" d="M146.15,-208.62C151.6,-199.9 157.25,-189.8 161.25,-180 181.65,-130.01 192.58,-66.61 196.95,-36.46"/>
<ellipse fill="black" stroke="black" cx="143.83" cy="-212.22" rx="4" ry="4"/>
</g>
<!-- obserrors_mod -->
<g id="node5" class="node">
<title>obserrors_mod</title>
<g id="a_node5"><a xlink:href="../modules/obserrors_mod_rev.svg" xlink:title="obserrors_mod">
<polygon fill="none" stroke="blue" points="247.75,-324 148.75,-324 148.75,-288 247.75,-288 247.75,-324"/>
<text text-anchor="middle" x="198.25" y="-302.3" font-family="Times,serif" font-size="14.00">obserrors_mod</text>
</a>
</g>
</g>
<!-- obserrors_mod&#45;&gt;rMatrix_mod -->
<g id="edge4" class="edge">
<title>obserrors_mod&#45;&gt;rMatrix_mod</title>
<path fill="none" stroke="black" d="M199.44,-279.58C201.28,-236.75 204.38,-147.48 202.25,-72 201.91,-60.02 201.14,-46.54 200.47,-36.18"/>
<ellipse fill="black" stroke="black" cx="199.26" cy="-283.76" rx="4" ry="4"/>
</g>
<!-- varqc_mod -->
<g id="node6" class="node">
<title>varqc_mod</title>
<g id="a_node6"><a xlink:href="../modules/varqc_mod_rev.svg" xlink:title="varqc_mod">
<polygon fill="none" stroke="blue" points="315.25,-396 237.25,-396 237.25,-360 315.25,-360 315.25,-396"/>
<text text-anchor="middle" x="276.25" y="-374.3" font-family="Times,serif" font-size="14.00">varqc_mod</text>
</a>
</g>
</g>
<!-- varqc_mod&#45;&gt;rMatrix_mod -->
<g id="edge5" class="edge">
<title>varqc_mod&#45;&gt;rMatrix_mod</title>
<path fill="none" stroke="black" d="M276.25,-351.78C276.25,-323.39 276.25,-275.89 276.25,-235 276.25,-235 276.25,-235 276.25,-161 276.25,-110.8 238.6,-61.38 215.96,-36.19"/>
<ellipse fill="black" stroke="black" cx="276.25" cy="-355.95" rx="4" ry="4"/>
</g>
<!-- midas_midas_var -->
<g id="node7" class="node">
<title>midas_midas_var</title>
<g id="a_node7"><a xlink:href="../programs/midas_var.html" xlink:title="midas_midas_var">
<polygon fill="gray" stroke="green" points="399.75,-468 286.75,-468 286.75,-432 399.75,-432 399.75,-468"/>
<text text-anchor="middle" x="343.25" y="-446.3" font-family="Times,serif" font-size="14.00">midas_midas_var</text>
</a>
</g>
</g>
<!-- midas_midas_var&#45;&gt;rMatrix_mod -->
<g id="edge6" class="edge">
<title>midas_midas_var&#45;&gt;rMatrix_mod</title>
<path fill="none" stroke="black" d="M343.25,-423.78C343.25,-395.39 343.25,-347.89 343.25,-307 343.25,-307 343.25,-307 343.25,-161 343.25,-101.31 279.75,-58.28 237.08,-36.1"/>
<ellipse fill="black" stroke="black" cx="343.25" cy="-427.95" rx="4" ry="4"/>
</g>
</g>
</svg>
