<?xml version="1.0" encoding="UTF-8" standalone="no"?>
<!DOCTYPE svg PUBLIC "-//W3C//DTD SVG 1.1//EN"
 "http://www.w3.org/Graphics/SVG/1.1/DTD/svg11.dtd">
<!-- Generated by graphviz version 3.0.0 (20220315.2325)
 -->
<!-- Title: rMatrix_mod Pages: 1 -->
<svg width="382pt" height="457pt"
 viewBox="0.00 0.00 382.00 457.00" xmlns="http://www.w3.org/2000/svg" xmlns:xlink="http://www.w3.org/1999/xlink">
<g id="graph0" class="graph" transform="scale(1 1) rotate(0) translate(4 453)">
<title>rMatrix_mod</title>
<polygon fill="white" stroke="transparent" points="-4,4 -4,-453 378,-453 378,4 -4,4"/>
<text text-anchor="middle" x="187" y="-37.8" font-family="Times,serif" font-size="14.00">Red boxes indicate modules with dependencies not shown</text>
<text text-anchor="middle" x="187" y="-22.8" font-family="Times,serif" font-size="14.00">Lower level dependencies can be shown by clicking on a red box</text>
<text text-anchor="middle" x="187" y="-7.8" font-family="Times,serif" font-size="14.00">Shaded boxes indicate modules with no dependencies</text>
<!-- rMatrix_mod -->
<g id="node1" class="node">
<title>rMatrix_mod</title>
<g id="a_node1"><a xlink:href="rMatrix_mod.html" xlink:title="rMatrix_mod">
<polygon fill="none" stroke="black" points="239.75,-449 148.75,-449 148.75,-413 239.75,-413 239.75,-449"/>
<text text-anchor="middle" x="194.25" y="-427.3" font-family="Times,serif" font-size="14.00">rMatrix_mod</text>
</a>
</g>
</g>
<!-- midasmpi_mod -->
<g id="node2" class="node">
<title>midasmpi_mod</title>
<g id="a_node2"><a xlink:href="../modules/midasmpi_mod.svg" xlink:title="midasmpi_mod">
<polygon fill="none" stroke="red" points="103.25,-377 1.25,-377 1.25,-341 103.25,-341 103.25,-377"/>
<text text-anchor="middle" x="52.25" y="-355.3" font-family="Times,serif" font-size="14.00">midasmpi_mod</text>
</a>
</g>
</g>
<!-- rMatrix_mod&#45;&gt;midasmpi_mod -->
<g id="edge1" class="edge">
<title>rMatrix_mod&#45;&gt;midasmpi_mod</title>
<path fill="none" stroke="black" d="M159.51,-412.88C140.43,-403.47 116.57,-391.71 96.2,-381.67"/>
<polygon fill="black" stroke="black" points="97.64,-378.47 87.12,-377.19 94.54,-384.75 97.64,-378.47"/>
</g>
<!-- obsspacedata_mod -->
<g id="node3" class="node">
<title>obsspacedata_mod</title>
<g id="a_node3"><a xlink:href="../modules/obsspacedata_mod.svg" xlink:title="obsspacedata_mod">
<polygon fill="none" stroke="red" points="165.75,-305 46.75,-305 46.75,-269 165.75,-269 165.75,-305"/>
<text text-anchor="middle" x="106.25" y="-283.3" font-family="Times,serif" font-size="14.00">obsspacedata_mod</text>
</a>
</g>
</g>
<!-- rMatrix_mod&#45;&gt;obsspacedata_mod -->
<g id="edge2" class="edge">
<title>rMatrix_mod&#45;&gt;obsspacedata_mod</title>
<path fill="none" stroke="black" d="M183.64,-412.87C168.37,-388.24 140.11,-342.64 122.29,-313.88"/>
<polygon fill="black" stroke="black" points="125.15,-311.85 116.9,-305.19 119.2,-315.53 125.15,-311.85"/>
</g>
<!-- rttovinterfaces_mod -->
<g id="node4" class="node">
<title>rttovinterfaces_mod</title>
<g id="a_node4"><a xlink:href="rttovinterfaces_mod.html" xlink:title="rttovinterfaces_mod">
<polygon fill="gray" stroke="black" points="231.25,-233 103.25,-233 103.25,-197 231.25,-197 231.25,-233"/>
<text text-anchor="middle" x="167.25" y="-211.3" font-family="Times,serif" font-size="14.00">rttovinterfaces_mod</text>
</a>
</g>
</g>
<!-- rMatrix_mod&#45;&gt;rttovinterfaces_mod -->
<g id="edge3" class="edge">
<title>rMatrix_mod&#45;&gt;rttovinterfaces_mod</title>
<path fill="none" stroke="black" d="M192.13,-412.6C188.53,-383.07 180.94,-321.24 174.25,-269 173.17,-260.59 171.97,-251.42 170.87,-243.12"/>
<polygon fill="black" stroke="black" points="174.34,-242.63 169.55,-233.18 167.4,-243.56 174.34,-242.63"/>
</g>
<!-- tovsnl_mod -->
<g id="node5" class="node">
<title>tovsnl_mod</title>
<g id="a_node5"><a xlink:href="../modules/tovsnl_mod.svg" xlink:title="tovsnl_mod">
<polygon fill="none" stroke="red" points="299.75,-161 218.75,-161 218.75,-125 299.75,-125 299.75,-161"/>
<text text-anchor="middle" x="259.25" y="-139.3" font-family="Times,serif" font-size="14.00">tovsnl_mod</text>
</a>
</g>
</g>
<!-- rMatrix_mod&#45;&gt;tovsnl_mod -->
<g id="edge4" class="edge">
<title>rMatrix_mod&#45;&gt;tovsnl_mod</title>
<path fill="none" stroke="black" d="M198.36,-412.9C206.54,-378.75 225.35,-299.67 240.25,-233 244.87,-212.31 249.87,-188.87 253.58,-171.23"/>
<polygon fill="black" stroke="black" points="257.08,-171.59 255.7,-161.08 250.23,-170.15 257.08,-171.59"/>
</g>
<!-- utilities_mod -->
<g id="node6" class="node">
<title>utilities_mod</title>
<g id="a_node6"><a xlink:href="../modules/utilities_mod.svg" xlink:title="utilities_mod">
<polygon fill="none" stroke="red" points="372.75,-89 283.75,-89 283.75,-53 372.75,-53 372.75,-89"/>
<text text-anchor="middle" x="328.25" y="-67.3" font-family="Times,serif" font-size="14.00">utilities_mod</text>
</a>
</g>
</g>
<!-- rMatrix_mod&#45;&gt;utilities_mod -->
<g id="edge5" class="edge">
<title>rMatrix_mod&#45;&gt;utilities_mod</title>
<path fill="none" stroke="black" d="M228.06,-413C267.76,-390.36 328.25,-346.3 328.25,-288 328.25,-288 328.25,-288 328.25,-214 328.25,-174 328.25,-127.65 328.25,-99.08"/>
<polygon fill="black" stroke="black" points="331.75,-99.05 328.25,-89.05 324.75,-99.05 331.75,-99.05"/>
</g>
</g>
</svg>
