<?xml version="1.0" encoding="UTF-8" standalone="no"?>
<!DOCTYPE svg PUBLIC "-//W3C//DTD SVG 1.1//EN"
 "http://www.w3.org/Graphics/SVG/1.1/DTD/svg11.dtd">
<!-- Generated by graphviz version 3.0.0 (20220315.2325)
 -->
<!-- Title: rttovInterfaces_mod Pages: 1 -->
<svg width="433pt" height="385pt"
 viewBox="0.00 0.00 433.00 385.00" xmlns="http://www.w3.org/2000/svg" xmlns:xlink="http://www.w3.org/1999/xlink">
<g id="graph0" class="graph" transform="scale(1 1) rotate(0) translate(4 381)">
<title>rttovInterfaces_mod</title>
<polygon fill="white" stroke="transparent" points="-4,4 -4,-381 429,-381 429,4 -4,4"/>
<text text-anchor="middle" x="212.5" y="-361.8" font-family="Times,serif" font-size="14.00">Blue boxes indicate modules with reverse dependencies not shown</text>
<text text-anchor="middle" x="212.5" y="-346.8" font-family="Times,serif" font-size="14.00">Higher level reverse dependencies can be shown by clicking on a blue box</text>
<text text-anchor="middle" x="212.5" y="-331.8" font-family="Times,serif" font-size="14.00">Green boxes are programs</text>
<!-- rttovInterfaces_mod -->
<g id="node1" class="node">
<title>rttovInterfaces_mod</title>
<g id="a_node1"><a xlink:href="rttovInterfaces_mod.html" xlink:title="rttovInterfaces_mod">
<polygon fill="none" stroke="black" points="290.25,-36 162.25,-36 162.25,0 290.25,0 290.25,-36"/>
<text text-anchor="middle" x="226.25" y="-14.3" font-family="Times,serif" font-size="14.00">rttovInterfaces_mod</text>
</a>
</g>
</g>
<!-- multiirbgck_mod -->
<g id="node2" class="node">
<title>multiirbgck_mod</title>
<g id="a_node2"><a xlink:href="../modules/multiirbgck_mod_rev.svg" xlink:title="multiirbgck_mod">
<polygon fill="none" stroke="blue" points="171.25,-108 59.25,-108 59.25,-72 171.25,-72 171.25,-108"/>
<text text-anchor="middle" x="115.25" y="-86.3" font-family="Times,serif" font-size="14.00">multiirbgck_mod</text>
</a>
</g>
</g>
<!-- multiirbgck_mod&#45;&gt;rttovInterfaces_mod -->
<g id="edge1" class="edge">
<title>multiirbgck_mod&#45;&gt;rttovInterfaces_mod</title>
<path fill="none" stroke="black" d="M149.5,-67.4C165.41,-57.37 184.06,-45.61 198.99,-36.19"/>
<ellipse fill="black" stroke="black" cx="145.79" cy="-69.74" rx="4" ry="4"/>
</g>
<!-- rmatrix_mod -->
<g id="node3" class="node">
<title>rmatrix_mod</title>
<g id="a_node3"><a xlink:href="../modules/rmatrix_mod_rev.svg" xlink:title="rmatrix_mod">
<polygon fill="none" stroke="blue" points="226.25,-180 136.25,-180 136.25,-144 226.25,-144 226.25,-180"/>
<text text-anchor="middle" x="181.25" y="-158.3" font-family="Times,serif" font-size="14.00">rmatrix_mod</text>
</a>
</g>
</g>
<!-- rmatrix_mod&#45;&gt;rttovInterfaces_mod -->
<g id="edge2" class="edge">
<title>rmatrix_mod&#45;&gt;rttovInterfaces_mod</title>
<path fill="none" stroke="black" d="M189.2,-135.93C198.28,-107.25 212.92,-61.06 220.8,-36.19"/>
<ellipse fill="black" stroke="black" cx="187.89" cy="-140.06" rx="4" ry="4"/>
</g>
<!-- tovslin_mod -->
<g id="node4" class="node">
<title>tovslin_mod</title>
<g id="a_node4"><a xlink:href="../modules/tovslin_mod_rev.svg" xlink:title="tovslin_mod">
<polygon fill="none" stroke="blue" points="296.75,-252 211.75,-252 211.75,-216 296.75,-216 296.75,-252"/>
<text text-anchor="middle" x="254.25" y="-230.3" font-family="Times,serif" font-size="14.00">tovslin_mod</text>
</a>
</g>
</g>
<!-- tovslin_mod&#45;&gt;rttovInterfaces_mod -->
<g id="edge3" class="edge">
<title>tovslin_mod&#45;&gt;rttovInterfaces_mod</title>
<path fill="none" stroke="black" d="M250.94,-207.67C245.17,-163.59 233.43,-73.87 228.5,-36.23"/>
<ellipse fill="black" stroke="black" cx="251.49" cy="-211.88" rx="4" ry="4"/>
</g>
<!-- tovsnl_mod -->
<g id="node5" class="node">
<title>tovsnl_mod</title>
<g id="a_node5"><a xlink:href="../modules/tovsnl_mod_rev.svg" xlink:title="tovsnl_mod">
<polygon fill="none" stroke="blue" points="365.75,-324 284.75,-324 284.75,-288 365.75,-288 365.75,-324"/>
<text text-anchor="middle" x="325.25" y="-302.3" font-family="Times,serif" font-size="14.00">tovsnl_mod</text>
</a>
</g>
</g>
<!-- tovsnl_mod&#45;&gt;rttovInterfaces_mod -->
<g id="edge4" class="edge">
<title>tovsnl_mod&#45;&gt;rttovInterfaces_mod</title>
<path fill="none" stroke="black" d="M320.93,-279.49C317.62,-261.55 312.55,-237.07 306.25,-216 286.57,-150.21 276.87,-135.3 250.25,-72 245.16,-59.9 239.05,-46.42 234.27,-36.08"/>
<ellipse fill="black" stroke="black" cx="321.7" cy="-283.8" rx="4" ry="4"/>
</g>
</g>
</svg>
