<?xml version="1.0" encoding="UTF-8" standalone="no"?>
<!DOCTYPE svg PUBLIC "-//W3C//DTD SVG 1.1//EN"
 "http://www.w3.org/Graphics/SVG/1.1/DTD/svg11.dtd">
<!-- Generated by graphviz version 3.0.0 (20220315.2325)
 -->
<!-- Title: slantProfileLatLon_mod Pages: 1 -->
<svg width="558pt" height="673pt"
 viewBox="0.00 0.00 558.00 673.00" xmlns="http://www.w3.org/2000/svg" xmlns:xlink="http://www.w3.org/1999/xlink">
<g id="graph0" class="graph" transform="scale(1 1) rotate(0) translate(4 669)">
<title>slantProfileLatLon_mod</title>
<polygon fill="white" stroke="transparent" points="-4,4 -4,-669 554,-669 554,4 -4,4"/>
<text text-anchor="middle" x="275" y="-37.8" font-family="Times,serif" font-size="14.00">Red boxes indicate modules with dependencies not shown</text>
<text text-anchor="middle" x="275" y="-22.8" font-family="Times,serif" font-size="14.00">Lower level dependencies can be shown by clicking on a red box</text>
<text text-anchor="middle" x="275" y="-7.8" font-family="Times,serif" font-size="14.00">Shaded boxes indicate modules with no dependencies</text>
<!-- slantProfileLatLon_mod -->
<g id="node1" class="node">
<title>slantProfileLatLon_mod</title>
<g id="a_node1"><a xlink:href="slantProfileLatLon_mod.html" xlink:title="slantProfileLatLon_mod">
<polygon fill="none" stroke="black" points="347.5,-665 197.5,-665 197.5,-629 347.5,-629 347.5,-665"/>
<text text-anchor="middle" x="272.5" y="-643.3" font-family="Times,serif" font-size="14.00">slantProfileLatLon_mod</text>
</a>
</g>
</g>
<!-- codtyp_mod -->
<g id="node2" class="node">
<title>codtyp_mod</title>
<g id="a_node2"><a xlink:href="../modules/codtyp_mod.svg" xlink:title="codtyp_mod">
<polygon fill="none" stroke="red" points="85,-593 0,-593 0,-557 85,-557 85,-593"/>
<text text-anchor="middle" x="42.5" y="-571.3" font-family="Times,serif" font-size="14.00">codtyp_mod</text>
</a>
</g>
</g>
<!-- slantProfileLatLon_mod&#45;&gt;codtyp_mod -->
<g id="edge1" class="edge">
<title>slantProfileLatLon_mod&#45;&gt;codtyp_mod</title>
<path fill="none" stroke="black" d="M216.53,-628.97C179.58,-617.72 131.48,-603.08 95.21,-592.04"/>
<polygon fill="black" stroke="black" points="95.9,-588.59 85.31,-589.03 93.86,-595.29 95.9,-588.59"/>
</g>
<!-- earthconstants_mod -->
<g id="node3" class="node">
<title>earthconstants_mod</title>
<g id="a_node3"><a xlink:href="../modules/earthconstants_mod.svg" xlink:title="earthconstants_mod">
<polygon fill="none" stroke="red" points="149.5,-521 23.5,-521 23.5,-485 149.5,-485 149.5,-521"/>
<text text-anchor="middle" x="86.5" y="-499.3" font-family="Times,serif" font-size="14.00">earthconstants_mod</text>
</a>
</g>
</g>
<!-- slantProfileLatLon_mod&#45;&gt;earthconstants_mod -->
<g id="edge2" class="edge">
<title>slantProfileLatLon_mod&#45;&gt;earthconstants_mod</title>
<path fill="none" stroke="black" d="M227.19,-628.89C206.63,-619.93 182.69,-607.74 163.5,-593 140.04,-574.97 118.48,-548.86 104.18,-529.58"/>
<polygon fill="black" stroke="black" points="106.84,-527.29 98.14,-521.25 101.18,-531.4 106.84,-527.29"/>
</g>
<!-- getgridposition_mod -->
<g id="node4" class="node">
<title>getgridposition_mod</title>
<g id="a_node4"><a xlink:href="../modules/getgridposition_mod.svg" xlink:title="getgridposition_mod">
<polygon fill="none" stroke="red" points="187,-449 56,-449 56,-413 187,-413 187,-449"/>
<text text-anchor="middle" x="121.5" y="-427.3" font-family="Times,serif" font-size="14.00">getgridposition_mod</text>
</a>
</g>
</g>
<!-- slantProfileLatLon_mod&#45;&gt;getgridposition_mod -->
<g id="edge3" class="edge">
<title>slantProfileLatLon_mod&#45;&gt;getgridposition_mod</title>
<path fill="none" stroke="black" d="M242.48,-628.96C228.49,-619.79 212.55,-607.4 201.5,-593 170.06,-552 183.01,-530.48 158.5,-485 153.39,-475.52 146.91,-465.69 140.81,-457.12"/>
<polygon fill="black" stroke="black" points="143.61,-455.03 134.89,-449.02 137.96,-459.16 143.61,-455.03"/>
</g>
<!-- horizontalcoord_mod -->
<g id="node5" class="node">
<title>horizontalcoord_mod</title>
<g id="a_node5"><a xlink:href="../modules/horizontalcoord_mod.svg" xlink:title="horizontalcoord_mod">
<polygon fill="none" stroke="red" points="225.5,-377 91.5,-377 91.5,-341 225.5,-341 225.5,-377"/>
<text text-anchor="middle" x="158.5" y="-355.3" font-family="Times,serif" font-size="14.00">horizontalcoord_mod</text>
</a>
</g>
</g>
<!-- slantProfileLatLon_mod&#45;&gt;horizontalcoord_mod -->
<g id="edge4" class="edge">
<title>slantProfileLatLon_mod&#45;&gt;horizontalcoord_mod</title>
<path fill="none" stroke="black" d="M259.71,-628.62C252.87,-618.62 244.8,-605.59 239.5,-593 207.56,-517.09 229.43,-488.04 195.5,-413 191.18,-403.44 185.07,-393.79 179.07,-385.39"/>
<polygon fill="black" stroke="black" points="181.71,-383.08 172.93,-377.15 176.1,-387.26 181.71,-383.08"/>
</g>
<!-- mathphysconstants_mod -->
<g id="node6" class="node">
<title>mathphysconstants_mod</title>
<g id="a_node6"><a xlink:href="mathphysconstants_mod.html" xlink:title="mathphysconstants_mod">
<polygon fill="gray" stroke="black" points="263.5,-305 111.5,-305 111.5,-269 263.5,-269 263.5,-305"/>
<text text-anchor="middle" x="187.5" y="-283.3" font-family="Times,serif" font-size="14.00">mathphysconstants_mod</text>
</a>
</g>
</g>
<!-- slantProfileLatLon_mod&#45;&gt;mathphysconstants_mod -->
<g id="edge5" class="edge">
<title>slantProfileLatLon_mod&#45;&gt;mathphysconstants_mod</title>
<path fill="none" stroke="black" d="M268.66,-628.61C263.1,-601.94 253.5,-549.27 253.5,-504 253.5,-504 253.5,-504 253.5,-430 253.5,-389.55 252.74,-377.1 234.5,-341 229.32,-330.75 221.66,-320.92 214.03,-312.57"/>
<polygon fill="black" stroke="black" points="216.54,-310.14 207.09,-305.35 211.49,-314.99 216.54,-310.14"/>
</g>
<!-- midasmpi_mod -->
<g id="node7" class="node">
<title>midasmpi_mod</title>
<g id="a_node7"><a xlink:href="../modules/midasmpi_mod.svg" xlink:title="midasmpi_mod">
<polygon fill="none" stroke="red" points="301.5,-233 199.5,-233 199.5,-197 301.5,-197 301.5,-233"/>
<text text-anchor="middle" x="250.5" y="-211.3" font-family="Times,serif" font-size="14.00">midasmpi_mod</text>
</a>
</g>
</g>
<!-- slantProfileLatLon_mod&#45;&gt;midasmpi_mod -->
<g id="edge6" class="edge">
<title>slantProfileLatLon_mod&#45;&gt;midasmpi_mod</title>
<path fill="none" stroke="black" d="M276.34,-628.61C281.9,-601.94 291.5,-549.27 291.5,-504 291.5,-504 291.5,-504 291.5,-358 291.5,-316.41 275.06,-270.56 263,-242.51"/>
<polygon fill="black" stroke="black" points="266.05,-240.75 258.8,-233.03 259.65,-243.59 266.05,-240.75"/>
</g>
<!-- obsspacedata_mod -->
<g id="node8" class="node">
<title>obsspacedata_mod</title>
<g id="a_node8"><a xlink:href="../modules/obsspacedata_mod.svg" xlink:title="obsspacedata_mod">
<polygon fill="none" stroke="red" points="339,-161 220,-161 220,-125 339,-125 339,-161"/>
<text text-anchor="middle" x="279.5" y="-139.3" font-family="Times,serif" font-size="14.00">obsspacedata_mod</text>
</a>
</g>
</g>
<!-- slantProfileLatLon_mod&#45;&gt;obsspacedata_mod -->
<g id="edge7" class="edge">
<title>slantProfileLatLon_mod&#45;&gt;obsspacedata_mod</title>
<path fill="none" stroke="black" d="M284.31,-628.96C301.01,-603.16 329.5,-552.08 329.5,-504 329.5,-504 329.5,-504 329.5,-286 329.5,-245.55 325.12,-234.71 310.5,-197 306.94,-187.8 301.9,-178.33 296.92,-169.98"/>
<polygon fill="black" stroke="black" points="299.86,-168.08 291.61,-161.43 293.91,-171.77 299.86,-168.08"/>
</g>
<!-- radialvelocity_mod -->
<g id="node9" class="node">
<title>radialvelocity_mod</title>
<g id="a_node9"><a xlink:href="../modules/radialvelocity_mod.svg" xlink:title="radialvelocity_mod">
<polygon fill="none" stroke="red" points="428.5,-89 306.5,-89 306.5,-53 428.5,-53 428.5,-89"/>
<text text-anchor="middle" x="367.5" y="-67.3" font-family="Times,serif" font-size="14.00">radialvelocity_mod</text>
</a>
</g>
</g>
<!-- slantProfileLatLon_mod&#45;&gt;radialvelocity_mod -->
<g id="edge8" class="edge">
<title>slantProfileLatLon_mod&#45;&gt;radialvelocity_mod</title>
<path fill="none" stroke="black" d="M294.06,-628.78C322.09,-604.28 367.5,-556.5 367.5,-504 367.5,-504 367.5,-504 367.5,-214 367.5,-174 367.5,-127.65 367.5,-99.08"/>
<polygon fill="black" stroke="black" points="371,-99.05 367.5,-89.05 364,-99.05 371,-99.05"/>
</g>
<!-- tovsnl_mod -->
<g id="node10" class="node">
<title>tovsnl_mod</title>
<g id="a_node10"><a xlink:href="../modules/tovsnl_mod.svg" xlink:title="tovsnl_mod">
<polygon fill="none" stroke="red" points="477,-593 396,-593 396,-557 477,-557 477,-593"/>
<text text-anchor="middle" x="436.5" y="-571.3" font-family="Times,serif" font-size="14.00">tovsnl_mod</text>
</a>
</g>
</g>
<!-- slantProfileLatLon_mod&#45;&gt;tovsnl_mod -->
<g id="edge9" class="edge">
<title>slantProfileLatLon_mod&#45;&gt;tovsnl_mod</title>
<path fill="none" stroke="black" d="M312.62,-628.88C335.14,-619.26 363.42,-607.19 387.27,-597.01"/>
<polygon fill="black" stroke="black" points="388.69,-600.21 396.51,-593.07 385.94,-593.77 388.69,-600.21"/>
</g>
<!-- utilities_mod -->
<g id="node11" class="node">
<title>utilities_mod</title>
<g id="a_node11"><a xlink:href="../modules/utilities_mod.svg" xlink:title="utilities_mod">
<polygon fill="none" stroke="red" points="550,-521 461,-521 461,-485 550,-485 550,-521"/>
<text text-anchor="middle" x="505.5" y="-499.3" font-family="Times,serif" font-size="14.00">utilities_mod</text>
</a>
</g>
</g>
<!-- slantProfileLatLon_mod&#45;&gt;utilities_mod -->
<g id="edge10" class="edge">
<title>slantProfileLatLon_mod&#45;&gt;utilities_mod</title>
<path fill="none" stroke="black" d="M347.57,-635.8C400.87,-627.04 466.26,-612.69 485.5,-593 501.28,-576.85 505.69,-551.08 506.5,-531.42"/>
<polygon fill="black" stroke="black" points="510,-531.26 506.62,-521.22 503,-531.17 510,-531.26"/>
</g>
</g>
</svg>
