<?xml version="1.0" encoding="UTF-8" standalone="no"?>
<!DOCTYPE svg PUBLIC "-//W3C//DTD SVG 1.1//EN"
 "http://www.w3.org/Graphics/SVG/1.1/DTD/svg11.dtd">
<!-- Generated by graphviz version 3.0.0 (20220315.2325)
 -->
<!-- Title: spectralFilter_mod Pages: 1 -->
<svg width="433pt" height="241pt"
 viewBox="0.00 0.00 433.00 241.00" xmlns="http://www.w3.org/2000/svg" xmlns:xlink="http://www.w3.org/1999/xlink">
<g id="graph0" class="graph" transform="scale(1 1) rotate(0) translate(4 237)">
<title>spectralFilter_mod</title>
<polygon fill="white" stroke="transparent" points="-4,4 -4,-237 429,-237 429,4 -4,4"/>
<text text-anchor="middle" x="212.5" y="-217.8" font-family="Times,serif" font-size="14.00">Blue boxes indicate modules with reverse dependencies not shown</text>
<text text-anchor="middle" x="212.5" y="-202.8" font-family="Times,serif" font-size="14.00">Higher level reverse dependencies can be shown by clicking on a blue box</text>
<text text-anchor="middle" x="212.5" y="-187.8" font-family="Times,serif" font-size="14.00">Green boxes are programs</text>
<!-- spectralFilter_mod -->
<g id="node1" class="node">
<title>spectralFilter_mod</title>
<g id="a_node1"><a xlink:href="spectralFilter_mod.html" xlink:title="spectralFilter_mod">
<polygon fill="none" stroke="black" points="280,-36 161,-36 161,0 280,0 280,-36"/>
<text text-anchor="middle" x="220.5" y="-14.3" font-family="Times,serif" font-size="14.00">spectralFilter_mod</text>
</a>
</g>
</g>
<!-- bmatrixensemble_mod -->
<g id="node2" class="node">
<title>bmatrixensemble_mod</title>
<g id="a_node2"><a xlink:href="../modules/bmatrixensemble_mod_rev.svg" xlink:title="bmatrixensemble_mod">
<polygon fill="none" stroke="blue" points="242,-108 99,-108 99,-72 242,-72 242,-108"/>
<text text-anchor="middle" x="170.5" y="-86.3" font-family="Times,serif" font-size="14.00">bmatrixensemble_mod</text>
</a>
</g>
</g>
<!-- bmatrixensemble_mod&#45;&gt;spectralFilter_mod -->
<g id="edge1" class="edge">
<title>bmatrixensemble_mod&#45;&gt;spectralFilter_mod</title>
<path fill="none" stroke="black" d="M187.62,-65.03C194.41,-55.52 202.07,-44.8 208.28,-36.1"/>
<ellipse fill="black" stroke="black" cx="185.18" cy="-68.44" rx="4" ry="4"/>
</g>
<!-- calcstatsglb_mod -->
<g id="node3" class="node">
<title>calcstatsglb_mod</title>
<g id="a_node3"><a xlink:href="../modules/calcstatsglb_mod_rev.svg" xlink:title="calcstatsglb_mod">
<polygon fill="none" stroke="blue" points="326,-180 215,-180 215,-144 326,-144 326,-180"/>
<text text-anchor="middle" x="270.5" y="-158.3" font-family="Times,serif" font-size="14.00">calcstatsglb_mod</text>
</a>
</g>
</g>
<!-- calcstatsglb_mod&#45;&gt;spectralFilter_mod -->
<g id="edge2" class="edge">
<title>calcstatsglb_mod&#45;&gt;spectralFilter_mod</title>
<path fill="none" stroke="black" d="M267.26,-135.47C264.43,-117.34 259.5,-92.64 251.5,-72 246.65,-59.48 239.06,-46.44 232.61,-36.43"/>
<ellipse fill="black" stroke="black" cx="267.9" cy="-139.85" rx="4" ry="4"/>
</g>
</g>
</svg>
