<?xml version="1.0" encoding="UTF-8" standalone="no"?>
<!DOCTYPE svg PUBLIC "-//W3C//DTD SVG 1.1//EN"
 "http://www.w3.org/Graphics/SVG/1.1/DTD/svg11.dtd">
<!-- Generated by graphviz version 3.0.0 (20220315.2325)
 -->
<!-- Title: sqliteRead_mod Pages: 1 -->
<svg width="433pt" height="241pt"
 viewBox="0.00 0.00 433.00 241.00" xmlns="http://www.w3.org/2000/svg" xmlns:xlink="http://www.w3.org/1999/xlink">
<g id="graph0" class="graph" transform="scale(1 1) rotate(0) translate(4 237)">
<title>sqliteRead_mod</title>
<polygon fill="white" stroke="transparent" points="-4,4 -4,-237 429,-237 429,4 -4,4"/>
<text text-anchor="middle" x="212.5" y="-217.8" font-family="Times,serif" font-size="14.00">Blue boxes indicate modules with reverse dependencies not shown</text>
<text text-anchor="middle" x="212.5" y="-202.8" font-family="Times,serif" font-size="14.00">Higher level reverse dependencies can be shown by clicking on a blue box</text>
<text text-anchor="middle" x="212.5" y="-187.8" font-family="Times,serif" font-size="14.00">Green boxes are programs</text>
<!-- sqliteRead_mod -->
<g id="node1" class="node">
<title>sqliteRead_mod</title>
<g id="a_node1"><a xlink:href="sqliteRead_mod.html" xlink:title="sqliteRead_mod">
<polygon fill="none" stroke="black" points="277.25,-36 172.25,-36 172.25,0 277.25,0 277.25,-36"/>
<text text-anchor="middle" x="224.75" y="-14.3" font-family="Times,serif" font-size="14.00">sqliteRead_mod</text>
</a>
</g>
</g>
<!-- oceanobservations_mod -->
<g id="node2" class="node">
<title>oceanobservations_mod</title>
<g id="a_node2"><a xlink:href="../modules/oceanobservations_mod_rev.svg" xlink:title="oceanobservations_mod">
<polygon fill="none" stroke="blue" points="248.25,-108 99.25,-108 99.25,-72 248.25,-72 248.25,-108"/>
<text text-anchor="middle" x="173.75" y="-86.3" font-family="Times,serif" font-size="14.00">oceanobservations_mod</text>
</a>
</g>
</g>
<!-- oceanobservations_mod&#45;&gt;sqliteRead_mod -->
<g id="edge1" class="edge">
<title>oceanobservations_mod&#45;&gt;sqliteRead_mod</title>
<path fill="none" stroke="black" d="M191.21,-65.03C198.14,-55.52 205.95,-44.8 212.29,-36.1"/>
<ellipse fill="black" stroke="black" cx="188.71" cy="-68.46" rx="4" ry="4"/>
</g>
<!-- sqlitefiles_mod -->
<g id="node3" class="node">
<title>sqlitefiles_mod</title>
<g id="a_node3"><a xlink:href="../modules/sqlitefiles_mod_rev.svg" xlink:title="sqlitefiles_mod">
<polygon fill="none" stroke="blue" points="325.75,-180 225.75,-180 225.75,-144 325.75,-144 325.75,-180"/>
<text text-anchor="middle" x="275.75" y="-158.3" font-family="Times,serif" font-size="14.00">sqlitefiles_mod</text>
</a>
</g>
</g>
<!-- sqlitefiles_mod&#45;&gt;sqliteRead_mod -->
<g id="edge2" class="edge">
<title>sqlitefiles_mod&#45;&gt;sqliteRead_mod</title>
<path fill="none" stroke="black" d="M272.6,-135.44C269.81,-117.28 264.89,-92.58 256.75,-72 251.77,-59.41 243.94,-46.37 237.27,-36.38"/>
<ellipse fill="black" stroke="black" cx="273.23" cy="-139.82" rx="4" ry="4"/>
</g>
</g>
</svg>
