<?xml version="1.0" encoding="UTF-8" standalone="no"?>
<!DOCTYPE svg PUBLIC "-//W3C//DTD SVG 1.1//EN"
 "http://www.w3.org/Graphics/SVG/1.1/DTD/svg11.dtd">
<!-- Generated by graphviz version 3.0.0 (20220315.2325)
 -->
<!-- Title: sqliteFiles_mod Pages: 1 -->
<svg width="528pt" height="673pt"
 viewBox="0.00 0.00 528.00 673.00" xmlns="http://www.w3.org/2000/svg" xmlns:xlink="http://www.w3.org/1999/xlink">
<g id="graph0" class="graph" transform="scale(1 1) rotate(0) translate(4 669)">
<title>sqliteFiles_mod</title>
<polygon fill="white" stroke="transparent" points="-4,4 -4,-669 524,-669 524,4 -4,4"/>
<text text-anchor="middle" x="260" y="-37.8" font-family="Times,serif" font-size="14.00">Red boxes indicate modules with dependencies not shown</text>
<text text-anchor="middle" x="260" y="-22.8" font-family="Times,serif" font-size="14.00">Lower level dependencies can be shown by clicking on a red box</text>
<text text-anchor="middle" x="260" y="-7.8" font-family="Times,serif" font-size="14.00">Shaded boxes indicate modules with no dependencies</text>
<!-- sqliteFiles_mod -->
<g id="node1" class="node">
<title>sqliteFiles_mod</title>
<g id="a_node1"><a xlink:href="sqliteFiles_mod.html" xlink:title="sqliteFiles_mod">
<polygon fill="none" stroke="black" points="331.5,-665 227.5,-665 227.5,-629 331.5,-629 331.5,-665"/>
<text text-anchor="middle" x="279.5" y="-643.3" font-family="Times,serif" font-size="14.00">sqliteFiles_mod</text>
</a>
</g>
</g>
<!-- codeprecision_mod -->
<g id="node2" class="node">
<title>codeprecision_mod</title>
<g id="a_node2"><a xlink:href="codeprecision_mod.html" xlink:title="codeprecision_mod">
<polygon fill="gray" stroke="black" points="123,-593 0,-593 0,-557 123,-557 123,-593"/>
<text text-anchor="middle" x="61.5" y="-571.3" font-family="Times,serif" font-size="14.00">codeprecision_mod</text>
</a>
</g>
</g>
<!-- sqliteFiles_mod&#45;&gt;codeprecision_mod -->
<g id="edge1" class="edge">
<title>sqliteFiles_mod&#45;&gt;codeprecision_mod</title>
<path fill="none" stroke="black" d="M227.28,-629.23C196.46,-619.34 157.24,-606.74 124.68,-596.29"/>
<polygon fill="black" stroke="black" points="125.4,-592.84 114.8,-593.12 123.26,-599.51 125.4,-592.84"/>
</g>
<!-- mathphysconstants_mod -->
<g id="node3" class="node">
<title>mathphysconstants_mod</title>
<g id="a_node3"><a xlink:href="mathphysconstants_mod.html" xlink:title="mathphysconstants_mod">
<polygon fill="gray" stroke="black" points="194.5,-521 42.5,-521 42.5,-485 194.5,-485 194.5,-521"/>
<text text-anchor="middle" x="118.5" y="-499.3" font-family="Times,serif" font-size="14.00">mathphysconstants_mod</text>
</a>
</g>
</g>
<!-- sqliteFiles_mod&#45;&gt;mathphysconstants_mod -->
<g id="edge2" class="edge">
<title>sqliteFiles_mod&#45;&gt;mathphysconstants_mod</title>
<path fill="none" stroke="black" d="M254.86,-628.9C240.9,-618.88 223.31,-605.74 208.5,-593 184.6,-572.43 159.21,-546.96 141.52,-528.54"/>
<polygon fill="black" stroke="black" points="143.87,-525.93 134.43,-521.11 138.8,-530.77 143.87,-525.93"/>
</g>
<!-- obsspacedata_mod -->
<g id="node4" class="node">
<title>obsspacedata_mod</title>
<g id="a_node4"><a xlink:href="../modules/obsspacedata_mod.svg" xlink:title="obsspacedata_mod">
<polygon fill="none" stroke="red" points="232,-449 113,-449 113,-413 232,-413 232,-449"/>
<text text-anchor="middle" x="172.5" y="-427.3" font-family="Times,serif" font-size="14.00">obsspacedata_mod</text>
</a>
</g>
</g>
<!-- sqliteFiles_mod&#45;&gt;obsspacedata_mod -->
<g id="edge3" class="edge">
<title>sqliteFiles_mod&#45;&gt;obsspacedata_mod</title>
<path fill="none" stroke="black" d="M267.69,-628.79C261.01,-618.63 252.76,-605.38 246.5,-593 223.2,-546.89 226.16,-531.43 203.5,-485 199.1,-476 193.76,-466.46 188.75,-457.99"/>
<polygon fill="black" stroke="black" points="191.67,-456.06 183.51,-449.3 185.68,-459.67 191.67,-456.06"/>
</g>
<!-- obsutil_mod -->
<g id="node5" class="node">
<title>obsutil_mod</title>
<g id="a_node5"><a xlink:href="../modules/obsutil_mod.svg" xlink:title="obsutil_mod">
<polygon fill="none" stroke="red" points="270,-377 185,-377 185,-341 270,-341 270,-377"/>
<text text-anchor="middle" x="227.5" y="-355.3" font-family="Times,serif" font-size="14.00">obsutil_mod</text>
</a>
</g>
</g>
<!-- sqliteFiles_mod&#45;&gt;obsutil_mod -->
<g id="edge4" class="edge">
<title>sqliteFiles_mod&#45;&gt;obsutil_mod</title>
<path fill="none" stroke="black" d="M277.09,-628.96C271.55,-590.36 257.05,-493.34 240.5,-413 238.75,-404.52 236.6,-395.34 234.54,-387.04"/>
<polygon fill="black" stroke="black" points="237.88,-385.95 232.04,-377.11 231.09,-387.66 237.88,-385.95"/>
</g>
<!-- obsvariabletransforms_mod -->
<g id="node6" class="node">
<title>obsvariabletransforms_mod</title>
<g id="a_node6"><a xlink:href="../modules/obsvariabletransforms_mod.svg" xlink:title="obsvariabletransforms_mod">
<polygon fill="none" stroke="red" points="308.5,-305 138.5,-305 138.5,-269 308.5,-269 308.5,-305"/>
<text text-anchor="middle" x="223.5" y="-283.3" font-family="Times,serif" font-size="14.00">obsvariabletransforms_mod</text>
</a>
</g>
</g>
<!-- sqliteFiles_mod&#45;&gt;obsvariabletransforms_mod -->
<g id="edge5" class="edge">
<title>sqliteFiles_mod&#45;&gt;obsvariabletransforms_mod</title>
<path fill="none" stroke="black" d="M283.34,-628.61C288.9,-601.94 298.5,-549.27 298.5,-504 298.5,-504 298.5,-504 298.5,-430 298.5,-389.46 298.38,-376.33 278.5,-341 272.35,-330.08 263.25,-319.99 254.2,-311.62"/>
<polygon fill="black" stroke="black" points="256.51,-308.98 246.69,-305.01 251.88,-314.24 256.51,-308.98"/>
</g>
<!-- sqliteread_mod -->
<g id="node7" class="node">
<title>sqliteread_mod</title>
<g id="a_node7"><a xlink:href="../modules/sqliteread_mod.svg" xlink:title="sqliteread_mod">
<polygon fill="none" stroke="red" points="367,-233 266,-233 266,-197 367,-197 367,-233"/>
<text text-anchor="middle" x="316.5" y="-211.3" font-family="Times,serif" font-size="14.00">sqliteread_mod</text>
</a>
</g>
</g>
<!-- sqliteFiles_mod&#45;&gt;sqliteread_mod -->
<g id="edge6" class="edge">
<title>sqliteFiles_mod&#45;&gt;sqliteread_mod</title>
<path fill="none" stroke="black" d="M291.31,-628.96C308.01,-603.16 336.5,-552.08 336.5,-504 336.5,-504 336.5,-504 336.5,-358 336.5,-317.82 328.55,-271.87 322.68,-243.39"/>
<polygon fill="black" stroke="black" points="326.05,-242.43 320.55,-233.38 319.2,-243.89 326.05,-242.43"/>
</g>
<!-- timecoord_mod -->
<g id="node8" class="node">
<title>timecoord_mod</title>
<g id="a_node8"><a xlink:href="../modules/timecoord_mod.svg" xlink:title="timecoord_mod">
<polygon fill="none" stroke="red" points="447.5,-161 343.5,-161 343.5,-125 447.5,-125 447.5,-161"/>
<text text-anchor="middle" x="395.5" y="-139.3" font-family="Times,serif" font-size="14.00">timecoord_mod</text>
</a>
</g>
</g>
<!-- sqliteFiles_mod&#45;&gt;timecoord_mod -->
<g id="edge7" class="edge">
<title>sqliteFiles_mod&#45;&gt;timecoord_mod</title>
<path fill="none" stroke="black" d="M307.28,-628.88C341.6,-605.35 395.5,-559.55 395.5,-504 395.5,-504 395.5,-504 395.5,-286 395.5,-246 395.5,-199.65 395.5,-171.08"/>
<polygon fill="black" stroke="black" points="399,-171.05 395.5,-161.05 392,-171.05 399,-171.05"/>
</g>
<!-- utilities_mod -->
<g id="node9" class="node">
<title>utilities_mod</title>
<g id="a_node9"><a xlink:href="../modules/utilities_mod.svg" xlink:title="utilities_mod">
<polygon fill="none" stroke="red" points="520,-89 431,-89 431,-53 520,-53 520,-89"/>
<text text-anchor="middle" x="475.5" y="-67.3" font-family="Times,serif" font-size="14.00">utilities_mod</text>
</a>
</g>
</g>
<!-- sqliteFiles_mod&#45;&gt;utilities_mod -->
<g id="edge8" class="edge">
<title>sqliteFiles_mod&#45;&gt;utilities_mod</title>
<path fill="none" stroke="black" d="M331.51,-632.71C389.58,-614.38 475.5,-575.22 475.5,-504 475.5,-504 475.5,-504 475.5,-214 475.5,-174 475.5,-127.65 475.5,-99.08"/>
<polygon fill="black" stroke="black" points="479,-99.05 475.5,-89.05 472,-99.05 479,-99.05"/>
</g>
</g>
</svg>
