<?xml version="1.0" encoding="UTF-8" standalone="no"?>
<!DOCTYPE svg PUBLIC "-//W3C//DTD SVG 1.1//EN"
 "http://www.w3.org/Graphics/SVG/1.1/DTD/svg11.dtd">
<!-- Generated by graphviz version 3.0.0 (20220315.2325)
 -->
<!-- Title: sqliteRead_mod Pages: 1 -->
<svg width="813pt" height="673pt"
 viewBox="0.00 0.00 813.00 673.00" xmlns="http://www.w3.org/2000/svg" xmlns:xlink="http://www.w3.org/1999/xlink">
<g id="graph0" class="graph" transform="scale(1 1) rotate(0) translate(4 669)">
<title>sqliteRead_mod</title>
<polygon fill="white" stroke="transparent" points="-4,4 -4,-669 809,-669 809,4 -4,4"/>
<text text-anchor="middle" x="402.5" y="-37.8" font-family="Times,serif" font-size="14.00">Red boxes indicate modules with dependencies not shown</text>
<text text-anchor="middle" x="402.5" y="-22.8" font-family="Times,serif" font-size="14.00">Lower level dependencies can be shown by clicking on a red box</text>
<text text-anchor="middle" x="402.5" y="-7.8" font-family="Times,serif" font-size="14.00">Shaded boxes indicate modules with no dependencies</text>
<!-- sqliteRead_mod -->
<g id="node1" class="node">
<title>sqliteRead_mod</title>
<g id="a_node1"><a xlink:href="sqliteRead_mod.html" xlink:title="sqliteRead_mod">
<polygon fill="none" stroke="black" points="368,-665 263,-665 263,-629 368,-629 368,-665"/>
<text text-anchor="middle" x="315.5" y="-643.3" font-family="Times,serif" font-size="14.00">sqliteRead_mod</text>
</a>
</g>
</g>
<!-- bufr_mod -->
<g id="node2" class="node">
<title>bufr_mod</title>
<g id="a_node2"><a xlink:href="bufr_mod.html" xlink:title="bufr_mod">
<polygon fill="gray" stroke="black" points="71,-593 0,-593 0,-557 71,-557 71,-593"/>
<text text-anchor="middle" x="35.5" y="-571.3" font-family="Times,serif" font-size="14.00">bufr_mod</text>
</a>
</g>
</g>
<!-- sqliteRead_mod&#45;&gt;bufr_mod -->
<g id="edge1" class="edge">
<title>sqliteRead_mod&#45;&gt;bufr_mod</title>
<path fill="none" stroke="black" d="M262.59,-635.4C215.72,-625.63 145.61,-610.1 85.5,-593 84.04,-592.58 82.56,-592.15 81.07,-591.71"/>
<polygon fill="black" stroke="black" points="81.73,-588.25 71.14,-588.61 79.64,-594.93 81.73,-588.25"/>
</g>
<!-- codeprecision_mod -->
<g id="node3" class="node">
<title>codeprecision_mod</title>
<g id="a_node3"><a xlink:href="codeprecision_mod.html" xlink:title="codeprecision_mod">
<polygon fill="gray" stroke="black" points="135,-521 12,-521 12,-485 135,-485 135,-521"/>
<text text-anchor="middle" x="73.5" y="-499.3" font-family="Times,serif" font-size="14.00">codeprecision_mod</text>
</a>
</g>
</g>
<!-- sqliteRead_mod&#45;&gt;codeprecision_mod -->
<g id="edge2" class="edge">
<title>sqliteRead_mod&#45;&gt;codeprecision_mod</title>
<path fill="none" stroke="black" d="M262.86,-636.99C228.47,-629.31 183.77,-615.77 149.5,-593 124.59,-576.44 103.19,-549.5 89.51,-529.59"/>
<polygon fill="black" stroke="black" points="92.42,-527.64 83.96,-521.27 86.6,-531.53 92.42,-527.64"/>
</g>
<!-- codtyp_mod -->
<g id="node4" class="node">
<title>codtyp_mod</title>
<g id="a_node4"><a xlink:href="../modules/codtyp_mod.svg" xlink:title="codtyp_mod">
<polygon fill="none" stroke="red" points="173,-449 88,-449 88,-413 173,-413 173,-449"/>
<text text-anchor="middle" x="130.5" y="-427.3" font-family="Times,serif" font-size="14.00">codtyp_mod</text>
</a>
</g>
</g>
<!-- sqliteRead_mod&#45;&gt;codtyp_mod -->
<g id="edge3" class="edge">
<title>sqliteRead_mod&#45;&gt;codtyp_mod</title>
<path fill="none" stroke="black" d="M262.97,-634.94C237.22,-627.1 207.53,-614.11 187.5,-593 168.82,-573.31 147.71,-499.45 137.19,-458.96"/>
<polygon fill="black" stroke="black" points="140.57,-458.03 134.7,-449.21 133.79,-459.76 140.57,-458.03"/>
</g>
<!-- mathphysconstants_mod -->
<g id="node5" class="node">
<title>mathphysconstants_mod</title>
<g id="a_node5"><a xlink:href="mathphysconstants_mod.html" xlink:title="mathphysconstants_mod">
<polygon fill="gray" stroke="black" points="211.5,-377 59.5,-377 59.5,-341 211.5,-341 211.5,-377"/>
<text text-anchor="middle" x="135.5" y="-355.3" font-family="Times,serif" font-size="14.00">mathphysconstants_mod</text>
</a>
</g>
</g>
<!-- sqliteRead_mod&#45;&gt;mathphysconstants_mod -->
<g id="edge4" class="edge">
<title>sqliteRead_mod&#45;&gt;mathphysconstants_mod</title>
<path fill="none" stroke="black" d="M271.29,-628.86C254.7,-620.39 237.07,-608.57 225.5,-593 176.37,-526.9 219.33,-486.15 181.5,-413 176.19,-402.73 168.49,-392.78 160.9,-384.34"/>
<polygon fill="black" stroke="black" points="163.44,-381.93 154.04,-377.04 158.34,-386.72 163.44,-381.93"/>
</g>
<!-- midasmpi_mod -->
<g id="node6" class="node">
<title>midasmpi_mod</title>
<g id="a_node6"><a xlink:href="../modules/midasmpi_mod.svg" xlink:title="midasmpi_mod">
<polygon fill="none" stroke="red" points="249.5,-305 147.5,-305 147.5,-269 249.5,-269 249.5,-305"/>
<text text-anchor="middle" x="198.5" y="-283.3" font-family="Times,serif" font-size="14.00">midasmpi_mod</text>
</a>
</g>
</g>
<!-- sqliteRead_mod&#45;&gt;midasmpi_mod -->
<g id="edge5" class="edge">
<title>sqliteRead_mod&#45;&gt;midasmpi_mod</title>
<path fill="none" stroke="black" d="M294.09,-628.86C283.49,-619.33 271.31,-606.65 263.5,-593 243.16,-557.44 239.5,-544.97 239.5,-504 239.5,-504 239.5,-504 239.5,-430 239.5,-388.41 223.06,-342.56 211,-314.51"/>
<polygon fill="black" stroke="black" points="214.05,-312.75 206.8,-305.03 207.65,-315.59 214.05,-312.75"/>
</g>
<!-- obsfilter_mod -->
<g id="node7" class="node">
<title>obsfilter_mod</title>
<g id="a_node7"><a xlink:href="../modules/obsfilter_mod.svg" xlink:title="obsfilter_mod">
<polygon fill="none" stroke="red" points="287.5,-233 195.5,-233 195.5,-197 287.5,-197 287.5,-233"/>
<text text-anchor="middle" x="241.5" y="-211.3" font-family="Times,serif" font-size="14.00">obsfilter_mod</text>
</a>
</g>
</g>
<!-- sqliteRead_mod&#45;&gt;obsfilter_mod -->
<g id="edge6" class="edge">
<title>sqliteRead_mod&#45;&gt;obsfilter_mod</title>
<path fill="none" stroke="black" d="M307.81,-628.91C296.71,-602.62 277.5,-550.45 277.5,-504 277.5,-504 277.5,-504 277.5,-358 277.5,-316.78 263.07,-270.83 252.48,-242.66"/>
<polygon fill="black" stroke="black" points="255.66,-241.19 248.79,-233.13 249.14,-243.72 255.66,-241.19"/>
</g>
<!-- obsspacedata_mod -->
<g id="node8" class="node">
<title>obsspacedata_mod</title>
<g id="a_node8"><a xlink:href="../modules/obsspacedata_mod.svg" xlink:title="obsspacedata_mod">
<polygon fill="none" stroke="red" points="325,-161 206,-161 206,-125 325,-125 325,-161"/>
<text text-anchor="middle" x="265.5" y="-139.3" font-family="Times,serif" font-size="14.00">obsspacedata_mod</text>
</a>
</g>
</g>
<!-- sqliteRead_mod&#45;&gt;obsspacedata_mod -->
<g id="edge7" class="edge">
<title>sqliteRead_mod&#45;&gt;obsspacedata_mod</title>
<path fill="none" stroke="black" d="M315.5,-628.95C315.5,-602.29 315.5,-549.11 315.5,-504 315.5,-504 315.5,-504 315.5,-286 315.5,-245.55 311.12,-234.71 296.5,-197 292.94,-187.8 287.9,-178.33 282.92,-169.98"/>
<polygon fill="black" stroke="black" points="285.86,-168.08 277.61,-161.43 279.91,-171.77 285.86,-168.08"/>
</g>
<!-- obsutil_mod -->
<g id="node9" class="node">
<title>obsutil_mod</title>
<g id="a_node9"><a xlink:href="../modules/obsutil_mod.svg" xlink:title="obsutil_mod">
<polygon fill="none" stroke="red" points="396,-89 311,-89 311,-53 396,-53 396,-89"/>
<text text-anchor="middle" x="353.5" y="-67.3" font-family="Times,serif" font-size="14.00">obsutil_mod</text>
</a>
</g>
</g>
<!-- sqliteRead_mod&#45;&gt;obsutil_mod -->
<g id="edge8" class="edge">
<title>sqliteRead_mod&#45;&gt;obsutil_mod</title>
<path fill="none" stroke="black" d="M323.19,-628.91C334.29,-602.62 353.5,-550.45 353.5,-504 353.5,-504 353.5,-504 353.5,-214 353.5,-174 353.5,-127.65 353.5,-99.08"/>
<polygon fill="black" stroke="black" points="357,-99.05 353.5,-89.05 350,-99.05 357,-99.05"/>
</g>
<!-- obsvariabletransforms_mod -->
<g id="node10" class="node">
<title>obsvariabletransforms_mod</title>
<g id="a_node10"><a xlink:href="../modules/obsvariabletransforms_mod.svg" xlink:title="obsvariabletransforms_mod">
<polygon fill="none" stroke="red" points="551.5,-593 381.5,-593 381.5,-557 551.5,-557 551.5,-593"/>
<text text-anchor="middle" x="466.5" y="-571.3" font-family="Times,serif" font-size="14.00">obsvariabletransforms_mod</text>
</a>
</g>
</g>
<!-- sqliteRead_mod&#45;&gt;obsvariabletransforms_mod -->
<g id="edge9" class="edge">
<title>sqliteRead_mod&#45;&gt;obsvariabletransforms_mod</title>
<path fill="none" stroke="black" d="M352.44,-628.88C372.99,-619.35 398.75,-607.41 420.59,-597.28"/>
<polygon fill="black" stroke="black" points="422.08,-600.45 429.68,-593.07 419.14,-594.1 422.08,-600.45"/>
</g>
<!-- radialvelocity_mod -->
<g id="node11" class="node">
<title>radialvelocity_mod</title>
<g id="a_node11"><a xlink:href="../modules/radialvelocity_mod.svg" xlink:title="radialvelocity_mod">
<polygon fill="none" stroke="red" points="589.5,-521 467.5,-521 467.5,-485 589.5,-485 589.5,-521"/>
<text text-anchor="middle" x="528.5" y="-499.3" font-family="Times,serif" font-size="14.00">radialvelocity_mod</text>
</a>
</g>
</g>
<!-- sqliteRead_mod&#45;&gt;radialvelocity_mod -->
<g id="edge10" class="edge">
<title>sqliteRead_mod&#45;&gt;radialvelocity_mod</title>
<path fill="none" stroke="black" d="M368.05,-642.19C432.69,-636.28 536.79,-622.38 560.5,-593 575.43,-574.49 563.23,-548.44 549.81,-529.31"/>
<polygon fill="black" stroke="black" points="552.44,-526.98 543.66,-521.05 546.83,-531.16 552.44,-526.98"/>
</g>
<!-- ramdisk_mod -->
<g id="node12" class="node">
<title>ramdisk_mod</title>
<g id="a_node12"><a xlink:href="../modules/ramdisk_mod.svg" xlink:title="ramdisk_mod">
<polygon fill="none" stroke="red" points="645.5,-449 553.5,-449 553.5,-413 645.5,-413 645.5,-449"/>
<text text-anchor="middle" x="599.5" y="-427.3" font-family="Times,serif" font-size="14.00">ramdisk_mod</text>
</a>
</g>
</g>
<!-- sqliteRead_mod&#45;&gt;ramdisk_mod -->
<g id="edge11" class="edge">
<title>sqliteRead_mod&#45;&gt;ramdisk_mod</title>
<path fill="none" stroke="black" d="M368.29,-641.83C436.08,-635.42 548.58,-620.84 578.5,-593 614.94,-559.1 611.1,-495.37 605.21,-459.09"/>
<polygon fill="black" stroke="black" points="608.65,-458.43 603.45,-449.2 601.76,-459.66 608.65,-458.43"/>
</g>
<!-- sqliteutilities_mod -->
<g id="node13" class="node">
<title>sqliteutilities_mod</title>
<g id="a_node13"><a xlink:href="../modules/sqliteutilities_mod.svg" xlink:title="sqliteutilities_mod">
<polygon fill="none" stroke="red" points="732.5,-377 614.5,-377 614.5,-341 732.5,-341 732.5,-377"/>
<text text-anchor="middle" x="673.5" y="-355.3" font-family="Times,serif" font-size="14.00">sqliteutilities_mod</text>
</a>
</g>
</g>
<!-- sqliteRead_mod&#45;&gt;sqliteutilities_mod -->
<g id="edge12" class="edge">
<title>sqliteRead_mod&#45;&gt;sqliteutilities_mod</title>
<path fill="none" stroke="black" d="M368.19,-642.62C441.65,-636.87 569.75,-622.81 604.5,-593 665.68,-540.52 673.97,-436.6 674.24,-387.25"/>
<polygon fill="black" stroke="black" points="677.74,-387.01 674.19,-377.03 670.74,-387.05 677.74,-387.01"/>
</g>
<!-- utilities_mod -->
<g id="node14" class="node">
<title>utilities_mod</title>
<g id="a_node14"><a xlink:href="../modules/utilities_mod.svg" xlink:title="utilities_mod">
<polygon fill="none" stroke="red" points="805,-305 716,-305 716,-269 805,-269 805,-305"/>
<text text-anchor="middle" x="760.5" y="-283.3" font-family="Times,serif" font-size="14.00">utilities_mod</text>
</a>
</g>
</g>
<!-- sqliteRead_mod&#45;&gt;utilities_mod -->
<g id="edge13" class="edge">
<title>sqliteRead_mod&#45;&gt;utilities_mod</title>
<path fill="none" stroke="black" d="M368.09,-644.33C432.79,-640.71 544.91,-629.23 633.5,-593 697.3,-566.91 760.5,-572.92 760.5,-504 760.5,-504 760.5,-504 760.5,-430 760.5,-390 760.5,-343.65 760.5,-315.08"/>
<polygon fill="black" stroke="black" points="764,-315.05 760.5,-305.05 757,-315.05 764,-315.05"/>
</g>
</g>
</svg>
