<?xml version="1.0" encoding="UTF-8" standalone="no"?>
<!DOCTYPE svg PUBLIC "-//W3C//DTD SVG 1.1//EN"
 "http://www.w3.org/Graphics/SVG/1.1/DTD/svg11.dtd">
<!-- Generated by graphviz version 3.0.0 (20220315.2325)
 -->
<!-- Title: sqliteUtilities_mod Pages: 1 -->
<svg width="433pt" height="385pt"
 viewBox="0.00 0.00 433.00 385.00" xmlns="http://www.w3.org/2000/svg" xmlns:xlink="http://www.w3.org/1999/xlink">
<g id="graph0" class="graph" transform="scale(1 1) rotate(0) translate(4 381)">
<title>sqliteUtilities_mod</title>
<polygon fill="white" stroke="transparent" points="-4,4 -4,-381 429,-381 429,4 -4,4"/>
<text text-anchor="middle" x="212.5" y="-361.8" font-family="Times,serif" font-size="14.00">Blue boxes indicate modules with reverse dependencies not shown</text>
<text text-anchor="middle" x="212.5" y="-346.8" font-family="Times,serif" font-size="14.00">Higher level reverse dependencies can be shown by clicking on a blue box</text>
<text text-anchor="middle" x="212.5" y="-331.8" font-family="Times,serif" font-size="14.00">Green boxes are programs</text>
<!-- sqliteUtilities_mod -->
<g id="node1" class="node">
<title>sqliteUtilities_mod</title>
<g id="a_node1"><a xlink:href="sqliteUtilities_mod.html" xlink:title="sqliteUtilities_mod">
<polygon fill="none" stroke="black" points="287,-36 166,-36 166,0 287,0 287,-36"/>
<text text-anchor="middle" x="226.5" y="-14.3" font-family="Times,serif" font-size="14.00">sqliteUtilities_mod</text>
</a>
</g>
</g>
<!-- obsdbfiles_mod -->
<g id="node2" class="node">
<title>obsdbfiles_mod</title>
<g id="a_node2"><a xlink:href="../modules/obsdbfiles_mod_rev.svg" xlink:title="obsdbfiles_mod">
<polygon fill="none" stroke="blue" points="156,-108 53,-108 53,-72 156,-72 156,-108"/>
<text text-anchor="middle" x="104.5" y="-86.3" font-family="Times,serif" font-size="14.00">obsdbfiles_mod</text>
</a>
</g>
</g>
<!-- obsdbfiles_mod&#45;&gt;sqliteUtilities_mod -->
<g id="edge1" class="edge">
<title>obsdbfiles_mod&#45;&gt;sqliteUtilities_mod</title>
<path fill="none" stroke="black" d="M141.67,-67.67C159.26,-57.58 179.98,-45.69 196.54,-36.19"/>
<ellipse fill="black" stroke="black" cx="137.81" cy="-69.89" rx="4" ry="4"/>
</g>
<!-- obsdiagfiles_mod -->
<g id="node3" class="node">
<title>obsdiagfiles_mod</title>
<g id="a_node3"><a xlink:href="../modules/obsdiagfiles_mod_rev.svg" xlink:title="obsdiagfiles_mod">
<polygon fill="none" stroke="blue" points="220,-180 107,-180 107,-144 220,-144 220,-180"/>
<text text-anchor="middle" x="163.5" y="-158.3" font-family="Times,serif" font-size="14.00">obsdiagfiles_mod</text>
</a>
</g>
</g>
<!-- obsdiagfiles_mod&#45;&gt;sqliteUtilities_mod -->
<g id="edge2" class="edge">
<title>obsdiagfiles_mod&#45;&gt;sqliteUtilities_mod</title>
<path fill="none" stroke="black" d="M174.46,-136.3C187.17,-107.65 207.79,-61.17 218.87,-36.19"/>
<ellipse fill="black" stroke="black" cx="172.72" cy="-140.22" rx="4" ry="4"/>
</g>
<!-- obsfiles_mod -->
<g id="node4" class="node">
<title>obsfiles_mod</title>
<g id="a_node4"><a xlink:href="../modules/obsfiles_mod_rev.svg" xlink:title="obsfiles_mod">
<polygon fill="none" stroke="blue" points="293,-252 204,-252 204,-216 293,-216 293,-252"/>
<text text-anchor="middle" x="248.5" y="-230.3" font-family="Times,serif" font-size="14.00">obsfiles_mod</text>
</a>
</g>
</g>
<!-- obsfiles_mod&#45;&gt;sqliteUtilities_mod -->
<g id="edge3" class="edge">
<title>obsfiles_mod&#45;&gt;sqliteUtilities_mod</title>
<path fill="none" stroke="black" d="M245.9,-207.67C241.36,-163.59 232.14,-73.87 228.27,-36.23"/>
<ellipse fill="black" stroke="black" cx="246.33" cy="-211.87" rx="4" ry="4"/>
</g>
<!-- sqliteread_mod -->
<g id="node5" class="node">
<title>sqliteread_mod</title>
<g id="a_node5"><a xlink:href="../modules/sqliteread_mod_rev.svg" xlink:title="sqliteread_mod">
<polygon fill="none" stroke="blue" points="372,-324 271,-324 271,-288 372,-288 372,-324"/>
<text text-anchor="middle" x="321.5" y="-302.3" font-family="Times,serif" font-size="14.00">sqliteread_mod</text>
</a>
</g>
</g>
<!-- sqliteread_mod&#45;&gt;sqliteUtilities_mod -->
<g id="edge4" class="edge">
<title>sqliteread_mod&#45;&gt;sqliteUtilities_mod</title>
<path fill="none" stroke="black" d="M316.71,-279.54C313.11,-261.61 307.74,-237.15 301.5,-216 282.2,-150.59 273.36,-135.51 248.5,-72 243.78,-59.94 238.18,-46.46 233.81,-36.11"/>
<ellipse fill="black" stroke="black" cx="317.55" cy="-283.84" rx="4" ry="4"/>
</g>
</g>
</svg>
