<?xml version="1.0" encoding="UTF-8" standalone="no"?>
<!DOCTYPE svg PUBLIC "-//W3C//DTD SVG 1.1//EN"
 "http://www.w3.org/Graphics/SVG/1.1/DTD/svg11.dtd">
<!-- Generated by graphviz version 3.0.0 (20220315.2325)
 -->
<!-- Title: sqliteUtilities_mod Pages: 1 -->
<svg width="421pt" height="457pt"
 viewBox="0.00 0.00 420.50 457.00" xmlns="http://www.w3.org/2000/svg" xmlns:xlink="http://www.w3.org/1999/xlink">
<g id="graph0" class="graph" transform="scale(1 1) rotate(0) translate(4 453)">
<title>sqliteUtilities_mod</title>
<polygon fill="white" stroke="transparent" points="-4,4 -4,-453 416.5,-453 416.5,4 -4,4"/>
<text text-anchor="middle" x="206.25" y="-37.8" font-family="Times,serif" font-size="14.00">Red boxes indicate modules with dependencies not shown</text>
<text text-anchor="middle" x="206.25" y="-22.8" font-family="Times,serif" font-size="14.00">Lower level dependencies can be shown by clicking on a red box</text>
<text text-anchor="middle" x="206.25" y="-7.8" font-family="Times,serif" font-size="14.00">Shaded boxes indicate modules with no dependencies</text>
<!-- sqliteUtilities_mod -->
<g id="node1" class="node">
<title>sqliteUtilities_mod</title>
<g id="a_node1"><a xlink:href="sqliteUtilities_mod.html" xlink:title="sqliteUtilities_mod">
<polygon fill="none" stroke="black" points="281.5,-449 160.5,-449 160.5,-413 281.5,-413 281.5,-449"/>
<text text-anchor="middle" x="221" y="-427.3" font-family="Times,serif" font-size="14.00">sqliteUtilities_mod</text>
</a>
</g>
</g>
<!-- clibinterfaces_mod -->
<g id="node2" class="node">
<title>clibinterfaces_mod</title>
<g id="a_node2"><a xlink:href="clibinterfaces_mod.html" xlink:title="clibinterfaces_mod">
<polygon fill="gray" stroke="black" points="122,-377 0,-377 0,-341 122,-341 122,-377"/>
<text text-anchor="middle" x="61" y="-355.3" font-family="Times,serif" font-size="14.00">clibinterfaces_mod</text>
</a>
</g>
</g>
<!-- sqliteUtilities_mod&#45;&gt;clibinterfaces_mod -->
<g id="edge1" class="edge">
<title>sqliteUtilities_mod&#45;&gt;clibinterfaces_mod</title>
<path fill="none" stroke="black" d="M181.86,-412.88C159.99,-403.31 132.54,-391.3 109.34,-381.15"/>
<polygon fill="black" stroke="black" points="110.58,-377.87 100.01,-377.07 107.77,-384.28 110.58,-377.87"/>
</g>
<!-- mathphysconstants_mod -->
<g id="node3" class="node">
<title>mathphysconstants_mod</title>
<g id="a_node3"><a xlink:href="mathphysconstants_mod.html" xlink:title="mathphysconstants_mod">
<polygon fill="gray" stroke="black" points="193,-305 41,-305 41,-269 193,-269 193,-305"/>
<text text-anchor="middle" x="117" y="-283.3" font-family="Times,serif" font-size="14.00">mathphysconstants_mod</text>
</a>
</g>
</g>
<!-- sqliteUtilities_mod&#45;&gt;mathphysconstants_mod -->
<g id="edge2" class="edge">
<title>sqliteUtilities_mod&#45;&gt;mathphysconstants_mod</title>
<path fill="none" stroke="black" d="M208.46,-412.87C190.34,-388.14 156.73,-342.24 135.68,-313.51"/>
<polygon fill="black" stroke="black" points="138.32,-311.19 129.59,-305.19 132.67,-315.33 138.32,-311.19"/>
</g>
<!-- midasmpi_mod -->
<g id="node4" class="node">
<title>midasmpi_mod</title>
<g id="a_node4"><a xlink:href="../modules/midasmpi_mod.svg" xlink:title="midasmpi_mod">
<polygon fill="none" stroke="red" points="252,-233 150,-233 150,-197 252,-197 252,-233"/>
<text text-anchor="middle" x="201" y="-211.3" font-family="Times,serif" font-size="14.00">midasmpi_mod</text>
</a>
</g>
</g>
<!-- sqliteUtilities_mod&#45;&gt;midasmpi_mod -->
<g id="edge3" class="edge">
<title>sqliteUtilities_mod&#45;&gt;midasmpi_mod</title>
<path fill="none" stroke="black" d="M219.4,-412.85C215.94,-375.83 207.75,-288.18 203.56,-243.39"/>
<polygon fill="black" stroke="black" points="207.03,-242.86 202.61,-233.23 200.06,-243.51 207.03,-242.86"/>
</g>
<!-- obsspacedata_mod -->
<g id="node5" class="node">
<title>obsspacedata_mod</title>
<g id="a_node5"><a xlink:href="../modules/obsspacedata_mod.svg" xlink:title="obsspacedata_mod">
<polygon fill="none" stroke="red" points="339.5,-161 220.5,-161 220.5,-125 339.5,-125 339.5,-161"/>
<text text-anchor="middle" x="280" y="-139.3" font-family="Times,serif" font-size="14.00">obsspacedata_mod</text>
</a>
</g>
</g>
<!-- sqliteUtilities_mod&#45;&gt;obsspacedata_mod -->
<g id="edge4" class="edge">
<title>sqliteUtilities_mod&#45;&gt;obsspacedata_mod</title>
<path fill="none" stroke="black" d="M224.51,-412.97C234.37,-365.19 262.34,-229.62 274.38,-171.27"/>
<polygon fill="black" stroke="black" points="277.84,-171.81 276.43,-161.31 270.98,-170.39 277.84,-171.81"/>
</g>
<!-- utilities_mod -->
<g id="node6" class="node">
<title>utilities_mod</title>
<g id="a_node6"><a xlink:href="../modules/utilities_mod.svg" xlink:title="utilities_mod">
<polygon fill="none" stroke="red" points="412.5,-89 323.5,-89 323.5,-53 412.5,-53 412.5,-89"/>
<text text-anchor="middle" x="368" y="-67.3" font-family="Times,serif" font-size="14.00">utilities_mod</text>
</a>
</g>
</g>
<!-- sqliteUtilities_mod&#45;&gt;utilities_mod -->
<g id="edge5" class="edge">
<title>sqliteUtilities_mod&#45;&gt;utilities_mod</title>
<path fill="none" stroke="black" d="M260.01,-412.92C303.56,-390.9 368,-348.14 368,-288 368,-288 368,-288 368,-214 368,-174 368,-127.65 368,-99.08"/>
<polygon fill="black" stroke="black" points="371.5,-99.05 368,-89.05 364.5,-99.05 371.5,-99.05"/>
</g>
</g>
</svg>
