<?xml version="1.0" encoding="UTF-8" standalone="no"?>
<!DOCTYPE svg PUBLIC "-//W3C//DTD SVG 1.1//EN"
 "http://www.w3.org/Graphics/SVG/1.1/DTD/svg11.dtd">
<!-- Generated by graphviz version 3.0.0 (20220315.2325)
 -->
<!-- Title: sstBias_mod Pages: 1 -->
<svg width="433pt" height="241pt"
 viewBox="0.00 0.00 433.00 241.00" xmlns="http://www.w3.org/2000/svg" xmlns:xlink="http://www.w3.org/1999/xlink">
<g id="graph0" class="graph" transform="scale(1 1) rotate(0) translate(4 237)">
<title>sstBias_mod</title>
<polygon fill="white" stroke="transparent" points="-4,4 -4,-237 429,-237 429,4 -4,4"/>
<text text-anchor="middle" x="212.5" y="-217.8" font-family="Times,serif" font-size="14.00">Blue boxes indicate modules with reverse dependencies not shown</text>
<text text-anchor="middle" x="212.5" y="-202.8" font-family="Times,serif" font-size="14.00">Higher level reverse dependencies can be shown by clicking on a blue box</text>
<text text-anchor="middle" x="212.5" y="-187.8" font-family="Times,serif" font-size="14.00">Green boxes are programs</text>
<!-- sstBias_mod -->
<g id="node1" class="node">
<title>sstBias_mod</title>
<g id="a_node1"><a xlink:href="sstBias_mod.html" xlink:title="sstBias_mod">
<polygon fill="none" stroke="black" points="263.25,-36 177.25,-36 177.25,0 263.25,0 263.25,-36"/>
<text text-anchor="middle" x="220.25" y="-14.3" font-family="Times,serif" font-size="14.00">sstBias_mod</text>
</a>
</g>
</g>
<!-- midas_midas_obsselection -->
<g id="node2" class="node">
<title>midas_midas_obsselection</title>
<g id="a_node2"><a xlink:href="../programs/midas_obsselection.html" xlink:title="midas_midas_obsselection">
<polygon fill="gray" stroke="green" points="246.75,-108 83.75,-108 83.75,-72 246.75,-72 246.75,-108"/>
<text text-anchor="middle" x="165.25" y="-86.3" font-family="Times,serif" font-size="14.00">midas_midas_obsselection</text>
</a>
</g>
</g>
<!-- midas_midas_obsselection&#45;&gt;sstBias_mod -->
<g id="edge1" class="edge">
<title>midas_midas_obsselection&#45;&gt;sstBias_mod</title>
<path fill="none" stroke="black" d="M183.86,-65.31C191.39,-55.73 199.91,-44.89 206.81,-36.1"/>
<ellipse fill="black" stroke="black" cx="181.32" cy="-68.55" rx="4" ry="4"/>
</g>
<!-- midas_midas_sstbias -->
<g id="node3" class="node">
<title>midas_midas_sstbias</title>
<g id="a_node3"><a xlink:href="../programs/midas_sstbias.html" xlink:title="midas_midas_sstbias">
<polygon fill="gray" stroke="green" points="341.25,-180 209.25,-180 209.25,-144 341.25,-144 341.25,-180"/>
<text text-anchor="middle" x="275.25" y="-158.3" font-family="Times,serif" font-size="14.00">midas_midas_sstbias</text>
</a>
</g>
</g>
<!-- midas_midas_sstbias&#45;&gt;sstBias_mod -->
<g id="edge2" class="edge">
<title>midas_midas_sstbias&#45;&gt;sstBias_mod</title>
<path fill="none" stroke="black" d="M272.44,-135.3C269.81,-117.08 264.94,-92.35 256.25,-72 250.75,-59.11 241.94,-46.07 234.41,-36.15"/>
<ellipse fill="black" stroke="black" cx="273.02" cy="-139.71" rx="4" ry="4"/>
</g>
</g>
</svg>
