<?xml version="1.0" encoding="UTF-8" standalone="no"?>
<!DOCTYPE svg PUBLIC "-//W3C//DTD SVG 1.1//EN"
 "http://www.w3.org/Graphics/SVG/1.1/DTD/svg11.dtd">
<!-- Generated by graphviz version 3.0.0 (20220315.2325)
 -->
<!-- Title: sstBias_mod Pages: 1 -->
<svg width="957pt" height="673pt"
 viewBox="0.00 0.00 956.50 673.00" xmlns="http://www.w3.org/2000/svg" xmlns:xlink="http://www.w3.org/1999/xlink">
<g id="graph0" class="graph" transform="scale(1 1) rotate(0) translate(4 669)">
<title>sstBias_mod</title>
<polygon fill="white" stroke="transparent" points="-4,4 -4,-669 952.5,-669 952.5,4 -4,4"/>
<text text-anchor="middle" x="474.25" y="-37.8" font-family="Times,serif" font-size="14.00">Red boxes indicate modules with dependencies not shown</text>
<text text-anchor="middle" x="474.25" y="-22.8" font-family="Times,serif" font-size="14.00">Lower level dependencies can be shown by clicking on a red box</text>
<text text-anchor="middle" x="474.25" y="-7.8" font-family="Times,serif" font-size="14.00">Shaded boxes indicate modules with no dependencies</text>
<!-- sstBias_mod -->
<g id="node1" class="node">
<title>sstBias_mod</title>
<g id="a_node1"><a xlink:href="sstBias_mod.html" xlink:title="sstBias_mod">
<polygon fill="none" stroke="black" points="491.5,-665 405.5,-665 405.5,-629 491.5,-629 491.5,-665"/>
<text text-anchor="middle" x="448.5" y="-643.3" font-family="Times,serif" font-size="14.00">sstBias_mod</text>
</a>
</g>
</g>
<!-- codeprecision_mod -->
<g id="node2" class="node">
<title>codeprecision_mod</title>
<g id="a_node2"><a xlink:href="codeprecision_mod.html" xlink:title="codeprecision_mod">
<polygon fill="gray" stroke="black" points="123,-593 0,-593 0,-557 123,-557 123,-593"/>
<text text-anchor="middle" x="61.5" y="-571.3" font-family="Times,serif" font-size="14.00">codeprecision_mod</text>
</a>
</g>
</g>
<!-- sstBias_mod&#45;&gt;codeprecision_mod -->
<g id="edge1" class="edge">
<title>sstBias_mod&#45;&gt;codeprecision_mod</title>
<path fill="none" stroke="black" d="M405.36,-639.36C345.19,-629.95 232.75,-611.76 137.5,-593 136.05,-592.71 134.58,-592.42 133.11,-592.12"/>
<polygon fill="black" stroke="black" points="133.75,-588.68 123.25,-590.09 132.33,-595.54 133.75,-588.68"/>
</g>
<!-- codtyp_mod -->
<g id="node3" class="node">
<title>codtyp_mod</title>
<g id="a_node3"><a xlink:href="../modules/codtyp_mod.svg" xlink:title="codtyp_mod">
<polygon fill="none" stroke="red" points="178,-521 93,-521 93,-485 178,-485 178,-521"/>
<text text-anchor="middle" x="135.5" y="-499.3" font-family="Times,serif" font-size="14.00">codtyp_mod</text>
</a>
</g>
</g>
<!-- sstBias_mod&#45;&gt;codtyp_mod -->
<g id="edge2" class="edge">
<title>sstBias_mod&#45;&gt;codtyp_mod</title>
<path fill="none" stroke="black" d="M405.49,-641.18C341.88,-633.37 226.57,-616.44 192.5,-593 170.29,-577.72 154.79,-550.65 145.62,-530.37"/>
<polygon fill="black" stroke="black" points="148.78,-528.85 141.63,-521.04 142.35,-531.61 148.78,-528.85"/>
</g>
<!-- columndata_mod -->
<g id="node4" class="node">
<title>columndata_mod</title>
<g id="a_node4"><a xlink:href="../modules/columndata_mod.svg" xlink:title="columndata_mod">
<polygon fill="none" stroke="red" points="216.5,-449 104.5,-449 104.5,-413 216.5,-413 216.5,-449"/>
<text text-anchor="middle" x="160.5" y="-427.3" font-family="Times,serif" font-size="14.00">columndata_mod</text>
</a>
</g>
</g>
<!-- sstBias_mod&#45;&gt;columndata_mod -->
<g id="edge3" class="edge">
<title>sstBias_mod&#45;&gt;columndata_mod</title>
<path fill="none" stroke="black" d="M405.21,-646.62C357.07,-645.02 279.63,-635.33 230.5,-593 191.23,-559.17 207.7,-532.29 186.5,-485 182.54,-476.17 177.96,-466.64 173.76,-458.13"/>
<polygon fill="black" stroke="black" points="176.83,-456.43 169.23,-449.04 170.56,-459.55 176.83,-456.43"/>
</g>
<!-- gridstatevectorfileio_mod -->
<g id="node5" class="node">
<title>gridstatevectorfileio_mod</title>
<g id="a_node5"><a xlink:href="../modules/gridstatevectorfileio_mod.svg" xlink:title="gridstatevectorfileio_mod">
<polygon fill="none" stroke="red" points="254.5,-377 96.5,-377 96.5,-341 254.5,-341 254.5,-377"/>
<text text-anchor="middle" x="175.5" y="-355.3" font-family="Times,serif" font-size="14.00">gridstatevectorfileio_mod</text>
</a>
</g>
</g>
<!-- sstBias_mod&#45;&gt;gridstatevectorfileio_mod -->
<g id="edge4" class="edge">
<title>sstBias_mod&#45;&gt;gridstatevectorfileio_mod</title>
<path fill="none" stroke="black" d="M405.14,-645.06C364.2,-641.77 303.94,-630.33 268.5,-593 211.87,-533.35 264.6,-485.36 225.5,-413 219.88,-402.6 211.71,-392.74 203.59,-384.4"/>
<polygon fill="black" stroke="black" points="205.82,-381.69 196.23,-377.2 200.93,-386.7 205.82,-381.69"/>
</g>
<!-- gridstatevector_mod -->
<g id="node6" class="node">
<title>gridstatevector_mod</title>
<g id="a_node6"><a xlink:href="../modules/gridstatevector_mod.svg" xlink:title="gridstatevector_mod">
<polygon fill="none" stroke="red" points="292.5,-305 162.5,-305 162.5,-269 292.5,-269 292.5,-305"/>
<text text-anchor="middle" x="227.5" y="-283.3" font-family="Times,serif" font-size="14.00">gridstatevector_mod</text>
</a>
</g>
</g>
<!-- sstBias_mod&#45;&gt;gridstatevector_mod -->
<g id="edge5" class="edge">
<title>sstBias_mod&#45;&gt;gridstatevector_mod</title>
<path fill="none" stroke="black" d="M405.39,-640.53C373.75,-634.29 332.01,-621.02 306.5,-593 278.92,-562.7 282.5,-544.97 282.5,-504 282.5,-504 282.5,-504 282.5,-430 282.5,-389.55 279.38,-378.2 263.5,-341 259.42,-331.43 253.51,-321.78 247.66,-313.39"/>
<polygon fill="black" stroke="black" points="250.38,-311.17 241.66,-305.15 244.72,-315.29 250.38,-311.17"/>
</g>
<!-- horizontalcoord_mod -->
<g id="node7" class="node">
<title>horizontalcoord_mod</title>
<g id="a_node7"><a xlink:href="../modules/horizontalcoord_mod.svg" xlink:title="horizontalcoord_mod">
<polygon fill="none" stroke="red" points="330.5,-233 196.5,-233 196.5,-197 330.5,-197 330.5,-233"/>
<text text-anchor="middle" x="263.5" y="-211.3" font-family="Times,serif" font-size="14.00">horizontalcoord_mod</text>
</a>
</g>
</g>
<!-- sstBias_mod&#45;&gt;horizontalcoord_mod -->
<g id="edge6" class="edge">
<title>sstBias_mod&#45;&gt;horizontalcoord_mod</title>
<path fill="none" stroke="black" d="M405.39,-633.32C384.22,-625.03 360.01,-612.12 344.5,-593 318.69,-561.18 320.5,-544.97 320.5,-504 320.5,-504 320.5,-504 320.5,-358 320.5,-317.55 317.85,-305.99 301.5,-269 297.17,-259.21 290.86,-249.43 284.62,-240.98"/>
<polygon fill="black" stroke="black" points="287.36,-238.8 278.48,-233.03 281.82,-243.08 287.36,-238.8"/>
</g>
<!-- kdtree2_mod -->
<g id="node8" class="node">
<title>kdtree2_mod</title>
<g id="a_node8"><a xlink:href="../modules/kdtree2_mod.svg" xlink:title="kdtree2_mod">
<polygon fill="none" stroke="red" points="368,-161 279,-161 279,-125 368,-125 368,-161"/>
<text text-anchor="middle" x="323.5" y="-139.3" font-family="Times,serif" font-size="14.00">kdtree2_mod</text>
</a>
</g>
</g>
<!-- sstBias_mod&#45;&gt;kdtree2_mod -->
<g id="edge7" class="edge">
<title>sstBias_mod&#45;&gt;kdtree2_mod</title>
<path fill="none" stroke="black" d="M419.58,-628.82C406.5,-619.7 391.91,-607.39 382.5,-593 360.09,-558.7 358.5,-544.97 358.5,-504 358.5,-504 358.5,-504 358.5,-286 358.5,-244.84 344.47,-198.88 334.17,-170.69"/>
<polygon fill="black" stroke="black" points="337.38,-169.28 330.58,-161.15 330.83,-171.74 337.38,-169.28"/>
</g>
<!-- localizationfunction_mod -->
<g id="node9" class="node">
<title>localizationfunction_mod</title>
<g id="a_node9"><a xlink:href="../modules/localizationfunction_mod.svg" xlink:title="localizationfunction_mod">
<polygon fill="none" stroke="red" points="474.5,-89 318.5,-89 318.5,-53 474.5,-53 474.5,-89"/>
<text text-anchor="middle" x="396.5" y="-67.3" font-family="Times,serif" font-size="14.00">localizationfunction_mod</text>
</a>
</g>
</g>
<!-- sstBias_mod&#45;&gt;localizationfunction_mod -->
<g id="edge8" class="edge">
<title>sstBias_mod&#45;&gt;localizationfunction_mod</title>
<path fill="none" stroke="black" d="M435.57,-628.68C428.69,-618.7 420.61,-605.66 415.5,-593 400.36,-555.49 396.5,-544.45 396.5,-504 396.5,-504 396.5,-504 396.5,-214 396.5,-174 396.5,-127.65 396.5,-99.08"/>
<polygon fill="black" stroke="black" points="400,-99.05 396.5,-89.05 393,-99.05 400,-99.05"/>
</g>
<!-- mathphysconstants_mod -->
<g id="node10" class="node">
<title>mathphysconstants_mod</title>
<g id="a_node10"><a xlink:href="mathphysconstants_mod.html" xlink:title="mathphysconstants_mod">
<polygon fill="gray" stroke="black" points="576.5,-593 424.5,-593 424.5,-557 576.5,-557 576.5,-593"/>
<text text-anchor="middle" x="500.5" y="-571.3" font-family="Times,serif" font-size="14.00">mathphysconstants_mod</text>
</a>
</g>
</g>
<!-- sstBias_mod&#45;&gt;mathphysconstants_mod -->
<g id="edge9" class="edge">
<title>sstBias_mod&#45;&gt;mathphysconstants_mod</title>
<path fill="none" stroke="black" d="M461.35,-628.7C467.53,-620.39 475.04,-610.28 481.82,-601.14"/>
<polygon fill="black" stroke="black" points="484.64,-603.22 487.79,-593.1 479.02,-599.04 484.64,-603.22"/>
</g>
<!-- midasmpi_mod -->
<g id="node11" class="node">
<title>midasmpi_mod</title>
<g id="a_node11"><a xlink:href="../modules/midasmpi_mod.svg" xlink:title="midasmpi_mod">
<polygon fill="none" stroke="red" points="614.5,-521 512.5,-521 512.5,-485 614.5,-485 614.5,-521"/>
<text text-anchor="middle" x="563.5" y="-499.3" font-family="Times,serif" font-size="14.00">midasmpi_mod</text>
</a>
</g>
</g>
<!-- sstBias_mod&#45;&gt;midasmpi_mod -->
<g id="edge10" class="edge">
<title>sstBias_mod&#45;&gt;midasmpi_mod</title>
<path fill="none" stroke="black" d="M491.64,-641.95C523.42,-636.45 564.59,-623.5 585.5,-593 598.28,-574.36 590.11,-549.01 580.3,-530.13"/>
<polygon fill="black" stroke="black" points="583.23,-528.2 575.28,-521.18 577.12,-531.62 583.23,-528.2"/>
</g>
<!-- obsspacedata_mod -->
<g id="node12" class="node">
<title>obsspacedata_mod</title>
<g id="a_node12"><a xlink:href="../modules/obsspacedata_mod.svg" xlink:title="obsspacedata_mod">
<polygon fill="none" stroke="red" points="652,-449 533,-449 533,-413 652,-413 652,-449"/>
<text text-anchor="middle" x="592.5" y="-427.3" font-family="Times,serif" font-size="14.00">obsspacedata_mod</text>
</a>
</g>
</g>
<!-- sstBias_mod&#45;&gt;obsspacedata_mod -->
<g id="edge11" class="edge">
<title>sstBias_mod&#45;&gt;obsspacedata_mod</title>
<path fill="none" stroke="black" d="M491.51,-642.17C526.37,-636.81 574.33,-623.93 603.5,-593 636.99,-557.49 636.27,-532.12 623.5,-485 620.92,-475.48 616.16,-465.92 611.12,-457.59"/>
<polygon fill="black" stroke="black" points="614.01,-455.6 605.65,-449.09 608.12,-459.39 614.01,-455.6"/>
</g>
<!-- oceanmask_mod -->
<g id="node13" class="node">
<title>oceanmask_mod</title>
<g id="a_node13"><a xlink:href="../modules/oceanmask_mod.svg" xlink:title="oceanmask_mod">
<polygon fill="none" stroke="red" points="690,-377 581,-377 581,-341 690,-341 690,-377"/>
<text text-anchor="middle" x="635.5" y="-355.3" font-family="Times,serif" font-size="14.00">oceanmask_mod</text>
</a>
</g>
</g>
<!-- sstBias_mod&#45;&gt;oceanmask_mod -->
<g id="edge12" class="edge">
<title>sstBias_mod&#45;&gt;oceanmask_mod</title>
<path fill="none" stroke="black" d="M491.89,-645.33C533.2,-642.27 594.16,-631.01 629.5,-593 684.77,-533.55 678.25,-492.21 660.5,-413 658.49,-404.01 654.77,-394.75 650.8,-386.53"/>
<polygon fill="black" stroke="black" points="653.82,-384.73 646.13,-377.44 647.59,-387.94 653.82,-384.73"/>
</g>
<!-- statetocolumn_mod -->
<g id="node14" class="node">
<title>statetocolumn_mod</title>
<g id="a_node14"><a xlink:href="../modules/statetocolumn_mod.svg" xlink:title="statetocolumn_mod">
<polygon fill="none" stroke="red" points="728,-305 603,-305 603,-269 728,-269 728,-305"/>
<text text-anchor="middle" x="665.5" y="-283.3" font-family="Times,serif" font-size="14.00">statetocolumn_mod</text>
</a>
</g>
</g>
<!-- sstBias_mod&#45;&gt;statetocolumn_mod -->
<g id="edge13" class="edge">
<title>sstBias_mod&#45;&gt;statetocolumn_mod</title>
<path fill="none" stroke="black" d="M491.58,-642.78C567.81,-634.49 718.5,-605.29 718.5,-504 718.5,-504 718.5,-504 718.5,-430 718.5,-389.46 713.88,-378.51 698.5,-341 694.7,-331.72 689.33,-322.22 684.03,-313.88"/>
<polygon fill="black" stroke="black" points="686.82,-311.75 678.38,-305.34 680.98,-315.62 686.82,-311.75"/>
</g>
<!-- timecoord_mod -->
<g id="node15" class="node">
<title>timecoord_mod</title>
<g id="a_node15"><a xlink:href="../modules/timecoord_mod.svg" xlink:title="timecoord_mod">
<polygon fill="none" stroke="red" points="787.5,-233 683.5,-233 683.5,-197 787.5,-197 787.5,-233"/>
<text text-anchor="middle" x="735.5" y="-211.3" font-family="Times,serif" font-size="14.00">timecoord_mod</text>
</a>
</g>
</g>
<!-- sstBias_mod&#45;&gt;timecoord_mod -->
<g id="edge14" class="edge">
<title>sstBias_mod&#45;&gt;timecoord_mod</title>
<path fill="none" stroke="black" d="M491.65,-645.26C576.42,-641.28 756.5,-619.26 756.5,-504 756.5,-504 756.5,-504 756.5,-358 756.5,-317.78 748.15,-271.84 741.99,-243.37"/>
<polygon fill="black" stroke="black" points="745.35,-242.36 739.75,-233.37 738.51,-243.89 745.35,-242.36"/>
</g>
<!-- utilities_mod -->
<g id="node16" class="node">
<title>utilities_mod</title>
<g id="a_node16"><a xlink:href="../modules/utilities_mod.svg" xlink:title="utilities_mod">
<polygon fill="none" stroke="red" points="860,-161 771,-161 771,-125 860,-125 860,-161"/>
<text text-anchor="middle" x="815.5" y="-139.3" font-family="Times,serif" font-size="14.00">utilities_mod</text>
</a>
</g>
</g>
<!-- sstBias_mod&#45;&gt;utilities_mod -->
<g id="edge15" class="edge">
<title>sstBias_mod&#45;&gt;utilities_mod</title>
<path fill="none" stroke="black" d="M491.71,-646.6C550.75,-645.59 658.23,-637.14 736.5,-593 782.57,-567.02 815.5,-556.89 815.5,-504 815.5,-504 815.5,-504 815.5,-286 815.5,-246 815.5,-199.65 815.5,-171.08"/>
<polygon fill="black" stroke="black" points="819,-171.05 815.5,-161.05 812,-171.05 819,-171.05"/>
</g>
<!-- verticalcoord_mod -->
<g id="node17" class="node">
<title>verticalcoord_mod</title>
<g id="a_node17"><a xlink:href="../modules/verticalcoord_mod.svg" xlink:title="verticalcoord_mod">
<polygon fill="none" stroke="red" points="948.5,-89 828.5,-89 828.5,-53 948.5,-53 948.5,-89"/>
<text text-anchor="middle" x="888.5" y="-67.3" font-family="Times,serif" font-size="14.00">verticalcoord_mod</text>
</a>
</g>
</g>
<!-- sstBias_mod&#45;&gt;verticalcoord_mod -->
<g id="edge16" class="edge">
<title>sstBias_mod&#45;&gt;verticalcoord_mod</title>
<path fill="none" stroke="black" d="M491.68,-646.22C557.06,-645.02 683.8,-636.62 780.5,-593 837.2,-567.42 888.5,-566.2 888.5,-504 888.5,-504 888.5,-504 888.5,-214 888.5,-174 888.5,-127.65 888.5,-99.08"/>
<polygon fill="black" stroke="black" points="892,-99.05 888.5,-89.05 885,-99.05 892,-99.05"/>
</g>
</g>
</svg>
