<?xml version="1.0" encoding="UTF-8" standalone="no"?>
<!DOCTYPE svg PUBLIC "-//W3C//DTD SVG 1.1//EN"
 "http://www.w3.org/Graphics/SVG/1.1/DTD/svg11.dtd">
<!-- Generated by graphviz version 3.0.0 (20220315.2325)
 -->
<!-- Title: stateToColumn_mod Pages: 1 -->
<svg width="1213pt" height="673pt"
 viewBox="0.00 0.00 1212.50 673.00" xmlns="http://www.w3.org/2000/svg" xmlns:xlink="http://www.w3.org/1999/xlink">
<g id="graph0" class="graph" transform="scale(1 1) rotate(0) translate(4 669)">
<title>stateToColumn_mod</title>
<polygon fill="white" stroke="transparent" points="-4,4 -4,-669 1208.5,-669 1208.5,4 -4,4"/>
<text text-anchor="middle" x="602.25" y="-37.8" font-family="Times,serif" font-size="14.00">Red boxes indicate modules with dependencies not shown</text>
<text text-anchor="middle" x="602.25" y="-22.8" font-family="Times,serif" font-size="14.00">Lower level dependencies can be shown by clicking on a red box</text>
<text text-anchor="middle" x="602.25" y="-7.8" font-family="Times,serif" font-size="14.00">Shaded boxes indicate modules with no dependencies</text>
<!-- stateToColumn_mod -->
<g id="node1" class="node">
<title>stateToColumn_mod</title>
<g id="a_node1"><a xlink:href="stateToColumn_mod.html" xlink:title="stateToColumn_mod">
<polygon fill="none" stroke="black" points="724.5,-665 593.5,-665 593.5,-629 724.5,-629 724.5,-665"/>
<text text-anchor="middle" x="659" y="-643.3" font-family="Times,serif" font-size="14.00">stateToColumn_mod</text>
</a>
</g>
</g>
<!-- calcheightandpressure_mod -->
<g id="node2" class="node">
<title>calcheightandpressure_mod</title>
<g id="a_node2"><a xlink:href="../modules/calcheightandpressure_mod.svg" xlink:title="calcheightandpressure_mod">
<polygon fill="none" stroke="red" points="168,-593 0,-593 0,-557 168,-557 168,-593"/>
<text text-anchor="middle" x="84" y="-571.3" font-family="Times,serif" font-size="14.00">calcheightandpressure_mod</text>
</a>
</g>
</g>
<!-- stateToColumn_mod&#45;&gt;calcheightandpressure_mod -->
<g id="edge1" class="edge">
<title>stateToColumn_mod&#45;&gt;calcheightandpressure_mod</title>
<path fill="none" stroke="black" d="M593.26,-639.98C501.12,-631.25 328.42,-613.81 182,-593 180.73,-592.82 179.44,-592.63 178.15,-592.45"/>
<polygon fill="black" stroke="black" points="178.55,-588.97 168.14,-590.94 177.51,-595.89 178.55,-588.97"/>
</g>
<!-- codeprecision_mod -->
<g id="node3" class="node">
<title>codeprecision_mod</title>
<g id="a_node3"><a xlink:href="codeprecision_mod.html" xlink:title="codeprecision_mod">
<polygon fill="gray" stroke="black" points="231.5,-521 108.5,-521 108.5,-485 231.5,-485 231.5,-521"/>
<text text-anchor="middle" x="170" y="-499.3" font-family="Times,serif" font-size="14.00">codeprecision_mod</text>
</a>
</g>
</g>
<!-- stateToColumn_mod&#45;&gt;codeprecision_mod -->
<g id="edge2" class="edge">
<title>stateToColumn_mod&#45;&gt;codeprecision_mod</title>
<path fill="none" stroke="black" d="M593.25,-643.29C492.26,-638.18 304.5,-624.64 246,-593 219.22,-578.52 197.76,-550.5 184.56,-529.75"/>
<polygon fill="black" stroke="black" points="187.46,-527.79 179.25,-521.09 181.49,-531.44 187.46,-527.79"/>
</g>
<!-- codtyp_mod -->
<g id="node4" class="node">
<title>codtyp_mod</title>
<g id="a_node4"><a xlink:href="../modules/codtyp_mod.svg" xlink:title="codtyp_mod">
<polygon fill="none" stroke="red" points="269.5,-449 184.5,-449 184.5,-413 269.5,-413 269.5,-449"/>
<text text-anchor="middle" x="227" y="-427.3" font-family="Times,serif" font-size="14.00">codtyp_mod</text>
</a>
</g>
</g>
<!-- stateToColumn_mod&#45;&gt;codtyp_mod -->
<g id="edge3" class="edge">
<title>stateToColumn_mod&#45;&gt;codtyp_mod</title>
<path fill="none" stroke="black" d="M593.16,-644.72C498.45,-641.57 330.06,-630.67 284,-593 273.27,-584.22 247.8,-502.36 234.85,-458.87"/>
<polygon fill="black" stroke="black" points="238.18,-457.8 231.99,-449.2 231.47,-459.79 238.18,-457.8"/>
</g>
<!-- columndata_mod -->
<g id="node5" class="node">
<title>columndata_mod</title>
<g id="a_node5"><a xlink:href="../modules/columndata_mod.svg" xlink:title="columndata_mod">
<polygon fill="none" stroke="red" points="308,-377 196,-377 196,-341 308,-341 308,-377"/>
<text text-anchor="middle" x="252" y="-355.3" font-family="Times,serif" font-size="14.00">columndata_mod</text>
</a>
</g>
</g>
<!-- stateToColumn_mod&#45;&gt;columndata_mod -->
<g id="edge4" class="edge">
<title>stateToColumn_mod&#45;&gt;columndata_mod</title>
<path fill="none" stroke="black" d="M593.18,-644.09C506.5,-640.2 360.53,-628.43 322,-593 261.38,-537.25 306.08,-490.42 278,-413 274.75,-404.04 270.43,-394.59 266.25,-386.2"/>
<polygon fill="black" stroke="black" points="269.33,-384.54 261.65,-377.25 263.11,-387.74 269.33,-384.54"/>
</g>
<!-- earthconstants_mod -->
<g id="node6" class="node">
<title>earthconstants_mod</title>
<g id="a_node6"><a xlink:href="../modules/earthconstants_mod.svg" xlink:title="earthconstants_mod">
<polygon fill="none" stroke="red" points="346,-305 220,-305 220,-269 346,-269 346,-305"/>
<text text-anchor="middle" x="283" y="-283.3" font-family="Times,serif" font-size="14.00">earthconstants_mod</text>
</a>
</g>
</g>
<!-- stateToColumn_mod&#45;&gt;earthconstants_mod -->
<g id="edge5" class="edge">
<title>stateToColumn_mod&#45;&gt;earthconstants_mod</title>
<path fill="none" stroke="black" d="M593.33,-642.44C515.84,-636.9 393.29,-623.48 360,-593 329.79,-565.33 336,-544.97 336,-504 336,-504 336,-504 336,-430 336,-389.55 332.39,-378.4 317,-341 313.11,-331.55 307.52,-321.93 302,-313.52"/>
<polygon fill="black" stroke="black" points="304.88,-311.54 296.34,-305.27 299.11,-315.49 304.88,-311.54"/>
</g>
<!-- getgridposition_mod -->
<g id="node7" class="node">
<title>getgridposition_mod</title>
<g id="a_node7"><a xlink:href="../modules/getgridposition_mod.svg" xlink:title="getgridposition_mod">
<polygon fill="none" stroke="red" points="383.5,-233 252.5,-233 252.5,-197 383.5,-197 383.5,-233"/>
<text text-anchor="middle" x="318" y="-211.3" font-family="Times,serif" font-size="14.00">getgridposition_mod</text>
</a>
</g>
</g>
<!-- stateToColumn_mod&#45;&gt;getgridposition_mod -->
<g id="edge6" class="edge">
<title>stateToColumn_mod&#45;&gt;getgridposition_mod</title>
<path fill="none" stroke="black" d="M593.43,-640.5C525.59,-633.49 425.73,-619.03 398,-593 368.13,-564.96 374,-544.97 374,-504 374,-504 374,-504 374,-358 374,-317.55 371.12,-306.1 355,-269 350.82,-259.38 344.75,-249.71 338.74,-241.32"/>
<polygon fill="black" stroke="black" points="341.37,-238.99 332.57,-233.09 335.77,-243.19 341.37,-238.99"/>
</g>
<!-- gridstatevector_mod -->
<g id="node8" class="node">
<title>gridstatevector_mod</title>
<g id="a_node8"><a xlink:href="../modules/gridstatevector_mod.svg" xlink:title="gridstatevector_mod">
<polygon fill="none" stroke="red" points="422,-161 292,-161 292,-125 422,-125 422,-161"/>
<text text-anchor="middle" x="357" y="-139.3" font-family="Times,serif" font-size="14.00">gridstatevector_mod</text>
</a>
</g>
</g>
<!-- stateToColumn_mod&#45;&gt;gridstatevector_mod -->
<g id="edge7" class="edge">
<title>stateToColumn_mod&#45;&gt;gridstatevector_mod</title>
<path fill="none" stroke="black" d="M593.42,-637.91C535.96,-629.52 458.24,-614.58 436,-593 406.6,-564.47 412,-544.97 412,-504 412,-504 412,-504 412,-286 412,-245.46 407.88,-234.3 392,-197 387.96,-187.51 382.2,-177.88 376.52,-169.48"/>
<polygon fill="black" stroke="black" points="379.33,-167.39 370.7,-161.23 373.6,-171.42 379.33,-167.39"/>
</g>
<!-- gridvariabletransforms_mod -->
<g id="node9" class="node">
<title>gridvariabletransforms_mod</title>
<g id="a_node9"><a xlink:href="../modules/gridvariabletransforms_mod.svg" xlink:title="gridvariabletransforms_mod">
<polygon fill="none" stroke="red" points="537.5,-89 362.5,-89 362.5,-53 537.5,-53 537.5,-89"/>
<text text-anchor="middle" x="450" y="-67.3" font-family="Times,serif" font-size="14.00">gridvariabletransforms_mod</text>
</a>
</g>
</g>
<!-- stateToColumn_mod&#45;&gt;gridvariabletransforms_mod -->
<g id="edge8" class="edge">
<title>stateToColumn_mod&#45;&gt;gridvariabletransforms_mod</title>
<path fill="none" stroke="black" d="M593.47,-644.3C552.15,-639.68 500.78,-626.81 469,-593 441.3,-563.53 450,-544.45 450,-504 450,-504 450,-504 450,-214 450,-174 450,-127.65 450,-99.08"/>
<polygon fill="black" stroke="black" points="453.5,-99.05 450,-89.05 446.5,-99.05 453.5,-99.05"/>
</g>
<!-- horizontalcoord_mod -->
<g id="node10" class="node">
<title>horizontalcoord_mod</title>
<g id="a_node10"><a xlink:href="../modules/horizontalcoord_mod.svg" xlink:title="horizontalcoord_mod">
<polygon fill="none" stroke="red" points="612,-593 478,-593 478,-557 612,-557 612,-593"/>
<text text-anchor="middle" x="545" y="-571.3" font-family="Times,serif" font-size="14.00">horizontalcoord_mod</text>
</a>
</g>
</g>
<!-- stateToColumn_mod&#45;&gt;horizontalcoord_mod -->
<g id="edge9" class="edge">
<title>stateToColumn_mod&#45;&gt;horizontalcoord_mod</title>
<path fill="none" stroke="black" d="M631.11,-628.88C616.21,-619.72 597.67,-608.34 581.62,-598.48"/>
<polygon fill="black" stroke="black" points="583.35,-595.44 572.99,-593.19 579.69,-601.41 583.35,-595.44"/>
</g>
<!-- humiditylimits_mod -->
<g id="node11" class="node">
<title>humiditylimits_mod</title>
<g id="a_node11"><a xlink:href="../modules/humiditylimits_mod.svg" xlink:title="humiditylimits_mod">
<polygon fill="none" stroke="red" points="649.5,-521 520.5,-521 520.5,-485 649.5,-485 649.5,-521"/>
<text text-anchor="middle" x="585" y="-499.3" font-family="Times,serif" font-size="14.00">humiditylimits_mod</text>
</a>
</g>
</g>
<!-- stateToColumn_mod&#45;&gt;humiditylimits_mod -->
<g id="edge10" class="edge">
<title>stateToColumn_mod&#45;&gt;humiditylimits_mod</title>
<path fill="none" stroke="black" d="M652.8,-628.81C645.95,-610.54 634.13,-581.03 621,-557 615.93,-547.73 609.67,-538.04 603.79,-529.52"/>
<polygon fill="black" stroke="black" points="606.5,-527.29 597.88,-521.13 600.78,-531.32 606.5,-527.29"/>
</g>
<!-- kdtree2_mod -->
<g id="node12" class="node">
<title>kdtree2_mod</title>
<g id="a_node12"><a xlink:href="../modules/kdtree2_mod.svg" xlink:title="kdtree2_mod">
<polygon fill="none" stroke="red" points="687.5,-449 598.5,-449 598.5,-413 687.5,-413 687.5,-449"/>
<text text-anchor="middle" x="643" y="-427.3" font-family="Times,serif" font-size="14.00">kdtree2_mod</text>
</a>
</g>
</g>
<!-- stateToColumn_mod&#45;&gt;kdtree2_mod -->
<g id="edge11" class="edge">
<title>stateToColumn_mod&#45;&gt;kdtree2_mod</title>
<path fill="none" stroke="black" d="M660.39,-628.97C662.46,-599.47 665.39,-537.03 658,-485 656.79,-476.48 654.58,-467.4 652.22,-459.21"/>
<polygon fill="black" stroke="black" points="655.49,-457.94 649.21,-449.41 648.8,-460 655.49,-457.94"/>
</g>
<!-- mathphysconstants_mod -->
<g id="node13" class="node">
<title>mathphysconstants_mod</title>
<g id="a_node13"><a xlink:href="mathphysconstants_mod.html" xlink:title="mathphysconstants_mod">
<polygon fill="gray" stroke="black" points="726,-377 574,-377 574,-341 726,-341 726,-377"/>
<text text-anchor="middle" x="650" y="-355.3" font-family="Times,serif" font-size="14.00">mathphysconstants_mod</text>
</a>
</g>
</g>
<!-- stateToColumn_mod&#45;&gt;mathphysconstants_mod -->
<g id="edge12" class="edge">
<title>stateToColumn_mod&#45;&gt;mathphysconstants_mod</title>
<path fill="none" stroke="black" d="M667.51,-628.74C685.76,-589.28 724.73,-489.93 696,-413 692.12,-402.62 685.2,-392.93 677.88,-384.74"/>
<polygon fill="black" stroke="black" points="680.27,-382.18 670.82,-377.38 675.22,-387.03 680.27,-382.18"/>
</g>
<!-- midasmpi_mod -->
<g id="node14" class="node">
<title>midasmpi_mod</title>
<g id="a_node14"><a xlink:href="../modules/midasmpi_mod.svg" xlink:title="midasmpi_mod">
<polygon fill="none" stroke="red" points="764,-305 662,-305 662,-269 764,-269 764,-305"/>
<text text-anchor="middle" x="713" y="-283.3" font-family="Times,serif" font-size="14.00">midasmpi_mod</text>
</a>
</g>
</g>
<!-- stateToColumn_mod&#45;&gt;midasmpi_mod -->
<g id="edge13" class="edge">
<title>stateToColumn_mod&#45;&gt;midasmpi_mod</title>
<path fill="none" stroke="black" d="M680.56,-628.78C708.59,-604.28 754,-556.5 754,-504 754,-504 754,-504 754,-430 754,-388.41 737.56,-342.56 725.5,-314.51"/>
<polygon fill="black" stroke="black" points="728.55,-312.75 721.3,-305.03 722.15,-315.59 728.55,-312.75"/>
</g>
<!-- obsspacedata_mod -->
<g id="node15" class="node">
<title>obsspacedata_mod</title>
<g id="a_node15"><a xlink:href="../modules/obsspacedata_mod.svg" xlink:title="obsspacedata_mod">
<polygon fill="none" stroke="red" points="801.5,-233 682.5,-233 682.5,-197 801.5,-197 801.5,-233"/>
<text text-anchor="middle" x="742" y="-211.3" font-family="Times,serif" font-size="14.00">obsspacedata_mod</text>
</a>
</g>
</g>
<!-- stateToColumn_mod&#45;&gt;obsspacedata_mod -->
<g id="edge14" class="edge">
<title>stateToColumn_mod&#45;&gt;obsspacedata_mod</title>
<path fill="none" stroke="black" d="M692.56,-628.93C731.96,-606.23 792,-562.1 792,-504 792,-504 792,-504 792,-358 792,-317.55 787.62,-306.71 773,-269 769.44,-259.8 764.4,-250.33 759.42,-241.98"/>
<polygon fill="black" stroke="black" points="762.36,-240.08 754.11,-233.43 756.41,-243.77 762.36,-240.08"/>
</g>
<!-- obstimeinterp_mod -->
<g id="node16" class="node">
<title>obstimeinterp_mod</title>
<g id="a_node16"><a xlink:href="../modules/obstimeinterp_mod.svg" xlink:title="obstimeinterp_mod">
<polygon fill="none" stroke="red" points="840,-161 716,-161 716,-125 840,-125 840,-161"/>
<text text-anchor="middle" x="778" y="-139.3" font-family="Times,serif" font-size="14.00">obstimeinterp_mod</text>
</a>
</g>
</g>
<!-- stateToColumn_mod&#45;&gt;obstimeinterp_mod -->
<g id="edge15" class="edge">
<title>stateToColumn_mod&#45;&gt;obstimeinterp_mod</title>
<path fill="none" stroke="black" d="M708.92,-628.87C759.39,-608.01 830,-567.48 830,-504 830,-504 830,-504 830,-286 830,-245.46 825.12,-234.62 810,-197 806.29,-187.77 801.08,-178.29 795.94,-169.94"/>
<polygon fill="black" stroke="black" points="798.81,-167.93 790.47,-161.4 792.92,-171.71 798.81,-167.93"/>
</g>
<!-- slantprofilelatlon_mod -->
<g id="node17" class="node">
<title>slantprofilelatlon_mod</title>
<g id="a_node17"><a xlink:href="../modules/slantprofilelatlon_mod.svg" xlink:title="slantprofilelatlon_mod">
<polygon fill="none" stroke="red" points="938,-89 798,-89 798,-53 938,-53 938,-89"/>
<text text-anchor="middle" x="868" y="-67.3" font-family="Times,serif" font-size="14.00">slantprofilelatlon_mod</text>
</a>
</g>
</g>
<!-- stateToColumn_mod&#45;&gt;slantprofilelatlon_mod -->
<g id="edge16" class="edge">
<title>stateToColumn_mod&#45;&gt;slantprofilelatlon_mod</title>
<path fill="none" stroke="black" d="M724.56,-630.85C785.85,-612.35 868,-574.41 868,-504 868,-504 868,-504 868,-214 868,-174 868,-127.65 868,-99.08"/>
<polygon fill="black" stroke="black" points="871.5,-99.05 868,-89.05 864.5,-99.05 871.5,-99.05"/>
</g>
<!-- tovsnl_mod -->
<g id="node18" class="node">
<title>tovsnl_mod</title>
<g id="a_node18"><a xlink:href="../modules/tovsnl_mod.svg" xlink:title="tovsnl_mod">
<polygon fill="none" stroke="red" points="977.5,-593 896.5,-593 896.5,-557 977.5,-557 977.5,-593"/>
<text text-anchor="middle" x="937" y="-571.3" font-family="Times,serif" font-size="14.00">tovsnl_mod</text>
</a>
</g>
</g>
<!-- stateToColumn_mod&#45;&gt;tovsnl_mod -->
<g id="edge17" class="edge">
<title>stateToColumn_mod&#45;&gt;tovsnl_mod</title>
<path fill="none" stroke="black" d="M724.67,-631.6C769.24,-621.53 829.41,-607.36 882,-593 883.45,-592.61 884.91,-592.2 886.39,-591.78"/>
<polygon fill="black" stroke="black" points="887.61,-595.07 896.24,-588.93 885.66,-588.35 887.61,-595.07"/>
</g>
<!-- utilities_mod -->
<g id="node19" class="node">
<title>utilities_mod</title>
<g id="a_node19"><a xlink:href="../modules/utilities_mod.svg" xlink:title="utilities_mod">
<polygon fill="none" stroke="red" points="1032.5,-521 943.5,-521 943.5,-485 1032.5,-485 1032.5,-521"/>
<text text-anchor="middle" x="988" y="-499.3" font-family="Times,serif" font-size="14.00">utilities_mod</text>
</a>
</g>
</g>
<!-- stateToColumn_mod&#45;&gt;utilities_mod -->
<g id="edge18" class="edge">
<title>stateToColumn_mod&#45;&gt;utilities_mod</title>
<path fill="none" stroke="black" d="M724.74,-644.9C810.27,-641.94 952.72,-631.23 986,-593 1000.54,-576.3 999.43,-550.42 995.64,-530.87"/>
<polygon fill="black" stroke="black" points="999.03,-530 993.41,-521.02 992.2,-531.55 999.03,-530"/>
</g>
<!-- varnamelist_mod -->
<g id="node20" class="node">
<title>varnamelist_mod</title>
<g id="a_node20"><a xlink:href="../modules/varnamelist_mod.svg" xlink:title="varnamelist_mod">
<polygon fill="none" stroke="red" points="1117.5,-449 1004.5,-449 1004.5,-413 1117.5,-413 1117.5,-449"/>
<text text-anchor="middle" x="1061" y="-427.3" font-family="Times,serif" font-size="14.00">varnamelist_mod</text>
</a>
</g>
</g>
<!-- stateToColumn_mod&#45;&gt;varnamelist_mod -->
<g id="edge19" class="edge">
<title>stateToColumn_mod&#45;&gt;varnamelist_mod</title>
<path fill="none" stroke="black" d="M724.83,-643.25C813.03,-638.35 963.51,-625.41 1007,-593 1048.96,-561.74 1058.69,-496.44 1060.72,-459.32"/>
<polygon fill="black" stroke="black" points="1064.22,-459.35 1061.12,-449.22 1057.22,-459.07 1064.22,-459.35"/>
</g>
<!-- windrotation_mod -->
<g id="node21" class="node">
<title>windrotation_mod</title>
<g id="a_node21"><a xlink:href="../modules/windrotation_mod.svg" xlink:title="windrotation_mod">
<polygon fill="none" stroke="red" points="1204.5,-377 1087.5,-377 1087.5,-341 1204.5,-341 1204.5,-377"/>
<text text-anchor="middle" x="1146" y="-355.3" font-family="Times,serif" font-size="14.00">windrotation_mod</text>
</a>
</g>
</g>
<!-- stateToColumn_mod&#45;&gt;windrotation_mod -->
<g id="edge20" class="edge">
<title>stateToColumn_mod&#45;&gt;windrotation_mod</title>
<path fill="none" stroke="black" d="M724.59,-643.39C818.61,-638.55 985.9,-625.53 1036,-593 1108.33,-546.03 1134.1,-437.67 1142.42,-387.01"/>
<polygon fill="black" stroke="black" points="1145.88,-387.54 1143.94,-377.12 1138.96,-386.47 1145.88,-387.54"/>
</g>
</g>
</svg>
