<?xml version="1.0" encoding="UTF-8" standalone="no"?>
<!DOCTYPE svg PUBLIC "-//W3C//DTD SVG 1.1//EN"
 "http://www.w3.org/Graphics/SVG/1.1/DTD/svg11.dtd">
<!-- Generated by graphviz version 3.0.0 (20220315.2325)
 -->
<!-- Title: stateToColumn_mod Pages: 1 -->
<svg width="960pt" height="673pt"
 viewBox="0.00 0.00 960.00 673.00" xmlns="http://www.w3.org/2000/svg" xmlns:xlink="http://www.w3.org/1999/xlink">
<g id="graph0" class="graph" transform="scale(1 1) rotate(0) translate(4 669)">
<title>stateToColumn_mod</title>
<polygon fill="white" stroke="transparent" points="-4,4 -4,-669 956,-669 956,4 -4,4"/>
<text text-anchor="middle" x="476" y="-649.8" font-family="Times,serif" font-size="14.00">Blue boxes indicate modules with reverse dependencies not shown</text>
<text text-anchor="middle" x="476" y="-634.8" font-family="Times,serif" font-size="14.00">Higher level reverse dependencies can be shown by clicking on a blue box</text>
<text text-anchor="middle" x="476" y="-619.8" font-family="Times,serif" font-size="14.00">Green boxes are programs</text>
<!-- stateToColumn_mod -->
<g id="node1" class="node">
<title>stateToColumn_mod</title>
<g id="a_node1"><a xlink:href="stateToColumn_mod.html" xlink:title="stateToColumn_mod">
<polygon fill="none" stroke="black" points="516,-36 385,-36 385,0 516,0 516,-36"/>
<text text-anchor="middle" x="450.5" y="-14.3" font-family="Times,serif" font-size="14.00">stateToColumn_mod</text>
</a>
</g>
</g>
<!-- analysiserroroi_mod -->
<g id="node2" class="node">
<title>analysiserroroi_mod</title>
<g id="a_node2"><a xlink:href="../modules/analysiserroroi_mod_rev.svg" xlink:title="analysiserroroi_mod">
<polygon fill="none" stroke="blue" points="129,-108 0,-108 0,-72 129,-72 129,-108"/>
<text text-anchor="middle" x="64.5" y="-86.3" font-family="Times,serif" font-size="14.00">analysiserroroi_mod</text>
</a>
</g>
</g>
<!-- analysiserroroi_mod&#45;&gt;stateToColumn_mod -->
<g id="edge1" class="edge">
<title>analysiserroroi_mod&#45;&gt;stateToColumn_mod</title>
<path fill="none" stroke="black" d="M137.28,-73.22C139.37,-72.81 141.45,-72.4 143.5,-72 226.47,-55.92 322.52,-39.72 384.78,-29.54"/>
<ellipse fill="black" stroke="black" cx="133.05" cy="-74.08" rx="4" ry="4"/>
</g>
<!-- bgckocean_mod -->
<g id="node3" class="node">
<title>bgckocean_mod</title>
<g id="a_node3"><a xlink:href="../modules/bgckocean_mod_rev.svg" xlink:title="bgckocean_mod">
<polygon fill="none" stroke="blue" points="188.5,-180 82.5,-180 82.5,-144 188.5,-144 188.5,-180"/>
<text text-anchor="middle" x="135.5" y="-158.3" font-family="Times,serif" font-size="14.00">bgckocean_mod</text>
</a>
</g>
</g>
<!-- bgckocean_mod&#45;&gt;stateToColumn_mod -->
<g id="edge2" class="edge">
<title>bgckocean_mod&#45;&gt;stateToColumn_mod</title>
<path fill="none" stroke="black" d="M147.35,-136.82C158.67,-116.34 177.67,-87.85 202.5,-72 257.52,-36.89 331.99,-24.67 384.92,-20.6"/>
<ellipse fill="black" stroke="black" cx="145.42" cy="-140.44" rx="4" ry="4"/>
</g>
<!-- biascorrectionsat_mod -->
<g id="node4" class="node">
<title>biascorrectionsat_mod</title>
<g id="a_node4"><a xlink:href="../modules/biascorrectionsat_mod_rev.svg" xlink:title="biascorrectionsat_mod">
<polygon fill="none" stroke="blue" points="226.5,-252 86.5,-252 86.5,-216 226.5,-216 226.5,-252"/>
<text text-anchor="middle" x="156.5" y="-230.3" font-family="Times,serif" font-size="14.00">biascorrectionsat_mod</text>
</a>
</g>
</g>
<!-- biascorrectionsat_mod&#45;&gt;stateToColumn_mod -->
<g id="edge3" class="edge">
<title>biascorrectionsat_mod&#45;&gt;stateToColumn_mod</title>
<path fill="none" stroke="black" d="M177.11,-209.31C184.15,-200.48 191.71,-190.14 197.5,-180 223.11,-135.13 201.64,-106.05 240.5,-72 280.09,-37.31 339.19,-24.71 384.61,-20.41"/>
<ellipse fill="black" stroke="black" cx="174.39" cy="-212.63" rx="4" ry="4"/>
</g>
<!-- bmatrix1dvar_mod -->
<g id="node5" class="node">
<title>bmatrix1dvar_mod</title>
<g id="a_node5"><a xlink:href="../modules/bmatrix1dvar_mod_rev.svg" xlink:title="bmatrix1dvar_mod">
<polygon fill="none" stroke="blue" points="264.5,-324 142.5,-324 142.5,-288 264.5,-288 264.5,-324"/>
<text text-anchor="middle" x="203.5" y="-302.3" font-family="Times,serif" font-size="14.00">bmatrix1dvar_mod</text>
</a>
</g>
</g>
<!-- bmatrix1dvar_mod&#45;&gt;stateToColumn_mod -->
<g id="edge4" class="edge">
<title>bmatrix1dvar_mod&#45;&gt;stateToColumn_mod</title>
<path fill="none" stroke="black" d="M220.39,-280.61C225.83,-271.89 231.49,-261.79 235.5,-252 266.68,-175.89 222.24,-132 278.5,-72 305.75,-42.94 348.52,-29.68 384.59,-23.69"/>
<ellipse fill="black" stroke="black" cx="218.07" cy="-284.21" rx="4" ry="4"/>
</g>
<!-- fsoi_mod -->
<g id="node6" class="node">
<title>fsoi_mod</title>
<g id="a_node6"><a xlink:href="../modules/fsoi_mod_rev.svg" xlink:title="fsoi_mod">
<polygon fill="none" stroke="blue" points="302.5,-396 234.5,-396 234.5,-360 302.5,-360 302.5,-396"/>
<text text-anchor="middle" x="268.5" y="-374.3" font-family="Times,serif" font-size="14.00">fsoi_mod</text>
</a>
</g>
</g>
<!-- fsoi_mod&#45;&gt;stateToColumn_mod -->
<g id="edge5" class="edge">
<title>fsoi_mod&#45;&gt;stateToColumn_mod</title>
<path fill="none" stroke="black" d="M275.36,-351.9C282.45,-323.69 292.5,-276.42 292.5,-235 292.5,-235 292.5,-235 292.5,-161 292.5,-120.03 289.22,-102.56 316.5,-72 334.24,-52.12 360.42,-39.61 384.93,-31.78"/>
<ellipse fill="black" stroke="black" cx="274.35" cy="-355.8" rx="4" ry="4"/>
</g>
<!-- innovation_mod -->
<g id="node7" class="node">
<title>innovation_mod</title>
<g id="a_node7"><a xlink:href="../modules/innovation_mod_rev.svg" xlink:title="innovation_mod">
<polygon fill="none" stroke="blue" points="340.5,-468 234.5,-468 234.5,-432 340.5,-432 340.5,-468"/>
<text text-anchor="middle" x="287.5" y="-446.3" font-family="Times,serif" font-size="14.00">innovation_mod</text>
</a>
</g>
</g>
<!-- innovation_mod&#45;&gt;stateToColumn_mod -->
<g id="edge6" class="edge">
<title>innovation_mod&#45;&gt;stateToColumn_mod</title>
<path fill="none" stroke="black" d="M299.83,-424.26C312.54,-396.46 330.5,-349.62 330.5,-307 330.5,-307 330.5,-307 330.5,-161 330.5,-120.03 329.22,-104.24 354.5,-72 366.83,-56.27 385.2,-44.53 402.57,-36.15"/>
<ellipse fill="black" stroke="black" cx="298.11" cy="-427.96" rx="4" ry="4"/>
</g>
<!-- minimization_mod -->
<g id="node8" class="node">
<title>minimization_mod</title>
<g id="a_node8"><a xlink:href="../modules/minimization_mod_rev.svg" xlink:title="minimization_mod">
<polygon fill="none" stroke="blue" points="378.5,-540 256.5,-540 256.5,-504 378.5,-504 378.5,-540"/>
<text text-anchor="middle" x="317.5" y="-518.3" font-family="Times,serif" font-size="14.00">minimization_mod</text>
</a>
</g>
</g>
<!-- minimization_mod&#45;&gt;stateToColumn_mod -->
<g id="edge7" class="edge">
<title>minimization_mod&#45;&gt;stateToColumn_mod</title>
<path fill="none" stroke="black" d="M334.52,-496.66C339.98,-487.95 345.61,-477.84 349.5,-468 364.38,-430.39 368.5,-419.45 368.5,-379 368.5,-379 368.5,-379 368.5,-161 368.5,-120.03 371.19,-106.99 392.5,-72 401.01,-58.02 414.29,-45.5 425.99,-36.14"/>
<ellipse fill="black" stroke="black" cx="332.19" cy="-500.26" rx="4" ry="4"/>
</g>
<!-- obserrors_mod -->
<g id="node9" class="node">
<title>obserrors_mod</title>
<g id="a_node9"><a xlink:href="../modules/obserrors_mod_rev.svg" xlink:title="obserrors_mod">
<polygon fill="none" stroke="blue" points="456,-612 357,-612 357,-576 456,-576 456,-612"/>
<text text-anchor="middle" x="406.5" y="-590.3" font-family="Times,serif" font-size="14.00">obserrors_mod</text>
</a>
</g>
</g>
<!-- obserrors_mod&#45;&gt;stateToColumn_mod -->
<g id="edge8" class="edge">
<title>obserrors_mod&#45;&gt;stateToColumn_mod</title>
<path fill="none" stroke="black" d="M406.5,-567.78C406.5,-539.39 406.5,-491.89 406.5,-451 406.5,-451 406.5,-451 406.5,-161 406.5,-120.55 412.56,-110.32 425.5,-72 429.66,-59.66 435.91,-46.41 441.12,-36.25"/>
<ellipse fill="black" stroke="black" cx="406.5" cy="-571.95" rx="4" ry="4"/>
</g>
<!-- obsspacediag_mod -->
<g id="node10" class="node">
<title>obsspacediag_mod</title>
<g id="a_node10"><a xlink:href="../modules/obsspacediag_mod_rev.svg" xlink:title="obsspacediag_mod">
<polygon fill="none" stroke="blue" points="554.5,-108 434.5,-108 434.5,-72 554.5,-72 554.5,-108"/>
<text text-anchor="middle" x="494.5" y="-86.3" font-family="Times,serif" font-size="14.00">obsspacediag_mod</text>
</a>
</g>
</g>
<!-- obsspacediag_mod&#45;&gt;stateToColumn_mod -->
<g id="edge9" class="edge">
<title>obsspacediag_mod&#45;&gt;stateToColumn_mod</title>
<path fill="none" stroke="black" d="M479.26,-64.76C473.33,-55.32 466.67,-44.72 461.25,-36.1"/>
<ellipse fill="black" stroke="black" cx="481.49" cy="-68.31" rx="4" ry="4"/>
</g>
<!-- obsspaceerrorstddev_mod -->
<g id="node11" class="node">
<title>obsspaceerrorstddev_mod</title>
<g id="a_node11"><a xlink:href="../modules/obsspaceerrorstddev_mod_rev.svg" xlink:title="obsspaceerrorstddev_mod">
<polygon fill="none" stroke="blue" points="593,-180 434,-180 434,-144 593,-144 593,-180"/>
<text text-anchor="middle" x="513.5" y="-158.3" font-family="Times,serif" font-size="14.00">obsspaceerrorstddev_mod</text>
</a>
</g>
</g>
<!-- obsspaceerrorstddev_mod&#45;&gt;stateToColumn_mod -->
<g id="edge10" class="edge">
<title>obsspaceerrorstddev_mod&#45;&gt;stateToColumn_mod</title>
<path fill="none" stroke="black" d="M540.78,-138.09C559.05,-119.87 577.42,-93.91 563.5,-72 552.63,-54.9 534.63,-43.22 516.15,-35.28"/>
<ellipse fill="black" stroke="black" cx="537.53" cy="-141.19" rx="4" ry="4"/>
</g>
<!-- ominusf_mod -->
<g id="node12" class="node">
<title>ominusf_mod</title>
<g id="a_node12"><a xlink:href="../modules/ominusf_mod_rev.svg" xlink:title="ominusf_mod">
<polygon fill="none" stroke="blue" points="630,-252 537,-252 537,-216 630,-216 630,-252"/>
<text text-anchor="middle" x="583.5" y="-230.3" font-family="Times,serif" font-size="14.00">ominusf_mod</text>
</a>
</g>
</g>
<!-- ominusf_mod&#45;&gt;stateToColumn_mod -->
<g id="edge11" class="edge">
<title>ominusf_mod&#45;&gt;stateToColumn_mod</title>
<path fill="none" stroke="black" d="M593.83,-208.09C596.95,-199.36 599.95,-189.4 601.5,-180 609.47,-131.75 613.25,-108.32 580.5,-72 563.69,-53.36 539.36,-41.13 516.29,-33.19"/>
<ellipse fill="black" stroke="black" cx="592.38" cy="-211.96" rx="4" ry="4"/>
</g>
<!-- sstbias_mod -->
<g id="node13" class="node">
<title>sstbias_mod</title>
<g id="a_node13"><a xlink:href="../modules/sstbias_mod_rev.svg" xlink:title="sstbias_mod">
<polygon fill="none" stroke="blue" points="668.5,-324 584.5,-324 584.5,-288 668.5,-288 668.5,-324"/>
<text text-anchor="middle" x="626.5" y="-302.3" font-family="Times,serif" font-size="14.00">sstbias_mod</text>
</a>
</g>
</g>
<!-- sstbias_mod&#45;&gt;stateToColumn_mod -->
<g id="edge12" class="edge">
<title>sstbias_mod&#45;&gt;stateToColumn_mod</title>
<path fill="none" stroke="black" d="M633.36,-279.99C635.45,-271.21 637.47,-261.24 638.5,-252 647.53,-171.25 660.75,-132.5 606.5,-72 583.49,-46.34 547.58,-33.09 516.01,-26.26"/>
<ellipse fill="black" stroke="black" cx="632.34" cy="-284.1" rx="4" ry="4"/>
</g>
<!-- midas_midas_diaghbht -->
<g id="node14" class="node">
<title>midas_midas_diaghbht</title>
<g id="a_node14"><a xlink:href="../programs/midas_diaghbht.html" xlink:title="midas_midas_diaghbht">
<polygon fill="gray" stroke="green" points="706,-396 563,-396 563,-360 706,-360 706,-396"/>
<text text-anchor="middle" x="634.5" y="-374.3" font-family="Times,serif" font-size="14.00">midas_midas_diaghbht</text>
</a>
</g>
</g>
<!-- midas_midas_diaghbht&#45;&gt;stateToColumn_mod -->
<g id="edge13" class="edge">
<title>midas_midas_diaghbht&#45;&gt;stateToColumn_mod</title>
<path fill="none" stroke="black" d="M657.3,-353.79C664.74,-345.07 672.4,-334.67 677.5,-324 694.95,-287.51 696.5,-275.45 696.5,-235 696.5,-235 696.5,-235 696.5,-161 696.5,-77.54 588.97,-42.37 516.1,-28.11"/>
<ellipse fill="black" stroke="black" cx="654.6" cy="-356.84" rx="4" ry="4"/>
</g>
<!-- midas_midas_ensembleh -->
<g id="node15" class="node">
<title>midas_midas_ensembleh</title>
<g id="a_node15"><a xlink:href="../programs/midas_ensembleh.html" xlink:title="midas_midas_ensembleh">
<polygon fill="gray" stroke="green" points="778,-468 623,-468 623,-432 778,-432 778,-468"/>
<text text-anchor="middle" x="700.5" y="-446.3" font-family="Times,serif" font-size="14.00">midas_midas_ensembleh</text>
</a>
</g>
</g>
<!-- midas_midas_ensembleh&#45;&gt;stateToColumn_mod -->
<g id="edge14" class="edge">
<title>midas_midas_ensembleh&#45;&gt;stateToColumn_mod</title>
<path fill="none" stroke="black" d="M710.22,-424.11C720.26,-396.09 734.5,-348.99 734.5,-307 734.5,-307 734.5,-307 734.5,-161 734.5,-63.84 599.88,-33.16 516.01,-23.47"/>
<ellipse fill="black" stroke="black" cx="708.76" cy="-428.07" rx="4" ry="4"/>
</g>
<!-- midas_midas_letkf -->
<g id="node16" class="node">
<title>midas_midas_letkf</title>
<g id="a_node16"><a xlink:href="../programs/midas_letkf.html" xlink:title="midas_midas_letkf">
<polygon fill="gray" stroke="green" points="867.5,-540 745.5,-540 745.5,-504 867.5,-504 867.5,-540"/>
<text text-anchor="middle" x="806.5" y="-518.3" font-family="Times,serif" font-size="14.00">midas_midas_letkf</text>
</a>
</g>
</g>
<!-- midas_midas_letkf&#45;&gt;stateToColumn_mod -->
<g id="edge15" class="edge">
<title>midas_midas_letkf&#45;&gt;stateToColumn_mod</title>
<path fill="none" stroke="black" d="M806.5,-495.78C806.5,-467.39 806.5,-419.89 806.5,-379 806.5,-379 806.5,-379 806.5,-161 806.5,-103.47 763.56,-98.51 712.5,-72 650.62,-39.87 571.12,-27.2 516.01,-22.21"/>
<ellipse fill="black" stroke="black" cx="806.5" cy="-499.95" rx="4" ry="4"/>
</g>
<!-- midas_midas_var -->
<g id="node17" class="node">
<title>midas_midas_var</title>
<g id="a_node17"><a xlink:href="../programs/midas_var.html" xlink:title="midas_midas_var">
<polygon fill="gray" stroke="green" points="952,-612 839,-612 839,-576 952,-576 952,-612"/>
<text text-anchor="middle" x="895.5" y="-590.3" font-family="Times,serif" font-size="14.00">midas_midas_var</text>
</a>
</g>
</g>
<!-- midas_midas_var&#45;&gt;stateToColumn_mod -->
<g id="edge16" class="edge">
<title>midas_midas_var&#45;&gt;stateToColumn_mod</title>
<path fill="none" stroke="black" d="M895.5,-567.78C895.5,-539.39 895.5,-491.89 895.5,-451 895.5,-451 895.5,-451 895.5,-161 895.5,-89.88 828.58,-98.32 762.5,-72 681.47,-39.73 580.96,-27.1 516.29,-22.16"/>
<ellipse fill="black" stroke="black" cx="895.5" cy="-571.95" rx="4" ry="4"/>
</g>
</g>
</svg>
