<?xml version="1.0" encoding="UTF-8" standalone="no"?>
<!DOCTYPE svg PUBLIC "-//W3C//DTD SVG 1.1//EN"
 "http://www.w3.org/Graphics/SVG/1.1/DTD/svg11.dtd">
<!-- Generated by graphviz version 3.0.0 (20220315.2325)
 -->
<!-- Title: thinning_mod Pages: 1 -->
<svg width="433pt" height="241pt"
 viewBox="0.00 0.00 433.00 241.00" xmlns="http://www.w3.org/2000/svg" xmlns:xlink="http://www.w3.org/1999/xlink">
<g id="graph0" class="graph" transform="scale(1 1) rotate(0) translate(4 237)">
<title>thinning_mod</title>
<polygon fill="white" stroke="transparent" points="-4,4 -4,-237 429,-237 429,4 -4,4"/>
<text text-anchor="middle" x="212.5" y="-217.8" font-family="Times,serif" font-size="14.00">Blue boxes indicate modules with reverse dependencies not shown</text>
<text text-anchor="middle" x="212.5" y="-202.8" font-family="Times,serif" font-size="14.00">Higher level reverse dependencies can be shown by clicking on a blue box</text>
<text text-anchor="middle" x="212.5" y="-187.8" font-family="Times,serif" font-size="14.00">Green boxes are programs</text>
<!-- thinning_mod -->
<g id="node1" class="node">
<title>thinning_mod</title>
<g id="a_node1"><a xlink:href="thinning_mod.html" xlink:title="thinning_mod">
<polygon fill="none" stroke="black" points="264.5,-36 171.5,-36 171.5,0 264.5,0 264.5,-36"/>
<text text-anchor="middle" x="218" y="-14.3" font-family="Times,serif" font-size="14.00">thinning_mod</text>
</a>
</g>
</g>
<!-- midas_midas_obsselection -->
<g id="node2" class="node">
<title>midas_midas_obsselection</title>
<g id="a_node2"><a xlink:href="../programs/midas_obsselection.html" xlink:title="midas_midas_obsselection">
<polygon fill="gray" stroke="green" points="244.5,-108 81.5,-108 81.5,-72 244.5,-72 244.5,-108"/>
<text text-anchor="middle" x="163" y="-86.3" font-family="Times,serif" font-size="14.00">midas_midas_obsselection</text>
</a>
</g>
</g>
<!-- midas_midas_obsselection&#45;&gt;thinning_mod -->
<g id="edge1" class="edge">
<title>midas_midas_obsselection&#45;&gt;thinning_mod</title>
<path fill="none" stroke="black" d="M181.61,-65.31C189.14,-55.73 197.66,-44.89 204.56,-36.1"/>
<ellipse fill="black" stroke="black" cx="179.07" cy="-68.55" rx="4" ry="4"/>
</g>
<!-- midas_midas_thinning -->
<g id="node3" class="node">
<title>midas_midas_thinning</title>
<g id="a_node3"><a xlink:href="../programs/midas_thinning.html" xlink:title="midas_midas_thinning">
<polygon fill="gray" stroke="green" points="343.5,-180 202.5,-180 202.5,-144 343.5,-144 343.5,-180"/>
<text text-anchor="middle" x="273" y="-158.3" font-family="Times,serif" font-size="14.00">midas_midas_thinning</text>
</a>
</g>
</g>
<!-- midas_midas_thinning&#45;&gt;thinning_mod -->
<g id="edge2" class="edge">
<title>midas_midas_thinning&#45;&gt;thinning_mod</title>
<path fill="none" stroke="black" d="M270.19,-135.3C267.56,-117.08 262.69,-92.35 254,-72 248.5,-59.11 239.69,-46.07 232.16,-36.15"/>
<ellipse fill="black" stroke="black" cx="270.77" cy="-139.71" rx="4" ry="4"/>
</g>
</g>
</svg>
