<?xml version="1.0" encoding="UTF-8" standalone="no"?>
<!DOCTYPE svg PUBLIC "-//W3C//DTD SVG 1.1//EN"
 "http://www.w3.org/Graphics/SVG/1.1/DTD/svg11.dtd">
<!-- Generated by graphviz version 3.0.0 (20220315.2325)
 -->
<!-- Title: thinning_mod Pages: 1 -->
<svg width="778pt" height="673pt"
 viewBox="0.00 0.00 777.50 673.00" xmlns="http://www.w3.org/2000/svg" xmlns:xlink="http://www.w3.org/1999/xlink">
<g id="graph0" class="graph" transform="scale(1 1) rotate(0) translate(4 669)">
<title>thinning_mod</title>
<polygon fill="white" stroke="transparent" points="-4,4 -4,-669 773.5,-669 773.5,4 -4,4"/>
<text text-anchor="middle" x="384.75" y="-37.8" font-family="Times,serif" font-size="14.00">Red boxes indicate modules with dependencies not shown</text>
<text text-anchor="middle" x="384.75" y="-22.8" font-family="Times,serif" font-size="14.00">Lower level dependencies can be shown by clicking on a red box</text>
<text text-anchor="middle" x="384.75" y="-7.8" font-family="Times,serif" font-size="14.00">Shaded boxes indicate modules with no dependencies</text>
<!-- thinning_mod -->
<g id="node1" class="node">
<title>thinning_mod</title>
<g id="a_node1"><a xlink:href="thinning_mod.html" xlink:title="thinning_mod">
<polygon fill="none" stroke="black" points="371,-665 278,-665 278,-629 371,-629 371,-665"/>
<text text-anchor="middle" x="324.5" y="-643.3" font-family="Times,serif" font-size="14.00">thinning_mod</text>
</a>
</g>
</g>
<!-- bufr_mod -->
<g id="node2" class="node">
<title>bufr_mod</title>
<g id="a_node2"><a xlink:href="bufr_mod.html" xlink:title="bufr_mod">
<polygon fill="gray" stroke="black" points="71,-593 0,-593 0,-557 71,-557 71,-593"/>
<text text-anchor="middle" x="35.5" y="-571.3" font-family="Times,serif" font-size="14.00">bufr_mod</text>
</a>
</g>
</g>
<!-- thinning_mod&#45;&gt;bufr_mod -->
<g id="edge1" class="edge">
<title>thinning_mod&#45;&gt;bufr_mod</title>
<path fill="none" stroke="black" d="M277.86,-637.23C229.42,-627.76 151.6,-611.51 85.5,-593 84.04,-592.59 82.56,-592.16 81.06,-591.72"/>
<polygon fill="black" stroke="black" points="81.72,-588.26 71.13,-588.64 79.65,-594.95 81.72,-588.26"/>
</g>
<!-- codtyp_mod -->
<g id="node3" class="node">
<title>codtyp_mod</title>
<g id="a_node3"><a xlink:href="../modules/codtyp_mod.svg" xlink:title="codtyp_mod">
<polygon fill="none" stroke="red" points="125,-521 40,-521 40,-485 125,-485 125,-521"/>
<text text-anchor="middle" x="82.5" y="-499.3" font-family="Times,serif" font-size="14.00">codtyp_mod</text>
</a>
</g>
</g>
<!-- thinning_mod&#45;&gt;codtyp_mod -->
<g id="edge2" class="edge">
<title>thinning_mod&#45;&gt;codtyp_mod</title>
<path fill="none" stroke="black" d="M277.88,-641.88C237.81,-636.33 180.23,-623.33 139.5,-593 118,-576.99 102.48,-550.27 93.11,-530.27"/>
<polygon fill="black" stroke="black" points="96.28,-528.78 89.01,-521.08 89.88,-531.63 96.28,-528.78"/>
</g>
<!-- earthconstants_mod -->
<g id="node4" class="node">
<title>earthconstants_mod</title>
<g id="a_node4"><a xlink:href="../modules/earthconstants_mod.svg" xlink:title="earthconstants_mod">
<polygon fill="none" stroke="red" points="163.5,-449 37.5,-449 37.5,-413 163.5,-413 163.5,-449"/>
<text text-anchor="middle" x="100.5" y="-427.3" font-family="Times,serif" font-size="14.00">earthconstants_mod</text>
</a>
</g>
</g>
<!-- thinning_mod&#45;&gt;earthconstants_mod -->
<g id="edge3" class="edge">
<title>thinning_mod&#45;&gt;earthconstants_mod</title>
<path fill="none" stroke="black" d="M277.84,-639.34C246,-632.59 204.8,-619.21 177.5,-593 140.11,-557.11 157.06,-531.17 133.5,-485 128.87,-475.92 123.19,-466.37 117.86,-457.91"/>
<polygon fill="black" stroke="black" points="120.63,-455.75 112.27,-449.23 114.74,-459.53 120.63,-455.75"/>
</g>
<!-- gridstatevectorfileio_mod -->
<g id="node5" class="node">
<title>gridstatevectorfileio_mod</title>
<g id="a_node5"><a xlink:href="../modules/gridstatevectorfileio_mod.svg" xlink:title="gridstatevectorfileio_mod">
<polygon fill="none" stroke="red" points="201.5,-377 43.5,-377 43.5,-341 201.5,-341 201.5,-377"/>
<text text-anchor="middle" x="122.5" y="-355.3" font-family="Times,serif" font-size="14.00">gridstatevectorfileio_mod</text>
</a>
</g>
</g>
<!-- thinning_mod&#45;&gt;gridstatevectorfileio_mod -->
<g id="edge4" class="edge">
<title>thinning_mod&#45;&gt;gridstatevectorfileio_mod</title>
<path fill="none" stroke="black" d="M277.73,-633.49C255.83,-625.35 231.17,-612.53 215.5,-593 164.01,-528.86 211.6,-485.36 172.5,-413 166.88,-402.6 158.71,-392.74 150.59,-384.4"/>
<polygon fill="black" stroke="black" points="152.82,-381.69 143.23,-377.2 147.93,-386.7 152.82,-381.69"/>
</g>
<!-- gridstatevector_mod -->
<g id="node6" class="node">
<title>gridstatevector_mod</title>
<g id="a_node6"><a xlink:href="../modules/gridstatevector_mod.svg" xlink:title="gridstatevector_mod">
<polygon fill="none" stroke="red" points="239.5,-305 109.5,-305 109.5,-269 239.5,-269 239.5,-305"/>
<text text-anchor="middle" x="174.5" y="-283.3" font-family="Times,serif" font-size="14.00">gridstatevector_mod</text>
</a>
</g>
</g>
<!-- thinning_mod&#45;&gt;gridstatevector_mod -->
<g id="edge5" class="edge">
<title>thinning_mod&#45;&gt;gridstatevector_mod</title>
<path fill="none" stroke="black" d="M292.65,-628.8C278.77,-619.82 263.44,-607.63 253.5,-593 230.49,-559.11 229.5,-544.97 229.5,-504 229.5,-504 229.5,-504 229.5,-430 229.5,-389.55 226.38,-378.2 210.5,-341 206.42,-331.43 200.51,-321.78 194.66,-313.39"/>
<polygon fill="black" stroke="black" points="197.38,-311.17 188.66,-305.15 191.72,-315.29 197.38,-311.17"/>
</g>
<!-- horizontalcoord_mod -->
<g id="node7" class="node">
<title>horizontalcoord_mod</title>
<g id="a_node7"><a xlink:href="../modules/horizontalcoord_mod.svg" xlink:title="horizontalcoord_mod">
<polygon fill="none" stroke="red" points="277.5,-233 143.5,-233 143.5,-197 277.5,-197 277.5,-233"/>
<text text-anchor="middle" x="210.5" y="-211.3" font-family="Times,serif" font-size="14.00">horizontalcoord_mod</text>
</a>
</g>
</g>
<!-- thinning_mod&#45;&gt;horizontalcoord_mod -->
<g id="edge6" class="edge">
<title>thinning_mod&#45;&gt;horizontalcoord_mod</title>
<path fill="none" stroke="black" d="M311.83,-628.57C305.03,-618.56 296.95,-605.52 291.5,-593 275.16,-555.43 267.5,-544.97 267.5,-504 267.5,-504 267.5,-504 267.5,-358 267.5,-317.55 264.85,-305.99 248.5,-269 244.17,-259.21 237.86,-249.43 231.62,-240.98"/>
<polygon fill="black" stroke="black" points="234.36,-238.8 225.48,-233.03 228.82,-243.08 234.36,-238.8"/>
</g>
<!-- kdtree2_mod -->
<g id="node8" class="node">
<title>kdtree2_mod</title>
<g id="a_node8"><a xlink:href="../modules/kdtree2_mod.svg" xlink:title="kdtree2_mod">
<polygon fill="none" stroke="red" points="315,-161 226,-161 226,-125 315,-125 315,-161"/>
<text text-anchor="middle" x="270.5" y="-139.3" font-family="Times,serif" font-size="14.00">kdtree2_mod</text>
</a>
</g>
</g>
<!-- thinning_mod&#45;&gt;kdtree2_mod -->
<g id="edge7" class="edge">
<title>thinning_mod&#45;&gt;kdtree2_mod</title>
<path fill="none" stroke="black" d="M320.66,-628.61C315.1,-601.94 305.5,-549.27 305.5,-504 305.5,-504 305.5,-504 305.5,-286 305.5,-244.84 291.47,-198.88 281.17,-170.69"/>
<polygon fill="black" stroke="black" points="284.38,-169.28 277.58,-161.15 277.83,-171.74 284.38,-169.28"/>
</g>
<!-- mathphysconstants_mod -->
<g id="node9" class="node">
<title>mathphysconstants_mod</title>
<g id="a_node9"><a xlink:href="mathphysconstants_mod.html" xlink:title="mathphysconstants_mod">
<polygon fill="gray" stroke="black" points="419.5,-89 267.5,-89 267.5,-53 419.5,-53 419.5,-89"/>
<text text-anchor="middle" x="343.5" y="-67.3" font-family="Times,serif" font-size="14.00">mathphysconstants_mod</text>
</a>
</g>
</g>
<!-- thinning_mod&#45;&gt;mathphysconstants_mod -->
<g id="edge8" class="edge">
<title>thinning_mod&#45;&gt;mathphysconstants_mod</title>
<path fill="none" stroke="black" d="M328.34,-628.61C333.9,-601.94 343.5,-549.27 343.5,-504 343.5,-504 343.5,-504 343.5,-214 343.5,-174 343.5,-127.65 343.5,-99.08"/>
<polygon fill="black" stroke="black" points="347,-99.05 343.5,-89.05 340,-99.05 347,-99.05"/>
</g>
<!-- midasmpi_mod -->
<g id="node10" class="node">
<title>midasmpi_mod</title>
<g id="a_node10"><a xlink:href="../modules/midasmpi_mod.svg" xlink:title="midasmpi_mod">
<polygon fill="none" stroke="red" points="473.5,-593 371.5,-593 371.5,-557 473.5,-557 473.5,-593"/>
<text text-anchor="middle" x="422.5" y="-571.3" font-family="Times,serif" font-size="14.00">midasmpi_mod</text>
</a>
</g>
</g>
<!-- thinning_mod&#45;&gt;midasmpi_mod -->
<g id="edge9" class="edge">
<title>thinning_mod&#45;&gt;midasmpi_mod</title>
<path fill="none" stroke="black" d="M348.47,-628.88C361.05,-619.89 376.63,-608.76 390.25,-599.03"/>
<polygon fill="black" stroke="black" points="392.33,-601.85 398.43,-593.19 388.26,-596.15 392.33,-601.85"/>
</g>
<!-- obsspacedata_mod -->
<g id="node11" class="node">
<title>obsspacedata_mod</title>
<g id="a_node11"><a xlink:href="../modules/obsspacedata_mod.svg" xlink:title="obsspacedata_mod">
<polygon fill="none" stroke="red" points="511,-521 392,-521 392,-485 511,-485 511,-521"/>
<text text-anchor="middle" x="451.5" y="-499.3" font-family="Times,serif" font-size="14.00">obsspacedata_mod</text>
</a>
</g>
</g>
<!-- thinning_mod&#45;&gt;obsspacedata_mod -->
<g id="edge10" class="edge">
<title>thinning_mod&#45;&gt;obsspacedata_mod</title>
<path fill="none" stroke="black" d="M371.04,-644.3C407.93,-640.21 457.33,-628 482.5,-593 496.25,-573.88 484.74,-548.12 472.02,-529.24"/>
<polygon fill="black" stroke="black" points="474.85,-527.18 466.18,-521.09 469.16,-531.26 474.85,-527.18"/>
</g>
<!-- physicsfunctions_mod -->
<g id="node12" class="node">
<title>physicsfunctions_mod</title>
<g id="a_node12"><a xlink:href="../modules/physicsfunctions_mod.svg" xlink:title="physicsfunctions_mod">
<polygon fill="none" stroke="red" points="549,-449 410,-449 410,-413 549,-413 549,-449"/>
<text text-anchor="middle" x="479.5" y="-427.3" font-family="Times,serif" font-size="14.00">physicsfunctions_mod</text>
</a>
</g>
</g>
<!-- thinning_mod&#45;&gt;physicsfunctions_mod -->
<g id="edge11" class="edge">
<title>thinning_mod&#45;&gt;physicsfunctions_mod</title>
<path fill="none" stroke="black" d="M371.35,-644.14C411.07,-640.03 466.8,-627.88 500.5,-593 534.36,-557.95 534.98,-531.21 519.5,-485 516.15,-475 510.08,-465.38 503.67,-457.14"/>
<polygon fill="black" stroke="black" points="506.32,-454.85 497.23,-449.4 500.94,-459.33 506.32,-454.85"/>
</g>
<!-- timecoord_mod -->
<g id="node13" class="node">
<title>timecoord_mod</title>
<g id="a_node13"><a xlink:href="../modules/timecoord_mod.svg" xlink:title="timecoord_mod">
<polygon fill="none" stroke="red" points="608.5,-377 504.5,-377 504.5,-341 608.5,-341 608.5,-377"/>
<text text-anchor="middle" x="556.5" y="-355.3" font-family="Times,serif" font-size="14.00">timecoord_mod</text>
</a>
</g>
</g>
<!-- thinning_mod&#45;&gt;timecoord_mod -->
<g id="edge12" class="edge">
<title>thinning_mod&#45;&gt;timecoord_mod</title>
<path fill="none" stroke="black" d="M371.08,-639.6C424.13,-631.35 506.22,-615.37 527.5,-593 580.91,-536.85 570.99,-435.59 562.34,-387.19"/>
<polygon fill="black" stroke="black" points="565.74,-386.33 560.43,-377.16 558.86,-387.64 565.74,-386.33"/>
</g>
<!-- utilities_mod -->
<g id="node14" class="node">
<title>utilities_mod</title>
<g id="a_node14"><a xlink:href="../modules/utilities_mod.svg" xlink:title="utilities_mod">
<polygon fill="none" stroke="red" points="681,-305 592,-305 592,-269 681,-269 681,-305"/>
<text text-anchor="middle" x="636.5" y="-283.3" font-family="Times,serif" font-size="14.00">utilities_mod</text>
</a>
</g>
</g>
<!-- thinning_mod&#45;&gt;utilities_mod -->
<g id="edge13" class="edge">
<title>thinning_mod&#45;&gt;utilities_mod</title>
<path fill="none" stroke="black" d="M371.21,-645.33C458.25,-641.36 636.5,-619.16 636.5,-504 636.5,-504 636.5,-504 636.5,-430 636.5,-390 636.5,-343.65 636.5,-315.08"/>
<polygon fill="black" stroke="black" points="640,-315.05 636.5,-305.05 633,-315.05 640,-315.05"/>
</g>
<!-- verticalcoord_mod -->
<g id="node15" class="node">
<title>verticalcoord_mod</title>
<g id="a_node15"><a xlink:href="../modules/verticalcoord_mod.svg" xlink:title="verticalcoord_mod">
<polygon fill="none" stroke="red" points="769.5,-233 649.5,-233 649.5,-197 769.5,-197 769.5,-233"/>
<text text-anchor="middle" x="709.5" y="-211.3" font-family="Times,serif" font-size="14.00">verticalcoord_mod</text>
</a>
</g>
</g>
<!-- thinning_mod&#45;&gt;verticalcoord_mod -->
<g id="edge14" class="edge">
<title>thinning_mod&#45;&gt;verticalcoord_mod</title>
<path fill="none" stroke="black" d="M371.12,-645.69C431.05,-643.51 536.86,-633.6 616.5,-593 667.47,-567.01 709.5,-561.21 709.5,-504 709.5,-504 709.5,-504 709.5,-358 709.5,-318 709.5,-271.65 709.5,-243.08"/>
<polygon fill="black" stroke="black" points="713,-243.05 709.5,-233.05 706,-243.05 713,-243.05"/>
</g>
</g>
</svg>
