<?xml version="1.0" encoding="UTF-8" standalone="no"?>
<!DOCTYPE svg PUBLIC "-//W3C//DTD SVG 1.1//EN"
 "http://www.w3.org/Graphics/SVG/1.1/DTD/svg11.dtd">
<!-- Generated by graphviz version 3.0.0 (20220315.2325)
 -->
<!-- Title: timeCoord_mod Pages: 1 -->
<svg width="2965pt" height="673pt"
 viewBox="0.00 0.00 2965.00 673.00" xmlns="http://www.w3.org/2000/svg" xmlns:xlink="http://www.w3.org/1999/xlink">
<g id="graph0" class="graph" transform="scale(1 1) rotate(0) translate(4 669)">
<title>timeCoord_mod</title>
<polygon fill="white" stroke="transparent" points="-4,4 -4,-669 2961,-669 2961,4 -4,4"/>
<text text-anchor="middle" x="1478.5" y="-649.8" font-family="Times,serif" font-size="14.00">Blue boxes indicate modules with reverse dependencies not shown</text>
<text text-anchor="middle" x="1478.5" y="-634.8" font-family="Times,serif" font-size="14.00">Higher level reverse dependencies can be shown by clicking on a blue box</text>
<text text-anchor="middle" x="1478.5" y="-619.8" font-family="Times,serif" font-size="14.00">Green boxes are programs</text>
<!-- timeCoord_mod -->
<g id="node1" class="node">
<title>timeCoord_mod</title>
<g id="a_node1"><a xlink:href="timeCoord_mod.html" xlink:title="timeCoord_mod">
<polygon fill="none" stroke="black" points="1532,-36 1425,-36 1425,0 1532,0 1532,-36"/>
<text text-anchor="middle" x="1478.5" y="-14.3" font-family="Times,serif" font-size="14.00">timeCoord_mod</text>
</a>
</g>
</g>
<!-- analysiserroroi_mod -->
<g id="node2" class="node">
<title>analysiserroroi_mod</title>
<g id="a_node2"><a xlink:href="../modules/analysiserroroi_mod_rev.svg" xlink:title="analysiserroroi_mod">
<polygon fill="none" stroke="blue" points="129,-108 0,-108 0,-72 129,-72 129,-108"/>
<text text-anchor="middle" x="64.5" y="-86.3" font-family="Times,serif" font-size="14.00">analysiserroroi_mod</text>
</a>
</g>
</g>
<!-- analysiserroroi_mod&#45;&gt;timeCoord_mod -->
<g id="edge1" class="edge">
<title>analysiserroroi_mod&#45;&gt;timeCoord_mod</title>
<path fill="none" stroke="black" d="M137.22,-72.86C139.33,-72.55 141.43,-72.26 143.5,-72 397.78,-39.84 1207.95,-23.71 1424.72,-19.9"/>
<ellipse fill="black" stroke="black" cx="132.96" cy="-73.54" rx="4" ry="4"/>
</g>
<!-- bgckocean_mod -->
<g id="node3" class="node">
<title>bgckocean_mod</title>
<g id="a_node3"><a xlink:href="../modules/bgckocean_mod_rev.svg" xlink:title="bgckocean_mod">
<polygon fill="none" stroke="blue" points="188.5,-180 82.5,-180 82.5,-144 188.5,-144 188.5,-180"/>
<text text-anchor="middle" x="135.5" y="-158.3" font-family="Times,serif" font-size="14.00">bgckocean_mod</text>
</a>
</g>
</g>
<!-- bgckocean_mod&#45;&gt;timeCoord_mod -->
<g id="edge2" class="edge">
<title>bgckocean_mod&#45;&gt;timeCoord_mod</title>
<path fill="none" stroke="black" d="M146.36,-136.5C157.22,-115.27 176.12,-85.85 202.5,-72 257.34,-43.2 1189.01,-24.29 1424.68,-19.95"/>
<ellipse fill="black" stroke="black" cx="144.48" cy="-140.31" rx="4" ry="4"/>
</g>
<!-- biascorrectionconv_mod -->
<g id="node4" class="node">
<title>biascorrectionconv_mod</title>
<g id="a_node4"><a xlink:href="../modules/biascorrectionconv_mod_rev.svg" xlink:title="biascorrectionconv_mod">
<polygon fill="none" stroke="blue" points="226.5,-252 74.5,-252 74.5,-216 226.5,-216 226.5,-252"/>
<text text-anchor="middle" x="150.5" y="-230.3" font-family="Times,serif" font-size="14.00">biascorrectionconv_mod</text>
</a>
</g>
</g>
<!-- biascorrectionconv_mod&#45;&gt;timeCoord_mod -->
<g id="edge3" class="edge">
<title>biascorrectionconv_mod&#45;&gt;timeCoord_mod</title>
<path fill="none" stroke="black" d="M174.45,-209.55C182.5,-200.8 191.06,-190.45 197.5,-180 224.6,-136.01 198.37,-101.91 240.5,-72 289.43,-37.27 1193.52,-22.82 1424.92,-19.68"/>
<ellipse fill="black" stroke="black" cx="171.47" cy="-212.71" rx="4" ry="4"/>
</g>
<!-- biascorrectionsat_mod -->
<g id="node5" class="node">
<title>biascorrectionsat_mod</title>
<g id="a_node5"><a xlink:href="../modules/biascorrectionsat_mod_rev.svg" xlink:title="biascorrectionsat_mod">
<polygon fill="none" stroke="blue" points="264.5,-324 124.5,-324 124.5,-288 264.5,-288 264.5,-324"/>
<text text-anchor="middle" x="194.5" y="-302.3" font-family="Times,serif" font-size="14.00">biascorrectionsat_mod</text>
</a>
</g>
</g>
<!-- biascorrectionsat_mod&#45;&gt;timeCoord_mod -->
<g id="edge4" class="edge">
<title>biascorrectionsat_mod&#45;&gt;timeCoord_mod</title>
<path fill="none" stroke="black" d="M216.28,-281.32C223.3,-272.63 230.54,-262.37 235.5,-252 271.01,-177.81 215.08,-124.37 278.5,-72 323.25,-35.05 1197.67,-22.28 1424.91,-19.58"/>
<ellipse fill="black" stroke="black" cx="213.56" cy="-284.57" rx="4" ry="4"/>
</g>
<!-- bmatrix1dvar_mod -->
<g id="node6" class="node">
<title>bmatrix1dvar_mod</title>
<g id="a_node6"><a xlink:href="../modules/bmatrix1dvar_mod_rev.svg" xlink:title="bmatrix1dvar_mod">
<polygon fill="none" stroke="blue" points="302.5,-396 180.5,-396 180.5,-360 302.5,-360 302.5,-396"/>
<text text-anchor="middle" x="241.5" y="-374.3" font-family="Times,serif" font-size="14.00">bmatrix1dvar_mod</text>
</a>
</g>
</g>
<!-- bmatrix1dvar_mod&#45;&gt;timeCoord_mod -->
<g id="edge5" class="edge">
<title>bmatrix1dvar_mod&#45;&gt;timeCoord_mod</title>
<path fill="none" stroke="black" d="M258.52,-352.66C263.98,-343.95 269.61,-333.84 273.5,-324 288.38,-286.39 292.5,-275.45 292.5,-235 292.5,-235 292.5,-235 292.5,-161 292.5,-120.03 284.55,-97.65 316.5,-72 360.2,-36.92 1201.95,-22.82 1424.77,-19.7"/>
<ellipse fill="black" stroke="black" cx="256.19" cy="-356.26" rx="4" ry="4"/>
</g>
<!-- bmatrixensemble_mod -->
<g id="node7" class="node">
<title>bmatrixensemble_mod</title>
<g id="a_node7"><a xlink:href="../modules/bmatrixensemble_mod_rev.svg" xlink:title="bmatrixensemble_mod">
<polygon fill="none" stroke="blue" points="340,-468 197,-468 197,-432 340,-432 340,-468"/>
<text text-anchor="middle" x="268.5" y="-446.3" font-family="Times,serif" font-size="14.00">bmatrixensemble_mod</text>
</a>
</g>
</g>
<!-- bmatrixensemble_mod&#45;&gt;timeCoord_mod -->
<g id="edge6" class="edge">
<title>bmatrixensemble_mod&#45;&gt;timeCoord_mod</title>
<path fill="none" stroke="black" d="M291.3,-425.79C298.74,-417.07 306.4,-406.67 311.5,-396 328.95,-359.51 330.5,-347.45 330.5,-307 330.5,-307 330.5,-307 330.5,-161 330.5,-120.03 322.57,-97.67 354.5,-72 396.63,-38.12 1206.41,-23.2 1424.69,-19.79"/>
<ellipse fill="black" stroke="black" cx="288.6" cy="-428.84" rx="4" ry="4"/>
</g>
<!-- bmatrixhi_mod -->
<g id="node8" class="node">
<title>bmatrixhi_mod</title>
<g id="a_node8"><a xlink:href="../modules/bmatrixhi_mod_rev.svg" xlink:title="bmatrixhi_mod">
<polygon fill="none" stroke="blue" points="378.5,-540 276.5,-540 276.5,-504 378.5,-504 378.5,-540"/>
<text text-anchor="middle" x="327.5" y="-518.3" font-family="Times,serif" font-size="14.00">bmatrixhi_mod</text>
</a>
</g>
</g>
<!-- bmatrixhi_mod&#45;&gt;timeCoord_mod -->
<g id="edge7" class="edge">
<title>bmatrixhi_mod&#45;&gt;timeCoord_mod</title>
<path fill="none" stroke="black" d="M339.06,-496.66C351.19,-468.86 368.5,-421.69 368.5,-379 368.5,-379 368.5,-379 368.5,-161 368.5,-120.03 360.59,-97.7 392.5,-72 433.06,-39.33 1211.19,-23.59 1424.71,-19.88"/>
<ellipse fill="black" stroke="black" cx="337.43" cy="-500.32" rx="4" ry="4"/>
</g>
<!-- calcstatsglb_mod -->
<g id="node9" class="node">
<title>calcstatsglb_mod</title>
<g id="a_node9"><a xlink:href="../modules/calcstatsglb_mod_rev.svg" xlink:title="calcstatsglb_mod">
<polygon fill="none" stroke="blue" points="462,-612 351,-612 351,-576 462,-576 462,-612"/>
<text text-anchor="middle" x="406.5" y="-590.3" font-family="Times,serif" font-size="14.00">calcstatsglb_mod</text>
</a>
</g>
</g>
<!-- calcstatsglb_mod&#45;&gt;timeCoord_mod -->
<g id="edge8" class="edge">
<title>calcstatsglb_mod&#45;&gt;timeCoord_mod</title>
<path fill="none" stroke="black" d="M406.5,-567.78C406.5,-539.39 406.5,-491.89 406.5,-451 406.5,-451 406.5,-451 406.5,-161 406.5,-120.55 394.71,-98.22 425.5,-72 463.87,-39.33 1215.65,-23.64 1424.87,-19.9"/>
<ellipse fill="black" stroke="black" cx="406.5" cy="-571.95" rx="4" ry="4"/>
</g>
<!-- calcstatslam_mod -->
<g id="node10" class="node">
<title>calcstatslam_mod</title>
<g id="a_node10"><a xlink:href="../modules/calcstatslam_mod_rev.svg" xlink:title="calcstatslam_mod">
<polygon fill="none" stroke="blue" points="550,-108 435,-108 435,-72 550,-72 550,-108"/>
<text text-anchor="middle" x="492.5" y="-86.3" font-family="Times,serif" font-size="14.00">calcstatslam_mod</text>
</a>
</g>
</g>
<!-- calcstatslam_mod&#45;&gt;timeCoord_mod -->
<g id="edge9" class="edge">
<title>calcstatslam_mod&#45;&gt;timeCoord_mod</title>
<path fill="none" stroke="black" d="M558.26,-72.99C560.36,-72.63 562.44,-72.3 564.5,-72 888.7,-24.69 1283.38,-19.21 1424.86,-18.86"/>
<ellipse fill="black" stroke="black" cx="554.03" cy="-73.75" rx="4" ry="4"/>
</g>
<!-- enkf_mod -->
<g id="node11" class="node">
<title>enkf_mod</title>
<g id="a_node11"><a xlink:href="../modules/enkf_mod_rev.svg" xlink:title="enkf_mod">
<polygon fill="none" stroke="blue" points="588,-180 515,-180 515,-144 588,-144 588,-180"/>
<text text-anchor="middle" x="551.5" y="-158.3" font-family="Times,serif" font-size="14.00">enkf_mod</text>
</a>
</g>
</g>
<!-- enkf_mod&#45;&gt;timeCoord_mod -->
<g id="edge10" class="edge">
<title>enkf_mod&#45;&gt;timeCoord_mod</title>
<path fill="none" stroke="black" d="M558.45,-136.15C565.74,-115.17 579.42,-86.32 602.5,-72 672.25,-28.72 1245.32,-20.75 1424.9,-19.31"/>
<ellipse fill="black" stroke="black" cx="557.21" cy="-139.96" rx="4" ry="4"/>
</g>
<!-- ensemblestatevector_mod -->
<g id="node12" class="node">
<title>ensemblestatevector_mod</title>
<g id="a_node12"><a xlink:href="../modules/ensemblestatevector_mod_rev.svg" xlink:title="ensemblestatevector_mod">
<polygon fill="none" stroke="blue" points="626.5,-252 468.5,-252 468.5,-216 626.5,-216 626.5,-252"/>
<text text-anchor="middle" x="547.5" y="-230.3" font-family="Times,serif" font-size="14.00">ensemblestatevector_mod</text>
</a>
</g>
</g>
<!-- ensemblestatevector_mod&#45;&gt;timeCoord_mod -->
<g id="edge11" class="edge">
<title>ensemblestatevector_mod&#45;&gt;timeCoord_mod</title>
<path fill="none" stroke="black" d="M572.23,-209.92C580.69,-201.13 589.72,-190.65 596.5,-180 624.32,-136.27 598.42,-102.26 640.5,-72 704,-26.33 1250.04,-19.98 1424.88,-19.13"/>
<ellipse fill="black" stroke="black" cx="569.31" cy="-212.87" rx="4" ry="4"/>
</g>
<!-- enspostprocess_mod -->
<g id="node13" class="node">
<title>enspostprocess_mod</title>
<g id="a_node13"><a xlink:href="../modules/enspostprocess_mod_rev.svg" xlink:title="enspostprocess_mod">
<polygon fill="none" stroke="blue" points="664,-324 535,-324 535,-288 664,-288 664,-324"/>
<text text-anchor="middle" x="599.5" y="-302.3" font-family="Times,serif" font-size="14.00">enspostprocess_mod</text>
</a>
</g>
</g>
<!-- enspostprocess_mod&#45;&gt;timeCoord_mod -->
<g id="edge12" class="edge">
<title>enspostprocess_mod&#45;&gt;timeCoord_mod</title>
<path fill="none" stroke="black" d="M618.42,-281.13C624.61,-272.37 631.04,-262.12 635.5,-252 668.71,-176.75 615.66,-125.06 678.5,-72 735.33,-24.01 1254.99,-19.21 1424.97,-18.93"/>
<ellipse fill="black" stroke="black" cx="615.9" cy="-284.57" rx="4" ry="4"/>
</g>
<!-- filenames_mod -->
<g id="node14" class="node">
<title>filenames_mod</title>
<g id="a_node14"><a xlink:href="../modules/filenames_mod_rev.svg" xlink:title="filenames_mod">
<polygon fill="none" stroke="blue" points="702,-396 601,-396 601,-360 702,-360 702,-396"/>
<text text-anchor="middle" x="651.5" y="-374.3" font-family="Times,serif" font-size="14.00">filenames_mod</text>
</a>
</g>
</g>
<!-- filenames_mod&#45;&gt;timeCoord_mod -->
<g id="edge13" class="edge">
<title>filenames_mod&#45;&gt;timeCoord_mod</title>
<path fill="none" stroke="black" d="M663.06,-352.66C675.19,-324.86 692.5,-277.69 692.5,-235 692.5,-235 692.5,-235 692.5,-161 692.5,-120.03 684.86,-98.03 716.5,-72 770.94,-27.22 1260.61,-20.26 1424.98,-19.19"/>
<ellipse fill="black" stroke="black" cx="661.43" cy="-356.32" rx="4" ry="4"/>
</g>
<!-- fsoi_mod -->
<g id="node15" class="node">
<title>fsoi_mod</title>
<g id="a_node15"><a xlink:href="../modules/fsoi_mod_rev.svg" xlink:title="fsoi_mod">
<polygon fill="none" stroke="blue" points="740.5,-468 672.5,-468 672.5,-432 740.5,-432 740.5,-468"/>
<text text-anchor="middle" x="706.5" y="-446.3" font-family="Times,serif" font-size="14.00">fsoi_mod</text>
</a>
</g>
</g>
<!-- fsoi_mod&#45;&gt;timeCoord_mod -->
<g id="edge14" class="edge">
<title>fsoi_mod&#45;&gt;timeCoord_mod</title>
<path fill="none" stroke="black" d="M713.36,-423.9C720.45,-395.69 730.5,-348.42 730.5,-307 730.5,-307 730.5,-307 730.5,-161 730.5,-120.03 722.91,-98.09 754.5,-72 805.85,-29.59 1265.99,-21.08 1424.85,-19.4"/>
<ellipse fill="black" stroke="black" cx="712.35" cy="-427.8" rx="4" ry="4"/>
</g>
<!-- gridbinning_mod -->
<g id="node16" class="node">
<title>gridbinning_mod</title>
<g id="a_node16"><a xlink:href="../modules/gridbinning_mod_rev.svg" xlink:title="gridbinning_mod">
<polygon fill="none" stroke="blue" points="778,-540 665,-540 665,-504 778,-504 778,-540"/>
<text text-anchor="middle" x="721.5" y="-518.3" font-family="Times,serif" font-size="14.00">gridbinning_mod</text>
</a>
</g>
</g>
<!-- gridbinning_mod&#45;&gt;timeCoord_mod -->
<g id="edge15" class="edge">
<title>gridbinning_mod&#45;&gt;timeCoord_mod</title>
<path fill="none" stroke="black" d="M736.07,-496.84C740.9,-488.01 745.95,-477.78 749.5,-468 763.3,-429.98 768.5,-419.45 768.5,-379 768.5,-379 768.5,-379 768.5,-161 768.5,-120.03 760.96,-98.15 792.5,-72 840.81,-31.95 1271.98,-21.94 1424.96,-19.64"/>
<ellipse fill="black" stroke="black" cx="734.06" cy="-500.41" rx="4" ry="4"/>
</g>
<!-- gridstatevectorfileio_mod -->
<g id="node17" class="node">
<title>gridstatevectorfileio_mod</title>
<g id="a_node17"><a xlink:href="../modules/gridstatevectorfileio_mod_rev.svg" xlink:title="gridstatevectorfileio_mod">
<polygon fill="none" stroke="blue" points="885.5,-612 727.5,-612 727.5,-576 885.5,-576 885.5,-612"/>
<text text-anchor="middle" x="806.5" y="-590.3" font-family="Times,serif" font-size="14.00">gridstatevectorfileio_mod</text>
</a>
</g>
</g>
<!-- gridstatevectorfileio_mod&#45;&gt;timeCoord_mod -->
<g id="edge16" class="edge">
<title>gridstatevectorfileio_mod&#45;&gt;timeCoord_mod</title>
<path fill="none" stroke="black" d="M806.5,-567.78C806.5,-539.39 806.5,-491.89 806.5,-451 806.5,-451 806.5,-451 806.5,-161 806.5,-120.14 798.24,-98.31 829.5,-72 874.64,-34.01 1277.7,-22.73 1424.95,-19.87"/>
<ellipse fill="black" stroke="black" cx="806.5" cy="-571.95" rx="4" ry="4"/>
</g>
<!-- gridstatevector_mod -->
<g id="node18" class="node">
<title>gridstatevector_mod</title>
<g id="a_node18"><a xlink:href="../modules/gridstatevector_mod_rev.svg" xlink:title="gridstatevector_mod">
<polygon fill="none" stroke="blue" points="968.5,-108 838.5,-108 838.5,-72 968.5,-72 968.5,-108"/>
<text text-anchor="middle" x="903.5" y="-86.3" font-family="Times,serif" font-size="14.00">gridstatevector_mod</text>
</a>
</g>
</g>
<!-- gridstatevector_mod&#45;&gt;timeCoord_mod -->
<g id="edge17" class="edge">
<title>gridstatevector_mod&#45;&gt;timeCoord_mod</title>
<path fill="none" stroke="black" d="M977.04,-72.91C978.88,-72.59 980.7,-72.29 982.5,-72 1142.4,-46.33 1333.35,-29.88 1424.67,-22.88"/>
<ellipse fill="black" stroke="black" cx="972.86" cy="-73.66" rx="4" ry="4"/>
</g>
<!-- gridvariabletransforms_mod -->
<g id="node19" class="node">
<title>gridvariabletransforms_mod</title>
<g id="a_node19"><a xlink:href="../modules/gridvariabletransforms_mod_rev.svg" xlink:title="gridvariabletransforms_mod">
<polygon fill="none" stroke="blue" points="1010,-180 835,-180 835,-144 1010,-144 1010,-180"/>
<text text-anchor="middle" x="922.5" y="-158.3" font-family="Times,serif" font-size="14.00">gridvariabletransforms_mod</text>
</a>
</g>
</g>
<!-- gridvariabletransforms_mod&#45;&gt;timeCoord_mod -->
<g id="edge18" class="edge">
<title>gridvariabletransforms_mod&#45;&gt;timeCoord_mod</title>
<path fill="none" stroke="black" d="M947.04,-138.22C974.23,-113.2 1015.46,-76 1024.5,-72 1095.06,-40.76 1320.47,-26.39 1424.7,-21.3"/>
<ellipse fill="black" stroke="black" cx="944.07" cy="-140.96" rx="4" ry="4"/>
</g>
<!-- increment_mod -->
<g id="node20" class="node">
<title>increment_mod</title>
<g id="a_node20"><a xlink:href="../modules/increment_mod_rev.svg" xlink:title="increment_mod">
<polygon fill="none" stroke="blue" points="1048,-252 945,-252 945,-216 1048,-216 1048,-252"/>
<text text-anchor="middle" x="996.5" y="-230.3" font-family="Times,serif" font-size="14.00">increment_mod</text>
</a>
</g>
</g>
<!-- increment_mod&#45;&gt;timeCoord_mod -->
<g id="edge19" class="edge">
<title>increment_mod&#45;&gt;timeCoord_mod</title>
<path fill="none" stroke="black" d="M1006.77,-208.35C1010.48,-199.43 1014.69,-189.26 1018.5,-180 1038.21,-132.06 1021.41,-103.59 1062.5,-72 1118.06,-29.29 1325.28,-20.85 1424.67,-19.28"/>
<ellipse fill="black" stroke="black" cx="1005.2" cy="-212.13" rx="4" ry="4"/>
</g>
<!-- innovation_mod -->
<g id="node21" class="node">
<title>innovation_mod</title>
<g id="a_node21"><a xlink:href="../modules/innovation_mod_rev.svg" xlink:title="innovation_mod">
<polygon fill="none" stroke="blue" points="1086.5,-324 980.5,-324 980.5,-288 1086.5,-288 1086.5,-324"/>
<text text-anchor="middle" x="1033.5" y="-302.3" font-family="Times,serif" font-size="14.00">innovation_mod</text>
</a>
</g>
</g>
<!-- innovation_mod&#45;&gt;timeCoord_mod -->
<g id="edge20" class="edge">
<title>innovation_mod&#45;&gt;timeCoord_mod</title>
<path fill="none" stroke="black" d="M1045.27,-280.27C1049.18,-271.47 1053.33,-261.41 1056.5,-252 1082.76,-173.95 1039.42,-127.24 1100.5,-72 1147.07,-29.89 1331.82,-21.08 1424.66,-19.35"/>
<ellipse fill="black" stroke="black" cx="1043.58" cy="-283.98" rx="4" ry="4"/>
</g>
<!-- menetrierdiag_mod -->
<g id="node22" class="node">
<title>menetrierdiag_mod</title>
<g id="a_node22"><a xlink:href="../modules/menetrierdiag_mod_rev.svg" xlink:title="menetrierdiag_mod">
<polygon fill="none" stroke="blue" points="1124,-396 999,-396 999,-360 1124,-360 1124,-396"/>
<text text-anchor="middle" x="1061.5" y="-374.3" font-family="Times,serif" font-size="14.00">menetrierdiag_mod</text>
</a>
</g>
</g>
<!-- menetrierdiag_mod&#45;&gt;timeCoord_mod -->
<g id="edge21" class="edge">
<title>menetrierdiag_mod&#45;&gt;timeCoord_mod</title>
<path fill="none" stroke="black" d="M1079.46,-353.05C1085.31,-344.29 1091.36,-334.05 1095.5,-324 1110.89,-286.6 1114.5,-275.45 1114.5,-235 1114.5,-235 1114.5,-235 1114.5,-161 1114.5,-120.03 1108,-99.35 1138.5,-72 1179.75,-35.01 1339.74,-23.8 1424.73,-20.43"/>
<ellipse fill="black" stroke="black" cx="1077.12" cy="-356.44" rx="4" ry="4"/>
</g>
<!-- minimization_mod -->
<g id="node23" class="node">
<title>minimization_mod</title>
<g id="a_node23"><a xlink:href="../modules/minimization_mod_rev.svg" xlink:title="minimization_mod">
<polygon fill="none" stroke="blue" points="1162.5,-468 1040.5,-468 1040.5,-432 1162.5,-432 1162.5,-468"/>
<text text-anchor="middle" x="1101.5" y="-446.3" font-family="Times,serif" font-size="14.00">minimization_mod</text>
</a>
</g>
</g>
<!-- minimization_mod&#45;&gt;timeCoord_mod -->
<g id="edge22" class="edge">
<title>minimization_mod&#45;&gt;timeCoord_mod</title>
<path fill="none" stroke="black" d="M1117.9,-424.58C1123.18,-415.85 1128.66,-405.76 1132.5,-396 1147.35,-358.28 1152.5,-347.54 1152.5,-307 1152.5,-307 1152.5,-307 1152.5,-161 1152.5,-120.03 1146.26,-99.64 1176.5,-72 1212.01,-39.54 1347.93,-26.5 1424.76,-21.63"/>
<ellipse fill="black" stroke="black" cx="1115.67" cy="-428.15" rx="4" ry="4"/>
</g>
<!-- obsdbfiles_mod -->
<g id="node24" class="node">
<title>obsdbfiles_mod</title>
<g id="a_node24"><a xlink:href="../modules/obsdbfiles_mod_rev.svg" xlink:title="obsdbfiles_mod">
<polygon fill="none" stroke="blue" points="1200,-540 1097,-540 1097,-504 1200,-504 1200,-540"/>
<text text-anchor="middle" x="1148.5" y="-518.3" font-family="Times,serif" font-size="14.00">obsdbfiles_mod</text>
</a>
</g>
</g>
<!-- obsdbfiles_mod&#45;&gt;timeCoord_mod -->
<g id="edge23" class="edge">
<title>obsdbfiles_mod&#45;&gt;timeCoord_mod</title>
<path fill="none" stroke="black" d="M1160.34,-496.69C1172.76,-468.92 1190.5,-421.77 1190.5,-379 1190.5,-379 1190.5,-379 1190.5,-161 1190.5,-120.03 1184.6,-100.01 1214.5,-72 1244.35,-44.04 1356.76,-29.54 1424.9,-23.16"/>
<ellipse fill="black" stroke="black" cx="1158.66" cy="-500.36" rx="4" ry="4"/>
</g>
<!-- obsoperatorschem_mod -->
<g id="node25" class="node">
<title>obsoperatorschem_mod</title>
<g id="a_node25"><a xlink:href="../modules/obsoperatorschem_mod_rev.svg" xlink:title="obsoperatorschem_mod">
<polygon fill="none" stroke="blue" points="1302,-612 1155,-612 1155,-576 1302,-576 1302,-612"/>
<text text-anchor="middle" x="1228.5" y="-590.3" font-family="Times,serif" font-size="14.00">obsoperatorschem_mod</text>
</a>
</g>
</g>
<!-- obsoperatorschem_mod&#45;&gt;timeCoord_mod -->
<g id="edge24" class="edge">
<title>obsoperatorschem_mod&#45;&gt;timeCoord_mod</title>
<path fill="none" stroke="black" d="M1228.5,-567.78C1228.5,-539.39 1228.5,-491.89 1228.5,-451 1228.5,-451 1228.5,-451 1228.5,-161 1228.5,-120.55 1219.12,-100.82 1247.5,-72 1271.86,-47.27 1364.48,-32.11 1424.78,-24.65"/>
<ellipse fill="black" stroke="black" cx="1228.5" cy="-571.95" rx="4" ry="4"/>
</g>
<!-- obsoperators_mod -->
<g id="node26" class="node">
<title>obsoperators_mod</title>
<g id="a_node26"><a xlink:href="../modules/obsoperators_mod_rev.svg" xlink:title="obsoperators_mod">
<polygon fill="none" stroke="blue" points="1374,-108 1257,-108 1257,-72 1374,-72 1374,-108"/>
<text text-anchor="middle" x="1315.5" y="-86.3" font-family="Times,serif" font-size="14.00">obsoperators_mod</text>
</a>
</g>
</g>
<!-- obsoperators_mod&#45;&gt;timeCoord_mod -->
<g id="edge25" class="edge">
<title>obsoperators_mod&#45;&gt;timeCoord_mod</title>
<path fill="none" stroke="black" d="M1363,-68.6C1387.04,-58.28 1415.9,-45.88 1438.76,-36.07"/>
<ellipse fill="black" stroke="black" cx="1359.05" cy="-70.3" rx="4" ry="4"/>
</g>
<!-- obsspacediag_mod -->
<g id="node27" class="node">
<title>obsspacediag_mod</title>
<g id="a_node27"><a xlink:href="../modules/obsspacediag_mod_rev.svg" xlink:title="obsspacediag_mod">
<polygon fill="none" stroke="blue" points="1412.5,-180 1292.5,-180 1292.5,-144 1412.5,-144 1412.5,-180"/>
<text text-anchor="middle" x="1352.5" y="-158.3" font-family="Times,serif" font-size="14.00">obsspacediag_mod</text>
</a>
</g>
</g>
<!-- obsspacediag_mod&#45;&gt;timeCoord_mod -->
<g id="edge26" class="edge">
<title>obsspacediag_mod&#45;&gt;timeCoord_mod</title>
<path fill="none" stroke="black" d="M1371.1,-137.57C1385.77,-119.36 1406.94,-93.65 1426.5,-72 1437.56,-59.76 1450.56,-46.51 1460.8,-36.32"/>
<ellipse fill="black" stroke="black" cx="1368.51" cy="-140.8" rx="4" ry="4"/>
</g>
<!-- obsspaceerrorstddev_mod -->
<g id="node28" class="node">
<title>obsspaceerrorstddev_mod</title>
<g id="a_node28"><a xlink:href="../modules/obsspaceerrorstddev_mod_rev.svg" xlink:title="obsspaceerrorstddev_mod">
<polygon fill="none" stroke="blue" points="1451,-252 1292,-252 1292,-216 1451,-216 1451,-252"/>
<text text-anchor="middle" x="1371.5" y="-230.3" font-family="Times,serif" font-size="14.00">obsspaceerrorstddev_mod</text>
</a>
</g>
</g>
<!-- obsspaceerrorstddev_mod&#45;&gt;timeCoord_mod -->
<g id="edge27" class="edge">
<title>obsspaceerrorstddev_mod&#45;&gt;timeCoord_mod</title>
<path fill="none" stroke="black" d="M1397.03,-210.17C1405.7,-201.4 1414.86,-190.88 1421.5,-180 1436.8,-154.95 1462.53,-72.34 1473.4,-36.19"/>
<ellipse fill="black" stroke="black" cx="1394.01" cy="-213.13" rx="4" ry="4"/>
</g>
<!-- obstimeinterp_mod -->
<g id="node29" class="node">
<title>obstimeinterp_mod</title>
<g id="a_node29"><a xlink:href="../modules/obstimeinterp_mod_rev.svg" xlink:title="obstimeinterp_mod">
<polygon fill="none" stroke="blue" points="1488.5,-324 1364.5,-324 1364.5,-288 1488.5,-288 1488.5,-324"/>
<text text-anchor="middle" x="1426.5" y="-302.3" font-family="Times,serif" font-size="14.00">obstimeinterp_mod</text>
</a>
</g>
</g>
<!-- obstimeinterp_mod&#45;&gt;timeCoord_mod -->
<g id="edge28" class="edge">
<title>obstimeinterp_mod&#45;&gt;timeCoord_mod</title>
<path fill="none" stroke="black" d="M1444.64,-281.26C1450.39,-272.51 1456.12,-262.23 1459.5,-252 1485.03,-174.73 1482.22,-75.57 1479.81,-36.21"/>
<ellipse fill="black" stroke="black" cx="1442.34" cy="-284.61" rx="4" ry="4"/>
</g>
<!-- oceanbackground_mod -->
<g id="node30" class="node">
<title>oceanbackground_mod</title>
<g id="a_node30"><a xlink:href="../modules/oceanbackground_mod_rev.svg" xlink:title="oceanbackground_mod">
<polygon fill="none" stroke="blue" points="1526.5,-396 1382.5,-396 1382.5,-360 1526.5,-360 1526.5,-396"/>
<text text-anchor="middle" x="1454.5" y="-374.3" font-family="Times,serif" font-size="14.00">oceanbackground_mod</text>
</a>
</g>
</g>
<!-- oceanbackground_mod&#45;&gt;timeCoord_mod -->
<g id="edge29" class="edge">
<title>oceanbackground_mod&#45;&gt;timeCoord_mod</title>
<path fill="none" stroke="black" d="M1477.3,-353.79C1484.74,-345.07 1492.4,-334.67 1497.5,-324 1514.95,-287.51 1516.5,-275.45 1516.5,-235 1516.5,-235 1516.5,-235 1516.5,-161 1516.5,-114.55 1497.29,-62.38 1486.19,-36.09"/>
<ellipse fill="black" stroke="black" cx="1474.6" cy="-356.84" rx="4" ry="4"/>
</g>
<!-- oceanobservations_mod -->
<g id="node31" class="node">
<title>oceanobservations_mod</title>
<g id="a_node31"><a xlink:href="../modules/oceanobservations_mod_rev.svg" xlink:title="oceanobservations_mod">
<polygon fill="none" stroke="blue" points="1565,-468 1416,-468 1416,-432 1565,-432 1565,-468"/>
<text text-anchor="middle" x="1490.5" y="-446.3" font-family="Times,serif" font-size="14.00">oceanobservations_mod</text>
</a>
</g>
</g>
<!-- oceanobservations_mod&#45;&gt;timeCoord_mod -->
<g id="edge30" class="edge">
<title>oceanobservations_mod&#45;&gt;timeCoord_mod</title>
<path fill="none" stroke="black" d="M1514.38,-425.95C1522.18,-417.24 1530.18,-406.81 1535.5,-396 1553.35,-359.71 1554.5,-347.45 1554.5,-307 1554.5,-307 1554.5,-307 1554.5,-161 1554.5,-110.95 1517.34,-61.47 1494.99,-36.23"/>
<ellipse fill="black" stroke="black" cx="1511.51" cy="-429.04" rx="4" ry="4"/>
</g>
<!-- ominusf_mod -->
<g id="node32" class="node">
<title>ominusf_mod</title>
<g id="a_node32"><a xlink:href="../modules/ominusf_mod_rev.svg" xlink:title="ominusf_mod">
<polygon fill="none" stroke="blue" points="1602,-540 1509,-540 1509,-504 1602,-504 1602,-540"/>
<text text-anchor="middle" x="1555.5" y="-518.3" font-family="Times,serif" font-size="14.00">ominusf_mod</text>
</a>
</g>
</g>
<!-- ominusf_mod&#45;&gt;timeCoord_mod -->
<g id="edge31" class="edge">
<title>ominusf_mod&#45;&gt;timeCoord_mod</title>
<path fill="none" stroke="black" d="M1566.07,-496.19C1577.01,-468.24 1592.5,-421.2 1592.5,-379 1592.5,-379 1592.5,-379 1592.5,-161 1592.5,-105.67 1539.23,-59.63 1505.52,-36.04"/>
<ellipse fill="black" stroke="black" cx="1564.48" cy="-500.17" rx="4" ry="4"/>
</g>
<!-- sqlitefiles_mod -->
<g id="node33" class="node">
<title>sqlitefiles_mod</title>
<g id="a_node33"><a xlink:href="../modules/sqlitefiles_mod_rev.svg" xlink:title="sqlitefiles_mod">
<polygon fill="none" stroke="blue" points="1680.5,-612 1580.5,-612 1580.5,-576 1680.5,-576 1680.5,-612"/>
<text text-anchor="middle" x="1630.5" y="-590.3" font-family="Times,serif" font-size="14.00">sqlitefiles_mod</text>
</a>
</g>
</g>
<!-- sqlitefiles_mod&#45;&gt;timeCoord_mod -->
<g id="edge32" class="edge">
<title>sqlitefiles_mod&#45;&gt;timeCoord_mod</title>
<path fill="none" stroke="black" d="M1630.5,-567.78C1630.5,-539.39 1630.5,-491.89 1630.5,-451 1630.5,-451 1630.5,-451 1630.5,-161 1630.5,-100.15 1564.65,-57.88 1519.63,-36.1"/>
<ellipse fill="black" stroke="black" cx="1630.5" cy="-571.95" rx="4" ry="4"/>
</g>
<!-- sstbias_mod -->
<g id="node34" class="node">
<title>sstbias_mod</title>
<g id="a_node34"><a xlink:href="../modules/sstbias_mod_rev.svg" xlink:title="sstbias_mod">
<polygon fill="none" stroke="blue" points="1742.5,-108 1658.5,-108 1658.5,-72 1742.5,-72 1742.5,-108"/>
<text text-anchor="middle" x="1700.5" y="-86.3" font-family="Times,serif" font-size="14.00">sstbias_mod</text>
</a>
</g>
</g>
<!-- sstbias_mod&#45;&gt;timeCoord_mod -->
<g id="edge33" class="edge">
<title>sstbias_mod&#45;&gt;timeCoord_mod</title>
<path fill="none" stroke="black" d="M1650.7,-73.3C1615.45,-62.18 1568.22,-47.29 1532.14,-35.91"/>
<ellipse fill="black" stroke="black" cx="1654.67" cy="-74.55" rx="4" ry="4"/>
</g>
<!-- thinning_mod -->
<g id="node35" class="node">
<title>thinning_mod</title>
<g id="a_node35"><a xlink:href="../modules/thinning_mod_rev.svg" xlink:title="thinning_mod">
<polygon fill="none" stroke="blue" points="1780,-180 1687,-180 1687,-144 1780,-144 1780,-180"/>
<text text-anchor="middle" x="1733.5" y="-158.3" font-family="Times,serif" font-size="14.00">thinning_mod</text>
</a>
</g>
</g>
<!-- thinning_mod&#45;&gt;timeCoord_mod -->
<g id="edge34" class="edge">
<title>thinning_mod&#45;&gt;timeCoord_mod</title>
<path fill="none" stroke="black" d="M1748.14,-136.84C1757.9,-117.29 1766.44,-90.12 1751.5,-72 1724.24,-38.94 1603.54,-26.25 1532.08,-21.57"/>
<ellipse fill="black" stroke="black" cx="1746.26" cy="-140.39" rx="4" ry="4"/>
</g>
<!-- var1d_mod -->
<g id="node36" class="node">
<title>var1d_mod</title>
<g id="a_node36"><a xlink:href="../modules/var1d_mod_rev.svg" xlink:title="var1d_mod">
<polygon fill="none" stroke="blue" points="1818,-252 1739,-252 1739,-216 1818,-216 1818,-252"/>
<text text-anchor="middle" x="1778.5" y="-230.3" font-family="Times,serif" font-size="14.00">var1d_mod</text>
</a>
</g>
</g>
<!-- var1d_mod&#45;&gt;timeCoord_mod -->
<g id="edge35" class="edge">
<title>var1d_mod&#45;&gt;timeCoord_mod</title>
<path fill="none" stroke="black" d="M1786.59,-207.72C1796.33,-171.75 1807.18,-106.36 1770.5,-72 1736.75,-40.39 1606.77,-27.05 1532.1,-21.9"/>
<ellipse fill="black" stroke="black" cx="1785.39" cy="-211.93" rx="4" ry="4"/>
</g>
<!-- verticalmodes_mod -->
<g id="node37" class="node">
<title>verticalmodes_mod</title>
<g id="a_node37"><a xlink:href="../modules/verticalmodes_mod_rev.svg" xlink:title="verticalmodes_mod">
<polygon fill="none" stroke="blue" points="1856,-324 1731,-324 1731,-288 1856,-288 1856,-324"/>
<text text-anchor="middle" x="1793.5" y="-302.3" font-family="Times,serif" font-size="14.00">verticalmodes_mod</text>
</a>
</g>
</g>
<!-- verticalmodes_mod&#45;&gt;timeCoord_mod -->
<g id="edge36" class="edge">
<title>verticalmodes_mod&#45;&gt;timeCoord_mod</title>
<path fill="none" stroke="black" d="M1812.39,-280.98C1818.08,-272.34 1823.58,-262.2 1826.5,-252 1842.93,-194.54 1818.02,-93.5 1795.5,-72 1758.57,-36.75 1612.45,-24.81 1532.12,-20.87"/>
<ellipse fill="black" stroke="black" cx="1810.1" cy="-284.28" rx="4" ry="4"/>
</g>
<!-- midas_midas_adjointtest -->
<g id="node38" class="node">
<title>midas_midas_adjointtest</title>
<g id="a_node38"><a xlink:href="../programs/midas_adjointtest.html" xlink:title="midas_midas_adjointtest">
<polygon fill="gray" stroke="green" points="1894.5,-396 1742.5,-396 1742.5,-360 1894.5,-360 1894.5,-396"/>
<text text-anchor="middle" x="1818.5" y="-374.3" font-family="Times,serif" font-size="14.00">midas_midas_adjointtest</text>
</a>
</g>
</g>
<!-- midas_midas_adjointtest&#45;&gt;timeCoord_mod -->
<g id="edge37" class="edge">
<title>midas_midas_adjointtest&#45;&gt;timeCoord_mod</title>
<path fill="none" stroke="black" d="M1843.24,-353.58C1851.08,-344.96 1859.11,-334.68 1864.5,-324 1882.79,-287.82 1884.5,-275.54 1884.5,-235 1884.5,-235 1884.5,-235 1884.5,-161 1884.5,-112.02 1861.33,-97.48 1819.5,-72 1772.23,-43.21 1615.59,-28.37 1532.06,-22.34"/>
<ellipse fill="black" stroke="black" cx="1840.35" cy="-356.64" rx="4" ry="4"/>
</g>
<!-- midas_midas_analysiserroroi -->
<g id="node39" class="node">
<title>midas_midas_analysiserroroi</title>
<g id="a_node39"><a xlink:href="../programs/midas_analysiserroroi.html" xlink:title="midas_midas_analysiserroroi">
<polygon fill="gray" stroke="green" points="1933,-468 1756,-468 1756,-432 1933,-432 1933,-468"/>
<text text-anchor="middle" x="1844.5" y="-446.3" font-family="Times,serif" font-size="14.00">midas_midas_analysiserroroi</text>
</a>
</g>
</g>
<!-- midas_midas_analysiserroroi&#45;&gt;timeCoord_mod -->
<g id="edge38" class="edge">
<title>midas_midas_analysiserroroi&#45;&gt;timeCoord_mod</title>
<path fill="none" stroke="black" d="M1876.29,-426.84C1886.4,-418.3 1896.7,-407.74 1903.5,-396 1923.76,-360.99 1922.5,-347.45 1922.5,-307 1922.5,-307 1922.5,-307 1922.5,-161 1922.5,-112.28 1900.21,-97.17 1858.5,-72 1804.68,-39.52 1623.65,-26.12 1532.25,-21.33"/>
<ellipse fill="black" stroke="black" cx="1873.16" cy="-429.38" rx="4" ry="4"/>
</g>
<!-- midas_midas_calcstats -->
<g id="node40" class="node">
<title>midas_midas_calcstats</title>
<g id="a_node40"><a xlink:href="../programs/midas_calcstats.html" xlink:title="midas_midas_calcstats">
<polygon fill="gray" stroke="green" points="1970.5,-540 1828.5,-540 1828.5,-504 1970.5,-504 1970.5,-540"/>
<text text-anchor="middle" x="1899.5" y="-518.3" font-family="Times,serif" font-size="14.00">midas_midas_calcstats</text>
</a>
</g>
</g>
<!-- midas_midas_calcstats&#45;&gt;timeCoord_mod -->
<g id="edge39" class="edge">
<title>midas_midas_calcstats&#45;&gt;timeCoord_mod</title>
<path fill="none" stroke="black" d="M1921.97,-497.46C1929.17,-488.78 1936.56,-478.49 1941.5,-468 1958.74,-431.41 1960.5,-419.45 1960.5,-379 1960.5,-379 1960.5,-379 1960.5,-161 1960.5,-112.28 1938.37,-96.91 1896.5,-72 1836.07,-36.04 1630.67,-24.2 1532.11,-20.53"/>
<ellipse fill="black" stroke="black" cx="1919.15" cy="-500.73" rx="4" ry="4"/>
</g>
<!-- midas_midas_diagbmatrix -->
<g id="node41" class="node">
<title>midas_midas_diagbmatrix</title>
<g id="a_node41"><a xlink:href="../programs/midas_diagbmatrix.html" xlink:title="midas_midas_diagbmatrix">
<polygon fill="gray" stroke="green" points="2080,-612 1917,-612 1917,-576 2080,-576 2080,-612"/>
<text text-anchor="middle" x="1998.5" y="-590.3" font-family="Times,serif" font-size="14.00">midas_midas_diagbmatrix</text>
</a>
</g>
</g>
<!-- midas_midas_diagbmatrix&#45;&gt;timeCoord_mod -->
<g id="edge40" class="edge">
<title>midas_midas_diagbmatrix&#45;&gt;timeCoord_mod</title>
<path fill="none" stroke="black" d="M1998.5,-567.78C1998.5,-539.39 1998.5,-491.89 1998.5,-451 1998.5,-451 1998.5,-451 1998.5,-161 1998.5,-112.28 1976.5,-96.69 1934.5,-72 1867.43,-32.56 1637.41,-22.45 1532.02,-19.87"/>
<ellipse fill="black" stroke="black" cx="1998.5" cy="-571.95" rx="4" ry="4"/>
</g>
<!-- midas_midas_diaghbht -->
<g id="node42" class="node">
<title>midas_midas_diaghbht</title>
<g id="a_node42"><a xlink:href="../programs/midas_diaghbht.html" xlink:title="midas_midas_diaghbht">
<polygon fill="gray" stroke="green" points="2170,-108 2027,-108 2027,-72 2170,-72 2170,-108"/>
<text text-anchor="middle" x="2098.5" y="-86.3" font-family="Times,serif" font-size="14.00">midas_midas_diaghbht</text>
</a>
</g>
</g>
<!-- midas_midas_diaghbht&#45;&gt;timeCoord_mod -->
<g id="edge41" class="edge">
<title>midas_midas_diaghbht&#45;&gt;timeCoord_mod</title>
<path fill="none" stroke="black" d="M2018.69,-72.95C2016.61,-72.62 2014.54,-72.3 2012.5,-72 1837.63,-46.1 1628.61,-29.48 1532.14,-22.61"/>
<ellipse fill="black" stroke="black" cx="2022.85" cy="-73.64" rx="4" ry="4"/>
</g>
<!-- midas_midas_ensembleh -->
<g id="node43" class="node">
<title>midas_midas_ensembleh</title>
<g id="a_node43"><a xlink:href="../programs/midas_ensembleh.html" xlink:title="midas_midas_ensembleh">
<polygon fill="gray" stroke="green" points="2208,-180 2053,-180 2053,-144 2208,-144 2208,-180"/>
<text text-anchor="middle" x="2130.5" y="-158.3" font-family="Times,serif" font-size="14.00">midas_midas_ensembleh</text>
</a>
</g>
</g>
<!-- midas_midas_ensembleh&#45;&gt;timeCoord_mod -->
<g id="edge42" class="edge">
<title>midas_midas_ensembleh&#45;&gt;timeCoord_mod</title>
<path fill="none" stroke="black" d="M2157.41,-137.96C2176.73,-118.71 2196.46,-91.37 2178.5,-72 2134.82,-24.88 1688.13,-19.43 1532.01,-18.97"/>
<ellipse fill="black" stroke="black" cx="2154.36" cy="-140.89" rx="4" ry="4"/>
</g>
<!-- midas_midas_enspostprocess -->
<g id="node44" class="node">
<title>midas_midas_enspostprocess</title>
<g id="a_node44"><a xlink:href="../programs/midas_enspostprocess.html" xlink:title="midas_midas_enspostprocess">
<polygon fill="gray" stroke="green" points="2247,-252 2070,-252 2070,-216 2247,-216 2247,-252"/>
<text text-anchor="middle" x="2158.5" y="-230.3" font-family="Times,serif" font-size="14.00">midas_midas_enspostprocess</text>
</a>
</g>
</g>
<!-- midas_midas_enspostprocess&#45;&gt;timeCoord_mod -->
<g id="edge43" class="edge">
<title>midas_midas_enspostprocess&#45;&gt;timeCoord_mod</title>
<path fill="none" stroke="black" d="M2192.22,-210.59C2201.91,-202.25 2211.26,-191.88 2216.5,-180 2236.19,-135.33 2234.25,-102.95 2196.5,-72 2145.48,-30.17 1690.27,-21.29 1532.25,-19.46"/>
<ellipse fill="black" stroke="black" cx="2188.94" cy="-213.25" rx="4" ry="4"/>
</g>
<!-- midas_midas_extractbmatrixfor1dvar -->
<g id="node45" class="node">
<title>midas_midas_extractbmatrixfor1dvar</title>
<g id="a_node45"><a xlink:href="../programs/midas_extractbmatrixfor1dvar.html" xlink:title="midas_midas_extractbmatrixfor1dvar">
<polygon fill="gray" stroke="green" points="2284,-324 2061,-324 2061,-288 2284,-288 2284,-324"/>
<text text-anchor="middle" x="2172.5" y="-302.3" font-family="Times,serif" font-size="14.00">midas_midas_extractbmatrixfor1dvar</text>
</a>
</g>
</g>
<!-- midas_midas_extractbmatrixfor1dvar&#45;&gt;timeCoord_mod -->
<g id="edge44" class="edge">
<title>midas_midas_extractbmatrixfor1dvar&#45;&gt;timeCoord_mod</title>
<path fill="none" stroke="black" d="M2223.22,-283.69C2236.04,-275.72 2248.22,-265.28 2255.5,-252 2282.31,-203.07 2289.5,-128.42 2224.5,-72 2172.5,-26.87 1694.47,-20.14 1532.14,-19.16"/>
<ellipse fill="black" stroke="black" cx="2219.52" cy="-285.85" rx="4" ry="4"/>
</g>
<!-- midas_midas_gencoeff -->
<g id="node46" class="node">
<title>midas_midas_gencoeff</title>
<g id="a_node46"><a xlink:href="../programs/midas_gencoeff.html" xlink:title="midas_midas_gencoeff">
<polygon fill="gray" stroke="green" points="2322,-396 2179,-396 2179,-360 2322,-360 2322,-396"/>
<text text-anchor="middle" x="2250.5" y="-374.3" font-family="Times,serif" font-size="14.00">midas_midas_gencoeff</text>
</a>
</g>
</g>
<!-- midas_midas_gencoeff&#45;&gt;timeCoord_mod -->
<g id="edge45" class="edge">
<title>midas_midas_gencoeff&#45;&gt;timeCoord_mod</title>
<path fill="none" stroke="black" d="M2272.9,-353.43C2280.1,-344.75 2287.5,-334.47 2292.5,-324 2309.97,-287.42 2312.5,-275.54 2312.5,-235 2312.5,-235 2312.5,-235 2312.5,-161 2312.5,-113.79 2295.22,-95.9 2254.5,-72 2192.56,-35.65 1697.62,-23.11 1532.16,-19.91"/>
<ellipse fill="black" stroke="black" cx="2270.09" cy="-356.7" rx="4" ry="4"/>
</g>
<!-- midas_midas_letkf -->
<g id="node47" class="node">
<title>midas_midas_letkf</title>
<g id="a_node47"><a xlink:href="../programs/midas_letkf.html" xlink:title="midas_midas_letkf">
<polygon fill="gray" stroke="green" points="2360.5,-468 2238.5,-468 2238.5,-432 2360.5,-432 2360.5,-468"/>
<text text-anchor="middle" x="2299.5" y="-446.3" font-family="Times,serif" font-size="14.00">midas_midas_letkf</text>
</a>
</g>
</g>
<!-- midas_midas_letkf&#45;&gt;timeCoord_mod -->
<g id="edge46" class="edge">
<title>midas_midas_letkf&#45;&gt;timeCoord_mod</title>
<path fill="none" stroke="black" d="M2315.9,-424.58C2321.18,-415.85 2326.66,-405.76 2330.5,-396 2345.35,-358.28 2350.5,-347.54 2350.5,-307 2350.5,-307 2350.5,-307 2350.5,-161 2350.5,-113.54 2332.56,-95.8 2291.5,-72 2226.1,-34.1 1703.12,-22.54 1532.28,-19.76"/>
<ellipse fill="black" stroke="black" cx="2313.67" cy="-428.15" rx="4" ry="4"/>
</g>
<!-- midas_midas_obsimpact -->
<g id="node48" class="node">
<title>midas_midas_obsimpact</title>
<g id="a_node48"><a xlink:href="../programs/midas_obsimpact.html" xlink:title="midas_midas_obsimpact">
<polygon fill="gray" stroke="green" points="2398.5,-540 2246.5,-540 2246.5,-504 2398.5,-504 2398.5,-540"/>
<text text-anchor="middle" x="2322.5" y="-518.3" font-family="Times,serif" font-size="14.00">midas_midas_obsimpact</text>
</a>
</g>
</g>
<!-- midas_midas_obsimpact&#45;&gt;timeCoord_mod -->
<g id="edge47" class="edge">
<title>midas_midas_obsimpact&#45;&gt;timeCoord_mod</title>
<path fill="none" stroke="black" d="M2347.86,-497.69C2355.87,-489.08 2364.05,-478.78 2369.5,-468 2387.74,-431.9 2388.5,-419.45 2388.5,-379 2388.5,-379 2388.5,-379 2388.5,-161 2388.5,-113.3 2369.9,-95.7 2328.5,-72 2259.61,-32.56 1708.16,-21.99 1532.23,-19.61"/>
<ellipse fill="black" stroke="black" cx="2344.87" cy="-500.77" rx="4" ry="4"/>
</g>
<!-- midas_midas_obsselection -->
<g id="node49" class="node">
<title>midas_midas_obsselection</title>
<g id="a_node49"><a xlink:href="../programs/midas_obsselection.html" xlink:title="midas_midas_obsselection">
<polygon fill="gray" stroke="green" points="2508,-612 2345,-612 2345,-576 2508,-576 2508,-612"/>
<text text-anchor="middle" x="2426.5" y="-590.3" font-family="Times,serif" font-size="14.00">midas_midas_obsselection</text>
</a>
</g>
</g>
<!-- midas_midas_obsselection&#45;&gt;timeCoord_mod -->
<g id="edge48" class="edge">
<title>midas_midas_obsselection&#45;&gt;timeCoord_mod</title>
<path fill="none" stroke="black" d="M2426.5,-567.78C2426.5,-539.39 2426.5,-491.89 2426.5,-451 2426.5,-451 2426.5,-451 2426.5,-161 2426.5,-113.05 2407.24,-95.61 2365.5,-72 2293.08,-31.03 1712.72,-21.47 1532.01,-19.48"/>
<ellipse fill="black" stroke="black" cx="2426.5" cy="-571.95" rx="4" ry="4"/>
</g>
<!-- midas_midas_prepcma -->
<g id="node50" class="node">
<title>midas_midas_prepcma</title>
<g id="a_node50"><a xlink:href="../programs/midas_prepcma.html" xlink:title="midas_midas_prepcma">
<polygon fill="gray" stroke="green" points="2598,-108 2455,-108 2455,-72 2598,-72 2598,-108"/>
<text text-anchor="middle" x="2526.5" y="-86.3" font-family="Times,serif" font-size="14.00">midas_midas_prepcma</text>
</a>
</g>
</g>
<!-- midas_midas_prepcma&#45;&gt;timeCoord_mod -->
<g id="edge49" class="edge">
<title>midas_midas_prepcma&#45;&gt;timeCoord_mod</title>
<path fill="none" stroke="black" d="M2446.71,-72.83C2444.62,-72.54 2442.55,-72.26 2440.5,-72 2096.34,-28.72 1678.5,-20.78 1532.19,-19.33"/>
<ellipse fill="black" stroke="black" cx="2450.87" cy="-73.46" rx="4" ry="4"/>
</g>
<!-- midas_midas_randompert -->
<g id="node51" class="node">
<title>midas_midas_randompert</title>
<g id="a_node51"><a xlink:href="../programs/midas_randompert.html" xlink:title="midas_midas_randompert">
<polygon fill="gray" stroke="green" points="2637,-180 2478,-180 2478,-144 2637,-144 2637,-180"/>
<text text-anchor="middle" x="2557.5" y="-158.3" font-family="Times,serif" font-size="14.00">midas_midas_randompert</text>
</a>
</g>
</g>
<!-- midas_midas_randompert&#45;&gt;timeCoord_mod -->
<g id="edge50" class="edge">
<title>midas_midas_randompert&#45;&gt;timeCoord_mod</title>
<path fill="none" stroke="black" d="M2584.61,-138.22C2604.44,-118.9 2624.93,-91.31 2606.5,-72 2569.01,-32.7 1751.02,-21.72 1532.02,-19.48"/>
<ellipse fill="black" stroke="black" cx="2581.44" cy="-141.2" rx="4" ry="4"/>
</g>
<!-- midas_midas_sstbias -->
<g id="node52" class="node">
<title>midas_midas_sstbias</title>
<g id="a_node52"><a xlink:href="../programs/midas_sstbias.html" xlink:title="midas_midas_sstbias">
<polygon fill="gray" stroke="green" points="2674.5,-252 2542.5,-252 2542.5,-216 2674.5,-216 2674.5,-252"/>
<text text-anchor="middle" x="2608.5" y="-230.3" font-family="Times,serif" font-size="14.00">midas_midas_sstbias</text>
</a>
</g>
</g>
<!-- midas_midas_sstbias&#45;&gt;timeCoord_mod -->
<g id="edge51" class="edge">
<title>midas_midas_sstbias&#45;&gt;timeCoord_mod</title>
<path fill="none" stroke="black" d="M2629.64,-209.3C2636.02,-200.68 2642.21,-190.47 2645.5,-180 2660.17,-133.35 2662.93,-102.24 2624.5,-72 2581.11,-37.86 1753.02,-23.1 1532.22,-19.76"/>
<ellipse fill="black" stroke="black" cx="2627" cy="-212.69" rx="4" ry="4"/>
</g>
<!-- midas_midas_ssttrial -->
<g id="node53" class="node">
<title>midas_midas_ssttrial</title>
<g id="a_node53"><a xlink:href="../programs/midas_ssttrial.html" xlink:title="midas_midas_ssttrial">
<polygon fill="gray" stroke="green" points="2712,-324 2579,-324 2579,-288 2712,-288 2712,-324"/>
<text text-anchor="middle" x="2645.5" y="-302.3" font-family="Times,serif" font-size="14.00">midas_midas_ssttrial</text>
</a>
</g>
</g>
<!-- midas_midas_ssttrial&#45;&gt;timeCoord_mod -->
<g id="edge52" class="edge">
<title>midas_midas_ssttrial&#45;&gt;timeCoord_mod</title>
<path fill="none" stroke="black" d="M2667.01,-281.64C2673.63,-272.98 2680.08,-262.65 2683.5,-252 2701.69,-195.42 2682.21,-97.13 2652.5,-72 2609.22,-35.4 1756.23,-22.4 1532.08,-19.61"/>
<ellipse fill="black" stroke="black" cx="2664.47" cy="-284.8" rx="4" ry="4"/>
</g>
<!-- midas_midas_thinning -->
<g id="node54" class="node">
<title>midas_midas_thinning</title>
<g id="a_node54"><a xlink:href="../programs/midas_thinning.html" xlink:title="midas_midas_thinning">
<polygon fill="gray" stroke="green" points="2780,-396 2639,-396 2639,-360 2780,-360 2780,-396"/>
<text text-anchor="middle" x="2709.5" y="-374.3" font-family="Times,serif" font-size="14.00">midas_midas_thinning</text>
</a>
</g>
</g>
<!-- midas_midas_thinning&#45;&gt;timeCoord_mod -->
<g id="edge53" class="edge">
<title>midas_midas_thinning&#45;&gt;timeCoord_mod</title>
<path fill="none" stroke="black" d="M2718.36,-352.04C2727.52,-323.96 2740.5,-276.8 2740.5,-235 2740.5,-235 2740.5,-235 2740.5,-161 2740.5,-112.54 2720.04,-95.21 2677.5,-72 2576.16,-16.7 1751.66,-17.43 1532.07,-18.62"/>
<ellipse fill="black" stroke="black" cx="2717.04" cy="-355.98" rx="4" ry="4"/>
</g>
<!-- midas_midas_var1d -->
<g id="node55" class="node">
<title>midas_midas_var1d</title>
<g id="a_node55"><a xlink:href="../programs/midas_var1d.html" xlink:title="midas_midas_var1d">
<polygon fill="gray" stroke="green" points="2872,-468 2745,-468 2745,-432 2872,-432 2872,-468"/>
<text text-anchor="middle" x="2808.5" y="-446.3" font-family="Times,serif" font-size="14.00">midas_midas_var1d</text>
</a>
</g>
</g>
<!-- midas_midas_var1d&#45;&gt;timeCoord_mod -->
<g id="edge54" class="edge">
<title>midas_midas_var1d&#45;&gt;timeCoord_mod</title>
<path fill="none" stroke="black" d="M2808.5,-423.78C2808.5,-395.39 2808.5,-347.89 2808.5,-307 2808.5,-307 2808.5,-307 2808.5,-161 2808.5,-103.79 2768.12,-94.44 2715.5,-72 2605.76,-25.2 1756.11,-19.71 1532.36,-19.08"/>
<ellipse fill="black" stroke="black" cx="2808.5" cy="-427.95" rx="4" ry="4"/>
</g>
<!-- midas_midas_var -->
<g id="node56" class="node">
<title>midas_midas_var</title>
<g id="a_node56"><a xlink:href="../programs/midas_var.html" xlink:title="midas_midas_var">
<polygon fill="gray" stroke="green" points="2957,-540 2844,-540 2844,-504 2957,-504 2957,-540"/>
<text text-anchor="middle" x="2900.5" y="-518.3" font-family="Times,serif" font-size="14.00">midas_midas_var</text>
</a>
</g>
</g>
<!-- midas_midas_var&#45;&gt;timeCoord_mod -->
<g id="edge55" class="edge">
<title>midas_midas_var&#45;&gt;timeCoord_mod</title>
<path fill="none" stroke="black" d="M2900.5,-495.78C2900.5,-467.39 2900.5,-419.89 2900.5,-379 2900.5,-379 2900.5,-379 2900.5,-161 2900.5,-89.13 2833.9,-94.06 2765.5,-72 2647.05,-33.79 1761.31,-21.96 1532.38,-19.52"/>
<ellipse fill="black" stroke="black" cx="2900.5" cy="-499.95" rx="4" ry="4"/>
</g>
</g>
</svg>
