<?xml version="1.0" encoding="UTF-8" standalone="no"?>
<!DOCTYPE svg PUBLIC "-//W3C//DTD SVG 1.1//EN"
 "http://www.w3.org/Graphics/SVG/1.1/DTD/svg11.dtd">
<!-- Generated by graphviz version 3.0.0 (20220315.2325)
 -->
<!-- Title: tovsNL_mod Pages: 1 -->
<svg width="893pt" height="673pt"
 viewBox="0.00 0.00 892.50 673.00" xmlns="http://www.w3.org/2000/svg" xmlns:xlink="http://www.w3.org/1999/xlink">
<g id="graph0" class="graph" transform="scale(1 1) rotate(0) translate(4 669)">
<title>tovsNL_mod</title>
<polygon fill="white" stroke="transparent" points="-4,4 -4,-669 888.5,-669 888.5,4 -4,4"/>
<text text-anchor="middle" x="442.25" y="-37.8" font-family="Times,serif" font-size="14.00">Red boxes indicate modules with dependencies not shown</text>
<text text-anchor="middle" x="442.25" y="-22.8" font-family="Times,serif" font-size="14.00">Lower level dependencies can be shown by clicking on a red box</text>
<text text-anchor="middle" x="442.25" y="-7.8" font-family="Times,serif" font-size="14.00">Shaded boxes indicate modules with no dependencies</text>
<!-- tovsNL_mod -->
<g id="node1" class="node">
<title>tovsNL_mod</title>
<g id="a_node1"><a xlink:href="tovsNL_mod.html" xlink:title="tovsNL_mod">
<polygon fill="none" stroke="black" points="440,-665 351,-665 351,-629 440,-629 440,-665"/>
<text text-anchor="middle" x="395.5" y="-643.3" font-family="Times,serif" font-size="14.00">tovsNL_mod</text>
</a>
</g>
</g>
<!-- codeprecision_mod -->
<g id="node2" class="node">
<title>codeprecision_mod</title>
<g id="a_node2"><a xlink:href="codeprecision_mod.html" xlink:title="codeprecision_mod">
<polygon fill="gray" stroke="black" points="123,-593 0,-593 0,-557 123,-557 123,-593"/>
<text text-anchor="middle" x="61.5" y="-571.3" font-family="Times,serif" font-size="14.00">codeprecision_mod</text>
</a>
</g>
</g>
<!-- tovsNL_mod&#45;&gt;codeprecision_mod -->
<g id="edge1" class="edge">
<title>tovsNL_mod&#45;&gt;codeprecision_mod</title>
<path fill="none" stroke="black" d="M350.71,-637.04C299.21,-626.69 212.17,-609.02 137.5,-593 136.05,-592.69 134.59,-592.38 133.12,-592.06"/>
<polygon fill="black" stroke="black" points="133.8,-588.62 123.28,-589.91 132.31,-595.46 133.8,-588.62"/>
</g>
<!-- codtyp_mod -->
<g id="node3" class="node">
<title>codtyp_mod</title>
<g id="a_node3"><a xlink:href="../modules/codtyp_mod.svg" xlink:title="codtyp_mod">
<polygon fill="none" stroke="red" points="177,-521 92,-521 92,-485 177,-485 177,-521"/>
<text text-anchor="middle" x="134.5" y="-499.3" font-family="Times,serif" font-size="14.00">codtyp_mod</text>
</a>
</g>
</g>
<!-- tovsNL_mod&#45;&gt;codtyp_mod -->
<g id="edge2" class="edge">
<title>tovsNL_mod&#45;&gt;codtyp_mod</title>
<path fill="none" stroke="black" d="M350.95,-643.74C306.73,-639.49 238.89,-627.38 191.5,-593 169.8,-577.26 154.31,-550.5 145,-530.42"/>
<polygon fill="black" stroke="black" points="148.16,-528.92 140.93,-521.18 141.76,-531.74 148.16,-528.92"/>
</g>
<!-- columndata_mod -->
<g id="node4" class="node">
<title>columndata_mod</title>
<g id="a_node4"><a xlink:href="../modules/columndata_mod.svg" xlink:title="columndata_mod">
<polygon fill="none" stroke="red" points="215.5,-449 103.5,-449 103.5,-413 215.5,-413 215.5,-449"/>
<text text-anchor="middle" x="159.5" y="-427.3" font-family="Times,serif" font-size="14.00">columndata_mod</text>
</a>
</g>
</g>
<!-- tovsNL_mod&#45;&gt;columndata_mod -->
<g id="edge3" class="edge">
<title>tovsNL_mod&#45;&gt;columndata_mod</title>
<path fill="none" stroke="black" d="M350.82,-642.11C314.08,-636.71 262.81,-623.82 229.5,-593 191.45,-557.8 206.7,-532.29 185.5,-485 181.54,-476.17 176.96,-466.64 172.76,-458.13"/>
<polygon fill="black" stroke="black" points="175.83,-456.43 168.23,-449.04 169.56,-459.55 175.83,-456.43"/>
</g>
<!-- earthconstants_mod -->
<g id="node5" class="node">
<title>earthconstants_mod</title>
<g id="a_node5"><a xlink:href="../modules/earthconstants_mod.svg" xlink:title="earthconstants_mod">
<polygon fill="none" stroke="red" points="253.5,-377 127.5,-377 127.5,-341 253.5,-341 253.5,-377"/>
<text text-anchor="middle" x="190.5" y="-355.3" font-family="Times,serif" font-size="14.00">earthconstants_mod</text>
</a>
</g>
</g>
<!-- tovsNL_mod&#45;&gt;earthconstants_mod -->
<g id="edge4" class="edge">
<title>tovsNL_mod&#45;&gt;earthconstants_mod</title>
<path fill="none" stroke="black" d="M350.87,-638.23C323.02,-631.09 288.58,-617.7 267.5,-593 214.11,-530.43 256.71,-488.68 224.5,-413 220.5,-403.59 214.88,-393.99 209.36,-385.58"/>
<polygon fill="black" stroke="black" points="212.25,-383.6 203.72,-377.32 206.47,-387.55 212.25,-383.6"/>
</g>
<!-- humiditylimits_mod -->
<g id="node6" class="node">
<title>humiditylimits_mod</title>
<g id="a_node6"><a xlink:href="../modules/humiditylimits_mod.svg" xlink:title="humiditylimits_mod">
<polygon fill="none" stroke="red" points="291,-305 162,-305 162,-269 291,-269 291,-305"/>
<text text-anchor="middle" x="226.5" y="-283.3" font-family="Times,serif" font-size="14.00">humiditylimits_mod</text>
</a>
</g>
</g>
<!-- tovsNL_mod&#45;&gt;humiditylimits_mod -->
<g id="edge5" class="edge">
<title>tovsNL_mod&#45;&gt;humiditylimits_mod</title>
<path fill="none" stroke="black" d="M351.94,-628.96C335.24,-620.45 317.37,-608.58 305.5,-593 280.67,-560.41 281.5,-544.97 281.5,-504 281.5,-504 281.5,-504 281.5,-430 281.5,-389.55 278.38,-378.2 262.5,-341 258.42,-331.43 252.51,-321.78 246.66,-313.39"/>
<polygon fill="black" stroke="black" points="249.38,-311.17 240.66,-305.15 243.72,-315.29 249.38,-311.17"/>
</g>
<!-- interpolation_mod -->
<g id="node7" class="node">
<title>interpolation_mod</title>
<g id="a_node7"><a xlink:href="../modules/interpolation_mod.svg" xlink:title="interpolation_mod">
<polygon fill="none" stroke="red" points="329.5,-233 211.5,-233 211.5,-197 329.5,-197 329.5,-233"/>
<text text-anchor="middle" x="270.5" y="-211.3" font-family="Times,serif" font-size="14.00">interpolation_mod</text>
</a>
</g>
</g>
<!-- tovsNL_mod&#45;&gt;interpolation_mod -->
<g id="edge6" class="edge">
<title>tovsNL_mod&#45;&gt;interpolation_mod</title>
<path fill="none" stroke="black" d="M374.09,-628.86C363.49,-619.33 351.31,-606.65 343.5,-593 323.16,-557.44 319.5,-544.97 319.5,-504 319.5,-504 319.5,-504 319.5,-358 319.5,-317.46 313.81,-306.93 299.5,-269 296.06,-259.87 291.29,-250.38 286.61,-242"/>
<polygon fill="black" stroke="black" points="289.49,-239.98 281.44,-233.08 283.43,-243.49 289.49,-239.98"/>
</g>
<!-- mathphysconstants_mod -->
<g id="node8" class="node">
<title>mathphysconstants_mod</title>
<g id="a_node8"><a xlink:href="mathphysconstants_mod.html" xlink:title="mathphysconstants_mod">
<polygon fill="gray" stroke="black" points="367.5,-161 215.5,-161 215.5,-125 367.5,-125 367.5,-161"/>
<text text-anchor="middle" x="291.5" y="-139.3" font-family="Times,serif" font-size="14.00">mathphysconstants_mod</text>
</a>
</g>
</g>
<!-- tovsNL_mod&#45;&gt;mathphysconstants_mod -->
<g id="edge7" class="edge">
<title>tovsNL_mod&#45;&gt;mathphysconstants_mod</title>
<path fill="none" stroke="black" d="M387.81,-628.91C376.71,-602.62 357.5,-550.45 357.5,-504 357.5,-504 357.5,-504 357.5,-286 357.5,-245.55 356.74,-233.1 338.5,-197 333.32,-186.75 325.66,-176.92 318.03,-168.57"/>
<polygon fill="black" stroke="black" points="320.54,-166.14 311.09,-161.35 315.49,-170.99 320.54,-166.14"/>
</g>
<!-- midasmpi_mod -->
<g id="node9" class="node">
<title>midasmpi_mod</title>
<g id="a_node9"><a xlink:href="../modules/midasmpi_mod.svg" xlink:title="midasmpi_mod">
<polygon fill="none" stroke="red" points="446.5,-89 344.5,-89 344.5,-53 446.5,-53 446.5,-89"/>
<text text-anchor="middle" x="395.5" y="-67.3" font-family="Times,serif" font-size="14.00">midasmpi_mod</text>
</a>
</g>
</g>
<!-- tovsNL_mod&#45;&gt;midasmpi_mod -->
<g id="edge8" class="edge">
<title>tovsNL_mod&#45;&gt;midasmpi_mod</title>
<path fill="none" stroke="black" d="M395.5,-628.95C395.5,-602.29 395.5,-549.11 395.5,-504 395.5,-504 395.5,-504 395.5,-214 395.5,-174 395.5,-127.65 395.5,-99.08"/>
<polygon fill="black" stroke="black" points="399,-99.05 395.5,-89.05 392,-99.05 399,-99.05"/>
</g>
<!-- obsspacedata_mod -->
<g id="node10" class="node">
<title>obsspacedata_mod</title>
<g id="a_node10"><a xlink:href="../modules/obsspacedata_mod.svg" xlink:title="obsspacedata_mod">
<polygon fill="none" stroke="red" points="543,-593 424,-593 424,-557 543,-557 543,-593"/>
<text text-anchor="middle" x="483.5" y="-571.3" font-family="Times,serif" font-size="14.00">obsspacedata_mod</text>
</a>
</g>
</g>
<!-- tovsNL_mod&#45;&gt;obsspacedata_mod -->
<g id="edge9" class="edge">
<title>tovsNL_mod&#45;&gt;obsspacedata_mod</title>
<path fill="none" stroke="black" d="M417.25,-628.7C428.34,-619.88 441.97,-609.03 453.99,-599.47"/>
<polygon fill="black" stroke="black" points="456.35,-602.07 462,-593.1 451.99,-596.59 456.35,-602.07"/>
</g>
<!-- ozoneclim_mod -->
<g id="node11" class="node">
<title>ozoneclim_mod</title>
<g id="a_node11"><a xlink:href="../modules/ozoneclim_mod.svg" xlink:title="ozoneclim_mod">
<polygon fill="none" stroke="red" points="581,-521 476,-521 476,-485 581,-485 581,-521"/>
<text text-anchor="middle" x="528.5" y="-499.3" font-family="Times,serif" font-size="14.00">ozoneclim_mod</text>
</a>
</g>
</g>
<!-- tovsNL_mod&#45;&gt;ozoneclim_mod -->
<g id="edge10" class="edge">
<title>tovsNL_mod&#45;&gt;ozoneclim_mod</title>
<path fill="none" stroke="black" d="M440.01,-644.29C476.59,-640.24 526.35,-628.11 551.5,-593 564.76,-574.49 556.1,-548.97 545.83,-530.01"/>
<polygon fill="black" stroke="black" points="548.81,-528.16 540.75,-521.28 542.76,-531.68 548.81,-528.16"/>
</g>
<!-- rttov_fast_coef_utils_mod -->
<g id="node12" class="node">
<title>rttov_fast_coef_utils_mod</title>
<g id="a_node12"><a xlink:href="rttov_fast_coef_utils_mod.html" xlink:title="rttov_fast_coef_utils_mod">
<polygon fill="gray" stroke="black" points="619,-449 458,-449 458,-413 619,-413 619,-449"/>
<text text-anchor="middle" x="538.5" y="-427.3" font-family="Times,serif" font-size="14.00">rttov_fast_coef_utils_mod</text>
</a>
</g>
</g>
<!-- tovsNL_mod&#45;&gt;rttov_fast_coef_utils_mod -->
<g id="edge11" class="edge">
<title>tovsNL_mod&#45;&gt;rttov_fast_coef_utils_mod</title>
<path fill="none" stroke="black" d="M440.18,-644.04C479.47,-639.92 535.54,-627.81 569.5,-593 603.59,-558.06 607.75,-530.28 589.5,-485 585.15,-474.21 577.44,-464.39 569.31,-456.21"/>
<polygon fill="black" stroke="black" points="571.5,-453.46 561.8,-449.18 566.71,-458.57 571.5,-453.46"/>
</g>
<!-- rttovinterfaces_mod -->
<g id="node13" class="node">
<title>rttovinterfaces_mod</title>
<g id="a_node13"><a xlink:href="rttovinterfaces_mod.html" xlink:title="rttovinterfaces_mod">
<polygon fill="gray" stroke="black" points="657.5,-377 529.5,-377 529.5,-341 657.5,-341 657.5,-377"/>
<text text-anchor="middle" x="593.5" y="-355.3" font-family="Times,serif" font-size="14.00">rttovinterfaces_mod</text>
</a>
</g>
</g>
<!-- tovsNL_mod&#45;&gt;rttovinterfaces_mod -->
<g id="edge12" class="edge">
<title>tovsNL_mod&#45;&gt;rttovinterfaces_mod</title>
<path fill="none" stroke="black" d="M440.21,-639.73C492.66,-631.46 575.19,-615.31 596.5,-593 652.57,-534.3 650.34,-490.9 627.5,-413 624.7,-403.45 619.59,-393.98 614.17,-385.76"/>
<polygon fill="black" stroke="black" points="616.88,-383.52 608.25,-377.37 611.15,-387.56 616.88,-383.52"/>
</g>
<!-- rttov_solar_refl_mod -->
<g id="node14" class="node">
<title>rttov_solar_refl_mod</title>
<g id="a_node14"><a xlink:href="rttov_solar_refl_mod.html" xlink:title="rttov_solar_refl_mod">
<polygon fill="gray" stroke="black" points="723.5,-305 591.5,-305 591.5,-269 723.5,-269 723.5,-305"/>
<text text-anchor="middle" x="657.5" y="-283.3" font-family="Times,serif" font-size="14.00">rttov_solar_refl_mod</text>
</a>
</g>
</g>
<!-- tovsNL_mod&#45;&gt;rttov_solar_refl_mod -->
<g id="edge13" class="edge">
<title>tovsNL_mod&#45;&gt;rttov_solar_refl_mod</title>
<path fill="none" stroke="black" d="M440.18,-644.04C521.52,-637.83 685.5,-611.91 685.5,-504 685.5,-504 685.5,-504 685.5,-430 685.5,-389.27 674.27,-343.19 666.04,-314.86"/>
<polygon fill="black" stroke="black" points="669.39,-313.85 663.17,-305.27 662.68,-315.86 669.39,-313.85"/>
</g>
<!-- utilities_mod -->
<g id="node15" class="node">
<title>utilities_mod</title>
<g id="a_node15"><a xlink:href="../modules/utilities_mod.svg" xlink:title="utilities_mod">
<polygon fill="none" stroke="red" points="796,-233 707,-233 707,-197 796,-197 796,-233"/>
<text text-anchor="middle" x="751.5" y="-211.3" font-family="Times,serif" font-size="14.00">utilities_mod</text>
</a>
</g>
</g>
<!-- tovsNL_mod&#45;&gt;utilities_mod -->
<g id="edge14" class="edge">
<title>tovsNL_mod&#45;&gt;utilities_mod</title>
<path fill="none" stroke="black" d="M440.32,-645.31C496.25,-642.69 593.32,-632.26 665.5,-593 713.82,-566.72 751.5,-559.01 751.5,-504 751.5,-504 751.5,-504 751.5,-358 751.5,-318 751.5,-271.65 751.5,-243.08"/>
<polygon fill="black" stroke="black" points="755,-243.05 751.5,-233.05 748,-243.05 755,-243.05"/>
</g>
<!-- verticalcoord_mod -->
<g id="node16" class="node">
<title>verticalcoord_mod</title>
<g id="a_node16"><a xlink:href="../modules/verticalcoord_mod.svg" xlink:title="verticalcoord_mod">
<polygon fill="none" stroke="red" points="884.5,-161 764.5,-161 764.5,-125 884.5,-125 884.5,-161"/>
<text text-anchor="middle" x="824.5" y="-139.3" font-family="Times,serif" font-size="14.00">verticalcoord_mod</text>
</a>
</g>
</g>
<!-- tovsNL_mod&#45;&gt;verticalcoord_mod -->
<g id="edge15" class="edge">
<title>tovsNL_mod&#45;&gt;verticalcoord_mod</title>
<path fill="none" stroke="black" d="M440.15,-645.41C503.22,-643.07 620.83,-633.13 711.5,-593 769.96,-567.13 824.5,-567.93 824.5,-504 824.5,-504 824.5,-504 824.5,-286 824.5,-246 824.5,-199.65 824.5,-171.08"/>
<polygon fill="black" stroke="black" points="828,-171.05 824.5,-161.05 821,-171.05 828,-171.05"/>
</g>
</g>
</svg>
