<?xml version="1.0" encoding="UTF-8" standalone="no"?>
<!DOCTYPE svg PUBLIC "-//W3C//DTD SVG 1.1//EN"
 "http://www.w3.org/Graphics/SVG/1.1/DTD/svg11.dtd">
<!-- Generated by graphviz version 3.0.0 (20220315.2325)
 -->
<!-- Title: tovsNL_mod Pages: 1 -->
<svg width="1410pt" height="673pt"
 viewBox="0.00 0.00 1409.50 673.00" xmlns="http://www.w3.org/2000/svg" xmlns:xlink="http://www.w3.org/1999/xlink">
<g id="graph0" class="graph" transform="scale(1 1) rotate(0) translate(4 669)">
<title>tovsNL_mod</title>
<polygon fill="white" stroke="transparent" points="-4,4 -4,-669 1405.5,-669 1405.5,4 -4,4"/>
<text text-anchor="middle" x="700.75" y="-649.8" font-family="Times,serif" font-size="14.00">Blue boxes indicate modules with reverse dependencies not shown</text>
<text text-anchor="middle" x="700.75" y="-634.8" font-family="Times,serif" font-size="14.00">Higher level reverse dependencies can be shown by clicking on a blue box</text>
<text text-anchor="middle" x="700.75" y="-619.8" font-family="Times,serif" font-size="14.00">Green boxes are programs</text>
<!-- tovsNL_mod -->
<g id="node1" class="node">
<title>tovsNL_mod</title>
<g id="a_node1"><a xlink:href="tovsNL_mod.html" xlink:title="tovsNL_mod">
<polygon fill="none" stroke="black" points="757.5,-36 668.5,-36 668.5,0 757.5,0 757.5,-36"/>
<text text-anchor="middle" x="713" y="-14.3" font-family="Times,serif" font-size="14.00">tovsNL_mod</text>
</a>
</g>
</g>
<!-- bgckcsr_mod -->
<g id="node2" class="node">
<title>bgckcsr_mod</title>
<g id="a_node2"><a xlink:href="../modules/bgckcsr_mod_rev.svg" xlink:title="bgckcsr_mod">
<polygon fill="none" stroke="blue" points="90,-108 0,-108 0,-72 90,-72 90,-108"/>
<text text-anchor="middle" x="45" y="-86.3" font-family="Times,serif" font-size="14.00">bgckcsr_mod</text>
</a>
</g>
</g>
<!-- bgckcsr_mod&#45;&gt;tovsNL_mod -->
<g id="edge1" class="edge">
<title>bgckcsr_mod&#45;&gt;tovsNL_mod</title>
<path fill="none" stroke="black" d="M98.01,-73.21C100.03,-72.77 102.03,-72.37 104,-72 312.69,-33.23 567,-22.69 668.28,-19.93"/>
<ellipse fill="black" stroke="black" cx="94.1" cy="-74.11" rx="4" ry="4"/>
</g>
<!-- bgckmicrowave_mod -->
<g id="node3" class="node">
<title>bgckmicrowave_mod</title>
<g id="a_node3"><a xlink:href="../modules/bgckmicrowave_mod_rev.svg" xlink:title="bgckmicrowave_mod">
<polygon fill="none" stroke="blue" points="157,-180 21,-180 21,-144 157,-144 157,-180"/>
<text text-anchor="middle" x="89" y="-158.3" font-family="Times,serif" font-size="14.00">bgckmicrowave_mod</text>
</a>
</g>
</g>
<!-- bgckmicrowave_mod&#45;&gt;tovsNL_mod -->
<g id="edge2" class="edge">
<title>bgckmicrowave_mod&#45;&gt;tovsNL_mod</title>
<path fill="none" stroke="black" d="M103.74,-136.96C118.08,-115.9 141.94,-86.47 171,-72 257.97,-28.71 554.57,-20.77 668.2,-19.32"/>
<ellipse fill="black" stroke="black" cx="101.45" cy="-140.41" rx="4" ry="4"/>
</g>
<!-- bgckssmis_mod -->
<g id="node4" class="node">
<title>bgckssmis_mod</title>
<g id="a_node4"><a xlink:href="../modules/bgckssmis_mod_rev.svg" xlink:title="bgckssmis_mod">
<polygon fill="none" stroke="blue" points="194.5,-252 89.5,-252 89.5,-216 194.5,-216 194.5,-252"/>
<text text-anchor="middle" x="142" y="-230.3" font-family="Times,serif" font-size="14.00">bgckssmis_mod</text>
</a>
</g>
</g>
<!-- bgckssmis_mod&#45;&gt;tovsNL_mod -->
<g id="edge3" class="edge">
<title>bgckssmis_mod&#45;&gt;tovsNL_mod</title>
<path fill="none" stroke="black" d="M153.41,-208.44C157.47,-199.53 162.03,-189.35 166,-180 186.22,-132.46 167.82,-103.2 209,-72 245.25,-44.54 551.68,-26.86 668.24,-21.08"/>
<ellipse fill="black" stroke="black" cx="151.65" cy="-212.27" rx="4" ry="4"/>
</g>
<!-- biascorrectionsat_mod -->
<g id="node5" class="node">
<title>biascorrectionsat_mod</title>
<g id="a_node5"><a xlink:href="../modules/biascorrectionsat_mod_rev.svg" xlink:title="biascorrectionsat_mod">
<polygon fill="none" stroke="blue" points="233,-324 93,-324 93,-288 233,-288 233,-324"/>
<text text-anchor="middle" x="163" y="-302.3" font-family="Times,serif" font-size="14.00">biascorrectionsat_mod</text>
</a>
</g>
</g>
<!-- biascorrectionsat_mod&#45;&gt;tovsNL_mod -->
<g id="edge4" class="edge">
<title>biascorrectionsat_mod&#45;&gt;tovsNL_mod</title>
<path fill="none" stroke="black" d="M184.2,-281.23C191.04,-272.53 198.12,-262.29 203,-252 238.31,-177.6 185.2,-126.44 247,-72 278.28,-44.45 557.62,-27.07 668.21,-21.21"/>
<ellipse fill="black" stroke="black" cx="181.57" cy="-284.46" rx="4" ry="4"/>
</g>
<!-- bmatrix1dvar_mod -->
<g id="node6" class="node">
<title>bmatrix1dvar_mod</title>
<g id="a_node6"><a xlink:href="../modules/bmatrix1dvar_mod_rev.svg" xlink:title="bmatrix1dvar_mod">
<polygon fill="none" stroke="blue" points="271,-396 149,-396 149,-360 271,-360 271,-396"/>
<text text-anchor="middle" x="210" y="-374.3" font-family="Times,serif" font-size="14.00">bmatrix1dvar_mod</text>
</a>
</g>
</g>
<!-- bmatrix1dvar_mod&#45;&gt;tovsNL_mod -->
<g id="edge5" class="edge">
<title>bmatrix1dvar_mod&#45;&gt;tovsNL_mod</title>
<path fill="none" stroke="black" d="M227.02,-352.66C232.48,-343.95 238.11,-333.84 242,-324 256.88,-286.39 261,-275.45 261,-235 261,-235 261,-235 261,-161 261,-120.03 254.07,-98.87 285,-72 341.45,-22.96 570.39,-18.18 668.27,-18.45"/>
<ellipse fill="black" stroke="black" cx="224.69" cy="-356.26" rx="4" ry="4"/>
</g>
<!-- burpread_mod -->
<g id="node7" class="node">
<title>burpread_mod</title>
<g id="a_node7"><a xlink:href="../modules/burpread_mod_rev.svg" xlink:title="burpread_mod">
<polygon fill="none" stroke="blue" points="308.5,-468 211.5,-468 211.5,-432 308.5,-432 308.5,-468"/>
<text text-anchor="middle" x="260" y="-446.3" font-family="Times,serif" font-size="14.00">burpread_mod</text>
</a>
</g>
</g>
<!-- burpread_mod&#45;&gt;tovsNL_mod -->
<g id="edge6" class="edge">
<title>burpread_mod&#45;&gt;tovsNL_mod</title>
<path fill="none" stroke="black" d="M271.14,-424.25C282.67,-396.35 299,-349.35 299,-307 299,-307 299,-307 299,-161 299,-120.03 292.23,-99.05 323,-72 373.55,-27.56 577.25,-20.13 668.46,-19.07"/>
<ellipse fill="black" stroke="black" cx="269.45" cy="-428.24" rx="4" ry="4"/>
</g>
<!-- costfunction_mod -->
<g id="node8" class="node">
<title>costfunction_mod</title>
<g id="a_node8"><a xlink:href="../modules/costfunction_mod_rev.svg" xlink:title="costfunction_mod">
<polygon fill="none" stroke="blue" points="346.5,-540 231.5,-540 231.5,-504 346.5,-504 346.5,-540"/>
<text text-anchor="middle" x="289" y="-518.3" font-family="Times,serif" font-size="14.00">costfunction_mod</text>
</a>
</g>
</g>
<!-- costfunction_mod&#45;&gt;tovsNL_mod -->
<g id="edge7" class="edge">
<title>costfunction_mod&#45;&gt;tovsNL_mod</title>
<path fill="none" stroke="black" d="M303.51,-496.82C308.34,-487.99 313.4,-477.76 317,-468 331.04,-429.97 337,-419.54 337,-379 337,-379 337,-379 337,-161 337,-120.03 330.43,-99.27 361,-72 405.62,-32.2 583.89,-22.28 668.28,-19.82"/>
<ellipse fill="black" stroke="black" cx="301.5" cy="-500.39" rx="4" ry="4"/>
</g>
<!-- enkf_mod -->
<g id="node9" class="node">
<title>enkf_mod</title>
<g id="a_node9"><a xlink:href="../modules/enkf_mod_rev.svg" xlink:title="enkf_mod">
<polygon fill="none" stroke="blue" points="411.5,-612 338.5,-612 338.5,-576 411.5,-576 411.5,-612"/>
<text text-anchor="middle" x="375" y="-590.3" font-family="Times,serif" font-size="14.00">enkf_mod</text>
</a>
</g>
</g>
<!-- enkf_mod&#45;&gt;tovsNL_mod -->
<g id="edge8" class="edge">
<title>enkf_mod&#45;&gt;tovsNL_mod</title>
<path fill="none" stroke="black" d="M375,-567.78C375,-539.39 375,-491.89 375,-451 375,-451 375,-451 375,-161 375,-120.64 363.96,-100.03 393,-72 431.59,-34.75 589.95,-23.59 668.45,-20.32"/>
<ellipse fill="black" stroke="black" cx="375" cy="-571.95" rx="4" ry="4"/>
</g>
<!-- ensembleobservations_mod -->
<g id="node10" class="node">
<title>ensembleobservations_mod</title>
<g id="a_node10"><a xlink:href="../modules/ensembleobservations_mod_rev.svg" xlink:title="ensembleobservations_mod">
<polygon fill="none" stroke="blue" points="571.5,-108 402.5,-108 402.5,-72 571.5,-72 571.5,-108"/>
<text text-anchor="middle" x="487" y="-86.3" font-family="Times,serif" font-size="14.00">ensembleobservations_mod</text>
</a>
</g>
</g>
<!-- ensembleobservations_mod&#45;&gt;tovsNL_mod -->
<g id="edge9" class="edge">
<title>ensembleobservations_mod&#45;&gt;tovsNL_mod</title>
<path fill="none" stroke="black" d="M549.89,-69.52C587.55,-57.86 634.54,-43.3 668.39,-32.82"/>
<ellipse fill="black" stroke="black" cx="545.82" cy="-70.78" rx="4" ry="4"/>
</g>
<!-- fsoi_mod -->
<g id="node11" class="node">
<title>fsoi_mod</title>
<g id="a_node11"><a xlink:href="../modules/fsoi_mod_rev.svg" xlink:title="fsoi_mod">
<polygon fill="none" stroke="blue" points="609,-180 541,-180 541,-144 609,-144 609,-180"/>
<text text-anchor="middle" x="575" y="-158.3" font-family="Times,serif" font-size="14.00">fsoi_mod</text>
</a>
</g>
</g>
<!-- fsoi_mod&#45;&gt;tovsNL_mod -->
<g id="edge10" class="edge">
<title>fsoi_mod&#45;&gt;tovsNL_mod</title>
<path fill="none" stroke="black" d="M584,-136.36C591.97,-117.09 605.13,-90.56 623,-72 637.34,-57.11 656.76,-44.97 673.88,-36.09"/>
<ellipse fill="black" stroke="black" cx="582.48" cy="-140.15" rx="4" ry="4"/>
</g>
<!-- innovation_mod -->
<g id="node12" class="node">
<title>innovation_mod</title>
<g id="a_node12"><a xlink:href="../modules/innovation_mod_rev.svg" xlink:title="innovation_mod">
<polygon fill="none" stroke="blue" points="647,-252 541,-252 541,-216 647,-216 647,-252"/>
<text text-anchor="middle" x="594" y="-230.3" font-family="Times,serif" font-size="14.00">innovation_mod</text>
</a>
</g>
</g>
<!-- innovation_mod&#45;&gt;tovsNL_mod -->
<g id="edge11" class="edge">
<title>innovation_mod&#45;&gt;tovsNL_mod</title>
<path fill="none" stroke="black" d="M605.41,-208.44C609.47,-199.53 614.03,-189.35 618,-180 638.22,-132.46 632.8,-115.29 661,-72 669.72,-58.61 682.2,-45.75 692.74,-36.06"/>
<ellipse fill="black" stroke="black" cx="603.65" cy="-212.27" rx="4" ry="4"/>
</g>
<!-- multiirbgck_mod -->
<g id="node13" class="node">
<title>multiirbgck_mod</title>
<g id="a_node13"><a xlink:href="../modules/multiirbgck_mod_rev.svg" xlink:title="multiirbgck_mod">
<polygon fill="none" stroke="blue" points="685,-324 573,-324 573,-288 685,-288 685,-324"/>
<text text-anchor="middle" x="629" y="-302.3" font-family="Times,serif" font-size="14.00">multiirbgck_mod</text>
</a>
</g>
</g>
<!-- multiirbgck_mod&#45;&gt;tovsNL_mod -->
<g id="edge12" class="edge">
<title>multiirbgck_mod&#45;&gt;tovsNL_mod</title>
<path fill="none" stroke="black" d="M642.88,-280.74C647.53,-271.9 652.43,-261.69 656,-252 684.42,-174.82 678.94,-151.77 699,-72 702.02,-60 705.58,-46.52 708.36,-36.16"/>
<ellipse fill="black" stroke="black" cx="640.97" cy="-284.28" rx="4" ry="4"/>
</g>
<!-- obsdiagfiles_mod -->
<g id="node14" class="node">
<title>obsdiagfiles_mod</title>
<g id="a_node14"><a xlink:href="../modules/obsdiagfiles_mod_rev.svg" xlink:title="obsdiagfiles_mod">
<polygon fill="none" stroke="blue" points="722.5,-396 609.5,-396 609.5,-360 722.5,-360 722.5,-396"/>
<text text-anchor="middle" x="666" y="-374.3" font-family="Times,serif" font-size="14.00">obsdiagfiles_mod</text>
</a>
</g>
</g>
<!-- obsdiagfiles_mod&#45;&gt;tovsNL_mod -->
<g id="edge13" class="edge">
<title>obsdiagfiles_mod&#45;&gt;tovsNL_mod</title>
<path fill="none" stroke="black" d="M680.57,-352.84C685.4,-344.01 690.45,-333.78 694,-324 707.8,-285.98 713,-275.45 713,-235 713,-235 713,-235 713,-161 713,-115.89 713,-62.71 713,-36.05"/>
<ellipse fill="black" stroke="black" cx="678.56" cy="-356.41" rx="4" ry="4"/>
</g>
<!-- obserrors_mod -->
<g id="node15" class="node">
<title>obserrors_mod</title>
<g id="a_node15"><a xlink:href="../modules/obserrors_mod_rev.svg" xlink:title="obserrors_mod">
<polygon fill="none" stroke="blue" points="760.5,-468 661.5,-468 661.5,-432 760.5,-432 760.5,-468"/>
<text text-anchor="middle" x="711" y="-446.3" font-family="Times,serif" font-size="14.00">obserrors_mod</text>
</a>
</g>
</g>
<!-- obserrors_mod&#45;&gt;tovsNL_mod -->
<g id="edge14" class="edge">
<title>obserrors_mod&#45;&gt;tovsNL_mod</title>
<path fill="none" stroke="black" d="M722.43,-424.28C734.25,-396.4 751,-349.43 751,-307 751,-307 751,-307 751,-161 751,-114.55 731.79,-62.38 720.69,-36.09"/>
<ellipse fill="black" stroke="black" cx="720.69" cy="-428.28" rx="4" ry="4"/>
</g>
<!-- obsfiles_mod -->
<g id="node16" class="node">
<title>obsfiles_mod</title>
<g id="a_node16"><a xlink:href="../modules/obsfiles_mod_rev.svg" xlink:title="obsfiles_mod">
<polygon fill="none" stroke="blue" points="798.5,-540 709.5,-540 709.5,-504 798.5,-504 798.5,-540"/>
<text text-anchor="middle" x="754" y="-518.3" font-family="Times,serif" font-size="14.00">obsfiles_mod</text>
</a>
</g>
</g>
<!-- obsfiles_mod&#45;&gt;tovsNL_mod -->
<g id="edge15" class="edge">
<title>obsfiles_mod&#45;&gt;tovsNL_mod</title>
<path fill="none" stroke="black" d="M764,-496.14C774.35,-468.14 789,-421.06 789,-379 789,-379 789,-379 789,-161 789,-110.95 751.84,-61.47 729.49,-36.23"/>
<ellipse fill="black" stroke="black" cx="762.5" cy="-500.11" rx="4" ry="4"/>
</g>
<!-- obsfilter_mod -->
<g id="node17" class="node">
<title>obsfilter_mod</title>
<g id="a_node17"><a xlink:href="../modules/obsfilter_mod_rev.svg" xlink:title="obsfilter_mod">
<polygon fill="none" stroke="blue" points="873,-612 781,-612 781,-576 873,-576 873,-612"/>
<text text-anchor="middle" x="827" y="-590.3" font-family="Times,serif" font-size="14.00">obsfilter_mod</text>
</a>
</g>
</g>
<!-- obsfilter_mod&#45;&gt;tovsNL_mod -->
<g id="edge16" class="edge">
<title>obsfilter_mod&#45;&gt;tovsNL_mod</title>
<path fill="none" stroke="black" d="M827,-567.78C827,-539.39 827,-491.89 827,-451 827,-451 827,-451 827,-161 827,-105.67 773.73,-59.63 740.02,-36.04"/>
<ellipse fill="black" stroke="black" cx="827" cy="-571.95" rx="4" ry="4"/>
</g>
<!-- obsoperators_mod -->
<g id="node18" class="node">
<title>obsoperators_mod</title>
<g id="a_node18"><a xlink:href="../modules/obsoperators_mod_rev.svg" xlink:title="obsoperators_mod">
<polygon fill="none" stroke="blue" points="972.5,-108 855.5,-108 855.5,-72 972.5,-72 972.5,-108"/>
<text text-anchor="middle" x="914" y="-86.3" font-family="Times,serif" font-size="14.00">obsoperators_mod</text>
</a>
</g>
</g>
<!-- obsoperators_mod&#45;&gt;tovsNL_mod -->
<g id="edge17" class="edge">
<title>obsoperators_mod&#45;&gt;tovsNL_mod</title>
<path fill="none" stroke="black" d="M857.23,-69.23C825.7,-58.25 787.02,-44.78 757.66,-34.55"/>
<ellipse fill="black" stroke="black" cx="861.31" cy="-70.65" rx="4" ry="4"/>
</g>
<!-- rmatrix_mod -->
<g id="node19" class="node">
<title>rmatrix_mod</title>
<g id="a_node19"><a xlink:href="../modules/rmatrix_mod_rev.svg" xlink:title="rmatrix_mod">
<polygon fill="none" stroke="blue" points="1011,-180 921,-180 921,-144 1011,-144 1011,-180"/>
<text text-anchor="middle" x="966" y="-158.3" font-family="Times,serif" font-size="14.00">rmatrix_mod</text>
</a>
</g>
</g>
<!-- rmatrix_mod&#45;&gt;tovsNL_mod -->
<g id="edge18" class="edge">
<title>rmatrix_mod&#45;&gt;tovsNL_mod</title>
<path fill="none" stroke="black" d="M979.56,-136.54C988.38,-116.98 995.75,-89.96 981,-72 953.22,-38.19 826.28,-25.59 757.54,-21.18"/>
<ellipse fill="black" stroke="black" cx="977.76" cy="-140.29" rx="4" ry="4"/>
</g>
<!-- slantprofilelatlon_mod -->
<g id="node20" class="node">
<title>slantprofilelatlon_mod</title>
<g id="a_node20"><a xlink:href="../modules/slantprofilelatlon_mod_rev.svg" xlink:title="slantprofilelatlon_mod">
<polygon fill="none" stroke="blue" points="1049,-252 909,-252 909,-216 1049,-216 1049,-252"/>
<text text-anchor="middle" x="979" y="-230.3" font-family="Times,serif" font-size="14.00">slantprofilelatlon_mod</text>
</a>
</g>
</g>
<!-- slantprofilelatlon_mod&#45;&gt;tovsNL_mod -->
<g id="edge19" class="edge">
<title>slantprofilelatlon_mod&#45;&gt;tovsNL_mod</title>
<path fill="none" stroke="black" d="M1002.53,-209.48C1009.55,-200.92 1016.34,-190.7 1020,-180 1035.78,-133.81 1036.01,-104.96 1000,-72 965.19,-40.14 829.12,-26.59 757.56,-21.56"/>
<ellipse fill="black" stroke="black" cx="999.79" cy="-212.65" rx="4" ry="4"/>
</g>
<!-- statetocolumn_mod -->
<g id="node21" class="node">
<title>statetocolumn_mod</title>
<g id="a_node21"><a xlink:href="../modules/statetocolumn_mod_rev.svg" xlink:title="statetocolumn_mod">
<polygon fill="none" stroke="blue" points="1086.5,-324 961.5,-324 961.5,-288 1086.5,-288 1086.5,-324"/>
<text text-anchor="middle" x="1024" y="-302.3" font-family="Times,serif" font-size="14.00">statetocolumn_mod</text>
</a>
</g>
</g>
<!-- statetocolumn_mod&#45;&gt;tovsNL_mod -->
<g id="edge20" class="edge">
<title>statetocolumn_mod&#45;&gt;tovsNL_mod</title>
<path fill="none" stroke="black" d="M1043.45,-281.06C1049.32,-272.42 1054.99,-262.26 1058,-252 1074.75,-194.86 1050.85,-94.8 1027,-72 989.09,-35.75 834.87,-24.12 757.59,-20.53"/>
<ellipse fill="black" stroke="black" cx="1041.08" cy="-284.38" rx="4" ry="4"/>
</g>
<!-- tovslin_mod -->
<g id="node22" class="node">
<title>tovslin_mod</title>
<g id="a_node22"><a xlink:href="../modules/tovslin_mod_rev.svg" xlink:title="tovslin_mod">
<polygon fill="none" stroke="blue" points="1124.5,-396 1039.5,-396 1039.5,-360 1124.5,-360 1124.5,-396"/>
<text text-anchor="middle" x="1082" y="-374.3" font-family="Times,serif" font-size="14.00">tovslin_mod</text>
</a>
</g>
</g>
<!-- tovslin_mod&#45;&gt;tovsNL_mod -->
<g id="edge21" class="edge">
<title>tovslin_mod&#45;&gt;tovsNL_mod</title>
<path fill="none" stroke="black" d="M1091.43,-352.09C1101.18,-324.05 1115,-276.93 1115,-235 1115,-235 1115,-235 1115,-161 1115,-112.28 1092.5,-97.53 1051,-72 1002.62,-42.24 837.88,-27.37 757.65,-21.75"/>
<ellipse fill="black" stroke="black" cx="1090.02" cy="-356.04" rx="4" ry="4"/>
</g>
<!-- midas_midas_letkf -->
<g id="node23" class="node">
<title>midas_midas_letkf</title>
<g id="a_node23"><a xlink:href="../programs/midas_letkf.html" xlink:title="midas_midas_letkf">
<polygon fill="gray" stroke="green" points="1163,-468 1041,-468 1041,-432 1163,-432 1163,-468"/>
<text text-anchor="middle" x="1102" y="-446.3" font-family="Times,serif" font-size="14.00">midas_midas_letkf</text>
</a>
</g>
</g>
<!-- midas_midas_letkf&#45;&gt;tovsNL_mod -->
<g id="edge22" class="edge">
<title>midas_midas_letkf&#45;&gt;tovsNL_mod</title>
<path fill="none" stroke="black" d="M1118.4,-424.58C1123.68,-415.85 1129.16,-405.76 1133,-396 1147.85,-358.28 1153,-347.54 1153,-307 1153,-307 1153,-307 1153,-161 1153,-112.28 1130.7,-97.2 1089,-72 1033.99,-38.75 844.62,-25.4 757.5,-20.93"/>
<ellipse fill="black" stroke="black" cx="1116.17" cy="-428.15" rx="4" ry="4"/>
</g>
<!-- midas_midas_prepcma -->
<g id="node24" class="node">
<title>midas_midas_prepcma</title>
<g id="a_node24"><a xlink:href="../programs/midas_prepcma.html" xlink:title="midas_midas_prepcma">
<polygon fill="gray" stroke="green" points="1231.5,-540 1088.5,-540 1088.5,-504 1231.5,-504 1231.5,-540"/>
<text text-anchor="middle" x="1160" y="-518.3" font-family="Times,serif" font-size="14.00">midas_midas_prepcma</text>
</a>
</g>
</g>
<!-- midas_midas_prepcma&#45;&gt;tovsNL_mod -->
<g id="edge23" class="edge">
<title>midas_midas_prepcma&#45;&gt;tovsNL_mod</title>
<path fill="none" stroke="black" d="M1168.86,-496.04C1178.02,-467.96 1191,-420.8 1191,-379 1191,-379 1191,-379 1191,-161 1191,-112.28 1168.85,-96.94 1127,-72 1065.37,-35.28 851.42,-23.66 757.63,-20.27"/>
<ellipse fill="black" stroke="black" cx="1167.54" cy="-499.98" rx="4" ry="4"/>
</g>
<!-- midas_midas_thinning -->
<g id="node25" class="node">
<title>midas_midas_thinning</title>
<g id="a_node25"><a xlink:href="../programs/midas_thinning.html" xlink:title="midas_midas_thinning">
<polygon fill="gray" stroke="green" points="1330.5,-612 1189.5,-612 1189.5,-576 1330.5,-576 1330.5,-612"/>
<text text-anchor="middle" x="1260" y="-590.3" font-family="Times,serif" font-size="14.00">midas_midas_thinning</text>
</a>
</g>
</g>
<!-- midas_midas_thinning&#45;&gt;tovsNL_mod -->
<g id="edge24" class="edge">
<title>midas_midas_thinning&#45;&gt;tovsNL_mod</title>
<path fill="none" stroke="black" d="M1260,-567.78C1260,-539.39 1260,-491.89 1260,-451 1260,-451 1260,-451 1260,-161 1260,-103.14 1217.47,-96.37 1165,-72 1093.25,-38.68 857.18,-25.06 757.76,-20.71"/>
<ellipse fill="black" stroke="black" cx="1260" cy="-571.95" rx="4" ry="4"/>
</g>
<!-- midas_midas_var -->
<g id="node26" class="node">
<title>midas_midas_var</title>
<g id="a_node26"><a xlink:href="../programs/midas_var.html" xlink:title="midas_midas_var">
<polygon fill="gray" stroke="green" points="1401.5,-108 1288.5,-108 1288.5,-72 1401.5,-72 1401.5,-108"/>
<text text-anchor="middle" x="1345" y="-86.3" font-family="Times,serif" font-size="14.00">midas_midas_var</text>
</a>
</g>
</g>
<!-- midas_midas_var&#45;&gt;tovsNL_mod -->
<g id="edge25" class="edge">
<title>midas_midas_var&#45;&gt;tovsNL_mod</title>
<path fill="none" stroke="black" d="M1280.14,-73.08C1278.08,-72.7 1276.02,-72.34 1274,-72 1083.4,-40.34 852.99,-25.99 757.64,-21.08"/>
<ellipse fill="black" stroke="black" cx="1284.25" cy="-73.88" rx="4" ry="4"/>
</g>
</g>
</svg>
