<?xml version="1.0" encoding="UTF-8" standalone="no"?>
<!DOCTYPE svg PUBLIC "-//W3C//DTD SVG 1.1//EN"
 "http://www.w3.org/Graphics/SVG/1.1/DTD/svg11.dtd">
<!-- Generated by graphviz version 3.0.0 (20220315.2325)
 -->
<!-- Title: tovsLin_mod Pages: 1 -->
<svg width="481pt" height="601pt"
 viewBox="0.00 0.00 481.00 601.00" xmlns="http://www.w3.org/2000/svg" xmlns:xlink="http://www.w3.org/1999/xlink">
<g id="graph0" class="graph" transform="scale(1 1) rotate(0) translate(4 597)">
<title>tovsLin_mod</title>
<polygon fill="white" stroke="transparent" points="-4,4 -4,-597 477,-597 477,4 -4,4"/>
<text text-anchor="middle" x="236.5" y="-37.8" font-family="Times,serif" font-size="14.00">Red boxes indicate modules with dependencies not shown</text>
<text text-anchor="middle" x="236.5" y="-22.8" font-family="Times,serif" font-size="14.00">Lower level dependencies can be shown by clicking on a red box</text>
<text text-anchor="middle" x="236.5" y="-7.8" font-family="Times,serif" font-size="14.00">Shaded boxes indicate modules with no dependencies</text>
<!-- tovsLin_mod -->
<g id="node1" class="node">
<title>tovsLin_mod</title>
<g id="a_node1"><a xlink:href="tovsLin_mod.html" xlink:title="tovsLin_mod">
<polygon fill="none" stroke="black" points="293.5,-593 204.5,-593 204.5,-557 293.5,-557 293.5,-593"/>
<text text-anchor="middle" x="249" y="-571.3" font-family="Times,serif" font-size="14.00">tovsLin_mod</text>
</a>
</g>
</g>
<!-- columndata_mod -->
<g id="node2" class="node">
<title>columndata_mod</title>
<g id="a_node2"><a xlink:href="../modules/columndata_mod.svg" xlink:title="columndata_mod">
<polygon fill="none" stroke="red" points="112,-521 0,-521 0,-485 112,-485 112,-521"/>
<text text-anchor="middle" x="56" y="-499.3" font-family="Times,serif" font-size="14.00">columndata_mod</text>
</a>
</g>
</g>
<!-- tovsLin_mod&#45;&gt;columndata_mod -->
<g id="edge1" class="edge">
<title>tovsLin_mod&#45;&gt;columndata_mod</title>
<path fill="none" stroke="black" d="M204.24,-557.76C176.92,-547.86 141.76,-535.11 112.54,-524.51"/>
<polygon fill="black" stroke="black" points="113.47,-521.12 102.87,-521 111.08,-527.7 113.47,-521.12"/>
</g>
<!-- mathphysconstants_mod -->
<g id="node3" class="node">
<title>mathphysconstants_mod</title>
<g id="a_node3"><a xlink:href="mathphysconstants_mod.html" xlink:title="mathphysconstants_mod">
<polygon fill="gray" stroke="black" points="183,-449 31,-449 31,-413 183,-413 183,-449"/>
<text text-anchor="middle" x="107" y="-427.3" font-family="Times,serif" font-size="14.00">mathphysconstants_mod</text>
</a>
</g>
</g>
<!-- tovsLin_mod&#45;&gt;mathphysconstants_mod -->
<g id="edge2" class="edge">
<title>tovsLin_mod&#45;&gt;mathphysconstants_mod</title>
<path fill="none" stroke="black" d="M231.87,-556.87C206.82,-531.82 160.05,-485.05 131.41,-456.41"/>
<polygon fill="black" stroke="black" points="133.74,-453.79 124.19,-449.19 128.79,-458.74 133.74,-453.79"/>
</g>
<!-- obsspacedata_mod -->
<g id="node4" class="node">
<title>obsspacedata_mod</title>
<g id="a_node4"><a xlink:href="../modules/obsspacedata_mod.svg" xlink:title="obsspacedata_mod">
<polygon fill="none" stroke="red" points="220.5,-377 101.5,-377 101.5,-341 220.5,-341 220.5,-377"/>
<text text-anchor="middle" x="161" y="-355.3" font-family="Times,serif" font-size="14.00">obsspacedata_mod</text>
</a>
</g>
</g>
<!-- tovsLin_mod&#45;&gt;obsspacedata_mod -->
<g id="edge3" class="edge">
<title>tovsLin_mod&#45;&gt;obsspacedata_mod</title>
<path fill="none" stroke="black" d="M244.04,-556.66C235.21,-526.69 215.48,-463.56 192,-413 187.78,-403.91 182.48,-394.35 177.46,-385.89"/>
<polygon fill="black" stroke="black" points="180.37,-383.95 172.19,-377.22 174.39,-387.58 180.37,-383.95"/>
</g>
<!-- rttovinterfaces_mod -->
<g id="node5" class="node">
<title>rttovinterfaces_mod</title>
<g id="a_node5"><a xlink:href="rttovinterfaces_mod.html" xlink:title="rttovinterfaces_mod">
<polygon fill="gray" stroke="black" points="259,-305 131,-305 131,-269 259,-269 259,-305"/>
<text text-anchor="middle" x="195" y="-283.3" font-family="Times,serif" font-size="14.00">rttovinterfaces_mod</text>
</a>
</g>
</g>
<!-- tovsLin_mod&#45;&gt;rttovinterfaces_mod -->
<g id="edge4" class="edge">
<title>tovsLin_mod&#45;&gt;rttovinterfaces_mod</title>
<path fill="none" stroke="black" d="M250.29,-556.76C252.64,-517.34 255.22,-418.06 229,-341 225.71,-331.32 220.28,-321.64 214.72,-313.25"/>
<polygon fill="black" stroke="black" points="217.57,-311.22 208.97,-305.03 211.84,-315.23 217.57,-311.22"/>
</g>
<!-- tovsnl_mod -->
<g id="node6" class="node">
<title>tovsnl_mod</title>
<g id="a_node6"><a xlink:href="../modules/tovsnl_mod.svg" xlink:title="tovsnl_mod">
<polygon fill="none" stroke="red" points="311.5,-233 230.5,-233 230.5,-197 311.5,-197 311.5,-233"/>
<text text-anchor="middle" x="271" y="-211.3" font-family="Times,serif" font-size="14.00">tovsnl_mod</text>
</a>
</g>
</g>
<!-- tovsLin_mod&#45;&gt;tovsnl_mod -->
<g id="edge5" class="edge">
<title>tovsLin_mod&#45;&gt;tovsnl_mod</title>
<path fill="none" stroke="black" d="M256.69,-556.91C267.79,-530.62 287,-478.45 287,-432 287,-432 287,-432 287,-358 287,-317.96 280.64,-271.97 275.94,-243.45"/>
<polygon fill="black" stroke="black" points="279.36,-242.69 274.24,-233.42 272.46,-243.86 279.36,-242.69"/>
</g>
<!-- utilities_mod -->
<g id="node7" class="node">
<title>utilities_mod</title>
<g id="a_node7"><a xlink:href="../modules/utilities_mod.svg" xlink:title="utilities_mod">
<polygon fill="none" stroke="red" points="384.5,-161 295.5,-161 295.5,-125 384.5,-125 384.5,-161"/>
<text text-anchor="middle" x="340" y="-139.3" font-family="Times,serif" font-size="14.00">utilities_mod</text>
</a>
</g>
</g>
<!-- tovsLin_mod&#45;&gt;utilities_mod -->
<g id="edge6" class="edge">
<title>tovsLin_mod&#45;&gt;utilities_mod</title>
<path fill="none" stroke="black" d="M269.65,-556.58C296.5,-531.87 340,-483.83 340,-432 340,-432 340,-432 340,-286 340,-246 340,-199.65 340,-171.08"/>
<polygon fill="black" stroke="black" points="343.5,-171.05 340,-161.05 336.5,-171.05 343.5,-171.05"/>
</g>
<!-- verticalcoord_mod -->
<g id="node8" class="node">
<title>verticalcoord_mod</title>
<g id="a_node8"><a xlink:href="../modules/verticalcoord_mod.svg" xlink:title="verticalcoord_mod">
<polygon fill="none" stroke="red" points="473,-89 353,-89 353,-53 473,-53 473,-89"/>
<text text-anchor="middle" x="413" y="-67.3" font-family="Times,serif" font-size="14.00">verticalcoord_mod</text>
</a>
</g>
</g>
<!-- tovsLin_mod&#45;&gt;verticalcoord_mod -->
<g id="edge7" class="edge">
<title>tovsLin_mod&#45;&gt;verticalcoord_mod</title>
<path fill="none" stroke="black" d="M293.81,-557.63C342.37,-536.65 413,-495.27 413,-432 413,-432 413,-432 413,-214 413,-174 413,-127.65 413,-99.08"/>
<polygon fill="black" stroke="black" points="416.5,-99.05 413,-89.05 409.5,-99.05 416.5,-99.05"/>
</g>
</g>
</svg>
