<?xml version="1.0" encoding="UTF-8" standalone="no"?>
<!DOCTYPE svg PUBLIC "-//W3C//DTD SVG 1.1//EN"
 "http://www.w3.org/Graphics/SVG/1.1/DTD/svg11.dtd">
<!-- Generated by graphviz version 3.0.0 (20220315.2325)
 -->
<!-- Title: utilities_mod Pages: 1 -->
<svg width="382pt" height="241pt"
 viewBox="0.00 0.00 382.00 241.00" xmlns="http://www.w3.org/2000/svg" xmlns:xlink="http://www.w3.org/1999/xlink">
<g id="graph0" class="graph" transform="scale(1 1) rotate(0) translate(4 237)">
<title>utilities_mod</title>
<polygon fill="white" stroke="transparent" points="-4,4 -4,-237 378,-237 378,4 -4,4"/>
<text text-anchor="middle" x="187" y="-37.8" font-family="Times,serif" font-size="14.00">Red boxes indicate modules with dependencies not shown</text>
<text text-anchor="middle" x="187" y="-22.8" font-family="Times,serif" font-size="14.00">Lower level dependencies can be shown by clicking on a red box</text>
<text text-anchor="middle" x="187" y="-7.8" font-family="Times,serif" font-size="14.00">Shaded boxes indicate modules with no dependencies</text>
<!-- utilities_mod -->
<g id="node1" class="node">
<title>utilities_mod</title>
<g id="a_node1"><a xlink:href="utilities_mod.html" xlink:title="utilities_mod">
<polygon fill="none" stroke="black" points="228.5,-233 139.5,-233 139.5,-197 228.5,-197 228.5,-233"/>
<text text-anchor="middle" x="184" y="-211.3" font-family="Times,serif" font-size="14.00">utilities_mod</text>
</a>
</g>
</g>
<!-- clibinterfaces_mod -->
<g id="node2" class="node">
<title>clibinterfaces_mod</title>
<g id="a_node2"><a xlink:href="clibinterfaces_mod.html" xlink:title="clibinterfaces_mod">
<polygon fill="gray" stroke="black" points="201,-161 79,-161 79,-125 201,-125 201,-161"/>
<text text-anchor="middle" x="140" y="-139.3" font-family="Times,serif" font-size="14.00">clibinterfaces_mod</text>
</a>
</g>
</g>
<!-- utilities_mod&#45;&gt;clibinterfaces_mod -->
<g id="edge1" class="edge">
<title>utilities_mod&#45;&gt;clibinterfaces_mod</title>
<path fill="none" stroke="black" d="M173.12,-196.7C168.01,-188.56 161.8,-178.69 156.16,-169.7"/>
<polygon fill="black" stroke="black" points="159.04,-167.71 150.75,-161.1 153.11,-171.43 159.04,-167.71"/>
</g>
<!-- randomnumber_mod -->
<g id="node3" class="node">
<title>randomnumber_mod</title>
<g id="a_node3"><a xlink:href="randomnumber_mod.html" xlink:title="randomnumber_mod">
<polygon fill="gray" stroke="black" points="295,-89 163,-89 163,-53 295,-53 295,-89"/>
<text text-anchor="middle" x="229" y="-67.3" font-family="Times,serif" font-size="14.00">randomnumber_mod</text>
</a>
</g>
</g>
<!-- utilities_mod&#45;&gt;randomnumber_mod -->
<g id="edge2" class="edge">
<title>utilities_mod&#45;&gt;randomnumber_mod</title>
<path fill="none" stroke="black" d="M193.78,-196.8C199.21,-186.65 205.71,-173.4 210,-161 217.01,-140.75 221.92,-116.98 225,-99.1"/>
<polygon fill="black" stroke="black" points="228.48,-99.5 226.63,-89.07 221.57,-98.37 228.48,-99.5"/>
</g>
</g>
</svg>
