<?xml version="1.0" encoding="UTF-8" standalone="no"?>
<!DOCTYPE svg PUBLIC "-//W3C//DTD SVG 1.1//EN"
 "http://www.w3.org/Graphics/SVG/1.1/DTD/svg11.dtd">
<!-- Generated by graphviz version 3.0.0 (20220315.2325)
 -->
<!-- Title: var1D_mod Pages: 1 -->
<svg width="433pt" height="241pt"
 viewBox="0.00 0.00 433.00 241.00" xmlns="http://www.w3.org/2000/svg" xmlns:xlink="http://www.w3.org/1999/xlink">
<g id="graph0" class="graph" transform="scale(1 1) rotate(0) translate(4 237)">
<title>var1D_mod</title>
<polygon fill="white" stroke="transparent" points="-4,4 -4,-237 429,-237 429,4 -4,4"/>
<text text-anchor="middle" x="212.5" y="-217.8" font-family="Times,serif" font-size="14.00">Blue boxes indicate modules with reverse dependencies not shown</text>
<text text-anchor="middle" x="212.5" y="-202.8" font-family="Times,serif" font-size="14.00">Higher level reverse dependencies can be shown by clicking on a blue box</text>
<text text-anchor="middle" x="212.5" y="-187.8" font-family="Times,serif" font-size="14.00">Green boxes are programs</text>
<!-- var1D_mod -->
<g id="node1" class="node">
<title>var1D_mod</title>
<g id="a_node1"><a xlink:href="var1D_mod.html" xlink:title="var1D_mod">
<polygon fill="none" stroke="black" points="251.75,-36 169.75,-36 169.75,0 251.75,0 251.75,-36"/>
<text text-anchor="middle" x="210.75" y="-14.3" font-family="Times,serif" font-size="14.00">var1D_mod</text>
</a>
</g>
</g>
<!-- bmatrix1dvar_mod -->
<g id="node2" class="node">
<title>bmatrix1dvar_mod</title>
<g id="a_node2"><a xlink:href="../modules/bmatrix1dvar_mod_rev.svg" xlink:title="bmatrix1dvar_mod">
<polygon fill="none" stroke="blue" points="227.75,-108 105.75,-108 105.75,-72 227.75,-72 227.75,-108"/>
<text text-anchor="middle" x="166.75" y="-86.3" font-family="Times,serif" font-size="14.00">bmatrix1dvar_mod</text>
</a>
</g>
</g>
<!-- bmatrix1dvar_mod&#45;&gt;var1D_mod -->
<g id="edge1" class="edge">
<title>bmatrix1dvar_mod&#45;&gt;var1D_mod</title>
<path fill="none" stroke="black" d="M181.99,-64.76C187.92,-55.32 194.58,-44.72 200,-36.1"/>
<ellipse fill="black" stroke="black" cx="179.76" cy="-68.31" rx="4" ry="4"/>
</g>
<!-- midas_midas_var1d -->
<g id="node3" class="node">
<title>midas_midas_var1d</title>
<g id="a_node3"><a xlink:href="../programs/midas_var1d.html" xlink:title="midas_midas_var1d">
<polygon fill="gray" stroke="green" points="319.25,-180 192.25,-180 192.25,-144 319.25,-144 319.25,-180"/>
<text text-anchor="middle" x="255.75" y="-158.3" font-family="Times,serif" font-size="14.00">midas_midas_var1d</text>
</a>
</g>
</g>
<!-- midas_midas_var1d&#45;&gt;var1D_mod -->
<g id="edge2" class="edge">
<title>midas_midas_var1d&#45;&gt;var1D_mod</title>
<path fill="none" stroke="black" d="M252.04,-135.65C248.99,-117.59 243.99,-92.91 236.75,-72 232.46,-59.6 225.96,-46.35 220.53,-36.2"/>
<ellipse fill="black" stroke="black" cx="252.75" cy="-139.98" rx="4" ry="4"/>
</g>
</g>
</svg>
