<?xml version="1.0" encoding="UTF-8" standalone="no"?>
<!DOCTYPE svg PUBLIC "-//W3C//DTD SVG 1.1//EN"
 "http://www.w3.org/Graphics/SVG/1.1/DTD/svg11.dtd">
<!-- Generated by graphviz version 3.0.0 (20220315.2325)
 -->
<!-- Title: var1D_mod Pages: 1 -->
<svg width="584pt" height="673pt"
 viewBox="0.00 0.00 583.50 673.00" xmlns="http://www.w3.org/2000/svg" xmlns:xlink="http://www.w3.org/1999/xlink">
<g id="graph0" class="graph" transform="scale(1 1) rotate(0) translate(4 669)">
<title>var1D_mod</title>
<polygon fill="white" stroke="transparent" points="-4,4 -4,-669 579.5,-669 579.5,4 -4,4"/>
<text text-anchor="middle" x="287.75" y="-37.8" font-family="Times,serif" font-size="14.00">Red boxes indicate modules with dependencies not shown</text>
<text text-anchor="middle" x="287.75" y="-22.8" font-family="Times,serif" font-size="14.00">Lower level dependencies can be shown by clicking on a red box</text>
<text text-anchor="middle" x="287.75" y="-7.8" font-family="Times,serif" font-size="14.00">Shaded boxes indicate modules with no dependencies</text>
<!-- var1D_mod -->
<g id="node1" class="node">
<title>var1D_mod</title>
<g id="a_node1"><a xlink:href="var1D_mod.html" xlink:title="var1D_mod">
<polygon fill="none" stroke="black" points="329.5,-665 247.5,-665 247.5,-629 329.5,-629 329.5,-665"/>
<text text-anchor="middle" x="288.5" y="-643.3" font-family="Times,serif" font-size="14.00">var1D_mod</text>
</a>
</g>
</g>
<!-- codeprecision_mod -->
<g id="node2" class="node">
<title>codeprecision_mod</title>
<g id="a_node2"><a xlink:href="codeprecision_mod.html" xlink:title="codeprecision_mod">
<polygon fill="gray" stroke="black" points="123,-593 0,-593 0,-557 123,-557 123,-593"/>
<text text-anchor="middle" x="61.5" y="-571.3" font-family="Times,serif" font-size="14.00">codeprecision_mod</text>
</a>
</g>
</g>
<!-- var1D_mod&#45;&gt;codeprecision_mod -->
<g id="edge1" class="edge">
<title>var1D_mod&#45;&gt;codeprecision_mod</title>
<path fill="none" stroke="black" d="M247.39,-633.32C213.71,-622.94 165.42,-608.05 126.5,-596.04"/>
<polygon fill="black" stroke="black" points="127.41,-592.66 116.82,-593.06 125.35,-599.35 127.41,-592.66"/>
</g>
<!-- columndata_mod -->
<g id="node3" class="node">
<title>columndata_mod</title>
<g id="a_node3"><a xlink:href="../modules/columndata_mod.svg" xlink:title="columndata_mod">
<polygon fill="none" stroke="red" points="184.5,-521 72.5,-521 72.5,-485 184.5,-485 184.5,-521"/>
<text text-anchor="middle" x="128.5" y="-499.3" font-family="Times,serif" font-size="14.00">columndata_mod</text>
</a>
</g>
</g>
<!-- var1D_mod&#45;&gt;columndata_mod -->
<g id="edge2" class="edge">
<title>var1D_mod&#45;&gt;columndata_mod</title>
<path fill="none" stroke="black" d="M252.72,-628.91C235.34,-619.65 214.75,-607.2 198.5,-593 177.29,-574.46 157.89,-548.79 144.92,-529.78"/>
<polygon fill="black" stroke="black" points="147.73,-527.68 139.26,-521.3 141.9,-531.56 147.73,-527.68"/>
</g>
<!-- gridstatevector_mod -->
<g id="node4" class="node">
<title>gridstatevector_mod</title>
<g id="a_node4"><a xlink:href="../modules/gridstatevector_mod.svg" xlink:title="gridstatevector_mod">
<polygon fill="none" stroke="red" points="222.5,-449 92.5,-449 92.5,-413 222.5,-413 222.5,-449"/>
<text text-anchor="middle" x="157.5" y="-427.3" font-family="Times,serif" font-size="14.00">gridstatevector_mod</text>
</a>
</g>
</g>
<!-- var1D_mod&#45;&gt;gridstatevector_mod -->
<g id="edge3" class="edge">
<title>var1D_mod&#45;&gt;gridstatevector_mod</title>
<path fill="none" stroke="black" d="M268.24,-628.94C257.7,-619.25 245.22,-606.39 236.5,-593 208.3,-549.71 217.71,-530.64 193.5,-485 188.55,-475.67 182.31,-465.96 176.43,-457.44"/>
<polygon fill="black" stroke="black" points="179.13,-455.2 170.5,-449.07 173.42,-459.25 179.13,-455.2"/>
</g>
<!-- horizontalcoord_mod -->
<g id="node5" class="node">
<title>horizontalcoord_mod</title>
<g id="a_node5"><a xlink:href="../modules/horizontalcoord_mod.svg" xlink:title="horizontalcoord_mod">
<polygon fill="none" stroke="red" points="260.5,-377 126.5,-377 126.5,-341 260.5,-341 260.5,-377"/>
<text text-anchor="middle" x="193.5" y="-355.3" font-family="Times,serif" font-size="14.00">horizontalcoord_mod</text>
</a>
</g>
</g>
<!-- var1D_mod&#45;&gt;horizontalcoord_mod -->
<g id="edge4" class="edge">
<title>var1D_mod&#45;&gt;horizontalcoord_mod</title>
<path fill="none" stroke="black" d="M283.86,-628.84C281.08,-618.48 277.52,-605 274.5,-593 254.44,-513.23 265.66,-487.82 231.5,-413 227.06,-403.27 220.72,-393.5 214.48,-385.04"/>
<polygon fill="black" stroke="black" points="217.23,-382.88 208.36,-377.08 211.68,-387.14 217.23,-382.88"/>
</g>
<!-- mathphysconstants_mod -->
<g id="node6" class="node">
<title>mathphysconstants_mod</title>
<g id="a_node6"><a xlink:href="mathphysconstants_mod.html" xlink:title="mathphysconstants_mod">
<polygon fill="gray" stroke="black" points="298.5,-305 146.5,-305 146.5,-269 298.5,-269 298.5,-305"/>
<text text-anchor="middle" x="222.5" y="-283.3" font-family="Times,serif" font-size="14.00">mathphysconstants_mod</text>
</a>
</g>
</g>
<!-- var1D_mod&#45;&gt;mathphysconstants_mod -->
<g id="edge5" class="edge">
<title>var1D_mod&#45;&gt;mathphysconstants_mod</title>
<path fill="none" stroke="black" d="M288.5,-628.95C288.5,-602.29 288.5,-549.11 288.5,-504 288.5,-504 288.5,-504 288.5,-430 288.5,-389.55 287.74,-377.1 269.5,-341 264.32,-330.75 256.66,-320.92 249.03,-312.57"/>
<polygon fill="black" stroke="black" points="251.54,-310.14 242.09,-305.35 246.49,-314.99 251.54,-310.14"/>
</g>
<!-- midasmpi_mod -->
<g id="node7" class="node">
<title>midasmpi_mod</title>
<g id="a_node7"><a xlink:href="../modules/midasmpi_mod.svg" xlink:title="midasmpi_mod">
<polygon fill="none" stroke="red" points="336.5,-233 234.5,-233 234.5,-197 336.5,-197 336.5,-233"/>
<text text-anchor="middle" x="285.5" y="-211.3" font-family="Times,serif" font-size="14.00">midasmpi_mod</text>
</a>
</g>
</g>
<!-- var1D_mod&#45;&gt;midasmpi_mod -->
<g id="edge6" class="edge">
<title>var1D_mod&#45;&gt;midasmpi_mod</title>
<path fill="none" stroke="black" d="M296.19,-628.91C307.29,-602.62 326.5,-550.45 326.5,-504 326.5,-504 326.5,-504 326.5,-358 326.5,-316.41 310.06,-270.56 298,-242.51"/>
<polygon fill="black" stroke="black" points="301.05,-240.75 293.8,-233.03 294.65,-243.59 301.05,-240.75"/>
</g>
<!-- obsspacedata_mod -->
<g id="node8" class="node">
<title>obsspacedata_mod</title>
<g id="a_node8"><a xlink:href="../modules/obsspacedata_mod.svg" xlink:title="obsspacedata_mod">
<polygon fill="none" stroke="red" points="399,-161 280,-161 280,-125 399,-125 399,-161"/>
<text text-anchor="middle" x="339.5" y="-139.3" font-family="Times,serif" font-size="14.00">obsspacedata_mod</text>
</a>
</g>
</g>
<!-- var1D_mod&#45;&gt;obsspacedata_mod -->
<g id="edge7" class="edge">
<title>var1D_mod&#45;&gt;obsspacedata_mod</title>
<path fill="none" stroke="black" d="M304.99,-628.77C327.34,-603.53 364.5,-554.05 364.5,-504 364.5,-504 364.5,-504 364.5,-286 364.5,-245.6 354.56,-199.71 347.22,-171.3"/>
<polygon fill="black" stroke="black" points="350.52,-170.08 344.56,-161.32 343.75,-171.88 350.52,-170.08"/>
</g>
<!-- timecoord_mod -->
<g id="node9" class="node">
<title>timecoord_mod</title>
<g id="a_node9"><a xlink:href="../modules/timecoord_mod.svg" xlink:title="timecoord_mod">
<polygon fill="none" stroke="red" points="479.5,-89 375.5,-89 375.5,-53 479.5,-53 479.5,-89"/>
<text text-anchor="middle" x="427.5" y="-67.3" font-family="Times,serif" font-size="14.00">timecoord_mod</text>
</a>
</g>
</g>
<!-- var1D_mod&#45;&gt;timecoord_mod -->
<g id="edge8" class="edge">
<title>var1D_mod&#45;&gt;timecoord_mod</title>
<path fill="none" stroke="black" d="M324.3,-628.94C365.48,-606.53 427.5,-562.99 427.5,-504 427.5,-504 427.5,-504 427.5,-214 427.5,-174 427.5,-127.65 427.5,-99.08"/>
<polygon fill="black" stroke="black" points="431,-99.05 427.5,-89.05 424,-99.05 431,-99.05"/>
</g>
<!-- verticalcoord_mod -->
<g id="node10" class="node">
<title>verticalcoord_mod</title>
<g id="a_node10"><a xlink:href="../modules/verticalcoord_mod.svg" xlink:title="verticalcoord_mod">
<polygon fill="none" stroke="red" points="575.5,-593 455.5,-593 455.5,-557 575.5,-557 575.5,-593"/>
<text text-anchor="middle" x="515.5" y="-571.3" font-family="Times,serif" font-size="14.00">verticalcoord_mod</text>
</a>
</g>
</g>
<!-- var1D_mod&#45;&gt;verticalcoord_mod -->
<g id="edge9" class="edge">
<title>var1D_mod&#45;&gt;verticalcoord_mod</title>
<path fill="none" stroke="black" d="M329.61,-633.32C363.29,-622.94 411.58,-608.05 450.5,-596.04"/>
<polygon fill="black" stroke="black" points="451.65,-599.35 460.18,-593.06 449.59,-592.66 451.65,-599.35"/>
</g>
</g>
</svg>
