<?xml version="1.0" encoding="UTF-8" standalone="no"?>
<!DOCTYPE svg PUBLIC "-//W3C//DTD SVG 1.1//EN"
 "http://www.w3.org/Graphics/SVG/1.1/DTD/svg11.dtd">
<!-- Generated by graphviz version 3.0.0 (20220315.2325)
 -->
<!-- Title: varNameList_mod Pages: 1 -->
<svg width="382pt" height="385pt"
 viewBox="0.00 0.00 382.00 385.00" xmlns="http://www.w3.org/2000/svg" xmlns:xlink="http://www.w3.org/1999/xlink">
<g id="graph0" class="graph" transform="scale(1 1) rotate(0) translate(4 381)">
<title>varNameList_mod</title>
<polygon fill="white" stroke="transparent" points="-4,4 -4,-381 378,-381 378,4 -4,4"/>
<text text-anchor="middle" x="187" y="-37.8" font-family="Times,serif" font-size="14.00">Red boxes indicate modules with dependencies not shown</text>
<text text-anchor="middle" x="187" y="-22.8" font-family="Times,serif" font-size="14.00">Lower level dependencies can be shown by clicking on a red box</text>
<text text-anchor="middle" x="187" y="-7.8" font-family="Times,serif" font-size="14.00">Shaded boxes indicate modules with no dependencies</text>
<!-- varNameList_mod -->
<g id="node1" class="node">
<title>varNameList_mod</title>
<g id="a_node1"><a xlink:href="varNameList_mod.html" xlink:title="varNameList_mod">
<polygon fill="none" stroke="black" points="248.75,-377 129.75,-377 129.75,-341 248.75,-341 248.75,-377"/>
<text text-anchor="middle" x="189.25" y="-355.3" font-family="Times,serif" font-size="14.00">varNameList_mod</text>
</a>
</g>
</g>
<!-- bufr_mod -->
<g id="node2" class="node">
<title>bufr_mod</title>
<g id="a_node2"><a xlink:href="bufr_mod.html" xlink:title="bufr_mod">
<polygon fill="gray" stroke="black" points="108.75,-305 37.75,-305 37.75,-269 108.75,-269 108.75,-305"/>
<text text-anchor="middle" x="73.25" y="-283.3" font-family="Times,serif" font-size="14.00">bufr_mod</text>
</a>
</g>
</g>
<!-- varNameList_mod&#45;&gt;bufr_mod -->
<g id="edge1" class="edge">
<title>varNameList_mod&#45;&gt;bufr_mod</title>
<path fill="none" stroke="black" d="M160.87,-340.88C145.71,-331.72 126.84,-320.34 110.51,-310.48"/>
<polygon fill="black" stroke="black" points="112.11,-307.36 101.74,-305.19 108.49,-313.35 112.11,-307.36"/>
</g>
<!-- mathphysconstants_mod -->
<g id="node3" class="node">
<title>mathphysconstants_mod</title>
<g id="a_node3"><a xlink:href="mathphysconstants_mod.html" xlink:title="mathphysconstants_mod">
<polygon fill="gray" stroke="black" points="187.25,-233 35.25,-233 35.25,-197 187.25,-197 187.25,-233"/>
<text text-anchor="middle" x="111.25" y="-211.3" font-family="Times,serif" font-size="14.00">mathphysconstants_mod</text>
</a>
</g>
</g>
<!-- varNameList_mod&#45;&gt;mathphysconstants_mod -->
<g id="edge2" class="edge">
<title>varNameList_mod&#45;&gt;mathphysconstants_mod</title>
<path fill="none" stroke="black" d="M179.84,-340.87C166.37,-316.35 141.48,-271.03 125.67,-242.26"/>
<polygon fill="black" stroke="black" points="128.57,-240.27 120.69,-233.19 122.44,-243.64 128.57,-240.27"/>
</g>
<!-- midasmpi_mod -->
<g id="node4" class="node">
<title>midasmpi_mod</title>
<g id="a_node4"><a xlink:href="../modules/midasmpi_mod.svg" xlink:title="midasmpi_mod">
<polygon fill="none" stroke="red" points="266.25,-161 164.25,-161 164.25,-125 266.25,-125 266.25,-161"/>
<text text-anchor="middle" x="215.25" y="-139.3" font-family="Times,serif" font-size="14.00">midasmpi_mod</text>
</a>
</g>
</g>
<!-- varNameList_mod&#45;&gt;midasmpi_mod -->
<g id="edge3" class="edge">
<title>varNameList_mod&#45;&gt;midasmpi_mod</title>
<path fill="none" stroke="black" d="M191.33,-340.85C195.83,-303.83 206.48,-216.18 211.92,-171.39"/>
<polygon fill="black" stroke="black" points="215.42,-171.58 213.16,-161.23 208.48,-170.74 215.42,-171.58"/>
</g>
<!-- utilities_mod -->
<g id="node5" class="node">
<title>utilities_mod</title>
<g id="a_node5"><a xlink:href="../modules/utilities_mod.svg" xlink:title="utilities_mod">
<polygon fill="none" stroke="red" points="338.75,-89 249.75,-89 249.75,-53 338.75,-53 338.75,-89"/>
<text text-anchor="middle" x="294.25" y="-67.3" font-family="Times,serif" font-size="14.00">utilities_mod</text>
</a>
</g>
</g>
<!-- varNameList_mod&#45;&gt;utilities_mod -->
<g id="edge4" class="edge">
<title>varNameList_mod&#45;&gt;utilities_mod</title>
<path fill="none" stroke="black" d="M198.17,-340.8C215.33,-307.12 253.15,-229.75 275.25,-161 281.77,-140.73 286.69,-117.13 289.89,-99.33"/>
<polygon fill="black" stroke="black" points="293.36,-99.78 291.61,-89.33 286.46,-98.59 293.36,-99.78"/>
</g>
</g>
</svg>
