<?xml version="1.0" encoding="UTF-8" standalone="no"?>
<!DOCTYPE svg PUBLIC "-//W3C//DTD SVG 1.1//EN"
 "http://www.w3.org/Graphics/SVG/1.1/DTD/svg11.dtd">
<!-- Generated by graphviz version 3.0.0 (20220315.2325)
 -->
<!-- Title: varNameList_mod Pages: 1 -->
<svg width="2143pt" height="673pt"
 viewBox="0.00 0.00 2143.00 673.00" xmlns="http://www.w3.org/2000/svg" xmlns:xlink="http://www.w3.org/1999/xlink">
<g id="graph0" class="graph" transform="scale(1 1) rotate(0) translate(4 669)">
<title>varNameList_mod</title>
<polygon fill="white" stroke="transparent" points="-4,4 -4,-669 2139,-669 2139,4 -4,4"/>
<text text-anchor="middle" x="1067.5" y="-649.8" font-family="Times,serif" font-size="14.00">Blue boxes indicate modules with reverse dependencies not shown</text>
<text text-anchor="middle" x="1067.5" y="-634.8" font-family="Times,serif" font-size="14.00">Higher level reverse dependencies can be shown by clicking on a blue box</text>
<text text-anchor="middle" x="1067.5" y="-619.8" font-family="Times,serif" font-size="14.00">Green boxes are programs</text>
<!-- varNameList_mod -->
<g id="node1" class="node">
<title>varNameList_mod</title>
<g id="a_node1"><a xlink:href="varNameList_mod.html" xlink:title="varNameList_mod">
<polygon fill="none" stroke="black" points="1092,-36 973,-36 973,0 1092,0 1092,-36"/>
<text text-anchor="middle" x="1032.5" y="-14.3" font-family="Times,serif" font-size="14.00">varNameList_mod</text>
</a>
</g>
</g>
<!-- advection_mod -->
<g id="node2" class="node">
<title>advection_mod</title>
<g id="a_node2"><a xlink:href="../modules/advection_mod_rev.svg" xlink:title="advection_mod">
<polygon fill="none" stroke="blue" points="101,-108 0,-108 0,-72 101,-72 101,-108"/>
<text text-anchor="middle" x="50.5" y="-86.3" font-family="Times,serif" font-size="14.00">advection_mod</text>
</a>
</g>
</g>
<!-- advection_mod&#45;&gt;varNameList_mod -->
<g id="edge1" class="edge">
<title>advection_mod&#45;&gt;varNameList_mod</title>
<path fill="none" stroke="black" d="M109.23,-73.09C111.34,-72.69 113.43,-72.33 115.5,-72 435.84,-21.36 825.94,-17.73 972.79,-18.38"/>
<ellipse fill="black" stroke="black" cx="104.96" cy="-73.95" rx="4" ry="4"/>
</g>
<!-- analysiserroroi_mod -->
<g id="node3" class="node">
<title>analysiserroroi_mod</title>
<g id="a_node3"><a xlink:href="../modules/analysiserroroi_mod_rev.svg" xlink:title="analysiserroroi_mod">
<polygon fill="none" stroke="blue" points="167,-180 38,-180 38,-144 167,-144 167,-180"/>
<text text-anchor="middle" x="102.5" y="-158.3" font-family="Times,serif" font-size="14.00">analysiserroroi_mod</text>
</a>
</g>
</g>
<!-- analysiserroroi_mod&#45;&gt;varNameList_mod -->
<g id="edge2" class="edge">
<title>analysiserroroi_mod&#45;&gt;varNameList_mod</title>
<path fill="none" stroke="black" d="M116.13,-137.1C129.7,-115.86 152.63,-86.07 181.5,-72 252.15,-37.56 791.25,-23.79 972.94,-20.09"/>
<ellipse fill="black" stroke="black" cx="114" cy="-140.54" rx="4" ry="4"/>
</g>
<!-- bcovarsetupchem_mod -->
<g id="node4" class="node">
<title>bcovarsetupchem_mod</title>
<g id="a_node4"><a xlink:href="../modules/bcovarsetupchem_mod_rev.svg" xlink:title="bcovarsetupchem_mod">
<polygon fill="none" stroke="blue" points="205,-252 62,-252 62,-216 205,-216 205,-252"/>
<text text-anchor="middle" x="133.5" y="-230.3" font-family="Times,serif" font-size="14.00">bcovarsetupchem_mod</text>
</a>
</g>
</g>
<!-- bcovarsetupchem_mod&#45;&gt;varNameList_mod -->
<g id="edge3" class="edge">
<title>bcovarsetupchem_mod&#45;&gt;varNameList_mod</title>
<path fill="none" stroke="black" d="M154.39,-209.6C161.66,-200.73 169.5,-190.28 175.5,-180 201.63,-135.24 177.45,-102.31 219.5,-72 280.17,-28.27 795.51,-20.62 972.84,-19.28"/>
<ellipse fill="black" stroke="black" cx="151.79" cy="-212.7" rx="4" ry="4"/>
</g>
<!-- bmatrix1dvar_mod -->
<g id="node5" class="node">
<title>bmatrix1dvar_mod</title>
<g id="a_node5"><a xlink:href="../modules/bmatrix1dvar_mod_rev.svg" xlink:title="bmatrix1dvar_mod">
<polygon fill="none" stroke="blue" points="243.5,-324 121.5,-324 121.5,-288 243.5,-288 243.5,-324"/>
<text text-anchor="middle" x="182.5" y="-302.3" font-family="Times,serif" font-size="14.00">bmatrix1dvar_mod</text>
</a>
</g>
</g>
<!-- bmatrix1dvar_mod&#45;&gt;varNameList_mod -->
<g id="edge4" class="edge">
<title>bmatrix1dvar_mod&#45;&gt;varNameList_mod</title>
<path fill="none" stroke="black" d="M198.55,-280.95C203.9,-272.13 209.5,-261.88 213.5,-252 244.39,-175.66 194.49,-125.03 257.5,-72 311.8,-26.3 800.79,-19.92 972.9,-19.1"/>
<ellipse fill="black" stroke="black" cx="196.28" cy="-284.59" rx="4" ry="4"/>
</g>
<!-- bmatrixchem_mod -->
<g id="node6" class="node">
<title>bmatrixchem_mod</title>
<g id="a_node6"><a xlink:href="../modules/bmatrixchem_mod_rev.svg" xlink:title="bmatrixchem_mod">
<polygon fill="none" stroke="blue" points="281.5,-396 159.5,-396 159.5,-360 281.5,-360 281.5,-396"/>
<text text-anchor="middle" x="220.5" y="-374.3" font-family="Times,serif" font-size="14.00">bmatrixchem_mod</text>
</a>
</g>
</g>
<!-- bmatrixchem_mod&#45;&gt;varNameList_mod -->
<g id="edge5" class="edge">
<title>bmatrixchem_mod&#45;&gt;varNameList_mod</title>
<path fill="none" stroke="black" d="M237.52,-352.66C242.98,-343.95 248.61,-333.84 252.5,-324 267.38,-286.39 271.5,-275.45 271.5,-235 271.5,-235 271.5,-235 271.5,-161 271.5,-120.03 263.89,-98.07 295.5,-72 347.27,-29.3 806.81,-21 972.92,-19.39"/>
<ellipse fill="black" stroke="black" cx="235.19" cy="-356.26" rx="4" ry="4"/>
</g>
<!-- bmatrixdiff_mod -->
<g id="node7" class="node">
<title>bmatrixdiff_mod</title>
<g id="a_node7"><a xlink:href="../modules/bmatrixdiff_mod_rev.svg" xlink:title="bmatrixdiff_mod">
<polygon fill="none" stroke="blue" points="319.5,-468 209.5,-468 209.5,-432 319.5,-432 319.5,-468"/>
<text text-anchor="middle" x="264.5" y="-446.3" font-family="Times,serif" font-size="14.00">bmatrixdiff_mod</text>
</a>
</g>
</g>
<!-- bmatrixdiff_mod&#45;&gt;varNameList_mod -->
<g id="edge6" class="edge">
<title>bmatrixdiff_mod&#45;&gt;varNameList_mod</title>
<path fill="none" stroke="black" d="M278.1,-424.47C282.54,-415.69 287.18,-405.59 290.5,-396 303.73,-357.78 309.5,-347.45 309.5,-307 309.5,-307 309.5,-307 309.5,-161 309.5,-120.03 301.94,-98.13 333.5,-72 382.22,-31.67 812.71,-21.89 972.85,-19.64"/>
<ellipse fill="black" stroke="black" cx="276.13" cy="-428.25" rx="4" ry="4"/>
</g>
<!-- bmatrixensemble_mod -->
<g id="node8" class="node">
<title>bmatrixensemble_mod</title>
<g id="a_node8"><a xlink:href="../modules/bmatrixensemble_mod_rev.svg" xlink:title="bmatrixensemble_mod">
<polygon fill="none" stroke="blue" points="357,-540 214,-540 214,-504 357,-504 357,-540"/>
<text text-anchor="middle" x="285.5" y="-518.3" font-family="Times,serif" font-size="14.00">bmatrixensemble_mod</text>
</a>
</g>
</g>
<!-- bmatrixensemble_mod&#45;&gt;varNameList_mod -->
<g id="edge7" class="edge">
<title>bmatrixensemble_mod&#45;&gt;varNameList_mod</title>
<path fill="none" stroke="black" d="M308.3,-497.79C315.74,-489.07 323.4,-478.67 328.5,-468 345.95,-431.51 347.5,-419.45 347.5,-379 347.5,-379 347.5,-379 347.5,-161 347.5,-120.03 340,-98.19 371.5,-72 417.17,-34.02 818.78,-22.83 972.76,-19.92"/>
<ellipse fill="black" stroke="black" cx="305.6" cy="-500.84" rx="4" ry="4"/>
</g>
<!-- bmatrixhi_mod -->
<g id="node9" class="node">
<title>bmatrixhi_mod</title>
<g id="a_node9"><a xlink:href="../modules/bmatrixhi_mod_rev.svg" xlink:title="bmatrixhi_mod">
<polygon fill="none" stroke="blue" points="436.5,-612 334.5,-612 334.5,-576 436.5,-576 436.5,-612"/>
<text text-anchor="middle" x="385.5" y="-590.3" font-family="Times,serif" font-size="14.00">bmatrixhi_mod</text>
</a>
</g>
</g>
<!-- bmatrixhi_mod&#45;&gt;varNameList_mod -->
<g id="edge8" class="edge">
<title>bmatrixhi_mod&#45;&gt;varNameList_mod</title>
<path fill="none" stroke="black" d="M385.5,-567.78C385.5,-539.39 385.5,-491.89 385.5,-451 385.5,-451 385.5,-451 385.5,-161 385.5,-120.55 374.15,-98.74 404.5,-72 446.6,-34.9 824.43,-23.23 972.94,-20.05"/>
<ellipse fill="black" stroke="black" cx="385.5" cy="-571.95" rx="4" ry="4"/>
</g>
<!-- calcstatsglb_mod -->
<g id="node10" class="node">
<title>calcstatsglb_mod</title>
<g id="a_node10"><a xlink:href="../modules/calcstatsglb_mod_rev.svg" xlink:title="calcstatsglb_mod">
<polygon fill="none" stroke="blue" points="525,-108 414,-108 414,-72 525,-72 525,-108"/>
<text text-anchor="middle" x="469.5" y="-86.3" font-family="Times,serif" font-size="14.00">calcstatsglb_mod</text>
</a>
</g>
</g>
<!-- calcstatsglb_mod&#45;&gt;varNameList_mod -->
<g id="edge9" class="edge">
<title>calcstatsglb_mod&#45;&gt;varNameList_mod</title>
<path fill="none" stroke="black" d="M533.28,-73.14C535.37,-72.74 537.45,-72.36 539.5,-72 694.69,-44.93 879.93,-29.48 972.96,-22.87"/>
<ellipse fill="black" stroke="black" cx="529.07" cy="-74" rx="4" ry="4"/>
</g>
<!-- calcstatslam_mod -->
<g id="node11" class="node">
<title>calcstatslam_mod</title>
<g id="a_node11"><a xlink:href="../modules/calcstatslam_mod_rev.svg" xlink:title="calcstatslam_mod">
<polygon fill="none" stroke="blue" points="563,-180 448,-180 448,-144 563,-144 563,-180"/>
<text text-anchor="middle" x="505.5" y="-158.3" font-family="Times,serif" font-size="14.00">calcstatslam_mod</text>
</a>
</g>
</g>
<!-- calcstatslam_mod&#45;&gt;varNameList_mod -->
<g id="edge10" class="edge">
<title>calcstatslam_mod&#45;&gt;varNameList_mod</title>
<path fill="none" stroke="black" d="M517.95,-136.85C530.12,-115.92 550.71,-86.75 577.5,-72 644.12,-35.32 865.14,-23.87 972.69,-20.42"/>
<ellipse fill="black" stroke="black" cx="515.96" cy="-140.38" rx="4" ry="4"/>
</g>
<!-- columndata_mod -->
<g id="node12" class="node">
<title>columndata_mod</title>
<g id="a_node12"><a xlink:href="../modules/columndata_mod_rev.svg" xlink:title="columndata_mod">
<polygon fill="none" stroke="blue" points="601.5,-252 489.5,-252 489.5,-216 601.5,-216 601.5,-252"/>
<text text-anchor="middle" x="545.5" y="-230.3" font-family="Times,serif" font-size="14.00">columndata_mod</text>
</a>
</g>
</g>
<!-- columndata_mod&#45;&gt;varNameList_mod -->
<g id="edge11" class="edge">
<title>columndata_mod&#45;&gt;varNameList_mod</title>
<path fill="none" stroke="black" d="M557.82,-208.78C562.27,-199.8 567.24,-189.5 571.5,-180 592.7,-132.71 574.4,-103.58 615.5,-72 670.18,-29.98 871.41,-21.12 973,-19.36"/>
<ellipse fill="black" stroke="black" cx="556.02" cy="-212.38" rx="4" ry="4"/>
</g>
<!-- enkf_mod -->
<g id="node13" class="node">
<title>enkf_mod</title>
<g id="a_node13"><a xlink:href="../modules/enkf_mod_rev.svg" xlink:title="enkf_mod">
<polygon fill="none" stroke="blue" points="639,-324 566,-324 566,-288 639,-288 639,-324"/>
<text text-anchor="middle" x="602.5" y="-302.3" font-family="Times,serif" font-size="14.00">enkf_mod</text>
</a>
</g>
</g>
<!-- enkf_mod&#45;&gt;varNameList_mod -->
<g id="edge12" class="edge">
<title>enkf_mod&#45;&gt;varNameList_mod</title>
<path fill="none" stroke="black" d="M606.41,-279.46C615.46,-221.95 638.22,-86.15 653.5,-72 698.77,-30.07 877.88,-21.08 972.77,-19.31"/>
<ellipse fill="black" stroke="black" cx="605.75" cy="-283.72" rx="4" ry="4"/>
</g>
<!-- ensembleobservations_mod -->
<g id="node14" class="node">
<title>ensembleobservations_mod</title>
<g id="a_node14"><a xlink:href="../modules/ensembleobservations_mod_rev.svg" xlink:title="ensembleobservations_mod">
<polygon fill="none" stroke="blue" points="678,-396 509,-396 509,-360 678,-360 678,-396"/>
<text text-anchor="middle" x="593.5" y="-374.3" font-family="Times,serif" font-size="14.00">ensembleobservations_mod</text>
</a>
</g>
</g>
<!-- ensembleobservations_mod&#45;&gt;varNameList_mod -->
<g id="edge13" class="edge">
<title>ensembleobservations_mod&#45;&gt;varNameList_mod</title>
<path fill="none" stroke="black" d="M622.31,-354.54C631.62,-345.92 641.16,-335.39 647.5,-324 667.22,-288.58 667.5,-275.54 667.5,-235 667.5,-235 667.5,-235 667.5,-161 667.5,-120.03 660.99,-99.34 691.5,-72 731.99,-35.71 886.47,-24.24 972.96,-20.63"/>
<ellipse fill="black" stroke="black" cx="619.25" cy="-357.26" rx="4" ry="4"/>
</g>
<!-- ensemblestatevector_mod -->
<g id="node15" class="node">
<title>ensemblestatevector_mod</title>
<g id="a_node15"><a xlink:href="../modules/ensemblestatevector_mod_rev.svg" xlink:title="ensemblestatevector_mod">
<polygon fill="none" stroke="blue" points="715.5,-468 557.5,-468 557.5,-432 715.5,-432 715.5,-468"/>
<text text-anchor="middle" x="636.5" y="-446.3" font-family="Times,serif" font-size="14.00">ensemblestatevector_mod</text>
</a>
</g>
</g>
<!-- ensemblestatevector_mod&#45;&gt;varNameList_mod -->
<g id="edge14" class="edge">
<title>ensemblestatevector_mod&#45;&gt;varNameList_mod</title>
<path fill="none" stroke="black" d="M663.25,-426.19C671.86,-417.55 680.67,-407.1 686.5,-396 705.3,-360.19 705.5,-347.45 705.5,-307 705.5,-307 705.5,-307 705.5,-161 705.5,-120.03 699.25,-99.63 729.5,-72 764.24,-40.26 894.77,-27.1 972.72,-21.98"/>
<ellipse fill="black" stroke="black" cx="660.24" cy="-429.09" rx="4" ry="4"/>
</g>
<!-- enspostprocess_mod -->
<g id="node16" class="node">
<title>enspostprocess_mod</title>
<g id="a_node16"><a xlink:href="../modules/enspostprocess_mod_rev.svg" xlink:title="enspostprocess_mod">
<polygon fill="none" stroke="blue" points="753,-540 624,-540 624,-504 753,-504 753,-540"/>
<text text-anchor="middle" x="688.5" y="-518.3" font-family="Times,serif" font-size="14.00">enspostprocess_mod</text>
</a>
</g>
</g>
<!-- enspostprocess_mod&#45;&gt;varNameList_mod -->
<g id="edge15" class="edge">
<title>enspostprocess_mod&#45;&gt;varNameList_mod</title>
<path fill="none" stroke="black" d="M707.55,-497.19C713.76,-488.44 720.16,-478.17 724.5,-468 740.38,-430.8 743.5,-419.45 743.5,-379 743.5,-379 743.5,-379 743.5,-161 743.5,-120.03 737.59,-100 767.5,-72 796.61,-44.75 903.92,-30.32 972.73,-23.7"/>
<ellipse fill="black" stroke="black" cx="705.03" cy="-500.63" rx="4" ry="4"/>
</g>
<!-- gridstatevectorfileio_mod -->
<g id="node17" class="node">
<title>gridstatevectorfileio_mod</title>
<g id="a_node17"><a xlink:href="../modules/gridstatevectorfileio_mod_rev.svg" xlink:title="gridstatevectorfileio_mod">
<polygon fill="none" stroke="blue" points="860.5,-612 702.5,-612 702.5,-576 860.5,-576 860.5,-612"/>
<text text-anchor="middle" x="781.5" y="-590.3" font-family="Times,serif" font-size="14.00">gridstatevectorfileio_mod</text>
</a>
</g>
</g>
<!-- gridstatevectorfileio_mod&#45;&gt;varNameList_mod -->
<g id="edge16" class="edge">
<title>gridstatevectorfileio_mod&#45;&gt;varNameList_mod</title>
<path fill="none" stroke="black" d="M781.5,-567.78C781.5,-539.39 781.5,-491.89 781.5,-451 781.5,-451 781.5,-451 781.5,-161 781.5,-120.14 775.26,-100.53 804.5,-72 828.13,-48.94 913.63,-33.8 972.93,-25.82"/>
<ellipse fill="black" stroke="black" cx="781.5" cy="-571.95" rx="4" ry="4"/>
</g>
<!-- gridstatevector_mod -->
<g id="node18" class="node">
<title>gridstatevector_mod</title>
<g id="a_node18"><a xlink:href="../modules/gridstatevector_mod_rev.svg" xlink:title="gridstatevector_mod">
<polygon fill="none" stroke="blue" points="943.5,-108 813.5,-108 813.5,-72 943.5,-72 943.5,-108"/>
<text text-anchor="middle" x="878.5" y="-86.3" font-family="Times,serif" font-size="14.00">gridstatevector_mod</text>
</a>
</g>
</g>
<!-- gridstatevector_mod&#45;&gt;varNameList_mod -->
<g id="edge17" class="edge">
<title>gridstatevector_mod&#45;&gt;varNameList_mod</title>
<path fill="none" stroke="black" d="M923.67,-68.47C946.33,-58.17 973.45,-45.84 994.95,-36.07"/>
<ellipse fill="black" stroke="black" cx="919.81" cy="-70.22" rx="4" ry="4"/>
</g>
<!-- gridvariabletransforms_mod -->
<g id="node19" class="node">
<title>gridvariabletransforms_mod</title>
<g id="a_node19"><a xlink:href="../modules/gridvariabletransforms_mod_rev.svg" xlink:title="gridvariabletransforms_mod">
<polygon fill="none" stroke="blue" points="985,-180 810,-180 810,-144 985,-144 985,-180"/>
<text text-anchor="middle" x="897.5" y="-158.3" font-family="Times,serif" font-size="14.00">gridvariabletransforms_mod</text>
</a>
</g>
</g>
<!-- gridvariabletransforms_mod&#45;&gt;varNameList_mod -->
<g id="edge18" class="edge">
<title>gridvariabletransforms_mod&#45;&gt;varNameList_mod</title>
<path fill="none" stroke="black" d="M921.96,-138.15C931.63,-128.93 942.73,-118.11 952.5,-108 976.03,-83.64 1002.03,-54.22 1017.81,-36.06"/>
<ellipse fill="black" stroke="black" cx="919.06" cy="-140.9" rx="4" ry="4"/>
</g>
<!-- horizontalcoord_mod -->
<g id="node20" class="node">
<title>horizontalcoord_mod</title>
<g id="a_node20"><a xlink:href="../modules/horizontalcoord_mod_rev.svg" xlink:title="horizontalcoord_mod">
<polygon fill="none" stroke="blue" points="1023.5,-252 889.5,-252 889.5,-216 1023.5,-216 1023.5,-252"/>
<text text-anchor="middle" x="956.5" y="-230.3" font-family="Times,serif" font-size="14.00">horizontalcoord_mod</text>
</a>
</g>
</g>
<!-- horizontalcoord_mod&#45;&gt;varNameList_mod -->
<g id="edge19" class="edge">
<title>horizontalcoord_mod&#45;&gt;varNameList_mod</title>
<path fill="none" stroke="black" d="M975.76,-209.45C982.18,-200.64 988.87,-190.27 993.5,-180 1015.84,-130.45 1026.45,-66.31 1030.47,-36.13"/>
<ellipse fill="black" stroke="black" cx="973.34" cy="-212.65" rx="4" ry="4"/>
</g>
<!-- humiditylimits_mod -->
<g id="node21" class="node">
<title>humiditylimits_mod</title>
<g id="a_node21"><a xlink:href="../modules/humiditylimits_mod_rev.svg" xlink:title="humiditylimits_mod">
<polygon fill="none" stroke="blue" points="1061,-324 932,-324 932,-288 1061,-288 1061,-324"/>
<text text-anchor="middle" x="996.5" y="-302.3" font-family="Times,serif" font-size="14.00">humiditylimits_mod</text>
</a>
</g>
</g>
<!-- humiditylimits_mod&#45;&gt;varNameList_mod -->
<g id="edge20" class="edge">
<title>humiditylimits_mod&#45;&gt;varNameList_mod</title>
<path fill="none" stroke="black" d="M1016.96,-281.18C1023.15,-272.55 1029.19,-262.37 1032.5,-252 1057.14,-174.73 1043.19,-75.57 1035.97,-36.21"/>
<ellipse fill="black" stroke="black" cx="1014.41" cy="-284.55" rx="4" ry="4"/>
</g>
<!-- increment_mod -->
<g id="node22" class="node">
<title>increment_mod</title>
<g id="a_node22"><a xlink:href="../modules/increment_mod_rev.svg" xlink:title="increment_mod">
<polygon fill="none" stroke="blue" points="1099,-396 996,-396 996,-360 1099,-360 1099,-396"/>
<text text-anchor="middle" x="1047.5" y="-374.3" font-family="Times,serif" font-size="14.00">increment_mod</text>
</a>
</g>
</g>
<!-- increment_mod&#45;&gt;varNameList_mod -->
<g id="edge21" class="edge">
<title>increment_mod&#45;&gt;varNameList_mod</title>
<path fill="none" stroke="black" d="M1059.34,-352.69C1071.76,-324.92 1089.5,-277.77 1089.5,-235 1089.5,-235 1089.5,-235 1089.5,-161 1089.5,-112.92 1061.01,-61.84 1044.31,-36.04"/>
<ellipse fill="black" stroke="black" cx="1057.66" cy="-356.36" rx="4" ry="4"/>
</g>
<!-- innovation_mod -->
<g id="node23" class="node">
<title>innovation_mod</title>
<g id="a_node23"><a xlink:href="../modules/innovation_mod_rev.svg" xlink:title="innovation_mod">
<polygon fill="none" stroke="blue" points="1137.5,-468 1031.5,-468 1031.5,-432 1137.5,-432 1137.5,-468"/>
<text text-anchor="middle" x="1084.5" y="-446.3" font-family="Times,serif" font-size="14.00">innovation_mod</text>
</a>
</g>
</g>
<!-- innovation_mod&#45;&gt;varNameList_mod -->
<g id="edge22" class="edge">
<title>innovation_mod&#45;&gt;varNameList_mod</title>
<path fill="none" stroke="black" d="M1096.83,-424.26C1109.54,-396.46 1127.5,-349.62 1127.5,-307 1127.5,-307 1127.5,-307 1127.5,-161 1127.5,-108.5 1082.09,-60.72 1054.06,-36.22"/>
<ellipse fill="black" stroke="black" cx="1095.11" cy="-427.96" rx="4" ry="4"/>
</g>
<!-- interpolation_mod -->
<g id="node24" class="node">
<title>interpolation_mod</title>
<g id="a_node24"><a xlink:href="../modules/interpolation_mod_rev.svg" xlink:title="interpolation_mod">
<polygon fill="none" stroke="blue" points="1175.5,-540 1057.5,-540 1057.5,-504 1175.5,-504 1175.5,-540"/>
<text text-anchor="middle" x="1116.5" y="-518.3" font-family="Times,serif" font-size="14.00">interpolation_mod</text>
</a>
</g>
</g>
<!-- interpolation_mod&#45;&gt;varNameList_mod -->
<g id="edge23" class="edge">
<title>interpolation_mod&#45;&gt;varNameList_mod</title>
<path fill="none" stroke="black" d="M1132.16,-496.96C1137.35,-488.13 1142.75,-477.89 1146.5,-468 1160.85,-430.18 1165.5,-419.45 1165.5,-379 1165.5,-379 1165.5,-379 1165.5,-161 1165.5,-102.9 1105.46,-58.77 1066.06,-36.07"/>
<ellipse fill="black" stroke="black" cx="1129.97" cy="-500.57" rx="4" ry="4"/>
</g>
<!-- lambmatrixhi_mod -->
<g id="node25" class="node">
<title>lambmatrixhi_mod</title>
<g id="a_node25"><a xlink:href="../modules/lambmatrixhi_mod_rev.svg" xlink:title="lambmatrixhi_mod">
<polygon fill="none" stroke="blue" points="1265,-612 1142,-612 1142,-576 1265,-576 1265,-612"/>
<text text-anchor="middle" x="1203.5" y="-590.3" font-family="Times,serif" font-size="14.00">lambmatrixhi_mod</text>
</a>
</g>
</g>
<!-- lambmatrixhi_mod&#45;&gt;varNameList_mod -->
<g id="edge24" class="edge">
<title>lambmatrixhi_mod&#45;&gt;varNameList_mod</title>
<path fill="none" stroke="black" d="M1203.5,-567.78C1203.5,-539.39 1203.5,-491.89 1203.5,-451 1203.5,-451 1203.5,-451 1203.5,-161 1203.5,-97.52 1132.89,-56.99 1082.42,-36.13"/>
<ellipse fill="black" stroke="black" cx="1203.5" cy="-571.95" rx="4" ry="4"/>
</g>
<!-- menetrierdiag_mod -->
<g id="node26" class="node">
<title>menetrierdiag_mod</title>
<g id="a_node26"><a xlink:href="../modules/menetrierdiag_mod_rev.svg" xlink:title="menetrierdiag_mod">
<polygon fill="none" stroke="blue" points="1357,-108 1232,-108 1232,-72 1357,-72 1357,-108"/>
<text text-anchor="middle" x="1294.5" y="-86.3" font-family="Times,serif" font-size="14.00">menetrierdiag_mod</text>
</a>
</g>
</g>
<!-- menetrierdiag_mod&#45;&gt;varNameList_mod -->
<g id="edge25" class="edge">
<title>menetrierdiag_mod&#45;&gt;varNameList_mod</title>
<path fill="none" stroke="black" d="M1223.91,-70.14C1182.67,-59.12 1131.22,-45.37 1092.04,-34.91"/>
<ellipse fill="black" stroke="black" cx="1227.88" cy="-71.2" rx="4" ry="4"/>
</g>
<!-- obserrors_mod -->
<g id="node27" class="node">
<title>obserrors_mod</title>
<g id="a_node27"><a xlink:href="../modules/obserrors_mod_rev.svg" xlink:title="obserrors_mod">
<polygon fill="none" stroke="blue" points="1395,-180 1296,-180 1296,-144 1395,-144 1395,-180"/>
<text text-anchor="middle" x="1345.5" y="-158.3" font-family="Times,serif" font-size="14.00">obserrors_mod</text>
</a>
</g>
</g>
<!-- obserrors_mod&#45;&gt;varNameList_mod -->
<g id="edge26" class="edge">
<title>obserrors_mod&#45;&gt;varNameList_mod</title>
<path fill="none" stroke="black" d="M1361.1,-136.75C1371.53,-117.14 1380.81,-89.95 1365.5,-72 1331.06,-31.65 1178.46,-21.87 1092.29,-19.6"/>
<ellipse fill="black" stroke="black" cx="1359.05" cy="-140.37" rx="4" ry="4"/>
</g>
<!-- obsfilter_mod -->
<g id="node28" class="node">
<title>obsfilter_mod</title>
<g id="a_node28"><a xlink:href="../modules/obsfilter_mod_rev.svg" xlink:title="obsfilter_mod">
<polygon fill="none" stroke="blue" points="1433.5,-252 1341.5,-252 1341.5,-216 1433.5,-216 1433.5,-252"/>
<text text-anchor="middle" x="1387.5" y="-230.3" font-family="Times,serif" font-size="14.00">obsfilter_mod</text>
</a>
</g>
</g>
<!-- obsfilter_mod&#45;&gt;varNameList_mod -->
<g id="edge27" class="edge">
<title>obsfilter_mod&#45;&gt;varNameList_mod</title>
<path fill="none" stroke="black" d="M1396.61,-208.24C1408.1,-172.15 1422.13,-105.75 1384.5,-72 1342.46,-34.3 1181.06,-23.41 1092.14,-20.27"/>
<ellipse fill="black" stroke="black" cx="1395.33" cy="-212.08" rx="4" ry="4"/>
</g>
<!-- obsoperatorschem_mod -->
<g id="node29" class="node">
<title>obsoperatorschem_mod</title>
<g id="a_node29"><a xlink:href="../modules/obsoperatorschem_mod_rev.svg" xlink:title="obsoperatorschem_mod">
<polygon fill="none" stroke="blue" points="1471,-324 1324,-324 1324,-288 1471,-288 1471,-324"/>
<text text-anchor="middle" x="1397.5" y="-302.3" font-family="Times,serif" font-size="14.00">obsoperatorschem_mod</text>
</a>
</g>
</g>
<!-- obsoperatorschem_mod&#45;&gt;varNameList_mod -->
<g id="edge28" class="edge">
<title>obsoperatorschem_mod&#45;&gt;varNameList_mod</title>
<path fill="none" stroke="black" d="M1423.67,-281.42C1431.24,-272.97 1438.52,-262.83 1442.5,-252 1462.75,-196.87 1445.01,-104.6 1409.5,-72 1364.34,-30.55 1186.68,-21.34 1092.25,-19.41"/>
<ellipse fill="black" stroke="black" cx="1420.63" cy="-284.63" rx="4" ry="4"/>
</g>
<!-- obsoperators_mod -->
<g id="node30" class="node">
<title>obsoperators_mod</title>
<g id="a_node30"><a xlink:href="../modules/obsoperators_mod_rev.svg" xlink:title="obsoperators_mod">
<polygon fill="none" stroke="blue" points="1509,-396 1392,-396 1392,-360 1509,-360 1509,-396"/>
<text text-anchor="middle" x="1450.5" y="-374.3" font-family="Times,serif" font-size="14.00">obsoperators_mod</text>
</a>
</g>
</g>
<!-- obsoperators_mod&#45;&gt;varNameList_mod -->
<g id="edge29" class="edge">
<title>obsoperators_mod&#45;&gt;varNameList_mod</title>
<path fill="none" stroke="black" d="M1465.56,-352.88C1470.56,-344.05 1475.8,-333.81 1479.5,-324 1493.81,-286.07 1499.5,-275.54 1499.5,-235 1499.5,-235 1499.5,-235 1499.5,-161 1499.5,-112.28 1477.31,-97.01 1435.5,-72 1378.88,-38.13 1189.94,-25.46 1092.21,-21.09"/>
<ellipse fill="black" stroke="black" cx="1463.46" cy="-356.47" rx="4" ry="4"/>
</g>
<!-- obsspacediag_mod -->
<g id="node31" class="node">
<title>obsspacediag_mod</title>
<g id="a_node31"><a xlink:href="../modules/obsspacediag_mod_rev.svg" xlink:title="obsspacediag_mod">
<polygon fill="none" stroke="blue" points="1547.5,-468 1427.5,-468 1427.5,-432 1547.5,-432 1547.5,-468"/>
<text text-anchor="middle" x="1487.5" y="-446.3" font-family="Times,serif" font-size="14.00">obsspacediag_mod</text>
</a>
</g>
</g>
<!-- obsspacediag_mod&#45;&gt;varNameList_mod -->
<g id="edge30" class="edge">
<title>obsspacediag_mod&#45;&gt;varNameList_mod</title>
<path fill="none" stroke="black" d="M1503.11,-424.93C1508.29,-416.11 1513.7,-405.87 1517.5,-396 1532.09,-358.17 1537.5,-347.54 1537.5,-307 1537.5,-307 1537.5,-307 1537.5,-161 1537.5,-112.28 1515.45,-96.78 1473.5,-72 1410.34,-34.7 1197.49,-23.57 1092.33,-20.31"/>
<ellipse fill="black" stroke="black" cx="1500.92" cy="-428.55" rx="4" ry="4"/>
</g>
<!-- obsspaceerrorstddev_mod -->
<g id="node32" class="node">
<title>obsspaceerrorstddev_mod</title>
<g id="a_node32"><a xlink:href="../modules/obsspaceerrorstddev_mod_rev.svg" xlink:title="obsspaceerrorstddev_mod">
<polygon fill="none" stroke="blue" points="1586,-540 1427,-540 1427,-504 1586,-504 1586,-540"/>
<text text-anchor="middle" x="1506.5" y="-518.3" font-family="Times,serif" font-size="14.00">obsspaceerrorstddev_mod</text>
</a>
</g>
</g>
<!-- obsspaceerrorstddev_mod&#45;&gt;varNameList_mod -->
<g id="edge31" class="edge">
<title>obsspaceerrorstddev_mod&#45;&gt;varNameList_mod</title>
<path fill="none" stroke="black" d="M1533.25,-498.19C1541.86,-489.55 1550.67,-479.1 1556.5,-468 1575.3,-432.19 1575.5,-419.45 1575.5,-379 1575.5,-379 1575.5,-379 1575.5,-161 1575.5,-112.28 1553.57,-96.58 1511.5,-72 1441.7,-31.22 1204.32,-21.8 1092.15,-19.64"/>
<ellipse fill="black" stroke="black" cx="1530.24" cy="-501.09" rx="4" ry="4"/>
</g>
<!-- statetocolumn_mod -->
<g id="node33" class="node">
<title>statetocolumn_mod</title>
<g id="a_node33"><a xlink:href="../modules/statetocolumn_mod_rev.svg" xlink:title="statetocolumn_mod">
<polygon fill="none" stroke="blue" points="1676,-612 1551,-612 1551,-576 1676,-576 1676,-612"/>
<text text-anchor="middle" x="1613.5" y="-590.3" font-family="Times,serif" font-size="14.00">statetocolumn_mod</text>
</a>
</g>
</g>
<!-- statetocolumn_mod&#45;&gt;varNameList_mod -->
<g id="edge32" class="edge">
<title>statetocolumn_mod&#45;&gt;varNameList_mod</title>
<path fill="none" stroke="black" d="M1613.5,-567.78C1613.5,-539.39 1613.5,-491.89 1613.5,-451 1613.5,-451 1613.5,-451 1613.5,-161 1613.5,-112.28 1591.67,-96.41 1549.5,-72 1473.07,-27.76 1211.24,-20.19 1092.23,-19.07"/>
<ellipse fill="black" stroke="black" cx="1613.5" cy="-571.95" rx="4" ry="4"/>
</g>
<!-- timecoord_mod -->
<g id="node34" class="node">
<title>timecoord_mod</title>
<g id="a_node34"><a xlink:href="../modules/timecoord_mod_rev.svg" xlink:title="timecoord_mod">
<polygon fill="none" stroke="blue" points="1745.5,-108 1641.5,-108 1641.5,-72 1745.5,-72 1745.5,-108"/>
<text text-anchor="middle" x="1693.5" y="-86.3" font-family="Times,serif" font-size="14.00">timecoord_mod</text>
</a>
</g>
</g>
<!-- timecoord_mod&#45;&gt;varNameList_mod -->
<g id="edge33" class="edge">
<title>timecoord_mod&#45;&gt;varNameList_mod</title>
<path fill="none" stroke="black" d="M1633.54,-73.11C1631.51,-72.71 1629.49,-72.34 1627.5,-72 1433.31,-38.57 1199.62,-25.57 1092.03,-21.09"/>
<ellipse fill="black" stroke="black" cx="1637.52" cy="-73.94" rx="4" ry="4"/>
</g>
<!-- varqc_mod -->
<g id="node35" class="node">
<title>varqc_mod</title>
<g id="a_node35"><a xlink:href="../modules/varqc_mod_rev.svg" xlink:title="varqc_mod">
<polygon fill="none" stroke="blue" points="1783.5,-180 1705.5,-180 1705.5,-144 1783.5,-144 1783.5,-180"/>
<text text-anchor="middle" x="1744.5" y="-158.3" font-family="Times,serif" font-size="14.00">varqc_mod</text>
</a>
</g>
</g>
<!-- varqc_mod&#45;&gt;varNameList_mod -->
<g id="edge34" class="edge">
<title>varqc_mod&#45;&gt;varNameList_mod</title>
<path fill="none" stroke="black" d="M1756.52,-136.33C1764.28,-116.41 1770.29,-88.99 1754.5,-72 1709.8,-23.89 1256.86,-19.01 1092.05,-18.84"/>
<ellipse fill="black" stroke="black" cx="1754.92" cy="-140.13" rx="4" ry="4"/>
</g>
<!-- verticalcoord_mod -->
<g id="node36" class="node">
<title>verticalcoord_mod</title>
<g id="a_node36"><a xlink:href="../modules/verticalcoord_mod_rev.svg" xlink:title="verticalcoord_mod">
<polygon fill="none" stroke="blue" points="1821.5,-252 1701.5,-252 1701.5,-216 1821.5,-216 1821.5,-252"/>
<text text-anchor="middle" x="1761.5" y="-230.3" font-family="Times,serif" font-size="14.00">verticalcoord_mod</text>
</a>
</g>
</g>
<!-- verticalcoord_mod&#45;&gt;varNameList_mod -->
<g id="edge35" class="edge">
<title>verticalcoord_mod&#45;&gt;varNameList_mod</title>
<path fill="none" stroke="black" d="M1779.16,-208.99C1784.54,-200.3 1789.76,-190.13 1792.5,-180 1805.25,-132.96 1811.02,-103.1 1773.5,-72 1721.52,-28.92 1258.9,-20.85 1092.11,-19.35"/>
<ellipse fill="black" stroke="black" cx="1776.83" cy="-212.56" rx="4" ry="4"/>
</g>
<!-- verticalmodes_mod -->
<g id="node37" class="node">
<title>verticalmodes_mod</title>
<g id="a_node37"><a xlink:href="../modules/verticalmodes_mod_rev.svg" xlink:title="verticalmodes_mod">
<polygon fill="none" stroke="blue" points="1885,-324 1760,-324 1760,-288 1885,-288 1885,-324"/>
<text text-anchor="middle" x="1822.5" y="-302.3" font-family="Times,serif" font-size="14.00">verticalmodes_mod</text>
</a>
</g>
</g>
<!-- verticalmodes_mod&#45;&gt;varNameList_mod -->
<g id="edge36" class="edge">
<title>verticalmodes_mod&#45;&gt;varNameList_mod</title>
<path fill="none" stroke="black" d="M1829.66,-279.93C1841.86,-231.19 1859.99,-123.88 1800.5,-72 1747.55,-25.83 1263.55,-19.75 1092.24,-19.05"/>
<ellipse fill="black" stroke="black" cx="1828.62" cy="-283.91" rx="4" ry="4"/>
</g>
<!-- midas_midas_diagbmatrix -->
<g id="node38" class="node">
<title>midas_midas_diagbmatrix</title>
<g id="a_node38"><a xlink:href="../programs/midas_diagbmatrix.html" xlink:title="midas_midas_diagbmatrix">
<polygon fill="gray" stroke="green" points="1995,-396 1832,-396 1832,-360 1995,-360 1995,-396"/>
<text text-anchor="middle" x="1913.5" y="-374.3" font-family="Times,serif" font-size="14.00">midas_midas_diagbmatrix</text>
</a>
</g>
</g>
<!-- midas_midas_diagbmatrix&#45;&gt;varNameList_mod -->
<g id="edge37" class="edge">
<title>midas_midas_diagbmatrix&#45;&gt;varNameList_mod</title>
<path fill="none" stroke="black" d="M1913.5,-351.78C1913.5,-323.39 1913.5,-275.89 1913.5,-235 1913.5,-235 1913.5,-235 1913.5,-161 1913.5,-106.3 1878.05,-95.17 1828.5,-72 1762.4,-41.09 1265.66,-25.15 1092.12,-20.48"/>
<ellipse fill="black" stroke="black" cx="1913.5" cy="-355.95" rx="4" ry="4"/>
</g>
<!-- midas_midas_extractbmatrixfor1dvar -->
<g id="node39" class="node">
<title>midas_midas_extractbmatrixfor1dvar</title>
<g id="a_node39"><a xlink:href="../programs/midas_extractbmatrixfor1dvar.html" xlink:title="midas_midas_extractbmatrixfor1dvar">
<polygon fill="gray" stroke="green" points="2135,-468 1912,-468 1912,-432 2135,-432 2135,-468"/>
<text text-anchor="middle" x="2023.5" y="-446.3" font-family="Times,serif" font-size="14.00">midas_midas_extractbmatrixfor1dvar</text>
</a>
</g>
</g>
<!-- midas_midas_extractbmatrixfor1dvar&#45;&gt;varNameList_mod -->
<g id="edge38" class="edge">
<title>midas_midas_extractbmatrixfor1dvar&#45;&gt;varNameList_mod</title>
<path fill="none" stroke="black" d="M2023.5,-423.78C2023.5,-395.39 2023.5,-347.89 2023.5,-307 2023.5,-307 2023.5,-307 2023.5,-161 2023.5,-84.24 1948.78,-94.84 1875.5,-72 1729.11,-26.38 1259.34,-19.93 1092.22,-19.09"/>
<ellipse fill="black" stroke="black" cx="2023.5" cy="-427.95" rx="4" ry="4"/>
</g>
</g>
</svg>
