<?xml version="1.0" encoding="UTF-8" standalone="no"?>
<!DOCTYPE svg PUBLIC "-//W3C//DTD SVG 1.1//EN"
 "http://www.w3.org/Graphics/SVG/1.1/DTD/svg11.dtd">
<!-- Generated by graphviz version 3.0.0 (20220315.2325)
 -->
<!-- Title: varQC_mod Pages: 1 -->
<svg width="518pt" height="673pt"
 viewBox="0.00 0.00 518.00 673.00" xmlns="http://www.w3.org/2000/svg" xmlns:xlink="http://www.w3.org/1999/xlink">
<g id="graph0" class="graph" transform="scale(1 1) rotate(0) translate(4 669)">
<title>varQC_mod</title>
<polygon fill="white" stroke="transparent" points="-4,4 -4,-669 514,-669 514,4 -4,4"/>
<text text-anchor="middle" x="255" y="-37.8" font-family="Times,serif" font-size="14.00">Red boxes indicate modules with dependencies not shown</text>
<text text-anchor="middle" x="255" y="-22.8" font-family="Times,serif" font-size="14.00">Lower level dependencies can be shown by clicking on a red box</text>
<text text-anchor="middle" x="255" y="-7.8" font-family="Times,serif" font-size="14.00">Shaded boxes indicate modules with no dependencies</text>
<!-- varQC_mod -->
<g id="node1" class="node">
<title>varQC_mod</title>
<g id="a_node1"><a xlink:href="varQC_mod.html" xlink:title="varQC_mod">
<polygon fill="none" stroke="black" points="271.5,-665 187.5,-665 187.5,-629 271.5,-629 271.5,-665"/>
<text text-anchor="middle" x="229.5" y="-643.3" font-family="Times,serif" font-size="14.00">varQC_mod</text>
</a>
</g>
</g>
<!-- bufr_mod -->
<g id="node2" class="node">
<title>bufr_mod</title>
<g id="a_node2"><a xlink:href="bufr_mod.html" xlink:title="bufr_mod">
<polygon fill="gray" stroke="black" points="71,-593 0,-593 0,-557 71,-557 71,-593"/>
<text text-anchor="middle" x="35.5" y="-571.3" font-family="Times,serif" font-size="14.00">bufr_mod</text>
</a>
</g>
</g>
<!-- varQC_mod&#45;&gt;bufr_mod -->
<g id="edge1" class="edge">
<title>varQC_mod&#45;&gt;bufr_mod</title>
<path fill="none" stroke="black" d="M187.4,-630.81C155.9,-619.44 112.86,-603.91 80.64,-592.29"/>
<polygon fill="black" stroke="black" points="81.61,-588.92 71.01,-588.81 79.23,-595.5 81.61,-588.92"/>
</g>
<!-- codtyp_mod -->
<g id="node3" class="node">
<title>codtyp_mod</title>
<g id="a_node3"><a xlink:href="../modules/codtyp_mod.svg" xlink:title="codtyp_mod">
<polygon fill="none" stroke="red" points="125,-521 40,-521 40,-485 125,-485 125,-521"/>
<text text-anchor="middle" x="82.5" y="-499.3" font-family="Times,serif" font-size="14.00">codtyp_mod</text>
</a>
</g>
</g>
<!-- varQC_mod&#45;&gt;codtyp_mod -->
<g id="edge2" class="edge">
<title>varQC_mod&#45;&gt;codtyp_mod</title>
<path fill="none" stroke="black" d="M191.78,-628.88C174.55,-619.84 154.65,-607.59 139.5,-593 120.62,-574.81 105.06,-549.21 95,-530.13"/>
<polygon fill="black" stroke="black" points="98.04,-528.4 90.38,-521.08 91.81,-531.58 98.04,-528.4"/>
</g>
<!-- columndata_mod -->
<g id="node4" class="node">
<title>columndata_mod</title>
<g id="a_node4"><a xlink:href="../modules/columndata_mod.svg" xlink:title="columndata_mod">
<polygon fill="none" stroke="red" points="163.5,-449 51.5,-449 51.5,-413 163.5,-413 163.5,-449"/>
<text text-anchor="middle" x="107.5" y="-427.3" font-family="Times,serif" font-size="14.00">columndata_mod</text>
</a>
</g>
</g>
<!-- varQC_mod&#45;&gt;columndata_mod -->
<g id="edge3" class="edge">
<title>varQC_mod&#45;&gt;columndata_mod</title>
<path fill="none" stroke="black" d="M209.28,-628.91C198.75,-619.21 186.28,-606.36 177.5,-593 149.04,-549.68 154.7,-532.29 133.5,-485 129.54,-476.17 124.96,-466.64 120.76,-458.13"/>
<polygon fill="black" stroke="black" points="123.83,-456.43 116.23,-449.04 117.56,-459.55 123.83,-456.43"/>
</g>
<!-- earthconstants_mod -->
<g id="node5" class="node">
<title>earthconstants_mod</title>
<g id="a_node5"><a xlink:href="../modules/earthconstants_mod.svg" xlink:title="earthconstants_mod">
<polygon fill="none" stroke="red" points="201.5,-377 75.5,-377 75.5,-341 201.5,-341 201.5,-377"/>
<text text-anchor="middle" x="138.5" y="-355.3" font-family="Times,serif" font-size="14.00">earthconstants_mod</text>
</a>
</g>
</g>
<!-- varQC_mod&#45;&gt;earthconstants_mod -->
<g id="edge4" class="edge">
<title>varQC_mod&#45;&gt;earthconstants_mod</title>
<path fill="none" stroke="black" d="M224.86,-628.84C222.08,-618.48 218.52,-605 215.5,-593 195.44,-513.23 204.71,-488.68 172.5,-413 168.5,-403.59 162.88,-393.99 157.36,-385.58"/>
<polygon fill="black" stroke="black" points="160.25,-383.6 151.72,-377.32 154.47,-387.55 160.25,-383.6"/>
</g>
<!-- mathphysconstants_mod -->
<g id="node6" class="node">
<title>mathphysconstants_mod</title>
<g id="a_node6"><a xlink:href="mathphysconstants_mod.html" xlink:title="mathphysconstants_mod">
<polygon fill="gray" stroke="black" points="239.5,-305 87.5,-305 87.5,-269 239.5,-269 239.5,-305"/>
<text text-anchor="middle" x="163.5" y="-283.3" font-family="Times,serif" font-size="14.00">mathphysconstants_mod</text>
</a>
</g>
</g>
<!-- varQC_mod&#45;&gt;mathphysconstants_mod -->
<g id="edge5" class="edge">
<title>varQC_mod&#45;&gt;mathphysconstants_mod</title>
<path fill="none" stroke="black" d="M229.5,-628.95C229.5,-602.29 229.5,-549.11 229.5,-504 229.5,-504 229.5,-504 229.5,-430 229.5,-389.55 228.74,-377.1 210.5,-341 205.32,-330.75 197.66,-320.92 190.03,-312.57"/>
<polygon fill="black" stroke="black" points="192.54,-310.14 183.09,-305.35 187.49,-314.99 192.54,-310.14"/>
</g>
<!-- obsfamilylist_mod -->
<g id="node7" class="node">
<title>obsfamilylist_mod</title>
<g id="a_node7"><a xlink:href="obsfamilylist_mod.html" xlink:title="obsfamilylist_mod">
<polygon fill="gray" stroke="black" points="277,-233 158,-233 158,-197 277,-197 277,-233"/>
<text text-anchor="middle" x="217.5" y="-211.3" font-family="Times,serif" font-size="14.00">obsfamilylist_mod</text>
</a>
</g>
</g>
<!-- varQC_mod&#45;&gt;obsfamilylist_mod -->
<g id="edge6" class="edge">
<title>varQC_mod&#45;&gt;obsfamilylist_mod</title>
<path fill="none" stroke="black" d="M237.19,-628.91C248.29,-602.62 267.5,-550.45 267.5,-504 267.5,-504 267.5,-504 267.5,-358 267.5,-317.55 263.12,-306.71 248.5,-269 244.94,-259.8 239.9,-250.33 234.92,-241.98"/>
<polygon fill="black" stroke="black" points="237.86,-240.08 229.61,-233.43 231.91,-243.77 237.86,-240.08"/>
</g>
<!-- obsspacedata_mod -->
<g id="node8" class="node">
<title>obsspacedata_mod</title>
<g id="a_node8"><a xlink:href="../modules/obsspacedata_mod.svg" xlink:title="obsspacedata_mod">
<polygon fill="none" stroke="red" points="340,-161 221,-161 221,-125 340,-125 340,-161"/>
<text text-anchor="middle" x="280.5" y="-139.3" font-family="Times,serif" font-size="14.00">obsspacedata_mod</text>
</a>
</g>
</g>
<!-- varQC_mod&#45;&gt;obsspacedata_mod -->
<g id="edge7" class="edge">
<title>varQC_mod&#45;&gt;obsspacedata_mod</title>
<path fill="none" stroke="black" d="M245.99,-628.77C268.34,-603.53 305.5,-554.05 305.5,-504 305.5,-504 305.5,-504 305.5,-286 305.5,-245.6 295.56,-199.71 288.22,-171.3"/>
<polygon fill="black" stroke="black" points="291.52,-170.08 285.56,-161.32 284.75,-171.88 291.52,-170.08"/>
</g>
<!-- rmatrix_mod -->
<g id="node9" class="node">
<title>rmatrix_mod</title>
<g id="a_node9"><a xlink:href="../modules/rmatrix_mod.svg" xlink:title="rmatrix_mod">
<polygon fill="none" stroke="red" points="413.5,-89 323.5,-89 323.5,-53 413.5,-53 413.5,-89"/>
<text text-anchor="middle" x="368.5" y="-67.3" font-family="Times,serif" font-size="14.00">rmatrix_mod</text>
</a>
</g>
</g>
<!-- varQC_mod&#45;&gt;rmatrix_mod -->
<g id="edge8" class="edge">
<title>varQC_mod&#45;&gt;rmatrix_mod</title>
<path fill="none" stroke="black" d="M265.3,-628.94C306.48,-606.53 368.5,-562.99 368.5,-504 368.5,-504 368.5,-504 368.5,-214 368.5,-174 368.5,-127.65 368.5,-99.08"/>
<polygon fill="black" stroke="black" points="372,-99.05 368.5,-89.05 365,-99.05 372,-99.05"/>
</g>
<!-- varnamelist_mod -->
<g id="node10" class="node">
<title>varnamelist_mod</title>
<g id="a_node10"><a xlink:href="../modules/varnamelist_mod.svg" xlink:title="varnamelist_mod">
<polygon fill="none" stroke="red" points="510,-593 397,-593 397,-557 510,-557 510,-593"/>
<text text-anchor="middle" x="453.5" y="-571.3" font-family="Times,serif" font-size="14.00">varnamelist_mod</text>
</a>
</g>
</g>
<!-- varQC_mod&#45;&gt;varnamelist_mod -->
<g id="edge9" class="edge">
<title>varQC_mod&#45;&gt;varnamelist_mod</title>
<path fill="none" stroke="black" d="M271.63,-632.83C304.67,-622.51 351.22,-607.96 388.95,-596.17"/>
<polygon fill="black" stroke="black" points="390.34,-599.41 398.84,-593.08 388.25,-592.72 390.34,-599.41"/>
</g>
</g>
</svg>
