<?xml version="1.0" encoding="UTF-8" standalone="no"?>
<!DOCTYPE svg PUBLIC "-//W3C//DTD SVG 1.1//EN"
 "http://www.w3.org/Graphics/SVG/1.1/DTD/svg11.dtd">
<!-- Generated by graphviz version 3.0.0 (20220315.2325)
 -->
<!-- Title: varQC_mod Pages: 1 -->
<svg width="433pt" height="313pt"
 viewBox="0.00 0.00 433.00 313.00" xmlns="http://www.w3.org/2000/svg" xmlns:xlink="http://www.w3.org/1999/xlink">
<g id="graph0" class="graph" transform="scale(1 1) rotate(0) translate(4 309)">
<title>varQC_mod</title>
<polygon fill="white" stroke="transparent" points="-4,4 -4,-309 429,-309 429,4 -4,4"/>
<text text-anchor="middle" x="212.5" y="-289.8" font-family="Times,serif" font-size="14.00">Blue boxes indicate modules with reverse dependencies not shown</text>
<text text-anchor="middle" x="212.5" y="-274.8" font-family="Times,serif" font-size="14.00">Higher level reverse dependencies can be shown by clicking on a blue box</text>
<text text-anchor="middle" x="212.5" y="-259.8" font-family="Times,serif" font-size="14.00">Green boxes are programs</text>
<!-- varQC_mod -->
<g id="node1" class="node">
<title>varQC_mod</title>
<g id="a_node1"><a xlink:href="varQC_mod.html" xlink:title="varQC_mod">
<polygon fill="none" stroke="black" points="248.75,-36 164.75,-36 164.75,0 248.75,0 248.75,-36"/>
<text text-anchor="middle" x="206.75" y="-14.3" font-family="Times,serif" font-size="14.00">varQC_mod</text>
</a>
</g>
</g>
<!-- innovation_mod -->
<g id="node2" class="node">
<title>innovation_mod</title>
<g id="a_node2"><a xlink:href="../modules/innovation_mod_rev.svg" xlink:title="innovation_mod">
<polygon fill="none" stroke="blue" points="178.75,-108 72.75,-108 72.75,-72 178.75,-72 178.75,-108"/>
<text text-anchor="middle" x="125.75" y="-86.3" font-family="Times,serif" font-size="14.00">innovation_mod</text>
</a>
</g>
</g>
<!-- innovation_mod&#45;&gt;varQC_mod -->
<g id="edge1" class="edge">
<title>innovation_mod&#45;&gt;varQC_mod</title>
<path fill="none" stroke="black" d="M151.89,-66.41C163.28,-56.57 176.4,-45.23 186.96,-36.1"/>
<ellipse fill="black" stroke="black" cx="148.8" cy="-69.08" rx="4" ry="4"/>
</g>
<!-- minimization_mod -->
<g id="node3" class="node">
<title>minimization_mod</title>
<g id="a_node3"><a xlink:href="../modules/minimization_mod_rev.svg" xlink:title="minimization_mod">
<polygon fill="none" stroke="blue" points="267.75,-180 145.75,-180 145.75,-144 267.75,-144 267.75,-180"/>
<text text-anchor="middle" x="206.75" y="-158.3" font-family="Times,serif" font-size="14.00">minimization_mod</text>
</a>
</g>
</g>
<!-- minimization_mod&#45;&gt;varQC_mod -->
<g id="edge2" class="edge">
<title>minimization_mod&#45;&gt;varQC_mod</title>
<path fill="none" stroke="black" d="M206.75,-135.56C206.75,-106.86 206.75,-60.96 206.75,-36.19"/>
<ellipse fill="black" stroke="black" cx="206.75" cy="-139.87" rx="4" ry="4"/>
</g>
<!-- midas_midas_var -->
<g id="node4" class="node">
<title>midas_midas_var</title>
<g id="a_node4"><a xlink:href="../programs/midas_var.html" xlink:title="midas_midas_var">
<polygon fill="gray" stroke="green" points="352.25,-252 239.25,-252 239.25,-216 352.25,-216 352.25,-252"/>
<text text-anchor="middle" x="295.75" y="-230.3" font-family="Times,serif" font-size="14.00">midas_midas_var</text>
</a>
</g>
</g>
<!-- midas_midas_var&#45;&gt;varQC_mod -->
<g id="edge3" class="edge">
<title>midas_midas_var&#45;&gt;varQC_mod</title>
<path fill="none" stroke="black" d="M292.39,-207.52C289.51,-189.4 284.55,-164.71 276.75,-144 261.4,-103.27 234.33,-59.81 218.73,-36.39"/>
<ellipse fill="black" stroke="black" cx="293.05" cy="-211.88" rx="4" ry="4"/>
</g>
</g>
</svg>
