<?xml version="1.0" encoding="UTF-8" standalone="no"?>
<!DOCTYPE svg PUBLIC "-//W3C//DTD SVG 1.1//EN"
 "http://www.w3.org/Graphics/SVG/1.1/DTD/svg11.dtd">
<!-- Generated by graphviz version 3.0.0 (20220315.2325)
 -->
<!-- Title: verticalCoord_mod Pages: 1 -->
<svg width="382pt" height="313pt"
 viewBox="0.00 0.00 382.00 313.00" xmlns="http://www.w3.org/2000/svg" xmlns:xlink="http://www.w3.org/1999/xlink">
<g id="graph0" class="graph" transform="scale(1 1) rotate(0) translate(4 309)">
<title>verticalCoord_mod</title>
<polygon fill="white" stroke="transparent" points="-4,4 -4,-309 378,-309 378,4 -4,4"/>
<text text-anchor="middle" x="187" y="-37.8" font-family="Times,serif" font-size="14.00">Red boxes indicate modules with dependencies not shown</text>
<text text-anchor="middle" x="187" y="-22.8" font-family="Times,serif" font-size="14.00">Lower level dependencies can be shown by clicking on a red box</text>
<text text-anchor="middle" x="187" y="-7.8" font-family="Times,serif" font-size="14.00">Shaded boxes indicate modules with no dependencies</text>
<!-- verticalCoord_mod -->
<g id="node1" class="node">
<title>verticalCoord_mod</title>
<g id="a_node1"><a xlink:href="verticalCoord_mod.html" xlink:title="verticalCoord_mod">
<polygon fill="none" stroke="black" points="248.75,-305 125.75,-305 125.75,-269 248.75,-269 248.75,-305"/>
<text text-anchor="middle" x="187.25" y="-283.3" font-family="Times,serif" font-size="14.00">verticalCoord_mod</text>
</a>
</g>
</g>
<!-- midasmpi_mod -->
<g id="node2" class="node">
<title>midasmpi_mod</title>
<g id="a_node2"><a xlink:href="../modules/midasmpi_mod.svg" xlink:title="midasmpi_mod">
<polygon fill="none" stroke="red" points="159.25,-233 57.25,-233 57.25,-197 159.25,-197 159.25,-233"/>
<text text-anchor="middle" x="108.25" y="-211.3" font-family="Times,serif" font-size="14.00">midasmpi_mod</text>
</a>
</g>
</g>
<!-- verticalCoord_mod&#45;&gt;midasmpi_mod -->
<g id="edge1" class="edge">
<title>verticalCoord_mod&#45;&gt;midasmpi_mod</title>
<path fill="none" stroke="black" d="M167.72,-268.7C157.87,-259.97 145.76,-249.24 135.05,-239.75"/>
<polygon fill="black" stroke="black" points="137.36,-237.12 127.55,-233.1 132.72,-242.36 137.36,-237.12"/>
</g>
<!-- utilities_mod -->
<g id="node3" class="node">
<title>utilities_mod</title>
<g id="a_node3"><a xlink:href="../modules/utilities_mod.svg" xlink:title="utilities_mod">
<polygon fill="none" stroke="red" points="231.75,-161 142.75,-161 142.75,-125 231.75,-125 231.75,-161"/>
<text text-anchor="middle" x="187.25" y="-139.3" font-family="Times,serif" font-size="14.00">utilities_mod</text>
</a>
</g>
</g>
<!-- verticalCoord_mod&#45;&gt;utilities_mod -->
<g id="edge2" class="edge">
<title>verticalCoord_mod&#45;&gt;utilities_mod</title>
<path fill="none" stroke="black" d="M187.25,-268.87C187.25,-244.67 187.25,-200.21 187.25,-171.39"/>
<polygon fill="black" stroke="black" points="190.75,-171.19 187.25,-161.19 183.75,-171.19 190.75,-171.19"/>
</g>
<!-- varnamelist_mod -->
<g id="node4" class="node">
<title>varnamelist_mod</title>
<g id="a_node4"><a xlink:href="../modules/varnamelist_mod.svg" xlink:title="varnamelist_mod">
<polygon fill="none" stroke="red" points="316.75,-89 203.75,-89 203.75,-53 316.75,-53 316.75,-89"/>
<text text-anchor="middle" x="260.25" y="-67.3" font-family="Times,serif" font-size="14.00">varnamelist_mod</text>
</a>
</g>
</g>
<!-- verticalCoord_mod&#45;&gt;varnamelist_mod -->
<g id="edge3" class="edge">
<title>verticalCoord_mod&#45;&gt;varnamelist_mod</title>
<path fill="none" stroke="black" d="M195.63,-268.98C207.03,-245.27 227.48,-200.72 240.25,-161 246.78,-140.68 251.98,-117.08 255.44,-99.3"/>
<polygon fill="black" stroke="black" points="258.91,-99.78 257.32,-89.31 252.03,-98.49 258.91,-99.78"/>
</g>
</g>
</svg>
