<?xml version="1.0" encoding="UTF-8" standalone="no"?>
<!DOCTYPE svg PUBLIC "-//W3C//DTD SVG 1.1//EN"
 "http://www.w3.org/Graphics/SVG/1.1/DTD/svg11.dtd">
<!-- Generated by graphviz version 3.0.0 (20220315.2325)
 -->
<!-- Title: windRotation_mod Pages: 1 -->
<svg width="382pt" height="385pt"
 viewBox="0.00 0.00 382.00 385.00" xmlns="http://www.w3.org/2000/svg" xmlns:xlink="http://www.w3.org/1999/xlink">
<g id="graph0" class="graph" transform="scale(1 1) rotate(0) translate(4 381)">
<title>windRotation_mod</title>
<polygon fill="white" stroke="transparent" points="-4,4 -4,-381 378,-381 378,4 -4,4"/>
<text text-anchor="middle" x="187" y="-37.8" font-family="Times,serif" font-size="14.00">Red boxes indicate modules with dependencies not shown</text>
<text text-anchor="middle" x="187" y="-22.8" font-family="Times,serif" font-size="14.00">Lower level dependencies can be shown by clicking on a red box</text>
<text text-anchor="middle" x="187" y="-7.8" font-family="Times,serif" font-size="14.00">Shaded boxes indicate modules with no dependencies</text>
<!-- windRotation_mod -->
<g id="node1" class="node">
<title>windRotation_mod</title>
<g id="a_node1"><a xlink:href="windRotation_mod.html" xlink:title="windRotation_mod">
<polygon fill="none" stroke="black" points="266.75,-377 144.75,-377 144.75,-341 266.75,-341 266.75,-377"/>
<text text-anchor="middle" x="205.75" y="-355.3" font-family="Times,serif" font-size="14.00">windRotation_mod</text>
</a>
</g>
</g>
<!-- horizontalcoord_mod -->
<g id="node2" class="node">
<title>horizontalcoord_mod</title>
<g id="a_node2"><a xlink:href="../modules/horizontalcoord_mod.svg" xlink:title="horizontalcoord_mod">
<polygon fill="none" stroke="red" points="142.75,-305 8.75,-305 8.75,-269 142.75,-269 142.75,-305"/>
<text text-anchor="middle" x="75.75" y="-283.3" font-family="Times,serif" font-size="14.00">horizontalcoord_mod</text>
</a>
</g>
</g>
<!-- windRotation_mod&#45;&gt;horizontalcoord_mod -->
<g id="edge1" class="edge">
<title>windRotation_mod&#45;&gt;horizontalcoord_mod</title>
<path fill="none" stroke="black" d="M173.95,-340.88C156.64,-331.55 135.03,-319.92 116.49,-309.94"/>
<polygon fill="black" stroke="black" points="118.14,-306.85 107.67,-305.19 114.82,-313.01 118.14,-306.85"/>
</g>
<!-- mathphysconstants_mod -->
<g id="node3" class="node">
<title>mathphysconstants_mod</title>
<g id="a_node3"><a xlink:href="mathphysconstants_mod.html" xlink:title="mathphysconstants_mod">
<polygon fill="gray" stroke="black" points="213.75,-233 61.75,-233 61.75,-197 213.75,-197 213.75,-233"/>
<text text-anchor="middle" x="137.75" y="-211.3" font-family="Times,serif" font-size="14.00">mathphysconstants_mod</text>
</a>
</g>
</g>
<!-- windRotation_mod&#45;&gt;mathphysconstants_mod -->
<g id="edge2" class="edge">
<title>windRotation_mod&#45;&gt;mathphysconstants_mod</title>
<path fill="none" stroke="black" d="M197.55,-340.87C185.81,-316.35 164.1,-271.03 150.32,-242.26"/>
<polygon fill="black" stroke="black" points="153.46,-240.7 145.98,-233.19 147.14,-243.72 153.46,-240.7"/>
</g>
<!-- midasmpi_mod -->
<g id="node4" class="node">
<title>midasmpi_mod</title>
<g id="a_node4"><a xlink:href="../modules/midasmpi_mod.svg" xlink:title="midasmpi_mod">
<polygon fill="none" stroke="red" points="292.75,-161 190.75,-161 190.75,-125 292.75,-125 292.75,-161"/>
<text text-anchor="middle" x="241.75" y="-139.3" font-family="Times,serif" font-size="14.00">midasmpi_mod</text>
</a>
</g>
</g>
<!-- windRotation_mod&#45;&gt;midasmpi_mod -->
<g id="edge3" class="edge">
<title>windRotation_mod&#45;&gt;midasmpi_mod</title>
<path fill="none" stroke="black" d="M208.64,-340.85C214.88,-303.75 229.67,-215.81 237.19,-171.1"/>
<polygon fill="black" stroke="black" points="240.64,-171.67 238.85,-161.23 233.74,-170.51 240.64,-171.67"/>
</g>
<!-- utilities_mod -->
<g id="node5" class="node">
<title>utilities_mod</title>
<g id="a_node5"><a xlink:href="../modules/utilities_mod.svg" xlink:title="utilities_mod">
<polygon fill="none" stroke="red" points="365.25,-89 276.25,-89 276.25,-53 365.25,-53 365.25,-89"/>
<text text-anchor="middle" x="320.75" y="-67.3" font-family="Times,serif" font-size="14.00">utilities_mod</text>
</a>
</g>
</g>
<!-- windRotation_mod&#45;&gt;utilities_mod -->
<g id="edge4" class="edge">
<title>windRotation_mod&#45;&gt;utilities_mod</title>
<path fill="none" stroke="black" d="M214.61,-340.87C219.93,-330.51 226.8,-317.04 232.75,-305 264.19,-241.38 278.85,-228.17 301.75,-161 308.66,-140.72 313.59,-116.95 316.68,-99.08"/>
<polygon fill="black" stroke="black" points="320.16,-99.49 318.34,-89.05 313.26,-98.35 320.16,-99.49"/>
</g>
</g>
</svg>
