<?xml version="1.0" encoding="UTF-8" standalone="no"?>
<!DOCTYPE svg PUBLIC "-//W3C//DTD SVG 1.1//EN"
 "http://www.w3.org/Graphics/SVG/1.1/DTD/svg11.dtd">
<!-- Generated by graphviz version 3.0.0 (20220315.2325)
 -->
<!-- Title: midas_ensPostProcess Pages: 1 -->
<svg width="808pt" height="673pt"
 viewBox="0.00 0.00 808.00 673.00" xmlns="http://www.w3.org/2000/svg" xmlns:xlink="http://www.w3.org/1999/xlink">
<g id="graph0" class="graph" transform="scale(1 1) rotate(0) translate(4 669)">
<title>midas_ensPostProcess</title>
<polygon fill="white" stroke="transparent" points="-4,4 -4,-669 804,-669 804,4 -4,4"/>
<text text-anchor="middle" x="400" y="-37.8" font-family="Times,serif" font-size="14.00">Red boxes indicate modules with dependencies not shown</text>
<text text-anchor="middle" x="400" y="-22.8" font-family="Times,serif" font-size="14.00">Lower level dependencies can be shown by clicking on a red box</text>
<text text-anchor="middle" x="400" y="-7.8" font-family="Times,serif" font-size="14.00">Shaded boxes indicate modules with no dependencies</text>
<!-- midas_ensPostProcess -->
<g id="node1" class="node">
<title>midas_ensPostProcess</title>
<g id="a_node1"><a xlink:href="midas_ensPostProcess.html" xlink:title="midas_ensPostProcess">
<polygon fill="none" stroke="black" points="460,-665 321,-665 321,-629 460,-629 460,-665"/>
<text text-anchor="middle" x="390.5" y="-643.3" font-family="Times,serif" font-size="14.00">midas_ensPostProcess</text>
</a>
</g>
</g>
<!-- ensembleStateVector_mod -->
<g id="node2" class="node">
<title>ensembleStateVector_mod</title>
<g id="a_node2"><a xlink:href="../modules/ensembleStateVector_mod.html" xlink:title="ensembleStateVector_mod">
<polygon fill="gray" stroke="black" points="163,-593 0,-593 0,-557 163,-557 163,-593"/>
<text text-anchor="middle" x="81.5" y="-571.3" font-family="Times,serif" font-size="14.00">ensembleStateVector_mod</text>
</a>
</g>
</g>
<!-- midas_ensPostProcess&#45;&gt;ensembleStateVector_mod -->
<g id="edge1" class="edge">
<title>midas_ensPostProcess&#45;&gt;ensembleStateVector_mod</title>
<path fill="none" stroke="black" d="M320.77,-630.2C275.06,-619.85 215.01,-606.24 166.5,-595.26"/>
<polygon fill="black" stroke="black" points="167.17,-591.82 156.65,-593.02 165.63,-598.65 167.17,-591.82"/>
</g>
<!-- ensPostProcess_mod -->
<g id="node3" class="node">
<title>ensPostProcess_mod</title>
<g id="a_node3"><a xlink:href="../modules/ensPostProcess_mod.html" xlink:title="ensPostProcess_mod">
<polygon fill="gray" stroke="black" points="229,-521 98,-521 98,-485 229,-485 229,-521"/>
<text text-anchor="middle" x="163.5" y="-499.3" font-family="Times,serif" font-size="14.00">ensPostProcess_mod</text>
</a>
</g>
</g>
<!-- midas_ensPostProcess&#45;&gt;ensPostProcess_mod -->
<g id="edge2" class="edge">
<title>midas_ensPostProcess&#45;&gt;ensPostProcess_mod</title>
<path fill="none" stroke="black" d="M321.7,-628.91C295.83,-620.56 267.02,-608.83 243.5,-593 218.12,-575.92 195.48,-549.06 180.81,-529.3"/>
<polygon fill="black" stroke="black" points="183.54,-527.11 174.85,-521.06 177.87,-531.21 183.54,-527.11"/>
</g>
<!-- fileNames_mod -->
<g id="node4" class="node">
<title>fileNames_mod</title>
<g id="a_node4"><a xlink:href="../modules/fileNames_mod.html" xlink:title="fileNames_mod">
<polygon fill="gray" stroke="black" points="267.5,-449 163.5,-449 163.5,-413 267.5,-413 267.5,-449"/>
<text text-anchor="middle" x="215.5" y="-427.3" font-family="Times,serif" font-size="14.00">fileNames_mod</text>
</a>
</g>
</g>
<!-- midas_ensPostProcess&#45;&gt;fileNames_mod -->
<g id="edge3" class="edge">
<title>midas_ensPostProcess&#45;&gt;fileNames_mod</title>
<path fill="none" stroke="black" d="M336.39,-628.91C317.05,-620.6 296.39,-608.9 281.5,-593 246.07,-555.17 257.21,-532.94 237.5,-485 233.96,-476.39 230.07,-467.01 226.56,-458.56"/>
<polygon fill="black" stroke="black" points="229.73,-457.06 222.66,-449.17 223.27,-459.75 229.73,-457.06"/>
</g>
<!-- gridStateVectorFileIO_mod -->
<g id="node5" class="node">
<title>gridStateVectorFileIO_mod</title>
<g id="a_node5"><a xlink:href="../modules/gridStateVectorFileIO_mod.html" xlink:title="gridStateVectorFileIO_mod">
<polygon fill="gray" stroke="black" points="305.5,-377 135.5,-377 135.5,-341 305.5,-341 305.5,-377"/>
<text text-anchor="middle" x="220.5" y="-355.3" font-family="Times,serif" font-size="14.00">gridStateVectorFileIO_mod</text>
</a>
</g>
</g>
<!-- midas_ensPostProcess&#45;&gt;gridStateVectorFileIO_mod -->
<g id="edge4" class="edge">
<title>midas_ensPostProcess&#45;&gt;gridStateVectorFileIO_mod</title>
<path fill="none" stroke="black" d="M358.46,-628.92C344.54,-619.97 329.22,-607.78 319.5,-593 274.29,-524.29 317.63,-484.23 276.5,-413 270.22,-402.13 261.03,-392.12 251.91,-383.79"/>
<polygon fill="black" stroke="black" points="254.17,-381.11 244.32,-377.2 249.58,-386.4 254.17,-381.11"/>
</g>
<!-- gridStateVector_mod -->
<g id="node6" class="node">
<title>gridStateVector_mod</title>
<g id="a_node6"><a xlink:href="../modules/gridStateVector_mod.html" xlink:title="gridStateVector_mod">
<polygon fill="gray" stroke="black" points="343.5,-305 209.5,-305 209.5,-269 343.5,-269 343.5,-305"/>
<text text-anchor="middle" x="276.5" y="-283.3" font-family="Times,serif" font-size="14.00">gridStateVector_mod</text>
</a>
</g>
</g>
<!-- midas_ensPostProcess&#45;&gt;gridStateVector_mod -->
<g id="edge5" class="edge">
<title>midas_ensPostProcess&#45;&gt;gridStateVector_mod</title>
<path fill="none" stroke="black" d="M377.83,-628.57C371.03,-618.56 362.95,-605.52 357.5,-593 341.16,-555.43 333.5,-544.97 333.5,-504 333.5,-504 333.5,-504 333.5,-430 333.5,-389.55 330.85,-377.99 314.5,-341 310.17,-331.21 303.86,-321.43 297.62,-312.98"/>
<polygon fill="black" stroke="black" points="300.36,-310.8 291.48,-305.03 294.82,-315.08 300.36,-310.8"/>
</g>
<!-- horizontalCoord_mod -->
<g id="node7" class="node">
<title>horizontalCoord_mod</title>
<g id="a_node7"><a xlink:href="../modules/horizontalCoord_mod.html" xlink:title="horizontalCoord_mod">
<polygon fill="gray" stroke="black" points="381,-233 244,-233 244,-197 381,-197 381,-233"/>
<text text-anchor="middle" x="312.5" y="-211.3" font-family="Times,serif" font-size="14.00">horizontalCoord_mod</text>
</a>
</g>
</g>
<!-- midas_ensPostProcess&#45;&gt;horizontalCoord_mod -->
<g id="edge6" class="edge">
<title>midas_ensPostProcess&#45;&gt;horizontalCoord_mod</title>
<path fill="none" stroke="black" d="M386.66,-628.61C381.1,-601.94 371.5,-549.27 371.5,-504 371.5,-504 371.5,-504 371.5,-358 371.5,-317.55 369.3,-305.79 352.5,-269 348.05,-259.25 341.55,-249.59 335.08,-241.24"/>
<polygon fill="black" stroke="black" points="337.72,-238.93 328.7,-233.37 332.28,-243.34 337.72,-238.93"/>
</g>
<!-- midasMpi_mod -->
<g id="node8" class="node">
<title>midasMpi_mod</title>
<g id="a_node8"><a xlink:href="../modules/midasMpi_mod.html" xlink:title="midasMpi_mod">
<polygon fill="gray" stroke="black" points="419.5,-161 315.5,-161 315.5,-125 419.5,-125 419.5,-161"/>
<text text-anchor="middle" x="367.5" y="-139.3" font-family="Times,serif" font-size="14.00">midasMpi_mod</text>
</a>
</g>
</g>
<!-- midas_ensPostProcess&#45;&gt;midasMpi_mod -->
<g id="edge7" class="edge">
<title>midas_ensPostProcess&#45;&gt;midasMpi_mod</title>
<path fill="none" stroke="black" d="M394.34,-628.61C399.9,-601.94 409.5,-549.27 409.5,-504 409.5,-504 409.5,-504 409.5,-286 409.5,-244.15 392.51,-198.1 380.15,-170.11"/>
<polygon fill="black" stroke="black" points="383.33,-168.66 376,-161.01 376.96,-171.56 383.33,-168.66"/>
</g>
<!-- ramDisk_mod -->
<g id="node9" class="node">
<title>ramDisk_mod</title>
<g id="a_node9"><a xlink:href="../modules/ramDisk_mod.html" xlink:title="ramDisk_mod">
<polygon fill="gray" stroke="black" points="495,-89 400,-89 400,-53 495,-53 495,-89"/>
<text text-anchor="middle" x="447.5" y="-67.3" font-family="Times,serif" font-size="14.00">ramDisk_mod</text>
</a>
</g>
</g>
<!-- midas_ensPostProcess&#45;&gt;ramDisk_mod -->
<g id="edge8" class="edge">
<title>midas_ensPostProcess&#45;&gt;ramDisk_mod</title>
<path fill="none" stroke="black" d="M402.31,-628.96C419.01,-603.16 447.5,-552.08 447.5,-504 447.5,-504 447.5,-504 447.5,-214 447.5,-174 447.5,-127.65 447.5,-99.08"/>
<polygon fill="black" stroke="black" points="451,-99.05 447.5,-89.05 444,-99.05 451,-99.05"/>
</g>
<!-- timeCoord_mod -->
<g id="node10" class="node">
<title>timeCoord_mod</title>
<g id="a_node10"><a xlink:href="../modules/timeCoord_mod.html" xlink:title="timeCoord_mod">
<polygon fill="gray" stroke="black" points="583,-593 476,-593 476,-557 583,-557 583,-593"/>
<text text-anchor="middle" x="529.5" y="-571.3" font-family="Times,serif" font-size="14.00">timeCoord_mod</text>
</a>
</g>
</g>
<!-- midas_ensPostProcess&#45;&gt;timeCoord_mod -->
<g id="edge9" class="edge">
<title>midas_ensPostProcess&#45;&gt;timeCoord_mod</title>
<path fill="none" stroke="black" d="M424.5,-628.88C443.1,-619.51 466.33,-607.81 486.21,-597.8"/>
<polygon fill="black" stroke="black" points="488.01,-600.81 495.37,-593.19 484.86,-594.56 488.01,-600.81"/>
</g>
<!-- utilities_mod -->
<g id="node11" class="node">
<title>utilities_mod</title>
<g id="a_node11"><a xlink:href="../modules/utilities_mod.svg" xlink:title="utilities_mod">
<polygon fill="none" stroke="red" points="638,-521 549,-521 549,-485 638,-485 638,-521"/>
<text text-anchor="middle" x="593.5" y="-499.3" font-family="Times,serif" font-size="14.00">utilities_mod</text>
</a>
</g>
</g>
<!-- midas_ensPostProcess&#45;&gt;utilities_mod -->
<g id="edge10" class="edge">
<title>midas_ensPostProcess&#45;&gt;utilities_mod</title>
<path fill="none" stroke="black" d="M460.12,-636.64C511.46,-628.16 575.1,-613.79 591.5,-593 605.07,-575.8 604.22,-550.36 600.77,-531.08"/>
<polygon fill="black" stroke="black" points="604.15,-530.15 598.65,-521.09 597.3,-531.6 604.15,-530.15"/>
</g>
<!-- version_mod -->
<g id="node12" class="node">
<title>version_mod</title>
<g id="a_node12"><a xlink:href="../modules/version_mod.html" xlink:title="version_mod">
<polygon fill="gray" stroke="black" points="710.5,-449 622.5,-449 622.5,-413 710.5,-413 710.5,-449"/>
<text text-anchor="middle" x="666.5" y="-427.3" font-family="Times,serif" font-size="14.00">version_mod</text>
</a>
</g>
</g>
<!-- midas_ensPostProcess&#45;&gt;version_mod -->
<g id="edge11" class="edge">
<title>midas_ensPostProcess&#45;&gt;version_mod</title>
<path fill="none" stroke="black" d="M460,-644.43C507.27,-640.02 568.75,-627.35 611.5,-593 652.09,-560.39 662.86,-496.36 665.63,-459.64"/>
<polygon fill="black" stroke="black" points="669.15,-459.37 666.26,-449.18 662.16,-458.95 669.15,-459.37"/>
</g>
<!-- verticalCoord_mod -->
<g id="node13" class="node">
<title>verticalCoord_mod</title>
<g id="a_node13"><a xlink:href="../modules/verticalCoord_mod.html" xlink:title="verticalCoord_mod">
<polygon fill="gray" stroke="black" points="800,-377 677,-377 677,-341 800,-341 800,-377"/>
<text text-anchor="middle" x="738.5" y="-355.3" font-family="Times,serif" font-size="14.00">verticalCoord_mod</text>
</a>
</g>
</g>
<!-- midas_ensPostProcess&#45;&gt;verticalCoord_mod -->
<g id="edge12" class="edge">
<title>midas_ensPostProcess&#45;&gt;verticalCoord_mod</title>
<path fill="none" stroke="black" d="M460.29,-637.79C524.01,-629.14 612.41,-613.87 640.5,-593 708.11,-542.77 729.42,-436.9 735.86,-387.05"/>
<polygon fill="black" stroke="black" points="739.35,-387.37 737.05,-377.02 732.4,-386.54 739.35,-387.37"/>
</g>
</g>
</svg>
