<?xml version="1.0" encoding="UTF-8" standalone="no"?>
<!DOCTYPE svg PUBLIC "-//W3C//DTD SVG 1.1//EN"
 "http://www.w3.org/Graphics/SVG/1.1/DTD/svg11.dtd">
<!-- Generated by graphviz version 3.0.0 (20220315.2325)
 -->
<!-- Title: midas_obsSelection Pages: 1 -->
<svg width="1439pt" height="673pt"
 viewBox="0.00 0.00 1439.00 673.00" xmlns="http://www.w3.org/2000/svg" xmlns:xlink="http://www.w3.org/1999/xlink">
<g id="graph0" class="graph" transform="scale(1 1) rotate(0) translate(4 669)">
<title>midas_obsSelection</title>
<polygon fill="white" stroke="transparent" points="-4,4 -4,-669 1435,-669 1435,4 -4,4"/>
<text text-anchor="middle" x="715.5" y="-37.8" font-family="Times,serif" font-size="14.00">Red boxes indicate modules with dependencies not shown</text>
<text text-anchor="middle" x="715.5" y="-22.8" font-family="Times,serif" font-size="14.00">Lower level dependencies can be shown by clicking on a red box</text>
<text text-anchor="middle" x="715.5" y="-7.8" font-family="Times,serif" font-size="14.00">Shaded boxes indicate modules with no dependencies</text>
<!-- midas_obsSelection -->
<g id="node1" class="node">
<title>midas_obsSelection</title>
<g id="a_node1"><a xlink:href="midas_obsSelection.html" xlink:title="midas_obsSelection">
<polygon fill="none" stroke="black" points="807,-665 682,-665 682,-629 807,-629 807,-665"/>
<text text-anchor="middle" x="744.5" y="-643.3" font-family="Times,serif" font-size="14.00">midas_obsSelection</text>
</a>
</g>
</g>
<!-- backgroundCheck_mod -->
<g id="node2" class="node">
<title>backgroundCheck_mod</title>
<g id="a_node2"><a xlink:href="../modules/backgroundCheck_mod.html" xlink:title="backgroundCheck_mod">
<polygon fill="gray" stroke="black" points="147,-593 0,-593 0,-557 147,-557 147,-593"/>
<text text-anchor="middle" x="73.5" y="-571.3" font-family="Times,serif" font-size="14.00">backgroundCheck_mod</text>
</a>
</g>
</g>
<!-- midas_obsSelection&#45;&gt;backgroundCheck_mod -->
<g id="edge1" class="edge">
<title>midas_obsSelection&#45;&gt;backgroundCheck_mod</title>
<path fill="none" stroke="black" d="M681.71,-642.36C574.62,-635.69 349.93,-619.7 161.5,-593 160.2,-592.82 158.89,-592.63 157.57,-592.43"/>
<polygon fill="black" stroke="black" points="157.77,-588.92 147.35,-590.82 156.69,-595.83 157.77,-588.92"/>
</g>
<!-- bgckCSR_mod -->
<g id="node3" class="node">
<title>bgckCSR_mod</title>
<g id="a_node3"><a xlink:href="../modules/bgckCSR_mod.html" xlink:title="bgckCSR_mod">
<polygon fill="gray" stroke="black" points="205.5,-521 105.5,-521 105.5,-485 205.5,-485 205.5,-521"/>
<text text-anchor="middle" x="155.5" y="-499.3" font-family="Times,serif" font-size="14.00">bgckCSR_mod</text>
</a>
</g>
</g>
<!-- midas_obsSelection&#45;&gt;bgckCSR_mod -->
<g id="edge2" class="edge">
<title>midas_obsSelection&#45;&gt;bgckCSR_mod</title>
<path fill="none" stroke="black" d="M681.99,-646.01C560.29,-645.03 296.74,-637.63 219.5,-593 195.03,-578.86 177.42,-551.18 166.94,-530.43"/>
<polygon fill="black" stroke="black" points="169.98,-528.67 162.5,-521.17 163.66,-531.7 169.98,-528.67"/>
</g>
<!-- bgckmicrowave_mod -->
<g id="node4" class="node">
<title>bgckmicrowave_mod</title>
<g id="a_node4"><a xlink:href="../modules/bgckmicrowave_mod.svg" xlink:title="bgckmicrowave_mod">
<polygon fill="none" stroke="red" points="243.5,-449 107.5,-449 107.5,-413 243.5,-413 243.5,-449"/>
<text text-anchor="middle" x="175.5" y="-427.3" font-family="Times,serif" font-size="14.00">bgckmicrowave_mod</text>
</a>
</g>
</g>
<!-- midas_obsSelection&#45;&gt;bgckmicrowave_mod -->
<g id="edge3" class="edge">
<title>midas_obsSelection&#45;&gt;bgckmicrowave_mod</title>
<path fill="none" stroke="black" d="M681.78,-642.76C557.84,-635.85 290.63,-618.19 257.5,-593 216.38,-561.73 239.57,-530.17 214.5,-485 209.26,-475.56 202.58,-465.87 196.23,-457.4"/>
<polygon fill="black" stroke="black" points="198.93,-455.17 190.05,-449.38 193.38,-459.44 198.93,-455.17"/>
</g>
<!-- bgckOcean_mod -->
<g id="node5" class="node">
<title>bgckOcean_mod</title>
<g id="a_node5"><a xlink:href="../modules/bgckOcean_mod.html" xlink:title="bgckOcean_mod">
<polygon fill="gray" stroke="black" points="281,-377 172,-377 172,-341 281,-341 281,-377"/>
<text text-anchor="middle" x="226.5" y="-355.3" font-family="Times,serif" font-size="14.00">bgckOcean_mod</text>
</a>
</g>
</g>
<!-- midas_obsSelection&#45;&gt;bgckOcean_mod -->
<g id="edge4" class="edge">
<title>midas_obsSelection&#45;&gt;bgckOcean_mod</title>
<path fill="none" stroke="black" d="M681.9,-642.55C565.25,-635.56 323.84,-618.2 295.5,-593 234.04,-538.34 280.34,-490.4 252.5,-413 249.27,-404.03 244.96,-394.58 240.78,-386.19"/>
<polygon fill="black" stroke="black" points="243.86,-384.53 236.17,-377.24 237.63,-387.73 243.86,-384.53"/>
</g>
<!-- bgckSSMIS_mod -->
<g id="node6" class="node">
<title>bgckSSMIS_mod</title>
<g id="a_node6"><a xlink:href="../modules/bgckSSMIS_mod.html" xlink:title="bgckSSMIS_mod">
<polygon fill="gray" stroke="black" points="319.5,-305 205.5,-305 205.5,-269 319.5,-269 319.5,-305"/>
<text text-anchor="middle" x="262.5" y="-283.3" font-family="Times,serif" font-size="14.00">bgckSSMIS_mod</text>
</a>
</g>
</g>
<!-- midas_obsSelection&#45;&gt;bgckSSMIS_mod -->
<g id="edge5" class="edge">
<title>midas_obsSelection&#45;&gt;bgckSSMIS_mod</title>
<path fill="none" stroke="black" d="M681.66,-646.16C579.59,-645.11 384.1,-637.19 333.5,-593 302.64,-566.05 309.5,-544.97 309.5,-504 309.5,-504 309.5,-504 309.5,-430 309.5,-389.46 303.25,-379.14 289.5,-341 286.24,-331.97 281.79,-322.5 277.44,-314.11"/>
<polygon fill="black" stroke="black" points="280.45,-312.33 272.64,-305.17 274.29,-315.64 280.45,-312.33"/>
</g>
<!-- biasCorrectionConv_mod -->
<g id="node7" class="node">
<title>biasCorrectionConv_mod</title>
<g id="a_node7"><a xlink:href="../modules/biasCorrectionConv_mod.html" xlink:title="biasCorrectionConv_mod">
<polygon fill="gray" stroke="black" points="357.5,-233 199.5,-233 199.5,-197 357.5,-197 357.5,-233"/>
<text text-anchor="middle" x="278.5" y="-211.3" font-family="Times,serif" font-size="14.00">biasCorrectionConv_mod</text>
</a>
</g>
</g>
<!-- midas_obsSelection&#45;&gt;biasCorrectionConv_mod -->
<g id="edge6" class="edge">
<title>midas_obsSelection&#45;&gt;biasCorrectionConv_mod</title>
<path fill="none" stroke="black" d="M681.74,-645.2C587.67,-642.7 416.32,-632.65 371.5,-593 340.82,-565.85 347.5,-544.97 347.5,-504 347.5,-504 347.5,-504 347.5,-358 347.5,-317.55 347.3,-304.81 328.5,-269 323.01,-258.54 314.87,-248.65 306.74,-240.32"/>
<polygon fill="black" stroke="black" points="308.97,-237.6 299.36,-233.13 304.08,-242.61 308.97,-237.6"/>
</g>
<!-- biasCorrectionSat_mod -->
<g id="node8" class="node">
<title>biasCorrectionSat_mod</title>
<g id="a_node8"><a xlink:href="../modules/biasCorrectionSat_mod.html" xlink:title="biasCorrectionSat_mod">
<polygon fill="gray" stroke="black" points="395.5,-161 249.5,-161 249.5,-125 395.5,-125 395.5,-161"/>
<text text-anchor="middle" x="322.5" y="-139.3" font-family="Times,serif" font-size="14.00">biasCorrectionSat_mod</text>
</a>
</g>
</g>
<!-- midas_obsSelection&#45;&gt;biasCorrectionSat_mod -->
<g id="edge7" class="edge">
<title>midas_obsSelection&#45;&gt;biasCorrectionSat_mod</title>
<path fill="none" stroke="black" d="M681.73,-644.03C596.04,-640.04 448.59,-628.13 409.5,-593 379.03,-565.61 385.5,-544.97 385.5,-504 385.5,-504 385.5,-504 385.5,-286 385.5,-245.55 384.15,-233.39 366.5,-197 361.6,-186.89 354.36,-177.06 347.17,-168.67"/>
<polygon fill="black" stroke="black" points="349.66,-166.2 340.37,-161.1 344.45,-170.88 349.66,-166.2"/>
</g>
<!-- codePrecision_mod -->
<g id="node9" class="node">
<title>codePrecision_mod</title>
<g id="a_node9"><a xlink:href="../modules/codePrecision_mod.html" xlink:title="codePrecision_mod">
<polygon fill="gray" stroke="black" points="485.5,-89 361.5,-89 361.5,-53 485.5,-53 485.5,-89"/>
<text text-anchor="middle" x="423.5" y="-67.3" font-family="Times,serif" font-size="14.00">codePrecision_mod</text>
</a>
</g>
</g>
<!-- midas_obsSelection&#45;&gt;codePrecision_mod -->
<g id="edge8" class="edge">
<title>midas_obsSelection&#45;&gt;codePrecision_mod</title>
<path fill="none" stroke="black" d="M681.73,-642.25C605.79,-636.47 483.91,-622.74 450.5,-593 419.62,-565.52 423.5,-545.34 423.5,-504 423.5,-504 423.5,-504 423.5,-214 423.5,-174 423.5,-127.65 423.5,-99.08"/>
<polygon fill="black" stroke="black" points="427,-99.05 423.5,-89.05 420,-99.05 427,-99.05"/>
</g>
<!-- columnData_mod -->
<g id="node10" class="node">
<title>columnData_mod</title>
<g id="a_node10"><a xlink:href="../modules/columnData_mod.html" xlink:title="columnData_mod">
<polygon fill="gray" stroke="black" points="575,-593 460,-593 460,-557 575,-557 575,-593"/>
<text text-anchor="middle" x="517.5" y="-571.3" font-family="Times,serif" font-size="14.00">columnData_mod</text>
</a>
</g>
</g>
<!-- midas_obsSelection&#45;&gt;columnData_mod -->
<g id="edge9" class="edge">
<title>midas_obsSelection&#45;&gt;columnData_mod</title>
<path fill="none" stroke="black" d="M689.26,-628.97C657.13,-619.06 616.45,-606.51 582.75,-596.12"/>
<polygon fill="black" stroke="black" points="583.58,-592.71 572.99,-593.11 581.51,-599.4 583.58,-592.71"/>
</g>
<!-- gridStateVectorFileIO_mod -->
<g id="node11" class="node">
<title>gridStateVectorFileIO_mod</title>
<g id="a_node11"><a xlink:href="../modules/gridStateVectorFileIO_mod.html" xlink:title="gridStateVectorFileIO_mod">
<polygon fill="gray" stroke="black" points="621.5,-521 451.5,-521 451.5,-485 621.5,-485 621.5,-521"/>
<text text-anchor="middle" x="536.5" y="-499.3" font-family="Times,serif" font-size="14.00">gridStateVectorFileIO_mod</text>
</a>
</g>
</g>
<!-- midas_obsSelection&#45;&gt;gridStateVectorFileIO_mod -->
<g id="edge10" class="edge">
<title>midas_obsSelection&#45;&gt;gridStateVectorFileIO_mod</title>
<path fill="none" stroke="black" d="M702.63,-628.96C681.71,-619.63 656.45,-607.1 635.5,-593 607.4,-574.09 579.03,-547.66 559.91,-528.52"/>
<polygon fill="black" stroke="black" points="562.32,-525.98 552.8,-521.32 557.33,-530.9 562.32,-525.98"/>
</g>
<!-- gridStateVector_mod -->
<g id="node12" class="node">
<title>gridStateVector_mod</title>
<g id="a_node12"><a xlink:href="../modules/gridStateVector_mod.html" xlink:title="gridStateVector_mod">
<polygon fill="gray" stroke="black" points="659.5,-449 525.5,-449 525.5,-413 659.5,-413 659.5,-449"/>
<text text-anchor="middle" x="592.5" y="-427.3" font-family="Times,serif" font-size="14.00">gridStateVector_mod</text>
</a>
</g>
</g>
<!-- midas_obsSelection&#45;&gt;gridStateVector_mod -->
<g id="edge11" class="edge">
<title>midas_obsSelection&#45;&gt;gridStateVector_mod</title>
<path fill="none" stroke="black" d="M714.48,-628.96C700.49,-619.79 684.55,-607.4 673.5,-593 642.06,-552 655.29,-530.33 630.5,-485 625.37,-475.61 618.84,-465.93 612.66,-457.46"/>
<polygon fill="black" stroke="black" points="615.45,-455.34 606.65,-449.44 609.85,-459.54 615.45,-455.34"/>
</g>
<!-- horizontalCoord_mod -->
<g id="node13" class="node">
<title>horizontalCoord_mod</title>
<g id="a_node13"><a xlink:href="../modules/horizontalCoord_mod.html" xlink:title="horizontalCoord_mod">
<polygon fill="gray" stroke="black" points="697,-377 560,-377 560,-341 697,-341 697,-377"/>
<text text-anchor="middle" x="628.5" y="-355.3" font-family="Times,serif" font-size="14.00">horizontalCoord_mod</text>
</a>
</g>
</g>
<!-- midas_obsSelection&#45;&gt;horizontalCoord_mod -->
<g id="edge12" class="edge">
<title>midas_obsSelection&#45;&gt;horizontalCoord_mod</title>
<path fill="none" stroke="black" d="M731.69,-628.63C724.84,-618.64 716.76,-605.6 711.5,-593 679.8,-517.1 703.57,-487.4 668.5,-413 663.93,-403.3 657.4,-393.66 650.94,-385.3"/>
<polygon fill="black" stroke="black" points="653.58,-383.01 644.58,-377.43 648.14,-387.41 653.58,-383.01"/>
</g>
<!-- innovation_mod -->
<g id="node14" class="node">
<title>innovation_mod</title>
<g id="a_node14"><a xlink:href="../modules/innovation_mod.svg" xlink:title="innovation_mod">
<polygon fill="none" stroke="red" points="735.5,-305 629.5,-305 629.5,-269 735.5,-269 735.5,-305"/>
<text text-anchor="middle" x="682.5" y="-283.3" font-family="Times,serif" font-size="14.00">innovation_mod</text>
</a>
</g>
</g>
<!-- midas_obsSelection&#45;&gt;innovation_mod -->
<g id="edge13" class="edge">
<title>midas_obsSelection&#45;&gt;innovation_mod</title>
<path fill="none" stroke="black" d="M740.66,-628.61C735.1,-601.94 725.5,-549.27 725.5,-504 725.5,-504 725.5,-504 725.5,-430 725.5,-388.29 708.3,-342.54 695.66,-314.54"/>
<polygon fill="black" stroke="black" points="698.8,-313.01 691.41,-305.42 692.45,-315.96 698.8,-313.01"/>
</g>
<!-- mathPhysConstants_mod -->
<g id="node15" class="node">
<title>mathPhysConstants_mod</title>
<g id="a_node15"><a xlink:href="../modules/mathPhysConstants_mod.html" xlink:title="mathPhysConstants_mod">
<polygon fill="gray" stroke="black" points="773,-233 618,-233 618,-197 773,-197 773,-233"/>
<text text-anchor="middle" x="695.5" y="-211.3" font-family="Times,serif" font-size="14.00">mathPhysConstants_mod</text>
</a>
</g>
</g>
<!-- midas_obsSelection&#45;&gt;mathPhysConstants_mod -->
<g id="edge14" class="edge">
<title>midas_obsSelection&#45;&gt;mathPhysConstants_mod</title>
<path fill="none" stroke="black" d="M748.34,-628.61C753.9,-601.94 763.5,-549.27 763.5,-504 763.5,-504 763.5,-504 763.5,-358 763.5,-317.55 763.12,-304.91 744.5,-269 739.11,-258.61 731.13,-248.74 723.17,-240.41"/>
<polygon fill="black" stroke="black" points="725.49,-237.78 715.94,-233.21 720.56,-242.74 725.49,-237.78"/>
</g>
<!-- midasMpi_mod -->
<g id="node16" class="node">
<title>midasMpi_mod</title>
<g id="a_node16"><a xlink:href="../modules/midasMpi_mod.html" xlink:title="midasMpi_mod">
<polygon fill="gray" stroke="black" points="811.5,-161 707.5,-161 707.5,-125 811.5,-125 811.5,-161"/>
<text text-anchor="middle" x="759.5" y="-139.3" font-family="Times,serif" font-size="14.00">midasMpi_mod</text>
</a>
</g>
</g>
<!-- midas_obsSelection&#45;&gt;midasMpi_mod -->
<g id="edge15" class="edge">
<title>midas_obsSelection&#45;&gt;midasMpi_mod</title>
<path fill="none" stroke="black" d="M756.31,-628.96C773.01,-603.16 801.5,-552.08 801.5,-504 801.5,-504 801.5,-504 801.5,-286 801.5,-244.15 784.51,-198.1 772.15,-170.11"/>
<polygon fill="black" stroke="black" points="775.33,-168.66 768,-161.01 768.96,-171.56 775.33,-168.66"/>
</g>
<!-- multiIRbgck_mod -->
<g id="node17" class="node">
<title>multiIRbgck_mod</title>
<g id="a_node17"><a xlink:href="../modules/multiIRbgck_mod.html" xlink:title="multiIRbgck_mod">
<polygon fill="gray" stroke="black" points="898,-89 781,-89 781,-53 898,-53 898,-89"/>
<text text-anchor="middle" x="839.5" y="-67.3" font-family="Times,serif" font-size="14.00">multiIRbgck_mod</text>
</a>
</g>
</g>
<!-- midas_obsSelection&#45;&gt;multiIRbgck_mod -->
<g id="edge16" class="edge">
<title>midas_obsSelection&#45;&gt;multiIRbgck_mod</title>
<path fill="none" stroke="black" d="M766.06,-628.78C794.09,-604.28 839.5,-556.5 839.5,-504 839.5,-504 839.5,-504 839.5,-214 839.5,-174 839.5,-127.65 839.5,-99.08"/>
<polygon fill="black" stroke="black" points="843,-99.05 839.5,-89.05 836,-99.05 843,-99.05"/>
</g>
<!-- obsErrors_mod -->
<g id="node18" class="node">
<title>obsErrors_mod</title>
<g id="a_node18"><a xlink:href="../modules/obsErrors_mod.html" xlink:title="obsErrors_mod">
<polygon fill="gray" stroke="black" points="969,-593 868,-593 868,-557 969,-557 969,-593"/>
<text text-anchor="middle" x="918.5" y="-571.3" font-family="Times,serif" font-size="14.00">obsErrors_mod</text>
</a>
</g>
</g>
<!-- midas_obsSelection&#45;&gt;obsErrors_mod -->
<g id="edge17" class="edge">
<title>midas_obsSelection&#45;&gt;obsErrors_mod</title>
<path fill="none" stroke="black" d="M787.07,-628.88C811.06,-619.22 841.23,-607.09 866.6,-596.88"/>
<polygon fill="black" stroke="black" points="868.1,-600.05 876.07,-593.07 865.49,-593.55 868.1,-600.05"/>
</g>
<!-- obsFiles_mod -->
<g id="node19" class="node">
<title>obsFiles_mod</title>
<g id="a_node19"><a xlink:href="../modules/obsFiles_mod.html" xlink:title="obsFiles_mod">
<polygon fill="gray" stroke="black" points="1007,-521 914,-521 914,-485 1007,-485 1007,-521"/>
<text text-anchor="middle" x="960.5" y="-499.3" font-family="Times,serif" font-size="14.00">obsFiles_mod</text>
</a>
</g>
</g>
<!-- midas_obsSelection&#45;&gt;obsFiles_mod -->
<g id="edge18" class="edge">
<title>midas_obsSelection&#45;&gt;obsFiles_mod</title>
<path fill="none" stroke="black" d="M807.2,-640.43C868.8,-633.51 956.54,-619.26 977.5,-593 991.52,-575.43 984.6,-549.76 975.74,-530.49"/>
<polygon fill="black" stroke="black" points="978.77,-528.73 971.18,-521.35 972.51,-531.86 978.77,-528.73"/>
</g>
<!-- obsSpaceData_mod -->
<g id="node20" class="node">
<title>obsSpaceData_mod</title>
<g id="a_node20"><a xlink:href="../modules/obsSpaceData_mod.html" xlink:title="obsSpaceData_mod">
<polygon fill="gray" stroke="black" points="1045,-449 920,-449 920,-413 1045,-413 1045,-449"/>
<text text-anchor="middle" x="982.5" y="-427.3" font-family="Times,serif" font-size="14.00">obsSpaceData_mod</text>
</a>
</g>
</g>
<!-- midas_obsSelection&#45;&gt;obsSpaceData_mod -->
<g id="edge19" class="edge">
<title>midas_obsSelection&#45;&gt;obsSpaceData_mod</title>
<path fill="none" stroke="black" d="M807.24,-640.17C872.48,-632.85 968.76,-618.11 995.5,-593 1031.09,-559.58 1028.92,-531.94 1015.5,-485 1012.79,-475.51 1007.83,-466.06 1002.57,-457.83"/>
<polygon fill="black" stroke="black" points="1005.36,-455.72 996.83,-449.43 999.58,-459.67 1005.36,-455.72"/>
</g>
<!-- ramDisk_mod -->
<g id="node21" class="node">
<title>ramDisk_mod</title>
<g id="a_node21"><a xlink:href="../modules/ramDisk_mod.html" xlink:title="ramDisk_mod">
<polygon fill="gray" stroke="black" points="1083,-377 988,-377 988,-341 1083,-341 1083,-377"/>
<text text-anchor="middle" x="1035.5" y="-355.3" font-family="Times,serif" font-size="14.00">ramDisk_mod</text>
</a>
</g>
</g>
<!-- midas_obsSelection&#45;&gt;ramDisk_mod -->
<g id="edge20" class="edge">
<title>midas_obsSelection&#45;&gt;ramDisk_mod</title>
<path fill="none" stroke="black" d="M807.11,-641.98C879.5,-636.02 992.58,-622.22 1022.5,-593 1080.58,-536.28 1066.73,-493.09 1053.5,-413 1052.06,-404.28 1049.37,-395.06 1046.5,-386.8"/>
<polygon fill="black" stroke="black" points="1049.73,-385.46 1042.98,-377.3 1043.17,-387.89 1049.73,-385.46"/>
</g>
<!-- sstBias_mod -->
<g id="node22" class="node">
<title>sstBias_mod</title>
<g id="a_node22"><a xlink:href="../modules/sstBias_mod.html" xlink:title="sstBias_mod">
<polygon fill="gray" stroke="black" points="1121.5,-305 1035.5,-305 1035.5,-269 1121.5,-269 1121.5,-305"/>
<text text-anchor="middle" x="1078.5" y="-283.3" font-family="Times,serif" font-size="14.00">sstBias_mod</text>
</a>
</g>
</g>
<!-- midas_obsSelection&#45;&gt;sstBias_mod -->
<g id="edge21" class="edge">
<title>midas_obsSelection&#45;&gt;sstBias_mod</title>
<path fill="none" stroke="black" d="M807.19,-640.81C884.42,-633.44 1010.23,-618.01 1049.5,-593 1090.16,-567.1 1111.5,-552.21 1111.5,-504 1111.5,-504 1111.5,-504 1111.5,-430 1111.5,-388.97 1098.27,-342.97 1088.56,-314.74"/>
<polygon fill="black" stroke="black" points="1091.82,-313.45 1085.18,-305.19 1085.22,-315.78 1091.82,-313.45"/>
</g>
<!-- thinning_mod -->
<g id="node23" class="node">
<title>thinning_mod</title>
<g id="a_node23"><a xlink:href="../modules/thinning_mod.svg" xlink:title="thinning_mod">
<polygon fill="none" stroke="red" points="1159,-233 1066,-233 1066,-197 1159,-197 1159,-233"/>
<text text-anchor="middle" x="1112.5" y="-211.3" font-family="Times,serif" font-size="14.00">thinning_mod</text>
</a>
</g>
</g>
<!-- midas_obsSelection&#45;&gt;thinning_mod -->
<g id="edge22" class="edge">
<title>midas_obsSelection&#45;&gt;thinning_mod</title>
<path fill="none" stroke="black" d="M807.17,-642.04C892.54,-635.67 1040,-620.95 1085.5,-593 1127.02,-567.5 1149.5,-552.72 1149.5,-504 1149.5,-504 1149.5,-504 1149.5,-358 1149.5,-316.71 1134.67,-270.77 1123.78,-242.63"/>
<polygon fill="black" stroke="black" points="1126.94,-241.11 1119.99,-233.11 1120.44,-243.7 1126.94,-241.11"/>
</g>
<!-- timeCoord_mod -->
<g id="node24" class="node">
<title>timeCoord_mod</title>
<g id="a_node24"><a xlink:href="../modules/timeCoord_mod.html" xlink:title="timeCoord_mod">
<polygon fill="gray" stroke="black" points="1197,-161 1090,-161 1090,-125 1197,-125 1197,-161"/>
<text text-anchor="middle" x="1143.5" y="-139.3" font-family="Times,serif" font-size="14.00">timeCoord_mod</text>
</a>
</g>
</g>
<!-- midas_obsSelection&#45;&gt;timeCoord_mod -->
<g id="edge23" class="edge">
<title>midas_obsSelection&#45;&gt;timeCoord_mod</title>
<path fill="none" stroke="black" d="M807.26,-643.09C900.61,-637.78 1070.62,-624.07 1122.5,-593 1164.52,-567.83 1187.5,-552.98 1187.5,-504 1187.5,-504 1187.5,-504 1187.5,-286 1187.5,-245.55 1181.44,-235.32 1168.5,-197 1165.51,-188.13 1161.44,-178.79 1157.45,-170.47"/>
<polygon fill="black" stroke="black" points="1160.45,-168.65 1152.88,-161.25 1154.18,-171.76 1160.45,-168.65"/>
</g>
<!-- utilities_mod -->
<g id="node25" class="node">
<title>utilities_mod</title>
<g id="a_node25"><a xlink:href="../modules/utilities_mod.svg" xlink:title="utilities_mod">
<polygon fill="none" stroke="red" points="1270,-89 1181,-89 1181,-53 1270,-53 1270,-89"/>
<text text-anchor="middle" x="1225.5" y="-67.3" font-family="Times,serif" font-size="14.00">utilities_mod</text>
</a>
</g>
</g>
<!-- midas_obsSelection&#45;&gt;utilities_mod -->
<g id="edge24" class="edge">
<title>midas_obsSelection&#45;&gt;utilities_mod</title>
<path fill="none" stroke="black" d="M807.31,-644.02C908.49,-639.84 1102.12,-627.47 1160.5,-593 1202.68,-568.1 1225.5,-552.98 1225.5,-504 1225.5,-504 1225.5,-504 1225.5,-214 1225.5,-174 1225.5,-127.65 1225.5,-99.08"/>
<polygon fill="black" stroke="black" points="1229,-99.05 1225.5,-89.05 1222,-99.05 1229,-99.05"/>
</g>
<!-- version_mod -->
<g id="node26" class="node">
<title>version_mod</title>
<g id="a_node26"><a xlink:href="../modules/version_mod.html" xlink:title="version_mod">
<polygon fill="gray" stroke="black" points="1341.5,-593 1253.5,-593 1253.5,-557 1341.5,-557 1341.5,-593"/>
<text text-anchor="middle" x="1297.5" y="-571.3" font-family="Times,serif" font-size="14.00">version_mod</text>
</a>
</g>
</g>
<!-- midas_obsSelection&#45;&gt;version_mod -->
<g id="edge25" class="edge">
<title>midas_obsSelection&#45;&gt;version_mod</title>
<path fill="none" stroke="black" d="M807.16,-642.88C901.64,-637.37 1085.84,-623.49 1239.5,-593 1240.77,-592.75 1242.06,-592.48 1243.35,-592.2"/>
<polygon fill="black" stroke="black" points="1244.45,-595.54 1253.37,-589.82 1242.83,-588.73 1244.45,-595.54"/>
</g>
<!-- verticalCoord_mod -->
<g id="node27" class="node">
<title>verticalCoord_mod</title>
<g id="a_node27"><a xlink:href="../modules/verticalCoord_mod.html" xlink:title="verticalCoord_mod">
<polygon fill="gray" stroke="black" points="1431,-521 1308,-521 1308,-485 1431,-485 1431,-521"/>
<text text-anchor="middle" x="1369.5" y="-499.3" font-family="Times,serif" font-size="14.00">verticalCoord_mod</text>
</a>
</g>
</g>
<!-- midas_obsSelection&#45;&gt;verticalCoord_mod -->
<g id="edge26" class="edge">
<title>midas_obsSelection&#45;&gt;verticalCoord_mod</title>
<path fill="none" stroke="black" d="M807.05,-644.68C953.7,-640.99 1310.39,-628.45 1350.5,-593 1367.66,-577.83 1371.48,-551.31 1371.56,-531.15"/>
<polygon fill="black" stroke="black" points="1375.06,-530.91 1371.3,-521 1368.06,-531.09 1375.06,-530.91"/>
</g>
</g>
</svg>
