<?xml version="1.0" encoding="UTF-8" standalone="no"?>
<!DOCTYPE svg PUBLIC "-//W3C//DTD SVG 1.1//EN"
 "http://www.w3.org/Graphics/SVG/1.1/DTD/svg11.dtd">
<!-- Generated by graphviz version 3.0.0 (20220315.2325)
 -->
<!-- Title: midas_var1D Pages: 1 -->
<svg width="1342pt" height="673pt"
 viewBox="0.00 0.00 1341.50 673.00" xmlns="http://www.w3.org/2000/svg" xmlns:xlink="http://www.w3.org/1999/xlink">
<g id="graph0" class="graph" transform="scale(1 1) rotate(0) translate(4 669)">
<title>midas_var1D</title>
<polygon fill="white" stroke="transparent" points="-4,4 -4,-669 1337.5,-669 1337.5,4 -4,4"/>
<text text-anchor="middle" x="666.75" y="-37.8" font-family="Times,serif" font-size="14.00">Red boxes indicate modules with dependencies not shown</text>
<text text-anchor="middle" x="666.75" y="-22.8" font-family="Times,serif" font-size="14.00">Lower level dependencies can be shown by clicking on a red box</text>
<text text-anchor="middle" x="666.75" y="-7.8" font-family="Times,serif" font-size="14.00">Shaded boxes indicate modules with no dependencies</text>
<!-- midas_var1D -->
<g id="node1" class="node">
<title>midas_var1D</title>
<g id="a_node1"><a xlink:href="midas_var1D.html" xlink:title="midas_var1D">
<polygon fill="none" stroke="black" points="744,-665 654,-665 654,-629 744,-629 744,-665"/>
<text text-anchor="middle" x="699" y="-643.3" font-family="Times,serif" font-size="14.00">midas_var1D</text>
</a>
</g>
</g>
<!-- biasCorrectionSat_mod -->
<g id="node2" class="node">
<title>biasCorrectionSat_mod</title>
<g id="a_node2"><a xlink:href="../modules/biasCorrectionSat_mod.html" xlink:title="biasCorrectionSat_mod">
<polygon fill="gray" stroke="black" points="146,-593 0,-593 0,-557 146,-557 146,-593"/>
<text text-anchor="middle" x="73" y="-571.3" font-family="Times,serif" font-size="14.00">biasCorrectionSat_mod</text>
</a>
</g>
</g>
<!-- midas_var1D&#45;&gt;biasCorrectionSat_mod -->
<g id="edge1" class="edge">
<title>midas_var1D&#45;&gt;biasCorrectionSat_mod</title>
<path fill="none" stroke="black" d="M653.75,-643.01C560.87,-636.55 342.11,-619.68 160,-593 158.72,-592.81 157.42,-592.62 156.12,-592.42"/>
<polygon fill="black" stroke="black" points="156.44,-588.93 146.02,-590.79 155.33,-595.84 156.44,-588.93"/>
</g>
<!-- bMatrix1Dvar_mod -->
<g id="node3" class="node">
<title>bMatrix1Dvar_mod</title>
<g id="a_node3"><a xlink:href="../modules/bMatrix1Dvar_mod.html" xlink:title="bMatrix1Dvar_mod">
<polygon fill="gray" stroke="black" points="210.5,-521 83.5,-521 83.5,-485 210.5,-485 210.5,-521"/>
<text text-anchor="middle" x="147" y="-499.3" font-family="Times,serif" font-size="14.00">bMatrix1Dvar_mod</text>
</a>
</g>
</g>
<!-- midas_var1D&#45;&gt;bMatrix1Dvar_mod -->
<g id="edge2" class="edge">
<title>midas_var1D&#45;&gt;bMatrix1Dvar_mod</title>
<path fill="none" stroke="black" d="M653.75,-645.07C550.15,-642.28 298.95,-631.62 225,-593 197.71,-578.75 175.65,-550.69 162.04,-529.87"/>
<polygon fill="black" stroke="black" points="164.85,-527.77 156.56,-521.17 158.93,-531.5 164.85,-527.77"/>
</g>
<!-- codePrecision_mod -->
<g id="node4" class="node">
<title>codePrecision_mod</title>
<g id="a_node4"><a xlink:href="../modules/codePrecision_mod.html" xlink:title="codePrecision_mod">
<polygon fill="gray" stroke="black" points="249,-449 125,-449 125,-413 249,-413 249,-449"/>
<text text-anchor="middle" x="187" y="-427.3" font-family="Times,serif" font-size="14.00">codePrecision_mod</text>
</a>
</g>
</g>
<!-- midas_var1D&#45;&gt;codePrecision_mod -->
<g id="edge3" class="edge">
<title>midas_var1D&#45;&gt;codePrecision_mod</title>
<path fill="none" stroke="black" d="M653.87,-646.14C555.04,-645.59 323.51,-639.24 263,-593 221.82,-561.53 242.24,-531.33 219,-485 214.47,-475.97 208.95,-466.42 203.78,-457.96"/>
<polygon fill="black" stroke="black" points="206.63,-455.91 198.37,-449.28 200.69,-459.62 206.63,-455.91"/>
</g>
<!-- columnData_mod -->
<g id="node5" class="node">
<title>columnData_mod</title>
<g id="a_node5"><a xlink:href="../modules/columnData_mod.html" xlink:title="columnData_mod">
<polygon fill="gray" stroke="black" points="286.5,-377 171.5,-377 171.5,-341 286.5,-341 286.5,-377"/>
<text text-anchor="middle" x="229" y="-355.3" font-family="Times,serif" font-size="14.00">columnData_mod</text>
</a>
</g>
</g>
<!-- midas_var1D&#45;&gt;columnData_mod -->
<g id="edge4" class="edge">
<title>midas_var1D&#45;&gt;columnData_mod</title>
<path fill="none" stroke="black" d="M653.8,-646.19C560.71,-645.61 352.03,-639.07 301,-593 239.95,-537.88 287.56,-489.76 258,-413 254.49,-403.9 249.71,-394.41 245.04,-386.03"/>
<polygon fill="black" stroke="black" points="247.91,-384.01 239.88,-377.1 241.85,-387.51 247.91,-384.01"/>
</g>
<!-- controlVector_mod -->
<g id="node6" class="node">
<title>controlVector_mod</title>
<g id="a_node6"><a xlink:href="../modules/controlVector_mod.html" xlink:title="controlVector_mod">
<polygon fill="gray" stroke="black" points="325,-305 203,-305 203,-269 325,-269 325,-305"/>
<text text-anchor="middle" x="264" y="-283.3" font-family="Times,serif" font-size="14.00">controlVector_mod</text>
</a>
</g>
</g>
<!-- midas_var1D&#45;&gt;controlVector_mod -->
<g id="edge5" class="edge">
<title>midas_var1D&#45;&gt;controlVector_mod</title>
<path fill="none" stroke="black" d="M653.94,-645.34C567.92,-643.16 384.79,-633.72 339,-593 308.38,-565.78 315,-544.97 315,-504 315,-504 315,-504 315,-430 315,-389.46 309.85,-378.72 295,-341 291.39,-331.82 286.33,-322.35 281.36,-314.01"/>
<polygon fill="black" stroke="black" points="284.3,-312.11 276.06,-305.45 278.35,-315.8 284.3,-312.11"/>
</g>
<!-- gridStateVectorFileIO_mod -->
<g id="node7" class="node">
<title>gridStateVectorFileIO_mod</title>
<g id="a_node7"><a xlink:href="../modules/gridStateVectorFileIO_mod.html" xlink:title="gridStateVectorFileIO_mod">
<polygon fill="gray" stroke="black" points="363,-233 193,-233 193,-197 363,-197 363,-233"/>
<text text-anchor="middle" x="278" y="-211.3" font-family="Times,serif" font-size="14.00">gridStateVectorFileIO_mod</text>
</a>
</g>
</g>
<!-- midas_var1D&#45;&gt;gridStateVectorFileIO_mod -->
<g id="edge6" class="edge">
<title>midas_var1D&#45;&gt;gridStateVectorFileIO_mod</title>
<path fill="none" stroke="black" d="M653.79,-644.45C574.95,-640.81 416.92,-629.1 377,-593 346.62,-565.52 353,-544.97 353,-504 353,-504 353,-504 353,-358 353,-317.55 353.8,-304.27 334,-269 327.86,-258.06 318.7,-248.02 309.57,-239.7"/>
<polygon fill="black" stroke="black" points="311.82,-237.02 301.96,-233.12 307.24,-242.31 311.82,-237.02"/>
</g>
<!-- gridStateVector_mod -->
<g id="node8" class="node">
<title>gridStateVector_mod</title>
<g id="a_node8"><a xlink:href="../modules/gridStateVector_mod.html" xlink:title="gridStateVector_mod">
<polygon fill="gray" stroke="black" points="401,-161 267,-161 267,-125 401,-125 401,-161"/>
<text text-anchor="middle" x="334" y="-139.3" font-family="Times,serif" font-size="14.00">gridStateVector_mod</text>
</a>
</g>
</g>
<!-- midas_var1D&#45;&gt;gridStateVector_mod -->
<g id="edge7" class="edge">
<title>midas_var1D&#45;&gt;gridStateVector_mod</title>
<path fill="none" stroke="black" d="M653.73,-643.32C582.57,-638.18 449.12,-624.53 415,-593 384.91,-565.2 391,-544.97 391,-504 391,-504 391,-504 391,-286 391,-245.55 388.35,-233.99 372,-197 367.67,-187.21 361.36,-177.43 355.12,-168.98"/>
<polygon fill="black" stroke="black" points="357.86,-166.8 348.98,-161.03 352.32,-171.08 357.86,-166.8"/>
</g>
<!-- gridVariableTransforms_mod -->
<g id="node9" class="node">
<title>gridVariableTransforms_mod</title>
<g id="a_node9"><a xlink:href="../modules/gridVariableTransforms_mod.html" xlink:title="gridVariableTransforms_mod">
<polygon fill="gray" stroke="black" points="519.5,-89 338.5,-89 338.5,-53 519.5,-53 519.5,-89"/>
<text text-anchor="middle" x="429" y="-67.3" font-family="Times,serif" font-size="14.00">gridVariableTransforms_mod</text>
</a>
</g>
</g>
<!-- midas_var1D&#45;&gt;gridVariableTransforms_mod -->
<g id="edge8" class="edge">
<title>midas_var1D&#45;&gt;gridVariableTransforms_mod</title>
<path fill="none" stroke="black" d="M653.81,-642.3C589.56,-636.09 476.45,-621.39 448,-593 419.37,-564.43 429,-544.45 429,-504 429,-504 429,-504 429,-214 429,-174 429,-127.65 429,-99.08"/>
<polygon fill="black" stroke="black" points="432.5,-99.05 429,-89.05 425.5,-99.05 432.5,-99.05"/>
</g>
<!-- horizontalCoord_mod -->
<g id="node10" class="node">
<title>horizontalCoord_mod</title>
<g id="a_node10"><a xlink:href="../modules/horizontalCoord_mod.html" xlink:title="horizontalCoord_mod">
<polygon fill="gray" stroke="black" points="594.5,-593 457.5,-593 457.5,-557 594.5,-557 594.5,-593"/>
<text text-anchor="middle" x="526" y="-571.3" font-family="Times,serif" font-size="14.00">horizontalCoord_mod</text>
</a>
</g>
</g>
<!-- midas_var1D&#45;&gt;horizontalCoord_mod -->
<g id="edge9" class="edge">
<title>midas_var1D&#45;&gt;horizontalCoord_mod</title>
<path fill="none" stroke="black" d="M656.68,-628.88C632.82,-619.22 602.83,-607.09 577.6,-596.88"/>
<polygon fill="black" stroke="black" points="578.77,-593.57 568.18,-593.07 576.14,-600.06 578.77,-593.57"/>
</g>
<!-- increment_mod -->
<g id="node11" class="node">
<title>increment_mod</title>
<g id="a_node11"><a xlink:href="../modules/increment_mod.svg" xlink:title="increment_mod">
<polygon fill="none" stroke="red" points="632.5,-521 529.5,-521 529.5,-485 632.5,-485 632.5,-521"/>
<text text-anchor="middle" x="581" y="-499.3" font-family="Times,serif" font-size="14.00">increment_mod</text>
</a>
</g>
</g>
<!-- midas_var1D&#45;&gt;increment_mod -->
<g id="edge10" class="edge">
<title>midas_var1D&#45;&gt;increment_mod</title>
<path fill="none" stroke="black" d="M681.04,-628.91C670.72,-618.8 657.72,-605.55 647,-593 629.5,-572.51 611.39,-547.8 598.58,-529.62"/>
<polygon fill="black" stroke="black" points="601.34,-527.46 592.74,-521.26 595.6,-531.47 601.34,-527.46"/>
</g>
<!-- innovation_mod -->
<g id="node12" class="node">
<title>innovation_mod</title>
<g id="a_node12"><a xlink:href="../modules/innovation_mod.svg" xlink:title="innovation_mod">
<polygon fill="none" stroke="red" points="671,-449 565,-449 565,-413 671,-413 671,-449"/>
<text text-anchor="middle" x="618" y="-427.3" font-family="Times,serif" font-size="14.00">innovation_mod</text>
</a>
</g>
</g>
<!-- midas_var1D&#45;&gt;innovation_mod -->
<g id="edge11" class="edge">
<title>midas_var1D&#45;&gt;innovation_mod</title>
<path fill="none" stroke="black" d="M693.26,-628.95C683.22,-599.41 661.59,-536.92 641,-485 637.54,-476.29 633.55,-466.88 629.86,-458.43"/>
<polygon fill="black" stroke="black" points="632.97,-456.81 625.74,-449.07 626.57,-459.63 632.97,-456.81"/>
</g>
<!-- mathPhysConstants_mod -->
<g id="node13" class="node">
<title>mathPhysConstants_mod</title>
<g id="a_node13"><a xlink:href="../modules/mathPhysConstants_mod.html" xlink:title="mathPhysConstants_mod">
<polygon fill="gray" stroke="black" points="708.5,-377 553.5,-377 553.5,-341 708.5,-341 708.5,-377"/>
<text text-anchor="middle" x="631" y="-355.3" font-family="Times,serif" font-size="14.00">mathPhysConstants_mod</text>
</a>
</g>
</g>
<!-- midas_var1D&#45;&gt;mathPhysConstants_mod -->
<g id="edge12" class="edge">
<title>midas_var1D&#45;&gt;mathPhysConstants_mod</title>
<path fill="none" stroke="black" d="M701.25,-629C705.77,-589.23 712.88,-487.88 680,-413 675.33,-402.37 667.63,-392.49 659.69,-384.22"/>
<polygon fill="black" stroke="black" points="662.01,-381.59 652.42,-377.09 657.11,-386.59 662.01,-381.59"/>
</g>
<!-- midasMpi_mod -->
<g id="node14" class="node">
<title>midasMpi_mod</title>
<g id="a_node14"><a xlink:href="../modules/midasMpi_mod.html" xlink:title="midasMpi_mod">
<polygon fill="gray" stroke="black" points="747,-305 643,-305 643,-269 747,-269 747,-305"/>
<text text-anchor="middle" x="695" y="-283.3" font-family="Times,serif" font-size="14.00">midasMpi_mod</text>
</a>
</g>
</g>
<!-- midas_var1D&#45;&gt;midasMpi_mod -->
<g id="edge13" class="edge">
<title>midas_var1D&#45;&gt;midasMpi_mod</title>
<path fill="none" stroke="black" d="M706.69,-628.91C717.79,-602.62 737,-550.45 737,-504 737,-504 737,-504 737,-430 737,-388.15 720.01,-342.1 707.65,-314.11"/>
<polygon fill="black" stroke="black" points="710.83,-312.66 703.5,-305.01 704.46,-315.56 710.83,-312.66"/>
</g>
<!-- minimization_mod -->
<g id="node15" class="node">
<title>minimization_mod</title>
<g id="a_node15"><a xlink:href="../modules/minimization_mod.svg" xlink:title="minimization_mod">
<polygon fill="none" stroke="red" points="785,-233 663,-233 663,-197 785,-197 785,-233"/>
<text text-anchor="middle" x="724" y="-211.3" font-family="Times,serif" font-size="14.00">minimization_mod</text>
</a>
</g>
</g>
<!-- midas_var1D&#45;&gt;minimization_mod -->
<g id="edge14" class="edge">
<title>midas_var1D&#45;&gt;minimization_mod</title>
<path fill="none" stroke="black" d="M715.49,-628.77C737.84,-603.53 775,-554.05 775,-504 775,-504 775,-504 775,-358 775,-317.55 770.88,-306.61 756,-269 752.34,-259.75 747.15,-250.26 742,-241.92"/>
<polygon fill="black" stroke="black" points="744.87,-239.9 736.52,-233.38 738.98,-243.68 744.87,-239.9"/>
</g>
<!-- obsErrors_mod -->
<g id="node16" class="node">
<title>obsErrors_mod</title>
<g id="a_node16"><a xlink:href="../modules/obsErrors_mod.html" xlink:title="obsErrors_mod">
<polygon fill="gray" stroke="black" points="822.5,-161 721.5,-161 721.5,-125 822.5,-125 822.5,-161"/>
<text text-anchor="middle" x="772" y="-139.3" font-family="Times,serif" font-size="14.00">obsErrors_mod</text>
</a>
</g>
</g>
<!-- midas_var1D&#45;&gt;obsErrors_mod -->
<g id="edge15" class="edge">
<title>midas_var1D&#45;&gt;obsErrors_mod</title>
<path fill="none" stroke="black" d="M726.02,-628.96C759.73,-605.37 813,-559.33 813,-504 813,-504 813,-504 813,-286 813,-244.41 796.56,-198.56 784.5,-170.51"/>
<polygon fill="black" stroke="black" points="787.55,-168.75 780.3,-161.03 781.15,-171.59 787.55,-168.75"/>
</g>
<!-- obsFiles_mod -->
<g id="node17" class="node">
<title>obsFiles_mod</title>
<g id="a_node17"><a xlink:href="../modules/obsFiles_mod.html" xlink:title="obsFiles_mod">
<polygon fill="gray" stroke="black" points="897.5,-89 804.5,-89 804.5,-53 897.5,-53 897.5,-89"/>
<text text-anchor="middle" x="851" y="-67.3" font-family="Times,serif" font-size="14.00">obsFiles_mod</text>
</a>
</g>
</g>
<!-- midas_var1D&#45;&gt;obsFiles_mod -->
<g id="edge16" class="edge">
<title>midas_var1D&#45;&gt;obsFiles_mod</title>
<path fill="none" stroke="black" d="M740.13,-628.9C785.15,-607.12 851,-564.85 851,-504 851,-504 851,-504 851,-214 851,-174 851,-127.65 851,-99.08"/>
<polygon fill="black" stroke="black" points="854.5,-99.05 851,-89.05 847.5,-99.05 854.5,-99.05"/>
</g>
<!-- obsSpaceData_mod -->
<g id="node18" class="node">
<title>obsSpaceData_mod</title>
<g id="a_node18"><a xlink:href="../modules/obsSpaceData_mod.html" xlink:title="obsSpaceData_mod">
<polygon fill="gray" stroke="black" points="1004.5,-593 879.5,-593 879.5,-557 1004.5,-557 1004.5,-593"/>
<text text-anchor="middle" x="942" y="-571.3" font-family="Times,serif" font-size="14.00">obsSpaceData_mod</text>
</a>
</g>
</g>
<!-- midas_var1D&#45;&gt;obsSpaceData_mod -->
<g id="edge17" class="edge">
<title>midas_var1D&#45;&gt;obsSpaceData_mod</title>
<path fill="none" stroke="black" d="M744.14,-633C780.35,-622.57 831.79,-607.75 873.14,-595.84"/>
<polygon fill="black" stroke="black" points="874.23,-599.16 882.87,-593.03 872.3,-592.44 874.23,-599.16"/>
</g>
<!-- ramDisk_mod -->
<g id="node19" class="node">
<title>ramDisk_mod</title>
<g id="a_node19"><a xlink:href="../modules/ramDisk_mod.html" xlink:title="ramDisk_mod">
<polygon fill="gray" stroke="black" points="1042.5,-521 947.5,-521 947.5,-485 1042.5,-485 1042.5,-521"/>
<text text-anchor="middle" x="995" y="-499.3" font-family="Times,serif" font-size="14.00">ramDisk_mod</text>
</a>
</g>
</g>
<!-- midas_var1D&#45;&gt;ramDisk_mod -->
<g id="edge18" class="edge">
<title>midas_var1D&#45;&gt;ramDisk_mod</title>
<path fill="none" stroke="black" d="M744.09,-645.25C822.55,-642.88 979.09,-633.11 1013,-593 1027.69,-575.62 1020.09,-549.54 1010.66,-530.09"/>
<polygon fill="black" stroke="black" points="1013.72,-528.38 1005.98,-521.15 1007.52,-531.63 1013.72,-528.38"/>
</g>
<!-- timeCoord_mod -->
<g id="node20" class="node">
<title>timeCoord_mod</title>
<g id="a_node20"><a xlink:href="../modules/timeCoord_mod.html" xlink:title="timeCoord_mod">
<polygon fill="gray" stroke="black" points="1080.5,-449 973.5,-449 973.5,-413 1080.5,-413 1080.5,-449"/>
<text text-anchor="middle" x="1027" y="-427.3" font-family="Times,serif" font-size="14.00">timeCoord_mod</text>
</a>
</g>
</g>
<!-- midas_var1D&#45;&gt;timeCoord_mod -->
<g id="edge19" class="edge">
<title>midas_var1D&#45;&gt;timeCoord_mod</title>
<path fill="none" stroke="black" d="M744.17,-644.75C825.15,-641.58 990.48,-630.55 1032,-593 1068.14,-560.31 1061.28,-532.64 1051,-485 1049.04,-475.92 1045.39,-466.52 1041.51,-458.2"/>
<polygon fill="black" stroke="black" points="1044.54,-456.42 1036.95,-449.02 1038.27,-459.53 1044.54,-456.42"/>
</g>
<!-- utilities_mod -->
<g id="node21" class="node">
<title>utilities_mod</title>
<g id="a_node21"><a xlink:href="../modules/utilities_mod.svg" xlink:title="utilities_mod">
<polygon fill="none" stroke="red" points="1118.5,-377 1029.5,-377 1029.5,-341 1118.5,-341 1118.5,-377"/>
<text text-anchor="middle" x="1074" y="-355.3" font-family="Times,serif" font-size="14.00">utilities_mod</text>
</a>
</g>
</g>
<!-- midas_var1D&#45;&gt;utilities_mod -->
<g id="edge20" class="edge">
<title>midas_var1D&#45;&gt;utilities_mod</title>
<path fill="none" stroke="black" d="M744.27,-645.58C830.66,-643.79 1014.41,-635.03 1059,-593 1118.02,-537.37 1100.15,-493.33 1089,-413 1087.82,-404.48 1085.61,-395.39 1083.25,-387.2"/>
<polygon fill="black" stroke="black" points="1086.52,-385.94 1080.24,-377.41 1079.83,-387.99 1086.52,-385.94"/>
</g>
<!-- var1D_mod -->
<g id="node22" class="node">
<title>var1D_mod</title>
<g id="a_node22"><a xlink:href="../modules/var1D_mod.html" xlink:title="var1D_mod">
<polygon fill="gray" stroke="black" points="1172,-305 1090,-305 1090,-269 1172,-269 1172,-305"/>
<text text-anchor="middle" x="1131" y="-283.3" font-family="Times,serif" font-size="14.00">var1D_mod</text>
</a>
</g>
</g>
<!-- midas_var1D&#45;&gt;var1D_mod -->
<g id="edge21" class="edge">
<title>midas_var1D&#45;&gt;var1D_mod</title>
<path fill="none" stroke="black" d="M744.11,-644.47C833.96,-640.68 1031.49,-628.46 1088,-593 1128.2,-567.77 1147,-551.46 1147,-504 1147,-504 1147,-504 1147,-430 1147,-389.96 1140.64,-343.97 1135.94,-315.45"/>
<polygon fill="black" stroke="black" points="1139.36,-314.69 1134.24,-305.42 1132.46,-315.86 1139.36,-314.69"/>
</g>
<!-- version_mod -->
<g id="node23" class="node">
<title>version_mod</title>
<g id="a_node23"><a xlink:href="../modules/version_mod.html" xlink:title="version_mod">
<polygon fill="gray" stroke="black" points="1244,-233 1156,-233 1156,-197 1244,-197 1244,-233"/>
<text text-anchor="middle" x="1200" y="-211.3" font-family="Times,serif" font-size="14.00">version_mod</text>
</a>
</g>
</g>
<!-- midas_var1D&#45;&gt;version_mod -->
<g id="edge22" class="edge">
<title>midas_var1D&#45;&gt;version_mod</title>
<path fill="none" stroke="black" d="M744.22,-644.46C839.84,-640.55 1059.11,-627.95 1124,-593 1169.8,-568.33 1200,-556.02 1200,-504 1200,-504 1200,-504 1200,-358 1200,-318 1200,-271.65 1200,-243.08"/>
<polygon fill="black" stroke="black" points="1203.5,-243.05 1200,-233.05 1196.5,-243.05 1203.5,-243.05"/>
</g>
<!-- verticalCoord_mod -->
<g id="node24" class="node">
<title>verticalCoord_mod</title>
<g id="a_node24"><a xlink:href="../modules/verticalCoord_mod.html" xlink:title="verticalCoord_mod">
<polygon fill="gray" stroke="black" points="1333.5,-161 1210.5,-161 1210.5,-125 1333.5,-125 1333.5,-161"/>
<text text-anchor="middle" x="1272" y="-139.3" font-family="Times,serif" font-size="14.00">verticalCoord_mod</text>
</a>
</g>
</g>
<!-- midas_var1D&#45;&gt;verticalCoord_mod -->
<g id="edge23" class="edge">
<title>midas_var1D&#45;&gt;verticalCoord_mod</title>
<path fill="none" stroke="black" d="M744.08,-644.23C846.08,-639.68 1091.57,-625.6 1167,-593 1223.16,-568.73 1272,-565.18 1272,-504 1272,-504 1272,-504 1272,-286 1272,-246 1272,-199.65 1272,-171.08"/>
<polygon fill="black" stroke="black" points="1275.5,-171.05 1272,-161.05 1268.5,-171.05 1275.5,-171.05"/>
</g>
</g>
</svg>
