<?xml version="1.0" encoding="UTF-8" standalone="no"?>
<!DOCTYPE svg PUBLIC "-//W3C//DTD SVG 1.1//EN"
 "http://www.w3.org/Graphics/SVG/1.1/DTD/svg11.dtd">
<!-- Generated by graphviz version 3.0.0 (20220315.2325)
 -->
<!-- Title: midas_randomPert Pages: 1 -->
<svg width="801pt" height="673pt"
 viewBox="0.00 0.00 801.00 673.00" xmlns="http://www.w3.org/2000/svg" xmlns:xlink="http://www.w3.org/1999/xlink">
<g id="graph0" class="graph" transform="scale(1 1) rotate(0) translate(4 669)">
<title>midas_randomPert</title>
<polygon fill="white" stroke="transparent" points="-4,4 -4,-669 797,-669 797,4 -4,4"/>
<text text-anchor="middle" x="396.5" y="-37.8" font-family="Times,serif" font-size="14.00">Red boxes indicate modules with dependencies not shown</text>
<text text-anchor="middle" x="396.5" y="-22.8" font-family="Times,serif" font-size="14.00">Lower level dependencies can be shown by clicking on a red box</text>
<text text-anchor="middle" x="396.5" y="-7.8" font-family="Times,serif" font-size="14.00">Shaded boxes indicate modules with no dependencies</text>
<!-- midas_randomPert -->
<g id="node1" class="node">
<title>midas_randomPert</title>
<g id="a_node1"><a xlink:href="midas_randomPert.html" xlink:title="midas_randomPert">
<polygon fill="none" stroke="black" points="416,-665 295,-665 295,-629 416,-629 416,-665"/>
<text text-anchor="middle" x="355.5" y="-643.3" font-family="Times,serif" font-size="14.00">midas_randomPert</text>
</a>
</g>
</g>
<!-- bMatrix_mod -->
<g id="node2" class="node">
<title>bMatrix_mod</title>
<g id="a_node2"><a xlink:href="../modules/bMatrix_mod.html" xlink:title="bMatrix_mod">
<polygon fill="gray" stroke="black" points="93,-593 0,-593 0,-557 93,-557 93,-593"/>
<text text-anchor="middle" x="46.5" y="-571.3" font-family="Times,serif" font-size="14.00">bMatrix_mod</text>
</a>
</g>
</g>
<!-- midas_randomPert&#45;&gt;bMatrix_mod -->
<g id="edge1" class="edge">
<title>midas_randomPert&#45;&gt;bMatrix_mod</title>
<path fill="none" stroke="black" d="M294.87,-634.12C244.52,-624 171.1,-608.64 107.5,-593 106.03,-592.64 104.55,-592.27 103.05,-591.89"/>
<polygon fill="black" stroke="black" points="103.61,-588.42 93.05,-589.29 101.85,-595.19 103.61,-588.42"/>
</g>
<!-- controlVector_mod -->
<g id="node3" class="node">
<title>controlVector_mod</title>
<g id="a_node3"><a xlink:href="../modules/controlVector_mod.html" xlink:title="controlVector_mod">
<polygon fill="gray" stroke="black" points="156.5,-521 34.5,-521 34.5,-485 156.5,-485 156.5,-521"/>
<text text-anchor="middle" x="95.5" y="-499.3" font-family="Times,serif" font-size="14.00">controlVector_mod</text>
</a>
</g>
</g>
<!-- midas_randomPert&#45;&gt;controlVector_mod -->
<g id="edge2" class="edge">
<title>midas_randomPert&#45;&gt;controlVector_mod</title>
<path fill="none" stroke="black" d="M294.67,-637.86C256.64,-630.62 207.94,-617.25 170.5,-593 145.5,-576.81 124.42,-549.75 111.04,-529.71"/>
<polygon fill="black" stroke="black" points="113.81,-527.56 105.44,-521.06 107.94,-531.36 113.81,-527.56"/>
</g>
<!-- gridStateVectorFileIO_mod -->
<g id="node4" class="node">
<title>gridStateVectorFileIO_mod</title>
<g id="a_node4"><a xlink:href="../modules/gridStateVectorFileIO_mod.html" xlink:title="gridStateVectorFileIO_mod">
<polygon fill="gray" stroke="black" points="194.5,-449 24.5,-449 24.5,-413 194.5,-413 194.5,-449"/>
<text text-anchor="middle" x="109.5" y="-427.3" font-family="Times,serif" font-size="14.00">gridStateVectorFileIO_mod</text>
</a>
</g>
</g>
<!-- midas_randomPert&#45;&gt;gridStateVectorFileIO_mod -->
<g id="edge3" class="edge">
<title>midas_randomPert&#45;&gt;gridStateVectorFileIO_mod</title>
<path fill="none" stroke="black" d="M294.93,-636.19C265.66,-628.7 231.89,-615.64 208.5,-593 171.37,-557.07 194.5,-527.76 165.5,-485 158.28,-474.35 148.59,-464.23 139.3,-455.74"/>
<polygon fill="black" stroke="black" points="141.48,-452.99 131.66,-449.02 136.85,-458.25 141.48,-452.99"/>
</g>
<!-- gridStateVector_mod -->
<g id="node5" class="node">
<title>gridStateVector_mod</title>
<g id="a_node5"><a xlink:href="../modules/gridStateVector_mod.html" xlink:title="gridStateVector_mod">
<polygon fill="gray" stroke="black" points="232.5,-377 98.5,-377 98.5,-341 232.5,-341 232.5,-377"/>
<text text-anchor="middle" x="165.5" y="-355.3" font-family="Times,serif" font-size="14.00">gridStateVector_mod</text>
</a>
</g>
</g>
<!-- midas_randomPert&#45;&gt;gridStateVector_mod -->
<g id="edge4" class="edge">
<title>midas_randomPert&#45;&gt;gridStateVector_mod</title>
<path fill="none" stroke="black" d="M297.51,-628.98C278.8,-620.85 259.54,-609.25 246.5,-593 195.01,-528.86 237.66,-487.82 203.5,-413 199.06,-403.27 192.72,-393.5 186.48,-385.04"/>
<polygon fill="black" stroke="black" points="189.23,-382.88 180.36,-377.08 183.68,-387.14 189.23,-382.88"/>
</g>
<!-- gridVariableTransforms_mod -->
<g id="node6" class="node">
<title>gridVariableTransforms_mod</title>
<g id="a_node6"><a xlink:href="../modules/gridVariableTransforms_mod.html" xlink:title="gridVariableTransforms_mod">
<polygon fill="gray" stroke="black" points="270,-305 89,-305 89,-269 270,-269 270,-305"/>
<text text-anchor="middle" x="179.5" y="-283.3" font-family="Times,serif" font-size="14.00">gridVariableTransforms_mod</text>
</a>
</g>
</g>
<!-- midas_randomPert&#45;&gt;gridVariableTransforms_mod -->
<g id="edge5" class="edge">
<title>midas_randomPert&#45;&gt;gridVariableTransforms_mod</title>
<path fill="none" stroke="black" d="M323.65,-628.8C309.77,-619.82 294.44,-607.63 284.5,-593 261.49,-559.11 260.5,-544.97 260.5,-504 260.5,-504 260.5,-504 260.5,-430 260.5,-389.55 262.19,-375.76 241.5,-341 234.76,-329.67 224.72,-319.57 214.67,-311.31"/>
<polygon fill="black" stroke="black" points="216.72,-308.46 206.67,-305.08 212.42,-313.99 216.72,-308.46"/>
</g>
<!-- horizontalCoord_mod -->
<g id="node7" class="node">
<title>horizontalCoord_mod</title>
<g id="a_node7"><a xlink:href="../modules/horizontalCoord_mod.html" xlink:title="horizontalCoord_mod">
<polygon fill="gray" stroke="black" points="308,-233 171,-233 171,-197 308,-197 308,-233"/>
<text text-anchor="middle" x="239.5" y="-211.3" font-family="Times,serif" font-size="14.00">horizontalCoord_mod</text>
</a>
</g>
</g>
<!-- midas_randomPert&#45;&gt;horizontalCoord_mod -->
<g id="edge6" class="edge">
<title>midas_randomPert&#45;&gt;horizontalCoord_mod</title>
<path fill="none" stroke="black" d="M342.83,-628.57C336.03,-618.56 327.95,-605.52 322.5,-593 306.16,-555.43 298.5,-544.97 298.5,-504 298.5,-504 298.5,-504 298.5,-358 298.5,-317.46 295.32,-305.89 278.5,-269 274.09,-259.33 267.74,-249.69 261.44,-241.34"/>
<polygon fill="black" stroke="black" points="264.17,-239.15 255.23,-233.46 258.67,-243.48 264.17,-239.15"/>
</g>
<!-- interpolation_mod -->
<g id="node8" class="node">
<title>interpolation_mod</title>
<g id="a_node8"><a xlink:href="../modules/interpolation_mod.svg" xlink:title="interpolation_mod">
<polygon fill="none" stroke="red" points="346.5,-161 228.5,-161 228.5,-125 346.5,-125 346.5,-161"/>
<text text-anchor="middle" x="287.5" y="-139.3" font-family="Times,serif" font-size="14.00">interpolation_mod</text>
</a>
</g>
</g>
<!-- midas_randomPert&#45;&gt;interpolation_mod -->
<g id="edge7" class="edge">
<title>midas_randomPert&#45;&gt;interpolation_mod</title>
<path fill="none" stroke="black" d="M351.66,-628.61C346.1,-601.94 336.5,-549.27 336.5,-504 336.5,-504 336.5,-504 336.5,-286 336.5,-245.46 330.81,-234.93 316.5,-197 313.06,-187.87 308.29,-178.38 303.61,-170"/>
<polygon fill="black" stroke="black" points="306.49,-167.98 298.44,-161.08 300.43,-171.49 306.49,-167.98"/>
</g>
<!-- midasMpi_mod -->
<g id="node9" class="node">
<title>midasMpi_mod</title>
<g id="a_node9"><a xlink:href="../modules/midasMpi_mod.html" xlink:title="midasMpi_mod">
<polygon fill="gray" stroke="black" points="426.5,-89 322.5,-89 322.5,-53 426.5,-53 426.5,-89"/>
<text text-anchor="middle" x="374.5" y="-67.3" font-family="Times,serif" font-size="14.00">midasMpi_mod</text>
</a>
</g>
</g>
<!-- midas_randomPert&#45;&gt;midasMpi_mod -->
<g id="edge8" class="edge">
<title>midas_randomPert&#45;&gt;midasMpi_mod</title>
<path fill="none" stroke="black" d="M359.34,-628.61C364.9,-601.94 374.5,-549.27 374.5,-504 374.5,-504 374.5,-504 374.5,-214 374.5,-174 374.5,-127.65 374.5,-99.08"/>
<polygon fill="black" stroke="black" points="378,-99.05 374.5,-89.05 371,-99.05 378,-99.05"/>
</g>
<!-- ramDisk_mod -->
<g id="node10" class="node">
<title>ramDisk_mod</title>
<g id="a_node10"><a xlink:href="../modules/ramDisk_mod.html" xlink:title="ramDisk_mod">
<polygon fill="gray" stroke="black" points="498,-593 403,-593 403,-557 498,-557 498,-593"/>
<text text-anchor="middle" x="450.5" y="-571.3" font-family="Times,serif" font-size="14.00">ramDisk_mod</text>
</a>
</g>
</g>
<!-- midas_randomPert&#45;&gt;ramDisk_mod -->
<g id="edge9" class="edge">
<title>midas_randomPert&#45;&gt;ramDisk_mod</title>
<path fill="none" stroke="black" d="M378.98,-628.7C391.06,-619.8 405.95,-608.82 419.02,-599.2"/>
<polygon fill="black" stroke="black" points="421.31,-601.85 427.29,-593.1 417.16,-596.22 421.31,-601.85"/>
</g>
<!-- randomNumber_mod -->
<g id="node11" class="node">
<title>randomNumber_mod</title>
<g id="a_node11"><a xlink:href="../modules/randomNumber_mod.html" xlink:title="randomNumber_mod">
<polygon fill="gray" stroke="black" points="538,-521 403,-521 403,-485 538,-485 538,-521"/>
<text text-anchor="middle" x="470.5" y="-499.3" font-family="Times,serif" font-size="14.00">randomNumber_mod</text>
</a>
</g>
</g>
<!-- midas_randomPert&#45;&gt;randomNumber_mod -->
<g id="edge10" class="edge">
<title>midas_randomPert&#45;&gt;randomNumber_mod</title>
<path fill="none" stroke="black" d="M416.34,-641.12C448.77,-635.06 486.1,-621.79 506.5,-593 520.35,-573.46 507.3,-547.8 493.19,-529.06"/>
<polygon fill="black" stroke="black" points="495.92,-526.87 486.94,-521.24 490.45,-531.23 495.92,-526.87"/>
</g>
<!-- timeCoord_mod -->
<g id="node12" class="node">
<title>timeCoord_mod</title>
<g id="a_node12"><a xlink:href="../modules/timeCoord_mod.html" xlink:title="timeCoord_mod">
<polygon fill="gray" stroke="black" points="576,-449 469,-449 469,-413 576,-413 576,-449"/>
<text text-anchor="middle" x="522.5" y="-427.3" font-family="Times,serif" font-size="14.00">timeCoord_mod</text>
</a>
</g>
</g>
<!-- midas_randomPert&#45;&gt;timeCoord_mod -->
<g id="edge11" class="edge">
<title>midas_randomPert&#45;&gt;timeCoord_mod</title>
<path fill="none" stroke="black" d="M416.25,-640.66C451.79,-634.49 495.12,-621.28 523.5,-593 558.26,-558.36 556.86,-532.97 546.5,-485 544.54,-475.92 540.89,-466.52 537.01,-458.2"/>
<polygon fill="black" stroke="black" points="540.04,-456.42 532.45,-449.02 533.77,-459.53 540.04,-456.42"/>
</g>
<!-- utilities_mod -->
<g id="node13" class="node">
<title>utilities_mod</title>
<g id="a_node13"><a xlink:href="../modules/utilities_mod.svg" xlink:title="utilities_mod">
<polygon fill="none" stroke="red" points="631,-377 542,-377 542,-341 631,-341 631,-377"/>
<text text-anchor="middle" x="586.5" y="-355.3" font-family="Times,serif" font-size="14.00">utilities_mod</text>
</a>
</g>
</g>
<!-- midas_randomPert&#45;&gt;utilities_mod -->
<g id="edge12" class="edge">
<title>midas_randomPert&#45;&gt;utilities_mod</title>
<path fill="none" stroke="black" d="M416.01,-645.18C459.26,-641.29 515.75,-628.94 550.5,-593 604.6,-537.06 598.2,-435.7 591.32,-387.23"/>
<polygon fill="black" stroke="black" points="594.76,-386.54 589.78,-377.19 587.84,-387.6 594.76,-386.54"/>
</g>
<!-- version_mod -->
<g id="node14" class="node">
<title>version_mod</title>
<g id="a_node14"><a xlink:href="../modules/version_mod.html" xlink:title="version_mod">
<polygon fill="gray" stroke="black" points="703.5,-305 615.5,-305 615.5,-269 703.5,-269 703.5,-305"/>
<text text-anchor="middle" x="659.5" y="-283.3" font-family="Times,serif" font-size="14.00">version_mod</text>
</a>
</g>
</g>
<!-- midas_randomPert&#45;&gt;version_mod -->
<g id="edge13" class="edge">
<title>midas_randomPert&#45;&gt;version_mod</title>
<path fill="none" stroke="black" d="M416.29,-643.9C505,-637.21 659.5,-610.31 659.5,-504 659.5,-504 659.5,-504 659.5,-430 659.5,-390 659.5,-343.65 659.5,-315.08"/>
<polygon fill="black" stroke="black" points="663,-315.05 659.5,-305.05 656,-315.05 663,-315.05"/>
</g>
<!-- verticalCoord_mod -->
<g id="node15" class="node">
<title>verticalCoord_mod</title>
<g id="a_node15"><a xlink:href="../modules/verticalCoord_mod.html" xlink:title="verticalCoord_mod">
<polygon fill="gray" stroke="black" points="793,-233 670,-233 670,-197 793,-197 793,-233"/>
<text text-anchor="middle" x="731.5" y="-211.3" font-family="Times,serif" font-size="14.00">verticalCoord_mod</text>
</a>
</g>
</g>
<!-- midas_randomPert&#45;&gt;verticalCoord_mod -->
<g id="edge14" class="edge">
<title>midas_randomPert&#45;&gt;verticalCoord_mod</title>
<path fill="none" stroke="black" d="M416.09,-644.86C476.16,-641.47 569.26,-630 640.5,-593 690.7,-566.92 731.5,-560.57 731.5,-504 731.5,-504 731.5,-504 731.5,-358 731.5,-318 731.5,-271.65 731.5,-243.08"/>
<polygon fill="black" stroke="black" points="735,-243.05 731.5,-233.05 728,-243.05 735,-243.05"/>
</g>
</g>
</svg>
