<?xml version="1.0" encoding="UTF-8" standalone="no"?>
<!DOCTYPE svg PUBLIC "-//W3C//DTD SVG 1.1//EN"
 "http://www.w3.org/Graphics/SVG/1.1/DTD/svg11.dtd">
<!-- Generated by graphviz version 3.0.0 (20220315.2325)
 -->
<!-- Title: midas_obsImpact Pages: 1 -->
<svg width="1065pt" height="673pt"
 viewBox="0.00 0.00 1065.00 673.00" xmlns="http://www.w3.org/2000/svg" xmlns:xlink="http://www.w3.org/1999/xlink">
<g id="graph0" class="graph" transform="scale(1 1) rotate(0) translate(4 669)">
<title>midas_obsImpact</title>
<polygon fill="white" stroke="transparent" points="-4,4 -4,-669 1061,-669 1061,4 -4,4"/>
<text text-anchor="middle" x="528.5" y="-37.8" font-family="Times,serif" font-size="14.00">Red boxes indicate modules with dependencies not shown</text>
<text text-anchor="middle" x="528.5" y="-22.8" font-family="Times,serif" font-size="14.00">Lower level dependencies can be shown by clicking on a red box</text>
<text text-anchor="middle" x="528.5" y="-7.8" font-family="Times,serif" font-size="14.00">Shaded boxes indicate modules with no dependencies</text>
<!-- midas_obsImpact -->
<g id="node1" class="node">
<title>midas_obsImpact</title>
<g id="a_node1"><a xlink:href="midas_obsImpact.html" xlink:title="midas_obsImpact">
<polygon fill="none" stroke="black" points="594,-665 481,-665 481,-629 594,-629 594,-665"/>
<text text-anchor="middle" x="537.5" y="-643.3" font-family="Times,serif" font-size="14.00">midas_obsImpact</text>
</a>
</g>
</g>
<!-- bMatrix_mod -->
<g id="node2" class="node">
<title>bMatrix_mod</title>
<g id="a_node2"><a xlink:href="../modules/bMatrix_mod.html" xlink:title="bMatrix_mod">
<polygon fill="gray" stroke="black" points="93,-593 0,-593 0,-557 93,-557 93,-593"/>
<text text-anchor="middle" x="46.5" y="-571.3" font-family="Times,serif" font-size="14.00">bMatrix_mod</text>
</a>
</g>
</g>
<!-- midas_obsImpact&#45;&gt;bMatrix_mod -->
<g id="edge1" class="edge">
<title>midas_obsImpact&#45;&gt;bMatrix_mod</title>
<path fill="none" stroke="black" d="M480.72,-641.72C398.03,-634.87 239.9,-619.45 107.5,-593 106.05,-592.71 104.59,-592.4 103.11,-592.08"/>
<polygon fill="black" stroke="black" points="103.82,-588.66 93.29,-589.8 102.23,-595.47 103.82,-588.66"/>
</g>
<!-- codePrecision_mod -->
<g id="node3" class="node">
<title>codePrecision_mod</title>
<g id="a_node3"><a xlink:href="../modules/codePrecision_mod.html" xlink:title="codePrecision_mod">
<polygon fill="gray" stroke="black" points="157.5,-521 33.5,-521 33.5,-485 157.5,-485 157.5,-521"/>
<text text-anchor="middle" x="95.5" y="-499.3" font-family="Times,serif" font-size="14.00">codePrecision_mod</text>
</a>
</g>
</g>
<!-- midas_obsImpact&#45;&gt;codePrecision_mod -->
<g id="edge2" class="edge">
<title>midas_obsImpact&#45;&gt;codePrecision_mod</title>
<path fill="none" stroke="black" d="M480.66,-642.65C391.48,-636.58 223.51,-621.68 171.5,-593 144.84,-578.3 123.35,-550.32 110.12,-529.64"/>
<polygon fill="black" stroke="black" points="113.02,-527.68 104.79,-521.01 107.06,-531.36 113.02,-527.68"/>
</g>
<!-- columnData_mod -->
<g id="node4" class="node">
<title>columnData_mod</title>
<g id="a_node4"><a xlink:href="../modules/columnData_mod.html" xlink:title="columnData_mod">
<polygon fill="gray" stroke="black" points="195,-449 80,-449 80,-413 195,-413 195,-449"/>
<text text-anchor="middle" x="137.5" y="-427.3" font-family="Times,serif" font-size="14.00">columnData_mod</text>
</a>
</g>
</g>
<!-- midas_obsImpact&#45;&gt;columnData_mod -->
<g id="edge3" class="edge">
<title>midas_obsImpact&#45;&gt;columnData_mod</title>
<path fill="none" stroke="black" d="M480.71,-643.47C398.14,-638.7 250.33,-625.75 209.5,-593 169.2,-560.67 188.5,-531.75 166.5,-485 162.35,-476.17 157.38,-466.77 152.75,-458.36"/>
<polygon fill="black" stroke="black" points="155.66,-456.4 147.71,-449.39 149.55,-459.82 155.66,-456.4"/>
</g>
<!-- fsoi_mod -->
<g id="node5" class="node">
<title>fsoi_mod</title>
<g id="a_node5"><a xlink:href="../modules/fsoi_mod.svg" xlink:title="fsoi_mod">
<polygon fill="none" stroke="red" points="233.5,-377 165.5,-377 165.5,-341 233.5,-341 233.5,-377"/>
<text text-anchor="middle" x="199.5" y="-355.3" font-family="Times,serif" font-size="14.00">fsoi_mod</text>
</a>
</g>
</g>
<!-- midas_obsImpact&#45;&gt;fsoi_mod -->
<g id="edge4" class="edge">
<title>midas_obsImpact&#45;&gt;fsoi_mod</title>
<path fill="none" stroke="black" d="M480.95,-643.02C406.12,-637.88 279.89,-624.67 247.5,-593 218.5,-564.64 205.75,-442.65 201.38,-387.39"/>
<polygon fill="black" stroke="black" points="204.86,-386.98 200.61,-377.28 197.88,-387.51 204.86,-386.98"/>
</g>
<!-- gridStateVectorFileIO_mod -->
<g id="node6" class="node">
<title>gridStateVectorFileIO_mod</title>
<g id="a_node6"><a xlink:href="../modules/gridStateVectorFileIO_mod.html" xlink:title="gridStateVectorFileIO_mod">
<polygon fill="gray" stroke="black" points="271.5,-305 101.5,-305 101.5,-269 271.5,-269 271.5,-305"/>
<text text-anchor="middle" x="186.5" y="-283.3" font-family="Times,serif" font-size="14.00">gridStateVectorFileIO_mod</text>
</a>
</g>
</g>
<!-- midas_obsImpact&#45;&gt;gridStateVectorFileIO_mod -->
<g id="edge5" class="edge">
<title>midas_obsImpact&#45;&gt;gridStateVectorFileIO_mod</title>
<path fill="none" stroke="black" d="M480.93,-640.94C415.48,-633.96 313.15,-619.14 285.5,-593 255.73,-564.85 261.5,-544.97 261.5,-504 261.5,-504 261.5,-504 261.5,-430 261.5,-389.55 262.3,-376.27 242.5,-341 236.36,-330.06 227.2,-320.02 218.07,-311.7"/>
<polygon fill="black" stroke="black" points="220.32,-309.02 210.46,-305.12 215.74,-314.31 220.32,-309.02"/>
</g>
<!-- gridStateVector_mod -->
<g id="node7" class="node">
<title>gridStateVector_mod</title>
<g id="a_node7"><a xlink:href="../modules/gridStateVector_mod.html" xlink:title="gridStateVector_mod">
<polygon fill="gray" stroke="black" points="309.5,-233 175.5,-233 175.5,-197 309.5,-197 309.5,-233"/>
<text text-anchor="middle" x="242.5" y="-211.3" font-family="Times,serif" font-size="14.00">gridStateVector_mod</text>
</a>
</g>
</g>
<!-- midas_obsImpact&#45;&gt;gridStateVector_mod -->
<g id="edge6" class="edge">
<title>midas_obsImpact&#45;&gt;gridStateVector_mod</title>
<path fill="none" stroke="black" d="M480.83,-638.55C425.21,-630.11 345.61,-614.66 323.5,-593 294.23,-564.33 299.5,-544.97 299.5,-504 299.5,-504 299.5,-504 299.5,-358 299.5,-317.55 296.85,-305.99 280.5,-269 276.17,-259.21 269.86,-249.43 263.62,-240.98"/>
<polygon fill="black" stroke="black" points="266.36,-238.8 257.48,-233.03 260.82,-243.08 266.36,-238.8"/>
</g>
<!-- gridVariableTransforms_mod -->
<g id="node8" class="node">
<title>gridVariableTransforms_mod</title>
<g id="a_node8"><a xlink:href="../modules/gridVariableTransforms_mod.html" xlink:title="gridVariableTransforms_mod">
<polygon fill="gray" stroke="black" points="347,-161 166,-161 166,-125 347,-125 347,-161"/>
<text text-anchor="middle" x="256.5" y="-139.3" font-family="Times,serif" font-size="14.00">gridVariableTransforms_mod</text>
</a>
</g>
</g>
<!-- midas_obsImpact&#45;&gt;gridVariableTransforms_mod -->
<g id="edge7" class="edge">
<title>midas_obsImpact&#45;&gt;gridVariableTransforms_mod</title>
<path fill="none" stroke="black" d="M480.6,-642.9C441.99,-637.8 392.52,-624.93 361.5,-593 332.96,-563.61 337.5,-544.97 337.5,-504 337.5,-504 337.5,-504 337.5,-286 337.5,-245.55 339.19,-231.76 318.5,-197 311.76,-185.67 301.72,-175.57 291.67,-167.31"/>
<polygon fill="black" stroke="black" points="293.72,-164.46 283.67,-161.08 289.42,-169.99 293.72,-164.46"/>
</g>
<!-- horizontalCoord_mod -->
<g id="node9" class="node">
<title>horizontalCoord_mod</title>
<g id="a_node9"><a xlink:href="../modules/horizontalCoord_mod.html" xlink:title="horizontalCoord_mod">
<polygon fill="gray" stroke="black" points="444,-89 307,-89 307,-53 444,-53 444,-89"/>
<text text-anchor="middle" x="375.5" y="-67.3" font-family="Times,serif" font-size="14.00">horizontalCoord_mod</text>
</a>
</g>
</g>
<!-- midas_obsImpact&#45;&gt;horizontalCoord_mod -->
<g id="edge8" class="edge">
<title>midas_obsImpact&#45;&gt;horizontalCoord_mod</title>
<path fill="none" stroke="black" d="M480.85,-638.32C451.03,-631.36 416.24,-618.13 394.5,-593 368.04,-562.41 375.5,-544.45 375.5,-504 375.5,-504 375.5,-504 375.5,-214 375.5,-174 375.5,-127.65 375.5,-99.08"/>
<polygon fill="black" stroke="black" points="379,-99.05 375.5,-89.05 372,-99.05 379,-99.05"/>
</g>
<!-- innovation_mod -->
<g id="node10" class="node">
<title>innovation_mod</title>
<g id="a_node10"><a xlink:href="../modules/innovation_mod.svg" xlink:title="innovation_mod">
<polygon fill="none" stroke="red" points="509.5,-593 403.5,-593 403.5,-557 509.5,-557 509.5,-593"/>
<text text-anchor="middle" x="456.5" y="-571.3" font-family="Times,serif" font-size="14.00">innovation_mod</text>
</a>
</g>
</g>
<!-- midas_obsImpact&#45;&gt;innovation_mod -->
<g id="edge9" class="edge">
<title>midas_obsImpact&#45;&gt;innovation_mod</title>
<path fill="none" stroke="black" d="M517.48,-628.7C507.37,-619.97 494.96,-609.24 483.98,-599.75"/>
<polygon fill="black" stroke="black" points="486.15,-596.99 476.29,-593.1 481.57,-602.29 486.15,-596.99"/>
</g>
<!-- mathPhysConstants_mod -->
<g id="node11" class="node">
<title>mathPhysConstants_mod</title>
<g id="a_node11"><a xlink:href="../modules/mathPhysConstants_mod.html" xlink:title="mathPhysConstants_mod">
<polygon fill="gray" stroke="black" points="559,-521 404,-521 404,-485 559,-485 559,-521"/>
<text text-anchor="middle" x="481.5" y="-499.3" font-family="Times,serif" font-size="14.00">mathPhysConstants_mod</text>
</a>
</g>
</g>
<!-- midas_obsImpact&#45;&gt;mathPhysConstants_mod -->
<g id="edge10" class="edge">
<title>midas_obsImpact&#45;&gt;mathPhysConstants_mod</title>
<path fill="none" stroke="black" d="M535.9,-628.99C533.72,-610.61 528.83,-580.76 518.5,-557 514.32,-547.38 508.25,-537.71 502.24,-529.32"/>
<polygon fill="black" stroke="black" points="504.87,-526.99 496.07,-521.09 499.27,-531.19 504.87,-526.99"/>
</g>
<!-- midasMpi_mod -->
<g id="node12" class="node">
<title>midasMpi_mod</title>
<g id="a_node12"><a xlink:href="../modules/midasMpi_mod.html" xlink:title="midasMpi_mod">
<polygon fill="gray" stroke="black" points="597.5,-449 493.5,-449 493.5,-413 597.5,-413 597.5,-449"/>
<text text-anchor="middle" x="545.5" y="-427.3" font-family="Times,serif" font-size="14.00">midasMpi_mod</text>
</a>
</g>
</g>
<!-- midas_obsImpact&#45;&gt;midasMpi_mod -->
<g id="edge11" class="edge">
<title>midas_obsImpact&#45;&gt;midasMpi_mod</title>
<path fill="none" stroke="black" d="M545.13,-628.58C557.09,-599.02 577.89,-537.14 567.5,-485 565.71,-476.01 562.36,-466.64 558.81,-458.32"/>
<polygon fill="black" stroke="black" points="561.96,-456.77 554.63,-449.12 555.58,-459.67 561.96,-456.77"/>
</g>
<!-- obsErrors_mod -->
<g id="node13" class="node">
<title>obsErrors_mod</title>
<g id="a_node13"><a xlink:href="../modules/obsErrors_mod.html" xlink:title="obsErrors_mod">
<polygon fill="gray" stroke="black" points="635,-377 534,-377 534,-341 635,-341 635,-377"/>
<text text-anchor="middle" x="584.5" y="-355.3" font-family="Times,serif" font-size="14.00">obsErrors_mod</text>
</a>
</g>
</g>
<!-- midas_obsImpact&#45;&gt;obsErrors_mod -->
<g id="edge12" class="edge">
<title>midas_obsImpact&#45;&gt;obsErrors_mod</title>
<path fill="none" stroke="black" d="M553.31,-628.58C561.39,-618.77 570.73,-605.94 576.5,-593 603.15,-533.3 599.8,-514.03 606.5,-449 608.14,-433.08 609.63,-428.69 606.5,-413 604.71,-404.01 601.36,-394.64 597.81,-386.32"/>
<polygon fill="black" stroke="black" points="600.96,-384.77 593.63,-377.12 594.58,-387.67 600.96,-384.77"/>
</g>
<!-- obsFiles_mod -->
<g id="node14" class="node">
<title>obsFiles_mod</title>
<g id="a_node14"><a xlink:href="../modules/obsFiles_mod.html" xlink:title="obsFiles_mod">
<polygon fill="gray" stroke="black" points="673,-305 580,-305 580,-269 673,-269 673,-305"/>
<text text-anchor="middle" x="626.5" y="-283.3" font-family="Times,serif" font-size="14.00">obsFiles_mod</text>
</a>
</g>
</g>
<!-- midas_obsImpact&#45;&gt;obsFiles_mod -->
<g id="edge13" class="edge">
<title>midas_obsImpact&#45;&gt;obsFiles_mod</title>
<path fill="none" stroke="black" d="M568.65,-628.88C605.96,-605.82 663.5,-561.02 663.5,-504 663.5,-504 663.5,-504 663.5,-430 663.5,-388.71 648.67,-342.77 637.78,-314.63"/>
<polygon fill="black" stroke="black" points="640.94,-313.11 633.99,-305.11 634.44,-315.7 640.94,-313.11"/>
</g>
<!-- obsSpaceData_mod -->
<g id="node15" class="node">
<title>obsSpaceData_mod</title>
<g id="a_node15"><a xlink:href="../modules/obsSpaceData_mod.html" xlink:title="obsSpaceData_mod">
<polygon fill="gray" stroke="black" points="711,-233 586,-233 586,-197 711,-197 711,-233"/>
<text text-anchor="middle" x="648.5" y="-211.3" font-family="Times,serif" font-size="14.00">obsSpaceData_mod</text>
</a>
</g>
</g>
<!-- midas_obsImpact&#45;&gt;obsSpaceData_mod -->
<g id="edge14" class="edge">
<title>midas_obsImpact&#45;&gt;obsSpaceData_mod</title>
<path fill="none" stroke="black" d="M584.06,-628.87C632.54,-607.67 701.5,-566.52 701.5,-504 701.5,-504 701.5,-504 701.5,-358 701.5,-317.46 696.88,-306.51 681.5,-269 677.7,-259.72 672.33,-250.22 667.03,-241.88"/>
<polygon fill="black" stroke="black" points="669.82,-239.75 661.38,-233.34 663.98,-243.62 669.82,-239.75"/>
</g>
<!-- ramDisk_mod -->
<g id="node16" class="node">
<title>ramDisk_mod</title>
<g id="a_node16"><a xlink:href="../modules/ramDisk_mod.html" xlink:title="ramDisk_mod">
<polygon fill="gray" stroke="black" points="749,-161 654,-161 654,-125 749,-125 749,-161"/>
<text text-anchor="middle" x="701.5" y="-139.3" font-family="Times,serif" font-size="14.00">ramDisk_mod</text>
</a>
</g>
</g>
<!-- midas_obsImpact&#45;&gt;ramDisk_mod -->
<g id="edge15" class="edge">
<title>midas_obsImpact&#45;&gt;ramDisk_mod</title>
<path fill="none" stroke="black" d="M594.04,-632.32C653.8,-614.09 739.5,-575.48 739.5,-504 739.5,-504 739.5,-504 739.5,-286 739.5,-244.63 724.27,-198.72 713.09,-170.61"/>
<polygon fill="black" stroke="black" points="716.22,-169.02 709.19,-161.09 709.74,-171.67 716.22,-169.02"/>
</g>
<!-- timeCoord_mod -->
<g id="node17" class="node">
<title>timeCoord_mod</title>
<g id="a_node17"><a xlink:href="../modules/timeCoord_mod.html" xlink:title="timeCoord_mod">
<polygon fill="gray" stroke="black" points="831,-89 724,-89 724,-53 831,-53 831,-89"/>
<text text-anchor="middle" x="777.5" y="-67.3" font-family="Times,serif" font-size="14.00">timeCoord_mod</text>
</a>
</g>
</g>
<!-- midas_obsImpact&#45;&gt;timeCoord_mod -->
<g id="edge16" class="edge">
<title>midas_obsImpact&#45;&gt;timeCoord_mod</title>
<path fill="none" stroke="black" d="M594.07,-637.85C665.03,-624.07 777.5,-588.84 777.5,-504 777.5,-504 777.5,-504 777.5,-214 777.5,-174 777.5,-127.65 777.5,-99.08"/>
<polygon fill="black" stroke="black" points="781,-99.05 777.5,-89.05 774,-99.05 781,-99.05"/>
</g>
<!-- utilities_mod -->
<g id="node18" class="node">
<title>utilities_mod</title>
<g id="a_node18"><a xlink:href="../modules/utilities_mod.svg" xlink:title="utilities_mod">
<polygon fill="none" stroke="red" points="895,-593 806,-593 806,-557 895,-557 895,-593"/>
<text text-anchor="middle" x="850.5" y="-571.3" font-family="Times,serif" font-size="14.00">utilities_mod</text>
</a>
</g>
</g>
<!-- midas_obsImpact&#45;&gt;utilities_mod -->
<g id="edge17" class="edge">
<title>midas_obsImpact&#45;&gt;utilities_mod</title>
<path fill="none" stroke="black" d="M594.02,-635.47C645.67,-625.54 724.06,-609.73 791.5,-593 792.95,-592.64 794.43,-592.27 795.91,-591.88"/>
<polygon fill="black" stroke="black" points="797.05,-595.2 805.82,-589.26 795.25,-588.44 797.05,-595.2"/>
</g>
<!-- version_mod -->
<g id="node19" class="node">
<title>version_mod</title>
<g id="a_node19"><a xlink:href="../modules/version_mod.html" xlink:title="version_mod">
<polygon fill="gray" stroke="black" points="967.5,-521 879.5,-521 879.5,-485 967.5,-485 967.5,-521"/>
<text text-anchor="middle" x="923.5" y="-499.3" font-family="Times,serif" font-size="14.00">version_mod</text>
</a>
</g>
</g>
<!-- midas_obsImpact&#45;&gt;version_mod -->
<g id="edge18" class="edge">
<title>midas_obsImpact&#45;&gt;version_mod</title>
<path fill="none" stroke="black" d="M594.06,-645.39C685.39,-643.21 859.56,-633.67 903.5,-593 920.25,-577.5 924.48,-551.25 924.98,-531.26"/>
<polygon fill="black" stroke="black" points="928.48,-531.18 924.93,-521.19 921.48,-531.21 928.48,-531.18"/>
</g>
<!-- verticalCoord_mod -->
<g id="node20" class="node">
<title>verticalCoord_mod</title>
<g id="a_node20"><a xlink:href="../modules/verticalCoord_mod.html" xlink:title="verticalCoord_mod">
<polygon fill="gray" stroke="black" points="1057,-449 934,-449 934,-413 1057,-413 1057,-449"/>
<text text-anchor="middle" x="995.5" y="-427.3" font-family="Times,serif" font-size="14.00">verticalCoord_mod</text>
</a>
</g>
</g>
<!-- midas_obsImpact&#45;&gt;verticalCoord_mod -->
<g id="edge19" class="edge">
<title>midas_obsImpact&#45;&gt;verticalCoord_mod</title>
<path fill="none" stroke="black" d="M594.25,-643.9C688.65,-639.51 872.95,-626.75 927.5,-593 973.53,-564.52 988.43,-497.55 993.23,-459.57"/>
<polygon fill="black" stroke="black" points="996.75,-459.55 994.38,-449.23 989.8,-458.78 996.75,-459.55"/>
</g>
</g>
</svg>
