<?xml version="1.0" encoding="UTF-8" standalone="no"?>
<!DOCTYPE svg PUBLIC "-//W3C//DTD SVG 1.1//EN"
 "http://www.w3.org/Graphics/SVG/1.1/DTD/svg11.dtd">
<!-- Generated by graphviz version 3.0.0 (20220315.2325)
 -->
<!-- Title: midas_adjointTest Pages: 1 -->
<svg width="1017pt" height="673pt"
 viewBox="0.00 0.00 1017.00 673.00" xmlns="http://www.w3.org/2000/svg" xmlns:xlink="http://www.w3.org/1999/xlink">
<g id="graph0" class="graph" transform="scale(1 1) rotate(0) translate(4 669)">
<title>midas_adjointTest</title>
<polygon fill="white" stroke="transparent" points="-4,4 -4,-669 1013,-669 1013,4 -4,4"/>
<text text-anchor="middle" x="504.5" y="-37.8" font-family="Times,serif" font-size="14.00">Red boxes indicate modules with dependencies not shown</text>
<text text-anchor="middle" x="504.5" y="-22.8" font-family="Times,serif" font-size="14.00">Lower level dependencies can be shown by clicking on a red box</text>
<text text-anchor="middle" x="504.5" y="-7.8" font-family="Times,serif" font-size="14.00">Shaded boxes indicate modules with no dependencies</text>
<!-- midas_adjointTest -->
<g id="node1" class="node">
<title>midas_adjointTest</title>
<g id="a_node1"><a xlink:href="midas_adjointTest.html" xlink:title="midas_adjointTest">
<polygon fill="none" stroke="black" points="586.5,-665 470.5,-665 470.5,-629 586.5,-629 586.5,-665"/>
<text text-anchor="middle" x="528.5" y="-643.3" font-family="Times,serif" font-size="14.00">midas_adjointTest</text>
</a>
</g>
</g>
<!-- advection_mod -->
<g id="node2" class="node">
<title>advection_mod</title>
<g id="a_node2"><a xlink:href="../modules/advection_mod.svg" xlink:title="advection_mod">
<polygon fill="none" stroke="red" points="101,-593 0,-593 0,-557 101,-557 101,-593"/>
<text text-anchor="middle" x="50.5" y="-571.3" font-family="Times,serif" font-size="14.00">advection_mod</text>
</a>
</g>
</g>
<!-- midas_adjointTest&#45;&gt;advection_mod -->
<g id="edge1" class="edge">
<title>midas_adjointTest&#45;&gt;advection_mod</title>
<path fill="none" stroke="black" d="M470.33,-640.91C390.03,-633.34 240.93,-617.35 115.5,-593 114.03,-592.72 112.55,-592.42 111.06,-592.11"/>
<polygon fill="black" stroke="black" points="111.62,-588.65 101.1,-589.9 110.11,-595.48 111.62,-588.65"/>
</g>
<!-- bMatrixEnsemble_mod -->
<g id="node3" class="node">
<title>bMatrixEnsemble_mod</title>
<g id="a_node3"><a xlink:href="../modules/bMatrixEnsemble_mod.html" xlink:title="bMatrixEnsemble_mod">
<polygon fill="gray" stroke="black" points="171,-521 24,-521 24,-485 171,-485 171,-521"/>
<text text-anchor="middle" x="97.5" y="-499.3" font-family="Times,serif" font-size="14.00">bMatrixEnsemble_mod</text>
</a>
</g>
</g>
<!-- midas_adjointTest&#45;&gt;bMatrixEnsemble_mod -->
<g id="edge2" class="edge">
<title>midas_adjointTest&#45;&gt;bMatrixEnsemble_mod</title>
<path fill="none" stroke="black" d="M470.28,-641.44C385.84,-634.07 234.13,-617.84 185.5,-593 156.42,-578.15 131.15,-550.06 115.24,-529.39"/>
<polygon fill="black" stroke="black" points="118.01,-527.25 109.22,-521.33 112.4,-531.44 118.01,-527.25"/>
</g>
<!-- bMatrixHI_mod -->
<g id="node4" class="node">
<title>bMatrixHI_mod</title>
<g id="a_node4"><a xlink:href="../modules/bMatrixHI_mod.html" xlink:title="bMatrixHI_mod">
<polygon fill="gray" stroke="black" points="209.5,-449 101.5,-449 101.5,-413 209.5,-413 209.5,-449"/>
<text text-anchor="middle" x="155.5" y="-427.3" font-family="Times,serif" font-size="14.00">bMatrixHI_mod</text>
</a>
</g>
</g>
<!-- midas_adjointTest&#45;&gt;bMatrixHI_mod -->
<g id="edge3" class="edge">
<title>midas_adjointTest&#45;&gt;bMatrixHI_mod</title>
<path fill="none" stroke="black" d="M470.2,-642.52C392.54,-636.79 260.6,-622.88 223.5,-593 183.13,-560.49 199.97,-532.62 179.5,-485 175.73,-476.24 171.48,-466.72 167.61,-458.21"/>
<polygon fill="black" stroke="black" points="170.79,-456.75 163.45,-449.11 164.42,-459.66 170.79,-456.75"/>
</g>
<!-- codePrecision_mod -->
<g id="node5" class="node">
<title>codePrecision_mod</title>
<g id="a_node5"><a xlink:href="../modules/codePrecision_mod.html" xlink:title="codePrecision_mod">
<polygon fill="gray" stroke="black" points="247.5,-377 123.5,-377 123.5,-341 247.5,-341 247.5,-377"/>
<text text-anchor="middle" x="185.5" y="-355.3" font-family="Times,serif" font-size="14.00">codePrecision_mod</text>
</a>
</g>
</g>
<!-- midas_adjointTest&#45;&gt;codePrecision_mod -->
<g id="edge4" class="edge">
<title>midas_adjointTest&#45;&gt;codePrecision_mod</title>
<path fill="none" stroke="black" d="M470.28,-641.7C400.93,-635.38 290.74,-621.14 261.5,-593 202.23,-535.97 250.2,-488.9 218.5,-413 214.63,-403.75 209.25,-394.26 203.95,-385.91"/>
<polygon fill="black" stroke="black" points="206.75,-383.79 198.31,-377.37 200.9,-387.65 206.75,-383.79"/>
</g>
<!-- ensembleStateVector_mod -->
<g id="node6" class="node">
<title>ensembleStateVector_mod</title>
<g id="a_node6"><a xlink:href="../modules/ensembleStateVector_mod.html" xlink:title="ensembleStateVector_mod">
<polygon fill="gray" stroke="black" points="285,-305 122,-305 122,-269 285,-269 285,-305"/>
<text text-anchor="middle" x="203.5" y="-283.3" font-family="Times,serif" font-size="14.00">ensembleStateVector_mod</text>
</a>
</g>
</g>
<!-- midas_adjointTest&#45;&gt;ensembleStateVector_mod -->
<g id="edge5" class="edge">
<title>midas_adjointTest&#45;&gt;ensembleStateVector_mod</title>
<path fill="none" stroke="black" d="M470.36,-639.39C410.79,-631.45 323.58,-616.23 299.5,-593 270.01,-564.56 275.5,-544.97 275.5,-504 275.5,-504 275.5,-504 275.5,-430 275.5,-389.55 275.82,-376.54 256.5,-341 250.68,-330.3 242.04,-320.34 233.41,-312.01"/>
<polygon fill="black" stroke="black" points="235.64,-309.31 225.9,-305.13 230.91,-314.47 235.64,-309.31"/>
</g>
<!-- gridStateVector_mod -->
<g id="node7" class="node">
<title>gridStateVector_mod</title>
<g id="a_node7"><a xlink:href="../modules/gridStateVector_mod.html" xlink:title="gridStateVector_mod">
<polygon fill="gray" stroke="black" points="323.5,-233 189.5,-233 189.5,-197 323.5,-197 323.5,-233"/>
<text text-anchor="middle" x="256.5" y="-211.3" font-family="Times,serif" font-size="14.00">gridStateVector_mod</text>
</a>
</g>
</g>
<!-- midas_adjointTest&#45;&gt;gridStateVector_mod -->
<g id="edge6" class="edge">
<title>midas_adjointTest&#45;&gt;gridStateVector_mod</title>
<path fill="none" stroke="black" d="M470.42,-644.59C428.09,-640.45 372.29,-628.05 337.5,-593 308.64,-563.93 313.5,-544.97 313.5,-504 313.5,-504 313.5,-504 313.5,-358 313.5,-317.46 309.86,-306.1 293.5,-269 289.27,-259.4 283.19,-249.74 277.18,-241.35"/>
<polygon fill="black" stroke="black" points="279.81,-239.02 271.02,-233.11 274.21,-243.22 279.81,-239.02"/>
</g>
<!-- gridVariableTransforms_mod -->
<g id="node8" class="node">
<title>gridVariableTransforms_mod</title>
<g id="a_node8"><a xlink:href="../modules/gridVariableTransforms_mod.html" xlink:title="gridVariableTransforms_mod">
<polygon fill="gray" stroke="black" points="361,-161 180,-161 180,-125 361,-125 361,-161"/>
<text text-anchor="middle" x="270.5" y="-139.3" font-family="Times,serif" font-size="14.00">gridVariableTransforms_mod</text>
</a>
</g>
</g>
<!-- midas_adjointTest&#45;&gt;gridVariableTransforms_mod -->
<g id="edge7" class="edge">
<title>midas_adjointTest&#45;&gt;gridVariableTransforms_mod</title>
<path fill="none" stroke="black" d="M470.4,-639.24C438.29,-632.57 400.04,-619.32 375.5,-593 347.56,-563.03 351.5,-544.97 351.5,-504 351.5,-504 351.5,-504 351.5,-286 351.5,-245.55 353.19,-231.76 332.5,-197 325.76,-185.67 315.72,-175.57 305.67,-167.31"/>
<polygon fill="black" stroke="black" points="307.72,-164.46 297.67,-161.08 303.42,-169.99 307.72,-164.46"/>
</g>
<!-- horizontalCoord_mod -->
<g id="node9" class="node">
<title>horizontalCoord_mod</title>
<g id="a_node9"><a xlink:href="../modules/horizontalCoord_mod.html" xlink:title="horizontalCoord_mod">
<polygon fill="gray" stroke="black" points="458,-89 321,-89 321,-53 458,-53 458,-89"/>
<text text-anchor="middle" x="389.5" y="-67.3" font-family="Times,serif" font-size="14.00">horizontalCoord_mod</text>
</a>
</g>
</g>
<!-- midas_adjointTest&#45;&gt;horizontalCoord_mod -->
<g id="edge8" class="edge">
<title>midas_adjointTest&#45;&gt;horizontalCoord_mod</title>
<path fill="none" stroke="black" d="M470.42,-632.59C448.02,-624.62 424.09,-612.17 408.5,-593 382.99,-561.62 389.5,-544.45 389.5,-504 389.5,-504 389.5,-504 389.5,-214 389.5,-174 389.5,-127.65 389.5,-99.08"/>
<polygon fill="black" stroke="black" points="393,-99.05 389.5,-89.05 386,-99.05 393,-99.05"/>
</g>
<!-- lamBmatrixHI_mod -->
<g id="node10" class="node">
<title>lamBmatrixHI_mod</title>
<g id="a_node10"><a xlink:href="../modules/lamBmatrixHI_mod.html" xlink:title="lamBmatrixHI_mod">
<polygon fill="gray" stroke="black" points="547.5,-593 417.5,-593 417.5,-557 547.5,-557 547.5,-593"/>
<text text-anchor="middle" x="482.5" y="-571.3" font-family="Times,serif" font-size="14.00">lamBmatrixHI_mod</text>
</a>
</g>
</g>
<!-- midas_adjointTest&#45;&gt;lamBmatrixHI_mod -->
<g id="edge9" class="edge">
<title>midas_adjointTest&#45;&gt;lamBmatrixHI_mod</title>
<path fill="none" stroke="black" d="M517.13,-628.7C511.78,-620.56 505.3,-610.69 499.39,-601.7"/>
<polygon fill="black" stroke="black" points="502.16,-599.54 493.74,-593.1 496.31,-603.38 502.16,-599.54"/>
</g>
<!-- localization_mod -->
<g id="node11" class="node">
<title>localization_mod</title>
<g id="a_node11"><a xlink:href="../modules/localization_mod.svg" xlink:title="localization_mod">
<polygon fill="none" stroke="red" points="585,-521 474,-521 474,-485 585,-485 585,-521"/>
<text text-anchor="middle" x="529.5" y="-499.3" font-family="Times,serif" font-size="14.00">localization_mod</text>
</a>
</g>
</g>
<!-- midas_adjointTest&#45;&gt;localization_mod -->
<g id="edge10" class="edge">
<title>midas_adjointTest&#45;&gt;localization_mod</title>
<path fill="none" stroke="black" d="M540.39,-628.72C546.51,-618.76 553.34,-605.73 556.5,-593 560.35,-577.47 560.23,-572.56 556.5,-557 554.29,-547.81 550.21,-538.41 545.88,-530.13"/>
<polygon fill="black" stroke="black" points="548.9,-528.36 540.97,-521.33 542.78,-531.77 548.9,-528.36"/>
</g>
<!-- mathPhysConstants_mod -->
<g id="node12" class="node">
<title>mathPhysConstants_mod</title>
<g id="a_node12"><a xlink:href="../modules/mathPhysConstants_mod.html" xlink:title="mathPhysConstants_mod">
<polygon fill="gray" stroke="black" points="623,-449 468,-449 468,-413 623,-413 623,-449"/>
<text text-anchor="middle" x="545.5" y="-427.3" font-family="Times,serif" font-size="14.00">mathPhysConstants_mod</text>
</a>
</g>
</g>
<!-- midas_adjointTest&#45;&gt;mathPhysConstants_mod -->
<g id="edge11" class="edge">
<title>midas_adjointTest&#45;&gt;mathPhysConstants_mod</title>
<path fill="none" stroke="black" d="M545.98,-628.7C555,-618.94 565.54,-606.1 572.5,-593 588.14,-563.56 588.79,-554 593.5,-521 595.76,-505.16 599.26,-499.93 593.5,-485 589.4,-474.36 582.06,-464.53 574.33,-456.3"/>
<polygon fill="black" stroke="black" points="576.77,-453.78 567.21,-449.21 571.83,-458.75 576.77,-453.78"/>
</g>
<!-- midasMpi_mod -->
<g id="node13" class="node">
<title>midasMpi_mod</title>
<g id="a_node13"><a xlink:href="../modules/midasMpi_mod.html" xlink:title="midasMpi_mod">
<polygon fill="gray" stroke="black" points="661.5,-377 557.5,-377 557.5,-341 661.5,-341 661.5,-377"/>
<text text-anchor="middle" x="609.5" y="-355.3" font-family="Times,serif" font-size="14.00">midasMpi_mod</text>
</a>
</g>
</g>
<!-- midas_adjointTest&#45;&gt;midasMpi_mod -->
<g id="edge12" class="edge">
<title>midas_adjointTest&#45;&gt;midasMpi_mod</title>
<path fill="none" stroke="black" d="M557.5,-628.87C570.59,-619.76 585.18,-607.45 594.5,-593 638.77,-524.37 647.46,-493.1 631.5,-413 629.71,-404.01 626.36,-394.64 622.81,-386.32"/>
<polygon fill="black" stroke="black" points="625.96,-384.77 618.63,-377.12 619.58,-387.67 625.96,-384.77"/>
</g>
<!-- ramDisk_mod -->
<g id="node14" class="node">
<title>ramDisk_mod</title>
<g id="a_node14"><a xlink:href="../modules/ramDisk_mod.html" xlink:title="ramDisk_mod">
<polygon fill="gray" stroke="black" points="699,-305 604,-305 604,-269 699,-269 699,-305"/>
<text text-anchor="middle" x="651.5" y="-283.3" font-family="Times,serif" font-size="14.00">ramDisk_mod</text>
</a>
</g>
</g>
<!-- midas_adjointTest&#45;&gt;ramDisk_mod -->
<g id="edge13" class="edge">
<title>midas_adjointTest&#45;&gt;ramDisk_mod</title>
<path fill="none" stroke="black" d="M573.78,-628.82C621.4,-607.46 689.5,-566.05 689.5,-504 689.5,-504 689.5,-504 689.5,-430 689.5,-388.63 674.27,-342.72 663.09,-314.61"/>
<polygon fill="black" stroke="black" points="666.22,-313.02 659.19,-305.09 659.74,-315.67 666.22,-313.02"/>
</g>
<!-- randomNumber_mod -->
<g id="node15" class="node">
<title>randomNumber_mod</title>
<g id="a_node15"><a xlink:href="../modules/randomNumber_mod.html" xlink:title="randomNumber_mod">
<polygon fill="gray" stroke="black" points="737,-233 602,-233 602,-197 737,-197 737,-233"/>
<text text-anchor="middle" x="669.5" y="-211.3" font-family="Times,serif" font-size="14.00">randomNumber_mod</text>
</a>
</g>
</g>
<!-- midas_adjointTest&#45;&gt;randomNumber_mod -->
<g id="edge14" class="edge">
<title>midas_adjointTest&#45;&gt;randomNumber_mod</title>
<path fill="none" stroke="black" d="M586.59,-631.3C645.33,-612.54 727.5,-573.82 727.5,-504 727.5,-504 727.5,-504 727.5,-358 727.5,-317.46 724.09,-305.99 707.5,-269 703.12,-259.24 696.8,-249.46 690.56,-241.01"/>
<polygon fill="black" stroke="black" points="693.31,-238.84 684.43,-233.05 687.76,-243.11 693.31,-238.84"/>
</g>
<!-- timeCoord_mod -->
<g id="node16" class="node">
<title>timeCoord_mod</title>
<g id="a_node16"><a xlink:href="../modules/timeCoord_mod.html" xlink:title="timeCoord_mod">
<polygon fill="gray" stroke="black" points="775,-161 668,-161 668,-125 775,-125 775,-161"/>
<text text-anchor="middle" x="721.5" y="-139.3" font-family="Times,serif" font-size="14.00">timeCoord_mod</text>
</a>
</g>
</g>
<!-- midas_adjointTest&#45;&gt;timeCoord_mod -->
<g id="edge15" class="edge">
<title>midas_adjointTest&#45;&gt;timeCoord_mod</title>
<path fill="none" stroke="black" d="M586.78,-637.13C656.95,-622.76 765.5,-587.1 765.5,-504 765.5,-504 765.5,-504 765.5,-286 765.5,-244.21 747.9,-198.48 734.96,-170.51"/>
<polygon fill="black" stroke="black" points="738.08,-168.92 730.62,-161.39 731.76,-171.93 738.08,-168.92"/>
</g>
<!-- utilities_mod -->
<g id="node17" class="node">
<title>utilities_mod</title>
<g id="a_node17"><a xlink:href="../modules/utilities_mod.svg" xlink:title="utilities_mod">
<polygon fill="none" stroke="red" points="848,-89 759,-89 759,-53 848,-53 848,-89"/>
<text text-anchor="middle" x="803.5" y="-67.3" font-family="Times,serif" font-size="14.00">utilities_mod</text>
</a>
</g>
</g>
<!-- midas_adjointTest&#45;&gt;utilities_mod -->
<g id="edge16" class="edge">
<title>midas_adjointTest&#45;&gt;utilities_mod</title>
<path fill="none" stroke="black" d="M586.82,-641.46C667.54,-631.63 803.5,-600.72 803.5,-504 803.5,-504 803.5,-504 803.5,-214 803.5,-174 803.5,-127.65 803.5,-99.08"/>
<polygon fill="black" stroke="black" points="807,-99.05 803.5,-89.05 800,-99.05 807,-99.05"/>
</g>
<!-- version_mod -->
<g id="node18" class="node">
<title>version_mod</title>
<g id="a_node18"><a xlink:href="../modules/version_mod.html" xlink:title="version_mod">
<polygon fill="gray" stroke="black" points="919.5,-593 831.5,-593 831.5,-557 919.5,-557 919.5,-593"/>
<text text-anchor="middle" x="875.5" y="-571.3" font-family="Times,serif" font-size="14.00">version_mod</text>
</a>
</g>
</g>
<!-- midas_adjointTest&#45;&gt;version_mod -->
<g id="edge17" class="edge">
<title>midas_adjointTest&#45;&gt;version_mod</title>
<path fill="none" stroke="black" d="M586.72,-637.15C645.35,-627.8 738.22,-611.84 817.5,-593 818.76,-592.7 820.04,-592.39 821.33,-592.07"/>
<polygon fill="black" stroke="black" points="822.5,-595.38 831.29,-589.47 820.73,-588.61 822.5,-595.38"/>
</g>
<!-- verticalCoord_mod -->
<g id="node19" class="node">
<title>verticalCoord_mod</title>
<g id="a_node19"><a xlink:href="../modules/verticalCoord_mod.html" xlink:title="verticalCoord_mod">
<polygon fill="gray" stroke="black" points="1009,-521 886,-521 886,-485 1009,-485 1009,-521"/>
<text text-anchor="middle" x="947.5" y="-499.3" font-family="Times,serif" font-size="14.00">verticalCoord_mod</text>
</a>
</g>
</g>
<!-- midas_adjointTest&#45;&gt;verticalCoord_mod -->
<g id="edge18" class="edge">
<title>midas_adjointTest&#45;&gt;verticalCoord_mod</title>
<path fill="none" stroke="black" d="M586.76,-646.24C685.55,-645.39 879.95,-637.87 928.5,-593 945.22,-577.55 949.14,-551.29 949.37,-531.29"/>
<polygon fill="black" stroke="black" points="952.86,-531.15 949.19,-521.21 945.87,-531.27 952.86,-531.15"/>
</g>
</g>
</svg>
