<?xml version="1.0" encoding="UTF-8" standalone="no"?>
<!DOCTYPE svg PUBLIC "-//W3C//DTD SVG 1.1//EN"
 "http://www.w3.org/Graphics/SVG/1.1/DTD/svg11.dtd">
<!-- Generated by graphviz version 3.0.0 (20220315.2325)
 -->
<!-- Title: midas_thinning Pages: 1 -->
<svg width="576pt" height="673pt"
 viewBox="0.00 0.00 576.00 673.00" xmlns="http://www.w3.org/2000/svg" xmlns:xlink="http://www.w3.org/1999/xlink">
<g id="graph0" class="graph" transform="scale(1 1) rotate(0) translate(4 669)">
<title>midas_thinning</title>
<polygon fill="white" stroke="transparent" points="-4,4 -4,-669 572,-669 572,4 -4,4"/>
<text text-anchor="middle" x="284" y="-37.8" font-family="Times,serif" font-size="14.00">Red boxes indicate modules with dependencies not shown</text>
<text text-anchor="middle" x="284" y="-22.8" font-family="Times,serif" font-size="14.00">Lower level dependencies can be shown by clicking on a red box</text>
<text text-anchor="middle" x="284" y="-7.8" font-family="Times,serif" font-size="14.00">Shaded boxes indicate modules with no dependencies</text>
<!-- midas_thinning -->
<g id="node1" class="node">
<title>midas_thinning</title>
<g id="a_node1"><a xlink:href="midas_thinning.html" xlink:title="midas_thinning">
<polygon fill="none" stroke="black" points="333.5,-665 232.5,-665 232.5,-629 333.5,-629 333.5,-665"/>
<text text-anchor="middle" x="283" y="-643.3" font-family="Times,serif" font-size="14.00">midas_thinning</text>
</a>
</g>
</g>
<!-- midasMpi_mod -->
<g id="node2" class="node">
<title>midasMpi_mod</title>
<g id="a_node2"><a xlink:href="../modules/midasMpi_mod.html" xlink:title="midasMpi_mod">
<polygon fill="gray" stroke="black" points="104,-593 0,-593 0,-557 104,-557 104,-593"/>
<text text-anchor="middle" x="52" y="-571.3" font-family="Times,serif" font-size="14.00">midasMpi_mod</text>
</a>
</g>
</g>
<!-- midas_thinning&#45;&gt;midasMpi_mod -->
<g id="edge1" class="edge">
<title>midas_thinning&#45;&gt;midasMpi_mod</title>
<path fill="none" stroke="black" d="M232.31,-630.64C197.44,-620.07 150.92,-605.98 113.87,-594.75"/>
<polygon fill="black" stroke="black" points="114.76,-591.36 104.18,-591.81 112.73,-598.06 114.76,-591.36"/>
</g>
<!-- obsFiles_mod -->
<g id="node3" class="node">
<title>obsFiles_mod</title>
<g id="a_node3"><a xlink:href="../modules/obsFiles_mod.html" xlink:title="obsFiles_mod">
<polygon fill="gray" stroke="black" points="159.5,-521 66.5,-521 66.5,-485 159.5,-485 159.5,-521"/>
<text text-anchor="middle" x="113" y="-499.3" font-family="Times,serif" font-size="14.00">obsFiles_mod</text>
</a>
</g>
</g>
<!-- midas_thinning&#45;&gt;obsFiles_mod -->
<g id="edge2" class="edge">
<title>midas_thinning&#45;&gt;obsFiles_mod</title>
<path fill="none" stroke="black" d="M234.74,-628.93C214.54,-620.24 191.69,-608.25 174,-593 153.51,-575.35 136.73,-549.3 125.99,-529.94"/>
<polygon fill="black" stroke="black" points="129.03,-528.19 121.22,-521.04 122.86,-531.5 129.03,-528.19"/>
</g>
<!-- obsFilter_mod -->
<g id="node4" class="node">
<title>obsFilter_mod</title>
<g id="a_node4"><a xlink:href="../modules/obsFilter_mod.html" xlink:title="obsFilter_mod">
<polygon fill="gray" stroke="black" points="198,-449 102,-449 102,-413 198,-413 198,-449"/>
<text text-anchor="middle" x="150" y="-427.3" font-family="Times,serif" font-size="14.00">obsFilter_mod</text>
</a>
</g>
</g>
<!-- midas_thinning&#45;&gt;obsFilter_mod -->
<g id="edge3" class="edge">
<title>midas_thinning&#45;&gt;obsFilter_mod</title>
<path fill="none" stroke="black" d="M252.55,-628.78C238.64,-619.65 222.87,-607.34 212,-593 203.56,-581.87 174.5,-501.47 159.35,-458.66"/>
<polygon fill="black" stroke="black" points="162.62,-457.41 155.99,-449.15 156.02,-459.74 162.62,-457.41"/>
</g>
<!-- obsSpaceData_mod -->
<g id="node5" class="node">
<title>obsSpaceData_mod</title>
<g id="a_node5"><a xlink:href="../modules/obsSpaceData_mod.html" xlink:title="obsSpaceData_mod">
<polygon fill="gray" stroke="black" points="235.5,-377 110.5,-377 110.5,-341 235.5,-341 235.5,-377"/>
<text text-anchor="middle" x="173" y="-355.3" font-family="Times,serif" font-size="14.00">obsSpaceData_mod</text>
</a>
</g>
</g>
<!-- midas_thinning&#45;&gt;obsSpaceData_mod -->
<g id="edge4" class="edge">
<title>midas_thinning&#45;&gt;obsSpaceData_mod</title>
<path fill="none" stroke="black" d="M270.19,-628.63C263.34,-618.64 255.26,-605.6 250,-593 218.3,-517.1 239.21,-488.68 207,-413 203,-403.59 197.38,-393.99 191.86,-385.58"/>
<polygon fill="black" stroke="black" points="194.75,-383.6 186.22,-377.32 188.97,-387.55 194.75,-383.6"/>
</g>
<!-- ramDisk_mod -->
<g id="node6" class="node">
<title>ramDisk_mod</title>
<g id="a_node6"><a xlink:href="../modules/ramDisk_mod.html" xlink:title="ramDisk_mod">
<polygon fill="gray" stroke="black" points="273.5,-305 178.5,-305 178.5,-269 273.5,-269 273.5,-305"/>
<text text-anchor="middle" x="226" y="-283.3" font-family="Times,serif" font-size="14.00">ramDisk_mod</text>
</a>
</g>
</g>
<!-- midas_thinning&#45;&gt;ramDisk_mod -->
<g id="edge5" class="edge">
<title>midas_thinning&#45;&gt;ramDisk_mod</title>
<path fill="none" stroke="black" d="M279.16,-628.61C273.6,-601.94 264,-549.27 264,-504 264,-504 264,-504 264,-430 264,-388.63 248.77,-342.72 237.59,-314.61"/>
<polygon fill="black" stroke="black" points="240.72,-313.02 233.69,-305.09 234.24,-315.67 240.72,-313.02"/>
</g>
<!-- thinning_mod -->
<g id="node7" class="node">
<title>thinning_mod</title>
<g id="a_node7"><a xlink:href="../modules/thinning_mod.svg" xlink:title="thinning_mod">
<polygon fill="none" stroke="red" points="311.5,-233 218.5,-233 218.5,-197 311.5,-197 311.5,-233"/>
<text text-anchor="middle" x="265" y="-211.3" font-family="Times,serif" font-size="14.00">thinning_mod</text>
</a>
</g>
</g>
<!-- midas_thinning&#45;&gt;thinning_mod -->
<g id="edge6" class="edge">
<title>midas_thinning&#45;&gt;thinning_mod</title>
<path fill="none" stroke="black" d="M286.84,-628.61C292.4,-601.94 302,-549.27 302,-504 302,-504 302,-504 302,-358 302,-316.71 287.17,-270.77 276.28,-242.63"/>
<polygon fill="black" stroke="black" points="279.44,-241.11 272.49,-233.11 272.94,-243.7 279.44,-241.11"/>
</g>
<!-- timeCoord_mod -->
<g id="node8" class="node">
<title>timeCoord_mod</title>
<g id="a_node8"><a xlink:href="../modules/timeCoord_mod.html" xlink:title="timeCoord_mod">
<polygon fill="gray" stroke="black" points="349.5,-161 242.5,-161 242.5,-125 349.5,-125 349.5,-161"/>
<text text-anchor="middle" x="296" y="-139.3" font-family="Times,serif" font-size="14.00">timeCoord_mod</text>
</a>
</g>
</g>
<!-- midas_thinning&#45;&gt;timeCoord_mod -->
<g id="edge7" class="edge">
<title>midas_thinning&#45;&gt;timeCoord_mod</title>
<path fill="none" stroke="black" d="M294.81,-628.96C311.51,-603.16 340,-552.08 340,-504 340,-504 340,-504 340,-286 340,-244.21 322.4,-198.48 309.46,-170.51"/>
<polygon fill="black" stroke="black" points="312.58,-168.92 305.12,-161.39 306.26,-171.93 312.58,-168.92"/>
</g>
<!-- tovsNL_mod -->
<g id="node9" class="node">
<title>tovsNL_mod</title>
<g id="a_node9"><a xlink:href="../modules/tovsNL_mod.html" xlink:title="tovsNL_mod">
<polygon fill="gray" stroke="black" points="422.5,-89 333.5,-89 333.5,-53 422.5,-53 422.5,-89"/>
<text text-anchor="middle" x="378" y="-67.3" font-family="Times,serif" font-size="14.00">tovsNL_mod</text>
</a>
</g>
</g>
<!-- midas_thinning&#45;&gt;tovsNL_mod -->
<g id="edge8" class="edge">
<title>midas_thinning&#45;&gt;tovsNL_mod</title>
<path fill="none" stroke="black" d="M304.56,-628.78C332.59,-604.28 378,-556.5 378,-504 378,-504 378,-504 378,-214 378,-174 378,-127.65 378,-99.08"/>
<polygon fill="black" stroke="black" points="381.5,-99.05 378,-89.05 374.5,-99.05 381.5,-99.05"/>
</g>
<!-- utilities_mod -->
<g id="node10" class="node">
<title>utilities_mod</title>
<g id="a_node10"><a xlink:href="../modules/utilities_mod.svg" xlink:title="utilities_mod">
<polygon fill="none" stroke="red" points="495.5,-593 406.5,-593 406.5,-557 495.5,-557 495.5,-593"/>
<text text-anchor="middle" x="451" y="-571.3" font-family="Times,serif" font-size="14.00">utilities_mod</text>
</a>
</g>
</g>
<!-- midas_thinning&#45;&gt;utilities_mod -->
<g id="edge9" class="edge">
<title>midas_thinning&#45;&gt;utilities_mod</title>
<path fill="none" stroke="black" d="M324.1,-628.88C347.17,-619.26 376.14,-607.19 400.57,-597.01"/>
<polygon fill="black" stroke="black" points="402.15,-600.15 410.04,-593.07 399.46,-593.68 402.15,-600.15"/>
</g>
<!-- version_mod -->
<g id="node11" class="node">
<title>version_mod</title>
<g id="a_node11"><a xlink:href="../modules/version_mod.html" xlink:title="version_mod">
<polygon fill="gray" stroke="black" points="568,-521 480,-521 480,-485 568,-485 568,-521"/>
<text text-anchor="middle" x="524" y="-499.3" font-family="Times,serif" font-size="14.00">version_mod</text>
</a>
</g>
</g>
<!-- midas_thinning&#45;&gt;version_mod -->
<g id="edge10" class="edge">
<title>midas_thinning&#45;&gt;version_mod</title>
<path fill="none" stroke="black" d="M333.6,-640.09C391.25,-632.33 480.53,-616.81 504,-593 519.85,-576.92 524.25,-551.14 525.04,-531.45"/>
<polygon fill="black" stroke="black" points="528.54,-531.29 525.15,-521.25 521.54,-531.21 528.54,-531.29"/>
</g>
</g>
</svg>
