<?xml version="1.0" encoding="UTF-8" standalone="no"?>
<!DOCTYPE svg PUBLIC "-//W3C//DTD SVG 1.1//EN"
 "http://www.w3.org/Graphics/SVG/1.1/DTD/svg11.dtd">
<!-- Generated by graphviz version 3.0.0 (20220315.2325)
 -->
<!-- Title: midas_sstTrial Pages: 1 -->
<svg width="597pt" height="673pt"
 viewBox="0.00 0.00 596.50 673.00" xmlns="http://www.w3.org/2000/svg" xmlns:xlink="http://www.w3.org/1999/xlink">
<g id="graph0" class="graph" transform="scale(1 1) rotate(0) translate(4 669)">
<title>midas_sstTrial</title>
<polygon fill="white" stroke="transparent" points="-4,4 -4,-669 592.5,-669 592.5,4 -4,4"/>
<text text-anchor="middle" x="294.25" y="-37.8" font-family="Times,serif" font-size="14.00">Red boxes indicate modules with dependencies not shown</text>
<text text-anchor="middle" x="294.25" y="-22.8" font-family="Times,serif" font-size="14.00">Lower level dependencies can be shown by clicking on a red box</text>
<text text-anchor="middle" x="294.25" y="-7.8" font-family="Times,serif" font-size="14.00">Shaded boxes indicate modules with no dependencies</text>
<!-- midas_sstTrial -->
<g id="node1" class="node">
<title>midas_sstTrial</title>
<g id="a_node1"><a xlink:href="midas_sstTrial.html" xlink:title="midas_sstTrial">
<polygon fill="none" stroke="black" points="353.5,-665 256.5,-665 256.5,-629 353.5,-629 353.5,-665"/>
<text text-anchor="middle" x="305" y="-643.3" font-family="Times,serif" font-size="14.00">midas_sstTrial</text>
</a>
</g>
</g>
<!-- gridStateVector_mod -->
<g id="node2" class="node">
<title>gridStateVector_mod</title>
<g id="a_node2"><a xlink:href="../modules/gridStateVector_mod.html" xlink:title="gridStateVector_mod">
<polygon fill="gray" stroke="black" points="134,-593 0,-593 0,-557 134,-557 134,-593"/>
<text text-anchor="middle" x="67" y="-571.3" font-family="Times,serif" font-size="14.00">gridStateVector_mod</text>
</a>
</g>
</g>
<!-- midas_sstTrial&#45;&gt;gridStateVector_mod -->
<g id="edge1" class="edge">
<title>midas_sstTrial&#45;&gt;gridStateVector_mod</title>
<path fill="none" stroke="black" d="M256.26,-631.67C221.16,-621.34 173.35,-607.28 134.56,-595.87"/>
<polygon fill="black" stroke="black" points="135.49,-592.5 124.91,-593.03 133.51,-599.21 135.49,-592.5"/>
</g>
<!-- horizontalCoord_mod -->
<g id="node3" class="node">
<title>horizontalCoord_mod</title>
<g id="a_node3"><a xlink:href="../modules/horizontalCoord_mod.html" xlink:title="horizontalCoord_mod">
<polygon fill="gray" stroke="black" points="200.5,-521 63.5,-521 63.5,-485 200.5,-485 200.5,-521"/>
<text text-anchor="middle" x="132" y="-499.3" font-family="Times,serif" font-size="14.00">horizontalCoord_mod</text>
</a>
</g>
</g>
<!-- midas_sstTrial&#45;&gt;horizontalCoord_mod -->
<g id="edge2" class="edge">
<title>midas_sstTrial&#45;&gt;horizontalCoord_mod</title>
<path fill="none" stroke="black" d="M270.59,-628.78C253.15,-619.32 232.11,-606.73 215,-593 191.17,-573.88 167.78,-547.96 151.94,-529.03"/>
<polygon fill="black" stroke="black" points="154.48,-526.62 145.42,-521.13 149.08,-531.07 154.48,-526.62"/>
</g>
<!-- midasMpi_mod -->
<g id="node4" class="node">
<title>midasMpi_mod</title>
<g id="a_node4"><a xlink:href="../modules/midasMpi_mod.html" xlink:title="midasMpi_mod">
<polygon fill="gray" stroke="black" points="239,-449 135,-449 135,-413 239,-413 239,-449"/>
<text text-anchor="middle" x="187" y="-427.3" font-family="Times,serif" font-size="14.00">midasMpi_mod</text>
</a>
</g>
</g>
<!-- midas_sstTrial&#45;&gt;midasMpi_mod -->
<g id="edge3" class="edge">
<title>midas_sstTrial&#45;&gt;midasMpi_mod</title>
<path fill="none" stroke="black" d="M284.78,-628.91C274.25,-619.21 261.78,-606.36 253,-593 224.54,-549.68 228.71,-532.94 209,-485 205.46,-476.39 201.57,-467.01 198.06,-458.56"/>
<polygon fill="black" stroke="black" points="201.23,-457.06 194.16,-449.17 194.77,-459.75 201.23,-457.06"/>
</g>
<!-- oceanBackground_mod -->
<g id="node5" class="node">
<title>oceanBackground_mod</title>
<g id="a_node5"><a xlink:href="../modules/oceanBackground_mod.html" xlink:title="oceanBackground_mod">
<polygon fill="gray" stroke="black" points="277,-377 131,-377 131,-341 277,-341 277,-377"/>
<text text-anchor="middle" x="204" y="-355.3" font-family="Times,serif" font-size="14.00">oceanBackground_mod</text>
</a>
</g>
</g>
<!-- midas_sstTrial&#45;&gt;oceanBackground_mod -->
<g id="edge4" class="edge">
<title>midas_sstTrial&#45;&gt;oceanBackground_mod</title>
<path fill="none" stroke="black" d="M300.36,-628.84C297.58,-618.48 294.02,-605 291,-593 270.94,-513.23 284.79,-486.57 248,-413 242.97,-402.95 235.71,-393.14 228.53,-384.74"/>
<polygon fill="black" stroke="black" points="231.02,-382.28 221.74,-377.16 225.81,-386.95 231.02,-382.28"/>
</g>
<!-- ramDisk_mod -->
<g id="node6" class="node">
<title>ramDisk_mod</title>
<g id="a_node6"><a xlink:href="../modules/ramDisk_mod.html" xlink:title="ramDisk_mod">
<polygon fill="gray" stroke="black" points="314.5,-305 219.5,-305 219.5,-269 314.5,-269 314.5,-305"/>
<text text-anchor="middle" x="267" y="-283.3" font-family="Times,serif" font-size="14.00">ramDisk_mod</text>
</a>
</g>
</g>
<!-- midas_sstTrial&#45;&gt;ramDisk_mod -->
<g id="edge5" class="edge">
<title>midas_sstTrial&#45;&gt;ramDisk_mod</title>
<path fill="none" stroke="black" d="M305,-628.95C305,-602.29 305,-549.11 305,-504 305,-504 305,-504 305,-430 305,-388.63 289.77,-342.72 278.59,-314.61"/>
<polygon fill="black" stroke="black" points="281.72,-313.02 274.69,-305.09 275.24,-315.67 281.72,-313.02"/>
</g>
<!-- timeCoord_mod -->
<g id="node7" class="node">
<title>timeCoord_mod</title>
<g id="a_node7"><a xlink:href="../modules/timeCoord_mod.html" xlink:title="timeCoord_mod">
<polygon fill="gray" stroke="black" points="352.5,-233 245.5,-233 245.5,-197 352.5,-197 352.5,-233"/>
<text text-anchor="middle" x="299" y="-211.3" font-family="Times,serif" font-size="14.00">timeCoord_mod</text>
</a>
</g>
</g>
<!-- midas_sstTrial&#45;&gt;timeCoord_mod -->
<g id="edge6" class="edge">
<title>midas_sstTrial&#45;&gt;timeCoord_mod</title>
<path fill="none" stroke="black" d="M312.69,-628.91C323.79,-602.62 343,-550.45 343,-504 343,-504 343,-504 343,-358 343,-316.21 325.4,-270.48 312.46,-242.51"/>
<polygon fill="black" stroke="black" points="315.58,-240.92 308.12,-233.39 309.26,-243.93 315.58,-240.92"/>
</g>
<!-- utilities_mod -->
<g id="node8" class="node">
<title>utilities_mod</title>
<g id="a_node8"><a xlink:href="../modules/utilities_mod.svg" xlink:title="utilities_mod">
<polygon fill="none" stroke="red" points="408.5,-161 319.5,-161 319.5,-125 408.5,-125 408.5,-161"/>
<text text-anchor="middle" x="364" y="-139.3" font-family="Times,serif" font-size="14.00">utilities_mod</text>
</a>
</g>
</g>
<!-- midas_sstTrial&#45;&gt;utilities_mod -->
<g id="edge7" class="edge">
<title>midas_sstTrial&#45;&gt;utilities_mod</title>
<path fill="none" stroke="black" d="M321.49,-628.77C343.84,-603.53 381,-554.05 381,-504 381,-504 381,-504 381,-286 381,-245.93 374.24,-199.95 369.25,-171.43"/>
<polygon fill="black" stroke="black" points="372.66,-170.63 367.44,-161.41 365.77,-171.87 372.66,-170.63"/>
</g>
<!-- version_mod -->
<g id="node9" class="node">
<title>version_mod</title>
<g id="a_node9"><a xlink:href="../modules/version_mod.html" xlink:title="version_mod">
<polygon fill="gray" stroke="black" points="481,-89 393,-89 393,-53 481,-53 481,-89"/>
<text text-anchor="middle" x="437" y="-67.3" font-family="Times,serif" font-size="14.00">version_mod</text>
</a>
</g>
</g>
<!-- midas_sstTrial&#45;&gt;version_mod -->
<g id="edge8" class="edge">
<title>midas_sstTrial&#45;&gt;version_mod</title>
<path fill="none" stroke="black" d="M338.31,-628.87C377.41,-606.09 437,-561.89 437,-504 437,-504 437,-504 437,-214 437,-174 437,-127.65 437,-99.08"/>
<polygon fill="black" stroke="black" points="440.5,-99.05 437,-89.05 433.5,-99.05 440.5,-99.05"/>
</g>
<!-- verticalCoord_mod -->
<g id="node10" class="node">
<title>verticalCoord_mod</title>
<g id="a_node10"><a xlink:href="../modules/verticalCoord_mod.html" xlink:title="verticalCoord_mod">
<polygon fill="gray" stroke="black" points="588.5,-593 465.5,-593 465.5,-557 588.5,-557 588.5,-593"/>
<text text-anchor="middle" x="527" y="-571.3" font-family="Times,serif" font-size="14.00">verticalCoord_mod</text>
</a>
</g>
</g>
<!-- midas_sstTrial&#45;&gt;verticalCoord_mod -->
<g id="edge9" class="edge">
<title>midas_sstTrial&#45;&gt;verticalCoord_mod</title>
<path fill="none" stroke="black" d="M353.72,-630.64C385.92,-620.49 428.46,-607.07 463.33,-596.08"/>
<polygon fill="black" stroke="black" points="464.46,-599.39 472.95,-593.04 462.36,-592.71 464.46,-599.39"/>
</g>
</g>
</svg>
