<?xml version="1.0" encoding="UTF-8" standalone="no"?>
<!DOCTYPE svg PUBLIC "-//W3C//DTD SVG 1.1//EN"
 "http://www.w3.org/Graphics/SVG/1.1/DTD/svg11.dtd">
<!-- Generated by graphviz version 3.0.0 (20220315.2325)
 -->
<!-- Title: midas_prepcma Pages: 1 -->
<svg width="779pt" height="673pt"
 viewBox="0.00 0.00 778.50 673.00" xmlns="http://www.w3.org/2000/svg" xmlns:xlink="http://www.w3.org/1999/xlink">
<g id="graph0" class="graph" transform="scale(1 1) rotate(0) translate(4 669)">
<title>midas_prepcma</title>
<polygon fill="white" stroke="transparent" points="-4,4 -4,-669 774.5,-669 774.5,4 -4,4"/>
<text text-anchor="middle" x="385.25" y="-37.8" font-family="Times,serif" font-size="14.00">Red boxes indicate modules with dependencies not shown</text>
<text text-anchor="middle" x="385.25" y="-22.8" font-family="Times,serif" font-size="14.00">Lower level dependencies can be shown by clicking on a red box</text>
<text text-anchor="middle" x="385.25" y="-7.8" font-family="Times,serif" font-size="14.00">Shaded boxes indicate modules with no dependencies</text>
<!-- midas_prepcma -->
<g id="node1" class="node">
<title>midas_prepcma</title>
<g id="a_node1"><a xlink:href="midas_prepcma.html" xlink:title="midas_prepcma">
<polygon fill="none" stroke="black" points="403.5,-665 299.5,-665 299.5,-629 403.5,-629 403.5,-665"/>
<text text-anchor="middle" x="351.5" y="-643.3" font-family="Times,serif" font-size="14.00">midas_prepcma</text>
</a>
</g>
</g>
<!-- burpRead_mod -->
<g id="node2" class="node">
<title>burpRead_mod</title>
<g id="a_node2"><a xlink:href="../modules/burpRead_mod.html" xlink:title="burpRead_mod">
<polygon fill="gray" stroke="black" points="101,-593 0,-593 0,-557 101,-557 101,-593"/>
<text text-anchor="middle" x="50.5" y="-571.3" font-family="Times,serif" font-size="14.00">burpRead_mod</text>
</a>
</g>
</g>
<!-- midas_prepcma&#45;&gt;burpRead_mod -->
<g id="edge1" class="edge">
<title>midas_prepcma&#45;&gt;burpRead_mod</title>
<path fill="none" stroke="black" d="M299.35,-634.84C251.45,-624.45 178.54,-608.32 115.5,-593 114.05,-592.65 112.58,-592.29 111.1,-591.92"/>
<polygon fill="black" stroke="black" points="111.75,-588.48 101.2,-589.44 110.05,-595.27 111.75,-588.48"/>
</g>
<!-- enkf_mod -->
<g id="node3" class="node">
<title>enkf_mod</title>
<g id="a_node3"><a xlink:href="../modules/enkf_mod.svg" xlink:title="enkf_mod">
<polygon fill="none" stroke="red" points="152,-521 79,-521 79,-485 152,-485 152,-521"/>
<text text-anchor="middle" x="115.5" y="-499.3" font-family="Times,serif" font-size="14.00">enkf_mod</text>
</a>
</g>
</g>
<!-- midas_prepcma&#45;&gt;enkf_mod -->
<g id="edge2" class="edge">
<title>midas_prepcma&#45;&gt;enkf_mod</title>
<path fill="none" stroke="black" d="M299.24,-641.66C259.29,-636.01 204.76,-622.99 166.5,-593 146.12,-577.02 132.43,-550.48 124.42,-530.53"/>
<polygon fill="black" stroke="black" points="127.65,-529.17 120.83,-521.06 121.1,-531.65 127.65,-529.17"/>
</g>
<!-- midasMpi_mod -->
<g id="node4" class="node">
<title>midasMpi_mod</title>
<g id="a_node4"><a xlink:href="../modules/midasMpi_mod.html" xlink:title="midasMpi_mod">
<polygon fill="gray" stroke="black" points="190.5,-449 86.5,-449 86.5,-413 190.5,-413 190.5,-449"/>
<text text-anchor="middle" x="138.5" y="-427.3" font-family="Times,serif" font-size="14.00">midasMpi_mod</text>
</a>
</g>
</g>
<!-- midas_prepcma&#45;&gt;midasMpi_mod -->
<g id="edge3" class="edge">
<title>midas_prepcma&#45;&gt;midasMpi_mod</title>
<path fill="none" stroke="black" d="M299.27,-638.12C268.32,-631.01 230.24,-617.71 204.5,-593 167.11,-557.11 180.21,-532.94 160.5,-485 156.96,-476.39 153.07,-467.01 149.56,-458.56"/>
<polygon fill="black" stroke="black" points="152.73,-457.06 145.66,-449.17 146.27,-459.75 152.73,-457.06"/>
</g>
<!-- obsErrors_mod -->
<g id="node5" class="node">
<title>obsErrors_mod</title>
<g id="a_node5"><a xlink:href="../modules/obsErrors_mod.html" xlink:title="obsErrors_mod">
<polygon fill="gray" stroke="black" points="228,-377 127,-377 127,-341 228,-341 228,-377"/>
<text text-anchor="middle" x="177.5" y="-355.3" font-family="Times,serif" font-size="14.00">obsErrors_mod</text>
</a>
</g>
</g>
<!-- midas_prepcma&#45;&gt;obsErrors_mod -->
<g id="edge4" class="edge">
<title>midas_prepcma&#45;&gt;obsErrors_mod</title>
<path fill="none" stroke="black" d="M299.44,-631.45C278.95,-623.26 256.92,-610.97 242.5,-593 191.01,-528.86 224.9,-491.23 199.5,-413 196.67,-404.28 193.03,-394.99 189.53,-386.65"/>
<polygon fill="black" stroke="black" points="192.72,-385.2 185.55,-377.4 186.29,-387.97 192.72,-385.2"/>
</g>
<!-- obsFiles_mod -->
<g id="node6" class="node">
<title>obsFiles_mod</title>
<g id="a_node6"><a xlink:href="../modules/obsFiles_mod.html" xlink:title="obsFiles_mod">
<polygon fill="gray" stroke="black" points="266,-305 173,-305 173,-269 266,-269 266,-305"/>
<text text-anchor="middle" x="219.5" y="-283.3" font-family="Times,serif" font-size="14.00">obsFiles_mod</text>
</a>
</g>
</g>
<!-- midas_prepcma&#45;&gt;obsFiles_mod -->
<g id="edge5" class="edge">
<title>midas_prepcma&#45;&gt;obsFiles_mod</title>
<path fill="none" stroke="black" d="M319.65,-628.8C305.77,-619.82 290.44,-607.63 280.5,-593 257.49,-559.11 256.5,-544.97 256.5,-504 256.5,-504 256.5,-504 256.5,-430 256.5,-388.71 241.67,-342.77 230.78,-314.63"/>
<polygon fill="black" stroke="black" points="233.94,-313.11 226.99,-305.11 227.44,-315.7 233.94,-313.11"/>
</g>
<!-- obsFilter_mod -->
<g id="node7" class="node">
<title>obsFilter_mod</title>
<g id="a_node7"><a xlink:href="../modules/obsFilter_mod.html" xlink:title="obsFilter_mod">
<polygon fill="gray" stroke="black" points="304.5,-233 208.5,-233 208.5,-197 304.5,-197 304.5,-233"/>
<text text-anchor="middle" x="256.5" y="-211.3" font-family="Times,serif" font-size="14.00">obsFilter_mod</text>
</a>
</g>
</g>
<!-- midas_prepcma&#45;&gt;obsFilter_mod -->
<g id="edge6" class="edge">
<title>midas_prepcma&#45;&gt;obsFilter_mod</title>
<path fill="none" stroke="black" d="M338.83,-628.57C332.03,-618.56 323.95,-605.52 318.5,-593 302.16,-555.43 294.5,-544.97 294.5,-504 294.5,-504 294.5,-504 294.5,-358 294.5,-316.63 279.27,-270.72 268.09,-242.61"/>
<polygon fill="black" stroke="black" points="271.22,-241.02 264.19,-233.09 264.74,-243.67 271.22,-241.02"/>
</g>
<!-- obsSpaceData_mod -->
<g id="node8" class="node">
<title>obsSpaceData_mod</title>
<g id="a_node8"><a xlink:href="../modules/obsSpaceData_mod.html" xlink:title="obsSpaceData_mod">
<polygon fill="gray" stroke="black" points="342,-161 217,-161 217,-125 342,-125 342,-161"/>
<text text-anchor="middle" x="279.5" y="-139.3" font-family="Times,serif" font-size="14.00">obsSpaceData_mod</text>
</a>
</g>
</g>
<!-- midas_prepcma&#45;&gt;obsSpaceData_mod -->
<g id="edge7" class="edge">
<title>midas_prepcma&#45;&gt;obsSpaceData_mod</title>
<path fill="none" stroke="black" d="M347.66,-628.61C342.1,-601.94 332.5,-549.27 332.5,-504 332.5,-504 332.5,-504 332.5,-286 332.5,-245.55 328.89,-234.4 313.5,-197 309.61,-187.55 304.02,-177.93 298.5,-169.52"/>
<polygon fill="black" stroke="black" points="301.38,-167.54 292.84,-161.27 295.61,-171.49 301.38,-167.54"/>
</g>
<!-- obsTimeInterp_mod -->
<g id="node9" class="node">
<title>obsTimeInterp_mod</title>
<g id="a_node9"><a xlink:href="../modules/obsTimeInterp_mod.html" xlink:title="obsTimeInterp_mod">
<polygon fill="gray" stroke="black" points="435,-89 306,-89 306,-53 435,-53 435,-89"/>
<text text-anchor="middle" x="370.5" y="-67.3" font-family="Times,serif" font-size="14.00">obsTimeInterp_mod</text>
</a>
</g>
</g>
<!-- midas_prepcma&#45;&gt;obsTimeInterp_mod -->
<g id="edge8" class="edge">
<title>midas_prepcma&#45;&gt;obsTimeInterp_mod</title>
<path fill="none" stroke="black" d="M355.34,-628.61C360.9,-601.94 370.5,-549.27 370.5,-504 370.5,-504 370.5,-504 370.5,-214 370.5,-174 370.5,-127.65 370.5,-99.08"/>
<polygon fill="black" stroke="black" points="374,-99.05 370.5,-89.05 367,-99.05 374,-99.05"/>
</g>
<!-- ramDisk_mod -->
<g id="node10" class="node">
<title>ramDisk_mod</title>
<g id="a_node10"><a xlink:href="../modules/ramDisk_mod.html" xlink:title="ramDisk_mod">
<polygon fill="gray" stroke="black" points="494,-593 399,-593 399,-557 494,-557 494,-593"/>
<text text-anchor="middle" x="446.5" y="-571.3" font-family="Times,serif" font-size="14.00">ramDisk_mod</text>
</a>
</g>
</g>
<!-- midas_prepcma&#45;&gt;ramDisk_mod -->
<g id="edge9" class="edge">
<title>midas_prepcma&#45;&gt;ramDisk_mod</title>
<path fill="none" stroke="black" d="M374.98,-628.7C387.06,-619.8 401.95,-608.82 415.02,-599.2"/>
<polygon fill="black" stroke="black" points="417.31,-601.85 423.29,-593.1 413.16,-596.22 417.31,-601.85"/>
</g>
<!-- regions_mod -->
<g id="node11" class="node">
<title>regions_mod</title>
<g id="a_node11"><a xlink:href="../modules/regions_mod.svg" xlink:title="regions_mod">
<polygon fill="none" stroke="red" points="532.5,-521 444.5,-521 444.5,-485 532.5,-485 532.5,-521"/>
<text text-anchor="middle" x="488.5" y="-499.3" font-family="Times,serif" font-size="14.00">regions_mod</text>
</a>
</g>
</g>
<!-- midas_prepcma&#45;&gt;regions_mod -->
<g id="edge10" class="edge">
<title>midas_prepcma&#45;&gt;regions_mod</title>
<path fill="none" stroke="black" d="M403.67,-642.59C437.88,-637.33 480.25,-624.39 502.5,-593 515.36,-574.85 509.61,-549.4 501.96,-530.36"/>
<polygon fill="black" stroke="black" points="505.1,-528.81 497.88,-521.06 498.7,-531.63 505.1,-528.81"/>
</g>
<!-- timeCoord_mod -->
<g id="node12" class="node">
<title>timeCoord_mod</title>
<g id="a_node12"><a xlink:href="../modules/timeCoord_mod.html" xlink:title="timeCoord_mod">
<polygon fill="gray" stroke="black" points="570,-449 463,-449 463,-413 570,-413 570,-449"/>
<text text-anchor="middle" x="516.5" y="-427.3" font-family="Times,serif" font-size="14.00">timeCoord_mod</text>
</a>
</g>
</g>
<!-- midas_prepcma&#45;&gt;timeCoord_mod -->
<g id="edge11" class="edge">
<title>midas_prepcma&#45;&gt;timeCoord_mod</title>
<path fill="none" stroke="black" d="M403.62,-642.44C440.94,-637.17 489.83,-624.29 520.5,-593 554.73,-558.08 552.19,-532.72 541.5,-485 539.49,-476.01 535.77,-466.75 531.8,-458.53"/>
<polygon fill="black" stroke="black" points="534.82,-456.73 527.13,-449.44 528.59,-459.94 534.82,-456.73"/>
</g>
<!-- tovsNL_mod -->
<g id="node13" class="node">
<title>tovsNL_mod</title>
<g id="a_node13"><a xlink:href="../modules/tovsNL_mod.html" xlink:title="tovsNL_mod">
<polygon fill="gray" stroke="black" points="625,-377 536,-377 536,-341 625,-341 625,-377"/>
<text text-anchor="middle" x="580.5" y="-355.3" font-family="Times,serif" font-size="14.00">tovsNL_mod</text>
</a>
</g>
</g>
<!-- midas_prepcma&#45;&gt;tovsNL_mod -->
<g id="edge12" class="edge">
<title>midas_prepcma&#45;&gt;tovsNL_mod</title>
<path fill="none" stroke="black" d="M403.67,-645.97C447.84,-643.03 509.68,-631.58 546.5,-593 600.16,-536.77 592.87,-435.55 585.56,-387.18"/>
<polygon fill="black" stroke="black" points="588.99,-386.46 583.93,-377.15 582.08,-387.58 588.99,-386.46"/>
</g>
<!-- utilities_mod -->
<g id="node14" class="node">
<title>utilities_mod</title>
<g id="a_node14"><a xlink:href="../modules/utilities_mod.svg" xlink:title="utilities_mod">
<polygon fill="none" stroke="red" points="698,-305 609,-305 609,-269 698,-269 698,-305"/>
<text text-anchor="middle" x="653.5" y="-283.3" font-family="Times,serif" font-size="14.00">utilities_mod</text>
</a>
</g>
</g>
<!-- midas_prepcma&#45;&gt;utilities_mod -->
<g id="edge13" class="edge">
<title>midas_prepcma&#45;&gt;utilities_mod</title>
<path fill="none" stroke="black" d="M403.76,-644.34C490.2,-638.51 653.5,-613.07 653.5,-504 653.5,-504 653.5,-504 653.5,-430 653.5,-390 653.5,-343.65 653.5,-315.08"/>
<polygon fill="black" stroke="black" points="657,-315.05 653.5,-305.05 650,-315.05 657,-315.05"/>
</g>
<!-- version_mod -->
<g id="node15" class="node">
<title>version_mod</title>
<g id="a_node15"><a xlink:href="../modules/version_mod.html" xlink:title="version_mod">
<polygon fill="gray" stroke="black" points="770.5,-233 682.5,-233 682.5,-197 770.5,-197 770.5,-233"/>
<text text-anchor="middle" x="726.5" y="-211.3" font-family="Times,serif" font-size="14.00">version_mod</text>
</a>
</g>
</g>
<!-- midas_prepcma&#45;&gt;version_mod -->
<g id="edge14" class="edge">
<title>midas_prepcma&#45;&gt;version_mod</title>
<path fill="none" stroke="black" d="M403.71,-645.12C462.8,-642.17 560.45,-631.27 634.5,-593 685.04,-566.88 726.5,-560.89 726.5,-504 726.5,-504 726.5,-504 726.5,-358 726.5,-318 726.5,-271.65 726.5,-243.08"/>
<polygon fill="black" stroke="black" points="730,-243.05 726.5,-233.05 723,-243.05 730,-243.05"/>
</g>
</g>
</svg>
