<?xml version="1.0" encoding="UTF-8" standalone="no"?>
<!DOCTYPE svg PUBLIC "-//W3C//DTD SVG 1.1//EN"
 "http://www.w3.org/Graphics/SVG/1.1/DTD/svg11.dtd">
<!-- Generated by graphviz version 3.0.0 (20220315.2325)
 -->
<!-- Title: midas_calcStats Pages: 1 -->
<svg width="685pt" height="673pt"
 viewBox="0.00 0.00 684.50 673.00" xmlns="http://www.w3.org/2000/svg" xmlns:xlink="http://www.w3.org/1999/xlink">
<g id="graph0" class="graph" transform="scale(1 1) rotate(0) translate(4 669)">
<title>midas_calcStats</title>
<polygon fill="white" stroke="transparent" points="-4,4 -4,-669 680.5,-669 680.5,4 -4,4"/>
<text text-anchor="middle" x="338.25" y="-37.8" font-family="Times,serif" font-size="14.00">Red boxes indicate modules with dependencies not shown</text>
<text text-anchor="middle" x="338.25" y="-22.8" font-family="Times,serif" font-size="14.00">Lower level dependencies can be shown by clicking on a red box</text>
<text text-anchor="middle" x="338.25" y="-7.8" font-family="Times,serif" font-size="14.00">Shaded boxes indicate modules with no dependencies</text>
<!-- midas_calcStats -->
<g id="node1" class="node">
<title>midas_calcStats</title>
<g id="a_node1"><a xlink:href="midas_calcStats.html" xlink:title="midas_calcStats">
<polygon fill="none" stroke="black" points="373,-665 269,-665 269,-629 373,-629 373,-665"/>
<text text-anchor="middle" x="321" y="-643.3" font-family="Times,serif" font-size="14.00">midas_calcStats</text>
</a>
</g>
</g>
<!-- calcStatsGlb_mod -->
<g id="node2" class="node">
<title>calcStatsGlb_mod</title>
<g id="a_node2"><a xlink:href="../modules/calcStatsGlb_mod.html" xlink:title="calcStatsGlb_mod">
<polygon fill="gray" stroke="black" points="116,-593 0,-593 0,-557 116,-557 116,-593"/>
<text text-anchor="middle" x="58" y="-571.3" font-family="Times,serif" font-size="14.00">calcStatsGlb_mod</text>
</a>
</g>
</g>
<!-- midas_calcStats&#45;&gt;calcStatsGlb_mod -->
<g id="edge1" class="edge">
<title>midas_calcStats&#45;&gt;calcStatsGlb_mod</title>
<path fill="none" stroke="black" d="M268.73,-632.09C227.78,-621.19 170.5,-605.94 125.99,-594.1"/>
<polygon fill="black" stroke="black" points="126.69,-590.66 116.12,-591.47 124.89,-597.42 126.69,-590.66"/>
</g>
<!-- calcStatsLam_mod -->
<g id="node3" class="node">
<title>calcStatsLam_mod</title>
<g id="a_node3"><a xlink:href="../modules/calcStatsLam_mod.html" xlink:title="calcStatsLam_mod">
<polygon fill="gray" stroke="black" points="179,-521 57,-521 57,-485 179,-485 179,-521"/>
<text text-anchor="middle" x="118" y="-499.3" font-family="Times,serif" font-size="14.00">calcStatsLam_mod</text>
</a>
</g>
</g>
<!-- midas_calcStats&#45;&gt;calcStatsLam_mod -->
<g id="edge2" class="edge">
<title>midas_calcStats&#45;&gt;calcStatsLam_mod</title>
<path fill="none" stroke="black" d="M268.86,-630.79C244.4,-622.11 215.71,-609.61 193,-593 169.24,-575.62 148.23,-549.2 134.54,-529.65"/>
<polygon fill="black" stroke="black" points="137.31,-527.5 128.78,-521.21 131.53,-531.45 137.31,-527.5"/>
</g>
<!-- fileNames_mod -->
<g id="node4" class="node">
<title>fileNames_mod</title>
<g id="a_node4"><a xlink:href="../modules/fileNames_mod.html" xlink:title="fileNames_mod">
<polygon fill="gray" stroke="black" points="217,-449 113,-449 113,-413 217,-413 217,-449"/>
<text text-anchor="middle" x="165" y="-427.3" font-family="Times,serif" font-size="14.00">fileNames_mod</text>
</a>
</g>
</g>
<!-- midas_calcStats&#45;&gt;fileNames_mod -->
<g id="edge3" class="edge">
<title>midas_calcStats&#45;&gt;fileNames_mod</title>
<path fill="none" stroke="black" d="M279.7,-628.96C262.76,-620.27 244.1,-608.28 231,-593 197.37,-553.78 207.84,-532.7 188,-485 184.4,-476.35 180.36,-466.95 176.69,-458.5"/>
<polygon fill="black" stroke="black" points="179.8,-456.89 172.59,-449.13 173.39,-459.69 179.8,-456.89"/>
</g>
<!-- gridStateVector_mod -->
<g id="node5" class="node">
<title>gridStateVector_mod</title>
<g id="a_node5"><a xlink:href="../modules/gridStateVector_mod.html" xlink:title="gridStateVector_mod">
<polygon fill="gray" stroke="black" points="255,-377 121,-377 121,-341 255,-341 255,-377"/>
<text text-anchor="middle" x="188" y="-355.3" font-family="Times,serif" font-size="14.00">gridStateVector_mod</text>
</a>
</g>
</g>
<!-- midas_calcStats&#45;&gt;gridStateVector_mod -->
<g id="edge4" class="edge">
<title>midas_calcStats&#45;&gt;gridStateVector_mod</title>
<path fill="none" stroke="black" d="M299.43,-628.95C288.78,-619.44 276.61,-606.76 269,-593 229.19,-521.02 260.16,-487.82 226,-413 221.56,-403.27 215.22,-393.5 208.98,-385.04"/>
<polygon fill="black" stroke="black" points="211.73,-382.88 202.86,-377.08 206.18,-387.14 211.73,-382.88"/>
</g>
<!-- horizontalCoord_mod -->
<g id="node6" class="node">
<title>horizontalCoord_mod</title>
<g id="a_node6"><a xlink:href="../modules/horizontalCoord_mod.html" xlink:title="horizontalCoord_mod">
<polygon fill="gray" stroke="black" points="292.5,-305 155.5,-305 155.5,-269 292.5,-269 292.5,-305"/>
<text text-anchor="middle" x="224" y="-283.3" font-family="Times,serif" font-size="14.00">horizontalCoord_mod</text>
</a>
</g>
</g>
<!-- midas_calcStats&#45;&gt;horizontalCoord_mod -->
<g id="edge5" class="edge">
<title>midas_calcStats&#45;&gt;horizontalCoord_mod</title>
<path fill="none" stroke="black" d="M313.31,-628.91C302.21,-602.62 283,-550.45 283,-504 283,-504 283,-504 283,-430 283,-389.55 280.8,-377.79 264,-341 259.55,-331.25 253.05,-321.59 246.58,-313.24"/>
<polygon fill="black" stroke="black" points="249.22,-310.93 240.2,-305.37 243.78,-315.34 249.22,-310.93"/>
</g>
<!-- midasMpi_mod -->
<g id="node7" class="node">
<title>midasMpi_mod</title>
<g id="a_node7"><a xlink:href="../modules/midasMpi_mod.html" xlink:title="midasMpi_mod">
<polygon fill="gray" stroke="black" points="331,-233 227,-233 227,-197 331,-197 331,-233"/>
<text text-anchor="middle" x="279" y="-211.3" font-family="Times,serif" font-size="14.00">midasMpi_mod</text>
</a>
</g>
</g>
<!-- midas_calcStats&#45;&gt;midasMpi_mod -->
<g id="edge6" class="edge">
<title>midas_calcStats&#45;&gt;midasMpi_mod</title>
<path fill="none" stroke="black" d="M321,-628.95C321,-602.29 321,-549.11 321,-504 321,-504 321,-504 321,-358 321,-316.15 304.01,-270.1 291.65,-242.11"/>
<polygon fill="black" stroke="black" points="294.83,-240.66 287.5,-233.01 288.46,-243.56 294.83,-240.66"/>
</g>
<!-- ramDisk_mod -->
<g id="node8" class="node">
<title>ramDisk_mod</title>
<g id="a_node8"><a xlink:href="../modules/ramDisk_mod.html" xlink:title="ramDisk_mod">
<polygon fill="gray" stroke="black" points="368.5,-161 273.5,-161 273.5,-125 368.5,-125 368.5,-161"/>
<text text-anchor="middle" x="321" y="-139.3" font-family="Times,serif" font-size="14.00">ramDisk_mod</text>
</a>
</g>
</g>
<!-- midas_calcStats&#45;&gt;ramDisk_mod -->
<g id="edge7" class="edge">
<title>midas_calcStats&#45;&gt;ramDisk_mod</title>
<path fill="none" stroke="black" d="M328.69,-628.91C339.79,-602.62 359,-550.45 359,-504 359,-504 359,-504 359,-286 359,-244.63 343.77,-198.72 332.59,-170.61"/>
<polygon fill="black" stroke="black" points="335.72,-169.02 328.69,-161.09 329.24,-171.67 335.72,-169.02"/>
</g>
<!-- timeCoord_mod -->
<g id="node9" class="node">
<title>timeCoord_mod</title>
<g id="a_node9"><a xlink:href="../modules/timeCoord_mod.html" xlink:title="timeCoord_mod">
<polygon fill="gray" stroke="black" points="450.5,-89 343.5,-89 343.5,-53 450.5,-53 450.5,-89"/>
<text text-anchor="middle" x="397" y="-67.3" font-family="Times,serif" font-size="14.00">timeCoord_mod</text>
</a>
</g>
</g>
<!-- midas_calcStats&#45;&gt;timeCoord_mod -->
<g id="edge8" class="edge">
<title>midas_calcStats&#45;&gt;timeCoord_mod</title>
<path fill="none" stroke="black" d="M337.49,-628.77C359.84,-603.53 397,-554.05 397,-504 397,-504 397,-504 397,-214 397,-174 397,-127.65 397,-99.08"/>
<polygon fill="black" stroke="black" points="400.5,-99.05 397,-89.05 393.5,-99.05 400.5,-99.05"/>
</g>
<!-- utilities_mod -->
<g id="node10" class="node">
<title>utilities_mod</title>
<g id="a_node10"><a xlink:href="../modules/utilities_mod.svg" xlink:title="utilities_mod">
<polygon fill="none" stroke="red" points="514.5,-593 425.5,-593 425.5,-557 514.5,-557 514.5,-593"/>
<text text-anchor="middle" x="470" y="-571.3" font-family="Times,serif" font-size="14.00">utilities_mod</text>
</a>
</g>
</g>
<!-- midas_calcStats&#45;&gt;utilities_mod -->
<g id="edge9" class="edge">
<title>midas_calcStats&#45;&gt;utilities_mod</title>
<path fill="none" stroke="black" d="M357.45,-628.88C377.64,-619.39 402.92,-607.51 424.41,-597.42"/>
<polygon fill="black" stroke="black" points="426.11,-600.49 433.67,-593.07 423.13,-594.15 426.11,-600.49"/>
</g>
<!-- version_mod -->
<g id="node11" class="node">
<title>version_mod</title>
<g id="a_node11"><a xlink:href="../modules/version_mod.html" xlink:title="version_mod">
<polygon fill="gray" stroke="black" points="587,-521 499,-521 499,-485 587,-485 587,-521"/>
<text text-anchor="middle" x="543" y="-499.3" font-family="Times,serif" font-size="14.00">version_mod</text>
</a>
</g>
</g>
<!-- midas_calcStats&#45;&gt;version_mod -->
<g id="edge10" class="edge">
<title>midas_calcStats&#45;&gt;version_mod</title>
<path fill="none" stroke="black" d="M373.48,-638.52C426.2,-629.94 502.48,-614.26 523,-593 538.68,-576.75 543.1,-550.99 543.94,-531.36"/>
<polygon fill="black" stroke="black" points="547.44,-531.23 544.08,-521.18 540.44,-531.13 547.44,-531.23"/>
</g>
<!-- verticalCoord_mod -->
<g id="node12" class="node">
<title>verticalCoord_mod</title>
<g id="a_node12"><a xlink:href="../modules/verticalCoord_mod.html" xlink:title="verticalCoord_mod">
<polygon fill="gray" stroke="black" points="676.5,-449 553.5,-449 553.5,-413 676.5,-413 676.5,-449"/>
<text text-anchor="middle" x="615" y="-427.3" font-family="Times,serif" font-size="14.00">verticalCoord_mod</text>
</a>
</g>
</g>
<!-- midas_calcStats&#45;&gt;verticalCoord_mod -->
<g id="edge11" class="edge">
<title>midas_calcStats&#45;&gt;verticalCoord_mod</title>
<path fill="none" stroke="black" d="M373.02,-644.22C421.55,-640.28 494.08,-628.34 546,-593 590.73,-562.56 606.62,-496.65 612.14,-459.29"/>
<polygon fill="black" stroke="black" points="615.65,-459.5 613.5,-449.12 608.71,-458.57 615.65,-459.5"/>
</g>
</g>
</svg>
