<?xml version="1.0" encoding="UTF-8" standalone="no"?>
<!DOCTYPE svg PUBLIC "-//W3C//DTD SVG 1.1//EN"
 "http://www.w3.org/Graphics/SVG/1.1/DTD/svg11.dtd">
<!-- Generated by graphviz version 3.0.0 (20220315.2325)
 -->
<!-- Title: midas_genCoeff Pages: 1 -->
<svg width="993pt" height="673pt"
 viewBox="0.00 0.00 992.50 673.00" xmlns="http://www.w3.org/2000/svg" xmlns:xlink="http://www.w3.org/1999/xlink">
<g id="graph0" class="graph" transform="scale(1 1) rotate(0) translate(4 669)">
<title>midas_genCoeff</title>
<polygon fill="white" stroke="transparent" points="-4,4 -4,-669 988.5,-669 988.5,4 -4,4"/>
<text text-anchor="middle" x="492.25" y="-37.8" font-family="Times,serif" font-size="14.00">Red boxes indicate modules with dependencies not shown</text>
<text text-anchor="middle" x="492.25" y="-22.8" font-family="Times,serif" font-size="14.00">Lower level dependencies can be shown by clicking on a red box</text>
<text text-anchor="middle" x="492.25" y="-7.8" font-family="Times,serif" font-size="14.00">Shaded boxes indicate modules with no dependencies</text>
<!-- midas_genCoeff -->
<g id="node1" class="node">
<title>midas_genCoeff</title>
<g id="a_node1"><a xlink:href="midas_genCoeff.html" xlink:title="midas_genCoeff">
<polygon fill="none" stroke="black" points="561,-665 455,-665 455,-629 561,-629 561,-665"/>
<text text-anchor="middle" x="508" y="-643.3" font-family="Times,serif" font-size="14.00">midas_genCoeff</text>
</a>
</g>
</g>
<!-- biasCorrectionSat_mod -->
<g id="node2" class="node">
<title>biasCorrectionSat_mod</title>
<g id="a_node2"><a xlink:href="../modules/biasCorrectionSat_mod.html" xlink:title="biasCorrectionSat_mod">
<polygon fill="gray" stroke="black" points="146,-593 0,-593 0,-557 146,-557 146,-593"/>
<text text-anchor="middle" x="73" y="-571.3" font-family="Times,serif" font-size="14.00">biasCorrectionSat_mod</text>
</a>
</g>
</g>
<!-- midas_genCoeff&#45;&gt;biasCorrectionSat_mod -->
<g id="edge1" class="edge">
<title>midas_genCoeff&#45;&gt;biasCorrectionSat_mod</title>
<path fill="none" stroke="black" d="M454.83,-638.61C386.47,-628.94 264.17,-611.1 160,-593 158.72,-592.78 157.43,-592.55 156.13,-592.32"/>
<polygon fill="black" stroke="black" points="156.52,-588.84 146.06,-590.51 155.28,-595.72 156.52,-588.84"/>
</g>
<!-- codePrecision_mod -->
<g id="node3" class="node">
<title>codePrecision_mod</title>
<g id="a_node3"><a xlink:href="../modules/codePrecision_mod.html" xlink:title="codePrecision_mod">
<polygon fill="gray" stroke="black" points="210,-521 86,-521 86,-485 210,-485 210,-521"/>
<text text-anchor="middle" x="148" y="-499.3" font-family="Times,serif" font-size="14.00">codePrecision_mod</text>
</a>
</g>
</g>
<!-- midas_genCoeff&#45;&gt;codePrecision_mod -->
<g id="edge2" class="edge">
<title>midas_genCoeff&#45;&gt;codePrecision_mod</title>
<path fill="none" stroke="black" d="M454.91,-646.43C394.98,-644.68 296.4,-634.87 224,-593 197.8,-577.85 176.36,-550.2 163.01,-529.72"/>
<polygon fill="black" stroke="black" points="165.91,-527.77 157.62,-521.17 159.99,-531.5 165.91,-527.77"/>
</g>
<!-- columnData_mod -->
<g id="node4" class="node">
<title>columnData_mod</title>
<g id="a_node4"><a xlink:href="../modules/columnData_mod.html" xlink:title="columnData_mod">
<polygon fill="gray" stroke="black" points="247.5,-449 132.5,-449 132.5,-413 247.5,-413 247.5,-449"/>
<text text-anchor="middle" x="190" y="-427.3" font-family="Times,serif" font-size="14.00">columnData_mod</text>
</a>
</g>
</g>
<!-- midas_genCoeff&#45;&gt;columnData_mod -->
<g id="edge3" class="edge">
<title>midas_genCoeff&#45;&gt;columnData_mod</title>
<path fill="none" stroke="black" d="M454.91,-640.43C391.58,-632.8 290.65,-617.23 262,-593 222.55,-559.64 241,-531.75 219,-485 214.85,-476.17 209.88,-466.77 205.25,-458.36"/>
<polygon fill="black" stroke="black" points="208.16,-456.4 200.21,-449.39 202.05,-459.82 208.16,-456.4"/>
</g>
<!-- gridStateVectorFileIO_mod -->
<g id="node5" class="node">
<title>gridStateVectorFileIO_mod</title>
<g id="a_node5"><a xlink:href="../modules/gridStateVectorFileIO_mod.html" xlink:title="gridStateVectorFileIO_mod">
<polygon fill="gray" stroke="black" points="286,-377 116,-377 116,-341 286,-341 286,-377"/>
<text text-anchor="middle" x="201" y="-355.3" font-family="Times,serif" font-size="14.00">gridStateVectorFileIO_mod</text>
</a>
</g>
</g>
<!-- midas_genCoeff&#45;&gt;gridStateVectorFileIO_mod -->
<g id="edge4" class="edge">
<title>midas_genCoeff&#45;&gt;gridStateVectorFileIO_mod</title>
<path fill="none" stroke="black" d="M454.55,-638.72C400.33,-630.26 321.44,-614.65 300,-593 242.05,-534.48 297.05,-484.39 256,-413 249.75,-402.13 240.62,-392.06 231.58,-383.69"/>
<polygon fill="black" stroke="black" points="233.89,-381.06 224.08,-377.07 229.26,-386.31 233.89,-381.06"/>
</g>
<!-- gridStateVector_mod -->
<g id="node6" class="node">
<title>gridStateVector_mod</title>
<g id="a_node6"><a xlink:href="../modules/gridStateVector_mod.html" xlink:title="gridStateVector_mod">
<polygon fill="gray" stroke="black" points="324,-305 190,-305 190,-269 324,-269 324,-305"/>
<text text-anchor="middle" x="257" y="-283.3" font-family="Times,serif" font-size="14.00">gridStateVector_mod</text>
</a>
</g>
</g>
<!-- midas_genCoeff&#45;&gt;gridStateVector_mod -->
<g id="edge5" class="edge">
<title>midas_genCoeff&#45;&gt;gridStateVector_mod</title>
<path fill="none" stroke="black" d="M454.99,-642.65C417.41,-637.48 368.43,-624.64 338,-593 309.6,-563.47 314,-544.97 314,-504 314,-504 314,-504 314,-430 314,-389.55 311.35,-377.99 295,-341 290.67,-331.21 284.36,-321.43 278.12,-312.98"/>
<polygon fill="black" stroke="black" points="280.86,-310.8 271.98,-305.03 275.32,-315.08 280.86,-310.8"/>
</g>
<!-- horizontalCoord_mod -->
<g id="node7" class="node">
<title>horizontalCoord_mod</title>
<g id="a_node7"><a xlink:href="../modules/horizontalCoord_mod.html" xlink:title="horizontalCoord_mod">
<polygon fill="gray" stroke="black" points="361.5,-233 224.5,-233 224.5,-197 361.5,-197 361.5,-233"/>
<text text-anchor="middle" x="293" y="-211.3" font-family="Times,serif" font-size="14.00">horizontalCoord_mod</text>
</a>
</g>
</g>
<!-- midas_genCoeff&#45;&gt;horizontalCoord_mod -->
<g id="edge6" class="edge">
<title>midas_genCoeff&#45;&gt;horizontalCoord_mod</title>
<path fill="none" stroke="black" d="M454.8,-636.43C427.68,-628.94 396.25,-615.8 376,-593 348.8,-562.37 352,-544.97 352,-504 352,-504 352,-504 352,-358 352,-317.55 349.8,-305.79 333,-269 328.55,-259.25 322.05,-249.59 315.58,-241.24"/>
<polygon fill="black" stroke="black" points="318.22,-238.93 309.2,-233.37 312.78,-243.34 318.22,-238.93"/>
</g>
<!-- innovation_mod -->
<g id="node8" class="node">
<title>innovation_mod</title>
<g id="a_node8"><a xlink:href="../modules/innovation_mod.svg" xlink:title="innovation_mod">
<polygon fill="none" stroke="red" points="400,-161 294,-161 294,-125 400,-125 400,-161"/>
<text text-anchor="middle" x="347" y="-139.3" font-family="Times,serif" font-size="14.00">innovation_mod</text>
</a>
</g>
</g>
<!-- midas_genCoeff&#45;&gt;innovation_mod -->
<g id="edge7" class="edge">
<title>midas_genCoeff&#45;&gt;innovation_mod</title>
<path fill="none" stroke="black" d="M461.55,-628.89C444.39,-620.47 426.18,-608.68 414,-593 388.87,-560.65 390,-544.97 390,-504 390,-504 390,-504 390,-286 390,-244.29 372.8,-198.54 360.16,-170.54"/>
<polygon fill="black" stroke="black" points="363.3,-169.01 355.91,-161.42 356.95,-171.96 363.3,-169.01"/>
</g>
<!-- mathPhysConstants_mod -->
<g id="node9" class="node">
<title>mathPhysConstants_mod</title>
<g id="a_node9"><a xlink:href="../modules/mathPhysConstants_mod.html" xlink:title="mathPhysConstants_mod">
<polygon fill="gray" stroke="black" points="505.5,-89 350.5,-89 350.5,-53 505.5,-53 505.5,-89"/>
<text text-anchor="middle" x="428" y="-67.3" font-family="Times,serif" font-size="14.00">mathPhysConstants_mod</text>
</a>
</g>
</g>
<!-- midas_genCoeff&#45;&gt;mathPhysConstants_mod -->
<g id="edge8" class="edge">
<title>midas_genCoeff&#45;&gt;mathPhysConstants_mod</title>
<path fill="none" stroke="black" d="M481.26,-628.83C469.03,-619.63 455.41,-607.26 447,-593 426.45,-558.16 428,-544.45 428,-504 428,-504 428,-504 428,-214 428,-174 428,-127.65 428,-99.08"/>
<polygon fill="black" stroke="black" points="431.5,-99.05 428,-89.05 424.5,-99.05 431.5,-99.05"/>
</g>
<!-- midasMpi_mod -->
<g id="node10" class="node">
<title>midasMpi_mod</title>
<g id="a_node10"><a xlink:href="../modules/midasMpi_mod.html" xlink:title="midasMpi_mod">
<polygon fill="gray" stroke="black" points="560,-593 456,-593 456,-557 560,-557 560,-593"/>
<text text-anchor="middle" x="508" y="-571.3" font-family="Times,serif" font-size="14.00">midasMpi_mod</text>
</a>
</g>
</g>
<!-- midas_genCoeff&#45;&gt;midasMpi_mod -->
<g id="edge9" class="edge">
<title>midas_genCoeff&#45;&gt;midasMpi_mod</title>
<path fill="none" stroke="black" d="M508,-628.7C508,-620.98 508,-611.71 508,-603.11"/>
<polygon fill="black" stroke="black" points="511.5,-603.1 508,-593.1 504.5,-603.1 511.5,-603.1"/>
</g>
<!-- obsErrors_mod -->
<g id="node11" class="node">
<title>obsErrors_mod</title>
<g id="a_node11"><a xlink:href="../modules/obsErrors_mod.html" xlink:title="obsErrors_mod">
<polygon fill="gray" stroke="black" points="597.5,-521 496.5,-521 496.5,-485 597.5,-485 597.5,-521"/>
<text text-anchor="middle" x="547" y="-499.3" font-family="Times,serif" font-size="14.00">obsErrors_mod</text>
</a>
</g>
</g>
<!-- midas_genCoeff&#45;&gt;obsErrors_mod -->
<g id="edge10" class="edge">
<title>midas_genCoeff&#45;&gt;obsErrors_mod</title>
<path fill="none" stroke="black" d="M537.04,-628.84C549.32,-619.87 562.31,-607.68 569,-593 578.14,-572.96 570.97,-548.58 562.45,-530.41"/>
<polygon fill="black" stroke="black" points="565.33,-528.35 557.68,-521.02 559.09,-531.52 565.33,-528.35"/>
</g>
<!-- obsFiles_mod -->
<g id="node12" class="node">
<title>obsFiles_mod</title>
<g id="a_node12"><a xlink:href="../modules/obsFiles_mod.html" xlink:title="obsFiles_mod">
<polygon fill="gray" stroke="black" points="635.5,-449 542.5,-449 542.5,-413 635.5,-413 635.5,-449"/>
<text text-anchor="middle" x="589" y="-427.3" font-family="Times,serif" font-size="14.00">obsFiles_mod</text>
</a>
</g>
</g>
<!-- midas_genCoeff&#45;&gt;obsFiles_mod -->
<g id="edge11" class="edge">
<title>midas_genCoeff&#45;&gt;obsFiles_mod</title>
<path fill="none" stroke="black" d="M543.73,-628.93C558.75,-620.12 575.21,-608.03 586,-593 614.46,-553.34 613.55,-533.23 606,-485 604.64,-476.31 602.1,-467.1 599.39,-458.84"/>
<polygon fill="black" stroke="black" points="602.67,-457.62 596.07,-449.33 596.06,-459.93 602.67,-457.62"/>
</g>
<!-- obsSpaceData_mod -->
<g id="node13" class="node">
<title>obsSpaceData_mod</title>
<g id="a_node13"><a xlink:href="../modules/obsSpaceData_mod.html" xlink:title="obsSpaceData_mod">
<polygon fill="gray" stroke="black" points="673.5,-377 548.5,-377 548.5,-341 673.5,-341 673.5,-377"/>
<text text-anchor="middle" x="611" y="-355.3" font-family="Times,serif" font-size="14.00">obsSpaceData_mod</text>
</a>
</g>
</g>
<!-- midas_genCoeff&#45;&gt;obsSpaceData_mod -->
<g id="edge12" class="edge">
<title>midas_genCoeff&#45;&gt;obsSpaceData_mod</title>
<path fill="none" stroke="black" d="M560.75,-628.97C578.76,-620.73 597.49,-609.06 610,-593 660.03,-528.77 666.38,-491.28 644,-413 641.29,-403.51 636.33,-394.06 631.07,-385.83"/>
<polygon fill="black" stroke="black" points="633.86,-383.72 625.33,-377.43 628.08,-387.67 633.86,-383.72"/>
</g>
<!-- ramDisk_mod -->
<g id="node14" class="node">
<title>ramDisk_mod</title>
<g id="a_node14"><a xlink:href="../modules/ramDisk_mod.html" xlink:title="ramDisk_mod">
<polygon fill="gray" stroke="black" points="711.5,-305 616.5,-305 616.5,-269 711.5,-269 711.5,-305"/>
<text text-anchor="middle" x="664" y="-283.3" font-family="Times,serif" font-size="14.00">ramDisk_mod</text>
</a>
</g>
</g>
<!-- midas_genCoeff&#45;&gt;ramDisk_mod -->
<g id="edge13" class="edge">
<title>midas_genCoeff&#45;&gt;ramDisk_mod</title>
<path fill="none" stroke="black" d="M561.01,-632.06C618.45,-613.36 702,-574.12 702,-504 702,-504 702,-504 702,-430 702,-388.63 686.77,-342.72 675.59,-314.61"/>
<polygon fill="black" stroke="black" points="678.72,-313.02 671.69,-305.09 672.24,-315.67 678.72,-313.02"/>
</g>
<!-- timeCoord_mod -->
<g id="node15" class="node">
<title>timeCoord_mod</title>
<g id="a_node15"><a xlink:href="../modules/timeCoord_mod.html" xlink:title="timeCoord_mod">
<polygon fill="gray" stroke="black" points="749.5,-233 642.5,-233 642.5,-197 749.5,-197 749.5,-233"/>
<text text-anchor="middle" x="696" y="-211.3" font-family="Times,serif" font-size="14.00">timeCoord_mod</text>
</a>
</g>
</g>
<!-- midas_genCoeff&#45;&gt;timeCoord_mod -->
<g id="edge14" class="edge">
<title>midas_genCoeff&#45;&gt;timeCoord_mod</title>
<path fill="none" stroke="black" d="M561.23,-637.54C629.72,-623.27 740,-587.35 740,-504 740,-504 740,-504 740,-358 740,-316.21 722.4,-270.48 709.46,-242.51"/>
<polygon fill="black" stroke="black" points="712.58,-240.92 705.12,-233.39 706.26,-243.93 712.58,-240.92"/>
</g>
<!-- utilities_mod -->
<g id="node16" class="node">
<title>utilities_mod</title>
<g id="a_node16"><a xlink:href="../modules/utilities_mod.svg" xlink:title="utilities_mod">
<polygon fill="none" stroke="red" points="804.5,-161 715.5,-161 715.5,-125 804.5,-125 804.5,-161"/>
<text text-anchor="middle" x="760" y="-139.3" font-family="Times,serif" font-size="14.00">utilities_mod</text>
</a>
</g>
</g>
<!-- midas_genCoeff&#45;&gt;utilities_mod -->
<g id="edge15" class="edge">
<title>midas_genCoeff&#45;&gt;utilities_mod</title>
<path fill="none" stroke="black" d="M561.02,-641.63C639.65,-631.92 778,-601.05 778,-504 778,-504 778,-504 778,-286 778,-245.9 770.85,-199.92 765.56,-171.42"/>
<polygon fill="black" stroke="black" points="768.96,-170.56 763.64,-161.4 762.08,-171.88 768.96,-170.56"/>
</g>
<!-- version_mod -->
<g id="node17" class="node">
<title>version_mod</title>
<g id="a_node17"><a xlink:href="../modules/version_mod.html" xlink:title="version_mod">
<polygon fill="gray" stroke="black" points="877,-89 789,-89 789,-53 877,-53 877,-89"/>
<text text-anchor="middle" x="833" y="-67.3" font-family="Times,serif" font-size="14.00">version_mod</text>
</a>
</g>
</g>
<!-- midas_genCoeff&#45;&gt;version_mod -->
<g id="edge16" class="edge">
<title>midas_genCoeff&#45;&gt;version_mod</title>
<path fill="none" stroke="black" d="M561.3,-645.89C653.5,-642.6 833,-621.14 833,-504 833,-504 833,-504 833,-214 833,-174 833,-127.65 833,-99.08"/>
<polygon fill="black" stroke="black" points="836.5,-99.05 833,-89.05 829.5,-99.05 836.5,-99.05"/>
</g>
<!-- verticalCoord_mod -->
<g id="node18" class="node">
<title>verticalCoord_mod</title>
<g id="a_node18"><a xlink:href="../modules/verticalCoord_mod.html" xlink:title="verticalCoord_mod">
<polygon fill="gray" stroke="black" points="984.5,-593 861.5,-593 861.5,-557 984.5,-557 984.5,-593"/>
<text text-anchor="middle" x="923" y="-571.3" font-family="Times,serif" font-size="14.00">verticalCoord_mod</text>
</a>
</g>
</g>
<!-- midas_genCoeff&#45;&gt;verticalCoord_mod -->
<g id="edge17" class="edge">
<title>midas_genCoeff&#45;&gt;verticalCoord_mod</title>
<path fill="none" stroke="black" d="M561.03,-638.8C627.91,-629.46 746.34,-612.11 847,-593 848.45,-592.72 849.92,-592.44 851.4,-592.15"/>
<polygon fill="black" stroke="black" points="852.16,-595.57 861.27,-590.16 850.77,-588.71 852.16,-595.57"/>
</g>
</g>
</svg>
