<?xml version="1.0" encoding="UTF-8" standalone="no"?>
<!DOCTYPE svg PUBLIC "-//W3C//DTD SVG 1.1//EN"
 "http://www.w3.org/Graphics/SVG/1.1/DTD/svg11.dtd">
<!-- Generated by graphviz version 3.0.0 (20220315.2325)
 -->
<!-- Title: midas_extractBmatrixFor1Dvar Pages: 1 -->
<svg width="782pt" height="673pt"
 viewBox="0.00 0.00 782.00 673.00" xmlns="http://www.w3.org/2000/svg" xmlns:xlink="http://www.w3.org/1999/xlink">
<g id="graph0" class="graph" transform="scale(1 1) rotate(0) translate(4 669)">
<title>midas_extractBmatrixFor1Dvar</title>
<polygon fill="white" stroke="transparent" points="-4,4 -4,-669 778,-669 778,4 -4,4"/>
<text text-anchor="middle" x="387" y="-37.8" font-family="Times,serif" font-size="14.00">Red boxes indicate modules with dependencies not shown</text>
<text text-anchor="middle" x="387" y="-22.8" font-family="Times,serif" font-size="14.00">Lower level dependencies can be shown by clicking on a red box</text>
<text text-anchor="middle" x="387" y="-7.8" font-family="Times,serif" font-size="14.00">Shaded boxes indicate modules with no dependencies</text>
<!-- midas_extractBmatrixFor1Dvar -->
<g id="node1" class="node">
<title>midas_extractBmatrixFor1Dvar</title>
<g id="a_node1"><a xlink:href="midas_extractBmatrixFor1Dvar.html" xlink:title="midas_extractBmatrixFor1Dvar">
<polygon fill="none" stroke="black" points="433,-665 242,-665 242,-629 433,-629 433,-665"/>
<text text-anchor="middle" x="337.5" y="-643.3" font-family="Times,serif" font-size="14.00">midas_extractBmatrixFor1Dvar</text>
</a>
</g>
</g>
<!-- bMatrix_mod -->
<g id="node2" class="node">
<title>bMatrix_mod</title>
<g id="a_node2"><a xlink:href="../modules/bMatrix_mod.html" xlink:title="bMatrix_mod">
<polygon fill="gray" stroke="black" points="93,-593 0,-593 0,-557 93,-557 93,-593"/>
<text text-anchor="middle" x="46.5" y="-571.3" font-family="Times,serif" font-size="14.00">bMatrix_mod</text>
</a>
</g>
</g>
<!-- midas_extractBmatrixFor1Dvar&#45;&gt;bMatrix_mod -->
<g id="edge1" class="edge">
<title>midas_extractBmatrixFor1Dvar&#45;&gt;bMatrix_mod</title>
<path fill="none" stroke="black" d="M259.57,-628.96C214.93,-618.98 157.93,-605.83 107.5,-593 106.04,-592.63 104.55,-592.25 103.06,-591.86"/>
<polygon fill="black" stroke="black" points="103.63,-588.39 93.07,-589.21 101.84,-595.16 103.63,-588.39"/>
</g>
<!-- controlVector_mod -->
<g id="node3" class="node">
<title>controlVector_mod</title>
<g id="a_node3"><a xlink:href="../modules/controlVector_mod.html" xlink:title="controlVector_mod">
<polygon fill="gray" stroke="black" points="157.5,-521 35.5,-521 35.5,-485 157.5,-485 157.5,-521"/>
<text text-anchor="middle" x="96.5" y="-499.3" font-family="Times,serif" font-size="14.00">controlVector_mod</text>
</a>
</g>
</g>
<!-- midas_extractBmatrixFor1Dvar&#45;&gt;controlVector_mod -->
<g id="edge2" class="edge">
<title>midas_extractBmatrixFor1Dvar&#45;&gt;controlVector_mod</title>
<path fill="none" stroke="black" d="M253.16,-628.95C225.63,-620.88 195.89,-609.32 171.5,-593 146.89,-576.53 125.88,-549.75 112.41,-529.86"/>
<polygon fill="black" stroke="black" points="115.18,-527.71 106.77,-521.27 109.33,-531.55 115.18,-527.71"/>
</g>
<!-- gridStateVector_mod -->
<g id="node4" class="node">
<title>gridStateVector_mod</title>
<g id="a_node4"><a xlink:href="../modules/gridStateVector_mod.html" xlink:title="gridStateVector_mod">
<polygon fill="gray" stroke="black" points="195.5,-449 61.5,-449 61.5,-413 195.5,-413 195.5,-449"/>
<text text-anchor="middle" x="128.5" y="-427.3" font-family="Times,serif" font-size="14.00">gridStateVector_mod</text>
</a>
</g>
</g>
<!-- midas_extractBmatrixFor1Dvar&#45;&gt;gridStateVector_mod -->
<g id="edge3" class="edge">
<title>midas_extractBmatrixFor1Dvar&#45;&gt;gridStateVector_mod</title>
<path fill="none" stroke="black" d="M268.67,-628.91C247.54,-620.88 225.63,-609.35 209.5,-593 173.22,-556.22 191.29,-530.33 166.5,-485 161.37,-475.61 154.84,-465.93 148.66,-457.46"/>
<polygon fill="black" stroke="black" points="151.45,-455.34 142.65,-449.44 145.85,-459.54 151.45,-455.34"/>
</g>
<!-- gridVariableTransforms_mod -->
<g id="node5" class="node">
<title>gridVariableTransforms_mod</title>
<g id="a_node5"><a xlink:href="../modules/gridVariableTransforms_mod.html" xlink:title="gridVariableTransforms_mod">
<polygon fill="gray" stroke="black" points="233,-377 52,-377 52,-341 233,-341 233,-377"/>
<text text-anchor="middle" x="142.5" y="-355.3" font-family="Times,serif" font-size="14.00">gridVariableTransforms_mod</text>
</a>
</g>
</g>
<!-- midas_extractBmatrixFor1Dvar&#45;&gt;gridVariableTransforms_mod -->
<g id="edge4" class="edge">
<title>midas_extractBmatrixFor1Dvar&#45;&gt;gridVariableTransforms_mod</title>
<path fill="none" stroke="black" d="M293.25,-628.89C276.65,-620.42 259.03,-608.6 247.5,-593 198.61,-526.86 247.42,-483.16 204.5,-413 197.62,-401.75 187.54,-391.68 177.5,-383.41"/>
<polygon fill="black" stroke="black" points="179.56,-380.57 169.52,-377.17 175.25,-386.09 179.56,-380.57"/>
</g>
<!-- horizontalCoord_mod -->
<g id="node6" class="node">
<title>horizontalCoord_mod</title>
<g id="a_node6"><a xlink:href="../modules/horizontalCoord_mod.html" xlink:title="horizontalCoord_mod">
<polygon fill="gray" stroke="black" points="271,-305 134,-305 134,-269 271,-269 271,-305"/>
<text text-anchor="middle" x="202.5" y="-283.3" font-family="Times,serif" font-size="14.00">horizontalCoord_mod</text>
</a>
</g>
</g>
<!-- midas_extractBmatrixFor1Dvar&#45;&gt;horizontalCoord_mod -->
<g id="edge5" class="edge">
<title>midas_extractBmatrixFor1Dvar&#45;&gt;horizontalCoord_mod</title>
<path fill="none" stroke="black" d="M316.09,-628.86C305.49,-619.33 293.31,-606.65 285.5,-593 265.16,-557.44 261.5,-544.97 261.5,-504 261.5,-504 261.5,-504 261.5,-430 261.5,-389.46 258.32,-377.89 241.5,-341 237.09,-331.33 230.74,-321.69 224.44,-313.34"/>
<polygon fill="black" stroke="black" points="227.17,-311.15 218.23,-305.46 221.67,-315.48 227.17,-311.15"/>
</g>
<!-- mathPhysConstants_mod -->
<g id="node7" class="node">
<title>mathPhysConstants_mod</title>
<g id="a_node7"><a xlink:href="../modules/mathPhysConstants_mod.html" xlink:title="mathPhysConstants_mod">
<polygon fill="gray" stroke="black" points="309,-233 154,-233 154,-197 309,-197 309,-233"/>
<text text-anchor="middle" x="231.5" y="-211.3" font-family="Times,serif" font-size="14.00">mathPhysConstants_mod</text>
</a>
</g>
</g>
<!-- midas_extractBmatrixFor1Dvar&#45;&gt;mathPhysConstants_mod -->
<g id="edge6" class="edge">
<title>midas_extractBmatrixFor1Dvar&#45;&gt;mathPhysConstants_mod</title>
<path fill="none" stroke="black" d="M329.81,-628.91C318.71,-602.62 299.5,-550.45 299.5,-504 299.5,-504 299.5,-504 299.5,-358 299.5,-317.46 298.17,-304.99 279.5,-269 274.16,-258.71 266.33,-248.87 258.53,-240.52"/>
<polygon fill="black" stroke="black" points="260.96,-238 251.45,-233.31 255.96,-242.9 260.96,-238"/>
</g>
<!-- midasMpi_mod -->
<g id="node8" class="node">
<title>midasMpi_mod</title>
<g id="a_node8"><a xlink:href="../modules/midasMpi_mod.html" xlink:title="midasMpi_mod">
<polygon fill="gray" stroke="black" points="347.5,-161 243.5,-161 243.5,-125 347.5,-125 347.5,-161"/>
<text text-anchor="middle" x="295.5" y="-139.3" font-family="Times,serif" font-size="14.00">midasMpi_mod</text>
</a>
</g>
</g>
<!-- midas_extractBmatrixFor1Dvar&#45;&gt;midasMpi_mod -->
<g id="edge7" class="edge">
<title>midas_extractBmatrixFor1Dvar&#45;&gt;midasMpi_mod</title>
<path fill="none" stroke="black" d="M337.5,-628.95C337.5,-602.29 337.5,-549.11 337.5,-504 337.5,-504 337.5,-504 337.5,-286 337.5,-244.15 320.51,-198.1 308.15,-170.11"/>
<polygon fill="black" stroke="black" points="311.33,-168.66 304,-161.01 304.96,-171.56 311.33,-168.66"/>
</g>
<!-- ramDisk_mod -->
<g id="node9" class="node">
<title>ramDisk_mod</title>
<g id="a_node9"><a xlink:href="../modules/ramDisk_mod.html" xlink:title="ramDisk_mod">
<polygon fill="gray" stroke="black" points="423,-89 328,-89 328,-53 423,-53 423,-89"/>
<text text-anchor="middle" x="375.5" y="-67.3" font-family="Times,serif" font-size="14.00">ramDisk_mod</text>
</a>
</g>
</g>
<!-- midas_extractBmatrixFor1Dvar&#45;&gt;ramDisk_mod -->
<g id="edge8" class="edge">
<title>midas_extractBmatrixFor1Dvar&#45;&gt;ramDisk_mod</title>
<path fill="none" stroke="black" d="M345.19,-628.91C356.29,-602.62 375.5,-550.45 375.5,-504 375.5,-504 375.5,-504 375.5,-214 375.5,-174 375.5,-127.65 375.5,-99.08"/>
<polygon fill="black" stroke="black" points="379,-99.05 375.5,-89.05 372,-99.05 379,-99.05"/>
</g>
<!-- timeCoord_mod -->
<g id="node10" class="node">
<title>timeCoord_mod</title>
<g id="a_node10"><a xlink:href="../modules/timeCoord_mod.html" xlink:title="timeCoord_mod">
<polygon fill="gray" stroke="black" points="511,-593 404,-593 404,-557 511,-557 511,-593"/>
<text text-anchor="middle" x="457.5" y="-571.3" font-family="Times,serif" font-size="14.00">timeCoord_mod</text>
</a>
</g>
</g>
<!-- midas_extractBmatrixFor1Dvar&#45;&gt;timeCoord_mod -->
<g id="edge9" class="edge">
<title>midas_extractBmatrixFor1Dvar&#45;&gt;timeCoord_mod</title>
<path fill="none" stroke="black" d="M366.86,-628.88C382.55,-619.72 402.06,-608.34 418.95,-598.48"/>
<polygon fill="black" stroke="black" points="421.16,-601.25 428.03,-593.19 417.63,-595.21 421.16,-601.25"/>
</g>
<!-- utilities_mod -->
<g id="node11" class="node">
<title>utilities_mod</title>
<g id="a_node11"><a xlink:href="../modules/utilities_mod.svg" xlink:title="utilities_mod">
<polygon fill="none" stroke="red" points="549,-521 460,-521 460,-485 549,-485 549,-521"/>
<text text-anchor="middle" x="504.5" y="-499.3" font-family="Times,serif" font-size="14.00">utilities_mod</text>
</a>
</g>
</g>
<!-- midas_extractBmatrixFor1Dvar&#45;&gt;utilities_mod -->
<g id="edge10" class="edge">
<title>midas_extractBmatrixFor1Dvar&#45;&gt;utilities_mod</title>
<path fill="none" stroke="black" d="M433.48,-628.9C471.25,-620.05 508.29,-607.94 519.5,-593 532.94,-575.09 526.7,-549.46 518.57,-530.29"/>
<polygon fill="black" stroke="black" points="521.74,-528.81 514.37,-521.2 515.39,-531.75 521.74,-528.81"/>
</g>
<!-- varNameList_mod -->
<g id="node12" class="node">
<title>varNameList_mod</title>
<g id="a_node12"><a xlink:href="../modules/varNameList_mod.html" xlink:title="varNameList_mod">
<polygon fill="gray" stroke="black" points="612,-449 493,-449 493,-413 612,-413 612,-449"/>
<text text-anchor="middle" x="552.5" y="-427.3" font-family="Times,serif" font-size="14.00">varNameList_mod</text>
</a>
</g>
</g>
<!-- midas_extractBmatrixFor1Dvar&#45;&gt;varNameList_mod -->
<g id="edge11" class="edge">
<title>midas_extractBmatrixFor1Dvar&#45;&gt;varNameList_mod</title>
<path fill="none" stroke="black" d="M433.08,-640.68C470,-633.96 509.91,-620.27 537.5,-593 572.76,-558.16 566.51,-494.79 559.25,-458.82"/>
<polygon fill="black" stroke="black" points="562.66,-458.04 557.1,-449.02 555.82,-459.54 562.66,-458.04"/>
</g>
<!-- version_mod -->
<g id="node13" class="node">
<title>version_mod</title>
<g id="a_node13"><a xlink:href="../modules/version_mod.html" xlink:title="version_mod">
<polygon fill="gray" stroke="black" points="684.5,-377 596.5,-377 596.5,-341 684.5,-341 684.5,-377"/>
<text text-anchor="middle" x="640.5" y="-355.3" font-family="Times,serif" font-size="14.00">version_mod</text>
</a>
</g>
</g>
<!-- midas_extractBmatrixFor1Dvar&#45;&gt;version_mod -->
<g id="edge12" class="edge">
<title>midas_extractBmatrixFor1Dvar&#45;&gt;version_mod</title>
<path fill="none" stroke="black" d="M433.28,-632.42C485.22,-623.35 542.75,-609.96 562.5,-593 624.17,-540.03 637.25,-436.79 639.9,-387.49"/>
<polygon fill="black" stroke="black" points="643.41,-387.42 640.35,-377.27 636.42,-387.11 643.41,-387.42"/>
</g>
<!-- verticalCoord_mod -->
<g id="node14" class="node">
<title>verticalCoord_mod</title>
<g id="a_node14"><a xlink:href="../modules/verticalCoord_mod.html" xlink:title="verticalCoord_mod">
<polygon fill="gray" stroke="black" points="774,-305 651,-305 651,-269 774,-269 774,-305"/>
<text text-anchor="middle" x="712.5" y="-283.3" font-family="Times,serif" font-size="14.00">verticalCoord_mod</text>
</a>
</g>
</g>
<!-- midas_extractBmatrixFor1Dvar&#45;&gt;verticalCoord_mod -->
<g id="edge13" class="edge">
<title>midas_extractBmatrixFor1Dvar&#45;&gt;verticalCoord_mod</title>
<path fill="none" stroke="black" d="M433.19,-636.1C482.39,-628.56 542.37,-615.48 592.5,-593 653.09,-565.83 712.5,-570.4 712.5,-504 712.5,-504 712.5,-504 712.5,-430 712.5,-390 712.5,-343.65 712.5,-315.08"/>
<polygon fill="black" stroke="black" points="716,-315.05 712.5,-305.05 709,-315.05 716,-315.05"/>
</g>
</g>
</svg>
