<?xml version="1.0" encoding="UTF-8" standalone="no"?>
<!DOCTYPE svg PUBLIC "-//W3C//DTD SVG 1.1//EN"
 "http://www.w3.org/Graphics/SVG/1.1/DTD/svg11.dtd">
<!-- Generated by graphviz version 3.0.0 (20220315.2325)
 -->
<!-- Title: midas_sstBias Pages: 1 -->
<svg width="824pt" height="673pt"
 viewBox="0.00 0.00 824.00 673.00" xmlns="http://www.w3.org/2000/svg" xmlns:xlink="http://www.w3.org/1999/xlink">
<g id="graph0" class="graph" transform="scale(1 1) rotate(0) translate(4 669)">
<title>midas_sstBias</title>
<polygon fill="white" stroke="transparent" points="-4,4 -4,-669 820,-669 820,4 -4,4"/>
<text text-anchor="middle" x="408" y="-37.8" font-family="Times,serif" font-size="14.00">Red boxes indicate modules with dependencies not shown</text>
<text text-anchor="middle" x="408" y="-22.8" font-family="Times,serif" font-size="14.00">Lower level dependencies can be shown by clicking on a red box</text>
<text text-anchor="middle" x="408" y="-7.8" font-family="Times,serif" font-size="14.00">Shaded boxes indicate modules with no dependencies</text>
<!-- midas_sstBias -->
<g id="node1" class="node">
<title>midas_sstBias</title>
<g id="a_node1"><a xlink:href="midas_sstBias.html" xlink:title="midas_sstBias">
<polygon fill="none" stroke="black" points="428,-665 333,-665 333,-629 428,-629 428,-665"/>
<text text-anchor="middle" x="380.5" y="-643.3" font-family="Times,serif" font-size="14.00">midas_sstBias</text>
</a>
</g>
</g>
<!-- columnData_mod -->
<g id="node2" class="node">
<title>columnData_mod</title>
<g id="a_node2"><a xlink:href="../modules/columnData_mod.html" xlink:title="columnData_mod">
<polygon fill="gray" stroke="black" points="115,-593 0,-593 0,-557 115,-557 115,-593"/>
<text text-anchor="middle" x="57.5" y="-571.3" font-family="Times,serif" font-size="14.00">columnData_mod</text>
</a>
</g>
</g>
<!-- midas_sstBias&#45;&gt;columnData_mod -->
<g id="edge1" class="edge">
<title>midas_sstBias&#45;&gt;columnData_mod</title>
<path fill="none" stroke="black" d="M332.78,-636.27C282.23,-625.89 200.13,-608.79 129.5,-593 128.05,-592.68 126.59,-592.35 125.11,-592.01"/>
<polygon fill="black" stroke="black" points="125.77,-588.57 115.24,-589.76 124.21,-595.4 125.77,-588.57"/>
</g>
<!-- gridStateVector_mod -->
<g id="node3" class="node">
<title>gridStateVector_mod</title>
<g id="a_node3"><a xlink:href="../modules/gridStateVector_mod.html" xlink:title="gridStateVector_mod">
<polygon fill="gray" stroke="black" points="181.5,-521 47.5,-521 47.5,-485 181.5,-485 181.5,-521"/>
<text text-anchor="middle" x="114.5" y="-499.3" font-family="Times,serif" font-size="14.00">gridStateVector_mod</text>
</a>
</g>
</g>
<!-- midas_sstBias&#45;&gt;gridStateVector_mod -->
<g id="edge2" class="edge">
<title>midas_sstBias&#45;&gt;gridStateVector_mod</title>
<path fill="none" stroke="black" d="M332.72,-639.73C293.52,-632.91 237.79,-619.26 195.5,-593 169.22,-576.68 146.24,-549.46 131.53,-529.41"/>
<polygon fill="black" stroke="black" points="134.22,-527.15 125.57,-521.04 128.52,-531.21 134.22,-527.15"/>
</g>
<!-- horizontalCoord_mod -->
<g id="node4" class="node">
<title>horizontalCoord_mod</title>
<g id="a_node4"><a xlink:href="../modules/horizontalCoord_mod.html" xlink:title="horizontalCoord_mod">
<polygon fill="gray" stroke="black" points="219,-449 82,-449 82,-413 219,-413 219,-449"/>
<text text-anchor="middle" x="150.5" y="-427.3" font-family="Times,serif" font-size="14.00">horizontalCoord_mod</text>
</a>
</g>
</g>
<!-- midas_sstBias&#45;&gt;horizontalCoord_mod -->
<g id="edge3" class="edge">
<title>midas_sstBias&#45;&gt;horizontalCoord_mod</title>
<path fill="none" stroke="black" d="M332.74,-639.19C301.02,-632.4 260.4,-619.03 233.5,-593 196.37,-557.07 215.84,-530.02 190.5,-485 185.16,-475.51 178.31,-465.8 171.79,-457.33"/>
<polygon fill="black" stroke="black" points="174.41,-455 165.46,-449.33 168.92,-459.34 174.41,-455"/>
</g>
<!-- innovation_mod -->
<g id="node5" class="node">
<title>innovation_mod</title>
<g id="a_node5"><a xlink:href="../modules/innovation_mod.svg" xlink:title="innovation_mod">
<polygon fill="none" stroke="red" points="257.5,-377 151.5,-377 151.5,-341 257.5,-341 257.5,-377"/>
<text text-anchor="middle" x="204.5" y="-355.3" font-family="Times,serif" font-size="14.00">innovation_mod</text>
</a>
</g>
</g>
<!-- midas_sstBias&#45;&gt;innovation_mod -->
<g id="edge4" class="edge">
<title>midas_sstBias&#45;&gt;innovation_mod</title>
<path fill="none" stroke="black" d="M332.94,-633.14C311.26,-624.98 287.03,-612.24 271.5,-593 219.78,-528.91 253.76,-491.05 227.5,-413 224.56,-404.25 220.76,-394.95 217.1,-386.62"/>
<polygon fill="black" stroke="black" points="220.23,-385.05 212.93,-377.37 213.85,-387.93 220.23,-385.05"/>
</g>
<!-- mathPhysConstants_mod -->
<g id="node6" class="node">
<title>mathPhysConstants_mod</title>
<g id="a_node6"><a xlink:href="../modules/mathPhysConstants_mod.html" xlink:title="mathPhysConstants_mod">
<polygon fill="gray" stroke="black" points="295,-305 140,-305 140,-269 295,-269 295,-305"/>
<text text-anchor="middle" x="217.5" y="-283.3" font-family="Times,serif" font-size="14.00">mathPhysConstants_mod</text>
</a>
</g>
</g>
<!-- midas_sstBias&#45;&gt;mathPhysConstants_mod -->
<g id="edge5" class="edge">
<title>midas_sstBias&#45;&gt;mathPhysConstants_mod</title>
<path fill="none" stroke="black" d="M348.65,-628.8C334.77,-619.82 319.44,-607.63 309.5,-593 286.49,-559.11 285.5,-544.97 285.5,-504 285.5,-504 285.5,-504 285.5,-430 285.5,-389.55 285.12,-376.91 266.5,-341 261.11,-330.61 253.13,-320.74 245.17,-312.41"/>
<polygon fill="black" stroke="black" points="247.49,-309.78 237.94,-305.21 242.56,-314.74 247.49,-309.78"/>
</g>
<!-- midasMpi_mod -->
<g id="node7" class="node">
<title>midasMpi_mod</title>
<g id="a_node7"><a xlink:href="../modules/midasMpi_mod.html" xlink:title="midasMpi_mod">
<polygon fill="gray" stroke="black" points="333.5,-233 229.5,-233 229.5,-197 333.5,-197 333.5,-233"/>
<text text-anchor="middle" x="281.5" y="-211.3" font-family="Times,serif" font-size="14.00">midasMpi_mod</text>
</a>
</g>
</g>
<!-- midas_sstBias&#45;&gt;midasMpi_mod -->
<g id="edge6" class="edge">
<title>midas_sstBias&#45;&gt;midasMpi_mod</title>
<path fill="none" stroke="black" d="M367.83,-628.57C361.03,-618.56 352.95,-605.52 347.5,-593 331.16,-555.43 323.5,-544.97 323.5,-504 323.5,-504 323.5,-504 323.5,-358 323.5,-316.15 306.51,-270.1 294.15,-242.11"/>
<polygon fill="black" stroke="black" points="297.33,-240.66 290,-233.01 290.96,-243.56 297.33,-240.66"/>
</g>
<!-- obsFiles_mod -->
<g id="node8" class="node">
<title>obsFiles_mod</title>
<g id="a_node8"><a xlink:href="../modules/obsFiles_mod.html" xlink:title="obsFiles_mod">
<polygon fill="gray" stroke="black" points="371,-161 278,-161 278,-125 371,-125 371,-161"/>
<text text-anchor="middle" x="324.5" y="-139.3" font-family="Times,serif" font-size="14.00">obsFiles_mod</text>
</a>
</g>
</g>
<!-- midas_sstBias&#45;&gt;obsFiles_mod -->
<g id="edge7" class="edge">
<title>midas_sstBias&#45;&gt;obsFiles_mod</title>
<path fill="none" stroke="black" d="M376.66,-628.61C371.1,-601.94 361.5,-549.27 361.5,-504 361.5,-504 361.5,-504 361.5,-286 361.5,-244.71 346.67,-198.77 335.78,-170.63"/>
<polygon fill="black" stroke="black" points="338.94,-169.11 331.99,-161.11 332.44,-171.7 338.94,-169.11"/>
</g>
<!-- obsSpaceData_mod -->
<g id="node9" class="node">
<title>obsSpaceData_mod</title>
<g id="a_node9"><a xlink:href="../modules/obsSpaceData_mod.html" xlink:title="obsSpaceData_mod">
<polygon fill="gray" stroke="black" points="462,-89 337,-89 337,-53 462,-53 462,-89"/>
<text text-anchor="middle" x="399.5" y="-67.3" font-family="Times,serif" font-size="14.00">obsSpaceData_mod</text>
</a>
</g>
</g>
<!-- midas_sstBias&#45;&gt;obsSpaceData_mod -->
<g id="edge8" class="edge">
<title>midas_sstBias&#45;&gt;obsSpaceData_mod</title>
<path fill="none" stroke="black" d="M384.34,-628.61C389.9,-601.94 399.5,-549.27 399.5,-504 399.5,-504 399.5,-504 399.5,-214 399.5,-174 399.5,-127.65 399.5,-99.08"/>
<polygon fill="black" stroke="black" points="403,-99.05 399.5,-89.05 396,-99.05 403,-99.05"/>
</g>
<!-- ramDisk_mod -->
<g id="node10" class="node">
<title>ramDisk_mod</title>
<g id="a_node10"><a xlink:href="../modules/ramDisk_mod.html" xlink:title="ramDisk_mod">
<polygon fill="gray" stroke="black" points="523,-593 428,-593 428,-557 523,-557 523,-593"/>
<text text-anchor="middle" x="475.5" y="-571.3" font-family="Times,serif" font-size="14.00">ramDisk_mod</text>
</a>
</g>
</g>
<!-- midas_sstBias&#45;&gt;ramDisk_mod -->
<g id="edge9" class="edge">
<title>midas_sstBias&#45;&gt;ramDisk_mod</title>
<path fill="none" stroke="black" d="M403.98,-628.7C416.06,-619.8 430.95,-608.82 444.02,-599.2"/>
<polygon fill="black" stroke="black" points="446.31,-601.85 452.29,-593.1 442.16,-596.22 446.31,-601.85"/>
</g>
<!-- sstBias_mod -->
<g id="node11" class="node">
<title>sstBias_mod</title>
<g id="a_node11"><a xlink:href="../modules/sstBias_mod.html" xlink:title="sstBias_mod">
<polygon fill="gray" stroke="black" points="561.5,-521 475.5,-521 475.5,-485 561.5,-485 561.5,-521"/>
<text text-anchor="middle" x="518.5" y="-499.3" font-family="Times,serif" font-size="14.00">sstBias_mod</text>
</a>
</g>
</g>
<!-- midas_sstBias&#45;&gt;sstBias_mod -->
<g id="edge10" class="edge">
<title>midas_sstBias&#45;&gt;sstBias_mod</title>
<path fill="none" stroke="black" d="M428.27,-643.24C463.17,-638.42 508.28,-625.75 531.5,-593 544.34,-574.88 538.9,-549.43 531.53,-530.38"/>
<polygon fill="black" stroke="black" points="534.71,-528.92 527.59,-521.08 528.27,-531.65 534.71,-528.92"/>
</g>
<!-- timeCoord_mod -->
<g id="node12" class="node">
<title>timeCoord_mod</title>
<g id="a_node12"><a xlink:href="../modules/timeCoord_mod.html" xlink:title="timeCoord_mod">
<polygon fill="gray" stroke="black" points="599,-449 492,-449 492,-413 599,-413 599,-449"/>
<text text-anchor="middle" x="545.5" y="-427.3" font-family="Times,serif" font-size="14.00">timeCoord_mod</text>
</a>
</g>
</g>
<!-- midas_sstBias&#45;&gt;timeCoord_mod -->
<g id="edge11" class="edge">
<title>midas_sstBias&#45;&gt;timeCoord_mod</title>
<path fill="none" stroke="black" d="M428.35,-643.01C466.14,-638.14 517.65,-625.5 549.5,-593 583.73,-558.08 581.19,-532.72 570.5,-485 568.49,-476.01 564.77,-466.75 560.8,-458.53"/>
<polygon fill="black" stroke="black" points="563.82,-456.73 556.13,-449.44 557.59,-459.94 563.82,-456.73"/>
</g>
<!-- utilities_mod -->
<g id="node13" class="node">
<title>utilities_mod</title>
<g id="a_node13"><a xlink:href="../modules/utilities_mod.svg" xlink:title="utilities_mod">
<polygon fill="none" stroke="red" points="654,-377 565,-377 565,-341 654,-341 654,-377"/>
<text text-anchor="middle" x="609.5" y="-355.3" font-family="Times,serif" font-size="14.00">utilities_mod</text>
</a>
</g>
</g>
<!-- midas_sstBias&#45;&gt;utilities_mod -->
<g id="edge12" class="edge">
<title>midas_sstBias&#45;&gt;utilities_mod</title>
<path fill="none" stroke="black" d="M428.37,-646.23C472.75,-643.75 537.47,-632.85 575.5,-593 629.16,-536.77 621.87,-435.55 614.56,-387.18"/>
<polygon fill="black" stroke="black" points="617.99,-386.46 612.93,-377.15 611.08,-387.58 617.99,-386.46"/>
</g>
<!-- version_mod -->
<g id="node14" class="node">
<title>version_mod</title>
<g id="a_node14"><a xlink:href="../modules/version_mod.html" xlink:title="version_mod">
<polygon fill="gray" stroke="black" points="726.5,-305 638.5,-305 638.5,-269 726.5,-269 726.5,-305"/>
<text text-anchor="middle" x="682.5" y="-283.3" font-family="Times,serif" font-size="14.00">version_mod</text>
</a>
</g>
</g>
<!-- midas_sstBias&#45;&gt;version_mod -->
<g id="edge13" class="edge">
<title>midas_sstBias&#45;&gt;version_mod</title>
<path fill="none" stroke="black" d="M428.02,-644.65C513.07,-639.43 682.5,-615.09 682.5,-504 682.5,-504 682.5,-504 682.5,-430 682.5,-390 682.5,-343.65 682.5,-315.08"/>
<polygon fill="black" stroke="black" points="686,-315.05 682.5,-305.05 679,-315.05 686,-315.05"/>
</g>
<!-- verticalCoord_mod -->
<g id="node15" class="node">
<title>verticalCoord_mod</title>
<g id="a_node15"><a xlink:href="../modules/verticalCoord_mod.html" xlink:title="verticalCoord_mod">
<polygon fill="gray" stroke="black" points="816,-233 693,-233 693,-197 816,-197 816,-233"/>
<text text-anchor="middle" x="754.5" y="-211.3" font-family="Times,serif" font-size="14.00">verticalCoord_mod</text>
</a>
</g>
</g>
<!-- midas_sstBias&#45;&gt;verticalCoord_mod -->
<g id="edge14" class="edge">
<title>midas_sstBias&#45;&gt;verticalCoord_mod</title>
<path fill="none" stroke="black" d="M428.04,-645.41C486.58,-642.87 587.56,-632.51 663.5,-593 713.69,-566.89 754.5,-560.57 754.5,-504 754.5,-504 754.5,-504 754.5,-358 754.5,-318 754.5,-271.65 754.5,-243.08"/>
<polygon fill="black" stroke="black" points="758,-243.05 754.5,-233.05 751,-243.05 758,-243.05"/>
</g>
</g>
</svg>
