<?xml version="1.0" encoding="UTF-8" standalone="no"?>
<!DOCTYPE svg PUBLIC "-//W3C//DTD SVG 1.1//EN"
 "http://www.w3.org/Graphics/SVG/1.1/DTD/svg11.dtd">
<!-- Generated by graphviz version 3.0.0 (20220315.2325)
 -->
<!-- Title: midas_oMinusF Pages: 1 -->
<svg width="624pt" height="673pt"
 viewBox="0.00 0.00 624.00 673.00" xmlns="http://www.w3.org/2000/svg" xmlns:xlink="http://www.w3.org/1999/xlink">
<g id="graph0" class="graph" transform="scale(1 1) rotate(0) translate(4 669)">
<title>midas_oMinusF</title>
<polygon fill="white" stroke="transparent" points="-4,4 -4,-669 620,-669 620,4 -4,4"/>
<text text-anchor="middle" x="308" y="-37.8" font-family="Times,serif" font-size="14.00">Red boxes indicate modules with dependencies not shown</text>
<text text-anchor="middle" x="308" y="-22.8" font-family="Times,serif" font-size="14.00">Lower level dependencies can be shown by clicking on a red box</text>
<text text-anchor="middle" x="308" y="-7.8" font-family="Times,serif" font-size="14.00">Shaded boxes indicate modules with no dependencies</text>
<!-- midas_oMinusF -->
<g id="node1" class="node">
<title>midas_oMinusF</title>
<g id="a_node1"><a xlink:href="midas_oMinusF.html" xlink:title="midas_oMinusF">
<polygon fill="none" stroke="black" points="384,-665 278,-665 278,-629 384,-629 384,-665"/>
<text text-anchor="middle" x="331" y="-643.3" font-family="Times,serif" font-size="14.00">midas_oMinusF</text>
</a>
</g>
</g>
<!-- biasCorrectionSat_mod -->
<g id="node2" class="node">
<title>biasCorrectionSat_mod</title>
<g id="a_node2"><a xlink:href="../modules/biasCorrectionSat_mod.html" xlink:title="biasCorrectionSat_mod">
<polygon fill="gray" stroke="black" points="146,-593 0,-593 0,-557 146,-557 146,-593"/>
<text text-anchor="middle" x="73" y="-571.3" font-family="Times,serif" font-size="14.00">biasCorrectionSat_mod</text>
</a>
</g>
</g>
<!-- midas_oMinusF&#45;&gt;biasCorrectionSat_mod -->
<g id="edge1" class="edge">
<title>midas_oMinusF&#45;&gt;biasCorrectionSat_mod</title>
<path fill="none" stroke="black" d="M277.86,-631.58C239.75,-621.24 187.96,-607.19 145.99,-595.8"/>
<polygon fill="black" stroke="black" points="146.66,-592.36 136.09,-593.12 144.83,-599.11 146.66,-592.36"/>
</g>
<!-- columnData_mod -->
<g id="node3" class="node">
<title>columnData_mod</title>
<g id="a_node3"><a xlink:href="../modules/columnData_mod.html" xlink:title="columnData_mod">
<polygon fill="gray" stroke="black" points="207.5,-521 92.5,-521 92.5,-485 207.5,-485 207.5,-521"/>
<text text-anchor="middle" x="150" y="-499.3" font-family="Times,serif" font-size="14.00">columnData_mod</text>
</a>
</g>
</g>
<!-- midas_oMinusF&#45;&gt;columnData_mod -->
<g id="edge2" class="edge">
<title>midas_oMinusF&#45;&gt;columnData_mod</title>
<path fill="none" stroke="black" d="M284.93,-628.95C264.45,-620.07 240.78,-607.93 222,-593 199.47,-575.09 179.39,-548.96 166.2,-529.65"/>
<polygon fill="black" stroke="black" points="169.09,-527.68 160.63,-521.3 163.27,-531.57 169.09,-527.68"/>
</g>
<!-- ensembleObservations_mod -->
<g id="node4" class="node">
<title>ensembleObservations_mod</title>
<g id="a_node4"><a xlink:href="../modules/ensembleObservations_mod.html" xlink:title="ensembleObservations_mod">
<polygon fill="gray" stroke="black" points="246,-449 74,-449 74,-413 246,-413 246,-449"/>
<text text-anchor="middle" x="160" y="-427.3" font-family="Times,serif" font-size="14.00">ensembleObservations_mod</text>
</a>
</g>
</g>
<!-- midas_oMinusF&#45;&gt;ensembleObservations_mod -->
<g id="edge3" class="edge">
<title>midas_oMinusF&#45;&gt;ensembleObservations_mod</title>
<path fill="none" stroke="black" d="M301.03,-628.92C287.06,-619.74 271.1,-607.36 260,-593 228.29,-552 245.26,-527.78 216,-485 208.74,-474.38 199.04,-464.27 189.75,-455.78"/>
<polygon fill="black" stroke="black" points="191.93,-453.03 182.11,-449.05 187.3,-458.28 191.93,-453.03"/>
</g>
<!-- fileNames_mod -->
<g id="node5" class="node">
<title>fileNames_mod</title>
<g id="a_node5"><a xlink:href="../modules/fileNames_mod.html" xlink:title="fileNames_mod">
<polygon fill="gray" stroke="black" points="284,-377 180,-377 180,-341 284,-341 284,-377"/>
<text text-anchor="middle" x="232" y="-355.3" font-family="Times,serif" font-size="14.00">fileNames_mod</text>
</a>
</g>
</g>
<!-- midas_oMinusF&#45;&gt;fileNames_mod -->
<g id="edge4" class="edge">
<title>midas_oMinusF&#45;&gt;fileNames_mod</title>
<path fill="none" stroke="black" d="M318.19,-628.63C311.34,-618.64 303.26,-605.6 298,-593 266.3,-517.1 281.03,-491.02 255,-413 252.08,-404.25 248.29,-394.94 244.63,-386.61"/>
<polygon fill="black" stroke="black" points="247.76,-385.04 240.45,-377.37 241.38,-387.92 247.76,-385.04"/>
</g>
<!-- midasMpi_mod -->
<g id="node6" class="node">
<title>midasMpi_mod</title>
<g id="a_node6"><a xlink:href="../modules/midasMpi_mod.html" xlink:title="midasMpi_mod">
<polygon fill="gray" stroke="black" points="322,-305 218,-305 218,-269 322,-269 322,-305"/>
<text text-anchor="middle" x="270" y="-283.3" font-family="Times,serif" font-size="14.00">midasMpi_mod</text>
</a>
</g>
</g>
<!-- midas_oMinusF&#45;&gt;midasMpi_mod -->
<g id="edge5" class="edge">
<title>midas_oMinusF&#45;&gt;midasMpi_mod</title>
<path fill="none" stroke="black" d="M327.16,-628.61C321.6,-601.94 312,-549.27 312,-504 312,-504 312,-504 312,-430 312,-388.15 295.01,-342.1 282.65,-314.11"/>
<polygon fill="black" stroke="black" points="285.83,-312.66 278.5,-305.01 279.46,-315.56 285.83,-312.66"/>
</g>
<!-- obsFiles_mod -->
<g id="node7" class="node">
<title>obsFiles_mod</title>
<g id="a_node7"><a xlink:href="../modules/obsFiles_mod.html" xlink:title="obsFiles_mod">
<polygon fill="gray" stroke="black" points="359.5,-233 266.5,-233 266.5,-197 359.5,-197 359.5,-233"/>
<text text-anchor="middle" x="313" y="-211.3" font-family="Times,serif" font-size="14.00">obsFiles_mod</text>
</a>
</g>
</g>
<!-- midas_oMinusF&#45;&gt;obsFiles_mod -->
<g id="edge6" class="edge">
<title>midas_oMinusF&#45;&gt;obsFiles_mod</title>
<path fill="none" stroke="black" d="M334.84,-628.61C340.4,-601.94 350,-549.27 350,-504 350,-504 350,-504 350,-358 350,-316.71 335.17,-270.77 324.28,-242.63"/>
<polygon fill="black" stroke="black" points="327.44,-241.11 320.49,-233.11 320.94,-243.7 327.44,-241.11"/>
</g>
<!-- obsSpaceData_mod -->
<g id="node8" class="node">
<title>obsSpaceData_mod</title>
<g id="a_node8"><a xlink:href="../modules/obsSpaceData_mod.html" xlink:title="obsSpaceData_mod">
<polygon fill="gray" stroke="black" points="397.5,-161 272.5,-161 272.5,-125 397.5,-125 397.5,-161"/>
<text text-anchor="middle" x="335" y="-139.3" font-family="Times,serif" font-size="14.00">obsSpaceData_mod</text>
</a>
</g>
</g>
<!-- midas_oMinusF&#45;&gt;obsSpaceData_mod -->
<g id="edge7" class="edge">
<title>midas_oMinusF&#45;&gt;obsSpaceData_mod</title>
<path fill="none" stroke="black" d="M342.81,-628.96C359.51,-603.16 388,-552.08 388,-504 388,-504 388,-504 388,-286 388,-245.46 383.38,-234.51 368,-197 364.2,-187.72 358.83,-178.22 353.53,-169.88"/>
<polygon fill="black" stroke="black" points="356.32,-167.75 347.88,-161.34 350.48,-171.62 356.32,-167.75"/>
</g>
<!-- oMinusF_mod -->
<g id="node9" class="node">
<title>oMinusF_mod</title>
<g id="a_node9"><a xlink:href="../modules/oMinusF_mod.html" xlink:title="oMinusF_mod">
<polygon fill="gray" stroke="black" points="475,-89 377,-89 377,-53 475,-53 475,-89"/>
<text text-anchor="middle" x="426" y="-67.3" font-family="Times,serif" font-size="14.00">oMinusF_mod</text>
</a>
</g>
</g>
<!-- midas_oMinusF&#45;&gt;oMinusF_mod -->
<g id="edge8" class="edge">
<title>midas_oMinusF&#45;&gt;oMinusF_mod</title>
<path fill="none" stroke="black" d="M352.56,-628.78C380.59,-604.28 426,-556.5 426,-504 426,-504 426,-504 426,-214 426,-174 426,-127.65 426,-99.08"/>
<polygon fill="black" stroke="black" points="429.5,-99.05 426,-89.05 422.5,-99.05 429.5,-99.05"/>
</g>
<!-- utilities_mod -->
<g id="node10" class="node">
<title>utilities_mod</title>
<g id="a_node10"><a xlink:href="../modules/utilities_mod.svg" xlink:title="utilities_mod">
<polygon fill="none" stroke="red" points="543.5,-593 454.5,-593 454.5,-557 543.5,-557 543.5,-593"/>
<text text-anchor="middle" x="499" y="-571.3" font-family="Times,serif" font-size="14.00">utilities_mod</text>
</a>
</g>
</g>
<!-- midas_oMinusF&#45;&gt;utilities_mod -->
<g id="edge9" class="edge">
<title>midas_oMinusF&#45;&gt;utilities_mod</title>
<path fill="none" stroke="black" d="M372.1,-628.88C395.17,-619.26 424.14,-607.19 448.57,-597.01"/>
<polygon fill="black" stroke="black" points="450.15,-600.15 458.04,-593.07 447.46,-593.68 450.15,-600.15"/>
</g>
<!-- version_mod -->
<g id="node11" class="node">
<title>version_mod</title>
<g id="a_node11"><a xlink:href="../modules/version_mod.html" xlink:title="version_mod">
<polygon fill="gray" stroke="black" points="616,-521 528,-521 528,-485 616,-485 616,-521"/>
<text text-anchor="middle" x="572" y="-499.3" font-family="Times,serif" font-size="14.00">version_mod</text>
</a>
</g>
</g>
<!-- midas_oMinusF&#45;&gt;version_mod -->
<g id="edge10" class="edge">
<title>midas_oMinusF&#45;&gt;version_mod</title>
<path fill="none" stroke="black" d="M384.17,-639.74C441.87,-631.87 528.87,-616.46 552,-593 567.85,-576.92 572.25,-551.14 573.04,-531.45"/>
<polygon fill="black" stroke="black" points="576.54,-531.29 573.15,-521.25 569.54,-531.21 576.54,-531.29"/>
</g>
</g>
</svg>
