<?xml version="1.0" encoding="UTF-8" standalone="no"?>
<!DOCTYPE svg PUBLIC "-//W3C//DTD SVG 1.1//EN"
 "http://www.w3.org/Graphics/SVG/1.1/DTD/svg11.dtd">
<!-- Generated by graphviz version 3.0.0 (20220315.2325)
 -->
<!-- Title: midas_var Pages: 1 -->
<svg width="1609pt" height="673pt"
 viewBox="0.00 0.00 1608.50 673.00" xmlns="http://www.w3.org/2000/svg" xmlns:xlink="http://www.w3.org/1999/xlink">
<g id="graph0" class="graph" transform="scale(1 1) rotate(0) translate(4 669)">
<title>midas_var</title>
<polygon fill="white" stroke="transparent" points="-4,4 -4,-669 1604.5,-669 1604.5,4 -4,4"/>
<text text-anchor="middle" x="800.25" y="-37.8" font-family="Times,serif" font-size="14.00">Red boxes indicate modules with dependencies not shown</text>
<text text-anchor="middle" x="800.25" y="-22.8" font-family="Times,serif" font-size="14.00">Lower level dependencies can be shown by clicking on a red box</text>
<text text-anchor="middle" x="800.25" y="-7.8" font-family="Times,serif" font-size="14.00">Shaded boxes indicate modules with no dependencies</text>
<!-- midas_var -->
<g id="node1" class="node">
<title>midas_var</title>
<g id="a_node1"><a xlink:href="midas_var.html" xlink:title="midas_var">
<polygon fill="none" stroke="black" points="842,-665 768,-665 768,-629 842,-629 842,-665"/>
<text text-anchor="middle" x="805" y="-643.3" font-family="Times,serif" font-size="14.00">midas_var</text>
</a>
</g>
</g>
<!-- biasCorrectionSat_mod -->
<g id="node2" class="node">
<title>biasCorrectionSat_mod</title>
<g id="a_node2"><a xlink:href="../modules/biasCorrectionSat_mod.html" xlink:title="biasCorrectionSat_mod">
<polygon fill="gray" stroke="black" points="146,-593 0,-593 0,-557 146,-557 146,-593"/>
<text text-anchor="middle" x="73" y="-571.3" font-family="Times,serif" font-size="14.00">biasCorrectionSat_mod</text>
</a>
</g>
</g>
<!-- midas_var&#45;&gt;biasCorrectionSat_mod -->
<g id="edge1" class="edge">
<title>midas_var&#45;&gt;biasCorrectionSat_mod</title>
<path fill="none" stroke="black" d="M767.76,-644.39C668.56,-639.78 389.83,-624.8 160,-593 158.71,-592.82 157.42,-592.64 156.11,-592.45"/>
<polygon fill="black" stroke="black" points="156.42,-588.95 146,-590.87 155.35,-595.87 156.42,-588.95"/>
</g>
<!-- bMatrix_mod -->
<g id="node3" class="node">
<title>bMatrix_mod</title>
<g id="a_node3"><a xlink:href="../modules/bMatrix_mod.html" xlink:title="bMatrix_mod">
<polygon fill="gray" stroke="black" points="202.5,-521 109.5,-521 109.5,-485 202.5,-485 202.5,-521"/>
<text text-anchor="middle" x="156" y="-499.3" font-family="Times,serif" font-size="14.00">bMatrix_mod</text>
</a>
</g>
</g>
<!-- midas_var&#45;&gt;bMatrix_mod -->
<g id="edge2" class="edge">
<title>midas_var&#45;&gt;bMatrix_mod</title>
<path fill="none" stroke="black" d="M767.82,-644.48C646.08,-639.26 264.48,-620.81 217,-593 193,-578.94 176.32,-551.25 166.54,-530.47"/>
<polygon fill="black" stroke="black" points="169.68,-528.91 162.41,-521.2 163.28,-531.76 169.68,-528.91"/>
</g>
<!-- codePrecision_mod -->
<g id="node4" class="node">
<title>codePrecision_mod</title>
<g id="a_node4"><a xlink:href="../modules/codePrecision_mod.html" xlink:title="codePrecision_mod">
<polygon fill="gray" stroke="black" points="241,-449 117,-449 117,-413 241,-413 241,-449"/>
<text text-anchor="middle" x="179" y="-427.3" font-family="Times,serif" font-size="14.00">codePrecision_mod</text>
</a>
</g>
</g>
<!-- midas_var&#45;&gt;codePrecision_mod -->
<g id="edge3" class="edge">
<title>midas_var&#45;&gt;codePrecision_mod</title>
<path fill="none" stroke="black" d="M767.95,-644.63C651.18,-640.02 296.07,-623.58 255,-593 213.43,-562.05 234.24,-531.33 211,-485 206.47,-475.97 200.95,-466.42 195.78,-457.96"/>
<polygon fill="black" stroke="black" points="198.63,-455.91 190.37,-449.28 192.69,-459.62 198.63,-455.91"/>
</g>
<!-- columnData_mod -->
<g id="node5" class="node">
<title>columnData_mod</title>
<g id="a_node5"><a xlink:href="../modules/columnData_mod.html" xlink:title="columnData_mod">
<polygon fill="gray" stroke="black" points="278.5,-377 163.5,-377 163.5,-341 278.5,-341 278.5,-377"/>
<text text-anchor="middle" x="221" y="-355.3" font-family="Times,serif" font-size="14.00">columnData_mod</text>
</a>
</g>
</g>
<!-- midas_var&#45;&gt;columnData_mod -->
<g id="edge4" class="edge">
<title>midas_var&#45;&gt;columnData_mod</title>
<path fill="none" stroke="black" d="M767.98,-644.61C656.37,-640.08 328.62,-624.22 293,-593 231.15,-538.78 279.56,-489.76 250,-413 246.49,-403.9 241.71,-394.41 237.04,-386.03"/>
<polygon fill="black" stroke="black" points="239.91,-384.01 231.88,-377.1 233.85,-387.51 239.91,-384.01"/>
</g>
<!-- controlVector_mod -->
<g id="node6" class="node">
<title>controlVector_mod</title>
<g id="a_node6"><a xlink:href="../modules/controlVector_mod.html" xlink:title="controlVector_mod">
<polygon fill="gray" stroke="black" points="317,-305 195,-305 195,-269 317,-269 317,-305"/>
<text text-anchor="middle" x="256" y="-283.3" font-family="Times,serif" font-size="14.00">controlVector_mod</text>
</a>
</g>
</g>
<!-- midas_var&#45;&gt;controlVector_mod -->
<g id="edge5" class="edge">
<title>midas_var&#45;&gt;controlVector_mod</title>
<path fill="none" stroke="black" d="M767.78,-644.22C661.81,-638.84 363.99,-621.32 331,-593 299.91,-566.31 307,-544.97 307,-504 307,-504 307,-504 307,-430 307,-389.46 301.85,-378.72 287,-341 283.39,-331.82 278.33,-322.35 273.36,-314.01"/>
<polygon fill="black" stroke="black" points="276.3,-312.11 268.06,-305.45 270.35,-315.8 276.3,-312.11"/>
</g>
<!-- gridStateVectorFileIO_mod -->
<g id="node7" class="node">
<title>gridStateVectorFileIO_mod</title>
<g id="a_node7"><a xlink:href="../modules/gridStateVectorFileIO_mod.html" xlink:title="gridStateVectorFileIO_mod">
<polygon fill="gray" stroke="black" points="355,-233 185,-233 185,-197 355,-197 355,-233"/>
<text text-anchor="middle" x="270" y="-211.3" font-family="Times,serif" font-size="14.00">gridStateVectorFileIO_mod</text>
</a>
</g>
</g>
<!-- midas_var&#45;&gt;gridStateVectorFileIO_mod -->
<g id="edge6" class="edge">
<title>midas_var&#45;&gt;gridStateVectorFileIO_mod</title>
<path fill="none" stroke="black" d="M767.71,-646.62C673.31,-647.4 428.2,-644.32 369,-593 338.04,-566.17 345,-544.97 345,-504 345,-504 345,-504 345,-358 345,-317.55 345.8,-304.27 326,-269 319.86,-258.06 310.7,-248.02 301.57,-239.7"/>
<polygon fill="black" stroke="black" points="303.82,-237.02 293.96,-233.12 299.24,-242.31 303.82,-237.02"/>
</g>
<!-- gridStateVector_mod -->
<g id="node8" class="node">
<title>gridStateVector_mod</title>
<g id="a_node8"><a xlink:href="../modules/gridStateVector_mod.html" xlink:title="gridStateVector_mod">
<polygon fill="gray" stroke="black" points="393,-161 259,-161 259,-125 393,-125 393,-161"/>
<text text-anchor="middle" x="326" y="-139.3" font-family="Times,serif" font-size="14.00">gridStateVector_mod</text>
</a>
</g>
</g>
<!-- midas_var&#45;&gt;gridStateVector_mod -->
<g id="edge7" class="edge">
<title>midas_var&#45;&gt;gridStateVector_mod</title>
<path fill="none" stroke="black" d="M767.73,-646.12C679.29,-645.64 460.2,-639.65 407,-593 376.2,-565.99 383,-544.97 383,-504 383,-504 383,-504 383,-286 383,-245.55 380.35,-233.99 364,-197 359.67,-187.21 353.36,-177.43 347.12,-168.98"/>
<polygon fill="black" stroke="black" points="349.86,-166.8 340.98,-161.03 344.32,-171.08 349.86,-166.8"/>
</g>
<!-- gridVariableTransforms_mod -->
<g id="node9" class="node">
<title>gridVariableTransforms_mod</title>
<g id="a_node9"><a xlink:href="../modules/gridVariableTransforms_mod.html" xlink:title="gridVariableTransforms_mod">
<polygon fill="gray" stroke="black" points="511.5,-89 330.5,-89 330.5,-53 511.5,-53 511.5,-89"/>
<text text-anchor="middle" x="421" y="-67.3" font-family="Times,serif" font-size="14.00">gridVariableTransforms_mod</text>
</a>
</g>
</g>
<!-- midas_var&#45;&gt;gridVariableTransforms_mod -->
<g id="edge8" class="edge">
<title>midas_var&#45;&gt;gridVariableTransforms_mod</title>
<path fill="none" stroke="black" d="M767.89,-645.8C684.71,-644.55 486.93,-636.92 440,-593 410.47,-565.36 421,-544.45 421,-504 421,-504 421,-504 421,-214 421,-174 421,-127.65 421,-99.08"/>
<polygon fill="black" stroke="black" points="424.5,-99.05 421,-89.05 417.5,-99.05 424.5,-99.05"/>
</g>
<!-- horizontalCoord_mod -->
<g id="node10" class="node">
<title>horizontalCoord_mod</title>
<g id="a_node10"><a xlink:href="../modules/horizontalCoord_mod.html" xlink:title="horizontalCoord_mod">
<polygon fill="gray" stroke="black" points="586.5,-593 449.5,-593 449.5,-557 586.5,-557 586.5,-593"/>
<text text-anchor="middle" x="518" y="-571.3" font-family="Times,serif" font-size="14.00">horizontalCoord_mod</text>
</a>
</g>
</g>
<!-- midas_var&#45;&gt;horizontalCoord_mod -->
<g id="edge9" class="edge">
<title>midas_var&#45;&gt;horizontalCoord_mod</title>
<path fill="none" stroke="black" d="M767.77,-636.92C724.64,-626.4 652.35,-608.77 596.61,-595.17"/>
<polygon fill="black" stroke="black" points="597.3,-591.74 586.75,-592.77 595.64,-598.54 597.3,-591.74"/>
</g>
<!-- humidityLimits_mod -->
<g id="node11" class="node">
<title>humidityLimits_mod</title>
<g id="a_node11"><a xlink:href="../modules/humidityLimits_mod.html" xlink:title="humidityLimits_mod">
<polygon fill="gray" stroke="black" points="625,-521 491,-521 491,-485 625,-485 625,-521"/>
<text text-anchor="middle" x="558" y="-499.3" font-family="Times,serif" font-size="14.00">humidityLimits_mod</text>
</a>
</g>
</g>
<!-- midas_var&#45;&gt;humidityLimits_mod -->
<g id="edge10" class="edge">
<title>midas_var&#45;&gt;humidityLimits_mod</title>
<path fill="none" stroke="black" d="M767.99,-639.93C732.69,-632.87 679.1,-618.74 639,-593 613.12,-576.38 590.22,-549.45 575.43,-529.55"/>
<polygon fill="black" stroke="black" points="578.11,-527.29 569.41,-521.24 572.44,-531.39 578.11,-527.29"/>
</g>
<!-- increment_mod -->
<g id="node12" class="node">
<title>increment_mod</title>
<g id="a_node12"><a xlink:href="../modules/increment_mod.svg" xlink:title="increment_mod">
<polygon fill="none" stroke="red" points="662.5,-449 559.5,-449 559.5,-413 662.5,-413 662.5,-449"/>
<text text-anchor="middle" x="611" y="-427.3" font-family="Times,serif" font-size="14.00">increment_mod</text>
</a>
</g>
</g>
<!-- midas_var&#45;&gt;increment_mod -->
<g id="edge11" class="edge">
<title>midas_var&#45;&gt;increment_mod</title>
<path fill="none" stroke="black" d="M767.78,-638.83C739.56,-631.63 701.58,-617.91 677,-593 640.72,-556.22 653.84,-532.7 634,-485 630.4,-476.35 626.36,-466.95 622.69,-458.5"/>
<polygon fill="black" stroke="black" points="625.8,-456.89 618.59,-449.13 619.39,-459.69 625.8,-456.89"/>
</g>
<!-- innovation_mod -->
<g id="node13" class="node">
<title>innovation_mod</title>
<g id="a_node13"><a xlink:href="../modules/innovation_mod.svg" xlink:title="innovation_mod">
<polygon fill="none" stroke="red" points="701,-377 595,-377 595,-341 701,-341 701,-377"/>
<text text-anchor="middle" x="648" y="-355.3" font-family="Times,serif" font-size="14.00">innovation_mod</text>
</a>
</g>
</g>
<!-- midas_var&#45;&gt;innovation_mod -->
<g id="edge12" class="edge">
<title>midas_var&#45;&gt;innovation_mod</title>
<path fill="none" stroke="black" d="M767.69,-632.23C749.26,-623.62 728.2,-610.76 715,-593 665.87,-526.9 697.26,-491.05 671,-413 668.06,-404.25 664.26,-394.95 660.6,-386.62"/>
<polygon fill="black" stroke="black" points="663.73,-385.05 656.43,-377.37 657.35,-387.93 663.73,-385.05"/>
</g>
<!-- mathPhysConstants_mod -->
<g id="node14" class="node">
<title>mathPhysConstants_mod</title>
<g id="a_node14"><a xlink:href="../modules/mathPhysConstants_mod.html" xlink:title="mathPhysConstants_mod">
<polygon fill="gray" stroke="black" points="738.5,-305 583.5,-305 583.5,-269 738.5,-269 738.5,-305"/>
<text text-anchor="middle" x="661" y="-283.3" font-family="Times,serif" font-size="14.00">mathPhysConstants_mod</text>
</a>
</g>
</g>
<!-- midas_var&#45;&gt;mathPhysConstants_mod -->
<g id="edge13" class="edge">
<title>midas_var&#45;&gt;mathPhysConstants_mod</title>
<path fill="none" stroke="black" d="M783.59,-628.86C772.99,-619.33 760.81,-606.65 753,-593 732.66,-557.44 729,-544.97 729,-504 729,-504 729,-504 729,-430 729,-389.55 728.62,-376.91 710,-341 704.61,-330.61 696.63,-320.74 688.67,-312.41"/>
<polygon fill="black" stroke="black" points="690.99,-309.78 681.44,-305.21 686.06,-314.74 690.99,-309.78"/>
</g>
<!-- message_mod -->
<g id="node15" class="node">
<title>message_mod</title>
<g id="a_node15"><a xlink:href="../modules/message_mod.svg" xlink:title="message_mod">
<polygon fill="none" stroke="red" points="776.5,-233 681.5,-233 681.5,-197 776.5,-197 776.5,-233"/>
<text text-anchor="middle" x="729" y="-211.3" font-family="Times,serif" font-size="14.00">message_mod</text>
</a>
</g>
</g>
<!-- midas_var&#45;&gt;message_mod -->
<g id="edge14" class="edge">
<title>midas_var&#45;&gt;message_mod</title>
<path fill="none" stroke="black" d="M797.31,-628.91C786.21,-602.62 767,-550.45 767,-504 767,-504 767,-504 767,-358 767,-316.63 751.77,-270.72 740.59,-242.61"/>
<polygon fill="black" stroke="black" points="743.72,-241.02 736.69,-233.09 737.24,-243.67 743.72,-241.02"/>
</g>
<!-- midasMpi_mod -->
<g id="node16" class="node">
<title>midasMpi_mod</title>
<g id="a_node16"><a xlink:href="../modules/midasMpi_mod.html" xlink:title="midasMpi_mod">
<polygon fill="gray" stroke="black" points="815,-161 711,-161 711,-125 815,-125 815,-161"/>
<text text-anchor="middle" x="763" y="-139.3" font-family="Times,serif" font-size="14.00">midasMpi_mod</text>
</a>
</g>
</g>
<!-- midas_var&#45;&gt;midasMpi_mod -->
<g id="edge15" class="edge">
<title>midas_var&#45;&gt;midasMpi_mod</title>
<path fill="none" stroke="black" d="M805,-628.95C805,-602.29 805,-549.11 805,-504 805,-504 805,-504 805,-286 805,-244.15 788.01,-198.1 775.65,-170.11"/>
<polygon fill="black" stroke="black" points="778.83,-168.66 771.5,-161.01 772.46,-171.56 778.83,-168.66"/>
</g>
<!-- minimization_mod -->
<g id="node17" class="node">
<title>minimization_mod</title>
<g id="a_node17"><a xlink:href="../modules/minimization_mod.svg" xlink:title="minimization_mod">
<polygon fill="none" stroke="red" points="904,-89 782,-89 782,-53 904,-53 904,-89"/>
<text text-anchor="middle" x="843" y="-67.3" font-family="Times,serif" font-size="14.00">minimization_mod</text>
</a>
</g>
</g>
<!-- midas_var&#45;&gt;minimization_mod -->
<g id="edge16" class="edge">
<title>midas_var&#45;&gt;minimization_mod</title>
<path fill="none" stroke="black" d="M812.69,-628.91C823.79,-602.62 843,-550.45 843,-504 843,-504 843,-504 843,-214 843,-174 843,-127.65 843,-99.08"/>
<polygon fill="black" stroke="black" points="846.5,-99.05 843,-89.05 839.5,-99.05 846.5,-99.05"/>
</g>
<!-- obsErrors_mod -->
<g id="node18" class="node">
<title>obsErrors_mod</title>
<g id="a_node18"><a xlink:href="../modules/obsErrors_mod.html" xlink:title="obsErrors_mod">
<polygon fill="gray" stroke="black" points="972.5,-593 871.5,-593 871.5,-557 972.5,-557 972.5,-593"/>
<text text-anchor="middle" x="922" y="-571.3" font-family="Times,serif" font-size="14.00">obsErrors_mod</text>
</a>
</g>
</g>
<!-- midas_var&#45;&gt;obsErrors_mod -->
<g id="edge17" class="edge">
<title>midas_var&#45;&gt;obsErrors_mod</title>
<path fill="none" stroke="black" d="M833.62,-628.88C848.92,-619.72 867.94,-608.34 884.42,-598.48"/>
<polygon fill="black" stroke="black" points="886.48,-601.33 893.27,-593.19 882.89,-595.32 886.48,-601.33"/>
</g>
<!-- obsFiles_mod -->
<g id="node19" class="node">
<title>obsFiles_mod</title>
<g id="a_node19"><a xlink:href="../modules/obsFiles_mod.html" xlink:title="obsFiles_mod">
<polygon fill="gray" stroke="black" points="1010.5,-521 917.5,-521 917.5,-485 1010.5,-485 1010.5,-521"/>
<text text-anchor="middle" x="964" y="-499.3" font-family="Times,serif" font-size="14.00">obsFiles_mod</text>
</a>
</g>
</g>
<!-- midas_var&#45;&gt;obsFiles_mod -->
<g id="edge18" class="edge">
<title>midas_var&#45;&gt;obsFiles_mod</title>
<path fill="none" stroke="black" d="M842.13,-646.76C883.61,-645.35 949.12,-635.9 981,-593 994.41,-574.96 987.55,-549.34 978.88,-530.22"/>
<polygon fill="black" stroke="black" points="981.97,-528.57 974.42,-521.15 975.69,-531.66 981.97,-528.57"/>
</g>
<!-- obsSpaceData_mod -->
<g id="node20" class="node">
<title>obsSpaceData_mod</title>
<g id="a_node20"><a xlink:href="../modules/obsSpaceData_mod.html" xlink:title="obsSpaceData_mod">
<polygon fill="gray" stroke="black" points="1048.5,-449 923.5,-449 923.5,-413 1048.5,-413 1048.5,-449"/>
<text text-anchor="middle" x="986" y="-427.3" font-family="Times,serif" font-size="14.00">obsSpaceData_mod</text>
</a>
</g>
</g>
<!-- midas_var&#45;&gt;obsSpaceData_mod -->
<g id="edge19" class="edge">
<title>midas_var&#45;&gt;obsSpaceData_mod</title>
<path fill="none" stroke="black" d="M842.12,-646.24C885.61,-644.45 957.06,-634.76 999,-593 1033.59,-558.56 1032.42,-531.94 1019,-485 1016.29,-475.51 1011.33,-466.06 1006.07,-457.83"/>
<polygon fill="black" stroke="black" points="1008.86,-455.72 1000.33,-449.43 1003.08,-459.67 1008.86,-455.72"/>
</g>
<!-- obsSpaceDiag_mod -->
<g id="node21" class="node">
<title>obsSpaceDiag_mod</title>
<g id="a_node21"><a xlink:href="../modules/obsSpaceDiag_mod.html" xlink:title="obsSpaceDiag_mod">
<polygon fill="gray" stroke="black" points="1086.5,-377 961.5,-377 961.5,-341 1086.5,-341 1086.5,-377"/>
<text text-anchor="middle" x="1024" y="-355.3" font-family="Times,serif" font-size="14.00">obsSpaceDiag_mod</text>
</a>
</g>
</g>
<!-- midas_var&#45;&gt;obsSpaceDiag_mod -->
<g id="edge20" class="edge">
<title>midas_var&#45;&gt;obsSpaceDiag_mod</title>
<path fill="none" stroke="black" d="M842.05,-641.89C898.12,-634.9 1000.7,-618.89 1026,-593 1082.73,-534.93 1079.31,-491.05 1057,-413 1054.29,-403.51 1049.33,-394.06 1044.07,-385.83"/>
<polygon fill="black" stroke="black" points="1046.86,-383.72 1038.33,-377.43 1041.08,-387.67 1046.86,-383.72"/>
</g>
<!-- ramDisk_mod -->
<g id="node22" class="node">
<title>ramDisk_mod</title>
<g id="a_node22"><a xlink:href="../modules/ramDisk_mod.html" xlink:title="ramDisk_mod">
<polygon fill="gray" stroke="black" points="1124.5,-305 1029.5,-305 1029.5,-269 1124.5,-269 1124.5,-305"/>
<text text-anchor="middle" x="1077" y="-283.3" font-family="Times,serif" font-size="14.00">ramDisk_mod</text>
</a>
</g>
</g>
<!-- midas_var&#45;&gt;ramDisk_mod -->
<g id="edge21" class="edge">
<title>midas_var&#45;&gt;ramDisk_mod</title>
<path fill="none" stroke="black" d="M842.09,-645.62C924.37,-642.62 1115,-622.84 1115,-504 1115,-504 1115,-504 1115,-430 1115,-388.63 1099.77,-342.72 1088.59,-314.61"/>
<polygon fill="black" stroke="black" points="1091.72,-313.02 1084.69,-305.09 1085.24,-315.67 1091.72,-313.02"/>
</g>
<!-- rMatrix_mod -->
<g id="node23" class="node">
<title>rMatrix_mod</title>
<g id="a_node23"><a xlink:href="../modules/rMatrix_mod.html" xlink:title="rMatrix_mod">
<polygon fill="gray" stroke="black" points="1162.5,-233 1071.5,-233 1071.5,-197 1162.5,-197 1162.5,-233"/>
<text text-anchor="middle" x="1117" y="-211.3" font-family="Times,serif" font-size="14.00">rMatrix_mod</text>
</a>
</g>
</g>
<!-- midas_var&#45;&gt;rMatrix_mod -->
<g id="edge22" class="edge">
<title>midas_var&#45;&gt;rMatrix_mod</title>
<path fill="none" stroke="black" d="M842.11,-642.87C910.68,-636.5 1053.98,-620.28 1095,-593 1134.31,-566.85 1153,-551.21 1153,-504 1153,-504 1153,-504 1153,-358 1153,-316.78 1138.57,-270.83 1127.98,-242.66"/>
<polygon fill="black" stroke="black" points="1131.16,-241.19 1124.29,-233.13 1124.64,-243.72 1131.16,-241.19"/>
</g>
<!-- stateToColumn_mod -->
<g id="node24" class="node">
<title>stateToColumn_mod</title>
<g id="a_node24"><a xlink:href="../modules/stateToColumn_mod.html" xlink:title="stateToColumn_mod">
<polygon fill="gray" stroke="black" points="1200.5,-161 1069.5,-161 1069.5,-125 1200.5,-125 1200.5,-161"/>
<text text-anchor="middle" x="1135" y="-139.3" font-family="Times,serif" font-size="14.00">stateToColumn_mod</text>
</a>
</g>
</g>
<!-- midas_var&#45;&gt;stateToColumn_mod -->
<g id="edge23" class="edge">
<title>midas_var&#45;&gt;stateToColumn_mod</title>
<path fill="none" stroke="black" d="M842.24,-643.64C917.3,-638.31 1083.61,-623.33 1131,-593 1171.18,-567.28 1191,-551.7 1191,-504 1191,-504 1191,-504 1191,-286 1191,-245.46 1187.12,-234.2 1171,-197 1166.86,-187.46 1160.95,-177.81 1155.1,-169.41"/>
<polygon fill="black" stroke="black" points="1157.82,-167.2 1149.11,-161.17 1152.16,-171.32 1157.82,-167.2"/>
</g>
<!-- timeCoord_mod -->
<g id="node25" class="node">
<title>timeCoord_mod</title>
<g id="a_node25"><a xlink:href="../modules/timeCoord_mod.html" xlink:title="timeCoord_mod">
<polygon fill="gray" stroke="black" points="1282.5,-89 1175.5,-89 1175.5,-53 1282.5,-53 1282.5,-89"/>
<text text-anchor="middle" x="1229" y="-67.3" font-family="Times,serif" font-size="14.00">timeCoord_mod</text>
</a>
</g>
</g>
<!-- midas_var&#45;&gt;timeCoord_mod -->
<g id="edge24" class="edge">
<title>midas_var&#45;&gt;timeCoord_mod</title>
<path fill="none" stroke="black" d="M842.24,-644.26C923.37,-639.9 1113.11,-626.32 1167,-593 1208,-567.64 1229,-552.21 1229,-504 1229,-504 1229,-504 1229,-214 1229,-174 1229,-127.65 1229,-99.08"/>
<polygon fill="black" stroke="black" points="1232.5,-99.05 1229,-89.05 1225.5,-99.05 1232.5,-99.05"/>
</g>
<!-- tovsNL_mod -->
<g id="node26" class="node">
<title>tovsNL_mod</title>
<g id="a_node26"><a xlink:href="../modules/tovsNL_mod.html" xlink:title="tovsNL_mod">
<polygon fill="gray" stroke="black" points="1346.5,-593 1257.5,-593 1257.5,-557 1346.5,-557 1346.5,-593"/>
<text text-anchor="middle" x="1302" y="-571.3" font-family="Times,serif" font-size="14.00">tovsNL_mod</text>
</a>
</g>
</g>
<!-- midas_var&#45;&gt;tovsNL_mod -->
<g id="edge25" class="edge">
<title>midas_var&#45;&gt;tovsNL_mod</title>
<path fill="none" stroke="black" d="M842.24,-643.52C918.2,-638 1096.25,-622.82 1243,-593 1244.47,-592.7 1245.95,-592.38 1247.45,-592.05"/>
<polygon fill="black" stroke="black" points="1248.5,-595.4 1257.41,-589.66 1246.87,-588.59 1248.5,-595.4"/>
</g>
<!-- utilities_mod -->
<g id="node27" class="node">
<title>utilities_mod</title>
<g id="a_node27"><a xlink:href="../modules/utilities_mod.svg" xlink:title="utilities_mod">
<polygon fill="none" stroke="red" points="1384.5,-521 1295.5,-521 1295.5,-485 1384.5,-485 1384.5,-521"/>
<text text-anchor="middle" x="1340" y="-499.3" font-family="Times,serif" font-size="14.00">utilities_mod</text>
</a>
</g>
</g>
<!-- midas_var&#45;&gt;utilities_mod -->
<g id="edge26" class="edge">
<title>midas_var&#45;&gt;utilities_mod</title>
<path fill="none" stroke="black" d="M842.18,-645.25C960.19,-642.47 1320.53,-630.95 1355,-593 1370.3,-576.15 1363.41,-549.78 1354.59,-530.11"/>
<polygon fill="black" stroke="black" points="1357.71,-528.52 1350.19,-521.06 1351.41,-531.58 1357.71,-528.52"/>
</g>
<!-- varQC_mod -->
<g id="node28" class="node">
<title>varQC_mod</title>
<g id="a_node28"><a xlink:href="../modules/varQC_mod.html" xlink:title="varQC_mod">
<polygon fill="gray" stroke="black" points="1439,-449 1355,-449 1355,-413 1439,-413 1439,-449"/>
<text text-anchor="middle" x="1397" y="-427.3" font-family="Times,serif" font-size="14.00">varQC_mod</text>
</a>
</g>
</g>
<!-- midas_var&#45;&gt;varQC_mod -->
<g id="edge27" class="edge">
<title>midas_var&#45;&gt;varQC_mod</title>
<path fill="none" stroke="black" d="M842.23,-644.97C962.23,-641.33 1333.45,-627.35 1374,-593 1412.24,-560.61 1408.51,-495.75 1402.63,-459.01"/>
<polygon fill="black" stroke="black" points="1406.05,-458.24 1400.86,-449.01 1399.15,-459.46 1406.05,-458.24"/>
</g>
<!-- version_mod -->
<g id="node29" class="node">
<title>version_mod</title>
<g id="a_node29"><a xlink:href="../modules/version_mod.html" xlink:title="version_mod">
<polygon fill="gray" stroke="black" points="1511,-377 1423,-377 1423,-341 1511,-341 1511,-377"/>
<text text-anchor="middle" x="1467" y="-355.3" font-family="Times,serif" font-size="14.00">version_mod</text>
</a>
</g>
</g>
<!-- midas_var&#45;&gt;version_mod -->
<g id="edge28" class="edge">
<title>midas_var&#45;&gt;version_mod</title>
<path fill="none" stroke="black" d="M842.1,-645.03C965.41,-641.49 1356.22,-627.61 1400,-593 1463.37,-542.9 1469.38,-436.97 1468.42,-387.07"/>
<polygon fill="black" stroke="black" points="1471.92,-386.93 1468.12,-377.04 1464.92,-387.14 1471.92,-386.93"/>
</g>
<!-- verticalCoord_mod -->
<g id="node30" class="node">
<title>verticalCoord_mod</title>
<g id="a_node30"><a xlink:href="../modules/verticalCoord_mod.html" xlink:title="verticalCoord_mod">
<polygon fill="gray" stroke="black" points="1600.5,-305 1477.5,-305 1477.5,-269 1600.5,-269 1600.5,-305"/>
<text text-anchor="middle" x="1539" y="-283.3" font-family="Times,serif" font-size="14.00">verticalCoord_mod</text>
</a>
</g>
</g>
<!-- midas_var&#45;&gt;verticalCoord_mod -->
<g id="edge29" class="edge">
<title>midas_var&#45;&gt;verticalCoord_mod</title>
<path fill="none" stroke="black" d="M842.05,-645.71C959.52,-644.35 1322.25,-636.62 1430,-593 1487.97,-569.53 1539,-566.54 1539,-504 1539,-504 1539,-504 1539,-430 1539,-390 1539,-343.65 1539,-315.08"/>
<polygon fill="black" stroke="black" points="1542.5,-315.05 1539,-305.05 1535.5,-315.05 1542.5,-315.05"/>
</g>
</g>
</svg>
