<?xml version="1.0" encoding="UTF-8" standalone="no"?>
<!DOCTYPE svg PUBLIC "-//W3C//DTD SVG 1.1//EN"
 "http://www.w3.org/Graphics/SVG/1.1/DTD/svg11.dtd">
<!-- Generated by graphviz version 3.0.0 (20220315.2325)
 -->
<!-- Title: midas_diagHBHt Pages: 1 -->
<svg width="1244pt" height="673pt"
 viewBox="0.00 0.00 1244.00 673.00" xmlns="http://www.w3.org/2000/svg" xmlns:xlink="http://www.w3.org/1999/xlink">
<g id="graph0" class="graph" transform="scale(1 1) rotate(0) translate(4 669)">
<title>midas_diagHBHt</title>
<polygon fill="white" stroke="transparent" points="-4,4 -4,-669 1240,-669 1240,4 -4,4"/>
<text text-anchor="middle" x="618" y="-37.8" font-family="Times,serif" font-size="14.00">Red boxes indicate modules with dependencies not shown</text>
<text text-anchor="middle" x="618" y="-22.8" font-family="Times,serif" font-size="14.00">Lower level dependencies can be shown by clicking on a red box</text>
<text text-anchor="middle" x="618" y="-7.8" font-family="Times,serif" font-size="14.00">Shaded boxes indicate modules with no dependencies</text>
<!-- midas_diagHBHt -->
<g id="node1" class="node">
<title>midas_diagHBHt</title>
<g id="a_node1"><a xlink:href="midas_diagHBHt.html" xlink:title="midas_diagHBHt">
<polygon fill="none" stroke="black" points="683.5,-665 571.5,-665 571.5,-629 683.5,-629 683.5,-665"/>
<text text-anchor="middle" x="627.5" y="-643.3" font-family="Times,serif" font-size="14.00">midas_diagHBHt</text>
</a>
</g>
</g>
<!-- bMatrix_mod -->
<g id="node2" class="node">
<title>bMatrix_mod</title>
<g id="a_node2"><a xlink:href="../modules/bMatrix_mod.html" xlink:title="bMatrix_mod">
<polygon fill="gray" stroke="black" points="93,-593 0,-593 0,-557 93,-557 93,-593"/>
<text text-anchor="middle" x="46.5" y="-571.3" font-family="Times,serif" font-size="14.00">bMatrix_mod</text>
</a>
</g>
</g>
<!-- midas_diagHBHt&#45;&gt;bMatrix_mod -->
<g id="edge1" class="edge">
<title>midas_diagHBHt&#45;&gt;bMatrix_mod</title>
<path fill="none" stroke="black" d="M571.26,-643.41C475.39,-638.29 274.47,-624.54 107.5,-593 106.05,-592.73 104.58,-592.43 103.1,-592.13"/>
<polygon fill="black" stroke="black" points="103.79,-588.69 93.27,-589.9 102.25,-595.52 103.79,-588.69"/>
</g>
<!-- codePrecision_mod -->
<g id="node3" class="node">
<title>codePrecision_mod</title>
<g id="a_node3"><a xlink:href="../modules/codePrecision_mod.html" xlink:title="codePrecision_mod">
<polygon fill="gray" stroke="black" points="157.5,-521 33.5,-521 33.5,-485 157.5,-485 157.5,-521"/>
<text text-anchor="middle" x="95.5" y="-499.3" font-family="Times,serif" font-size="14.00">codePrecision_mod</text>
</a>
</g>
</g>
<!-- midas_diagHBHt&#45;&gt;codePrecision_mod -->
<g id="edge2" class="edge">
<title>midas_diagHBHt&#45;&gt;codePrecision_mod</title>
<path fill="none" stroke="black" d="M571.4,-644.55C465.25,-641 239.54,-629.28 171.5,-593 144.64,-578.68 123.19,-550.63 110.01,-529.84"/>
<polygon fill="black" stroke="black" points="112.91,-527.87 104.72,-521.15 106.93,-531.51 112.91,-527.87"/>
</g>
<!-- columnData_mod -->
<g id="node4" class="node">
<title>columnData_mod</title>
<g id="a_node4"><a xlink:href="../modules/columnData_mod.html" xlink:title="columnData_mod">
<polygon fill="gray" stroke="black" points="195,-449 80,-449 80,-413 195,-413 195,-449"/>
<text text-anchor="middle" x="137.5" y="-427.3" font-family="Times,serif" font-size="14.00">columnData_mod</text>
</a>
</g>
</g>
<!-- midas_diagHBHt&#45;&gt;columnData_mod -->
<g id="edge3" class="edge">
<title>midas_diagHBHt&#45;&gt;columnData_mod</title>
<path fill="none" stroke="black" d="M571.42,-645.76C470.77,-644.25 264.8,-635.83 209.5,-593 168.65,-561.36 188.5,-531.75 166.5,-485 162.35,-476.17 157.38,-466.77 152.75,-458.36"/>
<polygon fill="black" stroke="black" points="155.66,-456.4 147.71,-449.39 149.55,-459.82 155.66,-456.4"/>
</g>
<!-- controlVector_mod -->
<g id="node5" class="node">
<title>controlVector_mod</title>
<g id="a_node5"><a xlink:href="../modules/controlVector_mod.html" xlink:title="controlVector_mod">
<polygon fill="gray" stroke="black" points="233.5,-377 111.5,-377 111.5,-341 233.5,-341 233.5,-377"/>
<text text-anchor="middle" x="172.5" y="-355.3" font-family="Times,serif" font-size="14.00">controlVector_mod</text>
</a>
</g>
</g>
<!-- midas_diagHBHt&#45;&gt;controlVector_mod -->
<g id="edge4" class="edge">
<title>midas_diagHBHt&#45;&gt;controlVector_mod</title>
<path fill="none" stroke="black" d="M571.14,-645.65C477.12,-643.88 293.96,-634.98 247.5,-593 186.4,-537.78 234.39,-489.34 203.5,-413 199.74,-403.71 194.56,-394.1 189.52,-385.65"/>
<polygon fill="black" stroke="black" points="192.4,-383.67 184.16,-377.01 186.45,-387.36 192.4,-383.67"/>
</g>
<!-- gridStateVectorFileIO_mod -->
<g id="node6" class="node">
<title>gridStateVectorFileIO_mod</title>
<g id="a_node6"><a xlink:href="../modules/gridStateVectorFileIO_mod.html" xlink:title="gridStateVectorFileIO_mod">
<polygon fill="gray" stroke="black" points="271.5,-305 101.5,-305 101.5,-269 271.5,-269 271.5,-305"/>
<text text-anchor="middle" x="186.5" y="-283.3" font-family="Times,serif" font-size="14.00">gridStateVectorFileIO_mod</text>
</a>
</g>
</g>
<!-- midas_diagHBHt&#45;&gt;gridStateVectorFileIO_mod -->
<g id="edge5" class="edge">
<title>midas_diagHBHt&#45;&gt;gridStateVectorFileIO_mod</title>
<path fill="none" stroke="black" d="M571.33,-644.53C485.34,-641.13 326.67,-629.89 285.5,-593 254.99,-565.66 261.5,-544.97 261.5,-504 261.5,-504 261.5,-504 261.5,-430 261.5,-389.55 262.3,-376.27 242.5,-341 236.36,-330.06 227.2,-320.02 218.07,-311.7"/>
<polygon fill="black" stroke="black" points="220.32,-309.02 210.46,-305.12 215.74,-314.31 220.32,-309.02"/>
</g>
<!-- gridStateVector_mod -->
<g id="node7" class="node">
<title>gridStateVector_mod</title>
<g id="a_node7"><a xlink:href="../modules/gridStateVector_mod.html" xlink:title="gridStateVector_mod">
<polygon fill="gray" stroke="black" points="309.5,-233 175.5,-233 175.5,-197 309.5,-197 309.5,-233"/>
<text text-anchor="middle" x="242.5" y="-211.3" font-family="Times,serif" font-size="14.00">gridStateVector_mod</text>
</a>
</g>
</g>
<!-- midas_diagHBHt&#45;&gt;gridStateVector_mod -->
<g id="edge6" class="edge">
<title>midas_diagHBHt&#45;&gt;gridStateVector_mod</title>
<path fill="none" stroke="black" d="M571.47,-643.3C493.8,-638.4 358.96,-625.38 323.5,-593 293.25,-565.38 299.5,-544.97 299.5,-504 299.5,-504 299.5,-504 299.5,-358 299.5,-317.55 296.85,-305.99 280.5,-269 276.17,-259.21 269.86,-249.43 263.62,-240.98"/>
<polygon fill="black" stroke="black" points="266.36,-238.8 257.48,-233.03 260.82,-243.08 266.36,-238.8"/>
</g>
<!-- gridVariableTransforms_mod -->
<g id="node8" class="node">
<title>gridVariableTransforms_mod</title>
<g id="a_node8"><a xlink:href="../modules/gridVariableTransforms_mod.html" xlink:title="gridVariableTransforms_mod">
<polygon fill="gray" stroke="black" points="347,-161 166,-161 166,-125 347,-125 347,-161"/>
<text text-anchor="middle" x="256.5" y="-139.3" font-family="Times,serif" font-size="14.00">gridVariableTransforms_mod</text>
</a>
</g>
</g>
<!-- midas_diagHBHt&#45;&gt;gridVariableTransforms_mod -->
<g id="edge7" class="edge">
<title>midas_diagHBHt&#45;&gt;gridVariableTransforms_mod</title>
<path fill="none" stroke="black" d="M571.43,-641.7C502.59,-635.29 391.29,-620.86 361.5,-593 331.58,-565.01 337.5,-544.97 337.5,-504 337.5,-504 337.5,-504 337.5,-286 337.5,-245.55 339.19,-231.76 318.5,-197 311.76,-185.67 301.72,-175.57 291.67,-167.31"/>
<polygon fill="black" stroke="black" points="293.72,-164.46 283.67,-161.08 289.42,-169.99 293.72,-164.46"/>
</g>
<!-- horizontalCoord_mod -->
<g id="node9" class="node">
<title>horizontalCoord_mod</title>
<g id="a_node9"><a xlink:href="../modules/horizontalCoord_mod.html" xlink:title="horizontalCoord_mod">
<polygon fill="gray" stroke="black" points="444,-89 307,-89 307,-53 444,-53 444,-89"/>
<text text-anchor="middle" x="375.5" y="-67.3" font-family="Times,serif" font-size="14.00">horizontalCoord_mod</text>
</a>
</g>
</g>
<!-- midas_diagHBHt&#45;&gt;horizontalCoord_mod -->
<g id="edge8" class="edge">
<title>midas_diagHBHt&#45;&gt;horizontalCoord_mod</title>
<path fill="none" stroke="black" d="M571.28,-639.34C512.54,-631.28 425.63,-615.87 401.5,-593 371.59,-564.66 375.5,-545.21 375.5,-504 375.5,-504 375.5,-504 375.5,-214 375.5,-174 375.5,-127.65 375.5,-99.08"/>
<polygon fill="black" stroke="black" points="379,-99.05 375.5,-89.05 372,-99.05 379,-99.05"/>
</g>
<!-- innovation_mod -->
<g id="node10" class="node">
<title>innovation_mod</title>
<g id="a_node10"><a xlink:href="../modules/innovation_mod.svg" xlink:title="innovation_mod">
<polygon fill="none" stroke="red" points="516.5,-593 410.5,-593 410.5,-557 516.5,-557 516.5,-593"/>
<text text-anchor="middle" x="463.5" y="-571.3" font-family="Times,serif" font-size="14.00">innovation_mod</text>
</a>
</g>
</g>
<!-- midas_diagHBHt&#45;&gt;innovation_mod -->
<g id="edge9" class="edge">
<title>midas_diagHBHt&#45;&gt;innovation_mod</title>
<path fill="none" stroke="black" d="M587.38,-628.88C564.86,-619.26 536.58,-607.19 512.73,-597.01"/>
<polygon fill="black" stroke="black" points="514.06,-593.77 503.49,-593.07 511.31,-600.21 514.06,-593.77"/>
</g>
<!-- MathPhysConstants_mod -->
<g id="node11" class="node">
<title>MathPhysConstants_mod</title>
<g id="a_node11"><a xlink:href="../modules/MathPhysConstants_mod.html" xlink:title="MathPhysConstants_mod">
<polygon fill="gray" stroke="black" points="561,-521 404,-521 404,-485 561,-485 561,-521"/>
<text text-anchor="middle" x="482.5" y="-499.3" font-family="Times,serif" font-size="14.00">MathPhysConstants_mod</text>
</a>
</g>
</g>
<!-- midas_diagHBHt&#45;&gt;MathPhysConstants_mod -->
<g id="edge10" class="edge">
<title>midas_diagHBHt&#45;&gt;MathPhysConstants_mod</title>
<path fill="none" stroke="black" d="M610.01,-628.87C584.43,-603.82 536.67,-557.05 507.42,-528.41"/>
<polygon fill="black" stroke="black" points="509.65,-525.69 500.05,-521.19 504.75,-530.69 509.65,-525.69"/>
</g>
<!-- midasMpi_mod -->
<g id="node12" class="node">
<title>midasMpi_mod</title>
<g id="a_node12"><a xlink:href="../modules/midasMpi_mod.html" xlink:title="midasMpi_mod">
<polygon fill="gray" stroke="black" points="599.5,-449 495.5,-449 495.5,-413 599.5,-413 599.5,-449"/>
<text text-anchor="middle" x="547.5" y="-427.3" font-family="Times,serif" font-size="14.00">midasMpi_mod</text>
</a>
</g>
</g>
<!-- midas_diagHBHt&#45;&gt;midasMpi_mod -->
<g id="edge11" class="edge">
<title>midas_diagHBHt&#45;&gt;midasMpi_mod</title>
<path fill="none" stroke="black" d="M621.67,-628.98C611.5,-599.5 589.68,-537.08 569.5,-485 566.14,-476.32 562.3,-466.92 558.78,-458.47"/>
<polygon fill="black" stroke="black" points="561.94,-456.97 554.84,-449.1 555.49,-459.68 561.94,-456.97"/>
</g>
<!-- obsErrors_mod -->
<g id="node13" class="node">
<title>obsErrors_mod</title>
<g id="a_node13"><a xlink:href="../modules/obsErrors_mod.html" xlink:title="obsErrors_mod">
<polygon fill="gray" stroke="black" points="637,-377 536,-377 536,-341 637,-341 637,-377"/>
<text text-anchor="middle" x="586.5" y="-355.3" font-family="Times,serif" font-size="14.00">obsErrors_mod</text>
</a>
</g>
</g>
<!-- midas_diagHBHt&#45;&gt;obsErrors_mod -->
<g id="edge12" class="edge">
<title>midas_diagHBHt&#45;&gt;obsErrors_mod</title>
<path fill="none" stroke="black" d="M627.91,-628.76C628.45,-589.73 627.59,-491.89 608.5,-413 606.34,-404.09 602.9,-394.74 599.36,-386.42"/>
<polygon fill="black" stroke="black" points="602.52,-384.91 595.25,-377.2 596.13,-387.76 602.52,-384.91"/>
</g>
<!-- obsFiles_mod -->
<g id="node14" class="node">
<title>obsFiles_mod</title>
<g id="a_node14"><a xlink:href="../modules/obsFiles_mod.html" xlink:title="obsFiles_mod">
<polygon fill="gray" stroke="black" points="675,-305 582,-305 582,-269 675,-269 675,-305"/>
<text text-anchor="middle" x="628.5" y="-283.3" font-family="Times,serif" font-size="14.00">obsFiles_mod</text>
</a>
</g>
</g>
<!-- midas_diagHBHt&#45;&gt;obsFiles_mod -->
<g id="edge13" class="edge">
<title>midas_diagHBHt&#45;&gt;obsFiles_mod</title>
<path fill="none" stroke="black" d="M635.19,-628.91C646.29,-602.62 665.5,-550.45 665.5,-504 665.5,-504 665.5,-504 665.5,-430 665.5,-388.71 650.67,-342.77 639.78,-314.63"/>
<polygon fill="black" stroke="black" points="642.94,-313.11 635.99,-305.11 636.44,-315.7 642.94,-313.11"/>
</g>
<!-- obsOperators_mod -->
<g id="node15" class="node">
<title>obsOperators_mod</title>
<g id="a_node15"><a xlink:href="../modules/obsOperators_mod.html" xlink:title="obsOperators_mod">
<polygon fill="gray" stroke="black" points="713.5,-233 593.5,-233 593.5,-197 713.5,-197 713.5,-233"/>
<text text-anchor="middle" x="653.5" y="-211.3" font-family="Times,serif" font-size="14.00">obsOperators_mod</text>
</a>
</g>
</g>
<!-- midas_diagHBHt&#45;&gt;obsOperators_mod -->
<g id="edge14" class="edge">
<title>midas_diagHBHt&#45;&gt;obsOperators_mod</title>
<path fill="none" stroke="black" d="M643.99,-628.77C666.34,-603.53 703.5,-554.05 703.5,-504 703.5,-504 703.5,-504 703.5,-358 703.5,-317.46 698.09,-306.83 683.5,-269 679.92,-259.73 674.93,-250.12 670.04,-241.67"/>
<polygon fill="black" stroke="black" points="673,-239.8 664.85,-233.03 667,-243.4 673,-239.8"/>
</g>
<!-- obsSpaceData_mod -->
<g id="node16" class="node">
<title>obsSpaceData_mod</title>
<g id="a_node16"><a xlink:href="../modules/obsSpaceData_mod.html" xlink:title="obsSpaceData_mod">
<polygon fill="gray" stroke="black" points="751,-161 626,-161 626,-125 751,-125 751,-161"/>
<text text-anchor="middle" x="688.5" y="-139.3" font-family="Times,serif" font-size="14.00">obsSpaceData_mod</text>
</a>
</g>
</g>
<!-- midas_diagHBHt&#45;&gt;obsSpaceData_mod -->
<g id="edge15" class="edge">
<title>midas_diagHBHt&#45;&gt;obsSpaceData_mod</title>
<path fill="none" stroke="black" d="M654.52,-628.96C688.23,-605.37 741.5,-559.33 741.5,-504 741.5,-504 741.5,-504 741.5,-286 741.5,-245.55 737.89,-234.4 722.5,-197 718.61,-187.55 713.02,-177.93 707.5,-169.52"/>
<polygon fill="black" stroke="black" points="710.38,-167.54 701.84,-161.27 704.61,-171.49 710.38,-167.54"/>
</g>
<!-- obsTimeInterp_mod -->
<g id="node17" class="node">
<title>obsTimeInterp_mod</title>
<g id="a_node17"><a xlink:href="../modules/obsTimeInterp_mod.html" xlink:title="obsTimeInterp_mod">
<polygon fill="gray" stroke="black" points="844,-89 715,-89 715,-53 844,-53 844,-89"/>
<text text-anchor="middle" x="779.5" y="-67.3" font-family="Times,serif" font-size="14.00">obsTimeInterp_mod</text>
</a>
</g>
</g>
<!-- midas_diagHBHt&#45;&gt;obsTimeInterp_mod -->
<g id="edge16" class="edge">
<title>midas_diagHBHt&#45;&gt;obsTimeInterp_mod</title>
<path fill="none" stroke="black" d="M668.63,-628.9C713.65,-607.12 779.5,-564.85 779.5,-504 779.5,-504 779.5,-504 779.5,-214 779.5,-174 779.5,-127.65 779.5,-99.08"/>
<polygon fill="black" stroke="black" points="783,-99.05 779.5,-89.05 776,-99.05 783,-99.05"/>
</g>
<!-- ramDisk_mod -->
<g id="node18" class="node">
<title>ramDisk_mod</title>
<g id="a_node18"><a xlink:href="../modules/ramDisk_mod.html" xlink:title="ramDisk_mod">
<polygon fill="gray" stroke="black" points="903,-593 808,-593 808,-557 903,-557 903,-593"/>
<text text-anchor="middle" x="855.5" y="-571.3" font-family="Times,serif" font-size="14.00">ramDisk_mod</text>
</a>
</g>
</g>
<!-- midas_diagHBHt&#45;&gt;ramDisk_mod -->
<g id="edge17" class="edge">
<title>midas_diagHBHt&#45;&gt;ramDisk_mod</title>
<path fill="none" stroke="black" d="M682.98,-628.97C717.92,-618.24 762.93,-604.42 798.21,-593.59"/>
<polygon fill="black" stroke="black" points="799.35,-596.9 807.88,-590.62 797.3,-590.21 799.35,-596.9"/>
</g>
<!-- randomNumber_mod -->
<g id="node19" class="node">
<title>randomNumber_mod</title>
<g id="a_node19"><a xlink:href="../modules/randomNumber_mod.html" xlink:title="randomNumber_mod">
<polygon fill="gray" stroke="black" points="943,-521 808,-521 808,-485 943,-485 943,-521"/>
<text text-anchor="middle" x="875.5" y="-499.3" font-family="Times,serif" font-size="14.00">randomNumber_mod</text>
</a>
</g>
</g>
<!-- midas_diagHBHt&#45;&gt;randomNumber_mod -->
<g id="edge18" class="edge">
<title>midas_diagHBHt&#45;&gt;randomNumber_mod</title>
<path fill="none" stroke="black" d="M683.53,-643.75C757.88,-639.45 883.1,-627.19 911.5,-593 926.99,-574.35 913.25,-548.16 898.5,-529.01"/>
<polygon fill="black" stroke="black" points="901.01,-526.56 891.98,-521.03 895.59,-530.99 901.01,-526.56"/>
</g>
<!-- stateToColumn_mod -->
<g id="node20" class="node">
<title>stateToColumn_mod</title>
<g id="a_node20"><a xlink:href="../modules/stateToColumn_mod.html" xlink:title="stateToColumn_mod">
<polygon fill="gray" stroke="black" points="981,-449 850,-449 850,-413 981,-413 981,-449"/>
<text text-anchor="middle" x="915.5" y="-427.3" font-family="Times,serif" font-size="14.00">stateToColumn_mod</text>
</a>
</g>
</g>
<!-- midas_diagHBHt&#45;&gt;stateToColumn_mod -->
<g id="edge19" class="edge">
<title>midas_diagHBHt&#45;&gt;stateToColumn_mod</title>
<path fill="none" stroke="black" d="M683.67,-643.04C760.75,-637.86 893.86,-624.51 929.5,-593 966.2,-560.55 965.9,-531.82 951.5,-485 948.49,-475.22 942.99,-465.62 937.18,-457.33"/>
<polygon fill="black" stroke="black" points="939.91,-455.13 931.11,-449.23 934.31,-459.33 939.91,-455.13"/>
</g>
<!-- timeCoord_mod -->
<g id="node21" class="node">
<title>timeCoord_mod</title>
<g id="a_node21"><a xlink:href="../modules/timeCoord_mod.html" xlink:title="timeCoord_mod">
<polygon fill="gray" stroke="black" points="1019,-377 912,-377 912,-341 1019,-341 1019,-377"/>
<text text-anchor="middle" x="965.5" y="-355.3" font-family="Times,serif" font-size="14.00">timeCoord_mod</text>
</a>
</g>
</g>
<!-- midas_diagHBHt&#45;&gt;timeCoord_mod -->
<g id="edge20" class="edge">
<title>midas_diagHBHt&#45;&gt;timeCoord_mod</title>
<path fill="none" stroke="black" d="M683.61,-644.4C767.25,-640.82 918.91,-629.36 957.5,-593 1016.64,-537.28 1006.65,-492.42 989.5,-413 987.54,-403.92 983.89,-394.52 980.01,-386.2"/>
<polygon fill="black" stroke="black" points="983.04,-384.42 975.45,-377.02 976.77,-387.53 983.04,-384.42"/>
</g>
<!-- utilities_mod -->
<g id="node22" class="node">
<title>utilities_mod</title>
<g id="a_node22"><a xlink:href="../modules/utilities_mod.svg" xlink:title="utilities_mod">
<polygon fill="none" stroke="red" points="1074,-305 985,-305 985,-269 1074,-269 1074,-305"/>
<text text-anchor="middle" x="1029.5" y="-283.3" font-family="Times,serif" font-size="14.00">utilities_mod</text>
</a>
</g>
</g>
<!-- midas_diagHBHt&#45;&gt;utilities_mod -->
<g id="edge21" class="edge">
<title>midas_diagHBHt&#45;&gt;utilities_mod</title>
<path fill="none" stroke="black" d="M683.62,-643.15C771.6,-637.8 937.07,-623.87 986.5,-593 1027.17,-567.6 1047.5,-551.95 1047.5,-504 1047.5,-504 1047.5,-504 1047.5,-430 1047.5,-389.9 1040.35,-343.92 1035.06,-315.42"/>
<polygon fill="black" stroke="black" points="1038.46,-314.56 1033.14,-305.4 1031.58,-315.88 1038.46,-314.56"/>
</g>
<!-- version_mod -->
<g id="node23" class="node">
<title>version_mod</title>
<g id="a_node23"><a xlink:href="../modules/version_mod.html" xlink:title="version_mod">
<polygon fill="gray" stroke="black" points="1146.5,-233 1058.5,-233 1058.5,-197 1146.5,-197 1146.5,-233"/>
<text text-anchor="middle" x="1102.5" y="-211.3" font-family="Times,serif" font-size="14.00">version_mod</text>
</a>
</g>
</g>
<!-- midas_diagHBHt&#45;&gt;version_mod -->
<g id="edge22" class="edge">
<title>midas_diagHBHt&#45;&gt;version_mod</title>
<path fill="none" stroke="black" d="M683.54,-643.29C778.36,-637.93 965.79,-623.71 1023.5,-593 1070.19,-568.16 1102.5,-556.89 1102.5,-504 1102.5,-504 1102.5,-504 1102.5,-358 1102.5,-318 1102.5,-271.65 1102.5,-243.08"/>
<polygon fill="black" stroke="black" points="1106,-243.05 1102.5,-233.05 1099,-243.05 1106,-243.05"/>
</g>
<!-- verticalCoord_mod -->
<g id="node24" class="node">
<title>verticalCoord_mod</title>
<g id="a_node24"><a xlink:href="../modules/verticalCoord_mod.html" xlink:title="verticalCoord_mod">
<polygon fill="gray" stroke="black" points="1236,-161 1113,-161 1113,-125 1236,-125 1236,-161"/>
<text text-anchor="middle" x="1174.5" y="-139.3" font-family="Times,serif" font-size="14.00">verticalCoord_mod</text>
</a>
</g>
</g>
<!-- midas_diagHBHt&#45;&gt;verticalCoord_mod -->
<g id="edge23" class="edge">
<title>midas_diagHBHt&#45;&gt;verticalCoord_mod</title>
<path fill="none" stroke="black" d="M683.53,-643.2C786.08,-637.43 999.67,-622.23 1067.5,-593 1124.31,-568.52 1174.5,-565.86 1174.5,-504 1174.5,-504 1174.5,-504 1174.5,-286 1174.5,-246 1174.5,-199.65 1174.5,-171.08"/>
<polygon fill="black" stroke="black" points="1178,-171.05 1174.5,-161.05 1171,-171.05 1178,-171.05"/>
</g>
</g>
</svg>
