<?xml version="1.0" encoding="UTF-8" standalone="no"?>
<!DOCTYPE svg PUBLIC "-//W3C//DTD SVG 1.1//EN"
 "http://www.w3.org/Graphics/SVG/1.1/DTD/svg11.dtd">
<!-- Generated by graphviz version 3.0.0 (20220315.2325)
 -->
<!-- Title: midas_diagBmatrix Pages: 1 -->
<svg width="1025pt" height="673pt"
 viewBox="0.00 0.00 1025.00 673.00" xmlns="http://www.w3.org/2000/svg" xmlns:xlink="http://www.w3.org/1999/xlink">
<g id="graph0" class="graph" transform="scale(1 1) rotate(0) translate(4 669)">
<title>midas_diagBmatrix</title>
<polygon fill="white" stroke="transparent" points="-4,4 -4,-669 1021,-669 1021,4 -4,4"/>
<text text-anchor="middle" x="508.5" y="-37.8" font-family="Times,serif" font-size="14.00">Red boxes indicate modules with dependencies not shown</text>
<text text-anchor="middle" x="508.5" y="-22.8" font-family="Times,serif" font-size="14.00">Lower level dependencies can be shown by clicking on a red box</text>
<text text-anchor="middle" x="508.5" y="-7.8" font-family="Times,serif" font-size="14.00">Shaded boxes indicate modules with no dependencies</text>
<!-- midas_diagBmatrix -->
<g id="node1" class="node">
<title>midas_diagBmatrix</title>
<g id="a_node1"><a xlink:href="midas_diagBmatrix.html" xlink:title="midas_diagBmatrix">
<polygon fill="none" stroke="black" points="597,-665 472,-665 472,-629 597,-629 597,-665"/>
<text text-anchor="middle" x="534.5" y="-643.3" font-family="Times,serif" font-size="14.00">midas_diagBmatrix</text>
</a>
</g>
</g>
<!-- advection_mod -->
<g id="node2" class="node">
<title>advection_mod</title>
<g id="a_node2"><a xlink:href="../modules/advection_mod.svg" xlink:title="advection_mod">
<polygon fill="none" stroke="red" points="101,-593 0,-593 0,-557 101,-557 101,-593"/>
<text text-anchor="middle" x="50.5" y="-571.3" font-family="Times,serif" font-size="14.00">advection_mod</text>
</a>
</g>
</g>
<!-- midas_diagBmatrix&#45;&gt;advection_mod -->
<g id="edge1" class="edge">
<title>midas_diagBmatrix&#45;&gt;advection_mod</title>
<path fill="none" stroke="black" d="M471.98,-640.65C389.74,-633.03 240.95,-617.23 115.5,-593 114.03,-592.72 112.55,-592.42 111.06,-592.11"/>
<polygon fill="black" stroke="black" points="111.62,-588.65 101.1,-589.91 110.11,-595.48 111.62,-588.65"/>
</g>
<!-- bMatrixEnsemble_mod -->
<g id="node3" class="node">
<title>bMatrixEnsemble_mod</title>
<g id="a_node3"><a xlink:href="../modules/bMatrixEnsemble_mod.html" xlink:title="bMatrixEnsemble_mod">
<polygon fill="gray" stroke="black" points="171,-521 24,-521 24,-485 171,-485 171,-521"/>
<text text-anchor="middle" x="97.5" y="-499.3" font-family="Times,serif" font-size="14.00">bMatrixEnsemble_mod</text>
</a>
</g>
</g>
<!-- midas_diagBmatrix&#45;&gt;bMatrixEnsemble_mod -->
<g id="edge2" class="edge">
<title>midas_diagBmatrix&#45;&gt;bMatrixEnsemble_mod</title>
<path fill="none" stroke="black" d="M471.68,-641.22C385.11,-633.84 234.31,-617.85 185.5,-593 156.4,-578.18 131.13,-550.09 115.23,-529.41"/>
<polygon fill="black" stroke="black" points="118,-527.26 109.21,-521.34 112.39,-531.45 118,-527.26"/>
</g>
<!-- bMatrix_mod -->
<g id="node4" class="node">
<title>bMatrix_mod</title>
<g id="a_node4"><a xlink:href="../modules/bMatrix_mod.html" xlink:title="bMatrix_mod">
<polygon fill="gray" stroke="black" points="209,-449 116,-449 116,-413 209,-413 209,-449"/>
<text text-anchor="middle" x="162.5" y="-427.3" font-family="Times,serif" font-size="14.00">bMatrix_mod</text>
</a>
</g>
</g>
<!-- midas_diagBmatrix&#45;&gt;bMatrix_mod -->
<g id="edge3" class="edge">
<title>midas_diagBmatrix&#45;&gt;bMatrix_mod</title>
<path fill="none" stroke="black" d="M471.91,-642.59C392.25,-637.04 260.5,-623.46 223.5,-593 212.71,-584.12 185.13,-502.3 171.05,-458.84"/>
<polygon fill="black" stroke="black" points="174.34,-457.63 167.94,-449.19 167.68,-459.78 174.34,-457.63"/>
</g>
<!-- controlVector_mod -->
<g id="node5" class="node">
<title>controlVector_mod</title>
<g id="a_node5"><a xlink:href="../modules/controlVector_mod.html" xlink:title="controlVector_mod">
<polygon fill="gray" stroke="black" points="247.5,-377 125.5,-377 125.5,-341 247.5,-341 247.5,-377"/>
<text text-anchor="middle" x="186.5" y="-355.3" font-family="Times,serif" font-size="14.00">controlVector_mod</text>
</a>
</g>
</g>
<!-- midas_diagBmatrix&#45;&gt;controlVector_mod -->
<g id="edge4" class="edge">
<title>midas_diagBmatrix&#45;&gt;controlVector_mod</title>
<path fill="none" stroke="black" d="M471.89,-641.58C400.87,-635.27 291.08,-621.19 261.5,-593 201.89,-536.18 248.39,-489.34 217.5,-413 213.74,-403.71 208.56,-394.1 203.52,-385.65"/>
<polygon fill="black" stroke="black" points="206.4,-383.67 198.16,-377.01 200.45,-387.36 206.4,-383.67"/>
</g>
<!-- ensembleStateVector_mod -->
<g id="node6" class="node">
<title>ensembleStateVector_mod</title>
<g id="a_node6"><a xlink:href="../modules/ensembleStateVector_mod.html" xlink:title="ensembleStateVector_mod">
<polygon fill="gray" stroke="black" points="285,-305 122,-305 122,-269 285,-269 285,-305"/>
<text text-anchor="middle" x="203.5" y="-283.3" font-family="Times,serif" font-size="14.00">ensembleStateVector_mod</text>
</a>
</g>
</g>
<!-- midas_diagBmatrix&#45;&gt;ensembleStateVector_mod -->
<g id="edge5" class="edge">
<title>midas_diagBmatrix&#45;&gt;ensembleStateVector_mod</title>
<path fill="none" stroke="black" d="M471.75,-639.19C410.75,-631.31 323.83,-616.34 299.5,-593 269.93,-564.64 275.5,-544.97 275.5,-504 275.5,-504 275.5,-504 275.5,-430 275.5,-389.55 275.82,-376.54 256.5,-341 250.68,-330.3 242.04,-320.34 233.41,-312.01"/>
<polygon fill="black" stroke="black" points="235.64,-309.31 225.9,-305.13 230.91,-314.47 235.64,-309.31"/>
</g>
<!-- gridStateVectorFileIO_mod -->
<g id="node7" class="node">
<title>gridStateVectorFileIO_mod</title>
<g id="a_node7"><a xlink:href="../modules/gridStateVectorFileIO_mod.html" xlink:title="gridStateVectorFileIO_mod">
<polygon fill="gray" stroke="black" points="323.5,-233 153.5,-233 153.5,-197 323.5,-197 323.5,-233"/>
<text text-anchor="middle" x="238.5" y="-211.3" font-family="Times,serif" font-size="14.00">gridStateVectorFileIO_mod</text>
</a>
</g>
</g>
<!-- midas_diagBmatrix&#45;&gt;gridStateVectorFileIO_mod -->
<g id="edge6" class="edge">
<title>midas_diagBmatrix&#45;&gt;gridStateVectorFileIO_mod</title>
<path fill="none" stroke="black" d="M471.88,-644.85C428.6,-640.71 372.7,-628.18 337.5,-593 308.52,-564.04 313.5,-544.97 313.5,-504 313.5,-504 313.5,-504 313.5,-358 313.5,-317.46 313.38,-304.33 293.5,-269 287.35,-258.08 278.25,-247.99 269.2,-239.62"/>
<polygon fill="black" stroke="black" points="271.51,-236.98 261.69,-233.01 266.88,-242.24 271.51,-236.98"/>
</g>
<!-- gridStateVector_mod -->
<g id="node8" class="node">
<title>gridStateVector_mod</title>
<g id="a_node8"><a xlink:href="../modules/gridStateVector_mod.html" xlink:title="gridStateVector_mod">
<polygon fill="gray" stroke="black" points="361.5,-161 227.5,-161 227.5,-125 361.5,-125 361.5,-161"/>
<text text-anchor="middle" x="294.5" y="-139.3" font-family="Times,serif" font-size="14.00">gridStateVector_mod</text>
</a>
</g>
</g>
<!-- midas_diagBmatrix&#45;&gt;gridStateVector_mod -->
<g id="edge7" class="edge">
<title>midas_diagBmatrix&#45;&gt;gridStateVector_mod</title>
<path fill="none" stroke="black" d="M471.81,-639.35C438.95,-632.71 400.46,-619.46 375.5,-593 347.39,-563.2 351.5,-544.97 351.5,-504 351.5,-504 351.5,-504 351.5,-286 351.5,-245.55 348.85,-233.99 332.5,-197 328.17,-187.21 321.86,-177.43 315.62,-168.98"/>
<polygon fill="black" stroke="black" points="318.36,-166.8 309.48,-161.03 312.82,-171.08 318.36,-166.8"/>
</g>
<!-- gridVariableTransforms_mod -->
<g id="node9" class="node">
<title>gridVariableTransforms_mod</title>
<g id="a_node9"><a xlink:href="../modules/gridVariableTransforms_mod.html" xlink:title="gridVariableTransforms_mod">
<polygon fill="gray" stroke="black" points="480,-89 299,-89 299,-53 480,-53 480,-89"/>
<text text-anchor="middle" x="389.5" y="-67.3" font-family="Times,serif" font-size="14.00">gridVariableTransforms_mod</text>
</a>
</g>
</g>
<!-- midas_diagBmatrix&#45;&gt;gridVariableTransforms_mod -->
<g id="edge8" class="edge">
<title>midas_diagBmatrix&#45;&gt;gridVariableTransforms_mod</title>
<path fill="none" stroke="black" d="M471.94,-632.69C448.9,-624.79 424.54,-612.38 408.5,-593 382.71,-561.84 389.5,-544.45 389.5,-504 389.5,-504 389.5,-504 389.5,-214 389.5,-174 389.5,-127.65 389.5,-99.08"/>
<polygon fill="black" stroke="black" points="393,-99.05 389.5,-89.05 386,-99.05 393,-99.05"/>
</g>
<!-- horizontalCoord_mod -->
<g id="node10" class="node">
<title>horizontalCoord_mod</title>
<g id="a_node10"><a xlink:href="../modules/horizontalCoord_mod.html" xlink:title="horizontalCoord_mod">
<polygon fill="gray" stroke="black" points="555,-593 418,-593 418,-557 555,-557 555,-593"/>
<text text-anchor="middle" x="486.5" y="-571.3" font-family="Times,serif" font-size="14.00">horizontalCoord_mod</text>
</a>
</g>
</g>
<!-- midas_diagBmatrix&#45;&gt;horizontalCoord_mod -->
<g id="edge9" class="edge">
<title>midas_diagBmatrix&#45;&gt;horizontalCoord_mod</title>
<path fill="none" stroke="black" d="M522.63,-628.7C517,-620.47 510.15,-610.48 503.93,-601.42"/>
<polygon fill="black" stroke="black" points="506.77,-599.37 498.23,-593.1 501,-603.33 506.77,-599.37"/>
</g>
<!-- localization_mod -->
<g id="node11" class="node">
<title>localization_mod</title>
<g id="a_node11"><a xlink:href="../modules/localization_mod.svg" xlink:title="localization_mod">
<polygon fill="none" stroke="red" points="593,-521 482,-521 482,-485 593,-485 593,-521"/>
<text text-anchor="middle" x="537.5" y="-499.3" font-family="Times,serif" font-size="14.00">localization_mod</text>
</a>
</g>
</g>
<!-- midas_diagBmatrix&#45;&gt;localization_mod -->
<g id="edge10" class="edge">
<title>midas_diagBmatrix&#45;&gt;localization_mod</title>
<path fill="none" stroke="black" d="M546.81,-628.78C553.15,-618.84 560.23,-605.8 563.5,-593 567.46,-577.5 567.12,-572.59 563.5,-557 561.4,-547.96 557.53,-538.68 553.41,-530.47"/>
<polygon fill="black" stroke="black" points="556.36,-528.55 548.55,-521.39 550.19,-531.86 556.36,-528.55"/>
</g>
<!-- midasMpi_mod -->
<g id="node12" class="node">
<title>midasMpi_mod</title>
<g id="a_node12"><a xlink:href="../modules/midasMpi_mod.html" xlink:title="midasMpi_mod">
<polygon fill="gray" stroke="black" points="631.5,-449 527.5,-449 527.5,-413 631.5,-413 631.5,-449"/>
<text text-anchor="middle" x="579.5" y="-427.3" font-family="Times,serif" font-size="14.00">midasMpi_mod</text>
</a>
</g>
</g>
<!-- midas_diagBmatrix&#45;&gt;midasMpi_mod -->
<g id="edge11" class="edge">
<title>midas_diagBmatrix&#45;&gt;midasMpi_mod</title>
<path fill="none" stroke="black" d="M552.33,-628.73C561.54,-618.98 572.32,-606.13 579.5,-593 595.55,-563.64 596.56,-554.09 601.5,-521 603.86,-505.18 604.63,-500.69 601.5,-485 599.71,-476.01 596.36,-466.64 592.81,-458.32"/>
<polygon fill="black" stroke="black" points="595.96,-456.77 588.63,-449.12 589.58,-459.67 595.96,-456.77"/>
</g>
<!-- ramDisk_mod -->
<g id="node13" class="node">
<title>ramDisk_mod</title>
<g id="a_node13"><a xlink:href="../modules/ramDisk_mod.html" xlink:title="ramDisk_mod">
<polygon fill="gray" stroke="black" points="669,-377 574,-377 574,-341 669,-341 669,-377"/>
<text text-anchor="middle" x="621.5" y="-355.3" font-family="Times,serif" font-size="14.00">ramDisk_mod</text>
</a>
</g>
</g>
<!-- midas_diagBmatrix&#45;&gt;ramDisk_mod -->
<g id="edge12" class="edge">
<title>midas_diagBmatrix&#45;&gt;ramDisk_mod</title>
<path fill="none" stroke="black" d="M563.86,-628.9C577.13,-619.8 591.95,-607.49 601.5,-593 646.57,-524.67 654.52,-493.65 640.5,-413 638.98,-404.24 636.14,-395.01 633.11,-386.75"/>
<polygon fill="black" stroke="black" points="636.29,-385.29 629.39,-377.25 629.78,-387.84 636.29,-385.29"/>
</g>
<!-- randomNumber_mod -->
<g id="node14" class="node">
<title>randomNumber_mod</title>
<g id="a_node14"><a xlink:href="../modules/randomNumber_mod.html" xlink:title="randomNumber_mod">
<polygon fill="gray" stroke="black" points="707,-305 572,-305 572,-269 707,-269 707,-305"/>
<text text-anchor="middle" x="639.5" y="-283.3" font-family="Times,serif" font-size="14.00">randomNumber_mod</text>
</a>
</g>
</g>
<!-- midas_diagBmatrix&#45;&gt;randomNumber_mod -->
<g id="edge13" class="edge">
<title>midas_diagBmatrix&#45;&gt;randomNumber_mod</title>
<path fill="none" stroke="black" d="M580.34,-628.98C628.55,-607.76 697.5,-566.49 697.5,-504 697.5,-504 697.5,-504 697.5,-430 697.5,-389.46 694.09,-377.99 677.5,-341 673.12,-331.24 666.8,-321.46 660.56,-313.01"/>
<polygon fill="black" stroke="black" points="663.31,-310.84 654.43,-305.05 657.76,-315.11 663.31,-310.84"/>
</g>
<!-- timeCoord_mod -->
<g id="node15" class="node">
<title>timeCoord_mod</title>
<g id="a_node15"><a xlink:href="../modules/timeCoord_mod.html" xlink:title="timeCoord_mod">
<polygon fill="gray" stroke="black" points="745,-233 638,-233 638,-197 745,-197 745,-233"/>
<text text-anchor="middle" x="691.5" y="-211.3" font-family="Times,serif" font-size="14.00">timeCoord_mod</text>
</a>
</g>
</g>
<!-- midas_diagBmatrix&#45;&gt;timeCoord_mod -->
<g id="edge14" class="edge">
<title>midas_diagBmatrix&#45;&gt;timeCoord_mod</title>
<path fill="none" stroke="black" d="M597.27,-630.18C656.25,-611.1 735.5,-572.68 735.5,-504 735.5,-504 735.5,-504 735.5,-358 735.5,-316.21 717.9,-270.48 704.96,-242.51"/>
<polygon fill="black" stroke="black" points="708.08,-240.92 700.62,-233.39 701.76,-243.93 708.08,-240.92"/>
</g>
<!-- utilities_mod -->
<g id="node16" class="node">
<title>utilities_mod</title>
<g id="a_node16"><a xlink:href="../modules/utilities_mod.svg" xlink:title="utilities_mod">
<polygon fill="none" stroke="red" points="783,-161 694,-161 694,-125 783,-125 783,-161"/>
<text text-anchor="middle" x="738.5" y="-139.3" font-family="Times,serif" font-size="14.00">utilities_mod</text>
</a>
</g>
</g>
<!-- midas_diagBmatrix&#45;&gt;utilities_mod -->
<g id="edge15" class="edge">
<title>midas_diagBmatrix&#45;&gt;utilities_mod</title>
<path fill="none" stroke="black" d="M597.29,-636.47C668.11,-621.75 773.5,-586.05 773.5,-504 773.5,-504 773.5,-504 773.5,-286 773.5,-244.84 759.47,-198.88 749.17,-170.69"/>
<polygon fill="black" stroke="black" points="752.38,-169.28 745.58,-161.15 745.83,-171.74 752.38,-169.28"/>
</g>
<!-- varNameList_mod -->
<g id="node17" class="node">
<title>varNameList_mod</title>
<g id="a_node17"><a xlink:href="../modules/varNameList_mod.html" xlink:title="varNameList_mod">
<polygon fill="gray" stroke="black" points="871,-89 752,-89 752,-53 871,-53 871,-89"/>
<text text-anchor="middle" x="811.5" y="-67.3" font-family="Times,serif" font-size="14.00">varNameList_mod</text>
</a>
</g>
</g>
<!-- midas_diagBmatrix&#45;&gt;varNameList_mod -->
<g id="edge16" class="edge">
<title>midas_diagBmatrix&#45;&gt;varNameList_mod</title>
<path fill="none" stroke="black" d="M597.01,-641.15C678.71,-631.01 811.5,-599.79 811.5,-504 811.5,-504 811.5,-504 811.5,-214 811.5,-174 811.5,-127.65 811.5,-99.08"/>
<polygon fill="black" stroke="black" points="815,-99.05 811.5,-89.05 808,-99.05 815,-99.05"/>
</g>
<!-- version_mod -->
<g id="node18" class="node">
<title>version_mod</title>
<g id="a_node18"><a xlink:href="../modules/version_mod.html" xlink:title="version_mod">
<polygon fill="gray" stroke="black" points="927.5,-593 839.5,-593 839.5,-557 927.5,-557 927.5,-593"/>
<text text-anchor="middle" x="883.5" y="-571.3" font-family="Times,serif" font-size="14.00">version_mod</text>
</a>
</g>
</g>
<!-- midas_diagBmatrix&#45;&gt;version_mod -->
<g id="edge17" class="edge">
<title>midas_diagBmatrix&#45;&gt;version_mod</title>
<path fill="none" stroke="black" d="M597.05,-636.56C656.25,-627.16 747.42,-611.5 825.5,-593 826.76,-592.7 828.04,-592.39 829.33,-592.07"/>
<polygon fill="black" stroke="black" points="830.5,-595.38 839.29,-589.48 828.73,-588.61 830.5,-595.38"/>
</g>
<!-- verticalCoord_mod -->
<g id="node19" class="node">
<title>verticalCoord_mod</title>
<g id="a_node19"><a xlink:href="../modules/verticalCoord_mod.html" xlink:title="verticalCoord_mod">
<polygon fill="gray" stroke="black" points="1017,-521 894,-521 894,-485 1017,-485 1017,-521"/>
<text text-anchor="middle" x="955.5" y="-499.3" font-family="Times,serif" font-size="14.00">verticalCoord_mod</text>
</a>
</g>
</g>
<!-- midas_diagBmatrix&#45;&gt;verticalCoord_mod -->
<g id="edge18" class="edge">
<title>midas_diagBmatrix&#45;&gt;verticalCoord_mod</title>
<path fill="none" stroke="black" d="M597.04,-646.25C697.48,-645.29 888.35,-637.48 936.5,-593 953.22,-577.55 957.14,-551.29 957.37,-531.29"/>
<polygon fill="black" stroke="black" points="960.87,-531.15 957.19,-521.21 953.87,-531.27 960.87,-531.15"/>
</g>
</g>
</svg>
