<?xml version="1.0" encoding="UTF-8" standalone="no"?>
<!DOCTYPE svg PUBLIC "-//W3C//DTD SVG 1.1//EN"
 "http://www.w3.org/Graphics/SVG/1.1/DTD/svg11.dtd">
<!-- Generated by graphviz version 3.0.0 (20220315.2325)
 -->
<!-- Title: midas_letkf Pages: 1 -->
<svg width="1398pt" height="673pt"
 viewBox="0.00 0.00 1398.00 673.00" xmlns="http://www.w3.org/2000/svg" xmlns:xlink="http://www.w3.org/1999/xlink">
<g id="graph0" class="graph" transform="scale(1 1) rotate(0) translate(4 669)">
<title>midas_letkf</title>
<polygon fill="white" stroke="transparent" points="-4,4 -4,-669 1394,-669 1394,4 -4,4"/>
<text text-anchor="middle" x="695" y="-37.8" font-family="Times,serif" font-size="14.00">Red boxes indicate modules with dependencies not shown</text>
<text text-anchor="middle" x="695" y="-22.8" font-family="Times,serif" font-size="14.00">Lower level dependencies can be shown by clicking on a red box</text>
<text text-anchor="middle" x="695" y="-7.8" font-family="Times,serif" font-size="14.00">Shaded boxes indicate modules with no dependencies</text>
<!-- midas_letkf -->
<g id="node1" class="node">
<title>midas_letkf</title>
<g id="a_node1"><a xlink:href="midas_letkf.html" xlink:title="midas_letkf">
<polygon fill="none" stroke="black" points="734.5,-665 652.5,-665 652.5,-629 734.5,-629 734.5,-665"/>
<text text-anchor="middle" x="693.5" y="-643.3" font-family="Times,serif" font-size="14.00">midas_letkf</text>
</a>
</g>
</g>
<!-- columnData_mod -->
<g id="node2" class="node">
<title>columnData_mod</title>
<g id="a_node2"><a xlink:href="../modules/columnData_mod.html" xlink:title="columnData_mod">
<polygon fill="gray" stroke="black" points="115,-593 0,-593 0,-557 115,-557 115,-593"/>
<text text-anchor="middle" x="57.5" y="-571.3" font-family="Times,serif" font-size="14.00">columnData_mod</text>
</a>
</g>
</g>
<!-- midas_letkf&#45;&gt;columnData_mod -->
<g id="edge1" class="edge">
<title>midas_letkf&#45;&gt;columnData_mod</title>
<path fill="none" stroke="black" d="M652.21,-644.08C558.66,-639.29 323.6,-624.88 129.5,-593 128.03,-592.76 126.55,-592.51 125.06,-592.24"/>
<polygon fill="black" stroke="black" points="125.61,-588.78 115.13,-590.35 124.29,-595.66 125.61,-588.78"/>
</g>
<!-- enkf_mod -->
<g id="node3" class="node">
<title>enkf_mod</title>
<g id="a_node3"><a xlink:href="../modules/enkf_mod.svg" xlink:title="enkf_mod">
<polygon fill="none" stroke="red" points="167,-521 94,-521 94,-485 167,-485 167,-521"/>
<text text-anchor="middle" x="130.5" y="-499.3" font-family="Times,serif" font-size="14.00">enkf_mod</text>
</a>
</g>
</g>
<!-- midas_letkf&#45;&gt;enkf_mod -->
<g id="edge2" class="edge">
<title>midas_letkf&#45;&gt;enkf_mod</title>
<path fill="none" stroke="black" d="M652.15,-646.47C544.55,-646.94 258.84,-643.32 181.5,-593 159.44,-578.64 145.85,-551.2 138.3,-530.56"/>
<polygon fill="black" stroke="black" points="141.61,-529.4 135.08,-521.06 134.98,-531.66 141.61,-529.4"/>
</g>
<!-- ensembleObservations_mod -->
<g id="node4" class="node">
<title>ensembleObservations_mod</title>
<g id="a_node4"><a xlink:href="../modules/ensembleObservations_mod.html" xlink:title="ensembleObservations_mod">
<polygon fill="gray" stroke="black" points="205.5,-449 33.5,-449 33.5,-413 205.5,-413 205.5,-449"/>
<text text-anchor="middle" x="119.5" y="-427.3" font-family="Times,serif" font-size="14.00">ensembleObservations_mod</text>
</a>
</g>
</g>
<!-- midas_letkf&#45;&gt;ensembleObservations_mod -->
<g id="edge3" class="edge">
<title>midas_letkf&#45;&gt;ensembleObservations_mod</title>
<path fill="none" stroke="black" d="M652.24,-646.63C549.78,-647.38 287.11,-644.14 219.5,-593 178.16,-561.73 204.76,-527.78 175.5,-485 168.24,-474.38 158.54,-464.27 149.25,-455.78"/>
<polygon fill="black" stroke="black" points="151.43,-453.03 141.61,-449.05 146.8,-458.28 151.43,-453.03"/>
</g>
<!-- ensembleStateVector_mod -->
<g id="node5" class="node">
<title>ensembleStateVector_mod</title>
<g id="a_node5"><a xlink:href="../modules/ensembleStateVector_mod.html" xlink:title="ensembleStateVector_mod">
<polygon fill="gray" stroke="black" points="243,-377 80,-377 80,-341 243,-341 243,-377"/>
<text text-anchor="middle" x="161.5" y="-355.3" font-family="Times,serif" font-size="14.00">ensembleStateVector_mod</text>
</a>
</g>
</g>
<!-- midas_letkf&#45;&gt;ensembleStateVector_mod -->
<g id="edge4" class="edge">
<title>midas_letkf&#45;&gt;ensembleStateVector_mod</title>
<path fill="none" stroke="black" d="M652.24,-646.76C554.97,-647.66 315.17,-644.47 257.5,-593 196.13,-538.23 254.65,-484.79 214.5,-413 208.56,-402.37 199.87,-392.43 191.25,-384.1"/>
<polygon fill="black" stroke="black" points="193.49,-381.4 183.76,-377.21 188.75,-386.55 193.49,-381.4"/>
</g>
<!-- ensPostProcess_mod -->
<g id="node6" class="node">
<title>ensPostProcess_mod</title>
<g id="a_node6"><a xlink:href="../modules/ensPostProcess_mod.html" xlink:title="ensPostProcess_mod">
<polygon fill="gray" stroke="black" points="281,-305 150,-305 150,-269 281,-269 281,-305"/>
<text text-anchor="middle" x="215.5" y="-283.3" font-family="Times,serif" font-size="14.00">ensPostProcess_mod</text>
</a>
</g>
</g>
<!-- midas_letkf&#45;&gt;ensPostProcess_mod -->
<g id="edge5" class="edge">
<title>midas_letkf&#45;&gt;ensPostProcess_mod</title>
<path fill="none" stroke="black" d="M652.22,-646.1C561.35,-645.46 347.91,-638.96 295.5,-593 264.7,-565.99 271.5,-544.97 271.5,-504 271.5,-504 271.5,-504 271.5,-430 271.5,-389.46 267.62,-378.2 251.5,-341 247.36,-331.46 241.45,-321.81 235.6,-313.41"/>
<polygon fill="black" stroke="black" points="238.32,-311.2 229.61,-305.17 232.66,-315.32 238.32,-311.2"/>
</g>
<!-- fileNames_mod -->
<g id="node7" class="node">
<title>fileNames_mod</title>
<g id="a_node7"><a xlink:href="../modules/fileNames_mod.html" xlink:title="fileNames_mod">
<polygon fill="gray" stroke="black" points="319.5,-233 215.5,-233 215.5,-197 319.5,-197 319.5,-233"/>
<text text-anchor="middle" x="267.5" y="-211.3" font-family="Times,serif" font-size="14.00">fileNames_mod</text>
</a>
</g>
</g>
<!-- midas_letkf&#45;&gt;fileNames_mod -->
<g id="edge6" class="edge">
<title>midas_letkf&#45;&gt;fileNames_mod</title>
<path fill="none" stroke="black" d="M652.36,-645.44C568.12,-643.44 380,-634.35 333.5,-593 302.88,-565.78 309.5,-544.97 309.5,-504 309.5,-504 309.5,-504 309.5,-358 309.5,-316.15 292.51,-270.1 280.15,-242.11"/>
<polygon fill="black" stroke="black" points="283.33,-240.66 276,-233.01 276.96,-243.56 283.33,-240.66"/>
</g>
<!-- gridStateVectorFileIO_mod -->
<g id="node8" class="node">
<title>gridStateVectorFileIO_mod</title>
<g id="a_node8"><a xlink:href="../modules/gridStateVectorFileIO_mod.html" xlink:title="gridStateVectorFileIO_mod">
<polygon fill="gray" stroke="black" points="357.5,-161 187.5,-161 187.5,-125 357.5,-125 357.5,-161"/>
<text text-anchor="middle" x="272.5" y="-139.3" font-family="Times,serif" font-size="14.00">gridStateVectorFileIO_mod</text>
</a>
</g>
</g>
<!-- midas_letkf&#45;&gt;gridStateVectorFileIO_mod -->
<g id="edge7" class="edge">
<title>midas_letkf&#45;&gt;gridStateVectorFileIO_mod</title>
<path fill="none" stroke="black" d="M652.26,-644.63C574.89,-641.2 412.1,-629.72 371.5,-593 341.12,-565.52 347.5,-544.97 347.5,-504 347.5,-504 347.5,-504 347.5,-286 347.5,-245.55 348.3,-232.27 328.5,-197 322.36,-186.06 313.2,-176.02 304.07,-167.7"/>
<polygon fill="black" stroke="black" points="306.32,-165.02 296.46,-161.12 301.74,-170.31 306.32,-165.02"/>
</g>
<!-- gridStateVector_mod -->
<g id="node9" class="node">
<title>gridStateVector_mod</title>
<g id="a_node9"><a xlink:href="../modules/gridStateVector_mod.html" xlink:title="gridStateVector_mod">
<polygon fill="gray" stroke="black" points="452.5,-89 318.5,-89 318.5,-53 452.5,-53 452.5,-89"/>
<text text-anchor="middle" x="385.5" y="-67.3" font-family="Times,serif" font-size="14.00">gridStateVector_mod</text>
</a>
</g>
</g>
<!-- midas_letkf&#45;&gt;gridStateVector_mod -->
<g id="edge8" class="edge">
<title>midas_letkf&#45;&gt;gridStateVector_mod</title>
<path fill="none" stroke="black" d="M652.43,-643.96C581.24,-639.57 439.21,-626.72 404.5,-593 375.49,-564.82 385.5,-544.45 385.5,-504 385.5,-504 385.5,-504 385.5,-214 385.5,-174 385.5,-127.65 385.5,-99.08"/>
<polygon fill="black" stroke="black" points="389,-99.05 385.5,-89.05 382,-99.05 389,-99.05"/>
</g>
<!-- horizontalCoord_mod -->
<g id="node10" class="node">
<title>horizontalCoord_mod</title>
<g id="a_node10"><a xlink:href="../modules/horizontalCoord_mod.html" xlink:title="horizontalCoord_mod">
<polygon fill="gray" stroke="black" points="551,-593 414,-593 414,-557 551,-557 551,-593"/>
<text text-anchor="middle" x="482.5" y="-571.3" font-family="Times,serif" font-size="14.00">horizontalCoord_mod</text>
</a>
</g>
</g>
<!-- midas_letkf&#45;&gt;horizontalCoord_mod -->
<g id="edge9" class="edge">
<title>midas_letkf&#45;&gt;horizontalCoord_mod</title>
<path fill="none" stroke="black" d="M652.32,-632.34C621.4,-622.08 578.57,-607.87 543.66,-596.29"/>
<polygon fill="black" stroke="black" points="544.64,-592.93 534.04,-593.1 542.43,-599.57 544.64,-592.93"/>
</g>
<!-- innovation_mod -->
<g id="node11" class="node">
<title>innovation_mod</title>
<g id="a_node11"><a xlink:href="../modules/innovation_mod.svg" xlink:title="innovation_mod">
<polygon fill="none" stroke="red" points="589.5,-521 483.5,-521 483.5,-485 589.5,-485 589.5,-521"/>
<text text-anchor="middle" x="536.5" y="-499.3" font-family="Times,serif" font-size="14.00">innovation_mod</text>
</a>
</g>
</g>
<!-- midas_letkf&#45;&gt;innovation_mod -->
<g id="edge10" class="edge">
<title>midas_letkf&#45;&gt;innovation_mod</title>
<path fill="none" stroke="black" d="M657.15,-628.82C639.83,-619.62 619.46,-607.25 603.5,-593 582.83,-574.54 564.3,-548.86 552,-529.83"/>
<polygon fill="black" stroke="black" points="554.94,-527.92 546.64,-521.34 549.02,-531.66 554.94,-527.92"/>
</g>
<!-- mathPhysConstants_mod -->
<g id="node12" class="node">
<title>mathPhysConstants_mod</title>
<g id="a_node12"><a xlink:href="../modules/mathPhysConstants_mod.html" xlink:title="mathPhysConstants_mod">
<polygon fill="gray" stroke="black" points="627,-449 472,-449 472,-413 627,-413 627,-449"/>
<text text-anchor="middle" x="549.5" y="-427.3" font-family="Times,serif" font-size="14.00">mathPhysConstants_mod</text>
</a>
</g>
</g>
<!-- midas_letkf&#45;&gt;mathPhysConstants_mod -->
<g id="edge11" class="edge">
<title>midas_letkf&#45;&gt;mathPhysConstants_mod</title>
<path fill="none" stroke="black" d="M673.24,-628.94C662.7,-619.25 650.22,-606.39 641.5,-593 613.3,-549.71 626.06,-528.7 598.5,-485 592.15,-474.94 583.78,-465.05 575.75,-456.59"/>
<polygon fill="black" stroke="black" points="578.04,-453.93 568.54,-449.26 573.05,-458.84 578.04,-453.93"/>
</g>
<!-- midasMpi_mod -->
<g id="node13" class="node">
<title>midasMpi_mod</title>
<g id="a_node13"><a xlink:href="../modules/midasMpi_mod.html" xlink:title="midasMpi_mod">
<polygon fill="gray" stroke="black" points="665.5,-377 561.5,-377 561.5,-341 665.5,-341 665.5,-377"/>
<text text-anchor="middle" x="613.5" y="-355.3" font-family="Times,serif" font-size="14.00">midasMpi_mod</text>
</a>
</g>
</g>
<!-- midas_letkf&#45;&gt;midasMpi_mod -->
<g id="edge12" class="edge">
<title>midas_letkf&#45;&gt;midasMpi_mod</title>
<path fill="none" stroke="black" d="M688.88,-628.84C686.11,-618.47 682.55,-604.99 679.5,-593 659.2,-513.18 661.14,-491.26 635.5,-413 632.65,-404.29 629,-395 625.5,-386.66"/>
<polygon fill="black" stroke="black" points="628.69,-385.21 621.52,-377.41 622.26,-387.98 628.69,-385.21"/>
</g>
<!-- obsErrors_mod -->
<g id="node14" class="node">
<title>obsErrors_mod</title>
<g id="a_node14"><a xlink:href="../modules/obsErrors_mod.html" xlink:title="obsErrors_mod">
<polygon fill="gray" stroke="black" points="703,-305 602,-305 602,-269 703,-269 703,-305"/>
<text text-anchor="middle" x="652.5" y="-283.3" font-family="Times,serif" font-size="14.00">obsErrors_mod</text>
</a>
</g>
</g>
<!-- midas_letkf&#45;&gt;obsErrors_mod -->
<g id="edge13" class="edge">
<title>midas_letkf&#45;&gt;obsErrors_mod</title>
<path fill="none" stroke="black" d="M693.5,-628.95C693.5,-602.29 693.5,-549.11 693.5,-504 693.5,-504 693.5,-504 693.5,-430 693.5,-388.41 677.06,-342.56 665,-314.51"/>
<polygon fill="black" stroke="black" points="668.05,-312.75 660.8,-305.03 661.65,-315.59 668.05,-312.75"/>
</g>
<!-- obsFiles_mod -->
<g id="node15" class="node">
<title>obsFiles_mod</title>
<g id="a_node15"><a xlink:href="../modules/obsFiles_mod.html" xlink:title="obsFiles_mod">
<polygon fill="gray" stroke="black" points="741,-233 648,-233 648,-197 741,-197 741,-233"/>
<text text-anchor="middle" x="694.5" y="-211.3" font-family="Times,serif" font-size="14.00">obsFiles_mod</text>
</a>
</g>
</g>
<!-- midas_letkf&#45;&gt;obsFiles_mod -->
<g id="edge14" class="edge">
<title>midas_letkf&#45;&gt;obsFiles_mod</title>
<path fill="none" stroke="black" d="M701.19,-628.91C712.29,-602.62 731.5,-550.45 731.5,-504 731.5,-504 731.5,-504 731.5,-358 731.5,-316.71 716.67,-270.77 705.78,-242.63"/>
<polygon fill="black" stroke="black" points="708.94,-241.11 701.99,-233.11 702.44,-243.7 708.94,-241.11"/>
</g>
<!-- obsFilter_mod -->
<g id="node16" class="node">
<title>obsFilter_mod</title>
<g id="a_node16"><a xlink:href="../modules/obsFilter_mod.html" xlink:title="obsFilter_mod">
<polygon fill="gray" stroke="black" points="779.5,-161 683.5,-161 683.5,-125 779.5,-125 779.5,-161"/>
<text text-anchor="middle" x="731.5" y="-139.3" font-family="Times,serif" font-size="14.00">obsFilter_mod</text>
</a>
</g>
</g>
<!-- midas_letkf&#45;&gt;obsFilter_mod -->
<g id="edge15" class="edge">
<title>midas_letkf&#45;&gt;obsFilter_mod</title>
<path fill="none" stroke="black" d="M709.99,-628.77C732.34,-603.53 769.5,-554.05 769.5,-504 769.5,-504 769.5,-504 769.5,-286 769.5,-244.63 754.27,-198.72 743.09,-170.61"/>
<polygon fill="black" stroke="black" points="746.22,-169.02 739.19,-161.09 739.74,-171.67 746.22,-169.02"/>
</g>
<!-- obsSpaceData_mod -->
<g id="node17" class="node">
<title>obsSpaceData_mod</title>
<g id="a_node17"><a xlink:href="../modules/obsSpaceData_mod.html" xlink:title="obsSpaceData_mod">
<polygon fill="gray" stroke="black" points="870,-89 745,-89 745,-53 870,-53 870,-89"/>
<text text-anchor="middle" x="807.5" y="-67.3" font-family="Times,serif" font-size="14.00">obsSpaceData_mod</text>
</a>
</g>
</g>
<!-- midas_letkf&#45;&gt;obsSpaceData_mod -->
<g id="edge16" class="edge">
<title>midas_letkf&#45;&gt;obsSpaceData_mod</title>
<path fill="none" stroke="black" d="M720.52,-628.96C754.23,-605.37 807.5,-559.33 807.5,-504 807.5,-504 807.5,-504 807.5,-214 807.5,-174 807.5,-127.65 807.5,-99.08"/>
<polygon fill="black" stroke="black" points="811,-99.05 807.5,-89.05 804,-99.05 811,-99.05"/>
</g>
<!-- obsTimeInterp_mod -->
<g id="node18" class="node">
<title>obsTimeInterp_mod</title>
<g id="a_node18"><a xlink:href="../modules/obsTimeInterp_mod.html" xlink:title="obsTimeInterp_mod">
<polygon fill="gray" stroke="black" points="965,-593 836,-593 836,-557 965,-557 965,-593"/>
<text text-anchor="middle" x="900.5" y="-571.3" font-family="Times,serif" font-size="14.00">obsTimeInterp_mod</text>
</a>
</g>
</g>
<!-- midas_letkf&#45;&gt;obsTimeInterp_mod -->
<g id="edge17" class="edge">
<title>midas_letkf&#45;&gt;obsTimeInterp_mod</title>
<path fill="none" stroke="black" d="M734.89,-632C765.07,-621.8 806.42,-607.82 840.25,-596.37"/>
<polygon fill="black" stroke="black" points="841.68,-599.59 850.03,-593.07 839.44,-592.95 841.68,-599.59"/>
</g>
<!-- oceanMask_mod -->
<g id="node19" class="node">
<title>oceanMask_mod</title>
<g id="a_node19"><a xlink:href="../modules/oceanMask_mod.html" xlink:title="oceanMask_mod">
<polygon fill="gray" stroke="black" points="1003.5,-521 893.5,-521 893.5,-485 1003.5,-485 1003.5,-521"/>
<text text-anchor="middle" x="948.5" y="-499.3" font-family="Times,serif" font-size="14.00">oceanMask_mod</text>
</a>
</g>
</g>
<!-- midas_letkf&#45;&gt;oceanMask_mod -->
<g id="edge18" class="edge">
<title>midas_letkf&#45;&gt;oceanMask_mod</title>
<path fill="none" stroke="black" d="M734.59,-644.42C804.9,-640.76 943.63,-629.05 973.5,-593 988.26,-575.18 978.47,-549.21 967.1,-529.91"/>
<polygon fill="black" stroke="black" points="969.96,-527.9 961.66,-521.31 964.04,-531.63 969.96,-527.9"/>
</g>
<!-- ramDisk_mod -->
<g id="node20" class="node">
<title>ramDisk_mod</title>
<g id="a_node20"><a xlink:href="../modules/ramDisk_mod.html" xlink:title="ramDisk_mod">
<polygon fill="gray" stroke="black" points="1041,-449 946,-449 946,-413 1041,-413 1041,-449"/>
<text text-anchor="middle" x="993.5" y="-427.3" font-family="Times,serif" font-size="14.00">ramDisk_mod</text>
</a>
</g>
</g>
<!-- midas_letkf&#45;&gt;ramDisk_mod -->
<g id="edge19" class="edge">
<title>midas_letkf&#45;&gt;ramDisk_mod</title>
<path fill="none" stroke="black" d="M734.73,-643.93C807.42,-639.46 954.25,-626.43 991.5,-593 1027.89,-560.34 1020.87,-533.18 1012.5,-485 1010.98,-476.24 1008.14,-467.01 1005.11,-458.75"/>
<polygon fill="black" stroke="black" points="1008.29,-457.29 1001.39,-449.25 1001.78,-459.84 1008.29,-457.29"/>
</g>
<!-- stateToColumn_mod -->
<g id="node21" class="node">
<title>stateToColumn_mod</title>
<g id="a_node21"><a xlink:href="../modules/stateToColumn_mod.html" xlink:title="stateToColumn_mod">
<polygon fill="gray" stroke="black" points="1079,-377 948,-377 948,-341 1079,-341 1079,-377"/>
<text text-anchor="middle" x="1013.5" y="-355.3" font-family="Times,serif" font-size="14.00">stateToColumn_mod</text>
</a>
</g>
</g>
<!-- midas_letkf&#45;&gt;stateToColumn_mod -->
<g id="edge20" class="edge">
<title>midas_letkf&#45;&gt;stateToColumn_mod</title>
<path fill="none" stroke="black" d="M734.69,-644.89C812.82,-641.92 978.36,-631.16 1018.5,-593 1077.33,-537.06 1073.36,-490.59 1049.5,-413 1046.49,-403.22 1040.99,-393.62 1035.18,-385.33"/>
<polygon fill="black" stroke="black" points="1037.91,-383.13 1029.11,-377.23 1032.31,-387.33 1037.91,-383.13"/>
</g>
<!-- timeCoord_mod -->
<g id="node22" class="node">
<title>timeCoord_mod</title>
<g id="a_node22"><a xlink:href="../modules/timeCoord_mod.html" xlink:title="timeCoord_mod">
<polygon fill="gray" stroke="black" points="1117,-305 1010,-305 1010,-269 1117,-269 1117,-305"/>
<text text-anchor="middle" x="1063.5" y="-283.3" font-family="Times,serif" font-size="14.00">timeCoord_mod</text>
</a>
</g>
</g>
<!-- midas_letkf&#45;&gt;timeCoord_mod -->
<g id="edge21" class="edge">
<title>midas_letkf&#45;&gt;timeCoord_mod</title>
<path fill="none" stroke="black" d="M734.55,-643.97C816.31,-639.27 996.07,-625.47 1047.5,-593 1087.84,-567.53 1107.5,-551.7 1107.5,-504 1107.5,-504 1107.5,-504 1107.5,-430 1107.5,-388.21 1089.9,-342.48 1076.96,-314.51"/>
<polygon fill="black" stroke="black" points="1080.08,-312.92 1072.62,-305.39 1073.76,-315.93 1080.08,-312.92"/>
</g>
<!-- tovsNL_mod -->
<g id="node23" class="node">
<title>tovsNL_mod</title>
<g id="a_node23"><a xlink:href="../modules/tovsNL_mod.html" xlink:title="tovsNL_mod">
<polygon fill="gray" stroke="black" points="1155,-233 1066,-233 1066,-197 1155,-197 1155,-233"/>
<text text-anchor="middle" x="1110.5" y="-211.3" font-family="Times,serif" font-size="14.00">tovsNL_mod</text>
</a>
</g>
</g>
<!-- midas_letkf&#45;&gt;tovsNL_mod -->
<g id="edge22" class="edge">
<title>midas_letkf&#45;&gt;tovsNL_mod</title>
<path fill="none" stroke="black" d="M734.6,-644.55C822.52,-640.79 1025.56,-628.42 1083.5,-593 1124.63,-567.86 1145.5,-552.21 1145.5,-504 1145.5,-504 1145.5,-504 1145.5,-358 1145.5,-316.84 1131.47,-270.88 1121.17,-242.69"/>
<polygon fill="black" stroke="black" points="1124.38,-241.28 1117.58,-233.15 1117.83,-243.74 1124.38,-241.28"/>
</g>
<!-- utilities_mod -->
<g id="node24" class="node">
<title>utilities_mod</title>
<g id="a_node24"><a xlink:href="../modules/utilities_mod.svg" xlink:title="utilities_mod">
<polygon fill="none" stroke="red" points="1210,-161 1121,-161 1121,-125 1210,-125 1210,-161"/>
<text text-anchor="middle" x="1165.5" y="-139.3" font-family="Times,serif" font-size="14.00">utilities_mod</text>
</a>
</g>
</g>
<!-- midas_letkf&#45;&gt;utilities_mod -->
<g id="edge23" class="edge">
<title>midas_letkf&#45;&gt;utilities_mod</title>
<path fill="none" stroke="black" d="M734.65,-645.11C828.83,-642.43 1056.91,-631.96 1121.5,-593 1162.78,-568.1 1183.5,-552.21 1183.5,-504 1183.5,-504 1183.5,-504 1183.5,-286 1183.5,-245.9 1176.35,-199.92 1171.06,-171.42"/>
<polygon fill="black" stroke="black" points="1174.46,-170.56 1169.14,-161.4 1167.58,-171.88 1174.46,-170.56"/>
</g>
<!-- version_mod -->
<g id="node25" class="node">
<title>version_mod</title>
<g id="a_node25"><a xlink:href="../modules/version_mod.html" xlink:title="version_mod">
<polygon fill="gray" stroke="black" points="1282.5,-89 1194.5,-89 1194.5,-53 1282.5,-53 1282.5,-89"/>
<text text-anchor="middle" x="1238.5" y="-67.3" font-family="Times,serif" font-size="14.00">version_mod</text>
</a>
</g>
</g>
<!-- midas_letkf&#45;&gt;version_mod -->
<g id="edge24" class="edge">
<title>midas_letkf&#45;&gt;version_mod</title>
<path fill="none" stroke="black" d="M734.61,-645.06C834.26,-642.18 1085.89,-631.24 1159.5,-593 1206.44,-568.62 1238.5,-556.89 1238.5,-504 1238.5,-504 1238.5,-504 1238.5,-214 1238.5,-174 1238.5,-127.65 1238.5,-99.08"/>
<polygon fill="black" stroke="black" points="1242,-99.05 1238.5,-89.05 1235,-99.05 1242,-99.05"/>
</g>
<!-- verticalCoord_mod -->
<g id="node26" class="node">
<title>verticalCoord_mod</title>
<g id="a_node26"><a xlink:href="../modules/verticalCoord_mod.html" xlink:title="verticalCoord_mod">
<polygon fill="gray" stroke="black" points="1390,-593 1267,-593 1267,-557 1390,-557 1390,-593"/>
<text text-anchor="middle" x="1328.5" y="-571.3" font-family="Times,serif" font-size="14.00">verticalCoord_mod</text>
</a>
</g>
</g>
<!-- midas_letkf&#45;&gt;verticalCoord_mod -->
<g id="edge25" class="edge">
<title>midas_letkf&#45;&gt;verticalCoord_mod</title>
<path fill="none" stroke="black" d="M734.75,-643.87C827.65,-638.67 1060.18,-623.5 1252.5,-593 1253.96,-592.77 1255.44,-592.53 1256.92,-592.27"/>
<polygon fill="black" stroke="black" points="1257.61,-595.71 1266.82,-590.48 1256.36,-588.82 1257.61,-595.71"/>
</g>
</g>
</svg>
