<?xml version="1.0" encoding="UTF-8" standalone="no"?>
<!DOCTYPE svg PUBLIC "-//W3C//DTD SVG 1.1//EN"
 "http://www.w3.org/Graphics/SVG/1.1/DTD/svg11.dtd">
<!-- Generated by graphviz version 3.0.0 (20220315.2325)
 -->
<!-- Title: midas_analysisErrorOI Pages: 1 -->
<svg width="978pt" height="673pt"
 viewBox="0.00 0.00 978.00 673.00" xmlns="http://www.w3.org/2000/svg" xmlns:xlink="http://www.w3.org/1999/xlink">
<g id="graph0" class="graph" transform="scale(1 1) rotate(0) translate(4 669)">
<title>midas_analysisErrorOI</title>
<polygon fill="white" stroke="transparent" points="-4,4 -4,-669 974,-669 974,4 -4,4"/>
<text text-anchor="middle" x="485" y="-37.8" font-family="Times,serif" font-size="14.00">Red boxes indicate modules with dependencies not shown</text>
<text text-anchor="middle" x="485" y="-22.8" font-family="Times,serif" font-size="14.00">Lower level dependencies can be shown by clicking on a red box</text>
<text text-anchor="middle" x="485" y="-7.8" font-family="Times,serif" font-size="14.00">Shaded boxes indicate modules with no dependencies</text>
<!-- midas_analysisErrorOI -->
<g id="node1" class="node">
<title>midas_analysisErrorOI</title>
<g id="a_node1"><a xlink:href="midas_analysisErrorOI.html" xlink:title="midas_analysisErrorOI">
<polygon fill="none" stroke="black" points="566,-665 423,-665 423,-629 566,-629 566,-665"/>
<text text-anchor="middle" x="494.5" y="-643.3" font-family="Times,serif" font-size="14.00">midas_analysisErrorOI</text>
</a>
</g>
</g>
<!-- analysisErrorOI_mod -->
<g id="node2" class="node">
<title>analysisErrorOI_mod</title>
<g id="a_node2"><a xlink:href="../modules/analysisErrorOI_mod.html" xlink:title="analysisErrorOI_mod">
<polygon fill="gray" stroke="black" points="135,-593 0,-593 0,-557 135,-557 135,-593"/>
<text text-anchor="middle" x="67.5" y="-571.3" font-family="Times,serif" font-size="14.00">analysisErrorOI_mod</text>
</a>
</g>
</g>
<!-- midas_analysisErrorOI&#45;&gt;analysisErrorOI_mod -->
<g id="edge1" class="edge">
<title>midas_analysisErrorOI&#45;&gt;analysisErrorOI_mod</title>
<path fill="none" stroke="black" d="M422.96,-636.12C353.06,-626.2 243.73,-609.99 149.5,-593 148.02,-592.73 146.53,-592.46 145.03,-592.18"/>
<polygon fill="black" stroke="black" points="145.49,-588.71 135.02,-590.29 144.19,-595.59 145.49,-588.71"/>
</g>
<!-- columnData_mod -->
<g id="node3" class="node">
<title>columnData_mod</title>
<g id="a_node3"><a xlink:href="../modules/columnData_mod.html" xlink:title="columnData_mod">
<polygon fill="gray" stroke="black" points="197,-521 82,-521 82,-485 197,-485 197,-521"/>
<text text-anchor="middle" x="139.5" y="-499.3" font-family="Times,serif" font-size="14.00">columnData_mod</text>
</a>
</g>
</g>
<!-- midas_analysisErrorOI&#45;&gt;columnData_mod -->
<g id="edge2" class="edge">
<title>midas_analysisErrorOI&#45;&gt;columnData_mod</title>
<path fill="none" stroke="black" d="M422.84,-646.05C362.56,-643.08 276.11,-631.54 211.5,-593 186.19,-577.9 166.04,-550.43 153.57,-529.99"/>
<polygon fill="black" stroke="black" points="156.47,-528.01 148.39,-521.16 150.43,-531.56 156.47,-528.01"/>
</g>
<!-- gridStateVector_mod -->
<g id="node4" class="node">
<title>gridStateVector_mod</title>
<g id="a_node4"><a xlink:href="../modules/gridStateVector_mod.html" xlink:title="gridStateVector_mod">
<polygon fill="gray" stroke="black" points="235.5,-449 101.5,-449 101.5,-413 235.5,-413 235.5,-449"/>
<text text-anchor="middle" x="168.5" y="-427.3" font-family="Times,serif" font-size="14.00">gridStateVector_mod</text>
</a>
</g>
</g>
<!-- midas_analysisErrorOI&#45;&gt;gridStateVector_mod -->
<g id="edge3" class="edge">
<title>midas_analysisErrorOI&#45;&gt;gridStateVector_mod</title>
<path fill="none" stroke="black" d="M422.85,-637.97C360.24,-629.64 275.41,-614.76 249.5,-593 209.81,-559.67 230.27,-530.53 205.5,-485 200.35,-475.54 193.86,-465.72 187.76,-457.14"/>
<polygon fill="black" stroke="black" points="190.57,-455.06 181.85,-449.04 184.92,-459.18 190.57,-455.06"/>
</g>
<!-- horizontalCoord_mod -->
<g id="node5" class="node">
<title>horizontalCoord_mod</title>
<g id="a_node5"><a xlink:href="../modules/horizontalCoord_mod.html" xlink:title="horizontalCoord_mod">
<polygon fill="gray" stroke="black" points="273,-377 136,-377 136,-341 273,-341 273,-377"/>
<text text-anchor="middle" x="204.5" y="-355.3" font-family="Times,serif" font-size="14.00">horizontalCoord_mod</text>
</a>
</g>
</g>
<!-- midas_analysisErrorOI&#45;&gt;horizontalCoord_mod -->
<g id="edge4" class="edge">
<title>midas_analysisErrorOI&#45;&gt;horizontalCoord_mod</title>
<path fill="none" stroke="black" d="M422.94,-635.7C370.93,-626.78 306.46,-612.27 287.5,-593 229.81,-534.37 279.57,-487.4 244.5,-413 239.93,-403.3 233.4,-393.66 226.94,-385.3"/>
<polygon fill="black" stroke="black" points="229.58,-383.01 220.58,-377.43 224.14,-387.41 229.58,-383.01"/>
</g>
<!-- innovation_mod -->
<g id="node6" class="node">
<title>innovation_mod</title>
<g id="a_node6"><a xlink:href="../modules/innovation_mod.svg" xlink:title="innovation_mod">
<polygon fill="none" stroke="red" points="311.5,-305 205.5,-305 205.5,-269 311.5,-269 311.5,-305"/>
<text text-anchor="middle" x="258.5" y="-283.3" font-family="Times,serif" font-size="14.00">innovation_mod</text>
</a>
</g>
</g>
<!-- midas_analysisErrorOI&#45;&gt;innovation_mod -->
<g id="edge5" class="edge">
<title>midas_analysisErrorOI&#45;&gt;innovation_mod</title>
<path fill="none" stroke="black" d="M422.88,-639.39C389.14,-632.7 350.84,-619.39 325.5,-593 297.12,-563.45 301.5,-544.97 301.5,-504 301.5,-504 301.5,-504 301.5,-430 301.5,-388.29 284.3,-342.54 271.66,-314.54"/>
<polygon fill="black" stroke="black" points="274.8,-313.01 267.41,-305.42 268.45,-315.96 274.8,-313.01"/>
</g>
<!-- mathPhysConstants_mod -->
<g id="node7" class="node">
<title>mathPhysConstants_mod</title>
<g id="a_node7"><a xlink:href="../modules/mathPhysConstants_mod.html" xlink:title="mathPhysConstants_mod">
<polygon fill="gray" stroke="black" points="349,-233 194,-233 194,-197 349,-197 349,-233"/>
<text text-anchor="middle" x="271.5" y="-211.3" font-family="Times,serif" font-size="14.00">mathPhysConstants_mod</text>
</a>
</g>
</g>
<!-- midas_analysisErrorOI&#45;&gt;mathPhysConstants_mod -->
<g id="edge6" class="edge">
<title>midas_analysisErrorOI&#45;&gt;mathPhysConstants_mod</title>
<path fill="none" stroke="black" d="M422.91,-630.31C401.21,-622.37 379.03,-610.54 363.5,-593 336.34,-562.33 339.5,-544.97 339.5,-504 339.5,-504 339.5,-504 339.5,-358 339.5,-317.55 339.12,-304.91 320.5,-269 315.11,-258.61 307.13,-248.74 299.17,-240.41"/>
<polygon fill="black" stroke="black" points="301.49,-237.78 291.94,-233.21 296.56,-242.74 301.49,-237.78"/>
</g>
<!-- message_mod -->
<g id="node8" class="node">
<title>message_mod</title>
<g id="a_node8"><a xlink:href="../modules/message_mod.svg" xlink:title="message_mod">
<polygon fill="none" stroke="red" points="387,-161 292,-161 292,-125 387,-125 387,-161"/>
<text text-anchor="middle" x="339.5" y="-139.3" font-family="Times,serif" font-size="14.00">message_mod</text>
</a>
</g>
</g>
<!-- midas_analysisErrorOI&#45;&gt;message_mod -->
<g id="edge7" class="edge">
<title>midas_analysisErrorOI&#45;&gt;message_mod</title>
<path fill="none" stroke="black" d="M448.54,-628.79C431.56,-620.35 413.55,-608.58 401.5,-593 376.44,-560.59 377.5,-544.97 377.5,-504 377.5,-504 377.5,-504 377.5,-286 377.5,-244.63 362.27,-198.72 351.09,-170.61"/>
<polygon fill="black" stroke="black" points="354.22,-169.02 347.19,-161.09 347.74,-171.67 354.22,-169.02"/>
</g>
<!-- midasMpi_mod -->
<g id="node9" class="node">
<title>midasMpi_mod</title>
<g id="a_node9"><a xlink:href="../modules/midasMpi_mod.html" xlink:title="midasMpi_mod">
<polygon fill="gray" stroke="black" points="467.5,-89 363.5,-89 363.5,-53 467.5,-53 467.5,-89"/>
<text text-anchor="middle" x="415.5" y="-67.3" font-family="Times,serif" font-size="14.00">midasMpi_mod</text>
</a>
</g>
</g>
<!-- midas_analysisErrorOI&#45;&gt;midasMpi_mod -->
<g id="edge8" class="edge">
<title>midas_analysisErrorOI&#45;&gt;midasMpi_mod</title>
<path fill="none" stroke="black" d="M468.51,-628.98C456.4,-619.74 442.84,-607.28 434.5,-593 414.09,-558.08 415.5,-544.45 415.5,-504 415.5,-504 415.5,-504 415.5,-214 415.5,-174 415.5,-127.65 415.5,-99.08"/>
<polygon fill="black" stroke="black" points="419,-99.05 415.5,-89.05 412,-99.05 419,-99.05"/>
</g>
<!-- obsErrors_mod -->
<g id="node10" class="node">
<title>obsErrors_mod</title>
<g id="a_node10"><a xlink:href="../modules/obsErrors_mod.html" xlink:title="obsErrors_mod">
<polygon fill="gray" stroke="black" points="545,-593 444,-593 444,-557 545,-557 545,-593"/>
<text text-anchor="middle" x="494.5" y="-571.3" font-family="Times,serif" font-size="14.00">obsErrors_mod</text>
</a>
</g>
</g>
<!-- midas_analysisErrorOI&#45;&gt;obsErrors_mod -->
<g id="edge9" class="edge">
<title>midas_analysisErrorOI&#45;&gt;obsErrors_mod</title>
<path fill="none" stroke="black" d="M494.5,-628.7C494.5,-620.98 494.5,-611.71 494.5,-603.11"/>
<polygon fill="black" stroke="black" points="498,-603.1 494.5,-593.1 491,-603.1 498,-603.1"/>
</g>
<!-- obsFiles_mod -->
<g id="node11" class="node">
<title>obsFiles_mod</title>
<g id="a_node11"><a xlink:href="../modules/obsFiles_mod.html" xlink:title="obsFiles_mod">
<polygon fill="gray" stroke="black" points="583,-521 490,-521 490,-485 583,-485 583,-521"/>
<text text-anchor="middle" x="536.5" y="-499.3" font-family="Times,serif" font-size="14.00">obsFiles_mod</text>
</a>
</g>
</g>
<!-- midas_analysisErrorOI&#45;&gt;obsFiles_mod -->
<g id="edge10" class="edge">
<title>midas_analysisErrorOI&#45;&gt;obsFiles_mod</title>
<path fill="none" stroke="black" d="M522.3,-628.87C534.27,-619.84 547,-607.59 553.5,-593 562.37,-573.12 556.68,-548.73 549.58,-530.51"/>
<polygon fill="black" stroke="black" points="552.71,-528.93 545.58,-521.09 546.27,-531.66 552.71,-528.93"/>
</g>
<!-- obsFilter_mod -->
<g id="node12" class="node">
<title>obsFilter_mod</title>
<g id="a_node12"><a xlink:href="../modules/obsFilter_mod.html" xlink:title="obsFilter_mod">
<polygon fill="gray" stroke="black" points="621.5,-449 525.5,-449 525.5,-413 621.5,-413 621.5,-449"/>
<text text-anchor="middle" x="573.5" y="-427.3" font-family="Times,serif" font-size="14.00">obsFilter_mod</text>
</a>
</g>
</g>
<!-- midas_analysisErrorOI&#45;&gt;obsFilter_mod -->
<g id="edge11" class="edge">
<title>midas_analysisErrorOI&#45;&gt;obsFilter_mod</title>
<path fill="none" stroke="black" d="M528.84,-628.92C543.56,-620.03 559.8,-607.89 570.5,-593 599.02,-553.28 599.47,-533.25 591.5,-485 590.06,-476.28 587.37,-467.06 584.5,-458.8"/>
<polygon fill="black" stroke="black" points="587.73,-457.46 580.98,-449.3 581.17,-459.89 587.73,-457.46"/>
</g>
<!-- obsSpaceData_mod -->
<g id="node13" class="node">
<title>obsSpaceData_mod</title>
<g id="a_node13"><a xlink:href="../modules/obsSpaceData_mod.html" xlink:title="obsSpaceData_mod">
<polygon fill="gray" stroke="black" points="659,-377 534,-377 534,-341 659,-341 659,-377"/>
<text text-anchor="middle" x="596.5" y="-355.3" font-family="Times,serif" font-size="14.00">obsSpaceData_mod</text>
</a>
</g>
</g>
<!-- midas_analysisErrorOI&#45;&gt;obsSpaceData_mod -->
<g id="edge12" class="edge">
<title>midas_analysisErrorOI&#45;&gt;obsSpaceData_mod</title>
<path fill="none" stroke="black" d="M546.42,-628.94C564.33,-620.68 583.01,-609 595.5,-593 645.66,-528.77 653.43,-491.21 630.5,-413 627.7,-403.45 622.59,-393.98 617.17,-385.76"/>
<polygon fill="black" stroke="black" points="619.88,-383.52 611.25,-377.37 614.15,-387.56 619.88,-383.52"/>
</g>
<!-- ramDisk_mod -->
<g id="node14" class="node">
<title>ramDisk_mod</title>
<g id="a_node14"><a xlink:href="../modules/ramDisk_mod.html" xlink:title="ramDisk_mod">
<polygon fill="gray" stroke="black" points="697,-305 602,-305 602,-269 697,-269 697,-305"/>
<text text-anchor="middle" x="649.5" y="-283.3" font-family="Times,serif" font-size="14.00">ramDisk_mod</text>
</a>
</g>
</g>
<!-- midas_analysisErrorOI&#45;&gt;ramDisk_mod -->
<g id="edge13" class="edge">
<title>midas_analysisErrorOI&#45;&gt;ramDisk_mod</title>
<path fill="none" stroke="black" d="M556.1,-628.96C612.58,-609.14 687.5,-570.35 687.5,-504 687.5,-504 687.5,-504 687.5,-430 687.5,-388.63 672.27,-342.72 661.09,-314.61"/>
<polygon fill="black" stroke="black" points="664.22,-313.02 657.19,-305.09 657.74,-315.67 664.22,-313.02"/>
</g>
<!-- timeCoord_mod -->
<g id="node15" class="node">
<title>timeCoord_mod</title>
<g id="a_node15"><a xlink:href="../modules/timeCoord_mod.html" xlink:title="timeCoord_mod">
<polygon fill="gray" stroke="black" points="735,-233 628,-233 628,-197 735,-197 735,-233"/>
<text text-anchor="middle" x="681.5" y="-211.3" font-family="Times,serif" font-size="14.00">timeCoord_mod</text>
</a>
</g>
</g>
<!-- midas_analysisErrorOI&#45;&gt;timeCoord_mod -->
<g id="edge14" class="edge">
<title>midas_analysisErrorOI&#45;&gt;timeCoord_mod</title>
<path fill="none" stroke="black" d="M566.01,-633.24C633.85,-616.53 725.5,-579.91 725.5,-504 725.5,-504 725.5,-504 725.5,-358 725.5,-316.21 707.9,-270.48 694.96,-242.51"/>
<polygon fill="black" stroke="black" points="698.08,-240.92 690.62,-233.39 691.76,-243.93 698.08,-240.92"/>
</g>
<!-- utilities_mod -->
<g id="node16" class="node">
<title>utilities_mod</title>
<g id="a_node16"><a xlink:href="../modules/utilities_mod.svg" xlink:title="utilities_mod">
<polygon fill="none" stroke="red" points="790,-161 701,-161 701,-125 790,-125 790,-161"/>
<text text-anchor="middle" x="745.5" y="-139.3" font-family="Times,serif" font-size="14.00">utilities_mod</text>
</a>
</g>
</g>
<!-- midas_analysisErrorOI&#45;&gt;utilities_mod -->
<g id="edge15" class="edge">
<title>midas_analysisErrorOI&#45;&gt;utilities_mod</title>
<path fill="none" stroke="black" d="M566.23,-638.92C645.92,-626.64 763.5,-593.38 763.5,-504 763.5,-504 763.5,-504 763.5,-286 763.5,-245.9 756.35,-199.92 751.06,-171.42"/>
<polygon fill="black" stroke="black" points="754.46,-170.56 749.14,-161.4 747.58,-171.88 754.46,-170.56"/>
</g>
<!-- version_mod -->
<g id="node17" class="node">
<title>version_mod</title>
<g id="a_node17"><a xlink:href="../modules/version_mod.html" xlink:title="version_mod">
<polygon fill="gray" stroke="black" points="862.5,-89 774.5,-89 774.5,-53 862.5,-53 862.5,-89"/>
<text text-anchor="middle" x="818.5" y="-67.3" font-family="Times,serif" font-size="14.00">version_mod</text>
</a>
</g>
</g>
<!-- midas_analysisErrorOI&#45;&gt;version_mod -->
<g id="edge16" class="edge">
<title>midas_analysisErrorOI&#45;&gt;version_mod</title>
<path fill="none" stroke="black" d="M566,-644.96C661.42,-639.34 818.5,-613.47 818.5,-504 818.5,-504 818.5,-504 818.5,-214 818.5,-174 818.5,-127.65 818.5,-99.08"/>
<polygon fill="black" stroke="black" points="822,-99.05 818.5,-89.05 815,-99.05 822,-99.05"/>
</g>
<!-- verticalCoord_mod -->
<g id="node18" class="node">
<title>verticalCoord_mod</title>
<g id="a_node18"><a xlink:href="../modules/verticalCoord_mod.html" xlink:title="verticalCoord_mod">
<polygon fill="gray" stroke="black" points="970,-593 847,-593 847,-557 970,-557 970,-593"/>
<text text-anchor="middle" x="908.5" y="-571.3" font-family="Times,serif" font-size="14.00">verticalCoord_mod</text>
</a>
</g>
</g>
<!-- midas_analysisErrorOI&#45;&gt;verticalCoord_mod -->
<g id="edge17" class="edge">
<title>midas_analysisErrorOI&#45;&gt;verticalCoord_mod</title>
<path fill="none" stroke="black" d="M566.27,-636.12C634.85,-626.35 741.03,-610.38 832.5,-593 833.95,-592.72 835.42,-592.44 836.9,-592.15"/>
<polygon fill="black" stroke="black" points="837.66,-595.57 846.77,-590.16 836.27,-588.71 837.66,-595.57"/>
</g>
</g>
</svg>
