<?xml version="1.0" encoding="UTF-8" standalone="no"?>
<!DOCTYPE svg PUBLIC "-//W3C//DTD SVG 1.1//EN"
 "http://www.w3.org/Graphics/SVG/1.1/DTD/svg11.dtd">
<!-- Generated by graphviz version 3.0.0 (20220315.2325)
 -->
<!-- Title: midas_pseudoSSTobs Pages: 1 -->
<svg width="597pt" height="673pt"
 viewBox="0.00 0.00 596.50 673.00" xmlns="http://www.w3.org/2000/svg" xmlns:xlink="http://www.w3.org/1999/xlink">
<g id="graph0" class="graph" transform="scale(1 1) rotate(0) translate(4 669)">
<title>midas_pseudoSSTobs</title>
<polygon fill="white" stroke="transparent" points="-4,4 -4,-669 592.5,-669 592.5,4 -4,4"/>
<text text-anchor="middle" x="294.25" y="-37.8" font-family="Times,serif" font-size="14.00">Red boxes indicate modules with dependencies not shown</text>
<text text-anchor="middle" x="294.25" y="-22.8" font-family="Times,serif" font-size="14.00">Lower level dependencies can be shown by clicking on a red box</text>
<text text-anchor="middle" x="294.25" y="-7.8" font-family="Times,serif" font-size="14.00">Shaded boxes indicate modules with no dependencies</text>
<!-- midas_pseudoSSTobs -->
<g id="node1" class="node">
<title>midas_pseudoSSTobs</title>
<g id="a_node1"><a xlink:href="midas_pseudoSSTobs.html" xlink:title="midas_pseudoSSTobs">
<polygon fill="none" stroke="black" points="373,-665 237,-665 237,-629 373,-629 373,-665"/>
<text text-anchor="middle" x="305" y="-643.3" font-family="Times,serif" font-size="14.00">midas_pseudoSSTobs</text>
</a>
</g>
</g>
<!-- gridStateVector_mod -->
<g id="node2" class="node">
<title>gridStateVector_mod</title>
<g id="a_node2"><a xlink:href="../modules/gridStateVector_mod.html" xlink:title="gridStateVector_mod">
<polygon fill="gray" stroke="black" points="134,-593 0,-593 0,-557 134,-557 134,-593"/>
<text text-anchor="middle" x="67" y="-571.3" font-family="Times,serif" font-size="14.00">gridStateVector_mod</text>
</a>
</g>
</g>
<!-- midas_pseudoSSTobs&#45;&gt;gridStateVector_mod -->
<g id="edge1" class="edge">
<title>midas_pseudoSSTobs&#45;&gt;gridStateVector_mod</title>
<path fill="none" stroke="black" d="M247.08,-628.97C213.25,-619.01 170.38,-606.41 134.96,-595.99"/>
<polygon fill="black" stroke="black" points="135.76,-592.57 125.18,-593.11 133.78,-599.29 135.76,-592.57"/>
</g>
<!-- horizontalCoord_mod -->
<g id="node3" class="node">
<title>horizontalCoord_mod</title>
<g id="a_node3"><a xlink:href="../modules/horizontalCoord_mod.html" xlink:title="horizontalCoord_mod">
<polygon fill="gray" stroke="black" points="200.5,-521 63.5,-521 63.5,-485 200.5,-485 200.5,-521"/>
<text text-anchor="middle" x="132" y="-499.3" font-family="Times,serif" font-size="14.00">horizontalCoord_mod</text>
</a>
</g>
</g>
<!-- midas_pseudoSSTobs&#45;&gt;horizontalCoord_mod -->
<g id="edge2" class="edge">
<title>midas_pseudoSSTobs&#45;&gt;horizontalCoord_mod</title>
<path fill="none" stroke="black" d="M270.59,-628.78C253.15,-619.32 232.11,-606.73 215,-593 191.17,-573.88 167.78,-547.96 151.94,-529.03"/>
<polygon fill="black" stroke="black" points="154.48,-526.62 145.42,-521.13 149.08,-531.07 154.48,-526.62"/>
</g>
<!-- midasMpi_mod -->
<g id="node4" class="node">
<title>midasMpi_mod</title>
<g id="a_node4"><a xlink:href="../modules/midasMpi_mod.html" xlink:title="midasMpi_mod">
<polygon fill="gray" stroke="black" points="239,-449 135,-449 135,-413 239,-413 239,-449"/>
<text text-anchor="middle" x="187" y="-427.3" font-family="Times,serif" font-size="14.00">midasMpi_mod</text>
</a>
</g>
</g>
<!-- midas_pseudoSSTobs&#45;&gt;midasMpi_mod -->
<g id="edge3" class="edge">
<title>midas_pseudoSSTobs&#45;&gt;midasMpi_mod</title>
<path fill="none" stroke="black" d="M284.78,-628.91C274.25,-619.21 261.78,-606.36 253,-593 224.54,-549.68 228.71,-532.94 209,-485 205.46,-476.39 201.57,-467.01 198.06,-458.56"/>
<polygon fill="black" stroke="black" points="201.23,-457.06 194.16,-449.17 194.77,-459.75 201.23,-457.06"/>
</g>
<!-- obsSpaceData_mod -->
<g id="node5" class="node">
<title>obsSpaceData_mod</title>
<g id="a_node5"><a xlink:href="../modules/obsSpaceData_mod.html" xlink:title="obsSpaceData_mod">
<polygon fill="gray" stroke="black" points="276.5,-377 151.5,-377 151.5,-341 276.5,-341 276.5,-377"/>
<text text-anchor="middle" x="214" y="-355.3" font-family="Times,serif" font-size="14.00">obsSpaceData_mod</text>
</a>
</g>
</g>
<!-- midas_pseudoSSTobs&#45;&gt;obsSpaceData_mod -->
<g id="edge4" class="edge">
<title>midas_pseudoSSTobs&#45;&gt;obsSpaceData_mod</title>
<path fill="none" stroke="black" d="M300.36,-628.84C297.58,-618.48 294.02,-605 291,-593 270.94,-513.23 280.21,-488.68 248,-413 244,-403.59 238.38,-393.99 232.86,-385.58"/>
<polygon fill="black" stroke="black" points="235.75,-383.6 227.22,-377.32 229.97,-387.55 235.75,-383.6"/>
</g>
<!-- oceanObservations_mod -->
<g id="node6" class="node">
<title>oceanObservations_mod</title>
<g id="a_node6"><a xlink:href="../modules/oceanObservations_mod.html" xlink:title="oceanObservations_mod">
<polygon fill="gray" stroke="black" points="315,-305 163,-305 163,-269 315,-269 315,-305"/>
<text text-anchor="middle" x="239" y="-283.3" font-family="Times,serif" font-size="14.00">oceanObservations_mod</text>
</a>
</g>
</g>
<!-- midas_pseudoSSTobs&#45;&gt;oceanObservations_mod -->
<g id="edge5" class="edge">
<title>midas_pseudoSSTobs&#45;&gt;oceanObservations_mod</title>
<path fill="none" stroke="black" d="M305,-628.95C305,-602.29 305,-549.11 305,-504 305,-504 305,-504 305,-430 305,-389.46 303.29,-377.18 285,-341 279.92,-330.95 272.51,-321.24 265.11,-312.95"/>
<polygon fill="black" stroke="black" points="267.49,-310.37 258.11,-305.46 262.38,-315.15 267.49,-310.37"/>
</g>
<!-- ramDisk_mod -->
<g id="node7" class="node">
<title>ramDisk_mod</title>
<g id="a_node7"><a xlink:href="../modules/ramDisk_mod.html" xlink:title="ramDisk_mod">
<polygon fill="gray" stroke="black" points="352.5,-233 257.5,-233 257.5,-197 352.5,-197 352.5,-233"/>
<text text-anchor="middle" x="305" y="-211.3" font-family="Times,serif" font-size="14.00">ramDisk_mod</text>
</a>
</g>
</g>
<!-- midas_pseudoSSTobs&#45;&gt;ramDisk_mod -->
<g id="edge6" class="edge">
<title>midas_pseudoSSTobs&#45;&gt;ramDisk_mod</title>
<path fill="none" stroke="black" d="M312.69,-628.91C323.79,-602.62 343,-550.45 343,-504 343,-504 343,-504 343,-358 343,-316.63 327.77,-270.72 316.59,-242.61"/>
<polygon fill="black" stroke="black" points="319.72,-241.02 312.69,-233.09 313.24,-243.67 319.72,-241.02"/>
</g>
<!-- utilities_mod -->
<g id="node8" class="node">
<title>utilities_mod</title>
<g id="a_node8"><a xlink:href="../modules/utilities_mod.svg" xlink:title="utilities_mod">
<polygon fill="none" stroke="red" points="408.5,-161 319.5,-161 319.5,-125 408.5,-125 408.5,-161"/>
<text text-anchor="middle" x="364" y="-139.3" font-family="Times,serif" font-size="14.00">utilities_mod</text>
</a>
</g>
</g>
<!-- midas_pseudoSSTobs&#45;&gt;utilities_mod -->
<g id="edge7" class="edge">
<title>midas_pseudoSSTobs&#45;&gt;utilities_mod</title>
<path fill="none" stroke="black" d="M321.49,-628.77C343.84,-603.53 381,-554.05 381,-504 381,-504 381,-504 381,-286 381,-245.93 374.24,-199.95 369.25,-171.43"/>
<polygon fill="black" stroke="black" points="372.66,-170.63 367.44,-161.41 365.77,-171.87 372.66,-170.63"/>
</g>
<!-- version_mod -->
<g id="node9" class="node">
<title>version_mod</title>
<g id="a_node9"><a xlink:href="../modules/version_mod.html" xlink:title="version_mod">
<polygon fill="gray" stroke="black" points="481,-89 393,-89 393,-53 481,-53 481,-89"/>
<text text-anchor="middle" x="437" y="-67.3" font-family="Times,serif" font-size="14.00">version_mod</text>
</a>
</g>
</g>
<!-- midas_pseudoSSTobs&#45;&gt;version_mod -->
<g id="edge8" class="edge">
<title>midas_pseudoSSTobs&#45;&gt;version_mod</title>
<path fill="none" stroke="black" d="M338.31,-628.87C377.41,-606.09 437,-561.89 437,-504 437,-504 437,-504 437,-214 437,-174 437,-127.65 437,-99.08"/>
<polygon fill="black" stroke="black" points="440.5,-99.05 437,-89.05 433.5,-99.05 440.5,-99.05"/>
</g>
<!-- verticalCoord_mod -->
<g id="node10" class="node">
<title>verticalCoord_mod</title>
<g id="a_node10"><a xlink:href="../modules/verticalCoord_mod.html" xlink:title="verticalCoord_mod">
<polygon fill="gray" stroke="black" points="588.5,-593 465.5,-593 465.5,-557 588.5,-557 588.5,-593"/>
<text text-anchor="middle" x="527" y="-571.3" font-family="Times,serif" font-size="14.00">verticalCoord_mod</text>
</a>
</g>
</g>
<!-- midas_pseudoSSTobs&#45;&gt;verticalCoord_mod -->
<g id="edge9" class="edge">
<title>midas_pseudoSSTobs&#45;&gt;verticalCoord_mod</title>
<path fill="none" stroke="black" d="M359.02,-628.97C390.45,-619.06 430.23,-606.51 463.19,-596.12"/>
<polygon fill="black" stroke="black" points="464.25,-599.46 472.73,-593.11 462.14,-592.78 464.25,-599.46"/>
</g>
</g>
</svg>
