<?xml version="1.0" encoding="UTF-8" standalone="no"?>
<!DOCTYPE svg PUBLIC "-//W3C//DTD SVG 1.1//EN"
 "http://www.w3.org/Graphics/SVG/1.1/DTD/svg11.dtd">
<!-- Generated by graphviz version 3.0.0 (20220315.2325)
 -->
<!-- Title: midas_ensembleH Pages: 1 -->
<svg width="1062pt" height="673pt"
 viewBox="0.00 0.00 1062.00 673.00" xmlns="http://www.w3.org/2000/svg" xmlns:xlink="http://www.w3.org/1999/xlink">
<g id="graph0" class="graph" transform="scale(1 1) rotate(0) translate(4 669)">
<title>midas_ensembleH</title>
<polygon fill="white" stroke="transparent" points="-4,4 -4,-669 1058,-669 1058,4 -4,4"/>
<text text-anchor="middle" x="527" y="-37.8" font-family="Times,serif" font-size="14.00">Red boxes indicate modules with dependencies not shown</text>
<text text-anchor="middle" x="527" y="-22.8" font-family="Times,serif" font-size="14.00">Lower level dependencies can be shown by clicking on a red box</text>
<text text-anchor="middle" x="527" y="-7.8" font-family="Times,serif" font-size="14.00">Shaded boxes indicate modules with no dependencies</text>
<!-- midas_ensembleH -->
<g id="node1" class="node">
<title>midas_ensembleH</title>
<g id="a_node1"><a xlink:href="midas_ensembleH.html" xlink:title="midas_ensembleH">
<polygon fill="none" stroke="black" points="605.5,-665 487.5,-665 487.5,-629 605.5,-629 605.5,-665"/>
<text text-anchor="middle" x="546.5" y="-643.3" font-family="Times,serif" font-size="14.00">midas_ensembleH</text>
</a>
</g>
</g>
<!-- columnData_mod -->
<g id="node2" class="node">
<title>columnData_mod</title>
<g id="a_node2"><a xlink:href="../modules/columnData_mod.html" xlink:title="columnData_mod">
<polygon fill="gray" stroke="black" points="115,-593 0,-593 0,-557 115,-557 115,-593"/>
<text text-anchor="middle" x="57.5" y="-571.3" font-family="Times,serif" font-size="14.00">columnData_mod</text>
</a>
</g>
</g>
<!-- midas_ensembleH&#45;&gt;columnData_mod -->
<g id="edge1" class="edge">
<title>midas_ensembleH&#45;&gt;columnData_mod</title>
<path fill="none" stroke="black" d="M487.16,-640.45C406.01,-632.4 256.07,-615.92 129.5,-593 128.04,-592.74 126.56,-592.46 125.08,-592.18"/>
<polygon fill="black" stroke="black" points="125.65,-588.72 115.16,-590.18 124.27,-595.58 125.65,-588.72"/>
</g>
<!-- enkf_mod -->
<g id="node3" class="node">
<title>enkf_mod</title>
<g id="a_node3"><a xlink:href="../modules/enkf_mod.svg" xlink:title="enkf_mod">
<polygon fill="none" stroke="red" points="166,-521 93,-521 93,-485 166,-485 166,-521"/>
<text text-anchor="middle" x="129.5" y="-499.3" font-family="Times,serif" font-size="14.00">enkf_mod</text>
</a>
</g>
</g>
<!-- midas_ensembleH&#45;&gt;enkf_mod -->
<g id="edge2" class="edge">
<title>midas_ensembleH&#45;&gt;enkf_mod</title>
<path fill="none" stroke="black" d="M487.15,-643.64C396.6,-639.03 229.28,-626.17 180.5,-593 158.96,-578.35 145.38,-551.38 137.7,-530.96"/>
<polygon fill="black" stroke="black" points="140.91,-529.54 134.3,-521.26 134.31,-531.85 140.91,-529.54"/>
</g>
<!-- ensembleObservations_mod -->
<g id="node4" class="node">
<title>ensembleObservations_mod</title>
<g id="a_node4"><a xlink:href="../modules/ensembleObservations_mod.html" xlink:title="ensembleObservations_mod">
<polygon fill="gray" stroke="black" points="204.5,-449 32.5,-449 32.5,-413 204.5,-413 204.5,-449"/>
<text text-anchor="middle" x="118.5" y="-427.3" font-family="Times,serif" font-size="14.00">ensembleObservations_mod</text>
</a>
</g>
</g>
<!-- midas_ensembleH&#45;&gt;ensembleObservations_mod -->
<g id="edge3" class="edge">
<title>midas_ensembleH&#45;&gt;ensembleObservations_mod</title>
<path fill="none" stroke="black" d="M487.34,-643.29C404.38,-638.36 259.07,-625.28 218.5,-593 177.94,-560.73 203.76,-527.78 174.5,-485 167.24,-474.38 157.54,-464.27 148.25,-455.78"/>
<polygon fill="black" stroke="black" points="150.43,-453.03 140.61,-449.05 145.8,-458.28 150.43,-453.03"/>
</g>
<!-- ensembleStateVector_mod -->
<g id="node5" class="node">
<title>ensembleStateVector_mod</title>
<g id="a_node5"><a xlink:href="../modules/ensembleStateVector_mod.html" xlink:title="ensembleStateVector_mod">
<polygon fill="gray" stroke="black" points="242,-377 79,-377 79,-341 242,-341 242,-377"/>
<text text-anchor="middle" x="160.5" y="-355.3" font-family="Times,serif" font-size="14.00">ensembleStateVector_mod</text>
</a>
</g>
</g>
<!-- midas_ensembleH&#45;&gt;ensembleStateVector_mod -->
<g id="edge4" class="edge">
<title>midas_ensembleH&#45;&gt;ensembleStateVector_mod</title>
<path fill="none" stroke="black" d="M487.22,-642.67C412.23,-637.22 288.96,-623.76 256.5,-593 196.8,-536.42 253.65,-484.79 213.5,-413 207.56,-402.37 198.87,-392.43 190.25,-384.1"/>
<polygon fill="black" stroke="black" points="192.49,-381.4 182.76,-377.21 187.75,-386.55 192.49,-381.4"/>
</g>
<!-- fileNames_mod -->
<g id="node6" class="node">
<title>fileNames_mod</title>
<g id="a_node6"><a xlink:href="../modules/fileNames_mod.html" xlink:title="fileNames_mod">
<polygon fill="gray" stroke="black" points="280.5,-305 176.5,-305 176.5,-269 280.5,-269 280.5,-305"/>
<text text-anchor="middle" x="228.5" y="-283.3" font-family="Times,serif" font-size="14.00">fileNames_mod</text>
</a>
</g>
</g>
<!-- midas_ensembleH&#45;&gt;fileNames_mod -->
<g id="edge5" class="edge">
<title>midas_ensembleH&#45;&gt;fileNames_mod</title>
<path fill="none" stroke="black" d="M487.31,-640.66C421.79,-633.56 321.79,-618.8 294.5,-593 264.73,-564.85 270.5,-544.97 270.5,-504 270.5,-504 270.5,-504 270.5,-430 270.5,-388.15 253.51,-342.1 241.15,-314.11"/>
<polygon fill="black" stroke="black" points="244.33,-312.66 237,-305.01 237.96,-315.56 244.33,-312.66"/>
</g>
<!-- gridStateVectorFileIO_mod -->
<g id="node7" class="node">
<title>gridStateVectorFileIO_mod</title>
<g id="a_node7"><a xlink:href="../modules/gridStateVectorFileIO_mod.html" xlink:title="gridStateVectorFileIO_mod">
<polygon fill="gray" stroke="black" points="318.5,-233 148.5,-233 148.5,-197 318.5,-197 318.5,-233"/>
<text text-anchor="middle" x="233.5" y="-211.3" font-family="Times,serif" font-size="14.00">gridStateVectorFileIO_mod</text>
</a>
</g>
</g>
<!-- midas_ensembleH&#45;&gt;gridStateVectorFileIO_mod -->
<g id="edge6" class="edge">
<title>midas_ensembleH&#45;&gt;gridStateVectorFileIO_mod</title>
<path fill="none" stroke="black" d="M487.5,-638.19C432.01,-629.68 354.31,-614.36 332.5,-593 303.23,-564.33 308.5,-544.97 308.5,-504 308.5,-504 308.5,-504 308.5,-358 308.5,-317.55 309.3,-304.27 289.5,-269 283.36,-258.06 274.2,-248.02 265.07,-239.7"/>
<polygon fill="black" stroke="black" points="267.32,-237.02 257.46,-233.12 262.74,-242.31 267.32,-237.02"/>
</g>
<!-- gridStateVector_mod -->
<g id="node8" class="node">
<title>gridStateVector_mod</title>
<g id="a_node8"><a xlink:href="../modules/gridStateVector_mod.html" xlink:title="gridStateVector_mod">
<polygon fill="gray" stroke="black" points="356.5,-161 222.5,-161 222.5,-125 356.5,-125 356.5,-161"/>
<text text-anchor="middle" x="289.5" y="-139.3" font-family="Times,serif" font-size="14.00">gridStateVector_mod</text>
</a>
</g>
</g>
<!-- midas_ensembleH&#45;&gt;gridStateVector_mod -->
<g id="edge7" class="edge">
<title>midas_ensembleH&#45;&gt;gridStateVector_mod</title>
<path fill="none" stroke="black" d="M487.09,-642.56C448.87,-637.24 400.85,-624.25 370.5,-593 341.96,-563.61 346.5,-544.97 346.5,-504 346.5,-504 346.5,-504 346.5,-286 346.5,-245.55 343.85,-233.99 327.5,-197 323.17,-187.21 316.86,-177.43 310.62,-168.98"/>
<polygon fill="black" stroke="black" points="313.36,-166.8 304.48,-161.03 307.82,-171.08 313.36,-166.8"/>
</g>
<!-- horizontalCoord_mod -->
<g id="node9" class="node">
<title>horizontalCoord_mod</title>
<g id="a_node9"><a xlink:href="../modules/horizontalCoord_mod.html" xlink:title="horizontalCoord_mod">
<polygon fill="gray" stroke="black" points="453,-89 316,-89 316,-53 453,-53 453,-89"/>
<text text-anchor="middle" x="384.5" y="-67.3" font-family="Times,serif" font-size="14.00">horizontalCoord_mod</text>
</a>
</g>
</g>
<!-- midas_ensembleH&#45;&gt;horizontalCoord_mod -->
<g id="edge8" class="edge">
<title>midas_ensembleH&#45;&gt;horizontalCoord_mod</title>
<path fill="none" stroke="black" d="M487.35,-637.72C458.1,-630.61 424.63,-617.43 403.5,-593 377.04,-562.41 384.5,-544.45 384.5,-504 384.5,-504 384.5,-504 384.5,-214 384.5,-174 384.5,-127.65 384.5,-99.08"/>
<polygon fill="black" stroke="black" points="388,-99.05 384.5,-89.05 381,-99.05 388,-99.05"/>
</g>
<!-- innovation_mod -->
<g id="node10" class="node">
<title>innovation_mod</title>
<g id="a_node10"><a xlink:href="../modules/innovation_mod.svg" xlink:title="innovation_mod">
<polygon fill="none" stroke="red" points="518.5,-593 412.5,-593 412.5,-557 518.5,-557 518.5,-593"/>
<text text-anchor="middle" x="465.5" y="-571.3" font-family="Times,serif" font-size="14.00">innovation_mod</text>
</a>
</g>
</g>
<!-- midas_ensembleH&#45;&gt;innovation_mod -->
<g id="edge9" class="edge">
<title>midas_ensembleH&#45;&gt;innovation_mod</title>
<path fill="none" stroke="black" d="M526.48,-628.7C516.37,-619.97 503.96,-609.24 492.98,-599.75"/>
<polygon fill="black" stroke="black" points="495.15,-596.99 485.29,-593.1 490.57,-602.29 495.15,-596.99"/>
</g>
<!-- midasMpi_mod -->
<g id="node11" class="node">
<title>midasMpi_mod</title>
<g id="a_node11"><a xlink:href="../modules/midasMpi_mod.html" xlink:title="midasMpi_mod">
<polygon fill="gray" stroke="black" points="556.5,-521 452.5,-521 452.5,-485 556.5,-485 556.5,-521"/>
<text text-anchor="middle" x="504.5" y="-499.3" font-family="Times,serif" font-size="14.00">midasMpi_mod</text>
</a>
</g>
</g>
<!-- midas_ensembleH&#45;&gt;midasMpi_mod -->
<g id="edge10" class="edge">
<title>midas_ensembleH&#45;&gt;midasMpi_mod</title>
<path fill="none" stroke="black" d="M543.85,-628.67C540.84,-610.54 535.31,-581.38 527.5,-557 524.69,-548.21 520.92,-538.89 517.26,-530.56"/>
<polygon fill="black" stroke="black" points="520.39,-528.99 513.06,-521.33 514.01,-531.88 520.39,-528.99"/>
</g>
<!-- obsErrors_mod -->
<g id="node12" class="node">
<title>obsErrors_mod</title>
<g id="a_node12"><a xlink:href="../modules/obsErrors_mod.html" xlink:title="obsErrors_mod">
<polygon fill="gray" stroke="black" points="594,-449 493,-449 493,-413 594,-413 594,-449"/>
<text text-anchor="middle" x="543.5" y="-427.3" font-family="Times,serif" font-size="14.00">obsErrors_mod</text>
</a>
</g>
</g>
<!-- midas_ensembleH&#45;&gt;obsErrors_mod -->
<g id="edge11" class="edge">
<title>midas_ensembleH&#45;&gt;obsErrors_mod</title>
<path fill="none" stroke="black" d="M552,-628.94C560.75,-599.4 575.84,-536.89 565.5,-485 563.71,-476.01 560.36,-466.64 556.81,-458.32"/>
<polygon fill="black" stroke="black" points="559.96,-456.77 552.63,-449.12 553.58,-459.67 559.96,-456.77"/>
</g>
<!-- obsFiles_mod -->
<g id="node13" class="node">
<title>obsFiles_mod</title>
<g id="a_node13"><a xlink:href="../modules/obsFiles_mod.html" xlink:title="obsFiles_mod">
<polygon fill="gray" stroke="black" points="632,-377 539,-377 539,-341 632,-341 632,-377"/>
<text text-anchor="middle" x="585.5" y="-355.3" font-family="Times,serif" font-size="14.00">obsFiles_mod</text>
</a>
</g>
</g>
<!-- midas_ensembleH&#45;&gt;obsFiles_mod -->
<g id="edge12" class="edge">
<title>midas_ensembleH&#45;&gt;obsFiles_mod</title>
<path fill="none" stroke="black" d="M559.24,-628.71C565.98,-618.74 573.8,-605.7 578.5,-593 601,-532.14 597.15,-513.66 602.5,-449 603.82,-433.05 604.97,-428.81 602.5,-413 601.14,-404.31 598.6,-395.1 595.89,-386.84"/>
<polygon fill="black" stroke="black" points="599.17,-385.62 592.57,-377.33 592.56,-387.93 599.17,-385.62"/>
</g>
<!-- obsSpaceData_mod -->
<g id="node14" class="node">
<title>obsSpaceData_mod</title>
<g id="a_node14"><a xlink:href="../modules/obsSpaceData_mod.html" xlink:title="obsSpaceData_mod">
<polygon fill="gray" stroke="black" points="670,-305 545,-305 545,-269 670,-269 670,-305"/>
<text text-anchor="middle" x="607.5" y="-283.3" font-family="Times,serif" font-size="14.00">obsSpaceData_mod</text>
</a>
</g>
</g>
<!-- midas_ensembleH&#45;&gt;obsSpaceData_mod -->
<g id="edge13" class="edge">
<title>midas_ensembleH&#45;&gt;obsSpaceData_mod</title>
<path fill="none" stroke="black" d="M573.52,-628.96C607.23,-605.37 660.5,-559.33 660.5,-504 660.5,-504 660.5,-504 660.5,-430 660.5,-389.46 655.88,-378.51 640.5,-341 636.7,-331.72 631.33,-322.22 626.03,-313.88"/>
<polygon fill="black" stroke="black" points="628.82,-311.75 620.38,-305.34 622.98,-315.62 628.82,-311.75"/>
</g>
<!-- ramDisk_mod -->
<g id="node15" class="node">
<title>ramDisk_mod</title>
<g id="a_node15"><a xlink:href="../modules/ramDisk_mod.html" xlink:title="ramDisk_mod">
<polygon fill="gray" stroke="black" points="708,-233 613,-233 613,-197 708,-197 708,-233"/>
<text text-anchor="middle" x="660.5" y="-211.3" font-family="Times,serif" font-size="14.00">ramDisk_mod</text>
</a>
</g>
</g>
<!-- midas_ensembleH&#45;&gt;ramDisk_mod -->
<g id="edge14" class="edge">
<title>midas_ensembleH&#45;&gt;ramDisk_mod</title>
<path fill="none" stroke="black" d="M587.63,-628.9C632.65,-607.12 698.5,-564.85 698.5,-504 698.5,-504 698.5,-504 698.5,-358 698.5,-316.63 683.27,-270.72 672.09,-242.61"/>
<polygon fill="black" stroke="black" points="675.22,-241.02 668.19,-233.09 668.74,-243.67 675.22,-241.02"/>
</g>
<!-- stateToColumn_mod -->
<g id="node16" class="node">
<title>stateToColumn_mod</title>
<g id="a_node16"><a xlink:href="../modules/stateToColumn_mod.html" xlink:title="stateToColumn_mod">
<polygon fill="gray" stroke="black" points="746,-161 615,-161 615,-125 746,-125 746,-161"/>
<text text-anchor="middle" x="680.5" y="-139.3" font-family="Times,serif" font-size="14.00">stateToColumn_mod</text>
</a>
</g>
</g>
<!-- midas_ensembleH&#45;&gt;stateToColumn_mod -->
<g id="edge15" class="edge">
<title>midas_ensembleH&#45;&gt;stateToColumn_mod</title>
<path fill="none" stroke="black" d="M605.58,-629.24C661.35,-609.37 736.5,-570.3 736.5,-504 736.5,-504 736.5,-504 736.5,-286 736.5,-245.46 732.62,-234.2 716.5,-197 712.36,-187.46 706.45,-177.81 700.6,-169.41"/>
<polygon fill="black" stroke="black" points="703.32,-167.2 694.61,-161.17 697.66,-171.32 703.32,-167.2"/>
</g>
<!-- timeCoord_mod -->
<g id="node17" class="node">
<title>timeCoord_mod</title>
<g id="a_node17"><a xlink:href="../modules/timeCoord_mod.html" xlink:title="timeCoord_mod">
<polygon fill="gray" stroke="black" points="828,-89 721,-89 721,-53 828,-53 828,-89"/>
<text text-anchor="middle" x="774.5" y="-67.3" font-family="Times,serif" font-size="14.00">timeCoord_mod</text>
</a>
</g>
</g>
<!-- midas_ensembleH&#45;&gt;timeCoord_mod -->
<g id="edge16" class="edge">
<title>midas_ensembleH&#45;&gt;timeCoord_mod</title>
<path fill="none" stroke="black" d="M605.51,-635.74C673.07,-620.2 774.5,-583.63 774.5,-504 774.5,-504 774.5,-504 774.5,-214 774.5,-174 774.5,-127.65 774.5,-99.08"/>
<polygon fill="black" stroke="black" points="778,-99.05 774.5,-89.05 771,-99.05 778,-99.05"/>
</g>
<!-- utilities_mod -->
<g id="node18" class="node">
<title>utilities_mod</title>
<g id="a_node18"><a xlink:href="../modules/utilities_mod.svg" xlink:title="utilities_mod">
<polygon fill="none" stroke="red" points="892,-593 803,-593 803,-557 892,-557 892,-593"/>
<text text-anchor="middle" x="847.5" y="-571.3" font-family="Times,serif" font-size="14.00">utilities_mod</text>
</a>
</g>
</g>
<!-- midas_ensembleH&#45;&gt;utilities_mod -->
<g id="edge17" class="edge">
<title>midas_ensembleH&#45;&gt;utilities_mod</title>
<path fill="none" stroke="black" d="M605.93,-634.11C655.07,-624 726.59,-608.68 788.5,-593 789.95,-592.63 791.42,-592.25 792.91,-591.87"/>
<polygon fill="black" stroke="black" points="794.05,-595.18 802.81,-589.21 792.24,-588.42 794.05,-595.18"/>
</g>
<!-- version_mod -->
<g id="node19" class="node">
<title>version_mod</title>
<g id="a_node19"><a xlink:href="../modules/version_mod.html" xlink:title="version_mod">
<polygon fill="gray" stroke="black" points="964.5,-521 876.5,-521 876.5,-485 964.5,-485 964.5,-521"/>
<text text-anchor="middle" x="920.5" y="-499.3" font-family="Times,serif" font-size="14.00">version_mod</text>
</a>
</g>
</g>
<!-- midas_ensembleH&#45;&gt;version_mod -->
<g id="edge18" class="edge">
<title>midas_ensembleH&#45;&gt;version_mod</title>
<path fill="none" stroke="black" d="M605.55,-645C694.97,-642.23 858.75,-631.83 900.5,-593 917.21,-577.46 921.45,-551.21 921.96,-531.24"/>
<polygon fill="black" stroke="black" points="925.45,-531.16 921.92,-521.18 918.45,-531.19 925.45,-531.16"/>
</g>
<!-- verticalCoord_mod -->
<g id="node20" class="node">
<title>verticalCoord_mod</title>
<g id="a_node20"><a xlink:href="../modules/verticalCoord_mod.html" xlink:title="verticalCoord_mod">
<polygon fill="gray" stroke="black" points="1054,-449 931,-449 931,-413 1054,-413 1054,-449"/>
<text text-anchor="middle" x="992.5" y="-427.3" font-family="Times,serif" font-size="14.00">verticalCoord_mod</text>
</a>
</g>
</g>
<!-- midas_ensembleH&#45;&gt;verticalCoord_mod -->
<g id="edge19" class="edge">
<title>midas_ensembleH&#45;&gt;verticalCoord_mod</title>
<path fill="none" stroke="black" d="M605.59,-643.5C698.22,-638.63 872.44,-625.37 924.5,-593 970.47,-564.42 985.39,-497.49 990.21,-459.54"/>
<polygon fill="black" stroke="black" points="993.74,-459.54 991.37,-449.21 986.78,-458.76 993.74,-459.54"/>
</g>
</g>
</svg>
